<svg width="342" height="83" fill="none" xmlns="http://www.w3.org/2000/svg"><path d="M132.2 11.3c-6 0-10 2.8-10 8.7v41.8c0 1.4.6 2.3 3.3 2.3 2.5 0 3.2-.9 3.2-2.4V43.2h7v18.6c0 1.4.7 2.3 3.3 2.3 2.7 0 3.3-.9 3.3-2.4V20c0-6-4-8.7-10.1-8.7ZM128.7 38V20c0-2.2 1.6-3.4 3.5-3.4 2 0 3.5 1.2 3.5 3.4v18h-7Zm37.3 0V28c0-1.5-.6-2.5-3-2.5-2.6 0-3.2 1-3.2 2.4v10.2c0 2.3-1.4 3.3-3.9 3.3-1.4 0-2.6.1-3.8.5v-14c0-1.4-.6-2.4-3-2.4-2.6 0-3.2 1-3.2 2.4v33.7c0 1.4.6 2.5 3.1 2.5s3.1-1 3.1-2.5V49.7c0-2.3 1.4-3.3 3.8-3.3 2.5 0 3.9 1 3.9 3.3v12c0 1.3.6 2.4 3.1 2.4s3-1 3-2.5V49.7c0-2.3-.8-4.4-2.3-5.8a7.9 7.9 0 0 0 2.4-5.8Zm23.7 1v-5.2c0-5-4-8.3-10-8.3-6.2 0-10.1 3.2-10.1 8.3v22c0 5 3.9 8.3 10 8.3 6.2 0 10-3.3 10-8.3v-5.2c0-2.5-.8-4.4-2.4-6a7.1 7.1 0 0 0 2.5-5.6Zm-13.9 0v-5.2c0-2.3 1.4-3.3 3.8-3.3 2.5 0 3.9 1 3.9 3.3V39c0 2.3-1.4 3.2-3.9 3.2-2.4 0-3.8-1-3.8-3.2Zm7.7 11.6v5.2c0 2.3-1.4 3.2-3.9 3.2-2.4 0-3.8-1-3.8-3.2v-9.3c1.1.3 2.4.4 3.8.4 2.5 0 3.9 1.4 3.9 3.7Zm19.8-25.1c-5.3 0-10 2.5-10 7.9v2.5c0 1.4.6 2.4 3 2.4 2.7 0 3.2-.6 3.2-2.4v-2.5c0-1.9 1.5-2.9 3.8-2.9 2.5 0 3.9 1 3.9 2.9v8.4c-1.2-.4-2.6-.8-3.9-.8-6 0-10 3.4-10 8.4v6.4c0 5 3.9 8.3 10 8.3 6.2 0 10-3.3 10-8.3V33.2c0-5.2-3.8-7.7-10-7.7Zm3.9 30.3c0 2.3-1.4 3.2-3.9 3.2-2.4 0-3.8-1-3.8-3.2v-6.4c0-2.3 1.4-3.3 3.8-3.3 2.5 0 3.9 1 3.9 3.3v6.4Zm28.2-29.5h-16.8c-1 0-1.6.5-1.6 2.3 0 2 .7 2.4 1.6 2.4h5.3v30.6c0 1.4.6 2.5 3.1 2.5s3.2-1 3.2-2.5V31h5.2c1 0 1.7-.5 1.7-2.4 0-1.8-.7-2.3-1.7-2.3Zm15.3-.8c-6.1 0-10 3.2-10 8.3v22c0 5 3.9 8.3 10 8.3 6.2 0 10-3.3 10-8.3v-22c0-5-3.8-8.3-10-8.3Zm0 33.5c-2.4 0-3.8-1-3.8-3.2v-22c0-2.3 1.4-3.3 3.8-3.3s3.9 1 3.9 3.3v22c0 2.3-1.5 3.2-3.9 3.2Zm23.7-33.5c-6.1 0-10 3.2-10 8.3v42.6c0 1.4.6 2.4 3.1 2.4s3-1 3-2.4V63.5c1.2.3 2.5.5 4 .5 6 0 10-3.3 10-8.3V33.8c0-5-4-8.3-10-8.3Zm0 33.5c-2.4 0-3.8-1-3.8-3.3V33.8c0-2.3 1.4-3.3 3.8-3.3s3.8 1 3.8 3.3v21.9c0 2.3-1.4 3.3-3.8 3.3Zm32.3-32.7c-5 0-9.3 2.2-9.3 8v21.1c0 2-1.4 2.8-3.1 2.8V27.9c0-1.4-.7-2.4-3.1-2.4-2.5 0-3.1 1-3.1 2.4v35.3h6.2c5 0 9.3-2 9.3-8v-21c0-2.1 1.4-2.8 3-2.8v30.2c0 1.4.8 2.5 3.2 2.5 2.4 0 3.1-1 3.1-2.5V26.3h-6.2Zm19.9-.8c-6.1 0-10 3.2-10 8.3v6.8c0 2.4 1.1 4.4 2.8 5.8a7.6 7.6 0 0 0-2.8 5.8v9.4c0 1.4.7 2.5 3 2.5 2.6 0 3.2-1 3.2-2.5v-9.4c0-2.3 1.4-3.2 3.8-3.2 1.4 0 2.7-.2 3.8-.5v13.1c0 1.4.7 2.5 3.2 2.5s3-1 3-2.5V33.8c0-5-3.9-8.3-10-8.3Zm0 18.4c-2.4 0-3.8-1-3.8-3.3v-6.8c0-2.3 1.4-3.3 3.8-3.3s3.8 1 3.8 3.3v6.8c0 2.3-1.4 3.3-3.8 3.3Z" fill="#146294"/><circle cx="57.8" cy="39.2" r="39" fill="url(#a)"/><path d="M42.8 62.7c4.5 9.5 15 11.5 15 15.5-21.5 0-37-16.5-38-32 9 3.5 9 2.5 16.5 6.5 5 9-3.5 1 6.5 10Z" fill="#F8971D"/><circle cx="84.8" cy="44.2" r="4" fill="#fff"/><path d="M15.7 29.4S37.2 15.7 50 37c12.8 21.2 19.5 23.3 45 17" stroke="#fff" stroke-width="4"/><path d="M11.4 41.5s21-14.5 34.5 6.3 20.3 22.6 45.5 15.5" stroke="#fff" stroke-width="4"/><path d="M3.4 51.5s21-14.5 34.5 6.3 20.3 22.6 45.5 15.5" stroke="#fff" stroke-width="4"/><defs><radialGradient id="a" cx="0" cy="0" r="1" gradientUnits="userSpaceOnUse" gradientTransform="matrix(-53.50063 74.99958 -71.98702 -51.35164 90.8 -3.3)"><stop stop-color="#fff"/><stop offset=".4" stop-color="#1777A0"/><stop offset="1" stop-color="#12638D"/></radialGradient></defs></svg>