<svg width="306" height="80" fill="none" xmlns="http://www.w3.org/2000/svg"><path d="M14.1 22c0-5.9 1.4-7.7 5.5-7.7v-1.4H2.3v1.4c4 0 5.4 1.6 5.4 7.6v30c0 6.2-1.5 7.7-5.4 7.7V61h17.3v-1.4c-4 0-5.5-1.8-5.5-7.7V22ZM37 38.4c3.5.4 5.2.5 7.3.5 11 0 17-4.5 17-12.4 0-6.7-5.4-13.7-18.6-13.7H25v1.4c4 0 5.5 1.8 5.5 7.6v30.2c0 6.4-2.1 7.5-5.5 7.5V61h17.3v-1.4c-4 0-5.4-1.7-5.4-7.7V38.5Zm0-23.8h6c8.7 0 11.6 6.9 11.6 12 0 6.6-4.5 10.4-11.7 10.4-2.5 0-3.8 0-6-.8V14.7Zm73.5 33.4c0-4.2 1.3-6.5 6-6.5v-1.4H96.9v1.4h1.9c4 0 5.3 2.1 5.3 8v5.2c0 4.3-4.7 5.1-8.1 5.1-11.4 0-19.8-10.4-19.8-24.5 0-13.2 7.4-21.9 17.4-21.9 6.5 0 14.7 3.9 16 13h1.3V12.5h-1.6c-.5 1.1-1.1 1.6-2.6 1.6-3.7 0-6.3-2.3-13.1-2.3a25.4 25.4 0 0 0-24.8 26.6c0 11.1 7 23.9 28.2 23.9 2.2 0 10.8-.4 13.4-1.2V48Z" fill="#000"/><path stroke="#000" d="M131.5 3v74"/><path d="M149.4 14.7v.2a2 2 0 0 0-1.3.5c-.4.3-.6.7-.6 1.4V30c0 .7.2 1.2.6 1.5.4.3.8.4 1.3.4v.2h-5.5v-.2c.5 0 1-.1 1.3-.4.3-.3.5-.8.5-1.5V17c0-.8-.2-1.3-.5-1.6-.4-.2-.8-.4-1.3-.4v-.2h5.5Zm19.6 0v.2c-.5 0-.8.2-1 .3-.3.1-.5.3-.6.7-.2.3-.3.8-.3 1.4v15.1l-13.3-14.8v12.7c.1.4.2.7.4.9.3.4.8.6 1.5.6v.2h-4.3v-.2c.5 0 .8-.1 1-.3.4-.2.6-.5.7-1l.1-2.2V17l-.5-.6c-.5-.6-1-1-1.3-1.1a4 4 0 0 0-1-.4v-.2h3.2l13 14.7V16.3c-.2-.4-.3-.7-.6-1-.3-.2-.7-.3-1.4-.4v-.2h4.4Zm17 0v.2a2 2 0 0 0-1 .5 3 3 0 0 0-.8 1 16.7 16.7 0 0 0-.8 1.7l-5 14.4h-.2L172.3 17v-.2c-.2-.6-.5-1.1-1-1.4a2 2 0 0 0-1.3-.5v-.2h5.7v.2c-.5 0-.9.2-1.2.3-.3.2-.4.5-.4 1a4.1 4.1 0 0 0 .2 1.1l4.6 12.1 4-11.3.3-1.7c0-.6-.1-1-.4-1.2l-1.1-.3v-.2h4.3Zm1.1.2v-.2h10.3v2.8h-.1c0-1.5-1-2.2-3-2.2h-3.5V23h3.1c.6 0 1.2 0 1.7-.3.5-.2.8-.7.8-1.4h.2v4h-.2a2 2 0 0 0-.4-1l-.5-.6h-.6l-.8-.2h-3.3v6.2c0 .4 0 .8.2 1.2.2.3.6.5 1.2.5h2.6c.6 0 1.1-.1 1.5-.3l1-.7.6-1.2h.1l-.6 2.7h-10.3v-.2h.3c.3 0 .7-.1 1-.4.4-.3.6-.8.6-1.5V17c0-.5-.1-1-.4-1.4-.2-.4-.6-.6-1.2-.6h-.3Zm21.2 3.2h-.2c-.1-.9-.5-1.6-1.1-2.2-.6-.7-1.5-1-2.5-1-.6 0-1.2.2-1.7.5-.6.3-1 .7-1.2 1.3a4 4 0 0 0-.5 1.8c0 .6.1 1 .3 1.5l.7 1 1.2 1 1.8 1c1.3.7 2.2 1.4 3 2 .7.8 1 1.7 1 3a4.3 4.3 0 0 1-2.3 3.7c-.7.5-1.7.7-2.8.7-.7 0-1.4 0-2-.2l-1.6-.7-.5-.1c-.1 0-.2 0-.3.2l-.2.7h-.2V28h.2c.3 1.3.8 2.2 1.7 2.9.8.6 1.8 1 3 1a4 4 0 0 0 2-.5c.5-.4 1-.8 1.1-1.2l.3-1.4c0-1-.3-1.8-.9-2.4-.6-.6-1.4-1.2-2.7-1.9a39.2 39.2 0 0 1-3-2l-1-1.4c-.2-.6-.3-1.2-.3-1.9 0-.8.2-1.6.6-2.3.4-.8 1-1.4 1.8-1.8.8-.5 1.7-.7 2.7-.7.8 0 1.5.1 2.3.4h.5c.3 0 .5 0 .6-.4h.2V18Zm17 0c-.2-1.1-.5-1.9-1-2.2-.6-.3-1.4-.5-2.2-.5h-3.4V30c0 1.2.6 1.9 1.9 2v.1H215v-.2c.5 0 1-.2 1.3-.4.3-.3.5-.8.5-1.5V15.4h-3.4c-.9 0-1.6.2-2.1.5-.6.3-1 1-1 2.2h-.2v-4.2h.2l.3.4.4.3.5.1H223.5a2 2 0 0 0 1.7-.8h.2V18ZM144 42.9v-.2h5.7c1 0 1.8.2 2.5.4.7.3 1.3.6 1.8 1 .5.5.8 1 1 1.6.3.5.4 1.1.4 1.7 0 .7-.1 1.2-.3 1.8a4 4 0 0 1-1 1.5c-.5.4-1.2.8-2 1-.7.3-1.6.4-2.6.4l-1.9-.1v6c0 1.1.7 1.8 2 1.8v.2h-5.6v-.2c.6 0 1-.2 1.3-.4.4-.3.6-.8.6-1.5V45l-.2-1c-.1-.3-.3-.5-.5-.6l-.5-.3h-.7Zm3.6.4v8.2l1.8.1c1.1 0 2-.2 2.9-.8.7-.6 1.1-1.7 1.1-3.2 0-1.3-.3-2.3-1-3.2-.7-.8-1.7-1.2-3.1-1.2l-1.7.1Zm9.6-.3h-.3v-.3h6c1 0 1.8.2 2.4.5a4.2 4.2 0 0 1 2.4 2.6c.2.5.2 1 .2 1.5 0 .6 0 1.2-.4 1.8-.2.5-.6 1-1.2 1.4-.5.5-1.2.7-2 .9 1 .5 2 1.5 2.9 3l1.5 2.6c.7 1.2 1.3 2 1.7 2.3.4.3.9.5 1.3.5v.2h-3.2a75.8 75.8 0 0 1-.7-1l-.4-.5-.2-.4-2-3.5-1.4-1.6c-.4-.5-.8-.8-1.2-1l-1-.3-1-.1v6.3c0 1.2.6 1.9 1.8 2v.1h-5.5v-.2c.4 0 .7 0 1-.2.2 0 .4-.3.6-.6.2-.2.3-.6.3-1V44.8c0-.7-.2-1.2-.5-1.5-.4-.3-.7-.4-1.1-.4Zm3.3 8.1h1c1 0 2-.1 2.6-.4a3 3 0 0 0 1.4-1.3c.3-.5.5-1.2.5-2a5 5 0 0 0-.4-2c-.3-.6-.8-1.1-1.4-1.5-.6-.5-1.5-.7-2.6-.7l-1 .1v7.8Zm29.3.3a9 9 0 0 1-17 4.5 9 9 0 0 1-1.2-4.6 9 9 0 0 1 5.7-8.4 9 9 0 0 1 12.5 8.5Zm-2 0c0-2.3-.4-4-1.3-5.4a6.2 6.2 0 0 0-2.8-2.6 7.6 7.6 0 0 0-5.3-.3 6.4 6.4 0 0 0-4 4c-.5 1.2-.7 2.6-.7 4.3 0 1.4.1 2.7.5 3.9.4 1 1 2 1.7 2.7a6.4 6.4 0 0 0 4.9 2c.8 0 1.6-.2 2.4-.5a6.3 6.3 0 0 0 4-4c.3-1.1.6-2.5.6-4Zm22.5-8.7v.2a8 8 0 0 0-.7.1 1 1 0 0 0-.5.3c-.3.2-.4.4-.5.6l-.1.9v.2l.6 12.8c0 .6.1 1 .4 1.4.2.4.7.6 1.5.6v.2h-5.5v-.2c.7 0 1.2-.3 1.4-.6.3-.4.4-1 .4-1.6l-.6-13.3-6.2 15.7-5.7-15.1L194 57l.1 1.6c.1.3.3.6.6.8l1 .3v.2h-4.3v-.2c.6 0 1-.1 1.3-.4.3-.2.5-.6.6-1l.2-1.5.7-12.7-.2-.2c0-.2-.2-.3-.3-.4a2 2 0 0 0-.4-.3l-.7-.3h-.8v-.3h4L201 57l5.5-14.2h3.6Zm26 3.6h-.2c-.3-1.1-1-2-2-2.6-1-.6-2.3-1-3.7-1-.7 0-1.5.2-2.3.4a6.5 6.5 0 0 0-4.3 3.8 10 10 0 0 0-.8 4.2c0 2.7.6 4.8 1.8 6.4 1.3 1.6 3.3 2.4 6 2.4 1.2 0 2 0 2.5-.2.5-.1.8-.3 1-.6l.2-1v-3.2c0-.8-.2-1.3-.5-1.5a3 3 0 0 0-1.4-.5v-.2h5.6v.2a3 3 0 0 0-1.2.4c-.3.1-.5.3-.6.6l-.1 1v4.9a20.4 20.4 0 0 1-8.1.4c-1-.1-2-.5-3-1a9 9 0 0 1-4.4-7.8 9.3 9.3 0 0 1 2.6-6.3c.8-1 1.8-1.6 3-2.1a9.8 9.8 0 0 1 5.6-.6 33.2 33.2 0 0 1 3.2.5c.4 0 .7-.2.9-.5h.2v4Zm3.1-3.3h-.2v-.3h6c1 0 1.7.2 2.4.5a4.2 4.2 0 0 1 2.4 2.6l.2 1.5c0 .6-.1 1.2-.4 1.8-.2.5-.6 1-1.2 1.4-.5.5-1.2.7-2 .9 1 .5 2 1.5 2.8 3L251 57c.7 1.2 1.3 2 1.7 2.3.4.3.8.5 1.2.5v.2h-3a39 39 0 0 1-.8-1l-.4-.5-.3-.4-2-3.5c-.4-.7-.9-1.2-1.3-1.6-.4-.5-.8-.8-1.2-1l-1-.3-1-.1v6.3c0 1.2.5 1.9 1.8 2v.1H239v-.2c.3 0 .6 0 1-.2.2 0 .4-.3.6-.6l.2-1V44.8c0-.7-.1-1.2-.5-1.5-.3-.3-.7-.4-1-.4Zm3.4 8.1h1c1 0 1.9-.1 2.5-.4a3 3 0 0 0 1.5-1.3c.3-.5.4-1.2.4-2a5 5 0 0 0-.4-2c-.2-.6-.7-1.1-1.3-1.5-.7-.5-1.5-.7-2.6-.7l-1 .1v7.8Zm29.3.3a9 9 0 0 1-17 4.5 9 9 0 0 1-.5-8.1 9 9 0 0 1 5-4.9 9 9 0 0 1 9.7 1.9 8.9 8.9 0 0 1 2.8 6.6Zm-2 0c0-2.3-.5-4-1.3-5.4a6.2 6.2 0 0 0-2.8-2.6 7.6 7.6 0 0 0-5.3-.3 6.4 6.4 0 0 0-4 4c-.5 1.2-.8 2.6-.8 4.3 0 1.4.2 2.7.6 3.9.4 1 1 2 1.6 2.7a6.5 6.5 0 0 0 5 2c.7 0 1.5-.2 2.4-.5a6.3 6.3 0 0 0 3.9-4c.4-1.1.6-2.5.6-4Zm21.2 8.6h-3.6v-2.9h-.1a5 5 0 0 1-2.3 2.5 6.4 6.4 0 0 1-6.4 0c-1-.6-1.7-1.3-2.1-2.2-.4-.6-.6-1.2-.7-1.9l-.1-2v-8.6c0-.6-.1-1-.3-1.3-.2-.4-.7-.6-1.5-.7v-.2h5.4v.2c-.8.1-1.3.4-1.5.7-.2.4-.3.8-.3 1.3v8.4c0 1.7.2 3 .5 3.8a4.5 4.5 0 0 0 4.3 2.8 5.8 5.8 0 0 0 3-1c1.3-.9 2-2.5 2-4.6v-9.4c0-.5 0-1-.3-1.3-.2-.4-.7-.6-1.5-.7v-.2h5.5v.2c-.8 0-1.3.3-1.5.7-.3.4-.4.8-.4 1.2V58c0 .5 0 .8.2 1 .2.4.4.5.7.6.2.2.6.2 1 .3v.2Zm1.7-17v-.3h5.7c1 0 1.8.2 2.5.4.7.3 1.3.6 1.8 1 .5.5.8 1 1 1.6.3.5.4 1.1.4 1.7 0 .7 0 1.2-.3 1.8a4 4 0 0 1-1 1.5c-.5.4-1.2.8-2 1-.7.3-1.6.4-2.6.4l-1.8-.1v6c0 1.1.6 1.8 1.8 1.8v.2H293v-.2c.6 0 1-.2 1.4-.4.3-.3.5-.8.5-1.5V45c0-.4 0-.8-.2-1-.1-.3-.3-.5-.5-.6l-.5-.3h-.7Zm3.7.3v8.2l1.7.1c1.1 0 2-.2 2.9-.8.7-.6 1.1-1.7 1.1-3.2 0-1.3-.3-2.3-1-3.2-.7-.8-1.7-1.2-3.1-1.2l-1.6.1Z" fill="#000"/></svg>