<svg width="306" height="80" viewBox="0 0 306 80" fill="none" xmlns="http://www.w3.org/2000/svg">
<path d="M14.1 22C14.1 16.1 15.5001 14.3 19.6 14.3V12.9H2.30005V14.3C6.30005 14.3 7.70005 15.9 7.70005 21.9V51.9001C7.70005 58.1001 6.20005 59.6 2.30005 59.6V61H19.6V59.6C15.6 59.6 14.1 57.8001 14.1 51.9001V22V22ZM37 38.4001C40.5 38.8001 42.2 38.9001 44.3 38.9001C55.3 38.9001 61.3 34.4 61.3 26.5C61.3 19.8 55.9001 12.8 42.7001 12.8H25V14.2C29 14.2 30.5 16 30.5 21.8V52C30.5 58.4 28.4 59.5 25 59.5V61H42.3V59.6C38.3 59.6 36.9001 57.9001 36.9001 51.9001V38.5L37 38.4001ZM37 14.6H43C51.7 14.6 54.6 21.5 54.6 26.6C54.6 33.2 50.1001 37 42.9001 37C40.4001 37 39.1001 37.0001 36.9001 36.2001V14.7L37 14.6ZM110.5 48C110.5 43.8 111.8 41.5 116.5 41.5V40.1H96.9V41.5H98.8C102.8 41.5 104.1 43.6 104.1 49.5V54.7001C104.1 59.0001 99.4 59.8 96 59.8C84.6 59.8 76.2 49.4 76.2 35.3C76.2 22.1 83.6 13.4 93.6 13.4C100.1 13.4 108.3 17.3 109.6 26.4H110.9V12.5H109.3C108.8 13.6 108.2 14.1 106.7 14.1C103 14.1 100.4 11.8 93.6 11.8C90.2118 11.8763 86.8732 12.6298 83.7807 14.0162C80.6882 15.4026 77.9044 17.3939 75.5933 19.8727C73.2822 22.3515 71.4905 25.2678 70.3239 28.4497C69.1572 31.6316 68.6391 35.0148 68.8 38.4001C68.8 49.5001 75.8 62.3 97 62.3C99.2 62.3 107.8 61.9 110.4 61.1V48H110.5Z" fill="#CAD5DD"/>
<path d="M131.5 3V77" stroke="#CAD5DD"/>
<path d="M149.4 14.6999V14.8999C148.921 14.9054 148.459 15.0829 148.1 15.3999C147.7 15.6999 147.5 16.0999 147.5 16.7999V29.9999C147.5 30.6999 147.7 31.1999 148.1 31.4999C148.5 31.7999 148.9 31.8999 149.4 31.8999V32.0999H143.9V31.8999C144.4 31.8999 144.9 31.7999 145.2 31.4999C145.5 31.1999 145.7 30.6999 145.7 29.9999V16.9999C145.7 16.1999 145.5 15.6999 145.2 15.3999C144.8 15.1999 144.4 14.9999 143.9 14.9999V14.7999H149.4V14.6999ZM169 14.6999V14.8999C168.5 14.8999 168.2 15.0999 168 15.1999C167.7 15.2999 167.5 15.4999 167.4 15.8999C167.2 16.1999 167.1 16.6999 167.1 17.2999V32.3999L153.8 17.5999V30.2999C153.9 30.6999 154 30.9999 154.2 31.1999C154.5 31.5999 155 31.7999 155.7 31.7999V31.9999H151.4V31.7999C151.9 31.7999 152.2 31.6999 152.4 31.4999C152.8 31.2999 153 30.9999 153.1 30.4999L153.2 28.2999V16.9999L152.7 16.3999C152.2 15.7999 151.7 15.3999 151.4 15.2999C151.086 15.1221 150.75 14.9875 150.4 14.8999V14.6999H153.6L166.6 29.3999V16.2999C166.4 15.8999 166.3 15.5999 166 15.2999C165.7 15.0999 165.3 14.9999 164.6 14.8999V14.6999H169V14.6999ZM186 14.6999V14.8999C185.626 14.9681 185.279 15.1416 185 15.3999C184.664 15.6718 184.391 16.0129 184.2 16.3999C183.902 16.9511 183.634 17.5187 183.4 18.0999L178.4 32.4999H178.2L172.3 16.9999V16.7999C172.1 16.1999 171.8 15.6999 171.3 15.3999C170.94 15.0829 170.479 14.9054 170 14.8999V14.6999H175.7V14.8999C175.2 14.8999 174.8 15.0999 174.5 15.1999C174.2 15.3999 174.1 15.6999 174.1 16.1999C174.116 16.574 174.183 16.9441 174.3 17.2999L178.9 29.3999L182.9 18.0999L183.2 16.3999C183.2 15.7999 183.1 15.3999 182.8 15.1999L181.7 14.8999V14.6999H186V14.6999ZM187.1 14.8999V14.6999H197.4V17.4999H197.3C197.3 15.9999 196.3 15.2999 194.3 15.2999H190.8V22.9999H193.9C194.5 22.9999 195.1 22.9999 195.6 22.6999C196.1 22.4999 196.4 21.9999 196.4 21.2999H196.6V25.2999H196.4C196.361 24.9363 196.222 24.5904 196 24.2999L195.5 23.6999H194.9L194.1 23.4999H190.8V29.6999C190.8 30.0999 190.8 30.4999 191 30.8999C191.2 31.1999 191.6 31.3999 192.2 31.3999H194.8C195.4 31.3999 195.9 31.2999 196.3 31.0999L197.3 30.3999L197.9 29.1999H198L197.4 31.8999H187.1V31.6999H187.4C187.7 31.6999 188.1 31.5999 188.4 31.2999C188.8 30.9999 189 30.4999 189 29.7999V16.9999C189 16.4999 188.9 15.9999 188.6 15.5999C188.4 15.1999 188 14.9999 187.4 14.9999H187.1V14.8999ZM208.3 18.0999H208.1C208 17.1999 207.6 16.4999 207 15.8999C206.4 15.1999 205.5 14.8999 204.5 14.8999C203.9 14.8999 203.3 15.0999 202.8 15.3999C202.2 15.6999 201.8 16.0999 201.6 16.6999C201.294 17.252 201.122 17.8688 201.1 18.4999C201.1 19.0999 201.2 19.4999 201.4 19.9999L202.1 20.9999L203.3 21.9999L205.1 22.9999C206.4 23.6999 207.3 24.3999 208.1 24.9999C208.8 25.7999 209.1 26.6999 209.1 27.9999C209.081 28.7656 208.858 29.5123 208.453 30.1627C208.049 30.8132 207.478 31.3439 206.8 31.6999C206.1 32.1999 205.1 32.3999 204 32.3999C203.3 32.3999 202.6 32.3999 202 32.1999L200.4 31.4999L199.9 31.3999C199.8 31.3999 199.7 31.3999 199.6 31.5999L199.4 32.2999H199.2V27.9999H199.4C199.7 29.2999 200.2 30.1999 201.1 30.8999C201.9 31.4999 202.9 31.8999 204.1 31.8999C204.799 31.9108 205.488 31.7385 206.1 31.3999C206.6 30.9999 207.1 30.5999 207.2 30.1999L207.5 28.7999C207.5 27.7999 207.2 26.9999 206.6 26.3999C206 25.7999 205.2 25.1999 203.9 24.4999C202.87 23.8796 201.869 23.2122 200.9 22.4999L199.9 21.0999C199.7 20.4999 199.6 19.8999 199.6 19.1999C199.6 18.3999 199.8 17.5999 200.2 16.8999C200.6 16.0999 201.2 15.4999 202 15.0999C202.8 14.5999 203.7 14.3999 204.7 14.3999C205.5 14.3999 206.2 14.4999 207 14.7999H207.5C207.8 14.7999 208 14.7999 208.1 14.3999H208.3V17.9999V18.0999ZM225.3 18.0999C225.1 16.9999 224.8 16.1999 224.3 15.8999C223.7 15.5999 222.9 15.3999 222.1 15.3999H218.7V29.9999C218.7 31.1999 219.3 31.8999 220.6 31.9999V32.0999H215V31.8999C215.5 31.8999 216 31.6999 216.3 31.4999C216.6 31.1999 216.8 30.6999 216.8 29.9999V15.3999H213.4C212.5 15.3999 211.8 15.5999 211.3 15.8999C210.7 16.1999 210.3 16.8999 210.3 18.0999H210.1V13.8999H210.3L210.6 14.2999L211 14.5999L211.5 14.6999H223.5C223.827 14.716 224.153 14.6514 224.45 14.512C224.746 14.3725 225.004 14.1623 225.2 13.8999H225.4V17.9999L225.3 18.0999ZM144 42.8999V42.6999H149.7C150.7 42.6999 151.5 42.8999 152.2 43.0999C152.9 43.3999 153.5 43.6999 154 44.0999C154.5 44.5999 154.8 45.0999 155 45.6999C155.3 46.1999 155.4 46.7999 155.4 47.3999C155.4 48.0999 155.3 48.5999 155.1 49.1999C154.885 49.7695 154.543 50.2825 154.1 50.6999C153.6 51.0999 152.9 51.4999 152.1 51.6999C151.4 51.9999 150.5 52.0999 149.5 52.0999L147.6 51.9999V57.9999C147.6 59.0999 148.3 59.7999 149.6 59.7999V59.9999H144V59.7999C144.6 59.7999 145 59.5999 145.3 59.3999C145.7 59.0999 145.9 58.5999 145.9 57.8999V44.9999L145.7 43.9999C145.6 43.6999 145.4 43.4999 145.2 43.3999L144.7 43.0999H144V42.8999ZM147.6 43.2999V51.4999L149.4 51.5999C150.5 51.5999 151.4 51.3999 152.3 50.7999C153 50.1999 153.4 49.0999 153.4 47.5999C153.4 46.2999 153.1 45.2999 152.4 44.3999C151.7 43.5999 150.7 43.1999 149.3 43.1999L147.6 43.2999V43.2999ZM157.2 42.9999H156.9V42.6999H162.9C163.9 42.6999 164.7 42.8999 165.3 43.1999C165.865 43.4326 166.373 43.7858 166.787 44.2348C167.202 44.6839 167.513 45.218 167.7 45.7999C167.9 46.2999 167.9 46.7999 167.9 47.2999C167.9 47.8999 167.9 48.4999 167.5 49.0999C167.3 49.5999 166.9 50.0999 166.3 50.4999C165.8 50.9999 165.1 51.1999 164.3 51.3999C165.3 51.8999 166.3 52.8999 167.2 54.3999L168.7 56.9999C169.4 58.1999 170 58.9999 170.4 59.2999C170.8 59.5999 171.3 59.7999 171.7 59.7999V59.9999H168.5C168.264 59.6685 168.031 59.3351 167.8 58.9999L167.4 58.4999L167.2 58.0999L165.2 54.5999L163.8 52.9999C163.4 52.4999 163 52.1999 162.6 51.9999L161.6 51.6999L160.6 51.5999V57.8999C160.6 59.0999 161.2 59.7999 162.4 59.8999V59.9999H156.9V59.7999C157.3 59.7999 157.6 59.7999 157.9 59.5999C158.1 59.5999 158.3 59.2999 158.5 58.9999C158.7 58.7999 158.8 58.3999 158.8 57.9999V44.7999C158.8 44.0999 158.6 43.5999 158.3 43.2999C157.9 42.9999 157.6 42.8999 157.2 42.8999V42.9999ZM160.5 51.0999H161.5C162.5 51.0999 163.5 50.9999 164.1 50.6999C164.696 50.4307 165.187 49.9742 165.5 49.3999C165.8 48.8999 166 48.1999 166 47.3999C166.005 46.7128 165.869 46.032 165.6 45.3999C165.3 44.7999 164.8 44.2999 164.2 43.8999C163.6 43.3999 162.7 43.1999 161.6 43.1999L160.6 43.2999V51.0999H160.5ZM189.8 51.3999C189.89 53.4513 189.275 55.4717 188.059 57.1259C186.842 58.78 185.097 59.9685 183.112 60.4939C181.127 61.0193 179.022 60.8502 177.146 60.0146C175.27 59.179 173.737 57.7271 172.8 55.8999C171.995 54.5018 171.58 52.9131 171.6 51.2999C171.595 49.4888 172.136 47.7182 173.153 46.2196C174.17 44.7209 175.615 43.564 177.3 42.8999C178.685 42.3149 180.194 42.0861 181.689 42.2343C183.185 42.3824 184.62 42.9029 185.863 43.7481C187.106 44.5933 188.118 45.7364 188.805 47.073C189.493 48.4096 189.835 49.8972 189.8 51.3999ZM187.8 51.3999C187.8 49.0999 187.4 47.3999 186.5 45.9999C185.864 44.8601 184.884 43.9502 183.7 43.3999C182.027 42.6661 180.145 42.5596 178.4 43.0999C177.471 43.4155 176.628 43.9404 175.934 44.634C175.24 45.3275 174.716 46.1712 174.4 47.0999C173.9 48.2999 173.7 49.6999 173.7 51.3999C173.7 52.7999 173.8 54.0999 174.2 55.2999C174.6 56.2999 175.2 57.2999 175.9 57.9999C176.527 58.6634 177.288 59.1852 178.133 59.5301C178.979 59.8751 179.888 60.0353 180.8 59.9999C181.6 59.9999 182.4 59.7999 183.2 59.4999C184.132 59.1911 184.98 58.6686 185.674 57.9741C186.369 57.2796 186.891 56.4323 187.2 55.4999C187.5 54.3999 187.8 52.9999 187.8 51.4999V51.3999ZM210.3 42.6999V42.8999C210.065 42.9229 209.832 42.9563 209.6 42.9999C209.407 43.048 209.233 43.1525 209.1 43.2999C208.8 43.4999 208.7 43.6999 208.6 43.8999L208.5 44.7999V44.9999L209.1 57.7999C209.1 58.3999 209.2 58.7999 209.5 59.1999C209.7 59.5999 210.2 59.7999 211 59.7999V59.9999H205.5V59.7999C206.2 59.7999 206.7 59.4999 206.9 59.1999C207.2 58.7999 207.3 58.1999 207.3 57.5999L206.7 44.2999L200.5 59.9999L194.8 44.8999L194 56.9999L194.1 58.5999C194.2 58.8999 194.4 59.1999 194.7 59.3999L195.7 59.6999V59.8999H191.4V59.6999C192 59.6999 192.4 59.5999 192.7 59.2999C193 59.0999 193.2 58.6999 193.3 58.2999L193.5 56.7999L194.2 44.0999L194 43.8999C194 43.6999 193.8 43.5999 193.7 43.4999C193.58 43.3836 193.445 43.2828 193.3 43.1999L192.6 42.8999H191.8V42.5999H195.8L201 56.9999L206.5 42.7999H210.1L210.3 42.6999ZM236.3 46.2999H236.1C235.8 45.1999 235.1 44.2999 234.1 43.6999C233.1 43.0999 231.8 42.6999 230.4 42.6999C229.7 42.6999 228.9 42.8999 228.1 43.0999C227.14 43.362 226.253 43.8409 225.508 44.4997C224.762 45.1585 224.178 45.9797 223.8 46.8999C223.234 48.2259 222.961 49.6586 223 51.0999C223 53.7999 223.6 55.8999 224.8 57.4999C226.1 59.0999 228.1 59.8999 230.8 59.8999C232 59.8999 232.8 59.8999 233.3 59.6999C233.8 59.5999 234.1 59.3999 234.3 59.0999L234.5 58.0999V54.8999C234.5 54.0999 234.3 53.5999 234 53.3999C233.583 53.1184 233.101 52.9465 232.6 52.8999V52.6999H238.2V52.8999C237.776 52.9464 237.367 53.0828 237 53.2999C236.7 53.3999 236.5 53.5999 236.4 53.8999L236.3 54.8999V59.7999C233.654 60.474 230.899 60.61 228.2 60.1999C227.2 60.0999 226.2 59.6999 225.2 59.1999C223.849 58.3969 222.733 57.2544 221.961 55.886C221.189 54.5176 220.789 52.971 220.8 51.3999C220.838 49.0466 221.767 46.7952 223.4 45.0999C224.2 44.0999 225.2 43.4999 226.4 42.9999C228.168 42.2563 230.115 42.0477 232 42.3999C233.074 42.5144 234.142 42.6813 235.2 42.8999C235.6 42.8999 235.9 42.6999 236.1 42.3999H236.3V46.3999V46.2999ZM239.4 42.9999H239.2V42.6999H245.2C246.2 42.6999 246.9 42.8999 247.6 43.1999C248.165 43.4326 248.673 43.7858 249.087 44.2348C249.502 44.6839 249.813 45.218 250 45.7999L250.2 47.2999C250.2 47.8999 250.1 48.4999 249.8 49.0999C249.6 49.5999 249.2 50.0999 248.6 50.4999C248.1 50.9999 247.4 51.1999 246.6 51.3999C247.6 51.8999 248.6 52.8999 249.4 54.3999L251 56.9999C251.7 58.1999 252.3 58.9999 252.7 59.2999C253.1 59.5999 253.5 59.7999 253.9 59.7999V59.9999H250.9C250.628 59.671 250.361 59.3376 250.1 58.9999L249.7 58.4999L249.4 58.0999L247.4 54.5999C247 53.8999 246.5 53.3999 246.1 52.9999C245.7 52.4999 245.3 52.1999 244.9 51.9999L243.9 51.6999L242.9 51.5999V57.8999C242.9 59.0999 243.4 59.7999 244.7 59.8999V59.9999H239V59.7999C239.3 59.7999 239.6 59.7999 240 59.5999C240.2 59.5999 240.4 59.2999 240.6 58.9999L240.8 57.9999V44.7999C240.8 44.0999 240.7 43.5999 240.3 43.2999C240 42.9999 239.6 42.8999 239.3 42.8999L239.4 42.9999ZM242.8 51.0999H243.8C244.8 51.0999 245.7 50.9999 246.3 50.6999C246.933 50.4493 247.462 49.9909 247.8 49.3999C248.1 48.8999 248.2 48.1999 248.2 47.3999C248.205 46.7128 248.069 46.032 247.8 45.3999C247.6 44.7999 247.1 44.2999 246.5 43.8999C245.8 43.3999 245 43.1999 243.9 43.1999L242.9 43.2999V51.0999H242.8ZM272.1 51.3999C272.19 53.4513 271.575 55.4717 270.359 57.1259C269.142 58.78 267.397 59.9685 265.412 60.4939C263.427 61.0193 261.322 60.8502 259.446 60.0146C257.57 59.179 256.037 57.7271 255.1 55.8999C254.388 54.6832 253.972 53.3164 253.885 51.9095C253.798 50.5025 254.043 49.0949 254.6 47.7999C255.064 46.6906 255.745 45.6854 256.604 44.8438C257.463 44.0022 258.481 43.3412 259.6 42.8999C261.226 42.2356 263.01 42.0615 264.734 42.3991C266.458 42.7367 268.045 43.5713 269.3 44.7999C270.199 45.6457 270.912 46.6693 271.394 47.8055C271.876 48.9417 272.116 50.1658 272.1 51.3999V51.3999ZM270.1 51.3999C270.1 49.0999 269.6 47.3999 268.8 45.9999C268.164 44.8601 267.184 43.9502 266 43.3999C264.327 42.6661 262.445 42.5596 260.7 43.0999C259.771 43.4155 258.928 43.9404 258.234 44.634C257.54 45.3275 257.016 46.1712 256.7 47.0999C256.2 48.2999 255.9 49.6999 255.9 51.3999C255.9 52.7999 256.1 54.0999 256.5 55.2999C256.9 56.2999 257.5 57.2999 258.1 57.9999C258.742 58.6712 259.521 59.1971 260.383 59.5421C261.246 59.8871 262.172 60.0432 263.1 59.9999C263.8 59.9999 264.6 59.7999 265.5 59.4999C266.414 59.178 267.241 58.6496 267.918 57.9558C268.594 57.2621 269.101 56.4216 269.4 55.4999C269.8 54.3999 270 52.9999 270 51.4999L270.1 51.3999ZM291.3 59.9999H287.7V57.0999H287.6C287.149 58.1761 286.335 59.0605 285.3 59.5999C284.327 60.1616 283.223 60.4573 282.1 60.4573C280.976 60.4573 279.873 60.1616 278.9 59.5999C277.9 58.9999 277.2 58.2999 276.8 57.3999C276.4 56.7999 276.2 56.1999 276.1 55.4999L276 53.4999V44.8999C276 44.2999 275.9 43.8999 275.7 43.5999C275.5 43.1999 275 42.9999 274.2 42.8999V42.6999H279.6V42.8999C278.8 42.9999 278.3 43.2999 278.1 43.5999C277.9 43.9999 277.8 44.3999 277.8 44.8999V53.2999C277.8 54.9999 278 56.2999 278.3 57.0999C278.646 57.9492 279.243 58.6724 280.012 59.1729C280.78 59.6733 281.683 59.9269 282.6 59.8999C283.673 59.8509 284.712 59.5047 285.6 58.8999C286.9 57.9999 287.6 56.3999 287.6 54.2999V44.8999C287.6 44.3999 287.6 43.8999 287.3 43.5999C287.1 43.1999 286.6 42.9999 285.8 42.8999V42.6999H291.3V42.8999C290.5 42.8999 290 43.1999 289.8 43.5999C289.5 43.9999 289.4 44.3999 289.4 44.7999V57.9999C289.4 58.4999 289.4 58.7999 289.6 58.9999C289.8 59.3999 290 59.4999 290.3 59.5999C290.5 59.7999 290.9 59.7999 291.3 59.8999V60.0999V59.9999ZM293 42.9999V42.6999H298.7C299.7 42.6999 300.5 42.8999 301.2 43.0999C301.9 43.3999 302.5 43.6999 303 44.0999C303.5 44.5999 303.8 45.0999 304 45.6999C304.3 46.1999 304.4 46.7999 304.4 47.3999C304.4 48.0999 304.4 48.5999 304.1 49.1999C303.885 49.7695 303.543 50.2825 303.1 50.6999C302.6 51.0999 301.9 51.4999 301.1 51.6999C300.4 51.9999 299.5 52.0999 298.5 52.0999L296.7 51.9999V57.9999C296.7 59.0999 297.3 59.7999 298.5 59.7999V59.9999H293V59.7999C293.6 59.7999 294 59.5999 294.4 59.3999C294.7 59.0999 294.9 58.5999 294.9 57.8999V44.9999C294.9 44.5999 294.9 44.1999 294.7 43.9999C294.6 43.6999 294.4 43.4999 294.2 43.3999L293.7 43.0999H293V42.9999ZM296.7 43.2999V51.4999L298.4 51.5999C299.5 51.5999 300.4 51.3999 301.3 50.7999C302 50.1999 302.4 49.0999 302.4 47.5999C302.4 46.2999 302.1 45.2999 301.4 44.3999C300.7 43.5999 299.7 43.1999 298.3 43.1999L296.7 43.2999V43.2999Z" fill="#CAD5DD"/>
</svg>
