<svg width="341" height="78" fill="none" xmlns="http://www.w3.org/2000/svg"><path d="M90.5 7.4v8.3L98 7.4h10l-9.5 9.7 10.5 16H98.8l-6.3-10.3-2 2.1v8.2H82V7.4h8.5Zm39 0h8v25.8h-8.1V25l.4-6.6-9.4 14.8h-8V7.4h8.2v8.2L120 22l9.4-14.7Zm21.6 6v5.8h3.5a4 4 0 0 0 2.5-.7 2.8 2.8 0 0 0 1-2.3 2.2 2.2 0 0 0-.8-1.7 4 4 0 0 0-1.8-.8l-2-.2h-2.4Zm0 11.8v8h-8.5V7.4H155c3-.2 6 .6 8.4 2.4a7.9 7.9 0 0 1 2.7 6.3 8.4 8.4 0 0 1-2.6 6.6 12 12 0 0 1-8.2 2.5h-4.3Zm32.2-12c-1.1 0-2.2.3-3 1a6 6 0 0 0-1.6 2.8 13.1 13.1 0 0 0 0 6.7c.2 1 .8 2 1.5 2.8a4.3 4.3 0 0 0 3.2 1.2 4.4 4.4 0 0 0 4-2c.8-1.7 1.2-3.5 1-5.4a11 11 0 0 0-.4-3.4c-.3-1-1-2-1.8-2.7a4.5 4.5 0 0 0-3-1.2v.1Zm0-6.4c2.7 0 5.3.7 7.6 2 2 1.2 3.5 3 4.5 5s1.5 4.2 1.5 6.5c0 2.6-.5 5.1-1.8 7.4a12 12 0 0 1-4.9 4.7 15 15 0 0 1-7 1.6 13.7 13.7 0 0 1-9.8-3.6 13.9 13.9 0 0 1-3.8-10.2c0-2.5.6-4.9 1.8-7 1-2.1 2.8-3.8 4.8-4.9a15 15 0 0 1 7.1-1.6v.1Zm27 15.7v4.8h3.8c1 0 1.8-.1 2.6-.5a2 2 0 0 0 1.1-2 2 2 0 0 0-1.3-2c-1.1-.2-2.3-.4-3.4-.3h-2.7Zm0-9v4.3h3.6c.7 0 1.4-.1 2-.5a2 2 0 0 0 1-1.8c0-1-.4-1.5-1.2-1.7-.7-.2-1.6-.3-2.4-.3h-3ZM202 33.3V7.4h12.4c1.8 0 3.6.1 5.3.5 1.4.3 2.8 1 3.8 2 1 1.1 1.5 2.5 1.4 4a6 6 0 0 1-1 3.4c-.7 1-1.5 1.7-2.4 2.2 1.3.3 2.5 1.1 3.2 2.2a6.4 6.4 0 0 1 1.2 3.7 6.5 6.5 0 0 1-3.1 6 15.6 15.6 0 0 1-8.1 1.8h-12.7Zm52-16h-8.2c0-1.1-.5-2.2-1.4-3-.9-.8-2-1.2-3.2-1.2a4 4 0 0 0-3.5 2c-1 1.6-1.4 3.6-1.2 5.5 0 1.2 0 2.4.3 3.5a5 5 0 0 0 1.5 2.6c1 .7 2.1 1 3.3 1a4 4 0 0 0 3-1.3c.8-.9 1.3-2 1.3-3h8.3c-.3 3-1.7 5.7-4 7.8-2.4 1.9-5.4 2.9-8.5 2.8a14 14 0 0 1-10-3.7 13.6 13.6 0 0 1-3.8-10c0-2.4.6-4.9 1.8-7.1 1-2 2.7-3.7 4.6-4.9 2-1.1 4.3-1.7 6.6-1.7 3.4-.2 6.6.8 9.3 2.8a11.2 11.2 0 0 1 3.8 7.8v.2Zm12-9.8v8.2l7.5-8.3h10l-9.5 9.7 10.5 16H274L268 22.9l-2 2.1v8.2h-8.5V7.4l8.5.1Zm37.9 0h8v25.7h-8.2V25l.4-6.6-9.4 14.8h-8V7.4h8.2v8.2l-.4 6.5 9.4-14.6Zm29.2 0h8v25.7h-8.2V25l.5-6.6-9.4 14.8h-8V7.4h8.2v8.2l-.4 6.5L333 7.5ZM322.2 0h2.9a2.2 2.2 0 0 0 1.4 1.9c.8.3 1.6.4 2.5.4.8 0 1.7-.2 2.5-.6a2.3 2.3 0 0 0 1-1.7h2.9a5.1 5.1 0 0 1-2 4.1c-1.3 1-3 1.5-4.6 1.4-1.6.1-3.2-.3-4.5-1.2a5.6 5.6 0 0 1-2-4.3ZM177 45c2.7 0 5.4.7 7.7 2 2 1.3 3.6 3 4.6 5.1 1 2 1.5 4.3 1.5 6.6 0 2.7-.6 5.3-1.9 7.6A12 12 0 0 1 184 71a15 15 0 0 1-7 1.6 13.6 13.6 0 0 1-10-3.6 14 14 0 0 1-3.7-10.4c0-2.5.6-5 1.8-7.1a12 12 0 0 1 4.8-4.7A15 15 0 0 1 177 45Zm33.1 6.8h-5v2.8c0 2.1-.2 4.2-.5 6.2a14 14 0 0 1-1.8 5h7.3v-14Zm-13.3-6.1h22v20.2h2.2V78h-8.2v-6h-12.3v6h-8.2V65.9h2.2c1-1.9 1.5-3.8 1.8-5.8.4-2.5.5-5 .5-7.6v-6.8ZM92.7 61v-4.8h.7c1 .1 2.1 0 3-.5a2.2 2.2 0 0 0 1.2-2.1 2 2 0 0 0-1-1.8 5 5 0 0 0-2.7-.6c-.8 0-1.7.2-2.4.6a2.9 2.9 0 0 0-1.3 2H83c0-1.8.7-3.6 1.9-5a9.6 9.6 0 0 1 4-2.8c1.8-.6 3.6-1 5.3-.9 2.9 0 5.7.6 8.1 2.1a6.5 6.5 0 0 1 3.1 5.4c0 1.3-.3 2.5-1 3.5s-1.7 1.8-2.8 2.4c1.3.4 2.4 1 3.3 2a6.1 6.1 0 0 1 1.2 4.1 6.8 6.8 0 0 1-3 5.9 15.8 15.8 0 0 1-9 2.1 14 14 0 0 1-8.7-2.3 10 10 0 0 1-3.5-7.5h7.2c.1 1 .6 2 1.4 2.8 1 .7 2.2 1 3.4 1 1.1 0 2.2-.3 3.2-.9a2.3 2.3 0 0 0 1-2 2.3 2.3 0 0 0-1.4-2.2 8.9 8.9 0 0 0-3.5-.5h-.6Zm25.6 2h5.5l-2.8-9.4-2.7 9.4Zm-1.6-17.3h8.8l9.3 26.2h-8.6l-1-3.5h-8.5l-1 3.5h-8.3l9.3-26.2Zm29 15.3v4.8h3.7c.9 0 1.8 0 2.6-.4a2 2 0 0 0 1-2 2 2 0 0 0-1.3-2c-1-.4-2.2-.5-3.4-.4h-2.7Zm0-9.2v4.4h3.4c.8 0 1.5-.1 2.1-.5a2 2 0 0 0 .9-1.8c0-1-.4-1.6-1.1-1.7-.8-.3-1.6-.4-2.4-.3h-3ZM137 72V45.8h12.5c1.8 0 3.6.1 5.4.5 1.4.3 2.7 1 3.8 2 1 1.1 1.5 2.6 1.4 4 0 1.3-.4 2.5-1 3.5a8 8 0 0 1-2.4 2.3c1.3.3 2.5 1 3.2 2.2a6.6 6.6 0 0 1 1.2 3.8 6.7 6.7 0 0 1-3.1 6.1c-2.5 1.4-5.4 2-8.2 1.8H137Zm40-20.5c-1.1 0-2.2.4-3 1.1-.8.8-1.3 1.7-1.6 2.8a13.3 13.3 0 0 0 0 6.9c.2 1 .8 2 1.5 2.8a4.3 4.3 0 0 0 3.2 1.2 4.4 4.4 0 0 0 4-2.1c.8-1.7 1.2-3.5 1.2-5.4 0-1.2-.2-2.4-.6-3.5-.3-1-.9-2-1.7-2.7a4.5 4.5 0 0 0-3-1.1ZM63.6 43.6l-25.4-25 25.4 13.5v11.5ZM37.1 10.2l-25.2 25 13.5-25h11.7ZM11.7 40.1l21.7-21.5L55.2 40 33.4 61.5 11.7 40Zm-8.3-3.6 25.4 24.9L3.4 48.1V36.5Zm26.4 33.2 25.5-25.1-13.8 25H29.8ZM67 50V30.2l-15.3-8L43.6 7H23.4l-8 15.2-15.4 8V50l15.4 8 8 15h20.2l8-15L67 50Z" fill="#D22538"/></svg>