<svg width="245" height="116" fill="none" xmlns="http://www.w3.org/2000/svg"><path d="M0 78.6a7 7 0 0 1 4.3-1.8L17 75c.6-.1 1.2-.2 1.3-1 .9-7.7 3.3-15 6.1-22.2A402.4 402.4 0 0 1 44.2 9.1l.9-2.2c-4.2 2-8.2 4.5-13.2 4.5.2-.6.6-.6.9-.6a27 27 0 0 0 15.5-8.6L50.8 0H54c2.1 1.1 2.1 1.2 1.1 3.4-3.2 6.7-7.1 13-10.6 19.6a257.4 257.4 0 0 0-16.9 38l-4.4 11.8c-.6 1.5-.5 1.6 1.1 1.6 10.3-.4 25.3.2 35.7.1V80l-35.8.8h-1c-1.5 0-2.2.2-2.6 1.6-.2.5-.5 1.1-1.2 1.1-.8 0-1.1-.6-1.2-1.2-.2-.8-.7-.8-1.3-.8l-12.6.1c-1.7 0-3.1-.4-4.1-1.8-.2-.4-.2-.8-.2-1.2Z" fill="#030303"/><path d="M245 58.1c-1.6 2.3-3.1 4.6-4.9 6.7a28.3 28.3 0 0 1-5.8 5.1 7.6 7.6 0 0 1-6.5 1.2 5.3 5.3 0 0 1-3.8-3.3c-.3-.9-.7-.8-1.4-.3-1.8 1.4-3.6 2.9-5.7 3.9-2.4 1.2-3.6 1-5.4-1l-.6-.8-1.3 2.9c-.9 2-2.3 3.5-4.2 4.7-1.2.8-2.4.7-3.5-.1-1.1-.8-1.1-1.9-.7-3 .7-2.4 2.4-3.9 4.4-5.2 2.3-1.6 2.9-2.8 2.2-5.6l-1.4-5.3c-.1-.4 0-1-.4-1.1-.5-.1-.7.5-1 .8a85 85 0 0 1-5.3 6.6c-1 1.1-2 2.3-3.1 3.3-1.9 1.7-3.7 1.8-5.6.1-1-.9-1.5-.7-2.3.3-.9 1.2-2 2.3-3.5 2.8-2.4.8-4.5-.2-5.5-2.5-.8-2.1-.9-4.2-.4-6.4a34 34 0 0 1 7.3-13.6c.6-.7 1.4-1.2 2.4-1.1 1.2.1 1.5.5 1.2 1.7-1.1 4.3-2.9 8.3-4.5 12.4-.7 2-1.6 3.9-1.9 6-.2 1.3.3 1.8 1.5 1.3 2-.9 3.6-2.1 4.1-4.4.7-3.1 1.3-6.2 2.7-9l1.3-2.4c1.1-1.7 2.8-2.2 4.6-1.3.5.2.8.6.8 1.2 0 .7-.1 1.4-.4 2.1l-3.4 9.1c-.1.4-.5.9 0 1.1.4.2.6-.3.9-.5l8.7-9.7c.7-.8 1-1.8 1.3-2.8 1-3.5 4.6-4.8 7.6-2.6.9.7 1 1.6.3 2.4l-1 1a6.4 6.4 0 0 0-2 3.7c-.4 2.1-.2 4.2 0 6.3 0 .3.1.7.5.8.4.1.6-.2.8-.4 1.1-1.1 1.8-2.5 2.6-3.8 1.5-2.4 3-4.9 5.4-6.6.9-.7 3-.6 3.8.3.4.5.1.9-.1 1.4l-4.7 8.5c-.8 1.6-1.6 3.2-2.1 4.9.5.2.7-.1.9-.3l1.9-1.6c2.3-1.6 4.1-3.7 5.4-6.3 2.3-4.5 6.4-6.7 11-8.1 1.6-.5 3.2-.1 4.8.3 1 .3 1.5 1.5 1.2 2.7-.3 1.2-1.4 2-2.3 1.8-.5-.1-.8-.5-.9-.9-.3-.7-.7-.9-1.3-.4a18.3 18.3 0 0 0-7.7 12.2c-.3 1.6 0 1.6 1.5 1.2 2-.6 3.6-1.9 5.1-3.3 2.4-2.5 4.9-5 7.1-7.7.4-.5.7-.6 1.2-.1l.1.7ZM207.5 69a6.9 6.9 0 0 0-3.7 4.8c-.1.3-.2.8.2 1 .4.2.8-.1 1.1-.3a6.5 6.5 0 0 0 2.4-5.5Z" fill="#040404"/><path d="M128.7 81.6h-2.9c4.1-12.4 9.8-24.2 15.6-36 4.8-9.9 9.9-19.7 14.8-29.5.7-1.3 1.5-2.5 2.4-3.7.8-1.1 1.9-1.5 3.3-1.4.8 0 1.2.4 1.2 1.2 0 2.1-.3 4.1-1.1 6-1 2.2-1.9 4.3-3.1 6.4a27.3 27.3 0 0 0-2.5 10.1c-1.3 10.3-2.4 20.6-4.1 30.8-.4 2.2-.5 4.4-.7 6.7a576 576 0 0 1 32.3-46.9c1.8-2.4 4.2-4.4 5.8-7 .9-1.5 2.4-1.6 4-1.3 1.5.4 2 1.3 1.4 2.7l-1.1 2.4c-7.2 14.7-14.2 29.6-20.9 44.5-2.1 4.6-3.8 9.3-5.6 14l-2.8.1c3.9-13.1 7.6-26.3 13.6-38.6-.9.5-1.4 1.4-1.9 2.1-8.5 11.9-18 23.1-25.4 35.8-.5.9-1.2 1.2-2.2.9-.5-.5-.4-1-.3-1.6.6-8.6.7-17.1 1-25.7.1-2.9-.2-5.8.3-8.7.1-.8.6-1.6.5-2.6-.5.3-.6.7-.8 1l-7.9 14.1c-4.9 7.8-8.8 16-12.9 24.2Z" fill="#030303"/><path d="m55.4 57.5 5.6-6.1c3-3.3 6.8-5.7 10.1-8.5 1.1-.9 2.1-.2 3 .4.9.6 1.1 1.5.7 2.4l-3.2 7.8-3 7.1c-.2.4-.5.9-.2 1.6l3.4-2.8 3.1-2.7c.7-.5 1-1.2 1.2-2A19 19 0 0 1 83 43.6c2.4-1.8 5-3.4 8.3-3.3 4.3.2 7.1 4.3 5 8.2C93.4 54 89.2 58 82.8 59c-1.3.2-2 .7-2.3 2.1-.4 1.7-.4 3.2.1 4.8.4 1.3 1.1 1.8 2.5 1.6 1.9-.4 3.6-1.1 5.1-2.5 3.1-2.9 5.6-6.3 8.4-9.4l4.7-5.3c.4-.4.9-1.1 1.4-.7.5.4.1 1.2-.2 1.7-2.4 3.4-5.1 6.5-7.5 9.8a30.1 30.1 0 0 1-9.2 7.8c-4.1 2.5-9.4-.5-10.1-5.6l-.5-3.9c-.8.2-1.1.7-1.4 1.1-1.6 1.7-3.1 3.3-4.9 4.9-2.2 1.9-4.3 1.3-5.2-1.4-.9-2.8-.6-5.5.4-8.2l2.5-6.2V49c-.3-.1-.5.2-.7.4a167.2 167.2 0 0 0-16.7 18l-1.4 1.9c-.6.8-1.4 1.2-2.4.8-1-.4-.9-1.3-.8-2.1l.4-3.6c-.6-.1-.8.4-1.1.7a31 31 0 0 1-3.9 3.3c-2.7 1.9-5.6.7-6.3-2.5-.7-2.9.3-5.6 1.1-8.3a40.8 40.8 0 0 1 9.9-16.1c.5-.6 1.2-.9 2-.9 2.2 0 3.1 1.4 2 3.4l-6.3 11.8c-1.8 3.3-2.8 6.8-4.1 10.3-.2.6-.1.8.5.6l1.8-.9a23 23 0 0 0 7.5-8 285 285 0 0 1 10.1-16.1c.9-.8 2.1-.9 3.1-.1 1.1.8 1.4 1.7.8 2.9l-5.9 11.2a4 4 0 0 0-.6 1.5l-.1.3h-.1Zm36.8-12c0-1.6-.1-1.7-1.6-.9a8 8 0 0 0-2.1 1.5 25.8 25.8 0 0 0-6.9 11.1c-.1.4-.5.9-.1 1.2.4.3.9.1 1.4-.1 4.6-1.4 9.3-7.9 9.3-12.8ZM86 78l-2.3.7c-1.8.4-3.5 1.1-5.3 1.2L60 80c0-2-.3-3.6 0-5.5 7.4.3 15 .1 22.4-.2 3.6-.1 7.2-.6 10.6-1.8.6-.2 1.2-.4 1.8-.3.6 0 1.1.2 1.2.8.1.7-.2 1-.8 1.3-2.9 1.3-6 2.6-9.2 3.7Z" fill="#040404"/><path d="M224.7 41.8c-.1-2.1.4-3.3 1.7-3.8 1.6-.7 3.8-.1 5 1.2.4.4.5.8.2 1.3l-2.2 3.4c-.7 1-1.7.9-2.7.8-.9-.2-1.6-.6-1.8-1.6l-.2-1.3ZM51.7 22.3l1.8.6c2 .9 2.3 1.8 1.2 3.6l-1.8 2.9c-.5.8-1.1.9-1.9.4-1.2-.7-1.7-2-1.5-3.4.1-1 .2-2 .5-2.9.3-.8.8-1.2 1.7-1.2Z" fill="#060606"/><path d="M125.5 83c.8-.1 2.2-1 3-1l-4 6.8c-.2.3-.4.3-.9 0s-.3-.7-.1-1.1c.5-1.3 1.5-3.2 2-4.7ZM164.4 82h2.6c-.4 1.3-1.2 2.4-1.9 3.5-.2.2-.3.6-.7.4-.4-.1-.5-.5-.4-.8l.4-3.1Z" fill="#0B0B0B"/><path d="M51.7 80.4c1.3-1.9 2.4-3.9 3.4-6l3.4-5.6.5-.9c.2-.2.3-.6.7-.4.3.1.2.5.2.8l-.5 6.2a57 57 0 0 0-.6 5.8l-.4 4c-.1.9.1 1.2 1 1.1l17.7-.5c.7 0 1.5-.2 1.9-.7 1.6-1.9 3.3-3.6 4.7-5.6l.3-.2c.3-.2.5-.6 1-.4.7 3.6.5 7.3.9 10.9.6 0 .8-.5 1-.8l6.2-7.5c.2-.3.4-.8.8-.6.5.2.3.7.3 1.1l-.9 18.2-.1 1.6c.7-.2.6-.8.8-1.2l11.4-32.6 7.6-21.8c.2-.6.2-1.7 1-1.6.7.1.5 1.2.6 1.8.6 7.1.8 14.1 1.1 21.2l.7 17.3.1.6c.6-.4.9-.8 1.2-1.3.6-1.1 1.5-1.5 2.8-1.5l5.2-.2h2.9c6.6.1 13.2-.3 19.8-.5 5.3-.1 10.6-.1 15.9-.5l2.8-.1 21-.6c9.9-.4 19.7-.6 29.6-.3.5 0 .9.1 1.4.4a15 15 0 0 1-4.7.8c-10.1.7-20.2.7-30.3 1l-17.8.5h-2.6l-10 .2-25.3.6-1.1.1a35.3 35.3 0 0 1-5.6.2c-.6 0-.9.4-1.1.9-1.5 3.1-3.5 5.9-5.2 8.8-.2.4-.4 1-.9.9-.5-.1-.6-.8-.6-1.3l-.2-5.9c-.4-11.5-1-23-1.2-34.6l-.1-.8c-.9.9-1.1 1.9-1.5 2.9l-15.6 46.4-5.1 15.1h-.5c-.1-2.5.4-5 .6-7.4l2.3-21.1v-2.1l-5 6.3-2.2 2.9c-.2.2-.3.7-.7.5a1314.3 1314.3 0 0 1-.6-5.7l-.5-8.3c-.5-.2-.6.2-.7.4l-1.4 1.6c-1.8 2.9-4.4 3.7-7.7 3.7-5.2-.1-10.3.3-15.5.4-2.1.1-2.1-.1-1.9-2.1l.6-4.8c.4-1.9.6-3.9.8-5.9.1-.9.4-1.8.3-3-.9 1-1.4 1.9-1.8 2.9a43 43 0 0 0-3.2 6c-2.2 3.4-3.9 7-6 10.5l-3.7 6.6c-.2.4-.4 1.1-1.1.8-.7-.3-.8-.9-.6-1.5l1.6-5.8 1.8-6c.3-.8.1-1.1-.8-1l-11.9.4c-9.7.2-19.3.9-29 .7l-1.5-.1c1.5-.5 3.1-.6 4.6-.7l38.1-1.4c2.9-.1 2.9-.1 2 2.8l-1.8 6.1.4.2c2.4-3.6 4.5-7.4 6.5-11.3Z" fill="#E41283"/></svg>