<svg width="259" height="75" viewBox="0 0 259 75" fill="none" xmlns="http://www.w3.org/2000/svg">
<path d="M12.7607 74.292C8.26019 73.7921 -1.73833 74.292 0.261067 57.292C1.57131 52.77 6.7623 49.292 11.2623 49.292C25.7623 50.292 27.7623 30.8772 13.2623 27.7921C-10.2377 22.792 19.2624 -0.208029 19.2624 21.292C22.9271 36.792 42.1195 35.792 44.2624 20.7921C47.2624 -0.207968 73.2624 22.292 50.762 27.7921C37.7624 28.7921 36.4353 49.292 51.262 49.292C66.0886 49.292 71.2614 74.292 50.762 74.292C44.7613 73.792 36.2606 69.292 40.2612 55.792C43.0765 46.292 22.9801 43.292 23.7614 55.792C24.3551 65.292 23.7613 73.292 12.7607 74.292Z" fill="#CAD5DD"/>
<path d="M40 15.5C40 20.4706 36.694 23.5 31.9996 23.5C27.3051 23.5 24 20.4706 24 15.5C24 10.5294 28.9996 9 31.9996 0C34.9996 9 40 10.5294 40 15.5Z" fill="url(#paint0_linear_4258_10163)"/>
<path d="M27.6279 12.5642C27.0193 12.26 26.7986 11.502 27.1487 10.9186L27.8465 9.75566C27.9484 9.5859 28.0707 9.42926 28.2107 9.28924L29.196 8.30358C29.6396 7.85985 30.3589 7.85973 30.8027 8.3033C31.2025 8.70303 31.2476 9.33596 30.9084 9.78833L29.9999 11.0001L29.0844 12.2204C28.7457 12.6719 28.1327 12.8166 27.6279 12.5642Z" fill="white"/>
<path d="M26.662 12.936C27.6809 12.875 28.3258 13.9951 27.9588 14.9475C27.3058 16.6417 27.7057 17.6774 29.2303 18.5298C30.1006 19.0164 30.34 20.2392 29.5643 20.8658C29.186 21.1713 28.6608 21.2388 28.2418 20.9918C25.3982 19.316 24.391 16.5592 25.6591 13.6083C25.8308 13.2086 26.2278 12.9621 26.662 12.936Z" fill="white"/>
<path d="M91.3301 58H84.9881V33.304H76.8401V28.012H99.4781V33.304H91.3301V58ZM128.546 58H121.322L110.444 42.796V58H104.102V28.012H110.444V42.544L121.196 28.012H127.958L117.038 42.418L128.546 58ZM155.587 58L148.363 34.48H148.195C148.223 35.04 148.265 35.88 148.321 37C148.377 38.12 148.433 39.324 148.489 40.612C148.545 41.872 148.573 43.02 148.573 44.056V58H142.903V28.012H151.555L158.653 50.944H158.779L166.297 28.012H174.949V58H169.027V43.804C169.027 42.852 169.041 41.76 169.069 40.528C169.125 39.296 169.167 38.134 169.195 37.042C169.251 35.922 169.293 35.082 169.321 34.522H169.153L161.425 58H155.587ZM200.878 58L198.694 50.86H187.774L185.59 58H178.744L189.328 27.886H197.098L207.724 58H200.878ZM194.998 38.554C194.858 38.078 194.676 37.476 194.452 36.748C194.228 36.02 194.004 35.278 193.78 34.522C193.556 33.766 193.374 33.108 193.234 32.548C193.094 33.108 192.898 33.808 192.646 34.648C192.422 35.46 192.198 36.244 191.974 37C191.778 37.728 191.624 38.246 191.512 38.554L189.37 45.526H197.182L194.998 38.554ZM224.248 32.884C221.812 32.884 219.95 33.794 218.662 35.614C217.374 37.434 216.73 39.926 216.73 43.09C216.73 46.282 217.318 48.76 218.494 50.524C219.698 52.26 221.616 53.128 224.248 53.128C225.48 53.128 226.698 52.988 227.902 52.708C229.134 52.428 230.464 52.036 231.892 51.532V56.866C230.576 57.398 229.274 57.79 227.986 58.042C226.698 58.294 225.256 58.42 223.66 58.42C220.58 58.42 218.032 57.79 216.016 56.53C214.028 55.242 212.558 53.45 211.606 51.154C210.654 48.83 210.178 46.128 210.178 43.048C210.178 40.024 210.724 37.35 211.816 35.026C212.908 32.702 214.49 30.882 216.562 29.566C218.662 28.25 221.224 27.592 224.248 27.592C225.732 27.592 227.216 27.788 228.7 28.18C230.212 28.544 231.654 29.048 233.026 29.692L230.968 34.858C229.848 34.326 228.714 33.864 227.566 33.472C226.446 33.08 225.34 32.884 224.248 32.884ZM249.814 58H243.472V33.304H235.324V28.012H257.962V33.304H249.814V58Z" fill="#CAD5DD"/>
<defs>
<linearGradient id="paint0_linear_4258_10163" x1="32" y1="0" x2="32" y2="23.5" gradientUnits="userSpaceOnUse">
<stop stop-color="#CAD5DD"/>
<stop offset="1" stop-color="#CAD5DD" stop-opacity="0.45"/>
</linearGradient>
</defs>
</svg>
