<svg width="263" height="87" viewBox="0 0 263 87" fill="none" xmlns="http://www.w3.org/2000/svg">
<path d="M1 67L21 23.5L40.5 67" stroke="#45CED8" stroke-width="2"/>
<path d="M20 9L40 52.5L59.5 9" stroke="#646367" stroke-width="2"/>
<path d="M65.0416 57.44L58.5729 57.4659L67.1609 40.9542L48.5183 57.5061L42.4363 57.5304L55.487 32.4683L61.9557 32.4424L54.1826 47.372L71.2544 32.4053L78.0923 32.3779L65.0416 57.44ZM92.4457 57.3305L85.8715 57.3567L91.6569 46.248L82.7097 46.2837L76.9243 57.3925L70.3502 57.4188L83.4008 32.3567L89.975 32.3304L85.2 41.5036L94.1472 41.4678L98.9222 32.2947L105.496 32.2684L92.4457 57.3305ZM102.905 57.2886L113.465 37.0067L105.731 37.0376L108.221 32.2575L130.264 32.1694L127.773 36.9495L120.039 36.9804L109.479 57.2624L102.905 57.2886ZM119.92 57.2206L132.971 32.1586L150.672 32.0878L148.181 36.8679L137.019 36.9126L134.735 41.3056L145.018 41.2645L142.528 46.0446L132.244 46.0857L128.949 52.4143L140.111 52.3697L137.621 57.1499L119.92 57.2206ZM171.136 39.9003C170.535 41.0673 169.764 42.1789 168.822 43.2353C167.892 44.2916 166.88 45.1746 165.786 45.8844C165.102 46.3239 164.399 46.7298 163.677 47.1022C162.956 47.4746 162.204 47.7912 161.422 48.0518C160.641 48.3125 159.835 48.5173 159.006 48.6662C158.176 48.815 157.293 48.8914 156.355 48.8951L152.91 48.9089L148.643 57.1058L142.068 57.1321L155.119 32.07L165.279 32.0294C166.791 32.0234 168.021 32.1528 168.971 32.4178C169.935 32.6715 170.717 33.0826 171.317 33.6513C171.969 34.2758 172.288 35.1143 172.272 36.167C172.271 37.2084 171.892 38.4528 171.136 39.9003ZM164.305 40.0788C164.684 39.3718 164.827 38.7666 164.734 38.2631C164.657 37.7483 164.419 37.3965 164.019 37.2077C163.535 36.9521 163.017 36.8086 162.465 36.7773C161.916 36.7347 161.155 36.7153 160.183 36.7192L159.251 36.7229L155.352 44.2297L155.809 44.2279C156.43 44.2254 157.018 44.2175 157.572 44.204C158.126 44.1906 158.624 44.1494 159.067 44.0805C159.447 44.023 159.872 43.9149 160.342 43.7563C160.826 43.5864 161.228 43.4 161.547 43.1972C162.213 42.7802 162.737 42.347 163.119 41.8976C163.513 41.4481 163.909 40.8418 164.305 40.0788Z" fill="#45CED8"/>
<path d="M187.877 56.949L180.248 56.9795L179.374 49.0047L170.088 57.0201L162.81 57.0492L177.863 44.3917L176.195 31.9858L183.806 31.9553L184.585 39.4938L193.351 31.9172L200.646 31.888L186.096 44.1068L187.877 56.949ZM212.978 56.8486L206.509 56.8745L215.097 40.3628L196.455 56.9147L190.373 56.939L203.423 31.8769L209.892 31.8511L202.119 46.7806L219.191 31.8139L226.029 31.7866L212.978 56.8486ZM245.023 56.7205L238.484 56.7467L247.137 40.134L236.776 50.8747L232.294 50.8927L233.128 40.19L224.474 56.8027L218.286 56.8274L231.337 31.7653L238.913 31.7351L238.264 44.083L250.497 31.6887L258.073 31.6585L245.023 56.7205Z" fill="#646367"/>
</svg>
