<svg width="263" height="87" viewBox="0 0 263 87" fill="none" xmlns="http://www.w3.org/2000/svg">
<path d="M1 67L21 23.5L40.5 67" stroke="#CAD5DD" stroke-width="2"/>
<path d="M20 9L40 52.5L59.5 9" stroke="#CAD5DD" stroke-width="2"/>
<path d="M65.0418 57.4401L58.5731 57.466L67.1611 40.9543L48.5185 57.5062L42.4365 57.5305L55.4872 32.4684L61.9559 32.4425L54.1828 47.3721L71.2546 32.4054L78.0925 32.378L65.0418 57.4401ZM92.4459 57.3306L85.8717 57.3568L91.6571 46.2481L82.7099 46.2838L76.9245 57.3926L70.3504 57.4189L83.401 32.3568L89.9752 32.3305L85.2002 41.5037L94.1474 41.4679L98.9224 32.2948L105.496 32.2685L92.4459 57.3306ZM102.905 57.2887L113.465 37.0068L105.731 37.0377L108.221 32.2576L130.264 32.1695L127.773 36.9496L120.039 36.9805L109.479 57.2625L102.905 57.2887ZM119.92 57.2207L132.971 32.1587L150.672 32.0879L148.181 36.868L137.019 36.9127L134.735 41.3057L145.018 41.2646L142.528 46.0447L132.244 46.0858L128.949 52.4144L140.111 52.3698L137.621 57.15L119.92 57.2207ZM171.136 39.9004C170.535 41.0674 169.764 42.179 168.822 43.2354C167.892 44.2917 166.88 45.1747 165.786 45.8845C165.102 46.324 164.399 46.7299 163.677 47.1023C162.956 47.4747 162.204 47.7913 161.422 48.0519C160.641 48.3126 159.835 48.5174 159.006 48.6663C158.176 48.8151 157.293 48.8915 156.355 48.8952L152.91 48.909L148.643 57.1059L142.068 57.1322L155.119 32.0701L165.279 32.0295C166.791 32.0235 168.021 32.1529 168.971 32.4179C169.935 32.6716 170.717 33.0827 171.317 33.6514C171.969 34.2759 172.288 35.1144 172.272 36.1671C172.271 37.2085 171.892 38.4529 171.136 39.9004ZM164.305 40.0789C164.684 39.3719 164.827 38.7667 164.734 38.2632C164.657 37.7484 164.419 37.3966 164.019 37.2078C163.535 36.9522 163.017 36.8087 162.465 36.7774C161.916 36.7348 161.155 36.7154 160.183 36.7193L159.251 36.723L155.352 44.2298L155.809 44.228C156.43 44.2255 157.018 44.2176 157.572 44.2041C158.126 44.1907 158.624 44.1495 159.067 44.0806C159.447 44.0231 159.872 43.915 160.342 43.7564C160.826 43.5865 161.228 43.4001 161.547 43.1973C162.213 42.7803 162.737 42.3471 163.119 41.8977C163.513 41.4482 163.909 40.8419 164.305 40.0789Z" fill="#CAD5DD"/>
<path d="M187.877 56.9489L180.248 56.9794L179.374 49.0046L170.088 57.02L162.81 57.0491L177.863 44.3916L176.195 31.9857L183.806 31.9552L184.585 39.4937L193.351 31.9171L200.646 31.8879L186.096 44.1067L187.877 56.9489ZM212.978 56.8485L206.509 56.8744L215.097 40.3627L196.455 56.9146L190.373 56.9389L203.423 31.8768L209.892 31.851L202.119 46.7805L219.191 31.8138L226.029 31.7865L212.978 56.8485ZM245.023 56.7204L238.484 56.7466L247.137 40.1339L236.776 50.8746L232.294 50.8926L233.128 40.1899L224.474 56.8026L218.286 56.8273L231.337 31.7652L238.913 31.735L238.264 44.0829L250.497 31.6886L258.073 31.6584L245.023 56.7204Z" fill="#CAD5DD"/>
</svg>
