<svg width="343" height="87" fill="none" xmlns="http://www.w3.org/2000/svg"><path d="M86.6 22.5V5.3H90l4 12.2.9 2.5.9-2.7 4.1-12h3v17.2h-2.1V8.1l-5 14.4h-2l-5-14.6v14.6h-2.2Zm27.9-17.2h2.3l5.6 10.5 4.9-10.5h2.3L123 18.7c-.8 1.7-1.5 2.7-2 3.3-.5.5-1.2.7-2.2.7-.6 0-1.3-.1-2.1-.4v-2c.6.4 1.2.6 1.9.6.5 0 1-.2 1.4-.5.4-.4.9-1.2 1.4-2.5l-7-12.6Zm26.6 17.2V5.3h6.5c1.1 0 2 0 2.6.2.8.1 1.5.4 2.1.8.6.4 1 1 1.4 1.6.3.8.5 1.5.5 2.4 0 1.4-.5 2.7-1.4 3.7-1 1-2.6 1.5-5 1.5h-4.4v7H141Zm2.3-9h4.4c1.5 0 2.5-.3 3.1-.8a3 3 0 0 0 1-2.3 3 3 0 0 0-.6-1.9c-.4-.5-.8-.8-1.4-1l-2.1-.2h-4.4v6.2Zm23 9V5.3h3.4l4 12.2.9 2.5.9-2.7 4-12h3.1v17.2h-2.1V8.1l-5 14.4h-2l-5-14.6v14.6h-2.3Zm27.7 0 6.6-17.2h2.5l7 17.2h-2.6l-2-5.2h-7.2l-1.9 5.2h-2.4Zm5-7h5.8l-1.8-4.8c-.5-1.5-1-2.6-1.2-3.6-.2 1.1-.5 2.2-1 3.3l-1.8 5Zm22.6 7V5.3h2.3v7h8.9v-7h2.3v17.2h-2.3v-8.1h-9v8.1h-2.2Zm39.1-6 2.3.6a7.7 7.7 0 0 1-2.6 4.2 7 7 0 0 1-4.5 1.5c-1.9 0-3.4-.4-4.5-1.1-1.2-.8-2-1.9-2.7-3.3A11.7 11.7 0 0 1 249 9a7 7 0 0 1 3-3c1.2-.7 2.6-1 4.1-1a7 7 0 0 1 4.4 1.2c1.1 1 2 2.1 2.4 3.7l-2.2.6c-.4-1.3-1-2.2-1.8-2.8-.7-.5-1.7-.8-2.8-.8-1.4 0-2.5.3-3.3 1a5 5 0 0 0-2 2.5c-.3 1-.5 2.1-.5 3.3 0 1.4.3 2.7.7 3.8.4 1 1 1.9 2 2.4.9.6 1.8.8 2.9.8 1.3 0 2.3-.3 3.2-1 1-.8 1.5-1.9 1.8-3.3Zm14.7-11.2h2.3v7.5c1 0 1.8-.2 2.2-.6.4-.4 1-1.3 1.6-2.9l1.2-2.3c.3-.5.7-.9 1.3-1.2.6-.3 1.2-.5 1.9-.5h1.4v2a16.4 16.4 0 0 1-1 0c-.7 0-1.2.2-1.5.5-.4.4-.8 1.1-1.3 2.3a9 9 0 0 1-1.4 2.7c-.4.4-1 .7-1.5 1 1.1.2 2.2 1.2 3.3 3l3.6 5.7h-2.9l-2.8-4.7c-.8-1.3-1.5-2.1-2-2.6a3 3 0 0 0-2-.7v8h-2.4V5.3Zm23.6 0h2V19l9.2-13.6h2.3v17.2h-2V8.9l-9.2 13.6h-2.3V5.3Zm26.9 0h2V19l9.2-13.6h2.3v17.2h-2V8.9l-9.2 13.6H326V5.3Zm8.5-4h1.5c-.2 1-.5 1.7-1.1 2.2-.6.5-1.4.8-2.4.8s-1.8-.3-2.4-.8c-.6-.5-1-1.3-1-2.3h1.4c0 .6.3 1 .6 1.2.4.3.8.4 1.3.4.7 0 1.1-.1 1.5-.4.3-.2.5-.6.6-1.2ZM90.4 50.4V36.2h-5.1v-2.9H99v3h-5.1v14.2h-3.5Zm55.3 0h-3.8l-1.5-3.9h-6.9l-1.4 3.9h-3.7l6.7-17.2h3.7l6.9 17.2Zm-6.4-6.8-2.4-6.4-2.3 6.4h4.7Zm38.7 6.8V33.3h5.6c2 0 3.4.1 4 .3 1 .2 1.9.8 2.6 1.7.6.8 1 2 1 3.3 0 1-.2 2-.6 2.7a5 5 0 0 1-3.3 2.5l-3.6.2h-2.2v6.5H178Zm3.5-14.3v4.9h1.9a9 9 0 0 0 2.7-.3c.5-.1.8-.4 1-.8.3-.4.5-.8.5-1.3 0-.7-.2-1.2-.6-1.6-.3-.4-.8-.7-1.4-.8h-4.1Zm43 14.3V33.3h3.5v6.8h6.8v-6.8h3.4v17.2h-3.4V43H228v7.5h-3.5Zm47.9-17.2h3.5v6.9h4.6c1.2 0 2.3.2 3.1.5 1 .3 1.7 1 2.2 1.8.6.8 1 1.8 1 3a5 5 0 0 1-3 4.6c-.8.3-1.9.4-3.3.4h-8.1V33.3Zm3.5 14.3h3.3l2.3-.1a2.2 2.2 0 0 0 1.6-2.1c0-.8-.2-1.4-.8-1.8-.5-.3-1.5-.5-3-.5H276v4.5Zm12.8-14.3h3.5v17.2h-3.5V33.3Zm37.6 0h3.3v11.5l7-11.5h3.4v17.2h-3.2V39.3l-7 11.2h-3.5V33.3Zm9-4.3h1.5c0 1.1-.4 2-1 2.6-.7.6-1.6.9-2.6.9s-1.9-.3-2.6-1c-.6-.6-1-1.4-1-2.5h1.5c0 .6.3 1 .6 1.3.4.3.8.4 1.5.4.6 0 1.1-.1 1.5-.4.3-.3.5-.7.5-1.3Zm-249 35.2h2v6.3c.8 0 1.4-.2 1.8-.5.3-.4.8-1.2 1.3-2.5l1-2a3 3 0 0 1 1.1-1c.5-.2 1-.3 1.6-.3h1.1v1.6a13.7 13.7 0 0 1-.7 0c-.6 0-1 .2-1.4.5a6 6 0 0 0-1 1.8c-.5 1.2-.9 2-1.2 2.3l-1.2.8c1 .2 1.8 1 2.7 2.5l3 4.8H94l-2.4-3.9c-.6-1-1.2-1.8-1.6-2.2-.5-.4-1-.6-1.7-.6v6.7h-2V64.2Zm31.7 7.3c0-2.3.6-4.2 1.9-5.5 1.3-1.4 3-2 5-2 1.3 0 2.4.2 3.5.9 1 .6 1.9 1.5 2.4 2.6.6 1.1.9 2.4.9 3.9 0 1.4-.3 2.7-1 3.9a6 6 0 0 1-2.4 2.6 7.1 7.1 0 0 1-7-.1c-1.1-.7-2-1.6-2.5-2.7a8 8 0 0 1-.8-3.6Zm2 0c0 1.8.4 3.1 1.3 4.1 1 1 2.1 1.5 3.5 1.5s2.6-.5 3.5-1.5a6 6 0 0 0 1.4-4.2c0-1.2-.2-2.2-.6-3.1-.4-.9-1-1.5-1.7-2-.8-.5-1.6-.7-2.6-.7-1.3 0-2.5.4-3.4 1.3-1 1-1.5 2.5-1.5 4.7Zm34.9 7V64.2h2.8l3.4 10.1.7 2.1.8-2.3 3.4-10h2.5v14.4h-1.8v-12l-4.2 12h-1.7l-4.1-12.2v12.2h-1.8Zm37.6-14.3h9.3v1.7h-7.4v4.4h3.4c1.2 0 2.3.1 3 .3.7.3 1.3.7 1.8 1.4.4.7.7 1.5.7 2.3 0 .8-.2 1.4-.5 2-.3.7-.8 1.2-1.5 1.6-.6.4-1.7.6-3.2.6h-5.6V64.2Zm1.9 12.7h3.8c1 0 1.7-.2 2.3-.6.5-.5.7-1 .7-2 0-.5-.1-1-.4-1.4a2 2 0 0 0-1.2-.8l-2.7-.2h-2.5v5Zm32-12.7h1.7v11.3l7.6-11.3h1.9v14.3h-1.7V67.2l-7.7 11.3h-1.9V64.2Zm35.1 14.3V64.2h2V70h7.4v-6h1.9v14.4h-2v-6.7h-7.4v6.7h-1.9Zm33.7 0 5.5-14.3h2l5.9 14.3h-2.2l-1.7-4.3h-6l-1.5 4.3h-2Zm4.1-5.9h4.8l-1.4-4c-.5-1.1-.8-2.1-1-3l-.8 2.8-1.6 4.2Zm33.7 5.9V65.9h-4.8v-1.7h11.4v1.7h-4.7v12.6h-2Z" fill="#566896"/><rect x="1.8" y="1.5" width="72" height="76" rx="1" fill="#E3E3E3" stroke="#4F5C7E" stroke-width="2"/><path d="M5.8 7.5c0-1.1.9-2 2-2h60a2 2 0 0 1 2 2V59a2 2 0 0 1-1.5 1.9c-5.6 1.3-26 5.4-41-1.9A41.3 41.3 0 0 1 5.8 33.8V7.5Z" fill="#566896"/><path stroke="#566896" stroke-width="2" d="M84.8 57.5h258"/><circle cx="49.8" cy="38.5" r="18.5" stroke="url(#a)" stroke-width="3"/><path d="M68.3 38c0 11.9-12 22-27.5 22S13.3 49.9 13.3 38s12-22 27.5-22 27.5 10.1 27.5 22Z" stroke="url(#b)" stroke-width="3"/><circle cx="49.8" cy="38.5" r="12.5" stroke="url(#c)" stroke-width="3"/><defs><linearGradient id="a" x1="49.8" y1="18.5" x2="49.8" y2="58.5" gradientUnits="userSpaceOnUse"><stop stop-color="#fff"/><stop offset=".3" stop-color="#566896" stop-opacity=".3"/><stop offset=".8" stop-color="#566896" stop-opacity=".5"/><stop offset="1" stop-color="#fff"/></linearGradient><linearGradient id="b" x1="40.8" y1="14.5" x2="40.8" y2="63.5" gradientUnits="userSpaceOnUse"><stop offset=".3" stop-color="#566896" stop-opacity=".3"/><stop offset=".8" stop-color="#566896" stop-opacity=".5"/><stop offset="1" stop-color="#fff"/></linearGradient><linearGradient id="c" x1="49.8" y1="24.5" x2="49.8" y2="52.5" gradientUnits="userSpaceOnUse"><stop stop-color="#fff"/><stop offset=".3" stop-color="#566896" stop-opacity=".3"/><stop offset=".8" stop-color="#566896" stop-opacity=".5"/><stop offset="1" stop-color="#fff"/></linearGradient></defs></svg>