<svg width="352" height="62" fill="none" xmlns="http://www.w3.org/2000/svg"><path d="M5.4 34.9H.1C4.3 51.7 12.4 58.5 29.4 62V19.9H19c6.5-8.9 18-8.9 26 0H33.4V62c18.5-3.5 26-13.5 29.3-27.1h-4.8c-4 11-7.3 16-19 20.5V23.9h12.8c-7-20.4-34.3-20-40.8 0h13v31.5c-11-5-15.5-9-18.5-20.5Z" fill="url(#a)"/><path d="M15.4 34.9H17v-3H0c3.5-42.5 59.3-42.5 62.8 0H47V41c1.5-1.5 2-3 2.5-6.1H54c-2.4 7.5-5.3 11-11.5 15.1V27.4h14.3a25.4 25.4 0 0 0-50.6 0h14.3v10.5h-4l-1-3Z" fill="url(#b)"/><path d="M13 34.9H9c1.3 7.7 4.5 11.1 11.4 15v-10H17v2c-2.9-1.6-3.4-3.5-4-7Z" fill="#9F191C"/><path d="M96.2 32c0 3.4-.9 6-2.7 8-1.8 2-4.3 3-7.5 3s-5.7-1-7.5-3c-1.8-2-2.7-4.7-2.7-8 0-3.4.9-6.1 2.7-8 1.8-2 4.3-3 7.5-3s5.7 1 7.5 3c1.8 1.9 2.7 4.6 2.7 8Zm-5.4 0c0-1.3-.2-2.4-.4-3.2-.3-1-.6-1.7-1-2.2a4 4 0 0 0-1.6-1.3L86 25c-.6 0-1.2 0-1.8.3-.5.2-1 .6-1.5 1.2-.4.6-.8 1.3-1 2.2-.3 1-.5 2-.5 3.3 0 1.3.2 2.3.4 3.2.3.8.6 1.6 1 2.1A4 4 0 0 0 86 39c.6 0 1.2-.2 1.8-.4a4 4 0 0 0 1.5-1.3 7 7 0 0 0 1-2.1c.3-.9.5-2 .5-3.2Zm24.8-4c0 1-.2 2-.5 2.9-.3.9-.7 1.6-1.3 2.2a8.9 8.9 0 0 1-2.6 1.8 9 9 0 0 1-3.8.7h-2.7v6.9h-5.3v-21h8.1c1.3 0 2.3 0 3.2.3.9.2 1.7.5 2.4 1 .8.5 1.4 1.2 1.8 2.1.5 1 .7 2 .7 3.2Zm-5.4.2c0-.6-.2-1.1-.5-1.5-.3-.5-.6-.8-1-1l-1.4-.3H104.7v6.3h.3a66.2 66.2 0 0 0 2.6-.1l.9-.3c.3-.2.6-.3.7-.5.4-.3.6-.7.8-1l.2-1.6Zm22.4-2.8h-8.9v17.1h-5.3v-21h14.2v4Zm18.4 6.3c0 3.5-.9 6.3-2.8 8.3-1.9 2-4.4 3-7.7 3a20.8 20.8 0 0 1-7-1.6v-4.9h.4a24.8 24.8 0 0 0 2.2 1.6l1.8.7a7.6 7.6 0 0 0 4 0 5 5 0 0 0 1.7-.9c.6-.4 1-1 1.4-1.7.4-.7.7-1.6.8-2.7h-8.4v-4h8.3a6 6 0 0 0-.8-2.1A4.8 4.8 0 0 0 142 25l-1.8-.2c-.7 0-1.4 0-2 .3a9.5 9.5 0 0 0-4 2.3h-.5v-4.9A17.4 17.4 0 0 1 141 21c3 0 5.6 1 7.4 2.9 1.8 1.9 2.7 4.5 2.7 7.8Zm21 10.8h-5.3v-9.3h-7.2v9.3h-5.3v-21h5.3V29h7.2v-7.7h5.3v21.1Zm4.4 0v-21h14.2v4h-9V29h8.3v4h-8.3v5.4h9v4h-14.2Zm34-14.4c0 1-.1 1.9-.4 2.8-.3.9-.8 1.6-1.4 2.2a9 9 0 0 1-2.6 1.8 9 9 0 0 1-3.7.7h-2.8v6.9h-5.3v-21h8.2c1.2 0 2.3 0 3.1.3 1 .2 1.7.5 2.4 1 .8.5 1.4 1.2 1.9 2.1.4 1 .6 2 .6 3.2Zm-5.4.1c0-.6-.1-1.1-.4-1.5-.3-.5-.7-.8-1-1l-1.5-.3h-2.6v6.3h.4a66.4 66.4 0 0 0 2.5-.1l1-.3.7-.5.7-1 .2-1.6Zm22.5-2.8h-9v17.1h-5.2v-21h14.2v4Zm21.4 6.6c0 3.4-1 6-2.8 8-1.8 2-4.3 3-7.5 3-3.1 0-5.6-1-7.5-3-1.8-2-2.7-4.7-2.7-8 0-3.4 1-6.1 2.7-8 1.9-2 4.4-3 7.5-3 3.2 0 5.7 1 7.5 3 1.9 1.9 2.8 4.6 2.8 8Zm-5.5 0c0-1.3-.1-2.4-.4-3.2-.3-1-.6-1.7-1-2.2a4 4 0 0 0-1.6-1.3c-.5-.2-1.1-.3-1.7-.3-.7 0-1.3 0-1.8.3-.5.2-1 .6-1.5 1.2s-.8 1.3-1.1 2.2c-.3 1-.4 2-.4 3.3 0 1.3.1 2.3.4 3.2.2.8.6 1.6 1 2.1a4 4 0 0 0 3.4 1.7c.6 0 1.2-.2 1.8-.4a4 4 0 0 0 1.5-1.3 7 7 0 0 0 1-2.1c.3-.9.4-2 .4-3.2Zm17.7 11a10 10 0 0 1-7.5-3c-1.9-1.9-2.8-4.6-2.8-8 0-3.4 1-6 2.8-8 1.8-2 4.3-3 7.5-3a16.3 16.3 0 0 1 4.2.5 13.7 13.7 0 0 1 3 1.3v5h-.6a25.5 25.5 0 0 0-2.3-1.8l-1.6-.7-1.8-.3c-.8 0-1.5 0-2.1.3a5 5 0 0 0-1.9 1.3 6 6 0 0 0-1.3 2.2c-.3.9-.5 2-.5 3.2 0 1.3.2 2.4.6 3.3a6 6 0 0 0 1.3 2.2 5 5 0 0 0 1.9 1.1 6.1 6.1 0 0 0 5.6-.8 10.7 10.7 0 0 0 2.2-1.7h.4v5l-1.3.6a13 13 0 0 1-3.4 1c-.6.2-1.4.2-2.4.2Zm14.3-.5v-17h-6.2v-4H287v4h-6.3v17h-5.3Zm30-14.4c0 1-.2 1.9-.5 2.8a6 6 0 0 1-1.3 2.2 8.9 8.9 0 0 1-2.7 1.8 9 9 0 0 1-3.7.7h-2.8v6.9h-5.3v-21h8.2c1.2 0 2.3 0 3.2.3.9.2 1.7.5 2.4 1 .8.5 1.4 1.2 1.8 2.1.4 1 .7 2 .7 3.2Zm-5.5.1c0-.6-.1-1.1-.4-1.5-.3-.5-.6-.8-1-1l-1.5-.3h-2.6v6.3h.4a66.4 66.4 0 0 0 2.6-.1l.9-.3.7-.5c.4-.3.6-.7.7-1 .2-.5.2-1 .2-1.6Zm27.5 3.8c0 3.4-1 6-2.7 8-1.9 2-4.4 3-7.5 3-3.2 0-5.7-1-7.5-3-1.8-2-2.7-4.7-2.7-8 0-3.4.9-6.1 2.7-8 1.8-2 4.3-3 7.5-3 3.1 0 5.6 1 7.5 3 1.8 1.9 2.7 4.6 2.7 8Zm-5.5 0c0-1.3-.1-2.4-.4-3.2-.2-1-.6-1.7-1-2.2a4 4 0 0 0-1.5-1.3l-1.8-.3c-.7 0-1.3 0-1.8.3-.5.2-1 .6-1.5 1.2-.4.6-.8 1.3-1 2.2-.3 1-.5 2-.5 3.3 0 1.3.2 2.3.4 3.2.3.8.6 1.6 1 2.1a4 4 0 0 0 3.4 1.7c.6 0 1.2-.2 1.8-.4a4 4 0 0 0 1.5-1.3 7 7 0 0 0 1-2.1c.3-.9.4-2 .4-3.2Zm26.8 10.5h-5.2V28.6l-8 13.9h-5v-21h5.3V34l7.4-12.6h5.5v21.1Zm-1.6-28a5 5 0 0 1-1.8 4c-1.2 1-3 1.6-5.6 1.6-2.5 0-4.4-.5-5.6-1.6a5 5 0 0 1-1.9-4h4.6c0 1 .3 1.7.7 2.2.4.5 1.1.7 2.2.7 1 0 1.7-.2 2.2-.7.4-.5.6-1.2.6-2.2h4.6Z" fill="#000"/><defs><linearGradient id="a" x1="46.4" y1="8" x2="20.4" y2="60" gradientUnits="userSpaceOnUse"><stop stop-color="#E20731"/><stop offset="1" stop-color="#A0191E"/></linearGradient><linearGradient id="b" x1="46.4" y1="8" x2="20.4" y2="60" gradientUnits="userSpaceOnUse"><stop stop-color="#E20731"/><stop offset="1" stop-color="#A0191E"/></linearGradient></defs></svg>