<svg width="315" height="64" fill="none" xmlns="http://www.w3.org/2000/svg"><path d="M20 29.9a1 1 0 0 1-1-.3l-7.6-7.3a1 1 0 0 1 .5-1.7l21.8-4.5h.6l10.4 5.2a1 1 0 0 1-.2 1.9L20 29.9Z" fill="url(#a)"/><path d="M22.3 31.8a1 1 0 0 0-.7 1l1.8 25c0 .6.7 1 1.3.8l24.6-8.4c.4-.1.7-.5.7-1l-.5-23.4a1 1 0 0 0-1.2-1l-26 7Z" fill="url(#b)" stroke="#5BBCE5"/><path d="M12.2 26.3a1 1 0 0 0-1.7.8l3 20.1c0 .2 0 .4.2.5l5.3 6.4a1 1 0 0 0 1.7-.8L19 33.8a1 1 0 0 0-.2-.6l-6.6-6.9Z" fill="url(#c)"/><path d="M84.6 32.7H59.7c-.7 0-1.3.6-1.3 1.4v9.6a1.3 1.3 0 0 0 2.6 0v-3.2h23.6c1.5 0 3.1-1.3 3.1-4 0-2.6-1.6-3.8-3.1-3.8Zm0 5.1H61v-2.4h23.6c.2 0 .5.3.5 1.2 0 .9-.3 1.2-.5 1.2Zm34.4 4.6-5.8-2h3.5c1.5 0 3.2-1.1 3.2-3.8 0-2.7-1.7-3.9-3.2-3.9H91.8c-.7 0-1.3.6-1.3 1.4v9.6a1.3 1.3 0 0 0 2.7 0v-3.2h11.7l13.2 4.5h.5c.5 0 1-.3 1.2-.9.2-.7-.1-1.4-.8-1.7Zm-25.8-7h23.5c.2 0 .5.3.5 1.2 0 .9-.3 1.2-.5 1.2H93.2v-2.4Zm56.2-1.8c-1.3-.8-2.8-1-3.6-1H129c-3 0-6.2 1.7-6.2 6.2 0 3 1.4 4.5 2.6 5.3 1.4.8 2.8.9 3.6.9h16.9c1 0 2.4-.1 3.6-1 1.2-.6 2.7-2.1 2.7-5.2 0-3-1.5-4.5-2.7-5.2Zm-1.3 8.2a4 4 0 0 1-2.3.5H129c-1.6 0-3.5-.6-3.5-3.5 0-1.4.4-2.4 1.3-3 .6-.3 1.3-.5 2.2-.5h16.9c1.7 0 3.6.6 3.6 3.5 0 1.5-.4 2.5-1.3 3Z" fill="#6FC3F2"/><path d="M181.3 45c1.2 0 1.9-.6 2.2-1.1.5-.6.7-1.5.7-2.8 0-3.4-2.2-3.6-3-3.6h-11.7c-.7 0-1.3.6-1.3 1.3 0 .8.6 1.4 1.3 1.4h11.8c.1 0 .2.2.2.9l-.1 1.2H161c-1.6 0-3.5-.6-3.5-3.5 0-1.4.4-2.4 1.3-3 .6-.3 1.4-.5 2.2-.5h21.8c.8 0 1.4-.6 1.4-1.3 0-.8-.6-1.4-1.4-1.4H161c-3 0-6.2 1.7-6.2 6.2 0 3 1.5 4.5 2.6 5.2a7 7 0 0 0 3.6 1h20.3Zm33.7 0c.8 0 1.4-.6 1.4-1.4 0-.7-.6-1.3-1.4-1.3h-21.8c-.9 0-1.7-.2-2.2-.5-1-.6-1.3-1.5-1.3-3V34a1.3 1.3 0 0 0-2.7 0v4.8c0 4.5 3.2 6.2 6.2 6.2H215Zm27.3-12.3h-16.9c-3 0-6.2 1.6-6.2 6.1v4.9c0 .7.6 1.3 1.3 1.3.8 0 1.4-.6 1.4-1.3V41h24v2.6a1.3 1.3 0 0 0 2.6 0v-4.9c0-4.5-3.2-6.1-6.2-6.1Zm-19.1 3.2c.6-.3 1.3-.5 2.2-.5h16.9c1 0 1.7.2 2.2.5.9.5 1.3 1.3 1.4 2.5h-24c0-1.2.5-2 1.3-2.5Zm47.4 1.4h-15c-1.2-.2-1.4-.3-1.5-.4v-1.1c.4-.5 2.6-.5 4.6-.5h13.5c1.8 0 3.6 0 4.7.3.7.1 1 .3 1 .3l.1.3a1.3 1.3 0 0 0 2.7 0c0-1.2-.5-2.7-3.2-3.2-1.4-.3-3.3-.3-5.3-.3h-13.4c-3.2 0-5.4 0-6.6 1.2-.6.6-.9 1.3-.9 2.2 0 .9.2 2 1 2.7 1 1 2.7 1.2 6.4 1.2H276c1.4.2 1.8.4 1.9.5v.4c0 .8 0 .9-.4 1-.9.4-3.1.4-5.4.4h-15.9c-1.5-.2-2-.6-2.2-.8v-.2c0-.8-.7-1.4-1.4-1.4-.8 0-1.4.6-1.4 1.4a3 3 0 0 0 1 2.1c1.3 1.4 3.8 1.6 6.3 1.6H272.2c5.6 0 8.5-.2 8.5-4 0-1-.3-1.8-.9-2.4-1.3-1.3-3.6-1.3-9.2-1.3Zm32.2 0h-15.1c-1.1-.2-1.4-.3-1.4-.4l-.1-.8v-.3c.5-.5 2.7-.5 4.7-.5H304.4c1.8 0 3.6 0 4.7.3l1 .3.1.3a1.3 1.3 0 0 0 2.7 0c0-1.2-.6-2.7-3.2-3.2-1.5-.3-3.4-.3-5.3-.3h-13.5c-3.2 0-5.3 0-6.5 1.2-.6.6-1 1.3-1 2.2 0 .9.2 2 1 2.7 1 1 2.8 1.2 6.4 1.2h17.5c1.4.2 1.7.4 1.8.5l.1.4c0 .8 0 .9-.4 1-1 .4-3.1.4-5.4.4H288.4c-1.5-.2-2-.6-2.1-.8l-.1-.2c0-.8-.6-1.4-1.4-1.4-.7 0-1.3.6-1.3 1.4a3 3 0 0 0 .9 2.1c1.4 1.4 4 1.6 6.4 1.6H304.4c5.5 0 8.5-.2 8.5-4 0-1-.3-1.8-.9-2.4-1.3-1.3-3.6-1.3-9.2-1.3Z" fill="#000"/><path d="m44.5 34.3-18.7 5.3c-.5.2-1 .8-1 1.3l.4 7.6c0 .5.5.9 1 .7.6-.1 1-.7 1-1.3l-.1-2.5 17.7-5c1.1-.3 2.3-1.7 2.2-3.7 0-2.1-1.3-2.7-2.5-2.4Zm.2 4-17.7 5v-1.9l17.6-5c.2 0 .4.1.4.8 0 .7-.1 1-.3 1.1ZM37.9 23c.7-.2.9-.6.9-1 0-.3-.3-.7-.9-1.3-1.6-1.6-3.1-1.3-3.5-1.2l-7.4 2c-.5.2-.6.6-.3.9.4.4 1 .5 1.5.4l7.4-2c.1 0 .3 0 .6.3l.5.6h-.1l-12.7 3.5c-1 .3-2.5.4-3.9-1-.6-.6-.8-1.1-.5-1.5.2-.3.6-.5 1.2-.7l13.7-3.7c.5-.2.6-.5.2-.9-.3-.3-1-.5-1.5-.4l-13.7 3.8c-1.9.5-3.1 1.8-1 3.9 1.4 1.4 3 1.8 4 2 1.3.1 2.2 0 2.7-.2L38 23Z" fill="#fff"/><defs><linearGradient id="a" x1="12.5" y1="21" x2="37" y2="21.5" gradientUnits="userSpaceOnUse"><stop stop-color="#1A8AC6"/><stop offset="1" stop-color="#69BDEC"/></linearGradient><linearGradient id="b" x1="34.5" y1="27" x2="36" y2="53" gradientUnits="userSpaceOnUse"><stop stop-color="#FDFEFF"/><stop offset="1" stop-color="#118EC9"/></linearGradient><linearGradient id="c" x1="30.5" y1="16.5" x2="30.5" y2="60.5" gradientUnits="userSpaceOnUse"><stop stop-color="#0876B3"/><stop offset="1" stop-color="#63BAE9"/></linearGradient></defs></svg>