<svg width="553" height="77" fill="none" xmlns="http://www.w3.org/2000/svg"><path d="M72.6.5h480l-34.6 76H38L72.6.5ZM58 .5h5l-34 76h-5l34-76ZM46 .5h5l-34 76h-5l34-76ZM34 .5h5l-34 76H0l34-76Z" fill="#393572"/><path d="m72.8 51.5 11.5-26.2h9.3c3.5 0 5.8.2 6.7.4 1.5.4 2.5 1.3 3 2.6s.3 3-.6 5c-.7 1.7-1.6 3-2.7 4.1a14.2 14.2 0 0 1-7.2 3.9c-1.4.2-3.5.3-6.1.3h-3.8l-4.4 10h-5.7Zm15.4-21.7-3.3 7.4H88c2.3 0 4-.2 4.8-.4.9-.3 1.7-.7 2.4-1.3.7-.6 1.2-1.3 1.5-2 .5-1 .5-1.8.2-2.4-.4-.6-1-1-1.9-1.2l-4-.1h-2.8Zm16.5 21.7h-5.5l8.4-19h5l-1.1 2.7c1.4-1.2 2.6-2 3.4-2.5 1-.4 1.8-.6 2.7-.6 1.2 0 2.3.3 3.2 1l-3.7 4.3c-.6-.5-1.4-.8-2.2-.8-.7 0-1.5.2-2.2.6-.7.4-1.4 1-2.2 2-.7 1.1-1.8 3.2-3.3 6.4l-2.5 6ZM124.5 30l2-4.7h5.6l-2 4.7h-5.6ZM115 51.5l8.4-19h5.5l-8.4 19H115Zm19.1-19h5l-1 2.6c2.6-2 5.2-3 7.7-3 1.3 0 2.4.3 3.1.8.8.5 1.3 1.2 1.4 2.2 1.4-1 2.7-1.7 4-2.2 1.3-.5 2.5-.8 3.7-.8a6 6 0 0 1 3.5.9 3 3 0 0 1 1.3 2.5c0 .8-.4 2-1.2 3.9l-5.4 12.1h-5.5l4.8-10.8c.9-2 1.2-3.1 1-3.7-.1-.7-.7-1-1.8-1-.8 0-1.6.2-2.4.6-1 .4-1.7 1-2.4 1.9-.6.8-1.3 2.1-2.1 3.9l-4 9.1h-5.5l4.6-10.4c.8-1.8 1.2-3 1.2-3.6 0-.5 0-.9-.4-1.2-.2-.2-.7-.3-1.4-.3-.9 0-1.7.2-2.6.6-.9.4-1.6 1-2.3 1.8-.6.8-1.3 2-2.1 3.9l-4.1 9.2h-5.5l8.4-19Zm42.3 13 5 .8a15.8 15.8 0 0 1-5.1 4.2c-2 1-4 1.4-6.3 1.4-3.6 0-5.8-1-6.6-3.2-.6-1.7-.3-3.9.8-6.5 1.4-3.2 3.4-5.6 6-7.4a14 14 0 0 1 8-2.7c3 0 5.1 1 6 2.8 1 1.9.6 4.7-1.2 8.6h-13.7c-.6 1.5-.7 2.6-.2 3.5.5.8 1.3 1.2 2.6 1.2a5 5 0 0 0 2.4-.7c.8-.4 1.6-1 2.3-2Zm2.5-5.1c.7-1.5.7-2.6.3-3.3-.5-.8-1.2-1.1-2.4-1.1a6 6 0 0 0-3.5 1.1c-1.1.8-2 2-2.6 3.3h8.2Zm18.6 2.6 5.8-.5c-.4 1.7-.3 3 .4 3.8.6.8 1.9 1.2 3.6 1.2 1.9 0 3.4-.4 4.7-1a5.7 5.7 0 0 0 2.5-2.6c.3-.6.4-1.1.1-1.6-.2-.4-.7-.8-1.5-1.1l-4.2-1.2c-2.7-.7-4.5-1.5-5.3-2.5-1.1-1.5-1.3-3.2-.3-5.3.6-1.4 1.5-2.6 2.8-3.8 1.4-1.1 3-2 4.8-2.6 1.8-.6 3.8-1 6-1 3.6 0 6 .8 7.2 2.2 1.2 1.5 1.3 3.4.3 5.8l-5.9.2c.4-1.3.3-2.3-.3-2.9-.5-.5-1.6-.8-3.2-.8-1.7 0-3.2.3-4.4.9-.8.4-1.3 1-1.6 1.6-.3.6-.3 1.2.1 1.6.5.6 2 1.2 4.5 1.8 2.6.6 4.4 1.2 5.4 1.9a4 4 0 0 1 2 2.6c.3 1.1 0 2.5-.7 4.2-.6 1.5-1.7 2.9-3.2 4.2a14.7 14.7 0 0 1-5.2 3c-1.9.6-4.1.9-6.6.9-3.6 0-6-.8-7.3-2.3-1.3-1.5-1.5-3.8-.5-6.7Zm27.3-1.2a16.6 16.6 0 0 1 15-9.6c3.1 0 5.3.8 6.5 2.7 1.1 1.9 1.1 4.2-.2 7a16.5 16.5 0 0 1-6.2 7.2 16 16 0 0 1-8.8 2.8c-2 0-3.6-.4-5-1.1-1.3-.8-2.1-2-2.4-3.5-.2-1.5.2-3.4 1.1-5.5Zm5.5.2c-.8 2-1 3.3-.4 4.3.5 1 1.5 1.5 3 1.5 1.4 0 2.8-.5 4.2-1.5 1.4-1 2.5-2.4 3.4-4.3.8-1.9 1-3.3.4-4.3-.5-1-1.5-1.5-3-1.5-1.3 0-2.8.5-4.2 1.5-1.4 1-2.5 2.4-3.4 4.3Zm16 9.5 11.5-26.2h5.5l-11.6 26.2h-5.5Zm24.7 0 1.3-2.8a14.3 14.3 0 0 1-8.3 3.2c-1.4 0-2.6-.2-3.4-.8a2.8 2.8 0 0 1-1.4-2.4c0-1 .3-2.4 1.1-4.2l5.3-12h5.5l-3.8 8.8a27.7 27.7 0 0 0-1.9 4.9c0 .6.1 1 .5 1.4.4.3 1 .5 1.8.5 1 0 1.9-.2 2.8-.7a7 7 0 0 0 2.3-1.7 27 27 0 0 0 2.7-5.2l3.5-8h5.5l-8.4 19h-5Zm28.7-19-1.7 4h-3.8l-3.4 7.7c-.7 1.5-1 2.4-1 2.7-.1.2 0 .5.1.6.2.2.5.3.9.3.5 0 1.3-.2 2.4-.5l-1.3 3.9c-1.5.5-3 .7-4.6.7a6 6 0 0 1-2.5-.4c-.7-.3-1-.7-1.3-1.2-.1-.5 0-1.1.2-2l1.3-3.5 3.7-8.3h-2.5l1.8-4h2.5l1.6-3.7 6.8-3-3 6.7h3.8Zm5-2.5 2-4.7h5.5l-2 4.7h-5.5ZM295 51.5l8.4-19h5.5l-8.4 19h-5.5Zm14.2-9.7a16.6 16.6 0 0 1 15-9.6c3.1 0 5.3.8 6.4 2.7 1.2 1.9 1.2 4.2 0 7a16.5 16.5 0 0 1-6.3 7.2 16 16 0 0 1-8.9 2.8c-1.9 0-3.5-.4-4.9-1.1-1.4-.8-2.2-2-2.4-3.5-.2-1.5.2-3.4 1.1-5.5Zm5.5.2c-.8 2-1 3.3-.4 4.3.5 1 1.5 1.5 3 1.5 1.4 0 2.8-.5 4.2-1.5 1.4-1 2.5-2.4 3.4-4.3.8-1.9 1-3.3.4-4.3-.5-1-1.5-1.5-3-1.5-1.3 0-2.8.5-4.2 1.5-1.4 1-2.5 2.4-3.4 4.3Zm34.8 9.5h-5.5l4.3-9.7c.9-2 1.4-3.3 1.4-4 0-.5-.1-1-.5-1.3-.4-.4-1-.5-1.7-.5a7 7 0 0 0-5.3 2.6c-.6.7-1.4 2.2-2.3 4.3l-3.8 8.6h-5.5l8.4-19h5l-1.2 2.8c2.8-2.1 5.6-3.2 8.3-3.2 1.2 0 2.2.2 3 .6.9.4 1.4 1 1.7 1.5.2.7.2 1.4.1 2.1-.1.8-.5 2-1.2 3.4l-5.2 11.8Zm6-5.4 5.9-.8c-.2 1 0 1.7.4 2.3.5.5 1.4.7 2.7.7 1.4 0 2.6-.2 3.5-.7.7-.3 1-.8 1.3-1.3.2-.4.2-.7 0-1-.1-.2-.6-.4-1.5-.7-4-.8-6.4-1.7-7.3-2.4-1.2-1-1.4-2.4-.6-4.3.7-1.6 2-3 4-4.1 1.9-1.1 4.3-1.7 7.3-1.7 2.9 0 4.8.4 5.8 1.3 1 .8 1.4 2 1.2 3.7l-5.6.9c.1-.7 0-1.3-.5-1.7-.4-.4-1.2-.6-2.4-.6-1.4 0-2.5.2-3.3.6-.6.2-1 .6-1.1 1-.2.3-.1.7.1.9.4.3 1.9.8 4.5 1.4 2.7.6 4.4 1.4 5.2 2.2.7 1 .8 2.2 0 3.8A10 10 0 0 1 371 50a15.4 15.4 0 0 1-7.9 1.8c-2.8 0-4.8-.5-6-1.5-1.2-1-1.6-2.5-1.4-4.3Zm50.6-4.2 2-4.4h12.4L416 47.9c-1.7 1-3.9 2-6.5 2.8-2.7.8-5.2 1.3-7.5 1.3-3 0-5.4-.6-7.1-1.8a6.3 6.3 0 0 1-2.9-4.9c-.1-2.1.3-4.5 1.5-7a23 23 0 0 1 12.7-12.1c2.2-.9 4.7-1.3 7.4-1.3 3.6 0 6 .7 7.4 2 1.4 1.4 1.9 3.3 1.4 5.7l-6.2 1c.2-1.3-.1-2.3-1-3-.7-.8-2-1.2-3.6-1.2-2.5 0-4.8.7-7 2.2a15 15 0 0 0-5 6.5c-1.5 3.1-1.7 5.5-1 7 .9 1.6 2.5 2.3 5 2.3 1.2 0 2.5-.2 4-.6 1.3-.4 2.6-1 3.8-1.6l1.4-3.3h-6.6Zm18.8 9.6h-5.5l8.4-19h5l-1.1 2.7c1.4-1.2 2.6-2 3.4-2.5 1-.4 1.8-.6 2.7-.6 1.2 0 2.3.3 3.2 1l-3.7 4.3c-.6-.5-1.4-.8-2.2-.8-.7 0-1.5.2-2.2.6-.7.4-1.4 1-2.2 2-.7 1.1-1.8 3.2-3.2 6.4l-2.6 6Zm13.3-9.7a16.7 16.7 0 0 1 15-9.6c3.1 0 5.3.8 6.5 2.7 1.2 1.9 1.1 4.2-.1 7a16.5 16.5 0 0 1-6.2 7.2 16 16 0 0 1-9 2.8c-1.8 0-3.5-.4-4.9-1.1-1.3-.8-2.1-2-2.4-3.5-.2-1.5.2-3.4 1.1-5.5Zm5.6.2c-.9 2-1 3.3-.5 4.3s1.5 1.5 3 1.5c1.4 0 2.8-.5 4.2-1.5 1.4-1 2.6-2.4 3.4-4.3.8-1.9 1-3.3.4-4.3-.5-1-1.5-1.5-2.9-1.5s-2.9.5-4.3 1.5-2.5 2.4-3.3 4.3Zm29.5 9.5 1.3-2.8a14.3 14.3 0 0 1-8.4 3.2c-1.3 0-2.5-.2-3.3-.8a2.8 2.8 0 0 1-1.4-2.4c0-1 .3-2.4 1.1-4.2l5.3-12h5.5l-3.8 8.8a27.7 27.7 0 0 0-2 4.9c0 .6.2 1 .6 1.4.3.3 1 .5 1.8.5a7 7 0 0 0 5.1-2.4c.6-.7 1.5-2.4 2.7-5.2l3.5-8h5.5l-8.4 19h-5Zm19-19h5.2l-1.3 2.8c1.1-1 2.4-1.7 3.8-2.3 1.3-.6 2.7-.9 4.1-.9 2.4 0 4 .9 5 2.6 1 1.7.7 4.1-.7 7.2a17.5 17.5 0 0 1-5.8 7.4c-2.4 1.8-4.9 2.6-7.3 2.6-1.1 0-2-.2-2.8-.6a5.5 5.5 0 0 1-2-2.1l-4.3 9.5H481l11.5-26.2Zm1.4 9.2c-1 2.1-1.2 3.7-.7 4.7s1.4 1.6 2.7 1.6c1.3 0 2.6-.5 3.8-1.4 1.3-1 2.4-2.5 3.3-4.6 1-2 1.1-3.5.7-4.5-.5-1-1.3-1.4-2.6-1.4-1.4 0-2.7.5-4 1.4a10 10 0 0 0-3.2 4.2Z" fill="#fff"/></svg>