<svg width="249" height="67" fill="none" xmlns="http://www.w3.org/2000/svg"><path d="M9.2 42.8c0 10.4.7 11.1 8.7 15.7a1 1 0 0 0 1.4-.7c.3-2.4.6-7.2-.1-10-1-3.9-12-14-13-15l-.1-.1c-.4-.6-2.2-4 0-8.5C8.4 20 19.4 6.9 22.5 3.3a1 1 0 0 1 1.5 0c3 3.8 14 18 15.8 21 2 3.6 1.5 10 1.5 10" stroke="#000" stroke-width="4"/><path d="M11.7 31.7s10-17 12-14.4c2 2.4 10.1 14 11.5 18 1.3 4 3.7 11.4 1.5 15.4-2.3 4-5 6-8 7.5s-2-7.5-2-7.5c.1-2.5 0-7.5 7-8.5" stroke="#000" stroke-width="4"/><path d="M2.7 36.3s-1 15.3 2.5 20c3.5 4.6 10 8.5 13 8.5h10c3 0 9.5-3 13-8.5s2.5-20 2.5-20" stroke="#000" stroke-width="4"/><path d="M68.1 17.2c0-1-.1-1.5-.4-1.8-.3-.2-1-.4-1.9-.4v-.4h6.9v.4c-1 0-1.6.2-1.9.5-.3.3-.4 1-.4 2v10.1c0 1 .1 1.7.4 2 .3.3 1 .4 1.9.5v.4h-6.9v-.4c1 0 1.7-.2 2-.5.2-.3.3-1 .3-2v-9.1l-7.3 9.4.1 1.4c0 .2.3.4.6.5.3.2.8.3 1.6.3v.4h-6.9v-.4c1 0 1.6-.2 2-.5.2-.3.3-1 .3-2V17.5c0-1-.1-1.7-.4-2-.3-.3-.9-.4-1.9-.5v-.4h6.9v.4c-1 0-1.6.2-2 .5-.2.3-.3 1-.3 2v9.2l7.3-9.5ZM79.3 22h7.4v-4.6l-.2-1.6a1 1 0 0 0-.5-.5c-.3-.2-.7-.3-1-.3h-.6v-.4h6.8v.4h-.6c-.4 0-.7.1-1 .3a1 1 0 0 0-.6.6l-.1 1.5v10.3c0 .8 0 1.3.2 1.6 0 .2.2.3.4.5.4.2.7.3 1.1.3h.6v.4h-6.8v-.4h.5c.7 0 1.2-.2 1.5-.6.2-.3.3-.9.3-1.8v-4.9h-7.4v4.9l.1 1.6.5.5c.3.2.7.3 1 .3h.7v.4h-6.9v-.4h.6c.7 0 1.1-.2 1.4-.6.2-.3.3-.9.3-1.8V17.4l-.1-1.6a1 1 0 0 0-.5-.5l-1-.3h-.7v-.4h6.9v.4H81c-.4 0-.8.1-1 .3a1 1 0 0 0-.6.6l-.1 1.5V22Zm26.8-7.4v3.7h-.4c0-.7-.2-1.3-.5-1.8-.3-.4-.7-.7-1-.8-.5-.2-1.1-.2-1.9-.2H98v12.1c0 1 0 1.7.4 2 .2.3.9.4 1.8.5v.4h-6.8v-.4c1 0 1.6-.2 1.9-.5.3-.3.4-1 .4-2V17.5c0-1-.1-1.7-.4-2-.3-.3-.9-.4-1.9-.5v-.4h12.8Zm6.8 8.5v4.6c0 1 0 1.6.3 1.9.3.3.8.5 1.4.5h.6v.4h-6.8v-.4h.5c.7 0 1.2-.3 1.5-.7.1-.2.2-.8.2-1.7V17.4c0-1 0-1.6-.3-1.8-.3-.4-.7-.6-1.3-.6h-.6v-.4h5.8c1.4 0 2.5.2 3.3.5.9.2 1.6.7 2.1 1.4.6.7.9 1.6.9 2.5 0 1.3-.5 2.4-1.3 3.2-.9.8-2 1.2-3.7 1.2a10.2 10.2 0 0 1-2.6-.3Zm0-.7a17.4 17.4 0 0 0 1.9.2c.8 0 1.5-.3 2-1 .7-.5 1-1.4 1-2.4 0-.6-.2-1.3-.4-1.9-.3-.6-.7-1-1.2-1.3-.5-.3-1.1-.4-1.8-.4-.4 0-.9 0-1.5.2v6.6Zm22-5.2c0-1-.2-1.5-.5-1.8-.3-.2-1-.4-1.9-.4v-.4h7v.4c-1 0-1.7.2-2 .5-.2.3-.4 1-.4 2v10.1c0 1 .2 1.7.4 2 .3.3 1 .4 2 .5v.4h-7v-.4c1 0 1.7-.2 2-.5.2-.3.4-1 .4-2v-9.1l-7.4 9.4.1 1.4c.1.2.3.4.6.5.3.2.8.3 1.6.3v.4h-6.9v-.4c1 0 1.7-.2 2-.5.2-.3.3-1 .3-2V17.5c0-1 0-1.7-.4-2-.2-.3-.9-.4-1.9-.5v-.4h6.9v.4c-1 0-1.6.2-1.9.5-.3.3-.4 1-.4 2v9.2l7.4-9.5Zm9-2.6h13v.4c-.9 0-1.5.2-1.8.5-.3.3-.4 1-.4 2v8.8c0 1.7 0 2.8.3 3.2.2.4.8.6 1.9.6v5h-.4a7 7 0 0 0-1.1-2.8 3.9 3.9 0 0 0-1.8-1.4 7 7 0 0 0-2.4-.4h-4c-1.8 0-3.1.5-4 1.4a6 6 0 0 0-1.4 3.2h-.4v-5c1.2-.1 2.2-.9 3-2.3a15 15 0 0 0 1.7-5.1c.3-2 .4-3.8.4-5 0-.8 0-1.4-.3-1.8-.2-.3-.4-.6-.7-.7L144 15v-.4Zm3.8.9c-.2 4.6-.6 7.9-1.1 9.7-.6 1.9-1.3 3.4-2.2 4.4h5.9c1 0 1.6 0 1.8-.2.3-.2.4-.8.4-1.8V15.5h-4.8Zm23.3 1.7c0-1-.2-1.5-.5-1.8-.3-.2-.9-.4-1.8-.4v-.4h6.8v.4c-1 0-1.6.2-1.8.5-.3.3-.5 1-.5 2v10.1c0 1 .2 1.7.5 2 .2.3.9.4 1.8.5v.4h-6.8v-.4c1 0 1.6-.2 1.9-.5.3-.3.4-1 .4-2v-9.1l-7.4 9.4.1 1.4c.1.2.3.4.6.5.3.2.9.3 1.6.3v.4h-6.8v-.4c1 0 1.6-.2 1.9-.5.2-.3.4-1 .4-2V17.5c0-1-.2-1.7-.4-2-.3-.3-1-.4-2-.5v-.4h7v.4c-1 0-1.7.2-2 .5-.2.3-.4 1-.4 2v9.2l7.4-9.5Zm11.2-1.7v6.3h3.5c.9 0 1.5-.2 1.8-.5.4-.3.6-1 .7-1.9h.4V25h-.4a6 6 0 0 0-.3-1.5l-.7-.7-1.5-.2h-3.5V28a5 5 0 0 0 0 1.2l.4.4 1 .1h2.6c1 0 1.6 0 2-.2a3 3 0 0 0 1.1-.7 9 9 0 0 0 1.5-2.2h.5l-1.4 4h-12.2v-.4h.5c.4 0 .8-.1 1.1-.3.3-.1.4-.3.5-.6l.1-1.5V17.4c0-1 0-1.7-.3-1.9-.2-.3-.7-.5-1.4-.5h-.5v-.4h12.2l.2 3.5h-.5c-.1-.8-.3-1.4-.5-1.7-.2-.3-.5-.6-.9-.7-.3-.2-.9-.2-1.6-.2h-4.4ZM198 22h7.4v-4.6c0-.8 0-1.3-.2-1.6a1 1 0 0 0-.5-.5c-.3-.2-.7-.3-1-.3h-.6v-.4h6.8v.4h-.6c-.3 0-.7.1-1 .3a1 1 0 0 0-.6.6v13.4l.6.5c.3.2.7.3 1 .3h.6v.4H203v-.4h.6c.6 0 1-.2 1.4-.6.2-.3.3-.9.3-1.8v-4.9H198v4.9l.1 1.6.5.5c.4.2.7.3 1.1.3h.6v.4h-6.8v-.4h.5c.7 0 1.2-.2 1.5-.6l.2-1.8V17.4l-.1-1.6a1 1 0 0 0-.5-.5c-.3-.2-.7-.3-1-.3h-.6v-.4h6.8v.4h-.6c-.4 0-.7.1-1 .3a1 1 0 0 0-.6.6l-.1 1.5V22Zm27.5-7.4.2 3.7h-.5c0-.6-.2-1-.3-1.4-.3-.4-.6-.8-1-1-.4-.2-1-.3-1.6-.3h-2.2v12.1c0 1 0 1.6.3 1.9.3.3.7.5 1.4.5h.5v.4h-6.7v-.4h.5c.7 0 1.2-.2 1.5-.6l.2-1.8v-12h-3.5c-.4.2-.7.5-1 1-.3.3-.5 1-.5 1.6h-.5l.2-3.7h13Zm7 7.2h.6c2 0 3.4 0 4.3.3.9.3 1.6.8 2.2 1.5.6.6.9 1.5.9 2.5 0 1.1-.5 2.2-1.3 3-1 1-2.4 1.4-4.6 1.4H228v-.4c1 0 1.6-.2 1.9-.5.3-.3.4-1 .4-2V17.5c0-1-.1-1.7-.4-2-.3-.3-1-.4-1.9-.5v-.4h6.8v.4c-1 0-1.6.2-1.8.5-.3.3-.4 1-.4 2v4.3Zm0 7.8 1.6.1a4 4 0 0 0 2.6-1c.7-.6 1.1-1.5 1.1-2.6 0-1.2-.4-2-1.2-2.6-.8-.6-1.8-.9-3-.9l-1.1.1v6.9Zm15.4.5v.4h-6.8v-.4h.5c.5 0 .8-.1 1.1-.3.3-.1.5-.3.6-.6l.1-1.5V17.4l-.1-1.5a1 1 0 0 0-.6-.6c-.3-.2-.7-.3-1.2-.3h-.4v-.4h6.8v.4h-.3c-.5 0-.9.1-1.2.3-.3 0-.5.3-.6.6l-.1 1.5v10.3c0 1 0 1.6.3 1.9.3.3.8.5 1.6.5h.3ZM60 47.3v3.9c0 .8 0 1.3.3 1.5.2.3.6.4 1 .4h.6v.4h-5.7v-.4h.5c.6 0 1-.1 1.2-.5.2-.2.2-.7.2-1.4v-8.6c0-.8 0-1.3-.2-1.6-.3-.2-.7-.4-1.2-.4h-.5v-.3H61c1.2 0 2.1 0 2.8.3.7.3 1.2.7 1.7 1.3.5.5.7 1.2.7 2 0 1.1-.3 2-1 2.7-.8.6-1.8 1-3 1a8.5 8.5 0 0 1-2.3-.3Zm0-.6a14.5 14.5 0 0 0 1.6.2c.7 0 1.3-.2 1.7-.7.5-.6.8-1.3.8-2s-.1-1.2-.4-1.7c-.2-.5-.5-.8-1-1-.4-.3-.9-.5-1.4-.5l-1.3.2v5.5Zm26.8 2.4h-5.1l-1 2-.2 1.2c0 .2 0 .4.2.5.2.2.7.3 1.3.3v.4h-4.2v-.4c.6 0 1-.2 1.1-.3.3-.4.7-1 1.1-2L84.6 40h.3l4.6 11c.4.9.7 1.4 1 1.7.3.3.7.4 1.3.4v.4h-5.2v-.4c.5 0 .8 0 1-.2l.3-.6a4 4 0 0 0-.4-1.3l-.8-2Zm-.3-.8L84.2 43l-2.3 5.3h4.5Zm19.3-4.5V40h.3c.2.4.4.6.8.6l.9-.2c.7-.3 1.5-.4 2.3-.4 1.1 0 2 .3 2.6 1 .7.6 1 1.4 1 2.2a3 3 0 0 1-.7 2.1c-.5.6-1.2 1-2 1.3a3.6 3.6 0 0 1 3 3.5c0 1-.4 2-1.3 2.7-.8.7-1.9 1-3.1 1-1.9 0-3.3-.9-4.4-2.7l.4-.2a4.3 4.3 0 0 0 3.4 2c1 0 1.6-.3 2-.8.5-.6.8-1.3.8-2.2a3 3 0 0 0-1-2.1c-.5-.6-1.5-1-3-1v-.6c1 0 1.8 0 2.3-.3.5-.2 1-.5 1.2-1 .3-.5.5-1 .5-1.6 0-.8-.2-1.3-.7-1.8-.4-.4-1-.7-1.7-.7-1 0-1.7.3-2.2.9-.5.5-.9 1.2-1 2.1h-.4Zm31.5 3c.9.1 1.6.5 2 .9a3 3 0 0 1 1 2.2c0 .6-.2 1.3-.6 1.9-.5.6-1 1-1.8 1.3-.7.3-1.8.4-3.3.4h-6.2v-.4h.5c.5 0 1-.1 1.2-.5l.2-1.4v-8.6c0-.8-.1-1.3-.3-1.6-.3-.2-.6-.4-1.1-.4h-.5v-.3h5.7c1 0 2 0 2.6.2 1 .2 1.7.6 2.2 1.2a3 3 0 0 1 .2 3.9c-.4.5-1 .9-1.8 1.1Zm-5.1-.6a8.2 8.2 0 0 0 1.8.2c1 0 1.7-.1 2.1-.4.5-.2.9-.5 1.1-.9.3-.4.4-.9.4-1.4 0-.8-.3-1.4-1-2-.6-.5-1.5-.8-2.7-.8-.6 0-1.2 0-1.7.2v5.1Zm0 6.3c.7.2 1.5.3 2.2.3 1.2 0 2-.3 2.7-.8.6-.5 1-1.2 1-2 0-.5-.2-1-.5-1.4-.3-.5-.7-.9-1.4-1.2-.6-.2-1.4-.4-2.3-.4a23.3 23.3 0 0 0-1.7.1v5.4Zm32.7-10c0-.8-.2-1.4-.4-1.6-.3-.2-.8-.3-1.6-.3v-.3h5.8v.3c-.9 0-1.4.2-1.6.4-.2.2-.4.8-.4 1.7V51c0 .9.2 1.4.4 1.6.2.3.7.4 1.6.4v.4h-5.8v-.4c.9 0 1.4-.1 1.6-.4.2-.2.4-.7.4-1.6v-7.6l-6.2 7.9.1 1.1.5.5 1.3.1v.4h-5.7v-.4c.9 0 1.4-.1 1.6-.4.2-.2.3-.7.3-1.6v-8.4c0-.9 0-1.5-.3-1.7-.2-.2-.7-.4-1.6-.4v-.3h5.7v.3c-.8 0-1.3.2-1.5.4-.3.2-.4.8-.4 1.7v7.6l6.2-7.9Zm28.9-2.2.1 3h-.3l-.3-1.1a2 2 0 0 0-.8-.8c-.4-.2-.8-.3-1.4-.3h-1.8v10.1c0 .8 0 1.3.2 1.5.3.3.7.4 1.2.4h.4v.4h-5.6v-.4h.5c.6 0 1-.1 1.2-.5l.2-1.4V41.1h-1.6l-1.3.1c-.3.1-.6.4-.9.7-.2.4-.4.9-.4 1.5h-.4l.2-3.1h10.8Zm24.1 2.1c0-.7 0-1.3-.3-1.5-.3-.2-.8-.3-1.6-.3v-.3h5.7v.3c-.8 0-1.3.2-1.5.4-.3.2-.4.8-.4 1.7V51c0 .9.1 1.4.4 1.6.2.3.7.4 1.5.4v.4H216v-.4c.8 0 1.4-.1 1.6-.4.2-.2.3-.7.3-1.6v-7.6l-6.1 7.9.1 1.1c0 .2.2.3.5.5l1.3.1v.4H208v-.4c.8 0 1.4-.1 1.6-.4.2-.2.3-.7.3-1.6v-8.4c0-.9 0-1.5-.3-1.7-.2-.2-.8-.4-1.6-.4v-.3h5.7v.3c-.8 0-1.3.2-1.6.4-.2.2-.3.8-.3 1.7v7.6l6.1-7.9Zm21.6-1.4v5.2h2.9c.7 0 1.3-.1 1.5-.3.3-.3.5-.9.6-1.6h.3v4.6h-.3l-.3-1.2c-.1-.3-.3-.4-.6-.6a3 3 0 0 0-1.2-.2h-3v4.4c0 .6.1 1 .2 1l.2.4h3a6 6 0 0 0 1.7 0l1-.7 1.2-1.8h.4l-1.2 3.3h-10.2v-.4h.5c.3 0 .6 0 .9-.2.2 0 .3-.2.4-.5l.1-1.2v-8.6c0-.9 0-1.4-.2-1.6-.3-.3-.7-.4-1.2-.4h-.5v-.3h10.2l.2 2.9h-.4l-.5-1.5-.7-.6-1.4-.1h-3.6Z" fill="#000"/></svg>