<svg width="249" height="67" viewBox="0 0 249 67" fill="none" xmlns="http://www.w3.org/2000/svg">
<path d="M9.19999 42.8C9.19999 53.2 9.89999 53.9 17.9 58.5C18.0364 58.5634 18.1854 58.5953 18.3358 58.5931C18.4862 58.591 18.6342 58.5549 18.7688 58.4876C18.9034 58.4204 19.021 58.3236 19.113 58.2045C19.205 58.0855 19.2689 57.9472 19.3 57.8C19.6 55.4 19.9 50.6 19.2 47.8C18.2 43.9 7.19999 33.8 6.19999 32.8L6.09999 32.7C5.69999 32.1 3.89999 28.7 6.09999 24.2C8.39999 20 19.4 6.89999 22.5 3.29999C22.5938 3.19358 22.7092 3.10836 22.8385 3.04999C22.9679 2.99161 23.1081 2.96143 23.25 2.96143C23.3919 2.96143 23.5321 2.99161 23.6614 3.04999C23.7907 3.10836 23.9061 3.19358 24 3.29999C27 7.09999 38 21.3 39.8 24.3C41.8 27.9 41.3 34.3 41.3 34.3" stroke="#CAD5DD" stroke-width="4"/>
<path d="M11.7 31.7C11.7 31.7 21.7 14.7 23.7 17.3C25.7 19.7 33.8 31.3 35.2 35.3C36.5 39.3 38.9 46.7 36.7 50.7C34.4 54.7 31.7 56.7 28.7 58.2C25.7 59.7 26.7 50.7 26.7 50.7C26.8 48.2 26.7 43.2 33.7 42.2" stroke="#CAD5DD" stroke-width="4"/>
<path d="M2.69998 36.3C2.69998 36.3 1.69998 51.6 5.19998 56.3C8.69998 60.9 15.2 64.8001 18.2 64.8001H28.2C31.2 64.8001 37.7 61.8 41.2 56.3C44.7 50.8 43.7 36.3 43.7 36.3" stroke="#CAD5DD" stroke-width="4"/>
<path d="M68.0999 17.2001C68.0999 16.2001 67.9999 15.7001 67.6999 15.4001C67.3999 15.2001 66.7 15.0001 65.8 15.0001V14.6001H72.6999V15.0001C71.6999 15.0001 71.1 15.2001 70.8 15.5001C70.5 15.8001 70.4 16.5001 70.4 17.5001V27.6001C70.4 28.6001 70.5 29.3001 70.8 29.6001C71.1 29.9001 71.7999 30.0001 72.6999 30.1001V30.5001H65.8V30.1001C66.8 30.1001 67.5 29.9001 67.8 29.6001C68 29.3001 68.0999 28.6001 68.0999 27.6001V18.5001L60.7999 27.9001L60.9 29.3001C60.9 29.5001 61.2 29.7001 61.5 29.8001C61.8 30.0001 62.2999 30.1001 63.0999 30.1001V30.5001H56.2V30.1001C57.2 30.1001 57.8 29.9001 58.2 29.6001C58.4 29.3001 58.5 28.6001 58.5 27.6001V17.5001C58.5 16.5001 58.3999 15.8001 58.0999 15.5001C57.7999 15.2001 57.2 15.1001 56.2 15.0001V14.6001H63.0999V15.0001C62.0999 15.0001 61.4999 15.2001 61.0999 15.5001C60.8999 15.8001 60.7999 16.5001 60.7999 17.5001V26.7001L68.0999 17.2001ZM79.3 22.0001H86.6999V17.4001L86.5 15.8001C86.3997 15.5781 86.2219 15.4003 86 15.3001C85.7 15.1001 85.3 15.0001 85 15.0001H84.4V14.6001H91.1999V15.0001H90.5999C90.1999 15.0001 89.8999 15.1001 89.5999 15.3001C89.4621 15.35 89.3368 15.4296 89.2332 15.5333C89.1295 15.637 89.0499 15.7622 89 15.9001L88.9 17.4001V27.7001C88.9 28.5001 88.8999 29.0001 89.0999 29.3001C89.0999 29.5001 89.3 29.6001 89.5 29.8001C89.9 30.0001 90.1999 30.1001 90.5999 30.1001H91.1999V30.5001H84.4V30.1001H84.9C85.6 30.1001 86.1 29.9001 86.4 29.5001C86.6 29.2001 86.6999 28.6001 86.6999 27.7001V22.8001H79.3V27.7001L79.4 29.3001L79.9 29.8001C80.2 30.0001 80.6 30.1001 80.9 30.1001H81.5999V30.5001H74.6999V30.1001H75.3C76 30.1001 76.3999 29.9001 76.6999 29.5001C76.8999 29.2001 77 28.6001 77 27.7001V17.4001L76.9 15.8001C76.7997 15.5781 76.6219 15.4003 76.4 15.3001L75.4 15.0001H74.6999V14.6001H81.5999V15.0001H81C80.6 15.0001 80.2 15.1001 80 15.3001C79.8621 15.35 79.7368 15.4296 79.6332 15.5333C79.5295 15.637 79.4499 15.7622 79.4 15.9001L79.3 17.4001V22.0001V22.0001ZM106.1 14.6001V18.3001H105.7C105.7 17.6001 105.5 17.0001 105.2 16.5001C104.9 16.1001 104.5 15.8001 104.2 15.7001C103.7 15.5001 103.1 15.5001 102.3 15.5001H98V27.6001C98 28.6001 98 29.3001 98.4 29.6001C98.6 29.9001 99.2999 30.0001 100.2 30.1001V30.5001H93.4V30.1001C94.4 30.1001 95 29.9001 95.3 29.6001C95.6 29.3001 95.6999 28.6001 95.6999 27.6001V17.5001C95.6999 16.5001 95.6 15.8001 95.3 15.5001C95 15.2001 94.4 15.1001 93.4 15.0001V14.6001H106.2H106.1ZM112.9 23.1001V27.7001C112.9 28.7001 112.9 29.3001 113.2 29.6001C113.5 29.9001 114 30.1001 114.6 30.1001H115.2V30.5001H108.4V30.1001H108.9C109.6 30.1001 110.1 29.8001 110.4 29.4001C110.5 29.2001 110.6 28.6001 110.6 27.7001V17.4001C110.6 16.4001 110.6 15.8001 110.3 15.6001C110 15.2001 109.6 15.0001 109 15.0001H108.4V14.6001H114.2C115.6 14.6001 116.7 14.8001 117.5 15.1001C118.4 15.3001 119.1 15.8001 119.6 16.5001C120.2 17.2001 120.5 18.1001 120.5 19.0001C120.5 20.3001 120 21.4001 119.2 22.2001C118.3 23.0001 117.2 23.4001 115.5 23.4001C114.624 23.4122 113.75 23.3113 112.9 23.1001V23.1001ZM112.9 22.4001C113.529 22.5015 114.163 22.5683 114.8 22.6001C115.6 22.6001 116.3 22.3001 116.8 21.6001C117.5 21.1001 117.8 20.2001 117.8 19.2001C117.8 18.6001 117.6 17.9001 117.4 17.3001C117.1 16.7001 116.7 16.3001 116.2 16.0001C115.7 15.7001 115.1 15.6001 114.4 15.6001C114 15.6001 113.5 15.6001 112.9 15.8001V22.4001ZM134.9 17.2001C134.9 16.2001 134.7 15.7001 134.4 15.4001C134.1 15.2001 133.4 15.0001 132.5 15.0001V14.6001H139.5V15.0001C138.5 15.0001 137.8 15.2001 137.5 15.5001C137.3 15.8001 137.1 16.5001 137.1 17.5001V27.6001C137.1 28.6001 137.3 29.3001 137.5 29.6001C137.8 29.9001 138.5 30.0001 139.5 30.1001V30.5001H132.5V30.1001C133.5 30.1001 134.2 29.9001 134.5 29.6001C134.7 29.3001 134.9 28.6001 134.9 27.6001V18.5001L127.5 27.9001L127.6 29.3001C127.7 29.5001 127.9 29.7001 128.2 29.8001C128.5 30.0001 129 30.1001 129.8 30.1001V30.5001H122.9V30.1001C123.9 30.1001 124.6 29.9001 124.9 29.6001C125.1 29.3001 125.2 28.6001 125.2 27.6001V17.5001C125.2 16.5001 125.2 15.8001 124.8 15.5001C124.6 15.2001 123.9 15.1001 122.9 15.0001V14.6001H129.8V15.0001C128.8 15.0001 128.2 15.2001 127.9 15.5001C127.6 15.8001 127.5 16.5001 127.5 17.5001V26.7001L134.9 17.2001V17.2001ZM143.9 14.6001H156.9V15.0001C156 15.0001 155.4 15.2001 155.1 15.5001C154.8 15.8001 154.7 16.5001 154.7 17.5001V26.3001C154.7 28.0001 154.7 29.1001 155 29.5001C155.2 29.9001 155.8 30.1001 156.9 30.1001V35.1001H156.5C156.341 34.0981 155.965 33.1427 155.4 32.3001C154.953 31.6645 154.326 31.177 153.6 30.9001C152.829 30.6277 152.017 30.4923 151.2 30.5001H147.2C145.4 30.5001 144.1 31.0001 143.2 31.9001C142.426 32.8043 141.939 33.9182 141.8 35.1001H141.4V30.1001C142.6 30.0001 143.6 29.2001 144.4 27.8001C145.269 26.2163 145.845 24.4886 146.1 22.7001C146.4 20.7001 146.5 18.9001 146.5 17.7001C146.5 16.9001 146.5 16.3001 146.2 15.9001C146 15.6001 145.8 15.3001 145.5 15.2001L144 15.0001V14.6001H143.9ZM147.7 15.5001C147.5 20.1001 147.1 23.4001 146.6 25.2001C146 27.1001 145.3 28.6001 144.4 29.6001H150.3C151.3 29.6001 151.9 29.6001 152.1 29.4001C152.4 29.2001 152.5 28.6001 152.5 27.6001V15.5001H147.7V15.5001ZM171 17.2001C171 16.2001 170.8 15.7001 170.5 15.4001C170.2 15.2001 169.6 15.0001 168.7 15.0001V14.6001H175.5V15.0001C174.5 15.0001 173.9 15.2001 173.7 15.5001C173.4 15.8001 173.2 16.5001 173.2 17.5001V27.6001C173.2 28.6001 173.4 29.3001 173.7 29.6001C173.9 29.9001 174.6 30.0001 175.5 30.1001V30.5001H168.7V30.1001C169.7 30.1001 170.3 29.9001 170.6 29.6001C170.9 29.3001 171 28.6001 171 27.6001V18.5001L163.6 27.9001L163.7 29.3001C163.8 29.5001 164 29.7001 164.3 29.8001C164.6 30.0001 165.2 30.1001 165.9 30.1001V30.5001H159.1V30.1001C160.1 30.1001 160.7 29.9001 161 29.6001C161.2 29.3001 161.4 28.6001 161.4 27.6001V17.5001C161.4 16.5001 161.2 15.8001 161 15.5001C160.7 15.2001 160 15.1001 159 15.0001V14.6001H166V15.0001C165 15.0001 164.3 15.2001 164 15.5001C163.8 15.8001 163.6 16.5001 163.6 17.5001V26.7001L171 17.2001V17.2001ZM182.2 15.5001V21.8001H185.7C186.6 21.8001 187.2 21.6001 187.5 21.3001C187.9 21.0001 188.1 20.3001 188.2 19.4001H188.6V25.0001H188.2C188.164 24.4893 188.064 23.9852 187.9 23.5001L187.2 22.8001L185.7 22.6001H182.2V28.0001C182.152 28.3986 182.152 28.8015 182.2 29.2001L182.6 29.6001L183.6 29.7001H186.2C187.2 29.7001 187.8 29.7001 188.2 29.5001C188.614 29.3502 188.989 29.1113 189.3 28.8001C189.906 28.1452 190.412 27.4037 190.8 26.6001H191.3L189.9 30.6001H177.7V30.2001H178.2C178.6 30.2001 179 30.1001 179.3 29.9001C179.6 29.8001 179.7 29.6001 179.8 29.3001L179.9 27.8001V17.4001C179.9 16.4001 179.9 15.7001 179.6 15.5001C179.4 15.2001 178.9 15.0001 178.2 15.0001H177.7V14.6001H189.9L190.1 18.1001H189.6C189.5 17.3001 189.3 16.7001 189.1 16.4001C188.9 16.1001 188.6 15.8001 188.2 15.7001C187.9 15.5001 187.3 15.5001 186.6 15.5001H182.2V15.5001ZM198 22.0001H205.4V17.4001C205.4 16.6001 205.4 16.1001 205.2 15.8001C205.1 15.5781 204.922 15.4003 204.7 15.3001C204.4 15.1001 204 15.0001 203.7 15.0001H203.1V14.6001H209.9V15.0001H209.3C209 15.0001 208.6 15.1001 208.3 15.3001C208.162 15.35 208.037 15.4296 207.933 15.5333C207.829 15.637 207.75 15.7622 207.7 15.9001V29.3001L208.3 29.8001C208.6 30.0001 209 30.1001 209.3 30.1001H209.9V30.5001H203V30.1001H203.6C204.2 30.1001 204.6 29.9001 205 29.5001C205.2 29.2001 205.3 28.6001 205.3 27.7001V22.8001H198V27.7001L198.1 29.3001L198.6 29.8001C199 30.0001 199.3 30.1001 199.7 30.1001H200.3V30.5001H193.5V30.1001H194C194.7 30.1001 195.2 29.9001 195.5 29.5001L195.7 27.7001V17.4001L195.6 15.8001C195.5 15.5781 195.322 15.4003 195.1 15.3001C194.8 15.1001 194.4 15.0001 194.1 15.0001H193.5V14.6001H200.3V15.0001H199.7C199.3 15.0001 199 15.1001 198.7 15.3001C198.562 15.35 198.437 15.4296 198.333 15.5333C198.229 15.637 198.15 15.7622 198.1 15.9001L198 17.4001V22.0001ZM225.5 14.6001L225.7 18.3001H225.2C225.2 17.7001 225 17.3001 224.9 16.9001C224.6 16.5001 224.3 16.1001 223.9 15.9001C223.5 15.7001 222.9 15.6001 222.3 15.6001H220.1V27.7001C220.1 28.7001 220.1 29.3001 220.4 29.6001C220.7 29.9001 221.1 30.1001 221.8 30.1001H222.3V30.5001H215.6V30.1001H216.1C216.8 30.1001 217.3 29.9001 217.6 29.5001L217.8 27.7001V15.7001H214.3C213.9 15.9001 213.6 16.2001 213.3 16.7001C213 17.0001 212.8 17.7001 212.8 18.3001H212.3L212.5 14.6001H225.5V14.6001ZM232.5 21.8001H233.1C235.1 21.8001 236.5 21.8001 237.4 22.1001C238.3 22.4001 239 22.9001 239.6 23.6001C240.2 24.2001 240.5 25.1001 240.5 26.1001C240.5 27.2001 240 28.3001 239.2 29.1001C238.2 30.1001 236.8 30.5001 234.6 30.5001H228V30.1001C229 30.1001 229.6 29.9001 229.9 29.6001C230.2 29.3001 230.3 28.6001 230.3 27.6001V17.5001C230.3 16.5001 230.2 15.8001 229.9 15.5001C229.6 15.2001 228.9 15.1001 228 15.0001V14.6001H234.8V15.0001C233.8 15.0001 233.2 15.2001 233 15.5001C232.7 15.8001 232.6 16.5001 232.6 17.5001V21.8001H232.5ZM232.5 29.6001L234.1 29.7001C235.058 29.6891 235.981 29.3342 236.7 28.7001C237.4 28.1001 237.8 27.2001 237.8 26.1001C237.8 24.9001 237.4 24.1001 236.6 23.5001C235.8 22.9001 234.8 22.6001 233.6 22.6001L232.5 22.7001V29.6001ZM247.9 30.1001V30.5001H241.1V30.1001H241.6C242.1 30.1001 242.4 30.0001 242.7 29.8001C243 29.7001 243.2 29.5001 243.3 29.2001L243.4 27.7001V17.4001L243.3 15.9001C243.25 15.7622 243.17 15.637 243.067 15.5333C242.963 15.4296 242.838 15.35 242.7 15.3001C242.4 15.1001 242 15.0001 241.5 15.0001H241.1V14.6001H247.9V15.0001H247.6C247.1 15.0001 246.7 15.1001 246.4 15.3001C246.1 15.3001 245.9 15.6001 245.8 15.9001L245.7 17.4001V27.7001C245.7 28.7001 245.7 29.3001 246 29.6001C246.3 29.9001 246.8 30.1001 247.6 30.1001H247.9V30.1001ZM60 47.3001V51.2001C60 52.0001 59.9999 52.5001 60.2999 52.7001C60.4999 53.0001 60.8999 53.1001 61.2999 53.1001H61.9V53.5001H56.2V53.1001H56.7C57.3 53.1001 57.7 53.0001 57.9 52.6001C58.1 52.4001 58.0999 51.9001 58.0999 51.2001V42.6001C58.0999 41.8001 58.1 41.3001 57.9 41.0001C57.6 40.8001 57.2 40.6001 56.7 40.6001H56.2V40.3001H61C62.2 40.3001 63.0999 40.3001 63.7999 40.6001C64.4999 40.9001 65 41.3001 65.5 41.9001C66 42.4001 66.1999 43.1001 66.1999 43.9001C66.1999 45.0001 65.8999 45.9001 65.1999 46.6001C64.3999 47.2001 63.4 47.6001 62.2 47.6001C61.4232 47.6057 60.6493 47.5047 59.9 47.3001H60ZM60 46.7001C60.5292 46.7964 61.0633 46.8632 61.5999 46.9001C62.2999 46.9001 62.8999 46.7001 63.2999 46.2001C63.7999 45.6001 64.0999 44.9001 64.0999 44.2001C64.0999 43.5001 64 43.0001 63.7 42.5001C63.5 42.0001 63.2 41.7001 62.7 41.5001C62.3 41.2001 61.7999 41.0001 61.2999 41.0001L60 41.2001V46.7001V46.7001ZM86.8 49.1001H81.6999L80.6999 51.1001L80.5 52.3001C80.5 52.5001 80.4999 52.7001 80.6999 52.8001C80.8999 53.0001 81.4 53.1001 82 53.1001V53.5001H77.8V53.1001C78.4 53.1001 78.8 52.9001 78.9 52.8001C79.2 52.4001 79.6 51.8001 80 50.8001L84.5999 40.0001H84.9L89.5 51.0001C89.9 51.9001 90.2 52.4001 90.5 52.7001C90.8 53.0001 91.2 53.1001 91.8 53.1001V53.5001H86.5999V53.1001C87.0999 53.1001 87.3999 53.1001 87.5999 52.9001L87.9 52.3001C87.8418 51.8471 87.7065 51.4074 87.5 51.0001L86.6999 49.0001L86.8 49.1001ZM86.5 48.3001L84.1999 43.0001L81.9 48.3001H86.4H86.5ZM105.8 43.8001V40.0001H106.1C106.3 40.4001 106.5 40.6001 106.9 40.6001L107.8 40.4001C108.5 40.1001 109.3 40.0001 110.1 40.0001C111.2 40.0001 112.1 40.3001 112.7 41.0001C113.4 41.6001 113.7 42.4001 113.7 43.2001C113.743 43.9637 113.492 44.7149 113 45.3001C112.5 45.9001 111.8 46.3001 111 46.6001C111.83 46.7404 112.585 47.1675 113.134 47.807C113.682 48.4465 113.988 49.2579 114 50.1001C114 51.1001 113.6 52.1001 112.7 52.8001C111.9 53.5001 110.8 53.8001 109.6 53.8001C107.7 53.8001 106.3 52.9001 105.2 51.1001L105.6 50.9001C105.966 51.4806 106.466 51.965 107.057 52.313C107.649 52.6609 108.315 52.8622 109 52.9001C110 52.9001 110.6 52.6001 111 52.1001C111.5 51.5001 111.8 50.8001 111.8 49.9001C111.781 49.5011 111.683 49.1098 111.512 48.7492C111.34 48.3886 111.098 48.0659 110.8 47.8001C110.3 47.2001 109.3 46.8001 107.8 46.8001V46.2001C108.8 46.2001 109.6 46.2001 110.1 45.9001C110.6 45.7001 111.1 45.4001 111.3 44.9001C111.6 44.4001 111.8 43.9001 111.8 43.3001C111.8 42.5001 111.6 42.0001 111.1 41.5001C110.7 41.1001 110.1 40.8001 109.4 40.8001C108.4 40.8001 107.7 41.1001 107.2 41.7001C106.7 42.2001 106.3 42.9001 106.2 43.8001H105.8V43.8001ZM137.3 46.8001C138.2 46.9001 138.9 47.3001 139.3 47.7001C139.61 47.9774 139.859 48.3162 140.031 48.695C140.203 49.0737 140.295 49.4841 140.3 49.9001C140.3 50.5001 140.1 51.2001 139.7 51.8001C139.2 52.4001 138.7 52.8001 137.9 53.1001C137.2 53.4001 136.1 53.5001 134.6 53.5001H128.4V53.1001H128.9C129.4 53.1001 129.9 53.0001 130.1 52.6001L130.3 51.2001V42.6001C130.3 41.8001 130.2 41.3001 130 41.0001C129.7 40.8001 129.4 40.6001 128.9 40.6001H128.4V40.3001H134.1C135.1 40.3001 136.1 40.3001 136.7 40.5001C137.7 40.7001 138.4 41.1001 138.9 41.7001C139.393 42.2193 139.685 42.8978 139.721 43.6131C139.758 44.3284 139.538 45.0332 139.1 45.6001C138.7 46.1001 138.1 46.5001 137.3 46.7001V46.8001ZM132.2 46.2001C132.791 46.333 133.394 46.4001 134 46.4001C135 46.4001 135.7 46.3001 136.1 46.0001C136.6 45.8001 137 45.5001 137.2 45.1001C137.5 44.7001 137.6 44.2001 137.6 43.7001C137.6 42.9001 137.3 42.3001 136.6 41.7001C136 41.2001 135.1 40.9001 133.9 40.9001C133.3 40.9001 132.7 40.9001 132.2 41.1001V46.2001V46.2001ZM132.2 52.5001C132.9 52.7001 133.7 52.8001 134.4 52.8001C135.6 52.8001 136.4 52.5001 137.1 52.0001C137.7 51.5001 138.1 50.8001 138.1 50.0001C138.1 49.5001 137.9 49.0001 137.6 48.6001C137.3 48.1001 136.9 47.7001 136.2 47.4001C135.6 47.2001 134.8 47.0001 133.9 47.0001C133.332 47.0127 132.765 47.0461 132.2 47.1001V52.5001V52.5001ZM164.9 42.5001C164.9 41.7001 164.7 41.1001 164.5 40.9001C164.2 40.7001 163.7 40.6001 162.9 40.6001V40.3001H168.7V40.6001C167.8 40.6001 167.3 40.8001 167.1 41.0001C166.9 41.2001 166.7 41.8001 166.7 42.7001V51.0001C166.7 51.9001 166.9 52.4001 167.1 52.6001C167.3 52.9001 167.8 53.0001 168.7 53.0001V53.4001H162.9V53.0001C163.8 53.0001 164.3 52.9001 164.5 52.6001C164.7 52.4001 164.9 51.9001 164.9 51.0001V43.4001L158.7 51.3001L158.8 52.4001L159.3 52.9001L160.6 53.0001V53.4001H154.9V53.0001C155.8 53.0001 156.3 52.9001 156.5 52.6001C156.7 52.4001 156.8 51.9001 156.8 51.0001V42.6001C156.8 41.7001 156.8 41.1001 156.5 40.9001C156.3 40.7001 155.8 40.5001 154.9 40.5001V40.2001H160.6V40.5001C159.8 40.5001 159.3 40.7001 159.1 40.9001C158.8 41.1001 158.7 41.7001 158.7 42.6001V50.2001L164.9 42.3001V42.5001ZM193.8 40.3001L193.9 43.3001H193.6L193.3 42.2001C193.116 41.862 192.838 41.5842 192.5 41.4001C192.1 41.2001 191.7 41.1001 191.1 41.1001H189.3V51.2001C189.3 52.0001 189.3 52.5001 189.5 52.7001C189.8 53.0001 190.2 53.1001 190.7 53.1001H191.1V53.5001H185.5V53.1001H186C186.6 53.1001 187 53.0001 187.2 52.6001L187.4 51.2001V41.1001H185.8L184.5 41.2001C184.2 41.3001 183.9 41.6001 183.6 41.9001C183.4 42.3001 183.2 42.8001 183.2 43.4001H182.8L183 40.3001H193.8V40.3001ZM217.9 42.4001C217.9 41.7001 217.9 41.1001 217.6 40.9001C217.3 40.7001 216.8 40.6001 216 40.6001V40.3001H221.7V40.6001C220.9 40.6001 220.4 40.8001 220.2 41.0001C219.9 41.2001 219.8 41.8001 219.8 42.7001V51.0001C219.8 51.9001 219.9 52.4001 220.2 52.6001C220.4 52.9001 220.9 53.0001 221.7 53.0001V53.4001H216V53.0001C216.8 53.0001 217.4 52.9001 217.6 52.6001C217.8 52.4001 217.9 51.9001 217.9 51.0001V43.4001L211.8 51.3001L211.9 52.4001C211.9 52.6001 212.1 52.7001 212.4 52.9001L213.7 53.0001V53.4001H208V53.0001C208.8 53.0001 209.4 52.9001 209.6 52.6001C209.8 52.4001 209.9 51.9001 209.9 51.0001V42.6001C209.9 41.7001 209.9 41.1001 209.6 40.9001C209.4 40.7001 208.8 40.5001 208 40.5001V40.2001H213.7V40.5001C212.9 40.5001 212.4 40.7001 212.1 40.9001C211.9 41.1001 211.8 41.7001 211.8 42.6001V50.2001L217.9 42.3001V42.4001ZM239.5 41.0001V46.2001H242.4C243.1 46.2001 243.7 46.1001 243.9 45.9001C244.2 45.6001 244.4 45.0001 244.5 44.3001H244.8V48.9001H244.5L244.2 47.7001C244.1 47.4001 243.9 47.3001 243.6 47.1001C243.218 46.9522 242.809 46.8841 242.4 46.9001H239.4V51.3001C239.4 51.9001 239.5 52.3001 239.6 52.3001L239.8 52.7001H242.8C243.364 52.7808 243.936 52.7808 244.5 52.7001L245.5 52.0001L246.7 50.2001H247.1L245.9 53.5001H235.7V53.1001H236.2C236.5 53.1001 236.8 53.1001 237.1 52.9001C237.3 52.9001 237.4 52.7001 237.5 52.4001L237.6 51.2001V42.6001C237.6 41.7001 237.6 41.2001 237.4 41.0001C237.1 40.7001 236.7 40.6001 236.2 40.6001H235.7V40.3001H245.9L246.1 43.2001H245.7L245.2 41.7001L244.5 41.1001L243.1 41.0001H239.5V41.0001Z" fill="#CAD5DD"/>
</svg>
