<svg width="183" height="132" fill="none" xmlns="http://www.w3.org/2000/svg"><path d="M38.6 32.9 34 11.3 42 9l32 50M138.4 58 150 11.3 141.9 9 128 29.5" stroke="#DA802D" stroke-width="5"/><path d="M70 35.5h10.3L87.2 3h10.3l5.7 32.5L133 39" stroke="#DA802D" stroke-width="5"/><path d="M32 96a93.2 93.2 0 0 0-5.3.2l-.1-.4v-.4c0-.4.1-.6.4-.7l1.3-.2.8-.4.3-.4V72.4a1 1 0 0 0-.3-.5c-.2-.2-.4-.3-.8-.3l-1.3-.3c-.3-.1-.4-.3-.4-.7v-.8a394.6 394.6 0 0 0 5.4.2 97.5 97.5 0 0 0 5.3-.2v.4l.1.4c0 .4-.1.6-.4.7-.6 0-1 .2-1.4.3-.3 0-.5.1-.7.3a1 1 0 0 0-.3.5V94h7.8V72.4a1 1 0 0 0-.4-.5c-.2-.2-.4-.3-.8-.3l-1.3-.3c-.2-.1-.4-.3-.4-.7v-.4l.1-.4a394.6 394.6 0 0 0 5.3.2 97.5 97.5 0 0 0 5.3-.2v.4l.1.4c0 .4-.1.6-.4.7-.5 0-1 .2-1.3.3-.4 0-.6.1-.8.3a1 1 0 0 0-.3.5V94h7.8V72.4a1 1 0 0 0-.4-.5c-.1-.2-.4-.3-.7-.3l-1.4-.3c-.2-.1-.4-.3-.4-.7v-.4l.1-.4a329.6 329.6 0 0 0 8 .2l2.7-.2v.8c0 .4 0 .6-.3.7-.6 0-1 .2-1.4.3-.3 0-.6.1-.7.3a1 1 0 0 0-.4.5v21.3l.4.4.7.4 1.4.2c.2.1.4.3.4.7v.4l-.1.4a394.6 394.6 0 0 0-5.3-.2H32Zm47.6-24v9.6h5.6c.5 0 .9-.2 1-.6.3-.4.4-1 .6-2 0-.2 0-.3.2-.4l.5-.1h.8a98 98 0 0 0-.2 6l.2 2.2-.4.1h-.4c-.4 0-.7-.2-.7-.6-.2-1-.4-1.7-.6-2-.2-.4-.5-.6-1-.6h-5.6v9c0 .6.3 1 1 1.1.7.2 1.9.3 3.6.3h1.6a4.8 4.8 0 0 0 3.5-1.2 7 7 0 0 0 1.1-1.4l1-1.7c0-.2.3-.3.6-.3l.4.1.6.3-.4 1.1a5 5 0 0 0-.3 1l-.2.8a32.7 32.7 0 0 1-.7 3.2c-.2.2-.4.3-.7.3h-.9a120.2 120.2 0 0 0-4-.2h-9a103.1 103.1 0 0 0-5.4.2v-.8c0-.4 0-.6.3-.6l2.2-.6c.4-.3.7-.6.7-1.2V73c0-.5-.2-.9-.6-1-.4-.3-1.2-.5-2.3-.7-.2-.1-.4-.3-.4-.7v-.4l.1-.4a78.4 78.4 0 0 0 5.3.2H85a33.7 33.7 0 0 0 4.9-.2c.3 0 .5 0 .6.3l.2 1.2a15 15 0 0 0 .6 3.1l.5 1.6a8 8 0 0 1-.5.1l-.4.1c-.4 0-.6-.1-.7-.4a13 13 0 0 0-1-1.7c-.2-.5-.6-1-1-1.2-.4-.3-.8-.6-1.3-.7l-1.9-.2h-5.3Zm29.1 13v7.8c0 .6.3 1 .8 1.3l2.6.6c.4 0 .6.3.6.8v.7a129.2 129.2 0 0 0-12.1-.4v-.3c0-.4.1-.7.4-.7l2.2-.6c.3-.3.5-.6.5-1.2V73c0-.5-.2-1-.6-1.2a6 6 0 0 0-2.2-.5.7.7 0 0 1-.4-.3v-1.2a163.6 163.6 0 0 0 5.2.2h6c3 0 5.1.6 6.7 2 1.6 1.2 2.4 3 2.4 5.3a7 7 0 0 1-2.4 5.5 9 9 0 0 1-2.8 1.6c-1.1.5-2.4.7-3.9.7h-3Zm1.2-2c1.6 0 3-.3 4-1.2 1-.8 1.4-2.2 1.4-4.2 0-1.7-.4-3.1-1.2-4.1-.7-1-2.1-1.5-4.2-1.5h-1.2v11h1.2Zm26.7 10v.7l.4.5.7.3 1.4.3c.3 0 .4.2.4.6v.8a328 328 0 0 0-8-.2l-2.7.2-.1-.4v-.4c0-.4.1-.6.4-.6l1.3-.3c.4 0 .6-.2.8-.3l.3-.5V72.4a1 1 0 0 0-.3-.5c-.2-.2-.4-.3-.8-.3l-1.3-.3c-.3-.1-.4-.3-.4-.7v-.8a397.2 397.2 0 0 0 5.4.2h15.4a93.1 93.1 0 0 0 5.2-.2v.4l.1.4c0 .4-.1.6-.4.7-.5 0-1 .2-1.3.3-.4 0-.6.1-.8.3a1 1 0 0 0-.3.5v21.3c0 .2.1.3.3.5l.8.3 1.3.3c.3 0 .4.2.4.6v.8a393.5 393.5 0 0 0-5.3-.2 98.7 98.7 0 0 0-5.4.2v-.8c0-.4 0-.6.3-.6l1.3-.3c.4 0 .6-.2.8-.3.2-.2.3-.3.3-.5V72h-10.2v21Z" fill="#DA802D"/><path d="m152 44 29 13M51 39c-21.7 5.6-29.6 9-49 19M26 107l38.1 21m0 0L78 107m-13.9 21-4.6-21M157 107l-38.1 21m0 0L105 107m13.9 21 4.6-21M83 59l4.9-9h8.5l3.6 9M118 45l-9 14M43 48l4 12" stroke="#DA802D" stroke-width="5"/></svg>