<svg width="239" height="101" fill="none" xmlns="http://www.w3.org/2000/svg"><path d="m1 69 4.3-.4c.3 1.4.8 2.5 1.5 3.1.8.7 1.9 1 3.2 1 1.4 0 2.4-.3 3.1-.9.8-.6 1.1-1.2 1.1-2 0-.5-.1-1-.4-1.3-.3-.4-.9-.7-1.6-1l-3.5-.9c-2.3-.6-4-1.3-4.9-2.1a5.6 5.6 0 0 1-1-7.4c.6-1 1.5-1.7 2.7-2.2 1.1-.5 2.5-.7 4.2-.7 2.7 0 4.7.5 6 1.7 1.4 1.2 2.2 2.8 2.2 4.8l-4.3.2c-.2-1.1-.6-2-1.2-2.4-.6-.5-1.5-.8-2.7-.8a5 5 0 0 0-3 .8c-.5.4-.7.8-.7 1.4 0 .5.2.9.7 1.3.5.4 1.8.9 4 1.4 2 .5 3.6 1 4.6 1.5a5.9 5.9 0 0 1 3.2 5.6 6.3 6.3 0 0 1-3.9 5.9c-1.2.5-2.8.8-4.7.8-2.7 0-4.8-.6-6.2-1.9A8.2 8.2 0 0 1 1 69Zm28.3-8.6v3.3h-2.8v8.5l.4.5c.2.2.5.2.7.2.4 0 1 0 1.7-.4l.3 3.2c-1 .4-2 .7-3.2.7-.8 0-1.4-.2-2-.4a3 3 0 0 1-1.3-1 4 4 0 0 1-.6-1.6l-.1-2.9v-6.8h-2v-3.3h2v-3l4-2.4v5.4h2.9ZM41.2 71l4 .7a6.8 6.8 0 0 1-2.4 3.5 7.3 7.3 0 0 1-4.3 1.2c-2.7 0-4.7-1-6-2.7a9 9 0 0 1-1.5-5.4c0-2.5.6-4.6 2-6 1.3-1.5 3-2.2 5-2.2 2.4 0 4.2.8 5.6 2.3 1.3 1.5 2 3.9 1.9 7H35.2c0 1.2.3 2.2 1 2.9.6.6 1.4 1 2.3 1 .7 0 1.2-.2 1.7-.6.4-.3.7-.9 1-1.7Zm.2-4.1c0-1.2-.3-2.1-1-2.7-.5-.6-1.2-1-2-1-1 0-1.7.4-2.3 1-.6.7-.9 1.6-.9 2.7h6.2ZM52.8 76h-4.1V60.4h3.8v2.3c.7-1 1.2-1.8 1.8-2.1.5-.3 1-.5 1.7-.5 1 0 1.9.3 2.8.8l-1.3 3.6c-.7-.5-1.4-.7-2-.7-.5 0-1 .1-1.4.5-.4.3-.7.9-1 1.7a25 25 0 0 0-.3 5.2V76Zm21.9 0h-4.1v-8c0-1.6-.1-2.7-.3-3.2a2.3 2.3 0 0 0-2.3-1.6c-.7 0-1.3.2-1.9.6-.6.4-1 1-1.2 1.6-.2.6-.3 1.8-.3 3.6v7h-4V60.4h3.7v2.3c1.4-1.7 3.1-2.6 5.2-2.6.9 0 1.7.2 2.5.5a4 4 0 0 1 2.5 3l.2 2.7V76Z" fill="#E94A51"/><path d="M78.8 76V54.5H83V76h-4.3Zm22.6 0h-4.1v-8c0-1.6-.1-2.7-.3-3.2a2.3 2.3 0 0 0-2.3-1.6c-.7 0-1.3.2-1.9.6-.6.4-1 1-1.2 1.6-.2.6-.3 1.8-.3 3.6v7h-4.1V60.4H91v2.3c1.4-1.7 3-2.6 5.2-2.6.9 0 1.7.2 2.4.5a4 4 0 0 1 2.5 3c.2.6.3 1.5.3 2.7V76Zm3.8 1 4.7.6c0 .5.3 1 .5 1.1.4.3 1 .5 1.9.5 1 0 1.9-.2 2.4-.5.4-.2.6-.6.8-1l.2-2v-2.2A5.6 5.6 0 0 1 111 76c-2 0-3.7-.9-5-2.7a9 9 0 0 1-1.4-5.2c0-2.6.7-4.6 2-6 1.2-1.3 2.7-2 4.6-2 2 0 3.5.8 4.8 2.5v-2.2h3.8v14c0 1.8-.1 3.2-.4 4.1-.3 1-.8 1.6-1.3 2.2-.6.5-1.3.9-2.2 1.2-1 .3-2 .4-3.5.4-2.6 0-4.5-.4-5.6-1.3-1-1-1.6-2-1.6-3.5V77Zm3.7-9.1c0 1.6.3 2.9 1 3.6a3 3 0 0 0 2.3 1.2c1 0 1.8-.4 2.5-1.2.7-.8 1-2 1-3.5 0-1.6-.3-2.8-1-3.6a3.2 3.2 0 0 0-2.4-1.2 3 3 0 0 0-2.5 1.2c-.6.8-1 2-1 3.5Zm19 8.1h-4.2V60.4h3.9v2.3c.6-1 1.2-1.8 1.7-2.1.5-.3 1.1-.5 1.8-.5 1 0 1.8.3 2.7.8l-1.3 3.6c-.7-.5-1.3-.7-1.9-.7-.6 0-1 .1-1.5.5-.4.3-.7.9-1 1.7a25 25 0 0 0-.2 5.2V76Zm16.7-5 4.1.7a6.7 6.7 0 0 1-2.5 3.5 7.3 7.3 0 0 1-4.3 1.2c-2.7 0-4.7-1-6-2.7a8.9 8.9 0 0 1-1.5-5.4c0-2.5.7-4.6 2-6 1.4-1.5 3-2.2 5.1-2.2 2.3 0 4.2.8 5.5 2.3 1.3 1.5 2 3.9 2 7h-10.4c0 1.2.4 2.2 1 2.9.6.6 1.4 1 2.4 1 .6 0 1.2-.2 1.6-.6.5-.3.8-.9 1-1.7Zm.2-4.1c0-1.2-.3-2.1-.9-2.7-.6-.6-1.3-1-2.1-1-1 0-1.7.4-2.2 1-.6.7-1 1.6-1 2.7h6.2Zm21.8 9.1h-3.9v-2.3a5.8 5.8 0 0 1-4.9 2.6 6 6 0 0 1-4.5-2.1 8.8 8.8 0 0 1-2-6c0-2.7.7-4.7 2-6a6 6 0 0 1 9.2 0v-7.7h4V76Zm-11-8.1c0 1.6.2 2.8.7 3.6.6 1 1.6 1.6 2.8 1.6a3 3 0 0 0 2.4-1.2c.6-.8 1-2 1-3.6 0-1.8-.4-3-1-3.9a3 3 0 0 0-2.5-1.2c-1 0-1.8.4-2.4 1.2-.7.8-1 2-1 3.5Zm15-9.6v-3.8h4.2v3.8h-4.2Zm0 17.7V60.4h4.2V76h-4.2Zm17.4-5 4.1.7a6.8 6.8 0 0 1-2.5 3.5 7.3 7.3 0 0 1-4.3 1.2c-2.7 0-4.7-1-6-2.7a9 9 0 0 1-1.5-5.4c0-2.5.7-4.6 2-6 1.4-1.5 3-2.2 5.1-2.2 2.3 0 4.2.8 5.5 2.3 1.3 1.5 2 3.9 2 7H182c0 1.2.4 2.2 1 2.9.6.6 1.4 1 2.4 1 .6 0 1.2-.2 1.6-.6.4-.3.8-.9 1-1.7Zm.2-4.1c0-1.2-.3-2.1-.9-2.7-.6-.6-1.3-1-2.1-1-1 0-1.7.4-2.3 1-.5.7-.8 1.6-.8 2.7h6.1Zm21.6 9.1h-4v-8c0-1.6-.2-2.7-.3-3.2a2.3 2.3 0 0 0-2.3-1.6c-.7 0-1.4.2-2 .6-.5.4-.9 1-1.1 1.6-.2.6-.3 1.8-.3 3.6v7h-4.1V60.4h3.8v2.3c1.3-1.7 3-2.6 5.1-2.6 1 0 1.7.2 2.5.5a4 4 0 0 1 2.5 3c.2.6.2 1.5.2 2.7V76Zm11.4-15.6v3.3h-2.8v8.5c0 .2.2.4.4.5.2.2.4.2.7.2.4 0 1 0 1.6-.4l.4 3.2c-1 .4-2 .7-3.3.7-.7 0-1.4-.2-2-.4a3 3 0 0 1-1.3-1 4 4 0 0 1-.5-1.6c-.1-.5-.2-1.4-.2-2.9v-6.8h-1.9v-3.3h2v-3l4-2.4v5.4h2.9Zm1.4 11.2 4.1-.7a3 3 0 0 0 1 1.9c.6.4 1.4.6 2.3.6a4 4 0 0 0 2.4-.6c.4-.3.6-.6.6-1.1a1 1 0 0 0-.3-.8c-.2-.2-.7-.4-1.4-.5-3.3-.8-5.4-1.4-6.3-2a4 4 0 0 1-1.9-3.5c0-1.4.6-2.5 1.6-3.4 1.1-1 2.8-1.4 5-1.4 2.1 0 3.7.3 4.7 1s1.8 1.8 2.2 3.1l-4 .7c0-.6-.4-1-.9-1.4-.4-.3-1-.4-2-.4s-1.8.1-2.3.4a1 1 0 0 0-.4.8c0 .3.1.6.4.8.3.3 1.6.6 3.8 1.1 2.2.5 3.7 1.2 4.6 1.9.9.7 1.3 1.7 1.3 3 0 1.5-.6 2.7-1.8 3.7-1.2 1-3 1.6-5.3 1.6-2 0-3.8-.5-5-1.3a6 6 0 0 1-2.4-3.5ZM191.3 98V86.5h5c1 0 1.8.2 2.4.4.5.2 1 .5 1.2 1 .4.6.5 1.1.5 1.8 0 .8-.2 1.5-.8 2a4 4 0 0 1-2.4 1l.9.7 1.3 1.5 2 3.1h-2l-1.5-2.4a22 22 0 0 0-1-1.6l-.8-.7-.7-.3h-2.6v5h-1.5Zm1.5-6.4h3.2a5 5 0 0 0 1.7-.2l.8-.7c.3-.3.4-.7.4-1 0-.6-.2-1-.6-1.4-.4-.3-1-.5-1.9-.5h-3.6v3.8ZM208 98v-1.2a3 3 0 0 1-2.7 1.4c-.5 0-1-.1-1.4-.3-.4-.2-.7-.4-.9-.7l-.4-1-.1-1.4v-5.1h1.4v6.1l.6.9c.3.2.7.3 1.1.3l1.2-.3c.4-.3.6-.6.8-1l.2-1.6v-4.4h1.4V98h-1.2Zm2.9-2.5 1.4-.2c0 .6.2 1 .6 1.3.4.3.9.4 1.5.4s1.1-.1 1.4-.4c.3-.2.5-.5.5-.9 0-.3-.1-.6-.4-.7-.2-.2-.7-.3-1.4-.5l-2.2-.7c-.4-.2-.7-.4-.9-.8-.2-.3-.3-.7-.3-1 0-.5 0-.8.2-1.1l.7-.8 1-.4 1.2-.2c.6 0 1.2.1 1.7.3.5.2.8.4 1 .8.3.3.5.7.5 1.2l-1.3.2c-.1-.4-.3-.7-.6-1a2 2 0 0 0-1.2-.3c-.7 0-1.2 0-1.4.3-.3.2-.4.5-.4.7l.1.5c.1.2.3.3.6.4l1.2.4 2 .6c.5.2.8.4 1 .8.2.3.4.7.4 1.2 0 .4-.2.9-.5 1.3-.2.4-.6.7-1.1 1-.6.2-1.1.3-1.8.3a4 4 0 0 1-2.5-.7c-.5-.4-.9-1.1-1-2Zm8 0 1.4-.2c0 .6.2 1 .6 1.3.4.3.9.4 1.5.4s1.1-.1 1.4-.4c.3-.2.5-.5.5-.9 0-.3-.1-.6-.4-.7-.2-.2-.7-.3-1.4-.5l-2.2-.7c-.4-.2-.7-.4-.9-.8-.2-.3-.3-.7-.3-1 0-.5 0-.8.2-1.1l.7-.8 1-.4 1.2-.2c.6 0 1.2.1 1.7.3.5.2.8.4 1 .8.3.3.5.7.5 1.2l-1.3.2c-.1-.4-.3-.7-.6-1a2 2 0 0 0-1.2-.3c-.7 0-1.2 0-1.4.3-.3.2-.4.5-.4.7l.1.5c.1.2.3.3.6.4l1.2.4 2 .6c.5.2.8.4 1 .8.2.3.4.7.4 1.2 0 .4-.2.9-.5 1.3-.2.4-.6.7-1.1 1-.6.2-1.1.3-1.8.3a4 4 0 0 1-2.5-.7c-.5-.4-.9-1.1-1-2Zm8.5-7.3v-1.7h1.4v1.7h-1.4Zm0 9.8v-8.3h1.4V98h-1.4Zm9-1-1.5 1-1.6.2c-.9 0-1.6-.2-2-.7-.5-.4-.8-1-.8-1.7a2.3 2.3 0 0 1 1-2l1-.4 1.3-.2c1.1-.1 2-.3 2.5-.5v-.3c0-.6-.1-1-.4-1.2-.4-.4-.9-.5-1.6-.5-.7 0-1.2.1-1.5.3-.3.3-.5.7-.7 1.3L231 92c0-.6.3-1 .6-1.5.3-.3.7-.6 1.2-.8.6-.2 1.2-.3 1.9-.3a5 5 0 0 1 1.7.3c.5.1.8.3 1 .6.2.2.4.6.4 1l.1 1.2V97l.4 1h-1.4a3 3 0 0 1-.3-1Zm-.1-3.2-2.3.6-1.2.2a1.2 1.2 0 0 0-.8 1.2c0 .3.2.7.4 1 .3.2.7.3 1.3.3.5 0 1-.1 1.4-.4.4-.2.8-.5 1-1l.2-1.3v-.6Z" fill="#2483B0"/><ellipse rx="21.7" ry="17.1" transform="matrix(.87579 .4827 -.22082 .97532 35.2 27.7)" fill="#348AB5"/><path d="M41.4 26c-2 9.2 1-.7-9.5-6.4-10.5-5.8-6.5-2-10-10 0-.3 9-5.5 22.5 5-3.5 7-.9 2.3-3 11.5Z" fill="#E1021E"/><path d="M21.4 9 34 16l11-1.4v13l10 10H43l-4.5 10-7.5-13-12.5-5 7-7.5-4-13Z" fill="#fff"/></svg>