<svg width="133" height="91" viewBox="0 0 133 91" fill="none" xmlns="http://www.w3.org/2000/svg">
<path opacity="0.2" d="M102.391 52.7614C97.9722 54.5603 88.6563 58.647 78.1362 64.2002L37.419 64.953L34.1445 67.1333L64.5804 69.9881C61.923 71.4155 50.0791 79.5693 50.0791 79.5693L35.2095 79.3347C35.0801 79.3347 34.9607 79.3542 34.8512 79.4129C34.1246 79.7355 34.2142 80.7914 35.0005 80.9771L44.4955 83.2942C44.1969 83.7049 44.0875 84.1057 44.2168 84.5163C44.386 85.0247 45.6102 85.1029 47.5112 84.8683L52.7862 87.7916C53.2938 88.0751 53.9109 88.1044 54.4384 87.86C55.155 87.5374 55.583 86.8041 55.5034 86.0415L55.2147 83.2747L80.923 74.0748L94.2797 89.9131C94.857 90.5975 95.8821 90.7344 96.6286 90.226C97.176 89.8447 97.4646 89.1994 97.3551 88.5444C96.6684 84.3501 94.1802 69.1375 94.0209 67.7883C93.9911 67.5243 93.9512 67.3092 93.8915 67.1333C97.4546 65.217 100.401 63.5354 102.003 62.5088C105.616 60.1918 111.309 56.6135 110.413 54.3453C109.368 51.686 105.596 51.4611 102.391 52.7614Z" fill="#004080"/>
<path d="M1.99646 53.3382L0.234801 54.2279C-0.113549 54.4039 -0.0637825 54.9123 0.314426 55.01L22.2704 61.0814L35.7167 53.2502L4.85292 52.6929C3.86759 52.6734 2.88226 52.8983 1.99646 53.3382Z" fill="#004080"/>
<path d="M22.5789 60.8858L0.622962 54.8144C0.30447 54.7264 0.214903 54.3451 0.41396 54.13L0.234801 54.218C-0.113549 54.394 -0.0637825 54.9024 0.314426 55.0002L22.2704 61.0715L35.7167 53.2404H35.6968L22.5789 60.8858Z" fill="white"/>
<path d="M27.1593 58.0507L27.2588 58.1876L35.7287 53.2601L4.86494 52.7028C3.86965 52.6833 2.89426 52.9081 2.00846 53.3481L0.157227 54.2769L27.1593 58.0507Z" fill="#004080"/>
<path d="M39.4792 32.1813C39.4792 32.1813 36.792 34.7232 37.0905 35.0165C37.3891 35.3098 42.465 32.7679 42.465 32.7679L39.4792 32.1813Z" fill="#004080"/>
<path d="M84.3064 44.9399C84.3064 44.9399 81.6191 47.4819 81.9177 47.7752C82.2163 48.0685 87.2922 45.5265 87.2922 45.5265L84.3064 44.9399Z" fill="#004080"/>
<path d="M86.8259 47.9707C86.8259 47.9707 84.1386 50.5127 84.4372 50.806C84.7358 51.0993 89.8118 48.5573 89.8118 48.5573L86.8259 47.9707Z" fill="#004080"/>
<path d="M92.6667 54.6582C92.6667 54.6582 89.9795 57.2002 90.278 57.4935C90.5766 57.7868 95.6526 55.2448 95.6526 55.2448L92.6667 54.6582Z" fill="#004080"/>
<path d="M95.4929 58.246C95.4929 58.246 92.8056 60.7879 93.1042 61.0812C93.4028 61.3745 98.4788 58.8326 98.4788 58.8326L95.4929 58.246Z" fill="#004080"/>
<path d="M53.4919 34.2344C53.4919 34.2344 50.8047 36.7763 51.1032 37.0696C51.4018 37.3629 56.4778 34.821 56.4778 34.821L53.4919 34.2344Z" fill="#004080"/>
<path d="M30.1413 30.9397C30.1413 30.9397 27.4541 33.4817 27.7527 33.775C28.0512 34.0683 33.1272 31.5263 33.1272 31.5263L30.1413 30.9397Z" fill="#004080"/>
<path d="M3.89689 27.5374L5.99694 25.9536C6.92256 25.2496 8.05717 24.8586 9.22166 24.839L87.0132 23.2161L65.4951 36.7178L4.40448 29.395C3.47886 29.2777 3.15042 28.1045 3.89689 27.5374Z" fill="#004080"/>
<path d="M65.6255 36.3756L4.53494 29.0528C3.89796 28.9746 3.5496 28.4075 3.62923 27.8698C3.29083 28.4662 3.63919 29.2972 4.41551 29.395L65.5061 36.7178L87.0242 23.2161L86.5763 23.2258L65.6255 36.3756Z" fill="white"/>
<path d="M76.2339 29.9818L87.0228 23.2065L9.23133 24.8295C8.05689 24.8588 6.93222 25.2401 6.0066 25.944L4.51367 27.0684L76.2339 29.9818Z" fill="#004080"/>
<path d="M58.3887 36.092L58.1299 35.7889L62.0912 32.5235L3.87695 27.7329L3.90681 27.3418L62.5988 32.1715C62.6784 32.1813 62.7481 32.2302 62.768 32.3084C62.7879 32.3866 62.768 32.4648 62.7082 32.5137L58.3887 36.092Z" fill="white"/>
<path d="M27.3856 54.1986C27.3856 54.1986 44.6537 42.9749 48.2368 40.7556C51.8198 38.5362 112.522 1.35519 118.365 0.309076C124.207 -0.737037 124.077 1.21831 126.735 1.09122C129.392 0.964119 132.547 2.02978 132.308 4.99214C132 8.70731 125.58 14.4463 117.578 20.1364C109.268 26.0415 80.1854 43.5517 64.45 50.5323C46.5149 58.4906 20.1399 66.2534 19.0749 62.5968C18.2687 59.8691 22.3395 57.4543 27.3856 54.1986Z" fill="#004080"/>
<path d="M27.3856 54.1986C27.3856 54.1986 44.6537 42.9749 48.2368 40.7556C51.8198 38.5362 112.522 1.35519 118.365 0.309076C124.207 -0.737037 124.077 1.21831 126.735 1.09122C129.392 0.964119 132.547 2.02978 132.308 4.99214C132 8.70731 125.58 14.4463 117.578 20.1364C109.268 26.0415 80.1854 43.5517 64.45 50.5323C46.5149 58.4906 20.1399 66.2534 19.0749 62.5968C18.2687 59.8691 22.3395 57.4543 27.3856 54.1986Z" fill="#004080"/>
<path d="M27.3856 54.1986C27.3856 54.1986 44.6537 42.9749 48.2368 40.7556C51.8198 38.5362 112.522 1.35519 118.365 0.309076C124.207 -0.737037 124.077 1.21831 126.735 1.09122C129.392 0.964119 132.547 2.02978 132.308 4.99214C132 8.70731 125.58 14.4463 117.578 20.1364C109.268 26.0415 80.1854 43.5517 64.45 50.5323C46.5149 58.4906 20.1399 66.2534 19.0749 62.5968C18.2687 59.8691 22.3395 57.4543 27.3856 54.1986Z" fill="url(#paint0_linear)"/>
<path d="M68.291 48.3623C68.291 48.3623 78.7713 46.4265 93.6409 37.0017C108.361 27.6746 108.441 25.074 108.441 25.074C108.441 25.074 105.196 24.1256 91.8793 33.0616C80.6823 40.5702 68.291 48.3623 68.291 48.3623Z" fill="#004080"/>
<path d="M68.291 48.3623C68.291 48.3623 78.7713 46.4265 93.6409 37.0017C108.361 27.6746 108.441 25.074 108.441 25.074C108.441 25.074 105.196 24.1256 91.8793 33.0616C80.6823 40.5702 68.291 48.3623 68.291 48.3623Z" fill="#004080"/>
<path d="M82.6643 43.0826C82.2662 42.5253 82.3757 41.7627 82.9231 41.3521C86.546 38.6048 99.0567 29.1311 100.669 28.3001C102.56 27.3224 103.655 27.3224 103.954 30.3532C104.212 33.0223 108.631 63.5551 109.696 70.9366C109.836 71.924 109.438 72.9115 108.641 73.5274L107.646 74.2998C106.83 74.9353 105.636 74.7691 105.028 73.938L82.6643 43.0826Z" fill="#004080"/>
<path d="M108.72 73.0775L107.725 73.8499C106.908 74.4854 105.714 74.3191 105.107 73.4881L82.733 42.6424C82.5737 42.4273 82.5041 42.1731 82.4941 41.9287C82.3548 42.31 82.3946 42.7402 82.6534 43.0921L105.027 73.9379C105.634 74.7689 106.819 74.9351 107.645 74.2996L108.64 73.5272C109.267 73.0482 109.646 72.3345 109.715 71.5817C109.566 72.1585 109.218 72.6864 108.72 73.0775Z" fill="white"/>
<path d="M24.6884 54.9711C25.2656 55.7826 26.3406 56.0759 27.2562 55.6653C29.4459 54.7072 33.3872 52.918 35.736 51.5591C39.12 49.6037 41.648 47.3062 41.648 47.3062C41.648 47.3062 38.712 47.7559 36.7811 47.531C33.4569 47.1595 22.2599 41.577 19.5627 40.3158C19.274 40.1789 18.9456 40.1789 18.6569 40.3158L16.4574 41.3326C15.8602 41.6063 15.6611 42.3396 16.0394 42.8773L24.6884 54.9711Z" fill="white"/>
<path d="M25.0462 55.626C25.514 56.281 26.3899 56.5254 27.1364 56.193C29.2464 55.2642 33.4464 53.3773 35.9147 51.9597C39.2987 50.0043 41.8267 47.7068 41.8267 47.7068C41.8267 47.7068 38.8907 48.1565 36.9598 47.9317C33.6356 47.5602 22.4386 41.9776 19.7414 40.7164C19.4527 40.5796 19.1243 40.5796 18.8357 40.7164L16.6361 41.7332C16.0389 42.007 15.8399 42.7402 16.2181 43.2779L25.0462 55.626Z" fill="#004080"/>
<path d="M37.4181 56.2811L38.4134 67.0551C38.4731 67.7004 38.1247 68.3163 37.5375 68.6096L35.7062 69.5384C35.2882 69.7535 34.7806 69.7242 34.3825 69.4798L22.877 62.2547C22.877 62.2547 26.5595 60.0061 30.6501 58.2463C34.7209 56.4767 37.4181 56.2811 37.4181 56.2811Z" fill="#004080"/>
<path d="M110.011 42.9652C109.613 42.7403 108.827 42.623 107.473 43.4149C106.508 43.982 105.094 45.3018 105.084 45.3018C105.045 45.3312 105.025 45.3507 105.015 45.3703C104.816 45.5169 104.696 45.7907 104.696 46.1524C104.696 46.9835 105.293 47.9905 106.03 48.4109C106.388 48.6162 106.707 48.6357 106.946 48.5184C106.966 48.5184 106.995 48.5086 107.025 48.4891C107.025 48.4891 109.016 47.9709 109.912 47.3941C111.235 46.5435 111.494 45.9276 111.494 45.4681C111.494 44.5588 110.827 43.4345 110.011 42.9652Z" fill="#004080"/>
<path d="M110.011 42.9652C109.613 42.7403 108.827 42.623 107.473 43.4149C106.508 43.982 105.094 45.3018 105.084 45.3018C105.045 45.3312 105.025 45.3507 105.015 45.3703C104.816 45.5169 104.696 45.7907 104.696 46.1524C104.696 46.9835 105.293 47.9905 106.03 48.4109C106.388 48.6162 106.707 48.6357 106.946 48.5184C106.966 48.5184 106.995 48.5086 107.025 48.4891C107.025 48.4891 109.016 47.9709 109.912 47.3941C111.235 46.5435 111.494 45.9276 111.494 45.4681C111.494 44.5588 110.827 43.4345 110.011 42.9652Z" fill="#004080"/>
<path d="M104.688 46.4653L109.147 43.6007L103.822 44.1873L104.688 46.4653Z" fill="#004080"/>
<path d="M104.817 46.5923L109.276 43.7277L103.951 44.3143L104.817 46.5923Z" fill="#004080"/>
<path d="M111.347 55.4989C110.949 55.274 110.163 55.1567 108.809 55.9486C107.844 56.5157 106.43 57.8355 106.42 57.8355C106.381 57.8649 106.361 57.8844 106.351 57.904C106.152 58.0506 106.032 58.3244 106.032 58.6861C106.032 59.5171 106.629 60.5242 107.366 60.9446C107.724 61.1499 108.043 61.1694 108.282 61.0521C108.301 61.0521 108.331 61.0423 108.361 61.0228C108.361 61.0228 110.352 60.5046 111.248 59.9278C112.571 59.0772 112.83 58.4613 112.83 58.0017C112.83 57.0827 112.163 55.9584 111.347 55.4989Z" fill="#004080"/>
<path d="M111.347 55.4989C110.949 55.274 110.163 55.1567 108.809 55.9486C107.844 56.5157 106.43 57.8355 106.42 57.8355C106.381 57.8649 106.361 57.8844 106.351 57.904C106.152 58.0506 106.032 58.3244 106.032 58.6861C106.032 59.5171 106.629 60.5242 107.366 60.9446C107.724 61.1499 108.043 61.1694 108.282 61.0521C108.301 61.0521 108.331 61.0423 108.361 61.0228C108.361 61.0228 110.352 60.5046 111.248 59.9278C112.571 59.0772 112.83 58.4613 112.83 58.0017C112.83 57.0827 112.163 55.9584 111.347 55.4989Z" fill="#004080"/>
<path d="M106.022 58.9892L110.481 56.1246L105.156 56.7112L106.022 58.9892Z" fill="#004080"/>
<path d="M106.15 59.1163L110.609 56.2517L105.284 56.8383L106.15 59.1163Z" fill="#004080"/>
<path d="M107.755 74.2216L108.651 73.5274C109.447 72.9115 109.855 71.924 109.706 70.9366C108.641 63.5649 104.222 33.0223 103.963 30.3532C103.664 27.3224 102.57 27.3224 100.679 28.3001C99.743 28.7889 95.1249 32.1815 90.7158 35.486L107.755 74.2216Z" fill="#004080"/>
<path d="M35.6361 69.5774L37.5371 68.6193C38.1243 68.326 38.4727 67.7101 38.413 67.0648L37.4177 56.2908C37.4177 56.2908 34.7304 56.4863 30.6398 58.2461C29.7838 58.6176 28.9378 59.0087 28.1416 59.3998L35.6361 69.5774Z" fill="#004080"/>
<path d="M124.187 1.55095C124.087 2.40152 123.719 2.85126 123.719 2.85126L124.416 4.3471C124.416 4.3471 125.988 3.125 125.939 1.6096C125.929 1.38474 125.849 1.19898 125.74 1.03277C124.884 0.876346 124.296 0.485275 123.331 0.231079C123.749 0.553713 124.237 1.05233 124.187 1.55095Z" fill="#004080"/>
<path d="M106.68 74.6126L88.4067 40.9805L83.719 43.9918L83.5 43.6691L88.3669 40.5406C88.4167 40.5112 88.4764 40.5015 88.5262 40.5112C88.5759 40.521 88.6257 40.5601 88.6556 40.609L107.029 74.4366L106.68 74.6126Z" fill="white"/>
<path d="M37.7157 50.9431C37.6161 50.9333 35.2175 50.6596 32.1122 49.193C27.3448 46.9346 19.5318 41.7138 19.4521 41.6649L19.681 41.3423C19.7607 41.3912 27.5538 46.6022 32.2914 48.8411C35.327 50.2783 37.7356 50.552 37.7654 50.5618L37.7157 50.9431Z" fill="white"/>
<path d="M27.0577 56.0269L16.7963 42.8185C16.7565 42.7696 16.7466 42.7109 16.7565 42.6523C16.7665 42.5936 16.8063 42.5447 16.866 42.5252L18.14 41.9288C18.2196 41.8897 18.3092 41.9092 18.3689 41.9679L30.3123 54.4626L30.0237 54.7266L18.1798 42.3296L17.2542 42.7598L27.3663 55.7825L27.0577 56.0269Z" fill="white"/>
<path d="M20.7172 62.8901C20.7172 63.4767 20.2892 63.7211 19.7717 63.418C19.2542 63.1247 18.8262 62.4012 18.8262 61.8146C18.8262 61.228 19.2542 60.9934 19.7717 61.2867C20.2992 61.5898 20.7172 62.3035 20.7172 62.8901Z" fill="#004080"/>
<path d="M20.3787 62.812C20.3787 63.2422 20.0702 63.4182 19.682 63.2031C19.3038 62.988 18.9854 62.46 18.9854 62.0299C18.9854 61.5997 19.2939 61.4237 19.682 61.6388C20.0602 61.8539 20.3787 62.372 20.3787 62.812Z" fill="#004080"/>
<path d="M119.326 2.70962C120.687 5.00257 106.857 15.3939 88.445 25.9085C70.0332 36.4231 54.0022 43.0885 52.6411 40.7956C51.2801 38.5026 65.1106 28.1113 83.5224 17.5967C101.934 7.08211 117.965 0.41667 119.326 2.70962Z" fill="url(#paint1_radial)"/>
<path opacity="0.5" d="M76.891 38.3963C77.4464 39.3992 69.2879 44.8019 58.6721 50.4505C48.0563 56.0991 39.0008 59.8644 38.4454 58.8615C37.89 57.8586 46.0486 52.4558 56.6644 46.8073C67.2802 41.1587 76.3356 37.3934 76.891 38.3963Z" fill="url(#paint2_radial)"/>
<path opacity="0.5" d="M129.436 8.84921C130.029 9.83441 122.107 15.5531 111.737 21.6337C101.367 27.7045 92.4809 31.8345 91.8779 30.8586C91.2852 29.8734 99.2077 24.1547 109.578 18.0741C119.948 11.9935 128.833 7.87335 129.436 8.84921Z" fill="url(#paint3_radial)"/>
<path opacity="0.5" d="M108.381 70.9852C107.227 71.1612 104.778 61.8048 102.907 50.0923C101.036 38.3797 100.449 28.7301 101.593 28.5541C102.748 28.3781 105.196 37.7344 107.068 49.447C108.939 61.1596 109.526 70.8092 108.381 70.9852Z" fill="#004080"/>
<path opacity="0.2" d="M37.4181 56.2811L28.1321 65.5495L22.877 62.2547C22.877 62.2547 26.5595 60.0061 30.6501 58.2463C34.7209 56.4767 37.4181 56.2811 37.4181 56.2811Z" fill="#004080"/>
<path d="M38.4142 67.0551L37.4189 56.2811L38.3843 66.6738C38.444 67.3191 38.0957 67.935 37.5084 68.2283L35.6771 69.1571C35.2591 69.3722 34.7515 69.3429 34.3534 69.0985L23.1763 62.0787C22.9972 62.1863 22.8877 62.2547 22.8877 62.2547L34.3932 69.4797C34.7913 69.7339 35.2989 69.7535 35.7169 69.5384L37.5483 68.6096C38.1255 68.3163 38.4739 67.7004 38.4142 67.0551Z" fill="white"/>
<path opacity="0.2" d="M100.371 28.525C98.779 29.3463 86.4674 38.6635 82.9042 41.3717C82.3668 41.7823 82.2573 42.5351 82.6454 43.0729L83.2426 43.8941L101.636 28.0068C101.267 28.1046 100.839 28.2806 100.371 28.525Z" fill="#004080"/>
<defs>
<linearGradient id="paint0_linear" x1="76.0129" y1="26.668" x2="83.3714" y2="40.7277" gradientUnits="userSpaceOnUse">
<stop stop-color="white"/>
<stop offset="0.588542" stop-color="#004080"/>
<stop offset="1" stop-color="#004080"/>
</linearGradient>
<radialGradient id="paint1_radial" cx="0" cy="0" r="1" gradientUnits="userSpaceOnUse" gradientTransform="translate(82.7514 23.2153) rotate(151.417) scale(48.0245 1.40334)">
<stop stop-color="white"/>
<stop offset="1" stop-color="white" stop-opacity="0"/>
</radialGradient>
<radialGradient id="paint2_radial" cx="0" cy="0" r="1" gradientUnits="userSpaceOnUse" gradientTransform="translate(57.6682 48.6289) rotate(45.2633) scale(0.916569 17.8659)">
<stop stop-color="white"/>
<stop offset="1" stop-color="white" stop-opacity="0"/>
</radialGradient>
<radialGradient id="paint3_radial" cx="0" cy="0" r="1" gradientUnits="userSpaceOnUse" gradientTransform="translate(110.657 19.8538) rotate(61.0271) scale(1.05508 18.5947)">
<stop stop-color="white"/>
<stop offset="1" stop-color="white" stop-opacity="0"/>
</radialGradient>
</defs>
</svg>
