<svg width="136" height="90" viewBox="0 0 136 90" fill="none" xmlns="http://www.w3.org/2000/svg">
<path d="M0.3125 23.5541V32.9044C0.3125 32.9044 74.5244 74.6459 90.5271 83.6957C108.404 93.8101 129.393 88.9627 133.339 83.2322C138 76.4684 0.3125 23.5541 0.3125 23.5541Z" fill="#004080"/>
<path d="M0.3125 24.8069V28.671C14.02 36.4745 82.6469 75.5355 92.1975 80.6835C102.048 86.0006 110.61 88.3993 117.343 89.3637C121.449 89.9524 125.669 89.4138 129.361 87.5601C131.216 86.6332 132.587 85.5685 133.339 84.4788C138 77.7212 0.3125 24.8069 0.3125 24.8069Z" fill="#004080"/>
<path d="M0.3125 23.5541V32.9044C0.3125 32.9044 74.5244 74.6459 90.5271 83.6957C108.404 93.8101 129.393 88.9627 133.339 83.2322C138 76.4684 0.3125 23.5541 0.3125 23.5541Z" fill="#004080"/>
<path d="M0.3125 24.8071L28.0591 8.95593C28.0591 8.95593 105.618 52.8644 122.335 62.4464C129.724 66.6801 133.237 71.8782 134.857 76.3498C136.833 81.8173 132.606 87.5164 126.702 87.4287C119.428 87.3222 108.251 85.5561 94.5884 78.1848C83.973 72.4544 0.3125 24.8071 0.3125 24.8071Z" fill="white"/>
<path d="M126.83 85.7564H126.696C119.657 85.6562 108.353 83.9652 94.5118 76.4937C84.0175 70.8322 1.0711 23.592 0.235894 23.116L0 22.9782L0.235894 22.8404L28.0653 6.93921L28.1482 6.98305C28.9261 7.42144 105.899 51.0042 122.424 60.4735C128.73 64.0872 132.969 68.7968 135.016 74.4646C135.96 77.0762 135.564 79.8756 133.932 82.1428C132.274 84.4412 129.692 85.7564 126.83 85.7564ZM0.631177 22.9782C5.58501 25.7965 84.4511 70.7069 94.6648 76.2182C108.455 83.6584 119.695 85.3431 126.702 85.4433H126.83C129.584 85.4433 132.077 84.1782 133.664 81.9674C135.233 79.7817 135.615 77.0887 134.704 74.5773C132.682 68.9784 128.494 64.3314 122.252 60.7554C105.962 51.4238 30.9471 8.94956 28.059 7.31498L0.631177 22.9782Z" fill="#004080"/>
<path d="M126.836 86.5953H126.703C119.664 86.4951 108.36 84.8041 94.5186 77.3326C84.0243 71.671 1.07793 24.4308 0.24273 23.9549L0.00683594 23.8171L0.24273 23.6793L28.0722 7.77808L28.1551 7.82192C28.9329 8.26031 105.905 51.8431 122.431 61.3124C128.736 64.926 132.976 69.6356 135.023 75.3035C135.966 77.915 135.571 80.7145 133.939 82.9816C132.275 85.2801 129.693 86.5953 126.836 86.5953ZM0.631631 23.8171C5.58546 26.6353 84.4515 71.5458 94.6652 77.057C108.456 84.4972 119.696 86.1819 126.703 86.2821H126.836C129.591 86.2821 132.077 85.017 133.671 82.8063C135.239 80.6206 135.622 77.9276 134.71 75.4162C132.689 69.8173 128.5 65.1703 122.259 61.5942C105.969 52.2627 30.9539 9.78843 28.0658 8.15384L0.631631 23.8171Z" fill="#004080"/>
<path d="M1.70215 19.6715V25.4333L28.9896 9.92036V4.11475L1.70215 19.6715Z" fill="url(#paint0_linear)"/>
<path d="M1.70836 19.6716V25.4334L0.739258 24.8197V19.0328L1.70836 19.6716Z" fill="url(#paint1_linear)"/>
<path d="M0.740234 19.0327L1.70932 19.6715L28.9905 4.11472L28.0214 3.48218L0.740234 19.0327Z" fill="url(#paint2_linear)"/>
<path d="M7.52051 22.4649V26.1475L18.6523 19.7907V16.1207L7.52051 22.4649Z" fill="white"/>
<path d="M7.7832 22.6152L18.3922 16.5715V19.6403L7.7832 25.6965V22.6152Z" fill="white"/>
<path d="M7.7832 22.6151V22.8907L18.2966 16.8909V19.6967L18.3922 19.6403V16.5715L7.7832 22.6151Z" fill="white"/>
<path d="M7.52068 22.4647V26.1472L4.4668 24.4438V20.755L7.52068 22.4647Z" fill="#004080"/>
<path d="M4.73535 24.2933V21.1995L7.26008 22.6148V25.7024L4.73535 24.2933Z" fill="#004080"/>
<path d="M4.4668 20.755L7.52069 22.4647L18.6525 16.1205L15.5986 14.4108L4.4668 20.755Z" fill="#004080"/>
<path d="M7.52051 18.6629V22.3455L18.6523 15.9887V12.3187L7.52051 18.6629Z" fill="white"/>
<path d="M7.7832 18.8134L18.3922 12.7698V15.8385L7.7832 21.8947V18.8134Z" fill="white"/>
<path d="M7.7832 18.8134V19.0827L18.2966 13.0892V15.8949L18.3922 15.8385V12.7698L7.7832 18.8134Z" fill="white"/>
<path d="M7.52068 18.663V22.3455L4.4668 20.642V16.9532L7.52068 18.663Z" fill="#004080"/>
<path d="M4.73535 20.4919V17.3981L7.26008 18.8135V21.901L4.73535 20.4919Z" fill="#004080"/>
<path d="M4.4668 16.9532L7.52069 18.663L18.6525 12.3188L15.5986 10.609L4.4668 16.9532Z" fill="#004080"/>
<path d="M19.2012 8.06029V11.7428L30.333 5.38609V1.70984L19.2012 8.06029Z" fill="white"/>
<path d="M19.4619 8.2106L30.0645 2.16077V5.23578L19.4619 11.2919V8.2106Z" fill="white"/>
<path d="M19.4619 8.2106V8.4799L29.9753 2.48643V5.28589L30.0645 5.23579V2.16077L19.4619 8.2106Z" fill="white"/>
<path d="M19.2004 8.06024V11.7428L16.1465 10.033V6.34424L19.2004 8.06024Z" fill="#004080"/>
<path d="M16.4141 9.88277V6.78894L18.9388 8.2106V11.2982L16.4141 9.88277Z" fill="#004080"/>
<path d="M16.1465 6.34422L19.2004 8.06022L30.3322 1.70975L27.2783 0L16.1465 6.34422Z" fill="#004080"/>
<path d="M7.52051 14.7113V18.3938L18.6523 12.037V8.36707L7.52051 14.7113Z" fill="white"/>
<path d="M7.7832 14.8616L18.3922 8.81177V11.8868L7.7832 17.9429V14.8616Z" fill="white"/>
<path d="M7.7832 14.8616V15.1309L18.2966 9.13744V11.9369L18.3922 11.8868V8.81177L7.7832 14.8616Z" fill="white"/>
<path d="M7.52068 14.7114V18.3939L4.4668 16.6904V12.9954L7.52068 14.7114Z" fill="#004080"/>
<path d="M4.73535 16.5337V13.4462L7.26008 14.8616V17.9491L4.73535 16.5337Z" fill="#004080"/>
<path d="M4.4668 12.9952L7.52069 14.7112L18.6525 8.36701L15.5986 6.651L4.4668 12.9952Z" fill="#004080"/>
<path d="M10.9004 24.3873V28.0699L22.0322 21.7131V18.0369L10.9004 24.3873Z" fill="white"/>
<path d="M11.1611 24.5378L21.7638 18.4879V21.5629L11.1611 27.6191V24.5378Z" fill="white"/>
<path d="M11.1611 24.5378V24.8071L21.6745 18.8136V21.613L21.7638 21.5629V18.4879L11.1611 24.5378Z" fill="white"/>
<path d="M10.9006 24.3874V28.0699L7.84668 26.3602V22.6714L10.9006 24.3874Z" fill="#004080"/>
<path d="M8.11328 26.2097V23.1222L10.638 24.5376V27.6251L8.11328 26.2097Z" fill="#004080"/>
<path d="M7.84668 22.6712L10.9006 24.3872L22.0324 18.0368L18.9785 16.327L7.84668 22.6712Z" fill="#004080"/>
<path d="M10.9004 20.5859V24.2685L22.0322 17.9117V14.2355L10.9004 20.5859Z" fill="white"/>
<path d="M11.1611 20.736L21.7638 14.6862V17.7612L11.1611 23.8173V20.736Z" fill="white"/>
<path d="M11.1611 20.736V21.0053L21.6745 15.0118V17.8113L21.7638 17.7612V14.6862L11.1611 20.736Z" fill="white"/>
<path d="M10.9006 20.586V24.2685L7.84668 22.5588V18.87L10.9006 20.586Z" fill="#004080"/>
<path d="M8.11328 22.4084V19.3208L10.638 20.7362V23.8237L8.11328 22.4084Z" fill="#004080"/>
<path d="M7.84668 18.8699L10.9006 20.5859L22.0324 14.2354L18.9785 12.5256L7.84668 18.8699Z" fill="#004080"/>
<path d="M22.5781 9.97667V13.6592L33.7099 7.30245V3.63245L22.5781 9.97667Z" fill="white"/>
<path d="M22.8418 10.1268L33.4444 4.08325V7.15202L22.8418 13.2081V10.1268Z" fill="white"/>
<path d="M22.8418 10.1269V10.4024L33.3552 4.40892V7.2084L33.4444 7.15203V4.08325L22.8418 10.1269Z" fill="white"/>
<path d="M22.5783 9.97671V13.6592L19.5244 11.9558V8.26697L22.5783 9.97671Z" fill="#004080"/>
<path d="M19.793 11.8055V8.71167L22.3177 10.1271V13.2146L19.793 11.8055Z" fill="#004080"/>
<path d="M19.5244 8.26692L22.5783 9.97665L33.7101 3.63247L30.6562 1.92273L19.5244 8.26692Z" fill="#004080"/>
<path d="M10.9004 16.6339V20.3164L22.0322 13.9534V10.2834L10.9004 16.6339Z" fill="white"/>
<path d="M11.1611 16.7781L21.7638 10.7345V13.8095L11.1611 19.8656V16.7781Z" fill="white"/>
<path d="M11.1611 16.7781V17.0536L21.6745 11.0602V13.8596L21.7638 13.8095V10.7345L11.1611 16.7781Z" fill="white"/>
<path d="M10.9006 16.634V20.3166L7.84668 18.6068V14.918L10.9006 16.634Z" fill="#004080"/>
<path d="M8.11328 18.4562V15.3624L10.638 16.7841V19.8654L8.11328 18.4562Z" fill="#004080"/>
<path d="M7.84668 14.9179L10.9006 16.634L22.0324 10.2835L18.9785 8.57373L7.84668 14.9179Z" fill="#004080"/>
<path d="M14.3174 26.4414V30.1239L25.4492 23.7672V20.0972L14.3174 26.4414Z" fill="white"/>
<path d="M14.5791 26.5918L25.1817 20.5482V23.617L14.5791 29.673V26.5918Z" fill="white"/>
<path d="M14.5791 26.5918V26.8673L25.0924 20.8739V23.6733L25.1817 23.617V20.5482L14.5791 26.5918Z" fill="white"/>
<path d="M14.3175 26.4414V30.1239L11.2637 28.4205V24.7317L14.3175 26.4414Z" fill="#004080"/>
<path d="M11.5303 28.2701V25.1763L14.055 26.5917V29.6793L11.5303 28.2701Z" fill="#004080"/>
<path d="M11.2637 24.7317L14.3176 26.4414L25.4493 20.0972L22.389 18.3875L11.2637 24.7317Z" fill="#004080"/>
<path d="M14.3174 22.64V26.3225L25.4492 19.9658V16.2958L14.3174 22.64Z" fill="white"/>
<path d="M14.5791 22.7904L25.1817 16.7468V19.8156L14.5791 25.8717V22.7904Z" fill="white"/>
<path d="M14.3175 22.64V26.3226L11.2637 24.6191V20.9303L14.3175 22.64Z" fill="#004080"/>
<path d="M11.5303 24.4687V21.3749L14.055 22.7903V25.8778L11.5303 24.4687Z" fill="#004080"/>
<path d="M11.2637 20.9303L14.3176 22.64L25.4493 16.2958L22.389 14.5861L11.2637 20.9303Z" fill="#004080"/>
<path d="M25.998 12.037V15.7195L37.1298 9.36279V5.68652L25.998 12.037Z" fill="white"/>
<path d="M26.2568 12.1874L36.8594 6.13757V9.2126L26.2568 15.2687V12.1874Z" fill="white"/>
<path d="M26.2568 12.1874V12.4567L36.7702 6.46324V9.26271L36.8594 9.21261V6.13757L26.2568 12.1874Z" fill="white"/>
<path d="M25.9943 12.0372V15.7197L22.9404 14.0099V10.3212L25.9943 12.0372Z" fill="#004080"/>
<path d="M23.2109 13.8597V10.7721L25.7357 12.1875V15.275L23.2109 13.8597Z" fill="#004080"/>
<path d="M22.9443 10.3211L25.9982 12.0371L37.13 5.68667L34.0697 3.97693L22.9443 10.3211Z" fill="#004080"/>
<path d="M14.3174 18.6881V22.3706L25.4492 16.0139V12.3439L14.3174 18.6881Z" fill="white"/>
<path d="M14.5791 18.8385L25.1817 12.7949V15.8637L14.5791 21.9198V18.8385Z" fill="white"/>
<path d="M14.5791 18.8385V19.1078L25.0924 13.1143V15.9138L25.1817 15.8637V12.7949L14.5791 18.8385Z" fill="white"/>
<path d="M14.3175 18.6884V22.3709L11.2637 20.6675V16.9724L14.3175 18.6884Z" fill="#004080"/>
<path d="M11.5303 20.5169V17.4231L14.055 18.8385V21.926L11.5303 20.5169Z" fill="#004080"/>
<path d="M11.2637 16.972L14.3176 18.688L25.4493 12.3438L22.389 10.6278L11.2637 16.972Z" fill="#004080"/>
<path d="M17.7598 28.4017V32.0842L28.8852 25.7275V22.0575L17.7598 28.4017Z" fill="white"/>
<path d="M18.0215 28.552L28.6241 22.5022V25.5772L18.0215 31.6333V28.552Z" fill="white"/>
<path d="M18.0215 28.5521V28.8214L28.5349 22.8279V25.6273L28.6241 25.5772V22.5022L18.0215 28.5521Z" fill="white"/>
<path d="M17.761 28.4017V32.0842L14.707 30.3807V26.6857L17.761 28.4017Z" fill="#004080"/>
<path d="M14.9668 30.2244V27.1368L17.4915 28.5522V31.6398L14.9668 30.2244Z" fill="#004080"/>
<path d="M14.707 26.686L17.7609 28.402L28.8864 22.0578L25.8324 20.3418L14.707 26.686Z" fill="#004080"/>
<path d="M17.7598 24.6002V28.2827L28.8852 21.926V18.256L17.7598 24.6002Z" fill="white"/>
<path d="M18.0215 24.7506L28.6241 18.7008V21.7758L18.0215 27.8319V24.7506Z" fill="white"/>
<path d="M18.0215 24.7506V25.0199L28.5349 19.0265V21.8259L28.6241 21.7758V18.7008L18.0215 24.7506Z" fill="white"/>
<path d="M17.761 24.6003V28.2828L14.707 26.5793V22.8843L17.761 24.6003Z" fill="#004080"/>
<path d="M14.9668 26.4229V23.3353L17.4915 24.7507V27.8383L14.9668 26.4229Z" fill="#004080"/>
<path d="M14.707 22.884L17.7609 24.6L28.8864 18.2558L25.8324 16.5398L14.707 22.884Z" fill="#004080"/>
<path d="M29.4404 13.9972V17.6797L40.5658 11.3167V7.64673L29.4404 13.9972Z" fill="white"/>
<path d="M29.7012 14.1415L40.3038 8.0979V11.1667L29.7012 17.2291V14.1415Z" fill="white"/>
<path d="M29.7012 14.1415V14.4171L40.2145 8.42357V11.223L40.3038 11.1667V8.0979L29.7012 14.1415Z" fill="white"/>
<path d="M29.4406 13.9971V17.6796L26.3867 15.9699V12.2811L29.4406 13.9971Z" fill="#004080"/>
<path d="M26.6484 15.8198V12.726L29.1732 14.1476V17.2289L26.6484 15.8198Z" fill="#004080"/>
<path d="M26.3838 12.2812L29.4377 13.9972L40.5631 7.64675L37.5092 5.93701L26.3838 12.2812Z" fill="#004080"/>
<path d="M17.7598 20.6484V24.331L28.8852 17.968V14.298L17.7598 20.6484Z" fill="white"/>
<path d="M18.0215 20.7987L28.6241 14.7489V17.8239L18.0215 23.88V20.7987Z" fill="white"/>
<path d="M18.0215 20.7987V21.068L28.5349 15.0746V17.874L28.6241 17.8239V14.7489L18.0215 20.7987Z" fill="white"/>
<path d="M17.761 20.6484V24.3309L14.707 22.6212V18.9324L17.761 20.6484Z" fill="#004080"/>
<path d="M14.9668 22.4709V19.3771L17.4915 20.7987V23.8863L14.9668 22.4709Z" fill="#004080"/>
<path d="M14.707 18.9325L17.7609 20.6485L28.8864 14.298L25.8324 12.5883L14.707 18.9325Z" fill="#004080"/>
<path d="M21.1836 30.3243V34.0068L32.3153 27.6439V23.9739L21.1836 30.3243Z" fill="white"/>
<path d="M21.4463 30.4685L32.0489 24.4249V27.5L21.4463 33.5561V30.4685Z" fill="white"/>
<path d="M21.4463 30.4685V30.7441L31.9596 24.7506V27.5501L32.0489 27.5V24.4249L21.4463 30.4685Z" fill="white"/>
<path d="M21.1838 30.3243V34.0068L18.1299 32.2971V28.6083L21.1838 30.3243Z" fill="#004080"/>
<path d="M18.3984 32.1469V29.0531L20.9232 30.4748V33.5561L18.3984 32.1469Z" fill="#004080"/>
<path d="M18.1299 28.6085L21.1838 30.3245L32.3155 23.974L29.2553 22.2643L18.1299 28.6085Z" fill="#004080"/>
<path d="M21.1836 26.5228V30.2053L32.3153 23.8424V20.1724L21.1836 26.5228Z" fill="white"/>
<path d="M21.4463 26.667L32.0489 20.6234V23.6985L21.4463 29.7546V26.667Z" fill="white"/>
<path d="M21.4463 26.667V26.9426L31.9596 20.9491V23.7485L32.0489 23.6984V20.6234L21.4463 26.667Z" fill="white"/>
<path d="M21.1838 26.5229V30.2054L18.1299 28.4957V24.8069L21.1838 26.5229Z" fill="#004080"/>
<path d="M18.3984 28.3454V25.2516L20.9232 26.6732V29.7546L18.3984 28.3454Z" fill="#004080"/>
<path d="M18.1299 24.8067L21.1838 26.5227L32.3155 20.1723L29.2553 18.4625L18.1299 24.8067Z" fill="#004080"/>
<path d="M32.8643 15.9139V19.5964L43.996 13.2397V9.5697L32.8643 15.9139Z" fill="white"/>
<path d="M33.125 16.0641L43.7276 10.0143V13.0893L33.125 19.1454V16.0641Z" fill="white"/>
<path d="M33.125 16.0641V16.3334L43.6383 10.3399V13.1394L43.7276 13.0893V10.0143L33.125 16.0641Z" fill="white"/>
<path d="M32.8635 15.9139V19.5964L29.8096 17.8929V14.1979L32.8635 15.9139Z" fill="#004080"/>
<path d="M30.0781 17.7426V14.6488L32.6029 16.0642V19.1517L30.0781 17.7426Z" fill="#004080"/>
<path d="M29.8096 14.1979L32.8635 15.9139L43.9953 9.56965L40.935 7.85364L29.8096 14.1979Z" fill="#004080"/>
<path d="M21.1836 22.5651V26.2476L32.3153 19.8908V16.2208L21.1836 22.5651Z" fill="white"/>
<path d="M21.4463 22.715L32.0489 16.6714V19.7402L21.4463 25.7963V22.715Z" fill="white"/>
<path d="M21.4463 22.715V22.9843L31.9596 16.9908V19.7965L32.0489 19.7402V16.6714L21.4463 22.715Z" fill="white"/>
<path d="M21.1838 22.565V26.2475L18.1299 24.544V20.8552L21.1838 22.565Z" fill="#004080"/>
<path d="M18.3984 24.3936V21.2998L20.9232 22.7152V25.8027L18.3984 24.3936Z" fill="#004080"/>
<path d="M18.1299 20.8552L21.1838 22.565L32.3155 16.2207L29.2553 14.511L18.1299 20.8552Z" fill="#004080"/>
<path d="M24.5898 32.2033V35.8859L35.7217 29.5291V25.8591L24.5898 32.2033Z" fill="white"/>
<path d="M24.8496 32.3536L35.4522 26.3037V29.3788L24.8496 35.4349V32.3536Z" fill="white"/>
<path d="M24.8496 32.3536V32.6229L35.363 26.6294V29.4289L35.4522 29.3788V26.3037L24.8496 32.3536Z" fill="white"/>
<path d="M24.5881 32.2034V35.8859L21.5342 34.1824V30.4874L24.5881 32.2034Z" fill="#004080"/>
<path d="M21.8027 34.0321V30.9382L24.3275 32.3536V35.4412L21.8027 34.0321Z" fill="#004080"/>
<path d="M21.5342 30.4873L24.5881 32.2033L35.7199 25.8591L32.666 24.1431L21.5342 30.4873Z" fill="#004080"/>
<path d="M24.5898 28.4017V32.0842L35.7217 25.7275V22.0575L24.5898 28.4017Z" fill="white"/>
<path d="M24.8496 28.552L35.4522 22.5022V25.5772L24.8496 31.6333V28.552Z" fill="white"/>
<path d="M24.8496 28.5521V28.8214L35.363 22.8279V25.6273L35.4522 25.5772V22.5022L24.8496 28.5521Z" fill="white"/>
<path d="M24.5881 28.4017V32.0842L21.5342 30.3807V26.6857L24.5881 28.4017Z" fill="#004080"/>
<path d="M21.8027 30.2244V27.1368L24.3275 28.5522V31.6398L21.8027 30.2244Z" fill="#004080"/>
<path d="M21.5342 26.686L24.5881 28.402L35.7199 22.0578L32.666 20.3418L21.5342 26.686Z" fill="#004080"/>
<path d="M36.2695 17.7989V21.4815L47.4013 15.1185V11.4485L36.2695 17.7989Z" fill="white"/>
<path d="M36.5293 17.9429L47.1319 11.8993V14.9743L36.5293 21.0304V17.9429Z" fill="white"/>
<path d="M36.5293 17.9429V18.2184L47.0427 12.225V15.0244L47.1319 14.9743V11.8993L36.5293 17.9429Z" fill="white"/>
<path d="M36.2698 17.7989V21.4814L33.2158 19.7717V16.0829L36.2698 17.7989Z" fill="#004080"/>
<path d="M33.4824 19.6212V16.5273L36.0072 17.949V21.0303L33.4824 19.6212Z" fill="#004080"/>
<path d="M33.2158 16.0827L36.2697 17.7987L47.4015 11.4483L44.3476 9.73853L33.2158 16.0827Z" fill="#004080"/>
<path d="M24.5898 24.4499V28.1324L35.7217 21.7695V18.0995L24.5898 24.4499Z" fill="white"/>
<path d="M24.8496 24.6004L35.4522 18.5505V21.6256L24.8496 27.6817V24.6004Z" fill="white"/>
<path d="M24.8496 24.6004V24.8697L35.363 18.8762V21.6757L35.4522 21.6256V18.5505L24.8496 24.6004Z" fill="white"/>
<path d="M24.5881 24.4501V28.1327L21.5342 26.4229V22.7341L24.5881 24.4501Z" fill="#004080"/>
<path d="M21.8027 26.2725V23.1787L24.3275 24.6004V27.6879L21.8027 26.2725Z" fill="#004080"/>
<path d="M21.5342 22.734L24.5881 24.45L35.7199 18.0995L32.666 16.3898L21.5342 22.734Z" fill="#004080"/>
<path d="M43.0635 29.3974V33.0799L54.1889 26.7232V23.0532L43.0635 29.3974Z" fill="#004080"/>
<path d="M43.3262 29.5479L53.9288 23.5043V26.573L43.3262 32.6292V29.5479Z" fill="white"/>
<path d="M43.3262 29.5479V29.8234L53.8396 23.8299V26.6294L53.9288 26.573V23.5043L43.3262 29.5479Z" fill="white"/>
<path d="M43.0637 29.3975V33.08L40.0098 31.3765V27.6877L43.0637 29.3975Z" fill="#004080"/>
<path d="M40.2734 31.2264V28.1326L42.7981 29.548V32.6355L40.2734 31.2264Z" fill="white"/>
<path d="M40.0098 27.6877L43.0637 29.3974L54.1891 23.0532L51.1352 21.3435L40.0098 27.6877Z" fill="#004080"/>
<path d="M42.8798 29.6043V29.8736L40.3232 28.4081V31.2075L40.2275 31.1512V28.0824L42.8798 29.6043Z" fill="white"/>
<path d="M27.9658 34.1257V37.8082L39.0976 31.4453V27.7753L27.9658 34.1257Z" fill="white"/>
<path d="M28.2285 34.2764L38.8311 28.2266V31.3016L28.2285 37.3577V34.2764Z" fill="white"/>
<path d="M28.2285 34.2764V34.5457L38.7419 28.5522V31.3517L38.8311 31.3016V28.2266L28.2285 34.2764Z" fill="white"/>
<path d="M27.9689 34.1259V37.8084L24.915 36.0987V32.4099L27.9689 34.1259Z" fill="#004080"/>
<path d="M25.1816 35.9482V32.8544L27.7064 34.276V37.3573L25.1816 35.9482Z" fill="#004080"/>
<path d="M24.915 32.4097L27.969 34.1257L39.1007 27.7753L36.0404 26.0656L24.915 32.4097Z" fill="#004080"/>
<path d="M31.3848 36.0551V39.7376L42.5102 33.3746V29.7046L31.3848 36.0551Z" fill="white"/>
<path d="M31.6465 36.199L42.2491 30.1554V33.2242L31.6465 39.2865V36.199Z" fill="white"/>
<path d="M31.385 36.0549V39.7374L28.3311 38.0276V34.3389L31.385 36.0549Z" fill="#004080"/>
<path d="M28.5928 37.8775V34.7837L31.1175 36.2053V39.2866L28.5928 37.8775Z" fill="#004080"/>
<path d="M28.3311 34.3389L31.385 36.0549L42.5104 29.7045L39.4565 27.9948L28.3311 34.3389Z" fill="#004080"/>
<path d="M43.0635 25.596V29.2785L54.1889 22.9218V19.2518L43.0635 25.596Z" fill="#004080"/>
<path d="M43.3262 25.7465L53.9288 19.7029V22.7716L43.3262 28.8278V25.7465Z" fill="white"/>
<path d="M43.3262 25.7464V26.022L53.8396 20.0223V22.828L53.9288 22.7716V19.7029L43.3262 25.7464Z" fill="white"/>
<path d="M43.0637 25.5961V29.2786L40.0098 27.5751V23.8864L43.0637 25.5961Z" fill="#004080"/>
<path d="M40.2734 27.4247V24.3309L42.7981 25.7463V28.8338L40.2734 27.4247Z" fill="white"/>
<path d="M40.0098 23.8863L43.0637 25.5961L54.1891 19.2519L51.1352 17.5421L40.0098 23.8863Z" fill="#004080"/>
<path d="M42.8798 25.8026V26.0719L40.3232 24.6064V27.4059L40.2275 27.3495V24.2808L42.8798 25.8026Z" fill="white"/>
<path d="M27.9658 30.3243V34.0068L39.0976 27.6439V23.9739L27.9658 30.3243Z" fill="white"/>
<path d="M28.2285 30.4685L38.8311 24.4249V27.5L28.2285 33.5561V30.4685Z" fill="white"/>
<path d="M28.2285 30.4685V30.7441L38.7419 24.7506V27.5501L38.8311 27.5V24.4249L28.2285 30.4685Z" fill="white"/>
<path d="M27.9689 30.3243V34.0068L24.915 32.2971V28.6083L27.9689 30.3243Z" fill="#004080"/>
<path d="M25.1816 32.1469V29.0531L27.7064 30.4748V33.5561L25.1816 32.1469Z" fill="#004080"/>
<path d="M24.915 28.6085L27.969 30.3245L39.1007 23.974L36.0404 22.2643L24.915 28.6085Z" fill="#004080"/>
<path d="M31.3848 32.2534V35.9297L42.5102 29.5729V25.903L31.3848 32.2534Z" fill="white"/>
<path d="M31.6465 32.3975L42.2491 26.3539V29.4226L31.6465 35.485V32.3975Z" fill="white"/>
<path d="M31.385 32.2535V35.9297L28.3311 34.2262V30.5375L31.385 32.2535Z" fill="#004080"/>
<path d="M28.5928 34.0759V30.9821L31.1175 32.4037V35.485L28.5928 34.0759Z" fill="#004080"/>
<path d="M28.3311 30.5372L31.385 32.2532L42.5104 25.9027L39.4565 24.193L28.3311 30.5372Z" fill="#004080"/>
<path d="M39.6475 19.7152V23.3977L50.7792 17.041V13.371L39.6475 19.7152Z" fill="white"/>
<path d="M39.9102 19.8656L50.5128 13.822V16.8908L39.9102 22.9469V19.8656Z" fill="white"/>
<path d="M39.9102 19.8656V20.1349L50.4235 14.1414V16.9472L50.5128 16.8908V13.822L39.9102 19.8656Z" fill="white"/>
<path d="M39.6467 19.7153V23.3978L36.5928 21.6943V17.9993L39.6467 19.7153Z" fill="#004080"/>
<path d="M36.8613 21.5439V18.4501L39.386 19.8655V22.953L36.8613 21.5439Z" fill="#004080"/>
<path d="M36.5928 17.9991L39.6467 19.7151L50.7785 13.3709L47.7182 11.6549L36.5928 17.9991Z" fill="#004080"/>
<path d="M43.0635 21.6444V25.3269L54.1889 18.9702V15.3002L43.0635 21.6444Z" fill="#004080"/>
<path d="M43.3262 21.7943L53.9288 15.7445V18.8195L43.3262 24.8756V21.7943Z" fill="#004080"/>
<path d="M43.3262 21.7943V22.0636L53.8396 16.0702V18.8696L53.9288 18.8195V15.7445L43.3262 21.7943Z" fill="#004080"/>
<path d="M43.0637 21.6441V25.3266L40.0098 23.6232V19.9281L43.0637 21.6441Z" fill="#004080"/>
<path d="M40.2734 23.473V20.3792L42.7981 21.7945V24.8821L40.2734 23.473Z" fill="#004080"/>
<path d="M40.0098 19.9282L43.0637 21.6442L54.1891 15.3L51.1352 13.584L40.0098 19.9282Z" fill="#004080"/>
<path d="M42.8798 21.851V22.1203L40.3232 20.6485V23.4542L40.2275 23.3979V20.3291L42.8798 21.851Z" fill="#004080"/>
<path d="M27.9658 26.3664V30.0489L39.0976 23.6922V20.0222L27.9658 26.3664Z" fill="white"/>
<path d="M28.2285 26.5165L38.8311 20.4729V23.5417L28.2285 29.5978V26.5165Z" fill="white"/>
<path d="M28.2285 26.5165V26.7921L38.7419 20.7923V23.598L38.8311 23.5417V20.4729L28.2285 26.5165Z" fill="white"/>
<path d="M27.9689 26.3664V30.0489L24.915 28.3454V24.6566L27.9689 26.3664Z" fill="#004080"/>
<path d="M25.1816 28.195V25.1012L27.7064 26.5166V29.6041L25.1816 28.195Z" fill="#004080"/>
<path d="M24.915 24.6566L27.969 26.3663L39.1007 20.0221L36.0404 18.3124L24.915 24.6566Z" fill="#004080"/>
<path d="M31.3848 28.2954V31.9779L42.5102 25.6212V21.9512L31.3848 28.2954Z" fill="white"/>
<path d="M31.6465 28.4457L42.2491 22.4021V25.4709L31.6465 31.5269V28.4457Z" fill="white"/>
<path d="M31.385 28.2953V31.9779L28.3311 30.2744V26.5856L31.385 28.2953Z" fill="#004080"/>
<path d="M28.5928 30.1241V27.0303L31.1175 28.4457V31.5333L28.5928 30.1241Z" fill="#004080"/>
<path d="M28.3311 26.5856L31.385 28.2953L42.5104 21.9511L39.4565 20.2351L28.3311 26.5856Z" fill="#004080"/>
<path d="M43.4629 30.2868V43.8958L59.7844 34.6206V20.9678L43.4629 30.2868Z" fill="url(#paint3_linear)"/>
<path d="M43.4618 30.2866V43.8956L35.8047 39.5305V25.9026L43.4618 30.2866Z" fill="url(#paint4_linear)"/>
<path d="M35.8057 25.9026L43.4628 30.2866L59.7843 20.9675L52.1144 16.5898L35.8057 25.9026Z" fill="white"/>
<path d="M46.5234 29.7915V43.3943L59.1216 36.2108V22.558L46.5234 29.7915Z" fill="url(#paint5_linear)"/>
<path d="M48.416 30.4869V31.633L49.4807 31.0255V29.8794L48.416 30.4869Z" fill="white"/>
<path d="M50.3994 29.3782V30.5181L51.4578 29.9168V28.7708L50.3994 29.3782Z" fill="white"/>
<path d="M52.3691 28.2386V29.3847L53.4275 28.7772V27.6311L52.3691 28.2386Z" fill="white"/>
<path d="M54.3477 27.1302V28.2763L55.406 27.6688V26.5227L54.3477 27.1302Z" fill="white"/>
<path d="M48.416 32.2593V33.4054L49.4807 32.798V31.6519L48.416 32.2593Z" fill="white"/>
<path d="M50.3994 31.1507V32.2968L51.4578 31.6893V30.5432L50.3994 31.1507Z" fill="white"/>
<path d="M52.3691 30.0107V31.1568L53.4275 30.5556V29.4032L52.3691 30.0107Z" fill="white"/>
<path d="M54.3477 28.9022V30.0483L55.406 29.4408V28.2947L54.3477 28.9022Z" fill="white"/>
<path d="M56.3408 26.028V27.1741L57.3992 26.5666V25.4205L56.3408 26.028Z" fill="white"/>
<path d="M56.3408 27.8V28.9461L57.3992 28.3386V27.1925L56.3408 27.8Z" fill="white"/>
<path d="M46.5237 29.7918V43.3945L45.5547 42.7808V29.153L46.5237 29.7918Z" fill="url(#paint6_linear)"/>
<path d="M45.5566 29.153L46.5257 29.7918L59.1239 22.5583L58.1484 21.9258L45.5566 29.153Z" fill="white"/>
<path d="M42.1238 31.3637V32.5035L41.0654 31.9023V30.7562L42.1238 31.3637Z" fill="white"/>
<path d="M40.1468 30.2488V31.3949L39.082 30.7937V29.6414L40.1468 30.2488Z" fill="white"/>
<path d="M38.1775 29.1155V30.2554L37.1191 29.6541V28.5081L38.1775 29.1155Z" fill="white"/>
<path d="M42.1238 33.1359V34.282L41.0654 33.6745V32.5284L42.1238 33.1359Z" fill="white"/>
<path d="M40.1468 32.0275V33.1674L39.082 32.5662V31.42L40.1468 32.0275Z" fill="white"/>
<path d="M38.1775 30.8875V32.0336L37.1191 31.4261V30.28L38.1775 30.8875Z" fill="white"/>
<path d="M38.5928 29.2093V30.1926L43.4637 30.2365L59.7852 20.9675L64.5924 15.5815V14.5043L38.5928 29.2093Z" fill="url(#paint7_linear)"/>
<path d="M38.5922 29.2094V30.1927L33.8232 27.4809V26.4225L38.5922 29.2094Z" fill="url(#paint8_linear)"/>
<path d="M33.8242 26.4225L38.5932 29.2094L64.5928 14.5044L59.8175 11.73L33.8242 26.4225Z" fill="white"/>
<path d="M45.1396 24.4621V26.5226L58.5156 18.9258V16.8215L45.1396 24.4621Z" fill="white"/>
<path d="M45.1398 24.462V26.5225L38.8662 22.9464V20.8672L45.1398 24.462Z" fill="white"/>
<path d="M38.8672 20.8671L45.1408 24.4619L58.5167 16.8213L52.2304 13.239L38.8672 20.8671Z" fill="url(#paint9_linear)"/>
<path d="M46.7129 44.8418V48.5243L57.8383 42.1613V38.4913L46.7129 44.8418Z" fill="white"/>
<path d="M46.9736 44.9859L57.5762 38.9423V42.0173L46.9736 48.0734V44.9859Z" fill="white"/>
<path d="M46.9736 44.9859V45.2614L57.487 39.2679V42.0674L57.5762 42.0173V38.9423L46.9736 44.9859Z" fill="white"/>
<path d="M46.7131 44.8417V48.5243L43.6592 46.8145V43.1257L46.7131 44.8417Z" fill="#004080"/>
<path d="M43.9219 46.6643V43.5704L46.4466 44.9921V48.0734L43.9219 46.6643Z" fill="#004080"/>
<path d="M43.6592 43.1258L46.7131 44.8418L57.8385 38.4913L54.7846 36.7816L43.6592 43.1258Z" fill="#004080"/>
<path d="M46.7129 41.0403V44.7228L57.8383 38.3598V34.6898L46.7129 41.0403Z" fill="white"/>
<path d="M46.9736 41.1844L57.5762 35.1409V38.2159L46.9736 44.272V41.1844Z" fill="white"/>
<path d="M46.9736 41.1845V41.46L57.487 35.4665V38.266L57.5762 38.2159V35.1409L46.9736 41.1845Z" fill="white"/>
<path d="M46.7131 41.0403V44.7229L43.6592 43.0131V39.3243L46.7131 41.0403Z" fill="#004080"/>
<path d="M43.9219 42.8628V39.769L46.4466 41.1907V44.2719L43.9219 42.8628Z" fill="#004080"/>
<path d="M43.6592 39.3244L46.7131 41.0404L57.8385 34.69L54.7846 32.9802L43.6592 39.3244Z" fill="#004080"/>
<path d="M58.3926 30.4311V34.1136L69.5179 27.7569V24.0869L58.3926 30.4311Z" fill="white"/>
<path d="M58.6533 30.5815L69.2559 24.538V27.6067L58.6533 33.6628V30.5815Z" fill="white"/>
<path d="M58.6533 30.5815V30.8508L69.1667 24.8574V27.6631L69.2559 27.6067V24.538L58.6533 30.5815Z" fill="white"/>
<path d="M58.3928 30.4312V34.1137L55.3389 32.4102V28.7152L58.3928 30.4312Z" fill="#004080"/>
<path d="M55.6006 32.2598V29.166L58.1253 30.5814V33.669L55.6006 32.2598Z" fill="#004080"/>
<path d="M55.3389 28.7151L58.3928 30.4311L69.5182 24.0869L66.4643 22.3708L55.3389 28.7151Z" fill="#004080"/>
<path d="M58.2088 30.6377V30.907L55.6523 29.4352V32.241L55.5566 32.1846V29.1158L58.2088 30.6377Z" fill="#004080"/>
<path d="M46.7129 37.0823V40.7648L57.8383 34.4081V30.738L46.7129 37.0823Z" fill="white"/>
<path d="M46.9736 37.2324L57.5762 31.1888V34.2576L46.9736 40.3137V37.2324Z" fill="white"/>
<path d="M46.9736 37.2324V37.5017L57.487 31.5082V34.314L57.5762 34.2576V31.1888L46.9736 37.2324Z" fill="white"/>
<path d="M46.7131 37.0823V40.7649L43.6592 39.0614V35.3726L46.7131 37.0823Z" fill="#004080"/>
<path d="M43.9219 38.9108V35.817L46.4466 37.2324V40.32L43.9219 38.9108Z" fill="#004080"/>
<path d="M43.6592 35.3725L46.7131 37.0823L57.8385 30.7381L54.7846 29.0283L43.6592 35.3725Z" fill="#004080"/>
<path d="M50.1504 46.7959V50.4784L61.2822 44.1217V40.4517L50.1504 46.7959Z" fill="white"/>
<path d="M50.416 46.9461L61.0186 40.9025V43.9713L50.416 50.0274V46.9461Z" fill="white"/>
<path d="M50.416 46.9461V47.2154L60.923 41.2219V44.0276L61.0186 43.9712V40.9025L50.416 46.9461Z" fill="white"/>
<path d="M50.1564 46.7959V50.4784L47.1025 48.775V45.0862L50.1564 46.7959Z" fill="#004080"/>
<path d="M47.3643 48.6245V45.5306L49.889 46.946V50.0336L47.3643 48.6245Z" fill="#004080"/>
<path d="M47.1025 45.0861L50.1564 46.7959L61.2818 40.4517L58.2279 38.7419L47.1025 45.0861Z" fill="#004080"/>
<path d="M50.1504 42.9942V46.6767L61.2822 40.32V36.65L50.1504 42.9942Z" fill="white"/>
<path d="M50.416 43.1444L61.0186 37.1008V40.1696L50.416 46.2257V43.1444Z" fill="white"/>
<path d="M50.416 43.1444V43.4137L60.923 37.4202V40.2259L61.0186 40.1696V37.1008L50.416 43.1444Z" fill="white"/>
<path d="M50.1564 42.9944V46.6769L47.1025 44.9734V41.2847L50.1564 42.9944Z" fill="#004080"/>
<path d="M47.3643 44.8233V41.7295L49.889 43.1449V46.2324L47.3643 44.8233Z" fill="#004080"/>
<path d="M47.1025 41.2847L50.1564 42.9944L61.2818 36.6502L58.2279 34.9342L47.1025 41.2847Z" fill="#004080"/>
<path d="M61.8301 32.3915V36.074L72.9619 29.7173V26.041L61.8301 32.3915Z" fill="white"/>
<path d="M62.0967 32.5418L72.6993 26.4919V29.567L62.0967 35.6231V32.5418Z" fill="white"/>
<path d="M62.0967 32.5418V32.8111L72.6037 26.8176V29.6171L72.6993 29.567V26.4919L62.0967 32.5418Z" fill="white"/>
<path d="M61.8361 32.3912V36.0737L58.7822 34.364V30.6752L61.8361 32.3912Z" fill="#004080"/>
<path d="M59.043 34.2138V31.12L61.5677 32.5417V35.6292L59.043 34.2138Z" fill="#004080"/>
<path d="M58.7822 30.6754L61.8361 32.3914L72.9615 26.0409L69.9076 24.3312L58.7822 30.6754Z" fill="#004080"/>
<path d="M50.1504 39.0425V42.725L61.2822 36.3683V32.692L50.1504 39.0425Z" fill="white"/>
<path d="M50.416 39.1927L61.0186 33.1428V36.2178L50.416 42.274V39.1927Z" fill="white"/>
<path d="M50.416 39.1927V39.462L60.923 33.4685V36.2679L61.0186 36.2178V33.1428L50.416 39.1927Z" fill="white"/>
<path d="M50.1564 39.0424V42.725L47.1025 41.0152V37.3264L50.1564 39.0424Z" fill="#004080"/>
<path d="M47.3643 40.865V37.7775L49.889 39.1929V42.2804L47.3643 40.865Z" fill="#004080"/>
<path d="M47.1025 37.3264L50.1564 39.0424L61.2818 32.6919L58.2279 30.9822L47.1025 37.3264Z" fill="#004080"/>
<path d="M53.5811 48.7185V52.4011L64.7065 46.0443V42.368L53.5811 48.7185Z" fill="white"/>
<path d="M53.8418 48.8688L64.4443 42.819V45.894L53.8418 51.9501V48.8688Z" fill="white"/>
<path d="M53.8418 48.8688V49.1381L64.3551 43.1446V45.9441L64.4443 45.894V42.819L53.8418 48.8688Z" fill="white"/>
<path d="M53.5793 48.7185V52.401L50.5254 50.6912V47.0024L53.5793 48.7185Z" fill="#004080"/>
<path d="M50.7881 50.541V47.4471L53.3128 48.8688V51.9564L50.7881 50.541Z" fill="#004080"/>
<path d="M50.5254 47.0027L53.5793 48.7187L64.7047 42.3682L61.6508 40.6584L50.5254 47.0027Z" fill="#004080"/>
<path d="M53.5811 44.917V48.5995L64.7065 42.2428V38.5665L53.5811 44.917Z" fill="white"/>
<path d="M53.8418 45.0673L64.4443 39.0175V42.0925L53.8418 48.1486V45.0673Z" fill="white"/>
<path d="M53.8418 45.0673V45.3366L64.3551 39.3431V42.1426L64.4443 42.0925V39.0175L53.8418 45.0673Z" fill="white"/>
<path d="M53.5793 44.9169V48.5995L50.5254 46.8897V43.2009L53.5793 44.9169Z" fill="#004080"/>
<path d="M50.7881 46.7393V43.6455L53.3128 45.0671V48.1547L50.7881 46.7393Z" fill="#004080"/>
<path d="M50.5254 43.2009L53.5793 44.9169L64.7047 38.5664L61.6508 36.8567L50.5254 43.2009Z" fill="#004080"/>
<path d="M65.2598 34.3077V37.9902L76.3852 31.6335V27.9635L65.2598 34.3077Z" fill="white"/>
<path d="M65.5195 34.4581L76.1222 28.4146V31.4833L65.5195 37.5394V34.4581Z" fill="white"/>
<path d="M65.5195 34.4581V34.7274L76.0329 28.734V31.5397L76.1222 31.4833V28.4146L65.5195 34.4581Z" fill="white"/>
<path d="M65.259 34.3078V37.9903L62.2051 36.2868V32.598L65.259 34.3078Z" fill="#004080"/>
<path d="M62.4658 36.1364V33.0426L64.9905 34.458V37.5455L62.4658 36.1364Z" fill="#004080"/>
<path d="M62.2051 32.5979L65.259 34.3076L76.3844 27.9634L73.3305 26.2537L62.2051 32.5979Z" fill="#004080"/>
<path d="M53.5811 40.959V44.6415L64.7065 38.2847V34.6147L53.5811 40.959Z" fill="white"/>
<path d="M53.8418 41.1093L64.4443 35.0657V38.1344L53.8418 44.1906V41.1093Z" fill="white"/>
<path d="M53.8418 41.1092V41.3848L64.3551 35.3913V38.1908L64.4443 38.1344V35.0657L53.8418 41.1092Z" fill="white"/>
<path d="M53.5793 40.9589V44.6414L50.5254 42.9379V39.2491L53.5793 40.9589Z" fill="#004080"/>
<path d="M50.7881 42.7876V39.6937L53.3128 41.1154V44.1967L50.7881 42.7876Z" fill="#004080"/>
<path d="M50.5254 39.2491L53.5793 40.9589L64.7047 34.6147L61.6508 32.9049L50.5254 39.2491Z" fill="#004080"/>
<path d="M56.9844 50.5971V54.2796L68.1161 47.9229V44.2529L56.9844 50.5971Z" fill="white"/>
<path d="M57.2451 50.7478L67.8478 44.7042V47.773L57.2451 53.8291V50.7478Z" fill="white"/>
<path d="M57.2451 50.7478V51.0171L67.7585 45.0236V47.8294L67.8478 47.773V44.7042L57.2451 50.7478Z" fill="white"/>
<path d="M56.9846 50.5972V54.2797L53.9307 52.5762V48.8875L56.9846 50.5972Z" fill="#004080"/>
<path d="M54.1904 52.4262V49.3324L56.7215 50.7478V53.8353L54.1904 52.4262Z" fill="#004080"/>
<path d="M53.9307 48.8876L56.9846 50.5974L68.1163 44.2532L65.0561 42.5435L53.9307 48.8876Z" fill="#004080"/>
<path d="M56.9844 46.7957V50.4783L68.1161 44.1215V40.4515L56.9844 46.7957Z" fill="white"/>
<path d="M57.2451 46.9461L67.8478 40.9025V43.9713L57.2451 50.0274V46.9461Z" fill="white"/>
<path d="M57.2451 46.9461V47.2154L67.7585 41.2219V44.0276L67.8478 43.9712V40.9025L57.2451 46.9461Z" fill="white"/>
<path d="M56.9846 46.7959V50.4784L53.9307 48.775V45.0862L56.9846 46.7959Z" fill="#004080"/>
<path d="M54.1904 48.6245V45.5306L56.7215 46.946V50.0336L54.1904 48.6245Z" fill="#004080"/>
<path d="M53.9307 45.0861L56.9846 46.7959L68.1163 40.4517L65.0561 38.7419L53.9307 45.0861Z" fill="#004080"/>
<path d="M68.665 36.1927V39.8753L79.7969 33.5185V29.8423L68.665 36.1927Z" fill="white"/>
<path d="M68.9258 36.3432L79.5284 30.2933V33.3684L68.9258 39.4245V36.3432Z" fill="white"/>
<path d="M68.9258 36.3432V36.6125L79.4392 30.619V33.4185L79.5284 33.3684V30.2933L68.9258 36.3432Z" fill="white"/>
<path d="M68.6643 36.1928V39.8753L65.6104 38.1656V34.4768L68.6643 36.1928Z" fill="#004080"/>
<path d="M65.874 38.0153V34.9215L68.4051 36.3432V39.4307L65.874 38.0153Z" fill="#004080"/>
<path d="M65.6104 34.4768L68.6643 36.1928L79.796 29.8423L76.7357 28.1326L65.6104 34.4768Z" fill="#004080"/>
<path d="M56.9844 42.844V46.5266L68.1161 40.1698V36.4935L56.9844 42.844Z" fill="white"/>
<path d="M57.2451 42.9942L67.8478 36.9443V40.0194L57.2451 46.0755V42.9942Z" fill="white"/>
<path d="M57.2451 42.9942V43.2635L67.7585 37.27V40.0695L67.8478 40.0194V36.9443L57.2451 42.9942Z" fill="white"/>
<path d="M56.9846 42.8441V46.5266L53.9307 44.8169V41.1281L56.9846 42.8441Z" fill="#004080"/>
<path d="M54.1904 44.6663V41.5787L56.7215 42.9941V46.0817L54.1904 44.6663Z" fill="#004080"/>
<path d="M53.9307 41.128L56.9846 42.844L68.1163 36.4936L65.0561 34.7838L53.9307 41.128Z" fill="#004080"/>
<path d="M60.3633 52.52V56.2026L71.4887 49.8458V46.1696L60.3633 52.52Z" fill="white"/>
<path d="M60.623 52.6702L71.2257 46.6204V49.6954L60.623 55.7515V52.6702Z" fill="white"/>
<path d="M60.623 52.6702V52.9395L71.1364 46.946V49.7455L71.2257 49.6954V46.6204L60.623 52.6702Z" fill="white"/>
<path d="M60.3644 52.5202V56.2027L57.3105 54.493V50.8042L60.3644 52.5202Z" fill="#004080"/>
<path d="M57.5713 54.3426V51.255L60.096 52.6704V55.7579L57.5713 54.3426Z" fill="#004080"/>
<path d="M57.3105 50.8043L60.3644 52.5203L71.4898 46.1698L68.4359 44.4601L57.3105 50.8043Z" fill="#004080"/>
<path d="M60.3633 48.7185V52.4011L71.4887 46.0443V42.368L60.3633 48.7185Z" fill="white"/>
<path d="M60.623 48.8688L71.2257 42.819V45.894L60.623 51.9501V48.8688Z" fill="white"/>
<path d="M60.623 48.8688V49.1381L71.1364 43.1446V45.9441L71.2257 45.894V42.819L60.623 48.8688Z" fill="white"/>
<path d="M60.3644 48.7185V52.401L57.3105 50.6912V47.0024L60.3644 48.7185Z" fill="#004080"/>
<path d="M57.5713 50.541V47.4471L60.096 48.8688V51.9564L57.5713 50.541Z" fill="#004080"/>
<path d="M57.3105 47.0027L60.3644 48.7187L71.4898 42.3682L68.4359 40.6584L57.3105 47.0027Z" fill="#004080"/>
<path d="M72.043 38.1093V41.7919L83.1684 35.4351V31.7651L72.043 38.1093Z" fill="white"/>
<path d="M72.3047 38.2597L82.9073 32.2162V35.2849L72.3047 41.341V38.2597Z" fill="white"/>
<path d="M72.3047 38.2597V38.5353L82.8181 32.5419V35.3413L82.9073 35.2849V32.2162L72.3047 38.2597Z" fill="white"/>
<path d="M72.0422 38.1093V41.7918L68.9883 40.0883V36.3995L72.0422 38.1093Z" fill="#004080"/>
<path d="M69.252 39.9379V36.8441L71.7767 38.2595V41.3471L69.252 39.9379Z" fill="#004080"/>
<path d="M68.9883 36.3996L72.0422 38.1093L83.1676 31.7652L80.1137 30.0554L68.9883 36.3996Z" fill="#004080"/>
<path d="M60.3633 44.7666V48.4492L71.4887 42.0861V38.4161L60.3633 44.7666Z" fill="white"/>
<path d="M60.623 44.9105L71.2257 38.8669V41.9357L60.623 47.9981V44.9105Z" fill="white"/>
<path d="M60.623 44.9106V45.1861L71.1364 39.1926V41.9921L71.2257 41.9357V38.8669L60.623 44.9106Z" fill="white"/>
<path d="M60.3644 44.7669V48.4494L57.3105 46.7397V43.0509L60.3644 44.7669Z" fill="#004080"/>
<path d="M57.5713 46.5891V43.4952L60.096 44.9169V47.9982L57.5713 46.5891Z" fill="#004080"/>
<path d="M57.3105 43.0505L60.3644 44.7665L71.4898 38.416L68.4359 36.7063L57.3105 43.0505Z" fill="#004080"/>
<path d="M63.7822 54.5366V58.2129L74.9076 51.8562V48.1862L63.7822 54.5366Z" fill="white"/>
<path d="M64.042 54.6807L74.6446 48.6371V51.7059L64.042 57.7682V54.6807Z" fill="white"/>
<path d="M64.042 54.6807V54.9563L74.5553 48.9628V51.7622L74.6446 51.7059V48.6371L64.042 54.6807Z" fill="white"/>
<path d="M63.7805 54.5366V58.2128L60.7266 56.5094V52.8206L63.7805 54.5366Z" fill="#004080"/>
<path d="M60.9873 56.3591V53.2653L63.5121 54.6869V57.7682L60.9873 56.3591Z" fill="#004080"/>
<path d="M60.7266 52.8205L63.7805 54.5365L74.9058 48.1861L71.852 46.4763L60.7266 52.8205Z" fill="#004080"/>
<path d="M63.7822 50.735V54.4113L74.9076 48.0545V44.3845L63.7822 50.735Z" fill="white"/>
<path d="M64.042 50.8791L74.6446 44.8356V47.9043L64.042 53.9667V50.8791Z" fill="white"/>
<path d="M64.042 50.8792V51.1548L74.5553 45.1612V47.9607L74.6446 47.9044V44.8356L64.042 50.8792Z" fill="white"/>
<path d="M63.7805 50.7351V54.4113L60.7266 52.7079V49.019L63.7805 50.7351Z" fill="#004080"/>
<path d="M60.9873 52.5575V49.4636L63.5121 50.8853V53.9666L60.9873 52.5575Z" fill="#004080"/>
<path d="M60.7266 49.019L63.7805 50.735L74.9058 44.3846L71.852 42.6748L60.7266 49.019Z" fill="#004080"/>
<path d="M75.459 40.126V43.8085L86.5843 37.4517V33.7817L75.459 40.126Z" fill="white"/>
<path d="M75.7217 40.2764L86.3243 34.2266V37.3016L75.7217 43.3577V40.2764Z" fill="white"/>
<path d="M75.7217 40.2764V40.5457L86.2286 34.5522V37.3517L86.3243 37.3016V34.2266L75.7217 40.2764Z" fill="white"/>
<path d="M75.4592 40.1259V43.8084L72.4053 42.1049V38.4099L75.4592 40.1259Z" fill="#004080"/>
<path d="M72.6689 41.9545V38.8607L75.1937 40.2761V43.3636L72.6689 41.9545Z" fill="#004080"/>
<path d="M72.4082 38.41L75.4621 40.126L86.5876 33.7818L83.5337 32.0658L72.4082 38.41Z" fill="#004080"/>
<path d="M63.7822 46.7769V50.4594L74.9076 44.1027V40.4327L63.7822 46.7769Z" fill="white"/>
<path d="M64.042 46.9274L74.6446 40.8838V43.9526L64.042 50.0087V46.9274Z" fill="white"/>
<path d="M64.042 46.9274V47.1967L74.5553 41.2032V44.0089L74.6446 43.9526V40.8838L64.042 46.9274Z" fill="white"/>
<path d="M63.7805 46.777V50.4595L60.7266 48.756V45.0673L63.7805 46.777Z" fill="#004080"/>
<path d="M60.9873 48.6058V45.512L63.5121 46.9274V50.0149L60.9873 48.6058Z" fill="#004080"/>
<path d="M60.7266 45.0673L63.7805 46.777L74.9058 40.4328L71.852 38.7168L60.7266 45.0673Z" fill="#004080"/>
<path d="M67.2178 56.4907V60.1732L78.3496 53.8165V50.1465L67.2178 56.4907Z" fill="white"/>
<path d="M67.4844 56.6407L78.087 50.5972V53.6659L67.4844 59.722V56.6407Z" fill="white"/>
<path d="M67.4844 56.6407V56.91L77.9914 50.9166V53.7223L78.087 53.6659V50.5972L67.4844 56.6407Z" fill="white"/>
<path d="M67.2208 56.4907V60.1732L64.167 58.4697V54.7747L67.2208 56.4907Z" fill="#004080"/>
<path d="M64.4307 58.3191V55.2252L66.9554 56.6406V59.7282L64.4307 58.3191Z" fill="#004080"/>
<path d="M64.167 54.7747L67.2209 56.4907L78.3462 50.1464L75.2923 48.4304L64.167 54.7747Z" fill="#004080"/>
<path d="M67.2178 52.689V56.3716L78.3496 50.0148V46.3448L67.2178 52.689Z" fill="white"/>
<path d="M67.4844 52.8394L78.087 46.7958V49.8646L67.4844 55.9207V52.8394Z" fill="white"/>
<path d="M67.4844 52.8394V53.1087L77.9914 47.1152V49.9147L78.087 49.8646V46.7958L67.4844 52.8394Z" fill="white"/>
<path d="M67.2208 52.689V56.3715L64.167 54.6681V50.973L67.2208 52.689Z" fill="#004080"/>
<path d="M64.4307 54.5178V51.424L66.9554 52.8393V55.9269L64.4307 54.5178Z" fill="#004080"/>
<path d="M64.167 50.9732L67.2209 52.6892L78.3462 46.345L75.2923 44.629L64.167 50.9732Z" fill="#004080"/>
<path d="M78.8965 42.0863V45.7688L90.0283 39.4058V35.7358L78.8965 42.0863Z" fill="white"/>
<path d="M79.165 42.2365L89.7677 36.1866V39.2617L79.165 45.3178V42.2365Z" fill="white"/>
<path d="M79.165 42.2365V42.5058L89.6721 36.5123V39.3118L89.7677 39.2617V36.1866L79.165 42.2365Z" fill="white"/>
<path d="M78.9045 42.0865V45.769L75.8506 44.0593V40.3705L78.9045 42.0865Z" fill="#004080"/>
<path d="M76.1104 43.9089V40.8151L78.6351 42.2367V45.3181L76.1104 43.9089Z" fill="#004080"/>
<path d="M75.8506 40.3704L78.9045 42.0864L90.0299 35.736L86.976 34.0262L75.8506 40.3704Z" fill="#004080"/>
<path d="M78.7176 42.2866V42.5622L76.1611 41.0904V43.8899L76.0654 43.8398V40.7648L78.7176 42.2866Z" fill="#004080"/>
<path d="M67.2178 48.7373V52.4198L78.3496 46.0631V42.3868L67.2178 48.7373Z" fill="white"/>
<path d="M67.4844 48.8877L78.087 42.8379V45.9129L67.4844 51.969V48.8877Z" fill="white"/>
<path d="M67.4844 48.8877V49.157L77.9914 43.1635V45.963L78.087 45.9129V42.8379L67.4844 48.8877Z" fill="white"/>
<path d="M67.2208 48.7374V52.4199L64.167 50.7102V47.0214L67.2208 48.7374Z" fill="#004080"/>
<path d="M64.4307 50.5596V47.4658L66.9554 48.8875V51.975L64.4307 50.5596Z" fill="#004080"/>
<path d="M64.167 47.0212L67.2209 48.7372L78.3462 42.3868L75.2923 40.677L64.167 47.0212Z" fill="#004080"/>
<path d="M70.6475 58.4134V62.0959L81.7729 55.7329V52.0629L70.6475 58.4134Z" fill="white"/>
<path d="M70.9072 58.5635L81.5098 52.5137V55.5887L70.9072 61.6448V58.5635Z" fill="white"/>
<path d="M70.9072 58.5635V58.8328L81.4205 52.8393V55.6388L81.5098 55.5887V52.5137L70.9072 58.5635Z" fill="white"/>
<path d="M70.6467 58.4131V62.0956L67.5928 60.3859V56.6971L70.6467 58.4131Z" fill="#004080"/>
<path d="M67.8535 60.236V57.1421L70.3782 58.5638V61.6451L67.8535 60.236Z" fill="#004080"/>
<path d="M67.5928 56.6975L70.6467 58.4135L81.7721 52.063L78.7182 50.3533L67.5928 56.6975Z" fill="#004080"/>
<path d="M70.6475 54.6118V58.2944L81.7729 51.9314V48.2614L70.6475 54.6118Z" fill="white"/>
<path d="M70.9072 54.7618L81.5098 48.7119V51.787L70.9072 57.8431V54.7618Z" fill="white"/>
<path d="M70.9072 54.7618V55.0311L81.4205 49.0376V51.8371L81.5098 51.787V48.7119L70.9072 54.7618Z" fill="white"/>
<path d="M70.6467 54.6119V58.2944L67.5928 56.5847V52.8959L70.6467 54.6119Z" fill="#004080"/>
<path d="M67.8535 56.4343V53.3405L70.3782 54.7621V57.8434L67.8535 56.4343Z" fill="#004080"/>
<path d="M67.5928 52.8957L70.6467 54.6117L81.7721 48.2613L78.7182 46.5515L67.5928 52.8957Z" fill="#004080"/>
<path d="M82.3281 44.0026V47.6851L93.4535 41.3283V37.6583L82.3281 44.0026Z" fill="white"/>
<path d="M82.5889 44.1529L93.1914 38.1094V41.1781L82.5889 47.2342V44.1529Z" fill="white"/>
<path d="M82.5889 44.1529V44.4222L93.0958 38.4288V41.2345L93.1914 41.1781V38.1094L82.5889 44.1529Z" fill="white"/>
<path d="M82.3264 44.0025V47.685L79.2725 45.9815V42.2927L82.3264 44.0025Z" fill="#004080"/>
<path d="M79.5342 45.8313V42.7374L82.0589 44.1528V47.2404L79.5342 45.8313Z" fill="#004080"/>
<path d="M79.2725 42.2927L82.3264 44.0025L93.4518 37.6583L90.3978 35.9423L79.2725 42.2927Z" fill="#004080"/>
<path d="M70.6475 50.6538V54.3363L81.7729 47.9796V44.3096L70.6475 50.6538Z" fill="white"/>
<path d="M70.9072 50.8042L81.5098 44.7606V47.8294L70.9072 53.8855V50.8042Z" fill="white"/>
<path d="M70.9072 50.8042V51.0798L81.4205 45.08V47.8858L81.5098 47.8294V44.7606L70.9072 50.8042Z" fill="white"/>
<path d="M70.6467 50.6536V54.3361L67.5928 52.6326V48.9438L70.6467 50.6536Z" fill="#004080"/>
<path d="M67.8535 52.4823V49.3884L70.3782 50.8038V53.8914L67.8535 52.4823Z" fill="#004080"/>
<path d="M67.5928 48.9438L70.6467 50.6536L81.7721 44.3093L78.7182 42.5996L67.5928 48.9438Z" fill="#004080"/>
<path d="M74.0518 60.2921V63.9747L85.1836 57.6179V53.9479L74.0518 60.2921Z" fill="white"/>
<path d="M74.3135 60.4423L84.9161 54.3987V57.4674L74.3135 63.5235V60.4423Z" fill="white"/>
<path d="M74.3135 60.4423V60.7116L84.8268 54.7181V57.5238L84.9161 57.4675V54.3987L74.3135 60.4423Z" fill="white"/>
<path d="M74.052 60.2922V63.9748L70.998 62.2713V58.5762L74.052 60.2922Z" fill="#004080"/>
<path d="M71.2588 62.1207V59.0269L73.7898 60.4423V63.5298L71.2588 62.1207Z" fill="#004080"/>
<path d="M70.998 58.5763L74.052 60.2923L85.1837 53.9481L82.1235 52.2321L70.998 58.5763Z" fill="#004080"/>
<path d="M74.0518 56.4907V60.1732L85.1836 53.8165V50.1465L74.0518 56.4907Z" fill="white"/>
<path d="M74.3135 56.6407L84.9161 50.5972V53.6659L74.3135 59.722V56.6407Z" fill="white"/>
<path d="M74.3135 56.6407V56.91L84.8268 50.9166V53.7223L84.9161 53.6659V50.5972L74.3135 56.6407Z" fill="white"/>
<path d="M74.052 56.4907V60.1732L70.998 58.4697V54.7747L74.052 56.4907Z" fill="#004080"/>
<path d="M71.2588 58.3191V55.2252L73.7898 56.6406V59.7282L71.2588 58.3191Z" fill="#004080"/>
<path d="M70.998 54.7747L74.052 56.4907L85.1837 50.1464L82.1235 48.4304L70.998 54.7747Z" fill="#004080"/>
<path d="M85.7324 45.8877V49.5703L96.8642 43.2072V39.5372L85.7324 45.8877Z" fill="white"/>
<path d="M85.9941 46.038L96.5968 39.9882V43.0632L85.9941 49.1193V46.038Z" fill="white"/>
<path d="M85.9941 46.0381V46.3074L96.5075 40.3138V43.1133L96.5968 43.0632V39.9882L85.9941 46.0381Z" fill="white"/>
<path d="M85.7307 45.8876V49.5701L82.6768 47.8604V44.1716L85.7307 45.8876Z" fill="#004080"/>
<path d="M82.9395 47.7103V44.6165L85.4705 46.0381V49.1194L82.9395 47.7103Z" fill="#004080"/>
<path d="M82.6768 44.1716L85.7307 45.8876L96.8624 39.5371L93.8022 37.8274L82.6768 44.1716Z" fill="#004080"/>
<path d="M74.0518 52.5388V56.2214L85.1836 49.8646V46.1884L74.0518 52.5388Z" fill="white"/>
<path d="M74.3135 52.6891L84.9161 46.6393V49.7143L74.3135 55.7704V52.6891Z" fill="white"/>
<path d="M74.3135 52.6891V52.9584L84.8268 46.9649V49.7644L84.9161 49.7143V46.6393L74.3135 52.6891Z" fill="white"/>
<path d="M74.052 52.5388V56.2213L70.998 54.5115V50.8228L74.052 52.5388Z" fill="#004080"/>
<path d="M71.2588 54.3614V51.2676L73.7898 52.6892V55.7768L71.2588 54.3614Z" fill="#004080"/>
<path d="M70.998 50.8227L74.052 52.5387L85.1837 46.1882L82.1235 44.4785L70.998 50.8227Z" fill="#004080"/>
<path d="M77.4297 62.2146V65.8972L88.555 59.5341V55.8641L77.4297 62.2146Z" fill="white"/>
<path d="M77.6924 62.3652L88.295 56.3154V59.3904L77.6924 65.4465V62.3652Z" fill="white"/>
<path d="M77.6924 62.3652V62.6345L88.2057 56.6411V59.4405L88.295 59.3904V56.3154L77.6924 62.3652Z" fill="white"/>
<path d="M77.4299 62.2149V65.8974L74.376 64.1877V60.4989L77.4299 62.2149Z" fill="#004080"/>
<path d="M74.6387 64.0373V60.9435L77.1635 62.3651V65.4527L74.6387 64.0373Z" fill="#004080"/>
<path d="M74.376 60.4988L77.4299 62.2148L88.5552 55.8643L85.5013 54.1545L74.376 60.4988Z" fill="#004080"/>
<path d="M77.4297 58.4134V62.0959L88.555 55.7329V52.0629L77.4297 58.4134Z" fill="white"/>
<path d="M77.6924 58.5635L88.295 52.5137V55.5887L77.6924 61.6448V58.5635Z" fill="white"/>
<path d="M77.6924 58.5635V58.8328L88.2057 52.8393V55.6388L88.295 55.5887V52.5137L77.6924 58.5635Z" fill="white"/>
<path d="M77.4299 58.4131V62.0956L74.376 60.3859V56.6971L77.4299 58.4131Z" fill="#004080"/>
<path d="M74.6387 60.236V57.1421L77.1635 58.5638V61.6514L74.6387 60.236Z" fill="#004080"/>
<path d="M74.376 56.6975L77.4299 58.4135L88.5552 52.063L85.5013 50.3533L74.376 56.6975Z" fill="#004080"/>
<path d="M89.1104 47.8042V51.4867L100.236 45.13V41.46L89.1104 47.8042Z" fill="white"/>
<path d="M89.3721 47.9545L99.9746 41.9109V44.9797L89.3721 51.0357V47.9545Z" fill="white"/>
<path d="M89.3721 47.9545V48.2238L99.879 42.2303V45.036L99.9746 44.9797V41.9109L89.3721 47.9545Z" fill="white"/>
<path d="M89.1105 47.804V51.4865L86.0566 49.783V46.0942L89.1105 47.804Z" fill="#004080"/>
<path d="M86.3193 49.6326V46.5388L88.8441 47.9542V51.0418L86.3193 49.6326Z" fill="#004080"/>
<path d="M86.0566 46.0943L89.1106 47.804L100.236 41.4599L97.1821 39.7501L86.0566 46.0943Z" fill="#004080"/>
<path d="M77.4297 54.4551V58.1377L88.555 51.7809V48.111L77.4297 54.4551Z" fill="white"/>
<path d="M77.6924 54.6054L88.295 48.5619V51.6306L77.6924 57.6867V54.6054Z" fill="white"/>
<path d="M77.6924 54.6054V54.881L88.2057 48.8875V51.687L88.295 51.6306V48.5619L77.6924 54.6054Z" fill="white"/>
<path d="M77.4299 54.4551V58.1376L74.376 56.4341V52.7454L77.4299 54.4551Z" fill="#004080"/>
<path d="M74.6387 56.2839V53.1901L77.1635 54.6054V57.693L74.6387 56.2839Z" fill="#004080"/>
<path d="M74.376 52.7454L77.4299 54.4552L88.5552 48.111L85.5013 46.4012L74.376 52.7454Z" fill="#004080"/>
<path d="M80.8486 64.2691V67.9516L91.974 61.5949V57.9249L80.8486 64.2691Z" fill="white"/>
<path d="M81.1094 64.4193L91.7119 58.3757V61.4445L81.1094 67.5006V64.4193Z" fill="white"/>
<path d="M81.1094 64.4194V64.6887L91.6163 58.6951V61.5009L91.7119 61.4445V58.3757L81.1094 64.4194Z" fill="white"/>
<path d="M80.8488 64.269V67.9515L77.7949 66.248V62.5592L80.8488 64.269Z" fill="#004080"/>
<path d="M78.0557 66.0978V63.004L80.5805 64.4194V67.5069L78.0557 66.0978Z" fill="#004080"/>
<path d="M77.7949 62.5594L80.8488 64.2691L91.9742 57.9249L88.9203 56.2152L77.7949 62.5594Z" fill="#004080"/>
<path d="M80.8486 60.4675V64.1501L91.974 57.7933V54.1233L80.8486 60.4675Z" fill="white"/>
<path d="M81.1094 60.6178L91.7119 54.5742V57.643L81.1094 63.6991V60.6178Z" fill="#004080"/>
<path d="M81.1094 60.6178V60.8871L91.6163 54.8936V57.6994L91.7119 57.643V54.5742L81.1094 60.6178Z" fill="#004080"/>
<path d="M80.8488 60.4674V64.15L77.7949 62.4465V58.7577L80.8488 60.4674Z" fill="#004080"/>
<path d="M78.0557 62.2961V59.2023L80.5805 60.6177V63.7052L78.0557 62.2961Z" fill="#004080"/>
<path d="M77.7949 58.7577L80.8488 60.4675L91.9742 54.1232L88.9203 52.4072L77.7949 58.7577Z" fill="#004080"/>
<path d="M92.5293 49.8646V53.5471L103.655 47.1903V43.514L92.5293 49.8646Z" fill="white"/>
<path d="M92.7891 50.0148L103.392 43.965V47.04L92.7891 53.0961V50.0148Z" fill="white"/>
<path d="M92.7891 50.0149V50.2842L103.296 44.2906V47.0901L103.392 47.04V43.965L92.7891 50.0149Z" fill="white"/>
<path d="M92.5275 49.8644V53.5469L89.4736 51.8372V48.1484L92.5275 49.8644Z" fill="#004080"/>
<path d="M89.7354 51.6871V48.5933L92.2601 50.0149V53.1025L89.7354 51.6871Z" fill="#004080"/>
<path d="M89.4736 48.1485L92.5275 49.8645L103.653 43.5141L100.599 41.8043L89.4736 48.1485Z" fill="#004080"/>
<path d="M80.8486 56.5156V60.1981L91.974 53.8414V50.1652L80.8486 56.5156Z" fill="white"/>
<path d="M81.1094 56.6658L91.7119 50.616V53.691L81.1094 59.7472V56.6658Z" fill="white"/>
<path d="M81.1094 56.6658V56.9351L91.6163 50.9416V53.7411L91.7119 53.691V50.616L81.1094 56.6658Z" fill="white"/>
<path d="M80.8488 56.5157V60.1982L77.7949 58.4885V54.7997L80.8488 56.5157Z" fill="#004080"/>
<path d="M78.0557 58.338V55.2505L80.5805 56.6659V59.7534L78.0557 58.338Z" fill="#004080"/>
<path d="M77.7949 54.7996L80.8488 56.5156L91.9742 50.1652L88.9203 48.4554L77.7949 54.7996Z" fill="#004080"/>
<path d="M84.2832 66.2294V69.9119L95.415 63.5552V59.8789L84.2832 66.2294Z" fill="white"/>
<path d="M84.5518 66.3798L95.1544 60.33V63.405L84.5518 69.4611V66.3798Z" fill="white"/>
<path d="M84.5518 66.3798V66.6491L95.0587 60.6556V63.4551L95.1544 63.405V60.33L84.5518 66.3798Z" fill="white"/>
<path d="M84.2858 66.2292V69.9117L81.2383 68.202V64.5132L84.2858 66.2292Z" fill="#004080"/>
<path d="M81.4971 68.0517V64.9641L84.0218 66.3795V69.467L81.4971 68.0517Z" fill="#004080"/>
<path d="M81.2383 64.5134L84.2858 66.2294L95.4176 59.8789L92.3637 58.1692L81.2383 64.5134Z" fill="#004080"/>
<path d="M84.2832 62.4277V66.1102L95.415 59.7535V56.0773L84.2832 62.4277Z" fill="white"/>
<path d="M84.5518 62.5782L95.1544 56.5283V59.6033L84.5518 65.6595V62.5782Z" fill="white"/>
<path d="M84.5518 62.5782V62.8475L95.0587 56.854V59.6535L95.1544 59.6034V56.5283L84.5518 62.5782Z" fill="white"/>
<path d="M84.2858 62.4278V66.1103L81.2383 64.4006V60.7118L84.2858 62.4278Z" fill="#004080"/>
<path d="M81.4971 64.2502V61.1564L84.0218 62.578V65.6656L81.4971 64.2502Z" fill="#004080"/>
<path d="M81.2383 60.7117L84.2858 62.4277L95.4176 56.0772L92.3637 54.3674L81.2383 60.7117Z" fill="#004080"/>
<path d="M95.9639 51.8186V55.5011L107.096 49.1444V45.4744L95.9639 51.8186Z" fill="white"/>
<path d="M96.2324 51.9689L106.835 45.9253V48.9941L96.2324 55.0502V51.9689Z" fill="white"/>
<path d="M96.2324 51.9689V52.2445L106.739 46.251V49.0504L106.835 48.9941V45.9253L96.2324 51.9689Z" fill="white"/>
<path d="M95.9645 51.8185V55.5011L92.917 53.7976V50.1088L95.9645 51.8185Z" fill="#004080"/>
<path d="M93.1777 53.6473V50.5535L95.7025 51.9689V55.0564L93.1777 53.6473Z" fill="#004080"/>
<path d="M92.917 50.1089L95.9645 51.8186L107.096 45.4744L104.042 43.7646L92.917 50.1089Z" fill="#004080"/>
<path d="M84.2832 58.4759V62.1584L95.415 55.7955V52.1255L84.2832 58.4759Z" fill="white"/>
<path d="M84.5518 58.62L95.1544 52.5764V55.6452L84.5518 61.7076V58.62Z" fill="white"/>
<path d="M84.5518 58.62V58.8956L95.0587 52.9021V55.7015L95.1544 55.6452V52.5764L84.5518 58.62Z" fill="white"/>
<path d="M84.2858 58.4759V62.1584L81.2383 60.4487V56.7599L84.2858 58.4759Z" fill="#004080"/>
<path d="M81.4971 60.2983V57.2045L84.0218 58.6261V61.7074L81.4971 60.2983Z" fill="#004080"/>
<path d="M81.2383 56.7598L84.2858 58.4758L95.4176 52.1254L92.3637 50.4156L81.2383 56.7598Z" fill="#004080"/>
<path d="M87.7148 68.1456V71.8282L98.8403 65.4714V61.8014L87.7148 68.1456Z" fill="white"/>
<path d="M87.9756 68.296L98.5782 62.2524V65.3212L87.9756 71.3773V68.296Z" fill="white"/>
<path d="M87.9756 68.2961V68.5716L98.4826 62.5781V65.3776L98.5782 65.3212V62.2524L87.9756 68.2961Z" fill="white"/>
<path d="M87.7151 68.1456V71.8281L84.6611 70.1247V66.4359L87.7151 68.1456Z" fill="#004080"/>
<path d="M84.9219 69.9744V66.8806L87.4466 68.296V71.3836L84.9219 69.9744Z" fill="#004080"/>
<path d="M84.6592 66.436L87.7131 68.1458L98.8386 61.8015L95.7846 60.0918L84.6592 66.436Z" fill="#004080"/>
<path d="M87.7148 64.3442V68.0267L98.8403 61.67V58L87.7148 64.3442Z" fill="white"/>
<path d="M87.9756 64.4945L98.5782 58.4509V61.5197L87.9756 67.5759V64.4945Z" fill="white"/>
<path d="M87.7151 64.3441V68.0267L84.6611 66.3232V62.6344L87.7151 64.3441Z" fill="#004080"/>
<path d="M84.9219 66.1731V63.0792L87.4466 64.4946V67.5822L84.9219 66.1731Z" fill="#004080"/>
<path d="M84.6592 62.6342L87.7131 64.344L98.8386 57.9998L95.7846 56.29L84.6592 62.6342Z" fill="#004080"/>
<path d="M99.3896 53.7411V57.4237L110.521 51.0669V47.3906L99.3896 53.7411Z" fill="white"/>
<path d="M99.6553 53.8913L110.258 47.8414V50.9165L99.6553 56.9725V53.8913Z" fill="white"/>
<path d="M99.6553 53.8913V54.1606L110.162 48.1671V50.9666L110.258 50.9165V47.8414L99.6553 53.8913Z" fill="white"/>
<path d="M99.3947 53.741V57.4235L96.3408 55.7138V52.025L99.3947 53.741Z" fill="#004080"/>
<path d="M96.6045 55.5636V52.4761L99.1292 53.8915V56.979L96.6045 55.5636Z" fill="#004080"/>
<path d="M96.3408 52.0253L99.3948 53.7413L110.52 47.3909L107.466 45.6812L96.3408 52.0253Z" fill="#004080"/>
<path d="M87.7148 60.3923V64.0748L98.8403 57.7181V54.0481L87.7148 60.3923Z" fill="white"/>
<path d="M87.9756 60.5424L98.5782 54.4926V57.5676L87.9756 63.6237V60.5424Z" fill="white"/>
<path d="M87.9756 60.5424V60.8117L98.4826 54.8182V57.6177L98.5782 57.5676V54.4926L87.9756 60.5424Z" fill="white"/>
<path d="M87.7151 60.3923V64.0748L84.6611 62.3713V58.6763L87.7151 60.3923Z" fill="#004080"/>
<path d="M84.9219 62.221V59.1272L87.4466 60.5426V63.6301L84.9219 62.221Z" fill="#004080"/>
<path d="M84.6592 58.6763L87.7131 60.3923L98.8386 54.048L95.7846 52.332L84.6592 58.6763Z" fill="#004080"/>
<path d="M91.1191 70.0308V73.7133L102.251 67.3566V63.6803L91.1191 70.0308Z" fill="white"/>
<path d="M91.3809 70.1811L101.984 64.1312V67.2062L91.3809 73.2623V70.1811Z" fill="white"/>
<path d="M91.3809 70.1811V70.4504L101.894 64.4569V67.2564L101.984 67.2063V64.1312L91.3809 70.1811Z" fill="white"/>
<path d="M91.1203 70.0308V73.7134L88.0664 72.0036V68.3148L91.1203 70.0308Z" fill="#004080"/>
<path d="M88.3262 71.8534V68.7659L90.851 70.1812V73.2688L88.3262 71.8534Z" fill="#004080"/>
<path d="M88.0664 68.3147L91.1203 70.0307L102.252 63.6802L99.1918 61.9705L88.0664 68.3147Z" fill="#004080"/>
<path d="M91.1191 66.2294V69.9119L102.251 63.5552V59.8789L91.1191 66.2294Z" fill="white"/>
<path d="M91.3809 66.3795L101.984 60.3296V63.4046L91.3809 69.4608V66.3795Z" fill="white"/>
<path d="M91.3809 66.3794V66.6487L101.894 60.6553V63.4547L101.984 63.4046V60.3296L91.3809 66.3794Z" fill="white"/>
<path d="M91.1203 66.2292V69.9118L88.0664 68.202V64.5132L91.1203 66.2292Z" fill="#004080"/>
<path d="M88.3262 68.0517V64.9641L90.851 66.3795V69.467L88.3262 68.0517Z" fill="#004080"/>
<path d="M88.0664 64.5134L91.1203 66.2294L102.252 59.8789L99.1918 58.1692L88.0664 64.5134Z" fill="#004080"/>
<path d="M102.798 55.62V59.3025L113.923 52.9458V49.2758L102.798 55.62Z" fill="white"/>
<path d="M103.061 55.7704L113.663 49.7268V52.7956L103.061 58.8517V55.7704Z" fill="white"/>
<path d="M102.798 55.62V59.3025L99.7441 57.5991V53.9103L102.798 55.62Z" fill="#004080"/>
<path d="M100.007 57.4487V54.3549L102.532 55.7702V58.8578L100.007 57.4487Z" fill="#004080"/>
<path d="M99.7441 53.9103L102.798 55.62L113.923 49.2758L110.87 47.566L99.7441 53.9103Z" fill="#004080"/>
<path d="M91.1191 62.2774V65.9599L102.251 59.5969V55.9269L91.1191 62.2774Z" fill="white"/>
<path d="M91.3809 62.4216L101.984 56.3781V59.4531L91.3809 65.5092V62.4216Z" fill="white"/>
<path d="M91.3809 62.4216V62.6972L101.894 56.7037V59.5032L101.984 59.4531V56.3781L91.3809 62.4216Z" fill="white"/>
<path d="M91.1203 62.2775V65.9601L88.0664 64.2503V60.5615L91.1203 62.2775Z" fill="#004080"/>
<path d="M88.3262 64.0998V61.006L90.851 62.4276V65.5089L88.3262 64.0998Z" fill="#004080"/>
<path d="M88.0664 60.5615L91.1203 62.2775L102.252 55.927L99.1918 54.2173L88.0664 60.5615Z" fill="#004080"/>
<path d="M109.589 67.2248V70.9074L120.721 64.5506V60.8806L109.589 67.2248Z" fill="white"/>
<path d="M109.854 67.3753L120.457 61.3317V64.4004L109.854 70.4566V67.3753Z" fill="white"/>
<path d="M107.041 66.3691L109.089 67.5178V70.0552L107.041 68.9107V66.3691Z" fill="white" stroke="#004080"/>
<path d="M106.801 69.0536V65.9598L109.326 67.3752V70.4628L106.801 69.0536Z" fill="#004080"/>
<path d="M106.541 65.5153L109.589 67.225L120.72 60.8808L117.666 59.1648L106.541 65.5153Z" fill="#004080"/>
<path d="M94.4971 71.9535V75.6298L105.623 69.273V65.603L94.4971 71.9535Z" fill="white"/>
<path d="M94.7607 72.0976L105.363 66.054V69.1227L94.7607 75.1851V72.0976Z" fill="white"/>
<path d="M94.7607 72.0976V72.3731L105.268 66.3796V69.1791L105.363 69.1227V66.054L94.7607 72.0976Z" fill="white"/>
<path d="M94.4963 71.9535V75.6297L91.4424 73.9263V70.2375L94.4963 71.9535Z" fill="#004080"/>
<path d="M91.7061 73.776V70.6821L94.2307 72.1038V75.1851L91.7061 73.776Z" fill="#004080"/>
<path d="M91.4443 70.2375L94.4982 71.9535L105.624 65.603L102.57 63.8933L91.4443 70.2375Z" fill="#004080"/>
<path d="M97.9111 73.8761V77.5586L109.043 71.2019V67.5319L97.9111 73.8761Z" fill="white"/>
<path d="M98.1777 74.0265L108.78 67.9829V71.0517L98.1777 77.1078V74.0265Z" fill="white"/>
<path d="M97.9089 73.8761V77.5587L94.8613 75.8552V72.1664L97.9089 73.8761Z" fill="#004080"/>
<path d="M95.124 75.7048V72.611L97.6487 74.0264V77.1139L95.124 75.7048Z" fill="#004080"/>
<path d="M94.8613 72.1665L97.9089 73.8762L109.041 67.532L105.987 65.8223L94.8613 72.1665Z" fill="#004080"/>
<path d="M109.589 63.4234V67.1059L120.721 60.7492V57.0792L109.589 63.4234Z" fill="white"/>
<path d="M110.354 65.7938V63.8644L119.957 58.3908V60.3088L110.354 65.7938Z" fill="white" stroke="white"/>
<path d="M107.041 62.5677L109.089 63.7164V66.2538L107.041 65.1093V62.5677Z" fill="#004080" stroke="#004080"/>
<path d="M108.826 65.8098L107.301 64.9588V63.012L108.826 63.8668V65.8098Z" fill="white" stroke="#004080"/>
<path d="M119.705 57.0824L109.587 62.8492L107.556 61.7101L117.668 55.9379L119.705 57.0824Z" fill="#004080" stroke="#004080"/>
<mask id="path-598-inside-1" fill="white">
<path d="M109.41 63.6304V63.8997L106.853 62.4279V65.2337L106.758 65.1773V62.1085L109.41 63.6304Z"/>
</mask>
<path d="M109.41 63.6304V63.8997L106.853 62.4279V65.2337L106.758 65.1773V62.1085L109.41 63.6304Z" fill="white"/>
<path d="M109.41 63.6304H110.41V63.0513L109.908 62.763L109.41 63.6304ZM109.41 63.8997L108.911 64.7663L110.41 65.6292V63.8997H109.41ZM106.853 62.4279L107.352 61.5613L105.853 60.6984V62.4279H106.853ZM106.853 65.2337L106.346 66.0951L107.853 66.984V65.2337H106.853ZM106.758 65.1773H105.758V65.7486L106.25 66.0388L106.758 65.1773ZM106.758 62.1085L107.256 61.2412L105.758 60.3818V62.1085H106.758ZM108.41 63.6304V63.8997H110.41V63.6304H108.41ZM109.909 63.033L107.352 61.5613L106.355 63.2946L108.911 64.7663L109.909 63.033ZM105.853 62.4279V65.2337H107.853V62.4279H105.853ZM107.361 64.3722L107.266 64.3158L106.25 66.0388L106.346 66.0951L107.361 64.3722ZM107.758 65.1773V62.1085H105.758V65.1773H107.758ZM106.26 62.9759L108.912 64.4977L109.908 62.763L107.256 61.2412L106.26 62.9759Z" fill="#004080" mask="url(#path-598-inside-1)"/>
<path d="M94.4971 68.1456V71.8282L105.623 65.4714V61.8014L94.4971 68.1456Z" fill="white"/>
<path d="M94.7607 68.296L105.363 62.2524V65.3212L94.7607 71.3773V68.296Z" fill="white"/>
<path d="M94.7607 68.2961V68.5716L105.268 62.5781V65.3776L105.363 65.3212V62.2524L94.7607 68.2961Z" fill="white"/>
<path d="M94.4963 68.1456V71.8281L91.4424 70.1247V66.4359L94.4963 68.1456Z" fill="#004080"/>
<path d="M91.7061 69.9744V66.8806L94.2307 68.3023V71.3836L91.7061 69.9744Z" fill="#004080"/>
<path d="M91.4443 66.436L94.4982 68.1458L105.624 61.8015L102.57 60.0918L91.4443 66.436Z" fill="#004080"/>
<path d="M97.9111 70.0748V73.7573L109.043 67.4006V63.7306L97.9111 70.0748Z" fill="white"/>
<path d="M98.1777 70.2248L108.78 64.1812V67.2499L98.1777 73.3061V70.2248Z" fill="white"/>
<path d="M97.9089 70.0746V73.7572L94.8613 72.0537V68.3649L97.9089 70.0746Z" fill="#004080"/>
<path d="M95.124 71.9036V68.8098L97.6487 70.2252V73.3128L95.124 71.9036Z" fill="#004080"/>
<path d="M94.8613 68.3649L97.9089 70.0746L109.041 63.7304L105.987 62.0206L94.8613 68.3649Z" fill="#004080"/>
<path d="M106.178 57.5427V61.2252L117.303 54.8685V51.1985L106.178 57.5427Z" fill="white"/>
<path d="M106.438 57.6933L117.041 51.6434V54.7185L106.438 60.7746V57.6933Z" fill="white"/>
<path d="M106.438 57.6933V57.9625L116.945 51.9691V54.7685L117.041 54.7184V51.6434L106.438 57.6933Z" fill="white"/>
<path d="M106.178 57.5425V61.2251L103.124 59.5216V55.8265L106.178 57.5425Z" fill="#004080"/>
<path d="M103.385 59.3653V56.2777L105.91 57.6931V60.7807L103.385 59.3653Z" fill="#004080"/>
<path d="M103.124 55.8268L106.178 57.5428L117.303 51.1987L114.249 49.4827L103.124 55.8268Z" fill="#004080"/>
<path d="M109.589 59.4717V63.1542L120.721 56.7975V53.1212L109.589 59.4717Z" fill="white"/>
<path d="M109.854 59.6219L120.457 53.572V56.6471L109.854 62.7032V59.6219Z" fill="white"/>
<path d="M109.854 59.6219V59.8912L120.361 53.8977V56.6972L120.457 56.6471V53.572L109.854 59.6219Z" fill="white"/>
<path d="M109.589 59.4719V63.1544L106.541 61.4446V57.7559L109.589 59.4719Z" fill="#004080"/>
<path d="M106.801 61.2941V58.2065L109.326 59.6219V62.7094L106.801 61.2941Z" fill="#004080"/>
<path d="M106.541 57.7558L109.589 59.4718L120.72 53.1214L117.666 51.4116L106.541 57.7558Z" fill="#004080"/>
<path d="M94.4971 64.1937V67.8762L105.623 61.5195V57.8495L94.4971 64.1937Z" fill="white"/>
<path d="M94.7607 64.344L105.363 58.3004V61.3692L94.7607 67.4253V64.344Z" fill="white"/>
<path d="M94.7607 64.344V64.6133L105.268 58.6198V61.4256L105.363 61.3692V58.3004L94.7607 64.344Z" fill="white"/>
<path d="M94.4963 64.1938V67.8763L91.4424 66.1729V62.4778L94.4963 64.1938Z" fill="#004080"/>
<path d="M91.7061 66.0226V62.9288L94.2307 64.3442V67.4318L91.7061 66.0226Z" fill="#004080"/>
<path d="M91.4443 62.4779L94.4982 64.1939L105.624 57.8497L102.57 56.1337L91.4443 62.4779Z" fill="#004080"/>
<path d="M97.9111 66.1228V69.8053L109.043 63.4486V59.7786L97.9111 66.1228Z" fill="white"/>
<path d="M98.1777 66.2731L108.78 60.2233V63.2983L98.1777 69.3544V66.2731Z" fill="white"/>
<path d="M97.9089 66.1227V69.8053L94.8613 68.1018V64.4067L97.9089 66.1227Z" fill="#004080"/>
<path d="M95.124 67.9516V64.8578L97.6487 66.2732V69.3607L95.124 67.9516Z" fill="#004080"/>
<path d="M94.8613 64.4067L97.9089 66.1227L109.041 59.7785L105.987 58.0625L94.8613 64.4067Z" fill="#004080"/>
<path d="M99.3564 79.9445L100.351 80.5019L124.801 65.4837C124.801 63.0788 122.149 61.582 120.032 62.7845L104.087 71.878C101.161 73.5502 99.3564 76.6252 99.3564 79.9445Z" fill="#004080"/>
<path d="M100.327 80.5142L125.772 66.0534C125.772 63.6485 123.12 62.1517 121.003 63.3542L105.058 72.4477C102.131 74.1199 100.327 77.1949 100.327 80.5142Z" fill="url(#paint10_linear)"/>
<path d="M119.223 69.2413H117.948V77.0135V77.0197C117.948 77.2201 118.235 77.383 118.586 77.383C118.936 77.383 119.223 77.2201 119.223 77.0197V77.0135V69.2413Z" fill="url(#paint11_linear)"/>
<path d="M118.594 69.6046C118.946 69.6046 119.231 69.442 119.231 69.2414C119.231 69.0408 118.946 68.8782 118.594 68.8782C118.242 68.8782 117.956 69.0408 117.956 69.2414C117.956 69.442 118.242 69.6046 118.594 69.6046Z" fill="white"/>
<path d="M120.058 68.5587H117.119V68.9282C117.119 68.9345 117.119 68.9345 117.119 68.9407C117.119 69.4042 117.776 69.7799 118.586 69.7799C119.395 69.7799 120.052 69.4042 120.052 68.9407C120.052 68.9345 120.052 68.9345 120.052 68.9282V68.5587H120.058Z" fill="url(#paint12_linear)"/>
<path d="M120.059 68.565C120.059 69.0285 119.402 69.4043 118.592 69.4043C117.783 69.4043 117.126 69.0285 117.126 68.565C117.126 68.1016 117.783 67.7258 118.592 67.7258C119.402 67.7258 120.059 68.1016 120.059 68.565Z" fill="url(#paint13_linear)"/>
<path d="M117.617 70.1682V70.1748L117.624 70.1682H117.617Z" fill="white"/>
<path d="M118.596 70.2748C118.06 70.2748 117.627 70.0243 117.627 69.7174V70.0305V70.0368C117.627 70.3437 118.06 70.5942 118.596 70.5942C119.132 70.5942 119.565 70.3437 119.565 70.0368V70.0305V69.7174C119.565 70.0243 119.132 70.2748 118.596 70.2748Z" fill="url(#paint14_linear)"/>
<path d="M118.594 72.2017C118.059 72.2017 117.625 71.9512 117.625 71.6443V71.9574V71.9637C117.625 72.2705 118.059 72.521 118.594 72.521C119.13 72.521 119.563 72.2705 119.563 71.9637V71.9574V71.6443C119.563 71.9512 119.13 72.2017 118.594 72.2017Z" fill="url(#paint15_linear)"/>
<path d="M118.594 74.1288C118.059 74.1288 117.625 73.8783 117.625 73.5714V73.8845V73.8908C117.625 74.1977 118.059 74.4482 118.594 74.4482C119.13 74.4482 119.563 74.1977 119.563 73.8908V73.8845V73.5714C119.563 73.8783 119.13 74.1288 118.594 74.1288Z" fill="url(#paint16_linear)"/>
<path d="M129.946 79.8318H128.799V83.1135C128.799 83.1135 128.799 83.1135 128.799 83.1197C128.799 83.3014 129.054 83.4454 129.373 83.4454C129.691 83.4454 129.946 83.3014 129.946 83.1197C129.946 83.1197 129.946 83.1198 129.946 83.1135V79.8318Z" fill="url(#paint17_linear)"/>
<path d="M129.379 80.1637C129.696 80.1637 129.953 80.0179 129.953 79.838C129.953 79.6581 129.696 79.5123 129.379 79.5123C129.063 79.5123 128.806 79.6581 128.806 79.838C128.806 80.0179 129.063 80.1637 129.379 80.1637Z" fill="url(#paint18_linear)"/>
<path d="M128.38 71.417H127.232V74.6987C127.232 74.6987 127.232 74.6987 127.232 74.705C127.232 74.8866 127.487 75.0307 127.806 75.0307C128.125 75.0307 128.38 74.8866 128.38 74.705C128.38 74.705 128.38 74.705 128.38 74.6987V71.417Z" fill="url(#paint19_linear)"/>
<path d="M127.815 71.749C128.132 71.749 128.389 71.6032 128.389 71.4233C128.389 71.2435 128.132 71.0977 127.815 71.0977C127.498 71.0977 127.241 71.2435 127.241 71.4233C127.241 71.6032 127.498 71.749 127.815 71.749Z" fill="url(#paint20_linear)"/>
<path d="M114.978 77.5195H113.83V80.8012C113.83 80.8012 113.83 80.8012 113.83 80.8075C113.83 80.9891 114.085 81.1331 114.404 81.1331C114.723 81.1331 114.978 80.9891 114.978 80.8075C114.978 80.8075 114.978 80.8075 114.978 80.8012V77.5195Z" fill="url(#paint21_linear)"/>
<path d="M114.411 77.8515C114.728 77.8515 114.985 77.7057 114.985 77.5258C114.985 77.346 114.728 77.2002 114.411 77.2002C114.094 77.2002 113.837 77.346 113.837 77.5258C113.837 77.7057 114.094 77.8515 114.411 77.8515Z" fill="url(#paint22_linear)"/>
<path d="M119.226 65.3208H117.951V68.5336V68.5399C117.951 68.7403 118.238 68.9031 118.589 68.9031C118.939 68.9031 119.226 68.7403 119.226 68.5399V68.5336V65.3208Z" fill="url(#paint23_linear)"/>
<path d="M118.596 65.6902C118.948 65.6902 119.233 65.5276 119.233 65.327C119.233 65.1264 118.948 64.9637 118.596 64.9637C118.243 64.9637 117.958 65.1264 117.958 65.327C117.958 65.5276 118.243 65.6902 118.596 65.6902Z" fill="url(#paint24_linear)"/>
<path d="M125.368 78.717C125.368 78.9425 125.291 79.0991 125.158 79.1805C125.151 79.1805 124.75 79.4122 124.75 79.4122C124.616 79.4874 124.699 79.3183 124.501 79.2055C124.093 78.9738 123.761 78.4164 123.761 77.953C123.761 77.7275 123.545 77.7212 123.678 77.6461C123.685 77.6461 124.112 77.4144 124.112 77.4081C124.246 77.3392 124.424 77.3517 124.628 77.4645C125.043 77.6962 125.368 78.2536 125.368 78.717Z" fill="url(#paint25_linear)"/>
<path d="M124.942 78.955C124.942 79.4122 124.61 79.6001 124.202 79.3683C123.794 79.1366 123.463 78.5792 123.463 78.1158C123.463 77.6586 123.794 77.4707 124.202 77.7024C124.61 77.9342 124.942 78.4915 124.942 78.955Z" fill="url(#paint26_linear)"/>
<path d="M124.744 78.9926C124.744 79.1868 124.674 79.3245 124.566 79.3934C124.559 79.3934 123.405 80.0823 123.405 80.0823C123.291 80.145 123.361 80.0009 123.189 79.9007C122.838 79.7003 122.551 79.2181 122.551 78.8173C122.551 78.6231 122.366 78.6169 122.481 78.5542L123.66 77.8591C123.775 77.7965 123.935 77.809 124.107 77.9092C124.457 78.1096 124.744 78.5981 124.744 78.9926Z" fill="url(#paint27_linear)"/>
<path d="M124.242 77.6836C124.044 77.5709 123.866 77.5584 123.738 77.621C123.859 77.5897 124.012 77.6147 124.178 77.7087C124.586 77.9404 124.918 78.4977 124.918 78.9612C124.918 79.1991 124.829 79.3682 124.682 79.4371C124.86 79.387 124.982 79.2117 124.982 78.9361C124.982 78.479 124.65 77.9153 124.242 77.6836Z" fill="url(#paint28_radial)"/>
<path d="M123.481 79.813C123.481 80.0384 123.405 80.195 123.271 80.2764C123.264 80.2764 122.863 80.5081 122.863 80.5081C122.729 80.5833 122.812 80.4142 122.614 80.3015C122.206 80.0697 121.875 79.5124 121.875 79.0489C121.875 78.8235 121.658 78.8172 121.792 78.742C121.798 78.742 122.225 78.5103 122.225 78.5041C122.359 78.4352 122.538 78.4477 122.742 78.5604C123.15 78.7921 123.481 79.3558 123.481 79.813Z" fill="url(#paint29_linear)"/>
<path d="M123.055 80.0509C123.055 80.5081 122.724 80.696 122.316 80.4642C121.908 80.2325 121.576 79.6751 121.576 79.2117C121.576 78.7545 121.908 78.5667 122.316 78.7984C122.724 79.0301 123.055 79.5937 123.055 80.0509Z" fill="url(#paint30_linear)"/>
<path d="M122.348 78.7796C122.151 78.6668 121.972 78.6543 121.845 78.7169C121.966 78.6856 122.119 78.7107 122.285 78.8046C122.693 79.0363 123.024 79.5937 123.024 80.0572C123.024 80.2952 122.935 80.4643 122.788 80.5332C122.967 80.4831 123.088 80.3077 123.088 80.0322C123.088 79.575 122.756 79.0113 122.348 78.7796Z" fill="url(#paint31_radial)"/>
<path d="M125.599 83.2705C125.599 83.4259 125.547 83.5339 125.454 83.59C125.45 83.59 125.173 83.7498 125.173 83.7498C125.081 83.8016 125.138 83.685 125.002 83.6073C124.72 83.4475 124.492 83.0632 124.492 82.7437C124.492 82.5882 124.342 82.5839 124.434 82.5321C124.439 82.5321 124.733 82.3723 124.733 82.368C124.826 82.3205 124.949 82.3291 125.089 82.4068C125.375 82.5666 125.599 82.9509 125.599 83.2705Z" fill="url(#paint32_linear)"/>
<path d="M125.305 83.4345C125.305 83.7497 125.076 83.8793 124.795 83.7195C124.514 83.5597 124.285 83.1754 124.285 82.8559C124.285 82.5406 124.514 82.4111 124.795 82.5709C125.076 82.7306 125.305 83.1149 125.305 83.4345Z" fill="url(#paint33_linear)"/>
<path d="M125.17 83.4606C125.17 83.5945 125.122 83.6895 125.047 83.737C125.043 83.737 124.247 84.212 124.247 84.212C124.168 84.2552 124.217 84.1559 124.098 84.0868C123.856 83.9486 123.658 83.6161 123.658 83.3397C123.658 83.2058 123.531 83.2015 123.61 83.1583L124.423 82.679C124.502 82.6358 124.612 82.6444 124.731 82.7135C124.973 82.8517 125.17 83.1885 125.17 83.4606Z" fill="url(#paint34_linear)"/>
<path d="M124.821 82.5579C124.685 82.4802 124.562 82.4716 124.474 82.5147C124.557 82.4932 124.663 82.5104 124.777 82.5752C125.058 82.735 125.287 83.1193 125.287 83.4388C125.287 83.6029 125.225 83.7195 125.124 83.767C125.247 83.7325 125.331 83.6116 125.331 83.4216C125.331 83.1063 125.102 82.7177 124.821 82.5579Z" fill="url(#paint35_radial)"/>
<path d="M124.299 84.0262C124.299 84.1816 124.246 84.2896 124.154 84.3457C124.149 84.3457 123.872 84.5055 123.872 84.5055C123.78 84.5573 123.837 84.4407 123.701 84.363C123.419 84.2032 123.191 83.8189 123.191 83.4994C123.191 83.3439 123.041 83.3396 123.134 83.2878C123.138 83.2878 123.433 83.128 123.433 83.1237C123.525 83.0762 123.648 83.0848 123.789 83.1626C124.07 83.3223 124.299 83.711 124.299 84.0262Z" fill="url(#paint36_linear)"/>
<path d="M124.004 84.1905C124.004 84.5057 123.776 84.6352 123.494 84.4755C123.213 84.3157 122.984 83.9314 122.984 83.6118C122.984 83.2966 123.213 83.1671 123.494 83.3268C123.776 83.4866 124.004 83.8752 124.004 84.1905Z" fill="url(#paint37_linear)"/>
<path d="M123.517 83.3138C123.381 83.2361 123.258 83.2274 123.17 83.2706C123.253 83.249 123.359 83.2663 123.473 83.3311C123.755 83.4908 123.983 83.8752 123.983 84.1947C123.983 84.3588 123.922 84.4754 123.821 84.5229C123.944 84.4884 124.027 84.3675 124.027 84.1775C124.027 83.8622 123.799 83.4736 123.517 83.3138Z" fill="url(#paint38_radial)"/>
<path d="M133.117 78.774C133.117 78.9295 133.064 79.0374 132.972 79.0936C132.967 79.0936 132.69 79.2533 132.69 79.2533C132.598 79.3052 132.655 79.1886 132.519 79.1108C132.238 78.9511 132.009 78.5667 132.009 78.2472C132.009 78.0917 131.86 78.0874 131.952 78.0356C131.956 78.0356 132.251 77.8758 132.251 77.8715C132.343 77.824 132.466 77.8326 132.607 77.9104C132.893 78.0702 133.117 78.4545 133.117 78.774Z" fill="url(#paint39_linear)"/>
<path d="M132.823 78.9381C132.823 79.2534 132.594 79.3829 132.313 79.2231C132.031 79.0634 131.803 78.679 131.803 78.3595C131.803 78.0443 132.031 77.9147 132.313 78.0745C132.594 78.2343 132.823 78.6186 132.823 78.9381Z" fill="url(#paint40_linear)"/>
<path d="M132.688 78.9641C132.688 79.098 132.64 79.193 132.565 79.2405C132.561 79.2405 131.765 79.7154 131.765 79.7154C131.686 79.7586 131.734 79.6593 131.615 79.5902C131.374 79.452 131.176 79.1195 131.176 78.8432C131.176 78.7093 131.048 78.705 131.127 78.6618L131.941 78.1825C132.02 78.1393 132.13 78.148 132.248 78.2171C132.49 78.3552 132.688 78.6921 132.688 78.9641Z" fill="url(#paint41_linear)"/>
<path d="M132.338 78.0615C132.202 77.9837 132.079 77.9751 131.991 78.0183C132.075 77.9967 132.18 78.014 132.295 78.0787C132.576 78.2385 132.804 78.6228 132.804 78.9424C132.804 79.1065 132.743 79.2231 132.642 79.2706C132.765 79.236 132.848 79.1151 132.848 78.9251C132.848 78.6099 132.62 78.2212 132.338 78.0615Z" fill="url(#paint42_radial)"/>
<path d="M131.816 79.5297C131.816 79.6852 131.763 79.7932 131.671 79.8493C131.667 79.8493 131.39 80.0091 131.39 80.0091C131.297 80.0609 131.355 79.9443 131.218 79.8666C130.937 79.7068 130.708 79.3225 130.708 79.0029C130.708 78.8475 130.559 78.8432 130.651 78.7913C130.656 78.7913 130.95 78.6316 130.95 78.6273C131.042 78.5798 131.166 78.5884 131.306 78.6661C131.588 78.8259 131.816 79.2145 131.816 79.5297Z" fill="url(#paint43_linear)"/>
<path d="M131.522 79.6939C131.522 80.0092 131.293 80.1387 131.012 79.979C130.731 79.8192 130.502 79.4348 130.502 79.1153C130.502 78.8 130.731 78.6705 131.012 78.8303C131.293 78.99 131.522 79.3787 131.522 79.6939Z" fill="url(#paint44_linear)"/>
<path d="M131.035 78.8171C130.899 78.7394 130.775 78.7307 130.688 78.7739C130.771 78.7523 130.877 78.7696 130.991 78.8344C131.272 78.9941 131.501 79.3785 131.501 79.698C131.501 79.8621 131.439 79.9787 131.338 80.0262C131.461 79.9916 131.545 79.8707 131.545 79.6807C131.545 79.3655 131.316 78.9769 131.035 78.8171Z" fill="url(#paint45_radial)"/>
<path d="M126.695 85.819C119.65 85.7188 108.34 84.0215 94.4795 76.5438C83.9853 70.8822 1.03884 23.6419 0.197266 23.166L0.420415 22.7839C1.25562 23.2599 84.2021 70.4939 94.6899 76.1555C108.468 83.5894 119.701 85.2741 126.695 85.3743V85.819Z" fill="#004080"/>
<path d="M126.695 86.5892C119.657 86.489 108.353 84.7981 94.5112 77.3266C84.017 71.665 1.07055 24.4247 0.235352 23.9487L0.394741 23.6794C1.22994 24.1554 84.1764 71.3894 94.6642 77.051C108.455 84.4912 119.695 86.1759 126.702 86.2761L126.695 86.5892Z" fill="#004080"/>
<defs>
<linearGradient id="paint0_linear" x1="6.66892" y1="17.526" x2="65.8719" y2="0.772888" gradientUnits="userSpaceOnUse">
<stop stop-color="#A3A7AA"/>
<stop offset="1" stop-color="#C0C0C0"/>
</linearGradient>
<linearGradient id="paint1_linear" x1="0.937368" y1="19.264" x2="3.49333" y2="20.2691" gradientUnits="userSpaceOnUse">
<stop stop-color="#A5A9AB"/>
<stop offset="1" stop-color="white"/>
</linearGradient>
<linearGradient id="paint2_linear" x1="6.51535" y1="4.06693" x2="10.5093" y2="22.1682" gradientUnits="userSpaceOnUse">
<stop stop-color="#A5A9AB"/>
<stop offset="1" stop-color="white"/>
</linearGradient>
<linearGradient id="paint3_linear" x1="46.4337" y1="35.3916" x2="83.7561" y2="29.5179" gradientUnits="userSpaceOnUse">
<stop stop-color="#A3A7AA"/>
<stop offset="1" stop-color="#C0C0C0"/>
</linearGradient>
<linearGradient id="paint4_linear" x1="37.37" y1="26.5525" x2="47.8661" y2="38.1535" gradientUnits="userSpaceOnUse">
<stop stop-color="#A5A9AB"/>
<stop offset="1" stop-color="white"/>
</linearGradient>
<linearGradient id="paint5_linear" x1="48.8165" y1="35.6659" x2="77.82" y2="31.789" gradientUnits="userSpaceOnUse">
<stop stop-color="#A3A7AA"/>
<stop offset="1" stop-color="#C0C0C0"/>
</linearGradient>
<linearGradient id="paint6_linear" x1="45.7528" y1="29.6674" x2="48.6145" y2="30.1731" gradientUnits="userSpaceOnUse">
<stop stop-color="#A5A9AB"/>
<stop offset="1" stop-color="white"/>
</linearGradient>
<linearGradient id="paint7_linear" x1="43.3251" y1="24.4012" x2="97.0759" y2="4.76267" gradientUnits="userSpaceOnUse">
<stop stop-color="#A3A7AA"/>
<stop offset="1" stop-color="#C0C0C0"/>
</linearGradient>
<linearGradient id="paint8_linear" x1="34.7981" y1="26.5587" x2="36.0297" y2="30.6045" gradientUnits="userSpaceOnUse">
<stop stop-color="#A5A9AB"/>
<stop offset="1" stop-color="white"/>
</linearGradient>
<linearGradient id="paint9_linear" x1="42.8841" y1="13.6444" x2="45.6445" y2="26.1966" gradientUnits="userSpaceOnUse">
<stop stop-color="#A5A9AB"/>
<stop offset="1" stop-color="white"/>
</linearGradient>
<linearGradient id="paint10_linear" x1="104.717" y1="73.6407" x2="157.389" y2="57.5849" gradientUnits="userSpaceOnUse">
<stop stop-color="#C9CBCC"/>
<stop offset="1" stop-color="white"/>
</linearGradient>
<linearGradient id="paint11_linear" x1="117.959" y1="73.3108" x2="119.211" y2="73.3108" gradientUnits="userSpaceOnUse">
<stop stop-color="#125E99"/>
<stop offset="0.2513" stop-color="white"/>
<stop offset="1" stop-color="#125F99"/>
</linearGradient>
<linearGradient id="paint12_linear" x1="117.134" y1="69.1686" x2="120.025" y2="69.1686" gradientUnits="userSpaceOnUse">
<stop stop-color="#12609B"/>
<stop offset="0.2513" stop-color="white"/>
<stop offset="1" stop-color="#125F9A"/>
</linearGradient>
<linearGradient id="paint13_linear" x1="117.427" y1="67.9058" x2="119.731" y2="69.2602" gradientUnits="userSpaceOnUse">
<stop stop-color="#125F9A"/>
<stop offset="1" stop-color="white"/>
</linearGradient>
<linearGradient id="paint14_linear" x1="117.632" y1="70.1571" x2="119.542" y2="70.1571" gradientUnits="userSpaceOnUse">
<stop offset="0.0101" stop-color="#120A59"/>
<stop offset="0.2513" stop-color="white"/>
<stop offset="1" stop-color="#120A59"/>
</linearGradient>
<linearGradient id="paint15_linear" x1="117.63" y1="72.084" x2="119.54" y2="72.084" gradientUnits="userSpaceOnUse">
<stop offset="0.0101" stop-color="#120A59"/>
<stop offset="0.2513" stop-color="white"/>
<stop offset="1" stop-color="#120A59"/>
</linearGradient>
<linearGradient id="paint16_linear" x1="117.63" y1="74.0111" x2="119.54" y2="74.0111" gradientUnits="userSpaceOnUse">
<stop offset="0.0101" stop-color="#120A59"/>
<stop offset="0.2513" stop-color="white"/>
<stop offset="1" stop-color="#120A59"/>
</linearGradient>
<linearGradient id="paint17_linear" x1="128.81" y1="81.64" x2="129.936" y2="81.64" gradientUnits="userSpaceOnUse">
<stop offset="0.0101" stop-color="#120A59"/>
<stop offset="0.234375" stop-color="white"/>
<stop offset="0.6111" stop-color="#120A59"/>
<stop offset="0.755" stop-color="#120A59"/>
<stop offset="1" stop-color="#120A59"/>
</linearGradient>
<linearGradient id="paint18_linear" x1="128.924" y1="79.58" x2="129.822" y2="80.1077" gradientUnits="userSpaceOnUse">
<stop stop-color="#120A59"/>
<stop offset="0.1367" stop-color="white"/>
<stop offset="1" stop-color="#120A59"/>
</linearGradient>
<linearGradient id="paint19_linear" x1="127.243" y1="73.2253" x2="128.37" y2="73.2253" gradientUnits="userSpaceOnUse">
<stop offset="0.0101" stop-color="#120A59"/>
<stop offset="0.234375" stop-color="white"/>
<stop offset="0.6111" stop-color="#120A59"/>
<stop offset="0.755" stop-color="#120A59"/>
<stop offset="1" stop-color="#120A59"/>
</linearGradient>
<linearGradient id="paint20_linear" x1="127.359" y1="71.1654" x2="128.257" y2="71.693" gradientUnits="userSpaceOnUse">
<stop stop-color="#120A59"/>
<stop offset="0.1367" stop-color="white"/>
<stop offset="1" stop-color="#120A59"/>
</linearGradient>
<linearGradient id="paint21_linear" x1="113.841" y1="79.3278" x2="114.967" y2="79.3278" gradientUnits="userSpaceOnUse">
<stop offset="0.0101" stop-color="#120A59"/>
<stop offset="0.234375" stop-color="white"/>
<stop offset="0.6111" stop-color="#120A59"/>
<stop offset="0.755" stop-color="#120A59"/>
<stop offset="1" stop-color="#120A59"/>
</linearGradient>
<linearGradient id="paint22_linear" x1="113.955" y1="77.2679" x2="114.853" y2="77.7956" gradientUnits="userSpaceOnUse">
<stop stop-color="#120A59"/>
<stop offset="0.1367" stop-color="white"/>
<stop offset="1" stop-color="#120A59"/>
</linearGradient>
<linearGradient id="paint23_linear" x1="117.962" y1="67.1141" x2="119.214" y2="67.1141" gradientUnits="userSpaceOnUse">
<stop stop-color="#12609C"/>
<stop offset="0.2513" stop-color="white"/>
<stop offset="1" stop-color="#12609B"/>
</linearGradient>
<linearGradient id="paint24_linear" x1="118.089" y1="65.0402" x2="119.087" y2="65.6266" gradientUnits="userSpaceOnUse">
<stop stop-color="#12609B"/>
<stop offset="1" stop-color="white"/>
</linearGradient>
<linearGradient id="paint25_linear" x1="125.2" y1="79.1651" x2="123.932" y2="77.4361" gradientUnits="userSpaceOnUse">
<stop offset="0.0101" stop-color="#1566A5"/>
<stop offset="0.2222" stop-color="white"/>
<stop offset="1" stop-color="#1566A5"/>
</linearGradient>
<linearGradient id="paint26_linear" x1="124.202" y1="77.603" x2="124.202" y2="79.4677" gradientUnits="userSpaceOnUse">
<stop stop-color="#120A59"/>
<stop offset="1" stop-color="white"/>
</linearGradient>
<linearGradient id="paint27_linear" x1="124.215" y1="79.6604" x2="123.071" y2="78.0997" gradientUnits="userSpaceOnUse">
<stop offset="0.0556" stop-color="#120A59"/>
<stop offset="0.1544" stop-color="#120A59"/>
<stop offset="0.2525" stop-color="white"/>
<stop offset="0.4798" stop-color="#120A59"/>
<stop offset="1" stop-color="#120A59"/>
</linearGradient>
<radialGradient id="paint28_radial" cx="0" cy="0" r="1" gradientUnits="userSpaceOnUse" gradientTransform="translate(124.358 78.5106) scale(0.798624 0.784443)">
<stop stop-color="white"/>
<stop offset="1" stop-color="#120A59"/>
</radialGradient>
<linearGradient id="paint29_linear" x1="123.309" y1="80.2627" x2="122.041" y2="78.5338" gradientUnits="userSpaceOnUse">
<stop offset="0.0101" stop-color="#120A59"/>
<stop offset="0.2513" stop-color="white"/>
<stop offset="1" stop-color="#120A59"/>
</linearGradient>
<linearGradient id="paint30_linear" x1="121.512" y1="79.2877" x2="122.975" y2="79.914" gradientUnits="userSpaceOnUse">
<stop stop-color="#120A59"/>
<stop offset="1" stop-color="white"/>
</linearGradient>
<radialGradient id="paint31_radial" cx="0" cy="0" r="1" gradientUnits="userSpaceOnUse" gradientTransform="translate(122.466 79.6083) scale(0.798624 0.784489)">
<stop stop-color="white"/>
<stop offset="1"/>
</radialGradient>
<linearGradient id="paint32_linear" x1="125.483" y1="83.5794" x2="124.609" y2="82.3872" gradientUnits="userSpaceOnUse">
<stop offset="0.0101" stop-color="#1566A5"/>
<stop offset="0.2222" stop-color="white"/>
<stop offset="1" stop-color="#1566A5"/>
</linearGradient>
<linearGradient id="paint33_linear" x1="124.795" y1="82.5023" x2="124.795" y2="83.788" gradientUnits="userSpaceOnUse">
<stop stop-color="#120A59"/>
<stop offset="1" stop-color="white"/>
</linearGradient>
<linearGradient id="paint34_linear" x1="124.806" y1="83.9211" x2="124.017" y2="82.8449" gradientUnits="userSpaceOnUse">
<stop offset="0.0556" stop-color="#120A59"/>
<stop offset="0.1544" stop-color="#120A59"/>
<stop offset="0.2525" stop-color="white"/>
<stop offset="0.4798" stop-color="#120A59"/>
<stop offset="1" stop-color="#120A59"/>
</linearGradient>
<radialGradient id="paint35_radial" cx="0" cy="0" r="1" gradientUnits="userSpaceOnUse" gradientTransform="translate(124.901 83.1281) scale(0.550629 0.540891)">
<stop stop-color="white"/>
<stop offset="1" stop-color="#120A59"/>
</radialGradient>
<linearGradient id="paint36_linear" x1="124.18" y1="84.3363" x2="123.306" y2="83.1442" gradientUnits="userSpaceOnUse">
<stop offset="0.0101" stop-color="#120A59"/>
<stop offset="0.2513" stop-color="white"/>
<stop offset="1" stop-color="#120A59"/>
</linearGradient>
<linearGradient id="paint37_linear" x1="122.94" y1="83.6642" x2="123.949" y2="84.0961" gradientUnits="userSpaceOnUse">
<stop stop-color="#120A59"/>
<stop offset="1" stop-color="white"/>
</linearGradient>
<radialGradient id="paint38_radial" cx="0" cy="0" r="1" gradientUnits="userSpaceOnUse" gradientTransform="translate(123.599 83.8852) scale(0.550615 0.54091)">
<stop stop-color="white"/>
<stop offset="1"/>
</radialGradient>
<linearGradient id="paint39_linear" x1="133.001" y1="79.0829" x2="132.127" y2="77.8908" gradientUnits="userSpaceOnUse">
<stop offset="0.0101" stop-color="#1566A5"/>
<stop offset="0.2222" stop-color="white"/>
<stop offset="1" stop-color="#1566A5"/>
</linearGradient>
<linearGradient id="paint40_linear" x1="132.313" y1="78.006" x2="132.313" y2="79.2917" gradientUnits="userSpaceOnUse">
<stop stop-color="#120A59"/>
<stop offset="1" stop-color="white"/>
</linearGradient>
<linearGradient id="paint41_linear" x1="132.323" y1="79.4245" x2="131.534" y2="78.3484" gradientUnits="userSpaceOnUse">
<stop offset="0.0556" stop-color="#120A59"/>
<stop offset="0.1544" stop-color="#120A59"/>
<stop offset="0.2525" stop-color="white"/>
<stop offset="0.4798" stop-color="#120A59"/>
<stop offset="1" stop-color="#120A59"/>
</linearGradient>
<radialGradient id="paint42_radial" cx="0" cy="0" r="1" gradientUnits="userSpaceOnUse" gradientTransform="translate(132.419 78.6317) scale(0.550644 0.5409)">
<stop stop-color="white"/>
<stop offset="1" stop-color="#120A59"/>
</radialGradient>
<linearGradient id="paint43_linear" x1="131.697" y1="79.8398" x2="130.823" y2="78.6477" gradientUnits="userSpaceOnUse">
<stop offset="0.0101" stop-color="#120A59"/>
<stop offset="0.2513" stop-color="white"/>
<stop offset="1" stop-color="#120A59"/>
</linearGradient>
<linearGradient id="paint44_linear" x1="130.458" y1="79.1677" x2="131.467" y2="79.5995" gradientUnits="userSpaceOnUse">
<stop stop-color="#120A59"/>
<stop offset="1" stop-color="white"/>
</linearGradient>
<radialGradient id="paint45_radial" cx="0" cy="0" r="1" gradientUnits="userSpaceOnUse" gradientTransform="translate(131.116 79.3885) scale(0.550658 0.5409)">
<stop stop-color="white"/>
<stop offset="1"/>
</radialGradient>
</defs>
</svg>
