<svg width="188" height="128" viewBox="0 0 188 128" fill="none" xmlns="http://www.w3.org/2000/svg">
<path opacity="0.2" d="M0 32L14.658 23.7952L68.0461 54.2311L60.7929 58.29L63.2064 59.6678L62.3724 60.1395L59.9716 58.7617L53.3881 62.4483L0 32Z" fill="#004080"/>
<path d="M5.58795 30.8458C5.58795 31.3423 5.41106 31.7023 5.13306 31.8636C5.12042 31.8636 3.25024 32.9311 3.2376 32.9311C2.94696 33.0925 3.1365 32.7201 2.68159 32.4718C1.77177 31.9629 1.03884 30.7093 1.03884 29.6914C1.03884 29.1825 0.558662 29.1825 0.8493 29.0087C0.861936 29.0087 2.78268 27.9412 2.79532 27.9288C3.08595 27.7675 3.49032 27.8047 3.94524 28.0529C4.85506 28.5867 5.58795 29.8279 5.58795 30.8458Z" fill="white"/>
<path d="M3.65561 31.9255C3.65561 32.9434 2.92271 33.353 2.01288 32.8441C1.10306 32.3351 0.370117 31.0815 0.370117 30.0636C0.370117 29.0458 1.10306 28.6362 2.01288 29.1451C2.92271 29.6664 3.65561 30.9077 3.65561 31.9255Z" fill="#004080"/>
<path d="M2.79575 31.5035C2.79575 32.0373 2.41666 32.2483 1.93647 31.9876C1.46891 31.7145 1.07715 31.0691 1.07715 30.5353C1.07715 30.0016 1.45628 29.7906 1.93647 30.0512C2.41666 30.3243 2.79575 30.9698 2.79575 31.5035Z" fill="#004080"/>
<path d="M2.08948 29.1083C1.65985 28.86 1.25548 28.8228 0.964844 28.9718C1.24284 28.8973 1.57138 28.9469 1.95046 29.1579C2.86027 29.6669 3.59319 30.9205 3.59319 31.9384C3.59319 32.4721 3.39101 32.8321 3.0751 32.9935C3.47946 32.8817 3.73217 32.4969 3.73217 31.8887C3.73217 30.8709 2.99929 29.6296 2.08948 29.1083Z" fill="url(#paint0_radial)"/>
<path d="M10.0099 33.3778C10.0099 33.8743 9.83297 34.2342 9.55497 34.3956C9.54233 34.3956 7.67213 35.4631 7.65949 35.4631C7.36885 35.6244 7.5584 35.2521 7.10348 35.0038C6.19366 34.4949 5.46072 33.2412 5.46072 32.2234C5.46072 31.7145 4.98054 31.7145 5.27118 31.5407C5.28381 31.5407 7.20457 30.4732 7.21721 30.4608C7.50785 30.2994 7.91222 30.3367 8.36713 30.5849C9.27696 31.1063 10.0099 32.3475 10.0099 33.3778Z" fill="url(#paint1_linear)"/>
<path d="M8.07743 34.4575C8.07743 35.4754 7.34454 35.885 6.43473 35.3761C5.52492 34.8671 4.79199 33.6135 4.79199 32.5956C4.79199 31.5778 5.52492 31.1682 6.43473 31.6771C7.34454 32.186 8.07743 33.4273 8.07743 34.4575Z" fill="url(#paint2_linear)"/>
<path d="M7.23227 34.0357C7.23227 34.5695 6.85314 34.7805 6.37295 34.5198C5.9054 34.2468 5.51367 33.6013 5.51367 33.0676C5.51367 32.5338 5.89276 32.3228 6.37295 32.5835C6.84051 32.8565 7.23227 33.502 7.23227 34.0357Z" fill="#004080"/>
<path d="M6.52506 31.6403C6.09542 31.392 5.69103 31.3548 5.40039 31.5037C5.67839 31.4293 6.00694 31.4789 6.38604 31.6899C7.29587 32.1989 8.02877 33.4525 8.02877 34.4704C8.02877 35.0041 7.82662 35.3641 7.5107 35.5255C7.91507 35.4138 8.16779 35.029 8.16779 34.4207C8.16779 33.3905 7.42225 32.1492 6.52506 31.6403Z" fill="url(#paint3_radial)"/>
<path d="M6.38018 32.9807V34.1971L1.84375 31.6774V30.4237L6.38018 32.9807Z" fill="url(#paint4_linear)"/>
<path d="M47.1836 54.7152C47.1836 55.2117 47.0067 55.5717 46.7287 55.733C46.716 55.733 44.8459 56.8005 44.8332 56.8005C44.5426 56.9619 44.7321 56.5895 44.2772 56.3413C43.3674 55.8323 42.6345 54.5786 42.6345 53.5608C42.6345 53.0519 42.1544 53.0519 42.445 52.8781C42.4576 52.8781 44.3783 51.8106 44.391 51.7982C44.6816 51.6368 45.086 51.6741 45.5409 51.9223C46.4507 52.4561 47.1836 53.6973 47.1836 54.7152Z" fill="url(#paint5_linear)"/>
<path d="M45.2512 55.7952C45.2512 56.8131 44.5183 57.2227 43.6085 56.7138C42.6987 56.2048 41.9658 54.9511 41.9658 53.9333C41.9658 52.9154 42.6987 52.5058 43.6085 53.0147C44.5183 53.5237 45.2512 54.7774 45.2512 55.7952Z" fill="#004080"/>
<path d="M44.3914 55.3733C44.3914 55.907 44.0123 56.118 43.5321 55.8573C43.0646 55.5843 42.6729 54.9388 42.6729 54.4051C42.6729 53.8713 43.0519 53.6603 43.5321 53.921C44.0123 54.1941 44.3914 54.8395 44.3914 55.3733Z" fill="#004080"/>
<path d="M43.6988 52.9776C43.2692 52.7293 42.8649 52.6921 42.5742 52.841C42.8522 52.7665 43.1808 52.8162 43.5599 53.0272C44.4697 53.5361 45.2026 54.7898 45.2026 55.8076C45.2026 56.3414 45.0004 56.7013 44.6845 56.8627C45.0888 56.751 45.3416 56.3662 45.3416 55.758C45.3289 54.7401 44.596 53.4989 43.6988 52.9776Z" fill="url(#paint6_radial)"/>
<path d="M51.6085 57.2475C51.6085 57.744 51.4315 58.104 51.1535 58.2654C51.1409 58.2654 49.2707 59.3329 49.2581 59.3329C48.9674 59.4942 49.157 59.1218 48.7021 58.8736C47.7922 58.3647 47.0593 57.111 47.0593 56.0931C47.0593 55.5842 46.5792 55.5842 46.8698 55.4105C46.8824 55.4105 48.8032 54.343 48.8158 54.3305C49.1064 54.1692 49.5108 54.2064 49.9657 54.4547C50.8755 54.9884 51.6085 56.2297 51.6085 57.2475Z" fill="#004080"/>
<path d="M49.6877 58.3275C49.6877 59.3453 48.9548 59.755 48.045 59.246C47.1352 58.7371 46.4023 57.4834 46.4023 56.4656C46.4023 55.4478 47.1352 55.0382 48.045 55.5471C48.9422 56.056 49.6877 57.3097 49.6877 58.3275Z" fill="#004080"/>
<path d="M48.8278 57.9052C48.8278 58.439 48.4488 58.65 47.9686 58.3893C47.5011 58.1162 47.1094 57.4708 47.1094 56.9371C47.1094 56.4033 47.4884 56.1923 47.9686 56.453C48.4488 56.7136 48.8278 57.3715 48.8278 57.9052Z" fill="#004080"/>
<path d="M48.1217 55.5099C47.6921 55.2616 47.2877 55.2244 46.9971 55.3734C47.2751 55.2989 47.6036 55.3485 47.9827 55.5596C48.8925 56.0685 49.6254 57.3221 49.6254 58.34C49.6254 58.8737 49.4232 59.2337 49.1073 59.395C49.5117 59.2833 49.7644 58.8985 49.7644 58.2903C49.7644 57.2725 49.0315 56.0188 48.1217 55.5099Z" fill="url(#paint7_radial)"/>
<path d="M53.4008 56.813V58.5632L42.1798 52.1582L38.7427 51.612L11.2083 35.8852L7.92291 32.5834L0 28.0652V26.3646L53.4008 56.813Z" fill="url(#paint8_linear)"/>
<path d="M53.3896 56.8129V58.5631L68.0476 50.3831V48.5957L53.3896 56.8129Z" fill="url(#paint9_linear)"/>
<path d="M47.9788 56.8624V58.0788L43.4424 55.5467V54.293L47.9788 56.8624Z" fill="url(#paint10_linear)"/>
<path d="M68.0481 48.5958L53.3901 56.813L0.00195312 26.3647L14.66 18.1599L68.0481 48.5958Z" fill="url(#paint11_linear)"/>
<path d="M63.2203 55.1622V56.1553L60.2002 54.4299V53.4369L63.2203 55.1622Z" fill="url(#paint12_linear)"/>
<path d="M63.2217 55.162V56.155L64.0557 55.6957V54.6903L63.2217 55.162Z" fill="url(#paint13_linear)"/>
<path d="M64.0543 54.6906L63.2203 55.1623L60.2002 53.4369L61.0215 52.9777L64.0543 54.6906Z" fill="url(#paint14_linear)"/>
<path d="M63.4847 55.2861V56.6888L62.9287 56.3785V54.9758L63.4847 55.2861Z" fill="url(#paint15_linear)"/>
<path d="M63.4844 55.2865V56.6892L64.647 56.0437V54.6287L63.4844 55.2865Z" fill="url(#paint16_linear)"/>
<path d="M64.6473 54.6284L63.4847 55.2863L62.9287 54.976L64.0913 54.3181L64.6473 54.6284Z" fill="#004080"/>
<path d="M53.4008 38.6658V56.3291L0 25.8311V8.21753L53.4008 38.6658Z" fill="#004080"/>
<path d="M52.1373 39.3731L1.27637 10.3771V25.1109L52.1373 54.1691V39.3731Z" fill="white"/>
<path d="M50.5166 38.6653L51.1863 39.0997V53.8832L50.5166 53.4488V38.6653Z" fill="#004080"/>
<path d="M51.2139 39.0377L51.4666 39.0253V53.8088L51.2139 53.8212V39.0377Z" fill="#004080"/>
<path d="M48.334 37.4243L49.0038 37.8588V52.6423L48.334 52.2079V37.4243Z" fill="#004080"/>
<path d="M49.0273 37.7968L49.2801 37.7844V52.5679L49.0273 52.5804V37.7968Z" fill="#004080"/>
<path d="M46.1465 36.1705L46.8162 36.605V51.3885L46.1465 50.9665V36.1705Z" fill="#004080"/>
<path d="M46.8535 36.5432H47.1063V51.3267L46.8535 51.3391V36.5432Z" fill="#004080"/>
<path d="M43.9766 34.9298L44.6337 35.3642V50.1478L43.9766 49.7133V34.9298Z" fill="#004080"/>
<path d="M44.6709 35.3022L44.9236 35.2898V50.0733L44.6709 50.0857V35.3022Z" fill="#004080"/>
<path d="M41.7861 33.6882L42.4559 34.1227V48.9062L41.7861 48.4717V33.6882Z" fill="#004080"/>
<path d="M42.4814 34.0606L42.7342 34.0482V48.8317L42.4814 48.8441V34.0606Z" fill="#004080"/>
<path d="M39.6025 32.4347L40.2722 32.8691V47.6651L39.6025 47.2307V32.4347Z" fill="#004080"/>
<path d="M40.2959 32.8074H40.5488V47.5909L40.2959 47.6033V32.8074Z" fill="#004080"/>
<path d="M37.4307 31.193L38.0877 31.6274V46.411L37.4307 45.9765V31.193Z" fill="#004080"/>
<path d="M38.126 31.5658L38.3786 31.5533V46.3493H38.126V31.5658Z" fill="#004080"/>
<path d="M35.2412 29.9519L35.911 30.3864V45.1699L35.2412 44.7354V29.9519Z" fill="#004080"/>
<path d="M35.9355 30.3243L36.1882 30.3119V45.0954L35.9355 45.1078V30.3243Z" fill="#004080"/>
<path d="M33.0557 28.6984L33.7254 29.1328V43.9288L33.0557 43.4943V28.6984Z" fill="#004080"/>
<path d="M33.7539 29.0707H34.0066V43.8542L33.7539 43.8666V29.0707Z" fill="#004080"/>
<path d="M30.8691 27.4569L31.5389 27.8913V42.6749L30.8691 42.2405V27.4569Z" fill="#004080"/>
<path d="M31.5771 27.8294L31.8298 27.817V42.613H31.5771V27.8294Z" fill="#004080"/>
<path d="M28.6963 26.2158L29.3533 26.6503V41.4337L28.6963 40.9993V26.2158Z" fill="#004080"/>
<path d="M29.3916 26.5881L29.6444 26.5757V41.3592L29.3916 41.3716V26.5881Z" fill="#004080"/>
<path d="M26.5098 24.9619L27.1795 25.3963V40.1923L26.5098 39.7578V24.9619Z" fill="#004080"/>
<path d="M27.2051 25.3465L27.4578 25.3341V40.1176L27.2051 40.13V25.3465Z" fill="#004080"/>
<path d="M24.3271 23.7209L24.9969 24.1554V38.9388L24.3271 38.5044V23.7209Z" fill="#004080"/>
<path d="M25.0195 24.0932L25.2723 24.0808V38.8767H25.0195V24.0932Z" fill="#004080"/>
<path d="M22.1523 22.4796L22.8095 22.914V37.6976L22.1523 37.2631V22.4796Z" fill="#004080"/>
<path d="M22.8447 22.852L23.0975 22.8396V37.6231L22.8447 37.6355V22.852Z" fill="#004080"/>
<path d="M19.9668 21.238L20.6365 21.6601V36.4559L19.9668 36.0215V21.238Z" fill="#004080"/>
<path d="M20.6621 21.6102L20.9149 21.5978V36.3813L20.6621 36.3937V21.6102Z" fill="#004080"/>
<path d="M17.7783 19.9845L18.4481 20.4189V35.2025L17.7783 34.768V19.9845Z" fill="#004080"/>
<path d="M18.4727 20.357L18.7254 20.3446V35.1405H18.4727V20.357Z" fill="#004080"/>
<path d="M15.5928 18.7433L16.2625 19.1777V33.9613L15.5928 33.5268V18.7433Z" fill="#004080"/>
<path d="M16.2998 19.1157L16.5525 19.1033V33.8868L16.2998 33.8992V19.1157Z" fill="#004080"/>
<path d="M13.418 17.502L14.075 17.924V32.7199L13.418 32.2855V17.502Z" fill="#004080"/>
<path d="M14.1104 17.8746L14.3631 17.8622V32.6457L14.1104 32.6581V17.8746Z" fill="#004080"/>
<path d="M11.2324 16.2483L11.9021 16.6827V31.4663L11.2324 31.0319V16.2483Z" fill="#004080"/>
<path d="M11.9277 16.6205L12.1805 16.608V31.4039H11.9277V16.6205Z" fill="#004080"/>
<path d="M9.04883 15.0071L9.71858 15.4415V30.2251L9.04883 29.7906V15.0071Z" fill="#004080"/>
<path d="M9.74219 15.3799L9.99494 15.3674V30.151L9.74219 30.1634V15.3799Z" fill="#004080"/>
<path d="M6.87207 13.7659L7.52913 14.1879V28.9838L6.87207 28.5494V13.7659Z" fill="#004080"/>
<path d="M7.56445 14.1382L7.8172 14.1257V28.9092L7.56445 28.9217V14.1382Z" fill="#004080"/>
<path d="M4.6875 12.5122L5.35728 12.9467V27.7302L4.6875 27.2957V12.5122Z" fill="#004080"/>
<path d="M5.38477 12.8847L5.6375 12.8723V27.6682H5.38477V12.8847Z" fill="#004080"/>
<path d="M2.50195 11.2708L3.17159 11.7052V26.4887L2.50195 26.0543V11.2708Z" fill="#004080"/>
<path d="M3.19629 11.6433L3.44898 11.6309V26.4144L3.19629 26.4268V11.6433Z" fill="#004080"/>
<path d="M52.1373 39.3731V40.6765L1.71864 11.9287V25.3592L1.27637 25.1109V10.3771L52.1373 39.3731Z" fill="white"/>
<path d="M53.3896 38.6654V56.3287L68.0476 48.1363V30.4358L53.3896 38.6654Z" fill="#004080"/>
<path d="M66.7667 47.4162V32.583L54.6611 39.3851V54.1935L66.7667 47.4162Z" fill="white"/>
<path d="M68.0461 30.4359L53.3881 38.6655L0 8.21719L14.658 0L68.0461 30.4359Z" fill="#004080"/>
<path d="M55.8933 38.9261L55.2236 39.3606V54.1441L55.8933 53.7221V38.9261Z" fill="#004080"/>
<path d="M55.1981 39.2983H54.9453V54.0819L55.1981 54.0943V39.2983Z" fill="#004080"/>
<path d="M57.8651 37.7965L57.1953 38.2185V53.0144L57.8651 52.58V37.7965Z" fill="#004080"/>
<path d="M57.1698 38.1687L56.917 38.1562V52.9398L57.1698 52.9522V38.1687Z" fill="#004080"/>
<path d="M59.8358 36.6543L59.166 37.0887V51.8723L59.8358 51.4378V36.6543Z" fill="#004080"/>
<path d="M59.1404 37.0266L58.8877 37.0142V51.7976L59.1404 51.81V37.0266Z" fill="#004080"/>
<path d="M61.8055 35.5125L61.1484 35.9469V50.7304L61.8055 50.2959V35.5125Z" fill="#004080"/>
<path d="M61.1081 35.8846L60.8555 35.8722V50.6681H61.1081V35.8846Z" fill="#004080"/>
<path d="M63.7792 34.3707L63.1221 34.8052V49.5887L63.7792 49.1667V34.3707Z" fill="#004080"/>
<path d="M63.0817 34.7428H62.8291V49.5263L63.0817 49.5387V34.7428Z" fill="#004080"/>
<path d="M65.7479 33.2408L65.0908 33.6629V48.4588L65.7479 48.0243V33.2408Z" fill="#004080"/>
<path d="M65.0535 33.613L64.8008 33.6006V48.3841L65.0535 48.3965V33.613Z" fill="#004080"/>
<path d="M54.2725 39.6461V40.9495L66.5422 33.8991V47.3296L66.9845 47.0813V32.3351L54.2725 39.6461Z" fill="white"/>
<path opacity="0.2" d="M57.3457 65.204L72.0038 56.9868L125.379 87.4227L118.139 91.4941L120.552 92.8719L119.718 93.3312L117.305 91.9533L110.734 95.6523L57.3457 65.204Z" fill="#004080"/>
<path d="M62.919 64.0492C62.919 64.5457 62.7421 64.9056 62.4641 65.067C62.4514 65.067 60.5813 66.1345 60.5686 66.1345C60.278 66.2959 60.4675 65.9235 60.0126 65.6752C59.1028 65.1663 58.3699 63.9126 58.3699 62.8948C58.3699 62.3859 57.8897 62.3859 58.1803 62.2121C58.193 62.2121 60.1137 61.1446 60.1263 61.1322C60.417 60.9708 60.8213 61.008 61.2763 61.2563C62.1861 61.7776 62.919 63.0189 62.919 64.0492Z" fill="url(#paint17_linear)"/>
<path d="M60.9983 65.1292C60.9983 66.1471 60.2655 66.5567 59.3556 66.0478C58.4458 65.5389 57.7129 64.2852 57.7129 63.2674C57.7129 62.2495 58.4458 61.8399 59.3556 62.3488C60.2528 62.8577 60.9983 64.099 60.9983 65.1292Z" fill="url(#paint18_linear)"/>
<path d="M60.1384 64.7071C60.1384 65.2409 59.7594 65.4519 59.2792 65.1912C58.8117 64.9181 58.4199 64.2727 58.4199 63.7389C58.4199 63.2052 58.799 62.9942 59.2792 63.2548C59.7594 63.5155 60.1384 64.1734 60.1384 64.7071Z" fill="#004080"/>
<path d="M59.4342 62.3117C59.0046 62.0634 58.6002 62.0262 58.3096 62.1751C58.5876 62.1006 58.9161 62.1503 59.2952 62.3613C60.205 62.8702 60.9379 64.1239 60.9379 65.1417C60.9379 65.6755 60.7357 66.0354 60.4198 66.1968C60.8242 66.0851 61.0769 65.7003 61.0769 65.0921C61.0769 64.0618 60.344 62.8206 59.4342 62.3117Z" fill="url(#paint19_radial)"/>
<path d="M67.3545 66.5694C67.3545 67.066 67.1776 67.4259 66.8996 67.5873C66.887 67.5873 65.0168 68.6548 65.0168 68.6548C64.7262 68.8162 64.9157 68.4438 64.4608 68.1955C63.551 67.6866 62.8181 66.4329 62.8181 65.4151C62.8181 64.9061 62.338 64.9061 62.6286 64.7324C62.6412 64.7324 64.5619 63.6649 64.5745 63.6525C64.8651 63.4911 65.2695 63.5283 65.7244 63.7766C66.6216 64.3103 67.3545 65.5516 67.3545 66.5694Z" fill="url(#paint20_linear)"/>
<path d="M65.422 67.6492C65.422 68.667 64.6892 69.0767 63.7794 68.5677C62.8696 68.0588 62.1367 66.8051 62.1367 65.7873C62.1367 64.7694 62.8696 64.3598 63.7794 64.8687C64.6892 65.3901 65.422 66.6314 65.422 67.6492Z" fill="url(#paint21_linear)"/>
<path d="M64.5623 67.2274C64.5623 67.7611 64.1832 67.9721 63.703 67.7115C63.2355 67.4384 62.8438 66.7929 62.8438 66.2592C62.8438 65.7255 63.2229 65.5144 63.703 65.7751C64.1832 66.0482 64.5623 66.6936 64.5623 67.2274Z" fill="#004080"/>
<path d="M63.8561 64.8318C63.4264 64.5836 63.0221 64.5463 62.7314 64.6953C63.0094 64.6208 63.338 64.6704 63.7171 64.8814C64.6269 65.3904 65.3598 66.6441 65.3598 67.6619C65.3598 68.1956 65.1576 68.5556 64.8417 68.717C65.246 68.6053 65.4988 68.2205 65.4988 67.6122C65.4988 66.5944 64.7659 65.3531 63.8561 64.8318Z" fill="url(#paint22_radial)"/>
<path d="M63.7132 66.1846V67.4011L59.1895 64.8813V63.6276L63.7132 66.1846Z" fill="url(#paint23_linear)"/>
<path d="M104.533 87.9194C104.533 88.4159 104.356 88.7759 104.078 88.9373C104.066 88.9373 102.196 90.0048 102.196 90.0048C101.905 90.1661 102.094 89.7938 101.64 89.5455C100.73 89.0366 99.9968 87.7829 99.9968 86.765C99.9968 86.2561 99.5167 86.2561 99.8073 86.0823C99.8199 86.0823 101.741 85.0148 101.753 85.0024C102.044 84.8411 102.448 84.8783 102.903 85.1265C103.788 85.6603 104.533 86.9016 104.533 87.9194Z" fill="url(#paint24_linear)"/>
<path d="M102.598 88.9994C102.598 90.0172 101.865 90.4268 100.955 89.9179C100.045 89.409 99.3125 88.1553 99.3125 87.1375C99.3125 86.1197 100.045 85.71 100.955 86.2189C101.865 86.7279 102.598 87.9815 102.598 88.9994Z" fill="url(#paint25_linear)"/>
<path d="M101.738 88.5771C101.738 89.1109 101.359 89.3219 100.879 89.0612C100.411 88.7882 100.02 88.1427 100.02 87.6089C100.02 87.0752 100.399 86.8642 100.879 87.1248C101.359 87.3979 101.738 88.0434 101.738 88.5771Z" fill="#004080"/>
<path d="M101.032 86.1818C100.602 85.9335 100.198 85.8963 99.9072 86.0452C100.185 85.9708 100.514 86.0204 100.893 86.2314C101.803 86.7403 102.536 87.994 102.536 89.0119C102.536 89.5456 102.333 89.9056 102.017 90.067C102.422 89.9553 102.675 89.5705 102.675 88.9622C102.675 87.9444 101.942 86.6907 101.032 86.1818Z" fill="url(#paint26_radial)"/>
<path d="M108.953 90.4514C108.953 90.9479 108.776 91.3079 108.498 91.4693C108.486 91.4693 106.615 92.5368 106.615 92.5368C106.325 92.6981 106.514 92.3257 106.059 92.0775C105.15 91.5686 104.417 90.3149 104.417 89.297C104.417 88.7881 103.937 88.7881 104.227 88.6143C104.24 88.6143 106.161 87.5468 106.173 87.5344C106.464 87.373 106.868 87.4103 107.323 87.6585C108.22 88.1799 108.953 89.4212 108.953 90.4514Z" fill="url(#paint27_linear)"/>
<path d="M107.021 91.5187C107.021 92.5365 106.288 92.9461 105.378 92.4372C104.468 91.9283 103.735 90.6746 103.735 89.6568C103.735 88.6389 104.468 88.2293 105.378 88.7382C106.288 89.2596 107.021 90.5008 107.021 91.5187Z" fill="url(#paint28_linear)"/>
<path d="M106.161 91.0971C106.161 91.6309 105.782 91.8419 105.302 91.5812C104.834 91.3081 104.442 90.6627 104.442 90.129C104.442 89.5952 104.821 89.3842 105.302 89.6448C105.782 89.9179 106.161 90.5758 106.161 91.0971Z" fill="#004080"/>
<path d="M105.468 88.7138C105.039 88.4655 104.634 88.4283 104.344 88.5772C104.622 88.5028 104.95 88.5524 105.329 88.7634C106.239 89.2723 106.972 90.526 106.972 91.5439C106.972 92.0776 106.77 92.4376 106.454 92.599C106.858 92.4873 107.111 92.1025 107.111 91.4942C107.098 90.464 106.366 89.2227 105.468 88.7138Z" fill="url(#paint29_radial)"/>
<path d="M110.747 90.0167V91.7669L99.5255 85.3495L96.0885 84.8158L68.5541 69.0889L65.2687 65.7871L57.3457 61.2565V59.5684L110.747 90.0167Z" fill="url(#paint30_linear)"/>
<path d="M110.735 90.0167V91.7669L125.381 83.5745V81.7871L110.735 90.0167Z" fill="url(#paint31_linear)"/>
<path d="M105.324 90.0542V91.2707L100.788 88.7509V87.4972L105.324 90.0542Z" fill="url(#paint32_linear)"/>
<path d="M125.381 81.7872L110.736 90.0168L57.3477 59.5685L72.0057 51.3513L125.381 81.7872Z" fill="url(#paint33_linear)"/>
<path d="M120.566 88.3537V89.3591L117.533 87.6337V86.6283L120.566 88.3537Z" fill="url(#paint34_linear)"/>
<path d="M120.567 88.3535V89.359L121.389 88.8997V87.8943L120.567 88.3535Z" fill="url(#paint35_linear)"/>
<path d="M121.387 87.8944L120.566 88.3537L117.533 86.6283L118.367 86.1691L121.387 87.8944Z" fill="white"/>
<path d="M120.818 88.4777V89.8927L120.274 89.5699V88.1674L120.818 88.4777Z" fill="url(#paint36_linear)"/>
<path d="M120.818 88.4776V89.8927L121.981 89.2348V87.8322L120.818 88.4776Z" fill="url(#paint37_linear)"/>
<path d="M121.98 87.8322L120.818 88.4776L120.274 88.1673L121.437 87.5219L121.98 87.8322Z" fill="url(#paint38_linear)"/>
<path d="M110.747 71.8573V89.5205L57.3457 59.0225V41.4089L110.747 71.8573Z" fill="#004080"/>
<path d="M109.47 72.577L58.6094 43.5686V58.3025L109.47 87.3606V72.577Z" fill="white"/>
<path d="M107.864 71.8695L108.521 72.2915V87.0874L107.864 86.653V71.8695Z" fill="#004080"/>
<path d="M108.56 72.2419L108.812 72.2295V87.013L108.56 87.0254V72.2419Z" fill="#004080"/>
<path d="M105.682 70.6161L106.351 71.0505V85.834L105.682 85.3996V70.6161Z" fill="#004080"/>
<path d="M106.378 70.9882L106.631 70.9758V85.7718H106.378V70.9882Z" fill="#004080"/>
<path d="M103.495 69.375L104.165 69.8094V84.5929L103.495 84.1585V69.375Z" fill="#004080"/>
<path d="M104.189 69.7473L104.442 69.7349V84.5184L104.189 84.5308V69.7473Z" fill="#004080"/>
<path d="M101.306 68.1334L101.975 68.5554V83.3514L101.306 82.9169V68.1334Z" fill="#004080"/>
<path d="M102.014 68.5058L102.266 68.4934V83.2769L102.014 83.2893V68.5058Z" fill="#004080"/>
<path d="M99.1338 66.8798L99.791 67.3142V82.0977L99.1338 81.6633V66.8798Z" fill="#004080"/>
<path d="M99.8281 67.2519L100.081 67.2395V82.0354H99.8281V67.2519Z" fill="#004080"/>
<path d="M96.9473 65.6385L97.617 66.073V80.8565L96.9473 80.422V65.6385Z" fill="#004080"/>
<path d="M97.6396 66.0108L97.8924 65.9984V80.7819L97.6396 80.7943V66.0108Z" fill="#004080"/>
<path d="M94.7617 64.3972L95.4314 64.8192V79.6152L94.7617 79.1807V64.3972Z" fill="#004080"/>
<path d="M95.458 64.7694L95.7107 64.757V79.5404L95.458 79.5528V64.7694Z" fill="#004080"/>
<path d="M92.5859 63.1434L93.243 63.5779V78.3613L92.5859 77.9269V63.1434Z" fill="#004080"/>
<path d="M93.2803 63.516L93.533 63.5035V78.2995H93.2803V63.516Z" fill="#004080"/>
<path d="M90.4014 61.9022L91.0712 62.3367V77.1202L90.4014 76.6857V61.9022Z" fill="#004080"/>
<path d="M91.0996 62.2744L91.3523 62.262V77.0455L91.0996 77.0579V62.2744Z" fill="#004080"/>
<path d="M88.2158 60.6611L88.8855 61.0956V75.8791L88.2158 75.4446V60.6611Z" fill="#004080"/>
<path d="M88.9111 61.0333L89.1639 61.0209V75.8044L88.9111 75.8168V61.0333Z" fill="#004080"/>
<path d="M86.0293 59.4075L86.699 59.8419V74.6254L86.0293 74.191V59.4075Z" fill="#004080"/>
<path d="M86.7373 59.7799H86.9901V74.5634L86.7373 74.5758V59.7799Z" fill="#004080"/>
<path d="M83.8545 58.166L84.5116 58.6004V73.384L83.8545 72.9496V58.166Z" fill="#004080"/>
<path d="M84.5508 58.5388L84.8035 58.5264V73.3099L84.5508 73.3223V58.5388Z" fill="#004080"/>
<path d="M81.6709 56.9247L82.3406 57.3591V72.1426L81.6709 71.7082V56.9247Z" fill="#004080"/>
<path d="M82.3662 57.2971L82.619 57.2847V72.0682L82.3662 72.0806V57.2971Z" fill="#004080"/>
<path d="M79.4834 55.6713L80.1532 56.1057V70.8893L79.4834 70.4672V55.6713Z" fill="#004080"/>
<path d="M80.1807 56.0435H80.4333V70.827L80.1807 70.8394V56.0435Z" fill="#004080"/>
<path d="M77.3105 54.4296L77.9676 54.864V69.6476L77.3105 69.2131V54.4296Z" fill="#004080"/>
<path d="M78.0049 54.8021L78.2576 54.7897V69.5732L78.0049 69.5856V54.8021Z" fill="#004080"/>
<path d="M75.124 53.1886L75.7811 53.6231V68.4066L75.124 67.9721V53.1886Z" fill="#004080"/>
<path d="M75.8203 53.5609L76.0731 53.5485V68.3319L75.8203 68.3444V53.5609Z" fill="#004080"/>
<path d="M72.9414 51.9349L73.6112 52.3694V67.1653L72.9414 66.7309V51.9349Z" fill="#004080"/>
<path d="M73.6348 52.3073H73.8875V67.0908L73.6348 67.1032V52.3073Z" fill="#004080"/>
<path d="M70.75 50.6936L71.4197 51.128V65.9116L70.75 65.4771V50.6936Z" fill="#004080"/>
<path d="M71.4453 51.0658L71.7107 51.0533V65.8493H71.4453V51.0658Z" fill="#004080"/>
<path d="M68.5781 49.4526L69.2351 49.8871V64.6706L68.5781 64.2361V49.4526Z" fill="#004080"/>
<path d="M69.2744 49.8252L69.5271 49.8127V64.5962L69.2744 64.6086V49.8252Z" fill="#004080"/>
<path d="M66.3945 48.1986L67.0642 48.6331V63.429L66.3945 62.9945V48.1986Z" fill="#004080"/>
<path d="M67.0898 48.5709H67.3425V63.3544L67.0898 63.3668V48.5709Z" fill="#004080"/>
<path d="M64.2041 46.9573L64.8738 47.3917V62.1752L64.2041 61.7408V46.9573Z" fill="#004080"/>
<path d="M64.8994 47.3298L65.1522 47.3174V62.1133H64.8994V47.3298Z" fill="#004080"/>
<path d="M62.0352 45.7161L62.6922 46.1505V60.934L62.0352 60.4996V45.7161Z" fill="#004080"/>
<path d="M62.7305 46.0887L62.9831 46.0763V60.8599L62.7305 60.8723V46.0887Z" fill="#004080"/>
<path d="M59.8477 44.4626L60.5047 44.8971V59.693L59.8477 59.2586V44.4626Z" fill="#004080"/>
<path d="M60.5391 44.8472L60.7918 44.8348V59.6183L60.5391 59.6307V44.8472Z" fill="#004080"/>
<path d="M109.47 72.577V73.8804L59.0517 45.1202V58.5631L58.6094 58.3025V43.5686L109.47 72.577Z" fill="url(#paint39_linear)"/>
<path d="M110.735 71.8572V89.5205L125.381 81.3405V63.64L110.735 71.8572Z" fill="#004080"/>
<path d="M124.113 80.6205V65.7749L111.995 72.577V87.3854L124.113 80.6205Z" fill="white"/>
<path d="M125.381 63.6399L110.736 71.8571L57.3477 41.4088L72.0057 33.204L125.381 63.6399Z" fill="#004080"/>
<path d="M113.235 72.1301L112.565 72.5646V87.3481L113.235 86.9137V72.1301Z" fill="#004080"/>
<path d="M112.528 72.5023L112.275 72.4899V87.2734L112.528 87.2858V72.5023Z" fill="#004080"/>
<path d="M115.203 70.9882L114.533 71.4226V86.2062L115.203 85.7717V70.9882Z" fill="#004080"/>
<path d="M114.508 71.3608L114.255 71.3484V86.1443H114.508V71.3608Z" fill="#004080"/>
<path d="M117.178 69.8458L116.508 70.2803V85.0638L117.178 84.6418V69.8458Z" fill="#004080"/>
<path d="M116.482 70.2183H116.229V85.0018L116.482 85.0142V70.2183Z" fill="#004080"/>
<path d="M119.148 68.7166L118.479 69.1386V83.9344L119.148 83.5V68.7166Z" fill="#004080"/>
<path d="M118.453 69.0887L118.2 69.0763V83.8599L118.453 83.8723V69.0887Z" fill="#004080"/>
<path d="M121.119 67.5745L120.449 68.0089V82.7924L121.119 82.358V67.5745Z" fill="#004080"/>
<path d="M120.424 67.947L120.171 67.9346V82.718L120.424 82.7304V67.947Z" fill="#004080"/>
<path d="M123.092 66.4327L122.422 66.8672V81.6506L123.092 81.2162V66.4327Z" fill="#004080"/>
<path d="M122.396 66.8049L122.144 66.7925V81.5884H122.396V66.8049Z" fill="#004080"/>
<path d="M111.618 72.838V74.1413L123.888 67.0909V80.5339L124.33 80.2732V65.5393L111.618 72.838Z" fill="url(#paint40_linear)"/>
<path d="M147.234 93.5794V109.468L117.905 92.785V76.9464L147.234 93.5794Z" fill="#004080"/>
<path d="M147.234 99.7857V109.468L117.905 92.785V83.1527L147.234 99.7857Z" fill="url(#paint41_linear)"/>
<path d="M146.095 94.2247L119.041 78.895V92.1394L146.095 107.531V94.2247Z" fill="white"/>
<path d="M143.696 93.1323L144.303 93.5295V106.823L143.696 106.426V93.1323Z" fill="#004080"/>
<path d="M144.327 93.4675H144.555V106.762H144.327V93.4675Z" fill="white"/>
<path d="M141.736 92.0155L142.343 92.4003V105.707L141.736 105.31V92.0155Z" fill="#004080"/>
<path d="M142.369 92.3503L142.597 92.3379V105.644H142.369V92.3503Z" fill="white"/>
<path d="M139.78 90.8983L140.374 91.2831V104.577L139.78 104.192V90.8983Z" fill="#004080"/>
<path d="M140.398 91.2336L140.626 91.2212V104.515L140.398 104.528V91.2336Z" fill="white"/>
<path d="M137.819 89.781L138.413 90.1658V103.46L137.819 103.075V89.781Z" fill="#004080"/>
<path d="M138.438 90.1163L138.666 90.1039V103.398L138.438 103.41V90.1163Z" fill="white"/>
<path d="M135.852 88.6516L136.458 89.0488V102.343L135.852 101.958V88.6516Z" fill="#004080"/>
<path d="M136.481 88.9989L136.709 88.9865V102.28L136.481 102.293V88.9989Z" fill="white"/>
<path d="M133.893 87.5341L134.486 87.9313V101.225L133.893 100.828V87.5341Z" fill="#004080"/>
<path d="M134.512 87.8691H134.739V101.163H134.512V87.8691Z" fill="white"/>
<path d="M131.933 86.4172L132.526 86.802V100.108L131.933 99.7113V86.4172Z" fill="#004080"/>
<path d="M132.552 86.7524L132.779 86.74V100.046H132.552V86.7524Z" fill="white"/>
<path d="M129.961 85.3002L130.568 85.685V98.979L129.961 98.5942V85.3002Z" fill="#004080"/>
<path d="M130.591 85.6353L130.818 85.6229V98.9169L130.591 98.9293V85.6353Z" fill="white"/>
<path d="M128.003 84.183L128.597 84.5678V97.8618L128.003 97.477V84.183Z" fill="#004080"/>
<path d="M128.633 84.5183L128.86 84.5059V97.7998L128.633 97.8122V84.5183Z" fill="white"/>
<path d="M126.045 83.0533L126.639 83.4506V96.7445L126.045 96.3597V83.0533Z" fill="#004080"/>
<path d="M126.666 83.3883H126.894V96.6823L126.666 96.6947V83.3883Z" fill="white"/>
<path d="M124.072 81.9364L124.679 82.3336V95.6276L124.072 95.2304V81.9364Z" fill="#004080"/>
<path d="M124.707 82.2715L124.934 82.259V95.5654H124.707V82.2715Z" fill="white"/>
<path d="M122.114 80.8192L122.708 81.204V94.5104L122.114 94.1132V80.8192Z" fill="#004080"/>
<path d="M122.745 81.1543L122.973 81.1418V94.4358L122.745 94.4483V81.1543Z" fill="white"/>
<path d="M120.156 79.7019L120.75 80.0867V93.3807L120.156 92.9959V79.7019Z" fill="#004080"/>
<path d="M120.775 80.0372L121.003 80.0248V93.3187L120.775 93.3311V80.0372Z" fill="white"/>
<path d="M146.095 94.2247V95.4039L119.433 80.2852V92.3752L119.041 92.1393V78.895L146.095 94.2247Z" fill="white"/>
<path d="M147.236 93.5793V109.468L158.394 103.311V87.3854L147.236 93.5793Z" fill="url(#paint42_linear)"/>
<path d="M147.236 99.7856V109.467L158.394 103.311V93.5917L147.236 99.7856Z" fill="url(#paint43_linear)"/>
<path d="M158.394 87.3855L147.236 93.5795L117.907 76.9464L129.065 70.7649L158.394 87.3855Z" fill="#004080"/>
<path d="M130.912 80.8193V81.9612L124.442 78.2871V77.1699L130.912 80.8193Z" fill="#004080"/>
<path d="M130.896 80.8191V81.9611L137.644 78.2372V77.0704L130.896 80.8191Z" fill="#004080"/>
<path d="M137.647 77.0703L130.899 80.8189L124.442 77.1696L131.19 73.4333L137.647 77.0703Z" fill="#004080"/>
<path opacity="0.2" d="M113.514 97.8739L128.172 89.6567L180.789 119.658L173.549 123.73L175.949 125.095L175.128 125.567L172.715 124.189L166.144 127.875L113.514 97.8739Z" fill="#004080"/>
<path d="M119.1 96.7199C119.1 97.2165 118.924 97.5764 118.646 97.7378C118.633 97.7378 116.763 98.8053 116.75 98.8053C116.46 98.9666 116.649 98.5943 116.194 98.346C115.284 97.8371 114.552 96.5834 114.552 95.5656C114.552 95.0566 114.071 95.0566 114.362 94.8829C114.375 94.8829 116.295 93.8154 116.308 93.803C116.599 93.6416 117.003 93.6788 117.458 93.9271C118.355 94.4484 119.1 95.7021 119.1 96.7199Z" fill="url(#paint44_linear)"/>
<path d="M117.168 97.7997C117.168 98.8175 116.435 99.2271 115.526 98.7182C114.616 98.2093 113.883 96.9556 113.883 95.9378C113.883 94.9199 114.616 94.5103 115.526 95.0192C116.435 95.5282 117.168 96.7694 117.168 97.7997Z" fill="url(#paint45_linear)"/>
<path d="M116.308 97.3776C116.308 97.9114 115.929 98.1224 115.449 97.8617C114.982 97.5887 114.59 96.9432 114.59 96.4095C114.59 95.8757 114.969 95.6647 115.449 95.9254C115.929 96.1984 116.308 96.8439 116.308 97.3776Z" fill="#004080"/>
<path d="M115.602 94.9823C115.173 94.734 114.768 94.7092 114.478 94.8458C114.756 94.7713 115.084 94.8209 115.463 95.032C116.373 95.5409 117.106 96.7946 117.106 97.8124C117.106 98.3462 116.904 98.7061 116.588 98.8675C116.992 98.7558 117.245 98.371 117.245 97.7628C117.245 96.7325 116.512 95.4912 115.602 94.9823Z" fill="url(#paint46_radial)"/>
<path d="M123.522 99.2397C123.522 99.7362 123.346 100.096 123.068 100.258C123.055 100.258 121.185 101.325 121.172 101.325C120.881 101.486 121.071 101.114 120.616 100.866C119.706 100.357 118.973 99.1032 118.973 98.0853C118.973 97.5764 118.493 97.5764 118.784 97.4026C118.796 97.4026 120.717 96.3351 120.73 96.3227C121.021 96.1614 121.425 96.1986 121.88 96.4469C122.79 96.9806 123.522 98.2219 123.522 99.2397Z" fill="url(#paint47_linear)"/>
<path d="M121.59 100.32C121.59 101.338 120.857 101.747 119.947 101.238C119.038 100.729 118.305 99.4757 118.305 98.4578C118.305 97.44 119.038 97.0303 119.947 97.5393C120.857 98.0606 121.59 99.3019 121.59 100.32Z" fill="url(#paint48_linear)"/>
<path d="M120.73 99.8978C120.73 100.431 120.351 100.642 119.871 100.382C119.403 100.109 119.012 99.4633 119.012 98.9296C119.012 98.3959 119.391 98.1849 119.871 98.4455C120.351 98.7186 120.73 99.364 120.73 99.8978Z" fill="#004080"/>
<path d="M120.037 97.5022C119.607 97.254 119.203 97.2167 118.912 97.3657C119.19 97.2912 119.519 97.3409 119.898 97.5519C120.808 98.0608 121.54 99.3145 121.54 100.332C121.54 100.866 121.338 101.226 121.022 101.387C121.427 101.276 121.679 100.891 121.679 100.283C121.667 99.2648 120.934 98.0236 120.037 97.5022Z" fill="url(#paint49_radial)"/>
<path d="M119.895 98.855V100.071L115.358 97.5517V96.298L119.895 98.855Z" fill="url(#paint50_linear)"/>
<path d="M160.697 120.589C160.697 121.086 160.52 121.446 160.242 121.607C160.23 121.607 158.359 122.675 158.347 122.675C158.056 122.836 158.246 122.464 157.791 122.216C156.881 121.707 156.148 120.453 156.148 119.435C156.148 118.926 155.668 118.926 155.959 118.752C155.971 118.752 157.892 117.685 157.905 117.672C158.195 117.511 158.6 117.548 159.054 117.797C159.964 118.33 160.697 119.572 160.697 120.589Z" fill="url(#paint51_linear)"/>
<path d="M158.765 121.669C158.765 122.687 158.032 123.097 157.122 122.588C156.212 122.079 155.479 120.825 155.479 119.808C155.479 118.79 156.212 118.38 157.122 118.889C158.032 119.41 158.765 120.652 158.765 121.669Z" fill="url(#paint52_linear)"/>
<path d="M157.905 121.247C157.905 121.781 157.526 121.992 157.046 121.731C156.578 121.458 156.187 120.813 156.187 120.279C156.187 119.745 156.566 119.534 157.046 119.795C157.526 120.068 157.905 120.713 157.905 121.247Z" fill="#004080"/>
<path d="M157.201 118.852C156.771 118.604 156.367 118.566 156.076 118.715C156.354 118.641 156.683 118.69 157.062 118.901C157.972 119.41 158.705 120.664 158.705 121.682C158.705 122.216 158.502 122.576 158.186 122.737C158.591 122.625 158.844 122.241 158.844 121.632C158.844 120.614 158.111 119.361 157.201 118.852Z" fill="url(#paint53_radial)"/>
<path d="M165.12 123.122C165.12 123.618 164.943 123.978 164.665 124.14C164.653 124.14 162.783 125.207 162.783 125.207C162.492 125.368 162.681 124.996 162.227 124.748C161.317 124.239 160.584 122.985 160.584 121.967C160.584 121.458 160.104 121.458 160.394 121.285C160.407 121.285 162.328 120.217 162.34 120.205C162.631 120.043 163.035 120.081 163.49 120.329C164.387 120.85 165.12 122.091 165.12 123.122Z" fill="url(#paint54_linear)"/>
<path d="M163.188 124.202C163.188 125.22 162.455 125.629 161.545 125.12C160.635 124.611 159.902 123.358 159.902 122.34C159.902 121.322 160.635 120.912 161.545 121.421C162.455 121.93 163.188 123.171 163.188 124.202Z" fill="url(#paint55_linear)"/>
<path d="M162.342 123.767C162.342 124.301 161.963 124.512 161.483 124.251C161.016 123.978 160.624 123.333 160.624 122.799C160.624 122.265 161.003 122.054 161.483 122.315C161.951 122.588 162.342 123.246 162.342 123.767Z" fill="#004080"/>
<path d="M161.635 121.384C161.206 121.136 160.801 121.099 160.511 121.248C160.789 121.173 161.117 121.223 161.496 121.434C162.406 121.943 163.139 123.196 163.139 124.214C163.139 124.748 162.937 125.108 162.621 125.269C163.025 125.158 163.278 124.773 163.278 124.165C163.278 123.134 162.545 121.893 161.635 121.384Z" fill="url(#paint56_radial)"/>
<path d="M166.144 122.241V123.991L155.694 118.02L152.256 117.486L124.722 101.76L121.437 98.4578L113.514 93.9271V92.239L166.144 122.241Z" fill="#004080"/>
<path d="M166.145 122.24V123.99L180.79 115.81V114.023L166.145 122.24Z" fill="#004080"/>
<path d="M166.145 123.842L167.13 127.218L181.776 119.038L180.79 115.624L166.145 123.842Z" fill="#004080"/>
<path d="M161.493 122.724V123.941L156.957 121.421V120.167L161.493 122.724Z" fill="#004080"/>
<path d="M180.789 114.023L166.144 122.24L113.514 92.2388L128.172 84.0216L180.789 114.023Z" fill="#004080"/>
<path d="M176.101 120.254V121.259L173.081 119.522V118.529L176.101 120.254Z" fill="url(#paint57_linear)"/>
<path d="M176.101 120.254V121.259L176.934 120.788V119.782L176.101 120.254Z" fill="url(#paint58_linear)"/>
<path d="M176.935 119.783L176.101 120.254L173.081 118.529L173.902 118.07L176.935 119.783Z" fill="url(#paint59_linear)"/>
<path d="M176.354 120.378V121.781L175.811 121.471V120.068L176.354 120.378Z" fill="url(#paint60_linear)"/>
<path d="M176.354 120.378V121.781L177.529 121.135V119.72L176.354 120.378Z" fill="#004080"/>
<path d="M177.529 119.721L176.354 120.378L175.811 120.068L176.973 119.41L177.529 119.721Z" fill="#004080"/>
<path d="M145.825 92.81V108.698L116.483 92.0156V76.177L145.825 92.81Z" fill="url(#paint61_linear)"/>
<path d="M145.825 99.0162V108.698L116.483 92.0154V82.3832L145.825 99.0162Z" fill="#004080"/>
<path d="M144.686 93.4553L117.619 78.1133V91.37L144.686 106.749V93.4553Z" fill="white"/>
<path d="M142.286 92.3632L142.88 92.7479V106.042L142.286 105.657V92.3632Z" fill="#004080"/>
<path d="M142.92 92.6982L143.147 92.6858V105.98L142.92 105.992V92.6982Z" fill="#004080"/>
<path d="M140.327 91.2458L140.921 91.6306V104.925L140.327 104.54V91.2458Z" fill="#004080"/>
<path d="M140.947 91.5809L141.175 91.5685V104.862L140.947 104.875V91.5809Z" fill="#004080"/>
<path d="M138.356 90.1162L138.963 90.5134V103.807L138.356 103.423V90.1162Z" fill="#004080"/>
<path d="M138.987 90.4512H139.215V103.745L138.987 103.758V90.4512Z" fill="#004080"/>
<path d="M136.398 88.9991L136.993 89.3963V102.69L136.398 102.293V88.9991Z" fill="#004080"/>
<path d="M137.031 89.3344L137.259 89.322V102.628H137.031V89.3344Z" fill="#004080"/>
<path d="M134.439 87.8821L135.033 88.2669V101.573L134.439 101.176V87.8821Z" fill="#004080"/>
<path d="M135.061 88.2174L135.288 88.205V101.499L135.061 101.511V88.2174Z" fill="#004080"/>
<path d="M132.467 86.7648L133.073 87.1496V100.444L132.467 100.059V86.7648Z" fill="#004080"/>
<path d="M133.099 87.1001L133.326 87.0876V100.382L133.099 100.394V87.1001Z" fill="#004080"/>
<path d="M130.508 85.6477L131.102 86.0325V99.3265L130.508 98.9417V85.6477Z" fill="#004080"/>
<path d="M131.141 85.9829L131.368 85.9705V99.2644L131.141 99.2768V85.9829Z" fill="#004080"/>
<path d="M128.549 84.5183L129.143 84.9155V98.2096L128.549 97.8123V84.5183Z" fill="#004080"/>
<path d="M129.171 84.8536H129.398V98.1476L129.171 98.16V84.8536Z" fill="#004080"/>
<path d="M126.579 83.4011L127.186 83.7859V97.0923L126.579 96.6951V83.4011Z" fill="#004080"/>
<path d="M127.209 83.7363L127.436 83.7239V97.0303H127.209V83.7363Z" fill="#004080"/>
<path d="M124.621 82.2838L125.228 82.6686V95.9626L124.621 95.5778V82.2838Z" fill="#004080"/>
<path d="M125.257 82.6191L125.484 82.6067V95.9007L125.257 95.9131V82.6191Z" fill="#004080"/>
<path d="M122.662 81.1666L123.256 81.5514V94.8454L122.662 94.4606V81.1666Z" fill="#004080"/>
<path d="M123.283 81.5019L123.51 81.4895V94.7835L123.283 94.7959V81.5019Z" fill="#004080"/>
<path d="M120.704 80.0497L121.298 80.4345V93.7284L120.704 93.3436V80.0497Z" fill="#004080"/>
<path d="M121.324 80.385L121.552 80.3726V93.6665L121.324 93.679V80.385Z" fill="#004080"/>
<path d="M118.732 78.9199L119.339 79.3171V92.6112L118.732 92.2139V78.9199Z" fill="#004080"/>
<path d="M119.362 79.2552H119.59V92.5493H119.362V79.2552Z" fill="#004080"/>
<path d="M144.686 93.4553V94.6221L118.024 79.5159V91.5934L117.619 91.37V78.1133L144.686 93.4553Z" fill="white"/>
<path d="M145.812 92.8101V108.698L156.969 102.529V86.6162L145.812 92.8101Z" fill="url(#paint62_linear)"/>
<path d="M145.812 99.0163V108.698L156.969 102.529V92.8224L145.812 99.0163Z" fill="url(#paint63_linear)"/>
<path d="M156.97 86.6161L145.812 92.81L116.483 76.177L127.654 69.9955L156.97 86.6161Z" fill="url(#paint64_linear)"/>
<path d="M161.404 98.6564L159.193 102.12V117.586L144.914 109.468V93.741L147.125 90.5881L161.404 98.6564Z" fill="url(#paint65_linear)"/>
<path d="M161.404 98.6564L159.193 102.12L144.914 93.7409L147.125 90.5881L161.404 98.6564Z" fill="url(#paint66_linear)"/>
<path d="M159.193 107.842V117.586L144.914 109.468V99.7611L159.193 107.842Z" fill="#004080"/>
<path d="M151.558 98.5696V101.176C151.558 101.511 151.192 101.71 150.901 101.549L146.504 99.0413C146.365 98.9669 146.289 98.8179 146.289 98.669V95.8513C146.289 95.5286 146.656 95.3176 146.946 95.4789L151.141 97.8497C151.394 97.9987 151.558 98.2717 151.558 98.5696Z" fill="url(#paint67_linear)"/>
<path d="M146.671 98.3707V96.0495C146.671 95.913 146.81 95.8385 146.936 95.9005L150.891 98.1348C151.068 98.2341 151.182 98.4327 151.182 98.6313V100.965C151.182 101.101 151.043 101.176 150.917 101.114L146.962 98.8672C146.785 98.7679 146.671 98.5817 146.671 98.3707Z" fill="white"/>
<path d="M157.562 101.983V104.59C157.562 104.925 157.196 105.123 156.905 104.962L152.71 102.579C152.457 102.43 152.293 102.157 152.293 101.871V99.277C152.293 98.9542 152.659 98.7432 152.95 98.9046L157.145 101.275C157.398 101.412 157.562 101.685 157.562 101.983Z" fill="url(#paint68_linear)"/>
<path d="M152.676 101.784V99.4632C152.676 99.3266 152.815 99.2522 152.941 99.3142L156.896 101.548C157.073 101.648 157.187 101.846 157.187 102.045V104.379C157.187 104.515 157.048 104.59 156.922 104.528L152.966 102.281C152.79 102.182 152.676 101.995 152.676 101.784Z" fill="white"/>
<path d="M161.405 98.6563L159.193 101.97V117.586L172.727 110.026V94.2622L170.515 93.5422L161.405 98.6563Z" fill="url(#paint69_linear)"/>
<path d="M159.193 107.842V117.586L172.727 110.026V100.245L159.193 107.842Z" fill="url(#paint70_linear)"/>
<path d="M170.516 93.5425L161.405 98.6565L147.126 90.5883L156.249 85.4742L170.516 93.5425Z" fill="url(#paint71_linear)"/>
<path d="M156.248 85.4742L170.514 93.5425L172.726 94.2624L158.51 86.0949L156.248 85.4742Z" fill="url(#paint72_linear)"/>
<path d="M166.423 98.7931V101.4C166.423 101.735 166.789 101.933 167.08 101.772L171.275 99.3889C171.528 99.2399 171.692 98.9669 171.692 98.6814V96.0871C171.692 95.7644 171.326 95.5534 171.035 95.7148L166.84 98.0856C166.587 98.2345 166.423 98.5076 166.423 98.7931Z" fill="#004080"/>
<path d="M171.31 98.6069V96.2857C171.31 96.1492 171.171 96.0747 171.045 96.1368L167.09 98.371C166.913 98.4703 166.799 98.6689 166.799 98.8675V101.201C166.799 101.338 166.938 101.412 167.064 101.35L171.019 99.1034C171.209 99.0041 171.31 98.8055 171.31 98.6069Z" fill="url(#paint73_linear)"/>
<path d="M160.419 102.206V104.813C160.419 105.148 160.785 105.347 161.076 105.185L165.271 102.802C165.524 102.653 165.688 102.38 165.688 102.095V99.5005C165.688 99.1777 165.322 98.9667 165.031 99.1281L160.836 101.499C160.583 101.648 160.419 101.921 160.419 102.206Z" fill="#004080"/>
<path d="M165.307 102.02V99.6989C165.307 99.5624 165.168 99.4879 165.042 99.55L161.087 101.784C160.91 101.884 160.796 102.082 160.796 102.281V104.627C160.796 104.763 160.935 104.838 161.061 104.776L165.017 102.529C165.206 102.417 165.307 102.219 165.307 102.02Z" fill="url(#paint74_linear)"/>
<path d="M171.31 98.6069V96.2857C171.31 96.1492 171.171 96.0747 171.045 96.1368L167.09 98.3711C166.913 98.4704 166.799 98.669 166.799 98.8676L171.019 99.1034C171.209 99.0041 171.31 98.8055 171.31 98.6069Z" fill="white"/>
<path d="M165.307 102.02V99.6989C165.307 99.5624 165.168 99.4879 165.042 99.55L161.087 101.784C160.91 101.884 160.796 102.082 160.796 102.281L165.017 102.517C165.206 102.417 165.307 102.219 165.307 102.02Z" fill="white"/>
<path d="M165.561 111.404V121.161L159.243 117.586V107.892L165.561 111.404Z" fill="#004080"/>
<path d="M160.506 116.866V110.014L164.297 112.136V119.013L160.506 116.866Z" fill="white"/>
<path d="M165.561 111.404L172.41 105.955L166.079 102.38L159.243 107.891L165.561 111.404Z" fill="#004080"/>
<path d="M179.046 103.783L172.412 105.955L166.081 102.38L172.728 100.258L179.046 103.783Z" fill="#004080"/>
<path d="M151.498 106.426L146.178 103.41V108.748L151.498 111.776V106.426Z" fill="white"/>
<path d="M152.292 106.874V112.223L157.928 115.438V110.064L152.292 106.874Z" fill="white"/>
<path d="M151.497 108.909L146.177 105.905V106.265L151.497 109.294V108.909Z" fill="white"/>
<path d="M151.497 110.15L146.177 107.146V107.506L151.497 110.535V110.15Z" fill="white"/>
<path d="M151.497 111.392L146.177 108.388V108.748L151.497 111.777V111.392Z" fill="white"/>
<path d="M151.497 107.668L146.177 104.664V105.024L151.497 108.053V107.668Z" fill="white"/>
<path d="M151.497 106.427L146.177 103.423V103.783L151.497 106.812V106.427Z" fill="white"/>
<path d="M152.292 109.741L157.928 112.956V112.546L152.292 109.356V109.741Z" fill="white"/>
<path d="M152.292 106.874V107.258L157.928 110.473V110.064L152.292 106.874Z" fill="white"/>
<path d="M152.292 112.224L157.928 115.438V115.029L152.292 111.839V112.224Z" fill="white"/>
<path d="M152.292 108.5L157.928 111.715V111.305L152.292 108.115V108.5Z" fill="white"/>
<path d="M152.292 110.982L157.928 114.197V113.788L152.292 110.598V110.982Z" fill="white"/>
<path d="M159.243 107.892L165.296 111.615L165.561 121.161L165.776 111.491L172.41 105.955L165.397 111.206L159.243 107.892Z" fill="url(#paint75_radial)"/>
<path d="M129.482 80.0375V81.1795L123.013 77.5053V76.3882L129.482 80.0375Z" fill="url(#paint76_linear)"/>
<path d="M129.483 80.0375V81.1795L136.231 77.4557V76.3013L129.483 80.0375Z" fill="url(#paint77_linear)"/>
<path d="M136.23 76.3013L129.482 80.0375L123.013 76.3882L129.773 72.652L136.23 76.3013Z" fill="url(#paint78_linear)"/>
<path d="M141.793 85.9332V87.0751L137.155 84.4685V83.3638L141.793 85.9332Z" fill="url(#paint79_linear)"/>
<path d="M141.792 85.9334V87.0754L146.341 84.6673V83.5129L141.792 85.9334Z" fill="url(#paint80_linear)"/>
<path d="M146.342 83.5131L141.793 85.9335L137.155 83.3641L141.704 80.9436L146.342 83.5131Z" fill="url(#paint81_linear)"/>
<path d="M161.213 94.2376V95.3796L153.745 91.0724V89.9552L161.213 94.2376Z" fill="url(#paint82_linear)"/>
<path d="M161.214 94.2376V95.3796L165.763 92.9715V91.8171L161.214 94.2376Z" fill="url(#paint83_linear)"/>
<path d="M165.762 91.8172L161.213 94.2376L153.745 89.9553L158.294 87.5348L165.762 91.8172Z" fill="url(#paint84_linear)"/>
<path d="M165.559 111.404V121.161L178.928 113.601V103.783L172.407 105.955L165.559 111.404Z" fill="#004080"/>
<path d="M171.448 107.792V113.266L174.19 111.715V106.266L171.448 107.792Z" fill="url(#paint85_linear)"/>
<path d="M173.701 108.028C173.701 108.562 173.322 109.207 172.842 109.48C172.362 109.753 171.982 109.53 171.982 108.996C171.982 108.462 172.362 107.817 172.842 107.544C173.322 107.283 173.701 107.494 173.701 108.028Z" fill="url(#paint86_linear)"/>
<path d="M173.701 110.436C173.701 110.969 173.322 111.615 172.842 111.888C172.362 112.161 171.982 111.938 171.982 111.404C171.982 110.87 172.362 110.225 172.842 109.952C173.322 109.691 173.701 109.902 173.701 110.436Z" fill="url(#paint87_linear)"/>
<path d="M138.127 99.6988L144.761 103.447L144.749 102.715L116.216 86.6282L116.545 86.4296L116.469 85.7221L115.584 86.2683L114.472 85.6352L116.545 84.4064L116.469 83.6989L113.689 85.3746C113.588 85.4366 113.537 85.5359 113.537 85.6352V92.1519L114.169 92.4622V88.1922L121.65 92.4126V96.8067L122.281 97.117V92.7601L129.396 96.7694V101.201L130.027 101.511V97.1294L137.508 101.35V105.744L138.14 106.054V101.697L144.774 105.446L144.761 104.714L138.14 100.99V99.6988H138.127ZM114.169 86.1814L114.978 86.6407L114.169 87.1123V86.1814ZM114.485 87.6461L115.609 86.9758L121.662 90.3893V91.6926L114.485 87.6461ZM122.281 92.0526V90.7493L129.396 94.7586V96.0619L122.281 92.0526ZM130.015 96.4219V95.1185L137.495 99.3389V100.642L130.015 96.4219Z" fill="#004080"/>
<path d="M173.457 108.251L173.014 109.17C173.014 109.17 172.307 108.561 172.433 108.276C172.572 107.99 173.457 108.251 173.457 108.251Z" fill="url(#paint88_linear)"/>
<path d="M172.88 108.909C172.88 109.145 173.044 109.232 173.246 109.12C173.449 109.008 173.613 108.723 173.613 108.487C173.613 108.251 173.449 108.164 173.246 108.276C173.044 108.388 172.88 108.673 172.88 108.909Z" fill="url(#paint89_linear)"/>
<path d="M173.357 110.685L172.915 111.603C172.915 111.603 172.207 110.995 172.333 110.71C172.472 110.424 173.357 110.685 173.357 110.685Z" fill="url(#paint90_linear)"/>
<path d="M172.774 111.33C172.774 111.566 172.939 111.653 173.141 111.541C173.343 111.43 173.507 111.144 173.507 110.908C173.507 110.673 173.343 110.586 173.141 110.697C172.939 110.809 172.774 111.107 172.774 111.33Z" fill="url(#paint91_linear)"/>
<path d="M170.957 109.194C171.348 110.063 172.561 110.386 173.686 109.914C174.811 109.43 175.405 108.338 175.013 107.469C174.621 106.6 173.408 106.277 172.283 106.762C171.159 107.233 170.565 108.326 170.957 109.194Z" fill="url(#paint92_radial)"/>
<path d="M170.957 111.578C171.348 112.447 172.561 112.77 173.686 112.286C174.811 111.802 175.405 110.709 175.013 109.84C174.621 108.972 173.408 108.649 172.283 109.133C171.159 109.605 170.565 110.709 170.957 111.578Z" fill="url(#paint93_radial)"/>
<path d="M179.651 108.375L176.631 107.357C176.542 107.333 176.454 107.333 176.365 107.382L169.125 111.528C169.087 111.553 169.049 111.59 169.024 111.627L166.61 115.314C166.572 115.364 166.56 115.426 166.56 115.488V121.868L167.191 121.471V119.596L167.204 119.621L169.238 118.467V120.391L169.87 119.994V118.119L176.252 114.52V116.406L176.883 116.009V114.172L179.221 112.856V114.768L179.853 114.371V108.71C179.853 108.537 179.777 108.413 179.651 108.375ZM179.221 109.343L176.883 110.659V108.102L179.221 108.897V109.343ZM169.883 111.814L176.264 108.152V111.007L169.883 114.606V111.814ZM169.251 112.434V114.979L167.191 116.146V115.575L169.251 112.434ZM167.191 118.889V116.816L167.204 116.841L169.238 115.686V117.722L167.191 118.889ZM169.883 117.375V115.339L176.264 111.739V113.775L169.883 117.375ZM176.896 113.415V111.379L179.234 110.063V112.099L176.896 113.415Z" fill="#004080"/>
<path opacity="0.5" d="M187.649 112.161C187.649 112.161 183.39 116.568 183.302 116.506C183.201 116.431 171.878 109.468 171.929 109.331L172.422 108.003C172.498 107.804 172.637 107.656 172.826 107.569L173.23 107.382C173.496 107.258 187.649 111.888 187.649 112.161Z" fill="url(#paint94_linear)"/>
<path opacity="0.5" d="M187.649 114.545C187.649 114.545 183.39 118.951 183.302 118.889C183.201 118.815 171.878 111.851 171.929 111.715L172.422 110.387C172.498 110.188 172.637 110.039 172.826 109.952L173.23 109.766C173.496 109.642 187.649 114.272 187.649 114.545Z" fill="url(#paint95_linear)"/>
<path d="M147.127 90.5881L161.204 98.6315L159.195 102.12L161.495 98.6936L170.517 93.5424L161.457 98.3957L147.127 90.5881Z" fill="url(#paint96_radial)"/>
<path d="M153.743 89.9552L161.198 94.1135L165.76 91.8172L161.287 94.2749L161.211 95.3796L161.11 94.188L153.667 89.9304L153.743 89.9552Z" fill="url(#paint97_radial)"/>
<defs>
<radialGradient id="paint0_radial" cx="0" cy="0" r="1" gradientUnits="userSpaceOnUse" gradientTransform="translate(2.3528 30.9433) scale(1.77159 1.74025)">
<stop stop-color="white"/>
<stop offset="1"/>
</radialGradient>
<linearGradient id="paint1_linear" x1="9.18318" y1="34.7011" x2="6.2896" y2="30.7539" gradientUnits="userSpaceOnUse">
<stop stop-color="#25054D"/>
<stop offset="0.4192" stop-color="#45108A"/>
<stop offset="0.8889" stop-color="#2C075A"/>
</linearGradient>
<linearGradient id="paint2_linear" x1="4.80172" y1="33.5237" x2="8.08135" y2="33.5237" gradientUnits="userSpaceOnUse">
<stop stop-color="#25054D"/>
<stop offset="1" stop-color="#45108A"/>
</linearGradient>
<radialGradient id="paint3_radial" cx="0" cy="0" r="1" gradientUnits="userSpaceOnUse" gradientTransform="translate(6.78118 33.4698) scale(1.77164 1.74027)">
<stop stop-color="white"/>
<stop offset="1"/>
</radialGradient>
<linearGradient id="paint4_linear" x1="-2.34796" y1="33.736" x2="10.8266" y2="30.7294" gradientUnits="userSpaceOnUse">
<stop stop-color="#25054D"/>
<stop offset="1" stop-color="#45108A"/>
</linearGradient>
<linearGradient id="paint5_linear" x1="46.3547" y1="56.0473" x2="43.4611" y2="52.1002" gradientUnits="userSpaceOnUse">
<stop stop-color="#25054D"/>
<stop offset="0.4192" stop-color="#45108A"/>
<stop offset="0.8889" stop-color="#2C075A"/>
</linearGradient>
<radialGradient id="paint6_radial" cx="0" cy="0" r="1" gradientUnits="userSpaceOnUse" gradientTransform="translate(43.9527 54.8157) scale(1.77148 1.74012)">
<stop stop-color="white"/>
<stop offset="1"/>
</radialGradient>
<radialGradient id="paint7_radial" cx="0" cy="0" r="1" gradientUnits="userSpaceOnUse" gradientTransform="translate(48.3807 57.3425) scale(1.7716 1.74024)">
<stop stop-color="white"/>
<stop offset="1"/>
</radialGradient>
<linearGradient id="paint8_linear" x1="51.5389" y1="49.7709" x2="-59.4528" y2="15.9377" gradientUnits="userSpaceOnUse">
<stop stop-color="#25054D"/>
<stop offset="1" stop-color="#45108A"/>
</linearGradient>
<linearGradient id="paint9_linear" x1="80.824" y1="58.0057" x2="39.8011" y2="48.644" gradientUnits="userSpaceOnUse">
<stop stop-color="#25054D"/>
<stop offset="1" stop-color="#45108A"/>
</linearGradient>
<linearGradient id="paint10_linear" x1="39.2539" y1="57.6084" x2="52.428" y2="54.6019" gradientUnits="userSpaceOnUse">
<stop stop-color="#25054D"/>
<stop offset="1" stop-color="#45108A"/>
</linearGradient>
<linearGradient id="paint11_linear" x1="-16.2721" y1="-56.6794" x2="39.5648" y2="51.6508" gradientUnits="userSpaceOnUse">
<stop stop-color="#25054D"/>
<stop offset="1" stop-color="#45108A"/>
</linearGradient>
<linearGradient id="paint12_linear" x1="63.2237" y1="55.2439" x2="56.4569" y2="53.1812" gradientUnits="userSpaceOnUse">
<stop stop-color="#25054D"/>
<stop offset="1" stop-color="#45108A"/>
</linearGradient>
<linearGradient id="paint13_linear" x1="65.0891" y1="55.7471" x2="62.1257" y2="55.071" gradientUnits="userSpaceOnUse">
<stop stop-color="#25054D"/>
<stop offset="1" stop-color="#45108A"/>
</linearGradient>
<linearGradient id="paint14_linear" x1="59.276" y1="48.7343" x2="62.4375" y2="54.868" gradientUnits="userSpaceOnUse">
<stop stop-color="#25054D"/>
<stop offset="1" stop-color="#45108A"/>
</linearGradient>
<linearGradient id="paint15_linear" x1="63.6256" y1="55.9554" x2="61.7407" y2="55.3809" gradientUnits="userSpaceOnUse">
<stop stop-color="#25054D"/>
<stop offset="1" stop-color="#45108A"/>
</linearGradient>
<linearGradient id="paint16_linear" x1="66.1034" y1="56.1084" x2="61.9369" y2="55.1577" gradientUnits="userSpaceOnUse">
<stop stop-color="#25054D"/>
<stop offset="1" stop-color="#45108A"/>
</linearGradient>
<linearGradient id="paint17_linear" x1="62.0954" y1="65.3722" x2="59.2021" y2="61.4251" gradientUnits="userSpaceOnUse">
<stop stop-color="#25054D"/>
<stop offset="0.4192" stop-color="#45108A"/>
<stop offset="0.8889" stop-color="#2C075A"/>
</linearGradient>
<linearGradient id="paint18_linear" x1="57.7134" y1="64.1951" x2="60.993" y2="64.1951" gradientUnits="userSpaceOnUse">
<stop stop-color="#25054D"/>
<stop offset="1" stop-color="#45108A"/>
</linearGradient>
<radialGradient id="paint19_radial" cx="0" cy="0" r="1" gradientUnits="userSpaceOnUse" gradientTransform="translate(59.6935 64.1408) scale(1.7716 1.74024)">
<stop stop-color="white"/>
<stop offset="1"/>
</radialGradient>
<linearGradient id="paint20_linear" x1="66.5238" y1="67.8994" x2="63.6302" y2="63.9524" gradientUnits="userSpaceOnUse">
<stop stop-color="#25054D"/>
<stop offset="0.4192" stop-color="#45108A"/>
<stop offset="0.8889" stop-color="#2C075A"/>
</linearGradient>
<linearGradient id="paint21_linear" x1="62.1425" y1="66.722" x2="65.422" y2="66.722" gradientUnits="userSpaceOnUse">
<stop stop-color="#25054D"/>
<stop offset="1" stop-color="#45108A"/>
</linearGradient>
<radialGradient id="paint22_radial" cx="0" cy="0" r="1" gradientUnits="userSpaceOnUse" gradientTransform="translate(64.1208 66.6679) scale(1.77158 1.74026)">
<stop stop-color="white"/>
<stop offset="1"/>
</radialGradient>
<linearGradient id="paint23_linear" x1="54.9939" y1="66.934" x2="68.1681" y2="63.9276" gradientUnits="userSpaceOnUse">
<stop stop-color="#25054D"/>
<stop offset="1" stop-color="#45108A"/>
</linearGradient>
<linearGradient id="paint24_linear" x1="103.7" y1="89.2456" x2="100.807" y2="85.2986" gradientUnits="userSpaceOnUse">
<stop stop-color="#25054D"/>
<stop offset="0.4192" stop-color="#45108A"/>
<stop offset="0.8889" stop-color="#2C075A"/>
</linearGradient>
<linearGradient id="paint25_linear" x1="99.316" y1="88.0684" x2="102.596" y2="88.0684" gradientUnits="userSpaceOnUse">
<stop stop-color="#25054D"/>
<stop offset="1" stop-color="#45108A"/>
</linearGradient>
<radialGradient id="paint26_radial" cx="0" cy="0" r="1" gradientUnits="userSpaceOnUse" gradientTransform="translate(101.294 88.0142) scale(1.77148 1.74014)">
<stop stop-color="white"/>
<stop offset="1"/>
</radialGradient>
<linearGradient id="paint27_linear" x1="108.125" y1="91.7721" x2="105.232" y2="87.8251" gradientUnits="userSpaceOnUse">
<stop stop-color="#25054D"/>
<stop offset="0.4192" stop-color="#45108A"/>
<stop offset="0.8889" stop-color="#2C075A"/>
</linearGradient>
<linearGradient id="paint28_linear" x1="103.744" y1="90.5945" x2="107.024" y2="90.5945" gradientUnits="userSpaceOnUse">
<stop stop-color="#25054D"/>
<stop offset="1" stop-color="#45108A"/>
</linearGradient>
<radialGradient id="paint29_radial" cx="0" cy="0" r="1" gradientUnits="userSpaceOnUse" gradientTransform="translate(105.724 90.5406) scale(1.7716 1.74028)">
<stop stop-color="white"/>
<stop offset="1"/>
</radialGradient>
<linearGradient id="paint30_linear" x1="108.881" y1="82.9688" x2="-2.11094" y2="49.1355" gradientUnits="userSpaceOnUse">
<stop stop-color="#25054D"/>
<stop offset="1" stop-color="#45108A"/>
</linearGradient>
<linearGradient id="paint31_linear" x1="138.165" y1="91.2036" x2="97.143" y2="81.842" gradientUnits="userSpaceOnUse">
<stop stop-color="#25054D"/>
<stop offset="1" stop-color="#45108A"/>
</linearGradient>
<linearGradient id="paint32_linear" x1="96.5957" y1="90.8068" x2="109.77" y2="87.8004" gradientUnits="userSpaceOnUse">
<stop stop-color="#25054D"/>
<stop offset="1" stop-color="#45108A"/>
</linearGradient>
<linearGradient id="paint33_linear" x1="41.0696" y1="-23.4813" x2="96.9066" y2="84.8488" gradientUnits="userSpaceOnUse">
<stop stop-color="#25054D"/>
<stop offset="1" stop-color="#45108A"/>
</linearGradient>
<linearGradient id="paint34_linear" x1="120.566" y1="88.4419" x2="113.798" y2="86.3791" gradientUnits="userSpaceOnUse">
<stop stop-color="#25054D"/>
<stop offset="1" stop-color="#45108A"/>
</linearGradient>
<linearGradient id="paint35_linear" x1="122.431" y1="88.9454" x2="119.468" y2="88.2693" gradientUnits="userSpaceOnUse">
<stop stop-color="#25054D"/>
<stop offset="1" stop-color="#45108A"/>
</linearGradient>
<linearGradient id="paint36_linear" x1="120.968" y1="89.1535" x2="119.083" y2="88.5788" gradientUnits="userSpaceOnUse">
<stop stop-color="#25054D"/>
<stop offset="1" stop-color="#45108A"/>
</linearGradient>
<linearGradient id="paint37_linear" x1="123.446" y1="89.3061" x2="119.28" y2="88.3555" gradientUnits="userSpaceOnUse">
<stop stop-color="#25054D"/>
<stop offset="1" stop-color="#45108A"/>
</linearGradient>
<linearGradient id="paint38_linear" x1="120.576" y1="86.9643" x2="121.189" y2="88.1554" gradientUnits="userSpaceOnUse">
<stop stop-color="#25054D"/>
<stop offset="1" stop-color="#45108A"/>
</linearGradient>
<linearGradient id="paint39_linear" x1="69.0067" y1="44.6635" x2="76.7544" y2="78.4271" gradientUnits="userSpaceOnUse">
<stop stop-color="#A5A9AB"/>
<stop offset="1" stop-color="white"/>
</linearGradient>
<linearGradient id="paint40_linear" x1="114.217" y1="66.0809" x2="120.836" y2="80.6561" gradientUnits="userSpaceOnUse">
<stop stop-color="#A5A9AB"/>
<stop offset="1" stop-color="white"/>
</linearGradient>
<linearGradient id="paint41_linear" x1="90.268" y1="105.628" x2="176.612" y2="85.9239" gradientUnits="userSpaceOnUse">
<stop offset="0.0354" stop-color="#9F19AB"/>
<stop offset="0.2438" stop-color="#AE25B1"/>
<stop offset="0.6455" stop-color="#D744BF"/>
<stop offset="1" stop-color="#FF63CE"/>
</linearGradient>
<linearGradient id="paint42_linear" x1="156.496" y1="99.5124" x2="131.703" y2="91.9551" gradientUnits="userSpaceOnUse">
<stop stop-color="#9F79C8"/>
<stop offset="0.1367" stop-color="#A580CB"/>
<stop offset="0.3288" stop-color="#B492D3"/>
<stop offset="0.5529" stop-color="#CDB0E1"/>
<stop offset="0.5808" stop-color="#D1B4E3"/>
<stop offset="0.7644" stop-color="#DBC4E9"/>
<stop offset="1" stop-color="#EBDEF3"/>
</linearGradient>
<linearGradient id="paint43_linear" x1="156.003" y1="102.471" x2="134.533" y2="95.926" gradientUnits="userSpaceOnUse">
<stop offset="0.0354" stop-color="#9F19AB"/>
<stop offset="0.2438" stop-color="#AE25B1"/>
<stop offset="0.6455" stop-color="#D744BF"/>
<stop offset="1" stop-color="#FF63CE"/>
</linearGradient>
<linearGradient id="paint44_linear" x1="118.267" y1="98.0438" x2="115.374" y2="94.0967" gradientUnits="userSpaceOnUse">
<stop stop-color="#25054D"/>
<stop offset="0.4192" stop-color="#45108A"/>
<stop offset="0.8889" stop-color="#2C075A"/>
</linearGradient>
<linearGradient id="paint45_linear" x1="113.886" y1="96.8662" x2="117.166" y2="96.8662" gradientUnits="userSpaceOnUse">
<stop stop-color="#25054D"/>
<stop offset="1" stop-color="#45108A"/>
</linearGradient>
<radialGradient id="paint46_radial" cx="0" cy="0" r="1" gradientUnits="userSpaceOnUse" gradientTransform="translate(115.864 96.8123) scale(1.77168 1.74028)">
<stop stop-color="white"/>
<stop offset="1"/>
</radialGradient>
<linearGradient id="paint47_linear" x1="122.694" y1="100.57" x2="119.801" y2="96.6234" gradientUnits="userSpaceOnUse">
<stop stop-color="#25054D"/>
<stop offset="0.4192" stop-color="#45108A"/>
<stop offset="0.8889" stop-color="#2C075A"/>
</linearGradient>
<linearGradient id="paint48_linear" x1="118.313" y1="99.3932" x2="121.593" y2="99.3932" gradientUnits="userSpaceOnUse">
<stop stop-color="#25054D"/>
<stop offset="1" stop-color="#45108A"/>
</linearGradient>
<radialGradient id="paint49_radial" cx="0" cy="0" r="1" gradientUnits="userSpaceOnUse" gradientTransform="translate(120.292 99.3391) scale(1.77163 1.74028)">
<stop stop-color="white"/>
<stop offset="1"/>
</radialGradient>
<linearGradient id="paint50_linear" x1="111.166" y1="99.6051" x2="124.34" y2="96.5988" gradientUnits="userSpaceOnUse">
<stop stop-color="#25054D"/>
<stop offset="1" stop-color="#45108A"/>
</linearGradient>
<linearGradient id="paint51_linear" x1="159.867" y1="121.917" x2="156.974" y2="117.97" gradientUnits="userSpaceOnUse">
<stop stop-color="#25054D"/>
<stop offset="0.4192" stop-color="#45108A"/>
<stop offset="0.8889" stop-color="#2C075A"/>
</linearGradient>
<linearGradient id="paint52_linear" x1="155.486" y1="120.739" x2="158.765" y2="120.739" gradientUnits="userSpaceOnUse">
<stop stop-color="#25054D"/>
<stop offset="1" stop-color="#45108A"/>
</linearGradient>
<radialGradient id="paint53_radial" cx="0" cy="0" r="1" gradientUnits="userSpaceOnUse" gradientTransform="translate(157.466 120.685) scale(1.7716 1.74026)">
<stop stop-color="white"/>
<stop offset="1"/>
</radialGradient>
<linearGradient id="paint54_linear" x1="164.295" y1="124.443" x2="161.402" y2="120.496" gradientUnits="userSpaceOnUse">
<stop stop-color="#25054D"/>
<stop offset="0.4192" stop-color="#45108A"/>
<stop offset="0.8889" stop-color="#2C075A"/>
</linearGradient>
<linearGradient id="paint55_linear" x1="159.914" y1="123.266" x2="163.194" y2="123.266" gradientUnits="userSpaceOnUse">
<stop stop-color="#25054D"/>
<stop offset="1" stop-color="#45108A"/>
</linearGradient>
<radialGradient id="paint56_radial" cx="0" cy="0" r="1" gradientUnits="userSpaceOnUse" gradientTransform="translate(161.893 123.212) scale(1.7716 1.74028)">
<stop stop-color="white"/>
<stop offset="1"/>
</radialGradient>
<linearGradient id="paint57_linear" x1="176.103" y1="120.337" x2="169.336" y2="118.274" gradientUnits="userSpaceOnUse">
<stop stop-color="#25054D"/>
<stop offset="1" stop-color="#45108A"/>
</linearGradient>
<linearGradient id="paint58_linear" x1="177.967" y1="120.84" x2="175.004" y2="120.164" gradientUnits="userSpaceOnUse">
<stop stop-color="#25054D"/>
<stop offset="1" stop-color="#45108A"/>
</linearGradient>
<linearGradient id="paint59_linear" x1="172.156" y1="113.827" x2="175.317" y2="119.961" gradientUnits="userSpaceOnUse">
<stop stop-color="#25054D"/>
<stop offset="1" stop-color="#45108A"/>
</linearGradient>
<linearGradient id="paint60_linear" x1="176.506" y1="121.049" x2="174.621" y2="120.474" gradientUnits="userSpaceOnUse">
<stop stop-color="#25054D"/>
<stop offset="1" stop-color="#45108A"/>
</linearGradient>
<linearGradient id="paint61_linear" x1="122.482" y1="77.3517" x2="136.248" y2="109.609" gradientUnits="userSpaceOnUse">
<stop stop-color="#A5A9AB"/>
<stop offset="1" stop-color="white"/>
</linearGradient>
<linearGradient id="paint62_linear" x1="155.077" y1="98.7371" x2="130.285" y2="91.1797" gradientUnits="userSpaceOnUse">
<stop stop-color="#9F79C8"/>
<stop offset="0.1367" stop-color="#A580CB"/>
<stop offset="0.3288" stop-color="#B492D3"/>
<stop offset="0.5529" stop-color="#CDB0E1"/>
<stop offset="0.5808" stop-color="#D1B4E3"/>
<stop offset="0.7644" stop-color="#DBC4E9"/>
<stop offset="1" stop-color="#EBDEF3"/>
</linearGradient>
<linearGradient id="paint63_linear" x1="154.584" y1="101.695" x2="133.114" y2="95.1504" gradientUnits="userSpaceOnUse">
<stop offset="0.0354" stop-color="#9F19AB"/>
<stop offset="0.2438" stop-color="#AE25B1"/>
<stop offset="0.6455" stop-color="#D744BF"/>
<stop offset="1" stop-color="#FF63CE"/>
</linearGradient>
<linearGradient id="paint64_linear" x1="124.76" y1="70.8195" x2="130.303" y2="96.3676" gradientUnits="userSpaceOnUse">
<stop stop-color="#A5A9AB"/>
<stop offset="1" stop-color="white"/>
</linearGradient>
<linearGradient id="paint65_linear" x1="148.285" y1="91.5633" x2="162.565" y2="114.217" gradientUnits="userSpaceOnUse">
<stop stop-color="#A5A9AB"/>
<stop offset="1" stop-color="white"/>
</linearGradient>
<linearGradient id="paint66_linear" x1="148.285" y1="91.0046" x2="151.679" y2="103.612" gradientUnits="userSpaceOnUse">
<stop stop-color="#A5A9AB"/>
<stop offset="1" stop-color="white"/>
</linearGradient>
<linearGradient id="paint67_linear" x1="146.286" y1="98.5134" x2="151.554" y2="98.5134" gradientUnits="userSpaceOnUse">
<stop stop-color="#25054D"/>
<stop offset="1" stop-color="#350A6C"/>
</linearGradient>
<linearGradient id="paint68_linear" x1="153.37" y1="99.072" x2="156.081" y2="105.084" gradientUnits="userSpaceOnUse">
<stop stop-color="#A5A9AB"/>
<stop offset="1" stop-color="white"/>
</linearGradient>
<linearGradient id="paint69_linear" x1="161.96" y1="94.4107" x2="175.097" y2="113.616" gradientUnits="userSpaceOnUse">
<stop stop-color="#A5A9AB"/>
<stop offset="1" stop-color="white"/>
</linearGradient>
<linearGradient id="paint70_linear" x1="161.056" y1="110.356" x2="194.101" y2="100.284" gradientUnits="userSpaceOnUse">
<stop offset="0.0354" stop-color="#9F19AB"/>
<stop offset="0.2438" stop-color="#AE25B1"/>
<stop offset="0.6455" stop-color="#D744BF"/>
<stop offset="1" stop-color="#FF63CE"/>
</linearGradient>
<linearGradient id="paint71_linear" x1="151.908" y1="85.9504" x2="155.111" y2="100.712" gradientUnits="userSpaceOnUse">
<stop stop-color="#A5A9AB"/>
<stop offset="1" stop-color="white"/>
</linearGradient>
<linearGradient id="paint72_linear" x1="159.617" y1="85.7917" x2="161.647" y2="95.6791" gradientUnits="userSpaceOnUse">
<stop stop-color="#A5A9AB"/>
<stop offset="1" stop-color="white"/>
</linearGradient>
<linearGradient id="paint73_linear" x1="175.891" y1="100.25" x2="161.947" y2="97.0675" gradientUnits="userSpaceOnUse">
<stop stop-color="#390C72"/>
<stop offset="1" stop-color="#45108A"/>
</linearGradient>
<linearGradient id="paint74_linear" x1="169.888" y1="103.663" x2="155.944" y2="100.481" gradientUnits="userSpaceOnUse">
<stop stop-color="#390C72"/>
<stop offset="1" stop-color="#45108A"/>
</linearGradient>
<radialGradient id="paint75_radial" cx="0" cy="0" r="1" gradientUnits="userSpaceOnUse" gradientTransform="translate(167.823 107.917) scale(7.18476 7.05758)">
<stop stop-color="white"/>
<stop offset="1" stop-color="white"/>
</radialGradient>
<linearGradient id="paint76_linear" x1="124.335" y1="76.5612" x2="125.817" y2="81.7568" gradientUnits="userSpaceOnUse">
<stop stop-color="#A5A9AB"/>
<stop offset="1" stop-color="white"/>
</linearGradient>
<linearGradient id="paint77_linear" x1="130.863" y1="76.4775" x2="132.34" y2="81.786" gradientUnits="userSpaceOnUse">
<stop stop-color="#A5A9AB"/>
<stop offset="1" stop-color="white"/>
</linearGradient>
<linearGradient id="paint78_linear" x1="125.715" y1="72.9187" x2="127.495" y2="81.1954" gradientUnits="userSpaceOnUse">
<stop stop-color="#A5A9AB"/>
<stop offset="1" stop-color="white"/>
</linearGradient>
<linearGradient id="paint79_linear" x1="138.103" y1="83.4978" x2="139.328" y2="87.4722" gradientUnits="userSpaceOnUse">
<stop stop-color="#A5A9AB"/>
<stop offset="1" stop-color="white"/>
</linearGradient>
<linearGradient id="paint80_linear" x1="142.722" y1="83.6416" x2="143.876" y2="87.4706" gradientUnits="userSpaceOnUse">
<stop stop-color="#A5A9AB"/>
<stop offset="1" stop-color="white"/>
</linearGradient>
<linearGradient id="paint81_linear" x1="139.033" y1="81.1238" x2="140.206" y2="86.7295" gradientUnits="userSpaceOnUse">
<stop stop-color="#A5A9AB"/>
<stop offset="1" stop-color="white"/>
</linearGradient>
<linearGradient id="paint82_linear" x1="155.272" y1="90.1511" x2="156.921" y2="96.05" gradientUnits="userSpaceOnUse">
<stop stop-color="#A5A9AB"/>
<stop offset="1" stop-color="white"/>
</linearGradient>
<linearGradient id="paint83_linear" x1="162.144" y1="91.9458" x2="163.298" y2="95.7748" gradientUnits="userSpaceOnUse">
<stop stop-color="#A5A9AB"/>
<stop offset="1" stop-color="white"/>
</linearGradient>
<linearGradient id="paint84_linear" x1="156.202" y1="87.7769" x2="157.815" y2="95.2897" gradientUnits="userSpaceOnUse">
<stop stop-color="#A5A9AB"/>
<stop offset="1" stop-color="white"/>
</linearGradient>
<linearGradient id="paint85_linear" x1="181.493" y1="103.424" x2="168.056" y2="113.592" gradientUnits="userSpaceOnUse">
<stop stop-color="#25054D"/>
<stop offset="1" stop-color="#45108A"/>
</linearGradient>
<linearGradient id="paint86_linear" x1="171.971" y1="108.877" x2="176.097" y2="109.237" gradientUnits="userSpaceOnUse">
<stop stop-color="#F7AA90"/>
<stop offset="0.4291" stop-color="#FACDBD"/>
<stop offset="1" stop-color="white"/>
</linearGradient>
<linearGradient id="paint87_linear" x1="171.971" y1="111.282" x2="176.097" y2="111.642" gradientUnits="userSpaceOnUse">
<stop stop-color="#F7AA90"/>
<stop offset="0.4291" stop-color="#FACDBD"/>
<stop offset="1" stop-color="white"/>
</linearGradient>
<linearGradient id="paint88_linear" x1="172.421" y1="108.657" x2="173.459" y2="108.657" gradientUnits="userSpaceOnUse">
<stop offset="0.0354" stop-color="#FFA98C"/>
<stop offset="0.3169" stop-color="#FFB892"/>
<stop offset="0.8601" stop-color="#FEE1A3"/>
<stop offset="1" stop-color="#FEECA8"/>
</linearGradient>
<linearGradient id="paint89_linear" x1="173.621" y1="108.693" x2="172.88" y2="108.693" gradientUnits="userSpaceOnUse">
<stop offset="0.0354" stop-color="#FFA98C"/>
<stop offset="0.3169" stop-color="#FFB892"/>
<stop offset="0.8601" stop-color="#FEE1A3"/>
<stop offset="1" stop-color="#FEECA8"/>
</linearGradient>
<linearGradient id="paint90_linear" x1="172.317" y1="111.089" x2="173.355" y2="111.089" gradientUnits="userSpaceOnUse">
<stop offset="0.0354" stop-color="#FFA98C"/>
<stop offset="0.3169" stop-color="#FFB892"/>
<stop offset="0.8601" stop-color="#FEE1A3"/>
<stop offset="1" stop-color="#FEECA8"/>
</linearGradient>
<linearGradient id="paint91_linear" x1="173.512" y1="111.125" x2="172.77" y2="111.125" gradientUnits="userSpaceOnUse">
<stop offset="0.0354" stop-color="#FFA98C"/>
<stop offset="0.3169" stop-color="#FFB892"/>
<stop offset="0.8601" stop-color="#FEE1A3"/>
<stop offset="1" stop-color="#FEECA8"/>
</linearGradient>
<radialGradient id="paint92_radial" cx="0" cy="0" r="1" gradientUnits="userSpaceOnUse" gradientTransform="translate(172.985 108.331) rotate(156.834) scale(2.20802 1.73086)">
<stop stop-color="white"/>
<stop offset="1" stop-color="white" stop-opacity="0"/>
</radialGradient>
<radialGradient id="paint93_radial" cx="0" cy="0" r="1" gradientUnits="userSpaceOnUse" gradientTransform="translate(172.985 110.71) rotate(156.834) scale(2.20803 1.73087)">
<stop stop-color="white"/>
<stop offset="1" stop-color="white" stop-opacity="0"/>
</radialGradient>
<linearGradient id="paint94_linear" x1="173.127" y1="108.004" x2="184.578" y2="114.079" gradientUnits="userSpaceOnUse">
<stop stop-color="white"/>
<stop offset="1" stop-color="white" stop-opacity="0"/>
</linearGradient>
<linearGradient id="paint95_linear" x1="173.127" y1="110.384" x2="184.578" y2="116.459" gradientUnits="userSpaceOnUse">
<stop stop-color="white"/>
<stop offset="1" stop-color="white" stop-opacity="0"/>
</linearGradient>
<radialGradient id="paint96_radial" cx="0" cy="0" r="1" gradientUnits="userSpaceOnUse" gradientTransform="translate(158.822 96.3551) scale(9.25093 9.0872)">
<stop stop-color="#9F19AB"/>
<stop offset="0.00767374" stop-color="#9C19A8"/>
<stop offset="0.1274" stop-color="#73127C"/>
<stop offset="0.2525" stop-color="#500C56"/>
<stop offset="0.3815" stop-color="#330836"/>
<stop offset="0.5157" stop-color="#1C041E"/>
<stop offset="0.6572" stop-color="#0C020D"/>
<stop offset="0.8111" stop-color="#030003"/>
<stop offset="1"/>
</radialGradient>
<radialGradient id="paint97_radial" cx="0" cy="0" r="1" gradientUnits="userSpaceOnUse" gradientTransform="translate(159.756 93.2323) scale(4.70281 4.61967)">
<stop stop-color="#9F19AB"/>
<stop offset="0.00767374" stop-color="#9C19A8"/>
<stop offset="0.1274" stop-color="#73127C"/>
<stop offset="0.2525" stop-color="#500C56"/>
<stop offset="0.3815" stop-color="#330836"/>
<stop offset="0.5157" stop-color="#1C041E"/>
<stop offset="0.6572" stop-color="#0C020D"/>
<stop offset="0.8111" stop-color="#030003"/>
<stop offset="1"/>
</radialGradient>
</defs>
</svg>
