<svg width="123" height="104" viewBox="0 0 123 104" fill="none" xmlns="http://www.w3.org/2000/svg">
<path d="M114.17 68.7349C114.223 68.7349 114.276 68.7175 114.312 68.6654L115.372 67.2414C115.69 66.8246 115.85 66.321 115.85 65.8V62.8825C115.85 61.7537 115.072 60.7812 113.958 60.5033L112.367 60.1039C112.278 60.0865 112.172 60.1386 112.155 60.2255C112.137 60.3123 112.19 60.4165 112.279 60.4339L113.87 60.8333C114.824 61.0764 115.478 61.91 115.478 62.8651V65.7826C115.478 66.2341 115.337 66.6683 115.072 67.033L114.011 68.457C113.958 68.5265 113.976 68.648 114.046 68.7001C114.099 68.7349 114.135 68.7349 114.17 68.7349Z" fill="#004080"/>
<path d="M115.034 66.6161L115.9 66.1299C116.272 65.9215 116.59 65.3311 116.59 64.8448V62.292C116.59 61.7884 116.272 61.5626 115.9 61.7884L115.034 62.2746C114.663 62.483 114.345 63.0735 114.345 63.5597V66.1125C114.345 66.5988 114.645 66.8245 115.034 66.6161Z" fill="white"/>
<path d="M115.034 62.2744L115.9 61.7882C116.113 61.6666 116.307 61.684 116.431 61.8229C116.342 61.8229 116.236 61.8403 116.13 61.8924L115.264 62.3786C114.893 62.587 114.575 63.1775 114.575 63.6637V66.2166C114.575 66.425 114.628 66.5812 114.734 66.6854C114.504 66.6681 114.345 66.4597 114.345 66.095V63.5422C114.345 63.0559 114.645 62.4828 115.034 62.2744Z" fill="white"/>
<path opacity="0.0182" d="M1.67718 46.5061C1.28825 46.7319 0.987688 46.9924 0.775542 47.2702C0.404287 47.7912 0.35122 48.399 0.634081 49.0068C0.863906 49.5799 1.57106 50.2572 2.40197 50.726L46.5107 76.1673L90.6194 101.626C91.2205 101.973 92.1045 102.321 92.8293 102.477C94.0845 102.772 95.4281 102.824 96.6125 102.598C97.1959 102.477 97.691 102.251 98.186 102.06C98.2213 102.043 99.0522 101.591 99.0699 101.574L120.815 89.296C121.204 89.0703 121.504 88.8098 121.717 88.5319C122.088 88.011 122.141 87.4031 121.858 86.7953C121.628 86.2222 120.921 85.545 120.09 85.0761L75.9814 59.6348L31.8726 34.1762C31.2715 33.8289 30.3876 33.4816 29.6628 33.3253C28.4076 33.0301 27.064 32.978 25.8795 33.2037C25.2961 33.3253 24.8011 33.551 24.3061 33.7421C24.2707 33.7594 23.4398 34.2109 23.4221 34.2283L1.67718 46.5061Z" fill="#120A59" fill-opacity="0.2"/>
<path opacity="0.0364" d="M2.05016 46.6971C1.67891 46.9055 1.36069 47.1834 1.16622 47.4612C0.830322 47.9649 0.812626 48.5553 1.14852 49.1631C1.34299 49.6841 2.19159 50.3961 2.9341 50.8303L46.6539 76.0631L90.3913 101.296C90.9394 101.609 91.9117 102.025 92.5658 102.182C93.7856 102.512 95.1115 102.581 96.296 102.373C96.8794 102.269 97.3745 102.06 97.8518 101.869C97.9048 101.852 98.7003 101.418 98.7534 101.4L120.304 89.2266C120.675 89.0182 120.993 88.7404 121.17 88.4625C121.506 87.9589 121.524 87.3684 121.188 86.7606C120.993 86.2396 120.145 85.5276 119.402 85.0935L75.6825 59.8606L31.9451 34.6277C31.397 34.3151 30.4247 33.8983 29.7706 33.742C28.5507 33.4121 27.2248 33.3426 26.0404 33.551C25.457 33.6552 24.9619 33.8636 24.4846 34.0546C24.4316 34.072 23.636 34.5062 23.583 34.5235L2.05016 46.6971Z" fill="#120A59" fill-opacity="0.2"/>
<path opacity="0.0545" d="M2.42136 46.9057C2.06778 47.1141 1.7496 47.3746 1.57281 47.6698C1.28995 48.1561 1.28991 48.7465 1.69652 49.3196C1.87331 49.7885 2.828 50.5526 3.4998 50.9173L46.8483 75.9244L90.2321 100.949C90.7271 101.227 91.7878 101.713 92.3712 101.852C93.5557 102.199 94.8816 102.286 96.0661 102.112C96.6318 102.026 97.1445 101.817 97.6218 101.644C97.7102 101.609 98.4528 101.227 98.5235 101.175L119.879 89.1226C120.233 88.9142 120.551 88.6538 120.728 88.3585C121.011 87.8723 121.011 87.2818 120.604 86.7087C120.428 86.2399 119.473 85.4757 118.801 85.1111L75.4526 60.104L32.0688 35.0795C31.5738 34.8016 30.513 34.3153 29.9296 34.1764C28.7451 33.8291 27.4192 33.7423 26.2347 33.9159C25.669 34.0028 25.1563 34.2112 24.679 34.3848C24.5906 34.4196 23.8481 34.8016 23.7774 34.8537L2.42136 46.9057Z" fill="#120A59" fill-opacity="0.2"/>
<path opacity="0.0727" d="M2.79265 47.0965C2.45675 47.2876 2.12085 47.5654 1.96175 47.8606C1.71424 48.3295 1.74962 48.9026 2.20927 49.4583C2.36838 49.8577 3.44679 50.6739 4.03019 51.0039L46.9898 75.8026L90.0024 100.619C90.4267 100.862 91.5935 101.418 92.1062 101.539C93.2553 101.904 94.5636 102.025 95.7657 101.869C96.3315 101.782 96.8441 101.609 97.3214 101.435C97.4452 101.4 98.117 101.035 98.2231 100.983L119.402 89.0356C119.738 88.8445 120.074 88.5667 120.233 88.2714C120.481 87.8026 120.445 87.2295 119.986 86.6738C119.827 86.2744 118.748 85.4581 118.165 85.1282L75.2052 60.3295L32.1926 35.5134C31.7683 35.2703 30.6015 34.7145 30.0888 34.593C28.9397 34.2283 27.6315 34.1067 26.4293 34.263C25.8636 34.3325 25.3509 34.5235 24.8736 34.6972C24.7498 34.7319 24.078 35.0966 23.9719 35.1487L2.79265 47.0965Z" fill="#120A59" fill-opacity="0.2"/>
<path opacity="0.0909" d="M3.16246 47.3051C2.82656 47.4961 2.50832 47.774 2.36689 48.0692C2.17242 48.5033 2.22544 49.0764 2.73813 49.6321C2.87956 49.9795 4.08174 50.8304 4.57674 51.1082L47.165 75.6812L89.8064 100.289C90.1776 100.497 91.4328 101.14 91.8748 101.227C92.9886 101.609 94.2968 101.765 95.4813 101.626C96.047 101.557 96.5597 101.383 97.0371 101.227C97.1962 101.175 97.8149 100.862 97.9386 100.793L118.923 88.9489C119.259 88.7579 119.578 88.48 119.719 88.1848C119.913 87.7506 119.86 87.1776 119.348 86.6219C119.206 86.2745 118.004 85.4236 117.509 85.1457L74.9208 60.5728L32.2795 35.965C31.9082 35.7566 30.653 35.1141 30.211 35.0273C29.0973 34.6452 27.789 34.4889 26.6046 34.6279C26.0388 34.6973 25.5262 34.871 25.0489 35.0273C24.8897 35.0794 24.271 35.392 24.1472 35.4614L3.16246 47.3051Z" fill="#120A59" fill-opacity="0.2"/>
<path opacity="0.1091" d="M3.55141 47.5134C3.23319 47.6871 2.89729 47.9649 2.77353 48.2775C2.61442 48.6943 2.70282 49.25 3.26854 49.7884C3.37461 50.0836 4.71818 50.9866 5.1248 51.2124L47.3242 75.577L89.5943 99.9762C89.8948 100.15 91.2561 100.862 91.6273 100.931C92.7057 101.348 93.9963 101.504 95.1985 101.4C95.7642 101.348 96.2769 101.192 96.7365 101.036C96.931 100.983 97.4967 100.688 97.6382 100.619L118.428 88.8793C118.747 88.7057 119.083 88.4278 119.206 88.1152C119.365 87.6985 119.277 87.1427 118.711 86.6044C118.605 86.3092 117.262 85.4061 116.855 85.1804L74.6557 60.8158L32.3856 36.4165C32.085 36.2428 30.7238 35.5308 30.3525 35.4614C29.2741 35.0446 27.9835 34.8709 26.7814 34.9925C26.2156 35.0446 25.703 35.2009 25.2433 35.3572C25.0489 35.4093 24.4831 35.7045 24.3417 35.774L3.55141 47.5134Z" fill="#120A59" fill-opacity="0.2"/>
<path opacity="0.1273" d="M3.92315 47.7043C3.62261 47.878 3.26901 48.1558 3.18062 48.4684C3.05686 48.8679 3.18064 49.4062 3.81708 49.9272C3.90548 50.1529 5.37282 51.1081 5.69104 51.2991L47.5192 75.4379L89.418 99.6288C89.6656 99.7677 91.1153 100.549 91.3981 100.601C92.4412 101.035 93.714 101.227 94.9162 101.14C95.4819 101.088 95.9946 100.966 96.4542 100.827C96.6664 100.758 97.1968 100.514 97.3559 100.41L117.969 88.775C118.27 88.6014 118.624 88.3235 118.712 88.0109C118.836 87.6115 118.712 87.0732 118.093 86.5522C118.005 86.3264 116.537 85.3713 116.219 85.1803L74.391 61.0414L32.4922 36.8505C32.2447 36.7116 30.795 35.9301 30.5122 35.878C29.4691 35.4439 28.1962 35.2529 26.994 35.3397C26.4283 35.3918 25.9156 35.5133 25.456 35.6523C25.2438 35.7217 24.7135 35.9649 24.5544 36.0691L3.92315 47.7043Z" fill="#120A59" fill-opacity="0.2"/>
<path opacity="0.1455" d="M4.29496 47.9131C4.0121 48.0694 3.65851 48.3472 3.57012 48.6772C3.48173 49.0419 3.64088 49.5802 4.33035 50.1012C4.40107 50.2749 5.99214 51.2647 6.23964 51.4037L47.6789 75.3341L89.2065 99.3166C89.3833 99.4208 90.939 100.272 91.1512 100.324C92.1589 100.775 93.4317 101.001 94.6339 100.932C95.1996 100.897 95.7123 100.775 96.172 100.654C96.4195 100.584 96.8968 100.359 97.0913 100.254L117.51 88.7407C117.793 88.5844 118.147 88.3065 118.235 87.9766C118.324 87.6119 118.164 87.0735 117.475 86.5525C117.404 86.3789 115.813 85.389 115.566 85.2501L74.1264 61.3197L32.5988 37.3371C32.422 37.233 30.8663 36.382 30.6541 36.3299C29.6464 35.8784 28.3736 35.6526 27.1714 35.7221C26.6057 35.7568 26.093 35.8784 25.6333 36C25.3858 36.0694 24.9085 36.2952 24.7141 36.3994L4.29496 47.9131Z" fill="#120A59" fill-opacity="0.2"/>
<path opacity="0.1636" d="M4.66695 48.1041C4.40177 48.2604 4.03049 48.5382 3.97745 48.8682C3.92441 49.2155 4.13656 49.7365 4.86139 50.2401C4.91443 50.3617 6.61159 51.4036 6.78838 51.4905L47.8564 75.1951L89.0127 98.9519C89.1365 99.0214 90.7806 99.9417 90.922 99.9765C91.8943 100.445 93.1495 100.688 94.3517 100.654C94.8997 100.636 95.4301 100.532 95.8898 100.411C96.1726 100.324 96.5969 100.15 96.8091 100.029L117.051 88.6191C117.317 88.4628 117.688 88.1849 117.741 87.855C117.794 87.5077 117.582 86.9867 116.857 86.4831C116.822 86.3615 115.107 85.3196 114.93 85.2327L73.8619 61.528L32.7056 37.7713C32.5818 37.7018 30.9377 36.7814 30.7963 36.7467C29.8239 36.2778 28.5687 36.0347 27.3666 36.0694C26.8185 36.0868 26.2881 36.191 25.8285 36.3126C25.5456 36.3994 25.1213 36.573 24.9092 36.6946L4.66695 48.1041Z" fill="#120A59" fill-opacity="0.2"/>
<path opacity="0.1818" d="M5.03621 48.3122C4.77103 48.4511 4.39976 48.729 4.36441 49.0763C4.32905 49.3889 4.59424 49.9099 5.37211 50.3961C5.38979 50.4482 7.2284 51.5422 7.3168 51.5943L47.9958 75.0906L88.7809 98.639C88.8339 98.6737 90.5841 99.6635 90.6548 99.6809C91.5918 100.185 92.8293 100.445 94.0492 100.428C94.5972 100.41 95.1276 100.341 95.5695 100.219C95.8878 100.132 96.259 99.9761 96.4888 99.8546L116.537 88.5493C116.802 88.4104 117.173 88.1151 117.208 87.7852C117.244 87.4726 116.979 86.9516 116.201 86.4654C116.183 86.4133 114.344 85.3192 114.256 85.2671L73.5771 61.7708L32.792 38.2225C32.7389 38.1878 30.9887 37.1979 30.918 37.1806C29.981 36.6769 28.7435 36.4164 27.5237 36.4338C26.9757 36.4512 26.4453 36.5206 26.0033 36.6422C25.6851 36.729 25.3138 36.8853 25.084 37.0069L5.03621 48.3122Z" fill="#120A59" fill-opacity="0.2"/>
<path opacity="0.2" d="M93.768 100.167C94.7403 100.167 95.6066 99.9763 96.2077 99.629L116.079 88.4279C116.326 88.289 116.733 88.0111 116.733 87.6638C116.733 87.3686 116.432 86.865 115.601 86.3961L73.3312 61.9968L31.0611 37.5975C30.1418 37.0765 28.922 36.7812 27.7022 36.7812C26.7298 36.7812 25.8635 36.9723 25.2625 37.3196L5.39141 48.5207C5.14391 48.6597 4.7373 48.9375 4.7373 49.2848C4.7373 49.5801 5.03787 50.0837 5.86878 50.5525L48.1389 74.9519L90.409 99.3512C91.3283 99.8721 92.5481 100.167 93.768 100.167Z" fill="#120A59" fill-opacity="0.2"/>
<path d="M48.4189 62.8997V67.5885L32.3135 58.4193V53.7478L48.4189 62.8997Z" fill="white"/>
<path d="M48.4209 62.8996V67.5885L52.9467 65.0704V60.3641L48.4209 62.8996Z" fill="white"/>
<path d="M52.9448 60.3645L48.419 62.8999L32.3135 53.748L36.8393 51.1952L52.9448 60.3645Z" fill="white"/>
<path d="M2.50917 36.3646V42.3386L1.92578 41.887V35.9131L2.50917 36.3646Z" fill="#004080"/>
<path d="M2.51074 36.3647V42.3387L17.0074 34.3503V28.359L2.51074 36.3647Z" fill="#004080"/>
<path d="M17.0058 28.3589L2.50921 36.3646L1.92578 35.9131L16.4224 27.9073L17.0058 28.3589Z" fill="white"/>
<path d="M5.70898 37.8931V46.8018L7.26463 45.9335V36.9727L5.70898 37.8931Z" fill="#004080"/>
<path d="M18.8997 49.458C18.8997 50.9863 18.3693 52.063 17.503 52.5839C17.4853 52.6013 14.7628 54.1469 14.7274 54.1643C13.8258 54.6679 14.4092 53.5391 13.0303 52.7576C10.2724 51.1947 8.02718 47.3915 8.02718 44.283C8.02718 42.7374 6.5775 42.7374 7.46145 42.2164C7.47912 42.199 10.3785 40.6361 10.3961 40.6187C11.2978 40.1325 12.5353 40.2193 13.8965 41.0008C16.6721 42.5464 18.8997 46.3495 18.8997 49.458Z" fill="#004080"/>
<path d="M15.9993 51.0729C15.9993 54.1814 13.7541 55.4492 10.9962 53.8688C8.23833 52.3059 5.99316 48.5027 5.99316 45.3942C5.99316 42.2857 8.23833 41.018 10.9962 42.5983C13.7718 44.1612 15.9993 47.9644 15.9993 51.0729Z" fill="#004080"/>
<path d="M11.2421 42.4767C9.9162 41.73 8.71411 41.6258 7.8125 42.06C8.64339 41.8342 9.68638 42.0079 10.8001 42.6331C13.558 44.196 15.8032 47.9991 15.8032 51.1077C15.8032 52.7227 15.2021 53.8515 14.2298 54.3204C15.4496 53.9904 16.2452 52.7922 16.2452 50.934C16.2452 47.8429 14 44.057 11.2421 42.4767Z" fill="white"/>
<path d="M10.9608 44.8385C9.17527 43.8313 7.72559 44.6475 7.72559 46.6446C7.72559 48.6591 9.17527 51.1077 10.9608 52.1323C12.7464 53.1395 14.196 52.3233 14.196 50.3262C14.196 48.3117 12.7464 45.8458 10.9608 44.8385Z" fill="white"/>
<path d="M12.11 51.4029C10.3244 50.3957 8.8747 47.9297 8.8747 45.9152C8.8747 45.2901 9.01613 44.7864 9.26364 44.4218C8.34434 44.5433 7.72559 45.3421 7.72559 46.6446C7.72559 48.6591 9.17528 51.1077 10.9608 52.1323C12.1984 52.8269 13.2591 52.6532 13.8071 51.8197C13.3121 51.8891 12.7464 51.7502 12.11 51.4029Z" fill="#B2BBB9"/>
<path d="M13.2054 50.0311C13.2054 51.2814 12.3038 51.7677 11.2077 51.1425C10.1116 50.5173 9.20996 49.0065 9.20996 47.7561C9.20996 46.5058 10.1116 46.0195 11.2077 46.6447C12.3038 47.2699 13.2054 48.7981 13.2054 50.0311Z" fill="url(#paint0_linear)"/>
<path d="M13.0457 49.319C13.0457 50.3783 12.2855 50.7951 11.3486 50.2568C10.4116 49.7358 9.65137 48.4507 9.65137 47.3914C9.65137 46.332 10.4116 45.9153 11.3486 46.4536C12.2855 46.992 13.0457 48.277 13.0457 49.319Z" fill="white"/>
<path d="M12.5867 49.6318C12.5867 50.6911 11.8265 51.1079 10.8896 50.5695C9.95256 50.0485 9.19238 48.7635 9.19238 47.7041C9.19238 46.6448 9.95256 46.228 10.8896 46.7664C11.8265 47.3047 12.5867 48.5898 12.5867 49.6318Z" fill="#004080"/>
<path d="M29.6292 55.6749C29.6292 57.2031 29.0988 58.2798 28.2326 58.8008C28.2149 58.8182 25.4923 60.3638 25.457 60.3811C24.5553 60.8847 25.1388 59.7559 23.7598 58.9745C21.0019 57.4115 18.7566 53.6084 18.7566 50.4999C18.7566 48.9543 17.307 48.9543 18.1909 48.4333C18.2086 48.4159 21.108 46.853 21.1257 46.8356C22.0273 46.3494 23.2648 46.4362 24.626 47.2177C27.4016 48.7633 29.6292 52.5664 29.6292 55.6749Z" fill="#004080"/>
<path d="M26.7475 57.2898C26.7475 60.3983 24.5022 61.6661 21.7443 60.0857C18.9864 58.5228 16.7412 54.7196 16.7412 51.6111C16.7412 48.5026 18.9864 47.2349 21.7443 48.8152C24.5022 50.3781 26.7475 54.1813 26.7475 57.2898Z" fill="#004080"/>
<path d="M21.9746 48.6937C20.6487 47.9469 19.4465 47.8427 18.5449 48.2769C19.3758 48.0511 20.4189 48.2248 21.5326 48.85C24.2905 50.4129 26.5357 54.2161 26.5357 57.3246C26.5357 58.9396 25.9346 60.0684 24.9623 60.5373C26.1821 60.2074 26.9777 59.0091 26.9777 57.151C26.9777 54.0598 24.7325 50.2566 21.9746 48.6937Z" fill="white"/>
<path d="M21.6923 51.0556C19.9067 50.0483 18.457 50.8646 18.457 52.8616C18.457 54.8761 19.9067 57.3247 21.6923 58.3493C23.4779 59.3565 24.9276 58.5403 24.9276 56.5432C24.9276 54.5288 23.4779 52.0628 21.6923 51.0556Z" fill="white"/>
<path d="M22.8414 57.6198C21.0559 56.6126 19.6062 54.1466 19.6062 52.1322C19.6062 51.507 19.7476 51.0034 19.9951 50.6387C19.0758 50.7602 18.457 51.5591 18.457 52.8615C18.457 54.876 19.9067 57.3246 21.6923 58.3492C22.9298 59.0438 23.9905 58.8702 24.5386 58.0366C24.0613 58.0887 23.4779 57.9671 22.8414 57.6198Z" fill="#B2BBB9"/>
<path d="M23.9358 56.248C23.9358 57.4983 23.0342 57.9846 21.9381 57.3594C20.8421 56.7342 19.9404 55.2234 19.9404 53.973C19.9404 52.7227 20.8421 52.2365 21.9381 52.8616C23.0519 53.5042 23.9358 55.015 23.9358 56.248Z" fill="url(#paint1_linear)"/>
<path d="M23.7782 55.5359C23.7782 56.5953 23.0179 57.0121 22.0809 56.4737C21.144 55.9354 20.3838 54.6676 20.3838 53.6083C20.3838 52.549 21.144 52.1322 22.0809 52.6705C23.0179 53.2089 23.7782 54.494 23.7782 55.5359Z" fill="white"/>
<path d="M23.3192 55.8487C23.3192 56.908 22.559 57.3248 21.622 56.7864C20.685 56.2655 19.9248 54.9804 19.9248 53.9211C19.9248 52.8617 20.685 52.4449 21.622 52.9833C22.559 53.5216 23.3192 54.8067 23.3192 55.8487Z" fill="#004080"/>
<path d="M29.2919 51.2649V60.1737L27.6832 59.2533V52.168L5.70839 39.7165V46.8019L4.09961 45.8815V36.9727L29.2919 51.2649Z" fill="#004080"/>
<path d="M29.3105 51.2821V60.1909L30.8664 59.3226V50.3617L29.3105 51.2821Z" fill="#004080"/>
<path d="M45.7704 66.8242L44.9571 67.2931L31.5742 59.7215L32.4051 59.27L45.7704 66.8242Z" fill="#004080"/>
<path d="M31.5566 54.9112V59.7389L32.4051 59.2701V54.4249L31.5566 54.9112Z" fill="#004080"/>
<path d="M30.3535 53.5914V60.3816L46.1761 69.3945V62.5523L30.3535 53.5914ZM31.5733 55.6754L44.9386 63.2296V67.2759L31.5733 59.6696V55.6754Z" fill="#004080"/>
<path d="M46.1582 62.5347V69.3943L47.2013 68.8733V61.979L46.1582 62.5347Z" fill="#004080"/>
<path d="M47.2024 61.9791L46.1593 62.5348L30.3545 53.5912L31.3975 53.0355L47.2024 61.9791Z" fill="white"/>
<path d="M61.2551 73.7365C61.2551 75.2647 60.7247 76.3414 59.8585 76.8624C59.8408 76.8798 57.1183 78.4253 57.0829 78.4427C56.1813 78.9463 56.7647 77.8175 55.3857 77.0361C52.6278 75.4731 50.3826 71.6699 50.3826 68.5614C50.3826 67.0158 48.933 67.0158 49.8169 66.4948C49.8346 66.4775 52.7339 64.9145 52.7516 64.8972C53.6532 64.4109 54.8908 64.4977 56.252 65.2792C59.0099 66.8248 61.2551 70.628 61.2551 73.7365Z" fill="#004080"/>
<path d="M58.3568 75.3516C58.3568 78.4602 56.1116 79.7279 53.3537 78.1476C50.5958 76.5846 48.3506 72.7814 48.3506 69.6729C48.3506 66.5644 50.5958 65.2967 53.3537 66.877C56.1116 68.4399 58.3568 72.2431 58.3568 75.3516Z" fill="#004080"/>
<path d="M53.5996 66.7552C52.2737 66.0085 51.0715 65.9043 50.1699 66.3384C51.0008 66.1126 52.0439 66.2863 53.1576 66.9115C55.9155 68.4744 58.1607 72.2776 58.1607 75.3861C58.1607 77.0012 57.5597 78.13 56.5873 78.5988C57.8072 78.2689 58.6027 77.0706 58.6027 75.2125C58.6027 72.1213 56.3575 68.3355 53.5996 66.7552Z" fill="white"/>
<path d="M53.3183 69.1171C51.5327 68.1099 50.083 68.9261 50.083 70.9232C50.083 72.9376 51.5327 75.3862 53.3183 76.4108C55.1038 77.4181 56.5535 76.6019 56.5535 74.6048C56.5535 72.5903 55.1038 70.1243 53.3183 69.1171Z" fill="white"/>
<path d="M54.4674 75.6815C52.6818 74.6742 51.2322 72.2083 51.2322 70.1938C51.2322 69.5686 51.3736 69.065 51.6211 68.7003C50.7018 68.8219 50.083 69.6207 50.083 70.9232C50.083 72.9376 51.5327 75.3863 53.3183 76.4108C54.5558 77.1055 55.6165 76.9318 56.1645 76.0982C55.6695 76.1677 55.0861 76.0462 54.4674 75.6815Z" fill="#B2BBB9"/>
<path d="M55.5628 74.3269C55.5628 75.5772 54.6612 76.0635 53.5651 75.4383C52.469 74.8131 51.5674 73.3023 51.5674 72.0519C51.5674 70.8016 52.469 70.3153 53.5651 70.9405C54.6612 71.5657 55.5628 73.0765 55.5628 74.3269Z" fill="url(#paint2_linear)"/>
<path d="M55.4041 73.5977C55.4041 74.657 54.6439 75.0738 53.7069 74.5355C52.7699 74.0145 52.0098 72.7294 52.0098 71.6701C52.0098 70.6107 52.7699 70.1939 53.7069 70.7323C54.6439 71.2706 55.4041 72.5557 55.4041 73.5977Z" fill="white"/>
<path d="M54.9441 73.9277C54.9441 74.9871 54.1839 75.4039 53.2469 74.8655C52.31 74.3445 51.5498 73.0594 51.5498 72.0001C51.5498 70.9408 52.31 70.524 53.2469 71.0624C54.1839 71.5834 54.9441 72.8684 54.9441 73.9277Z" fill="#004080"/>
<path d="M79.448 81.5511V88.3933L58.5693 76.567V69.7769L79.448 81.5511Z" fill="white"/>
<path d="M64.5272 73.1809V79.78L64.1914 79.6063V72.9899L64.5272 73.1809Z" fill="#004080"/>
<path d="M64.1916 72.9896V79.5887L63.9795 79.4845V72.868L64.1916 72.9896Z" fill="white"/>
<path d="M79.4493 83.3052V87.8725L65.5361 79.9709C65.5361 77.9565 67.7636 76.6888 69.5315 77.696L79.4493 83.3052Z" fill="white"/>
<path d="M69.5315 77.7131L79.4493 83.3049V83.9127L69.5315 78.3209C67.9227 77.4179 65.9781 78.3556 65.6068 80.0228L65.5361 79.988C65.5361 77.9736 67.7459 76.7059 69.5315 77.7131Z" fill="#004080"/>
<path d="M79.4492 81.5512V88.3935L95.9259 79.1895V72.2952L79.4492 81.5512Z" fill="white"/>
<path d="M95.9247 72.295L79.448 81.5511L58.5693 69.7769L75.0814 60.5209L95.9247 72.295Z" fill="#B2BBB9"/>
<path d="M76.637 54.4082V79.259L1.50195 36.3301V11.5487L76.637 54.4082Z" fill="#004080"/>
<path d="M74.8707 55.4151L3.28906 14.5875V35.34L74.8707 76.2197V55.4151Z" fill="white"/>
<path d="M72.5879 54.4077L73.5249 55.0155V75.8201L72.5879 75.2123V54.4077Z" fill="#004080"/>
<path d="M73.5586 54.9285L73.9299 54.9111V75.7331H73.5586V54.9285Z" fill="#004080"/>
<path d="M69.5117 52.6537L70.4487 53.2615V74.0834L69.5117 73.4583V52.6537Z" fill="#004080"/>
<path d="M70.499 53.1748H70.8525V73.9793L70.499 73.9967V53.1748Z" fill="#004080"/>
<path d="M66.4541 50.8999L67.3911 51.5077V72.3296L66.4541 71.7044V50.8999Z" fill="#004080"/>
<path d="M67.4268 51.4207H67.7803V72.2252L67.4268 72.2425V51.4207Z" fill="#004080"/>
<path d="M63.373 49.1459L64.3101 49.7537V70.5756L63.373 69.9678V49.1459Z" fill="#004080"/>
<path d="M64.3477 49.6841L64.7012 49.6667V70.4713L64.3477 70.4886V49.6841Z" fill="#004080"/>
<path d="M60.2998 47.3917L61.2368 47.9995V68.8215L60.2998 68.2136V47.3917Z" fill="#004080"/>
<path d="M61.29 47.9302L61.6437 47.9128V68.7174L61.29 68.7348V47.9302Z" fill="#004080"/>
<path d="M57.2227 45.6377L58.1596 46.2629V67.0674L57.2227 66.4596V45.6377Z" fill="#004080"/>
<path d="M58.2119 46.1762L58.5655 46.1588V66.9633L58.2119 66.9807V46.1762Z" fill="#004080"/>
<path d="M54.167 43.9012L55.1039 44.5091V65.3136L54.167 64.7058V43.9012Z" fill="#004080"/>
<path d="M55.1396 44.4224L55.4933 44.405V65.2096L55.1396 65.2269V44.4224Z" fill="#004080"/>
<path d="M51.0889 42.1475L52.0259 42.7553V63.5598L51.0889 62.952V42.1475Z" fill="#004080"/>
<path d="M52.0625 42.6685L52.4161 42.6511V63.4556L52.0625 63.473V42.6685Z" fill="#004080"/>
<path d="M48.0117 40.3937L48.9487 41.0015V61.806L48.0117 61.1982V40.3937Z" fill="#004080"/>
<path d="M49 40.9147L49.3537 40.8973V61.7019L49 61.7193V40.9147Z" fill="#004080"/>
<path d="M44.9375 38.6394L45.8745 39.2472V60.0517L44.9375 59.4439V38.6394Z" fill="#004080"/>
<path d="M45.9287 39.1602L46.2823 39.1428V59.9474L45.9287 59.9647V39.1602Z" fill="#004080"/>
<path d="M41.8789 36.8856L42.8159 37.4934V58.2979L41.8789 57.6901V36.8856Z" fill="#004080"/>
<path d="M42.8496 37.4063L43.2032 37.3889V58.2108H42.8496V37.4063Z" fill="#004080"/>
<path d="M38.8037 35.1316L39.7407 35.7394V56.544L38.8037 55.9361V35.1316Z" fill="#004080"/>
<path d="M39.7773 35.6526L40.1486 35.6353V56.4571H39.7773V35.6526Z" fill="#004080"/>
<path d="M35.7266 33.3774L36.6636 33.9852V54.7898L35.7266 54.182V33.3774Z" fill="#004080"/>
<path d="M36.7148 33.8984L37.0685 33.881V54.7029L36.7148 54.7202V33.8984Z" fill="#004080"/>
<path d="M32.6514 31.6234L33.5884 32.2312V53.0532L32.6514 52.428V31.6234Z" fill="#004080"/>
<path d="M33.6396 32.1444H33.9933V52.949L33.6396 52.9663V32.1444Z" fill="#004080"/>
<path d="M29.5918 29.8696L30.5288 30.4775V51.2993L29.5918 50.6742V29.8696Z" fill="#004080"/>
<path d="M30.5625 30.3906H30.9161V51.1952L30.5625 51.2125V30.3906Z" fill="#004080"/>
<path d="M26.5176 28.1157L27.4546 28.7235V49.5454L26.5176 48.9376V28.1157Z" fill="#004080"/>
<path d="M27.4883 28.6538L27.8595 28.6365V49.441L27.4883 49.4584V28.6538Z" fill="#004080"/>
<path d="M23.4404 26.3616L24.3774 26.9694V47.7913L23.4404 47.1835V26.3616Z" fill="#004080"/>
<path d="M24.4297 26.9L24.7832 26.8826V47.6871L24.4297 47.7045V26.9Z" fill="#004080"/>
<path d="M20.3633 24.6249L21.3003 25.2327V46.0373L20.3633 45.4295V24.6249Z" fill="#004080"/>
<path d="M21.3525 25.1458L21.7062 25.1284V45.933L21.3525 45.9503V25.1458Z" fill="#004080"/>
<path d="M17.3037 22.8711L18.2407 23.4789V44.2835L17.3037 43.6756V22.8711Z" fill="#004080"/>
<path d="M18.2754 23.3921L18.6291 23.3748V44.1793L18.2754 44.1966V23.3921Z" fill="#004080"/>
<path d="M14.2285 21.1168L15.1655 21.7246V42.5292L14.2285 41.9214V21.1168Z" fill="#004080"/>
<path d="M15.2002 21.6381L15.5714 21.6207V42.4252L15.2002 42.4426V21.6381Z" fill="#004080"/>
<path d="M11.1523 19.3629L12.0894 19.9707V40.7753L11.1523 40.1675V19.3629Z" fill="#004080"/>
<path d="M12.1396 19.8839L12.4932 19.8666V40.6711L12.1396 40.6885V19.8839Z" fill="#004080"/>
<path d="M8.09473 17.609L9.03176 18.2168V39.0214L8.09473 38.4136V17.609Z" fill="#004080"/>
<path d="M9.06445 18.1302L9.41801 18.1128V38.9173L9.06445 38.9347V18.1302Z" fill="#004080"/>
<path d="M5.01855 15.8551L5.95556 16.4629V37.2674L5.01855 36.6596V15.8551Z" fill="#004080"/>
<path d="M5.98926 16.3764L6.34284 16.359V37.1809H5.98926V16.3764Z" fill="#004080"/>
<path d="M74.8707 55.4152V57.2386L3.90783 16.7757V35.6873L3.28906 35.34V14.5875L74.8707 55.4152Z" fill="white"/>
<path d="M76.6367 54.408V79.2588L97.2503 67.7451V42.8248L76.6367 54.408Z" fill="#004080"/>
<path d="M95.4672 66.7203V45.8463L78.4248 55.415V76.2543L95.4672 66.7203Z" fill="white"/>
<path d="M97.2515 42.8247L76.638 54.4078L1.50293 11.5484L22.1341 0L97.2515 42.8247Z" fill="#004080"/>
<path d="M80.1538 54.7896L79.2168 55.3973V76.2019L80.1538 75.5941V54.7896Z" fill="#004080"/>
<path d="M79.164 55.3105L78.8105 55.2931V76.0976L79.164 76.115V55.3105Z" fill="#004080"/>
<path d="M82.9291 53.1744L81.9922 53.7823V74.6041L82.9291 73.9789V53.1744Z" fill="#004080"/>
<path d="M81.9396 53.6954H81.5859V74.4999L81.9396 74.5173V53.6954Z" fill="#004080"/>
<path d="M85.7046 51.5768L84.7676 52.1846V72.9891L85.7046 72.3813V51.5768Z" fill="#004080"/>
<path d="M84.7149 52.0978L84.3613 52.0804V72.9023H84.7149V52.0978Z" fill="#004080"/>
<path d="M88.48 49.979L87.543 50.5868V71.3913L88.48 70.7835V49.979Z" fill="#004080"/>
<path d="M87.4902 50.4999L87.1367 50.4825V71.2871L87.4902 71.3044V50.4999Z" fill="#004080"/>
<path d="M91.2573 48.3643L90.3203 48.9721V69.7939L91.2573 69.1861V48.3643Z" fill="#004080"/>
<path d="M90.2676 48.9026L89.9141 48.8853V69.6898L90.2676 69.7072V48.9026Z" fill="#004080"/>
<path d="M94.0336 46.7664L93.0967 47.3742V68.1787L94.0336 67.5709V46.7664Z" fill="#004080"/>
<path d="M93.0441 47.2873L92.6904 47.2699V68.0918H93.0441V47.2873Z" fill="#004080"/>
<path d="M77.876 55.7798V57.6206L95.1482 47.6873V66.5989L95.767 66.2516V45.4991L77.876 55.7798Z" fill="white"/>
<path d="M97.1646 50.2747L110.724 58.0199C112.386 58.9403 113.588 60.5033 114.066 62.3094L115.975 69.6899C116.541 71.8954 116.841 74.1704 116.841 76.4453V85.0936L97.5182 95.8432V88.15C97.5182 85.3367 97.0762 82.5582 96.2276 79.8838L93.7703 72.2254C93.2399 70.5756 92.0908 69.1689 90.5527 68.318L77.877 61.059L97.1646 50.2747Z" fill="#004080"/>
<path d="M97.4987 88.1328V95.8607L87.1566 90.0257L86.3611 85.5452L77.8398 80.5612V61.0591L90.5509 68.3355C92.089 69.2038 93.2558 70.6104 93.7861 72.2602L96.2258 79.9186C97.0567 82.5756 97.4987 85.3368 97.4987 88.1328Z" fill="#004080"/>
<path d="M97.2327 88.0807C97.2327 85.3021 96.8084 82.5235 95.9599 79.8839L93.5202 72.2254C92.9898 70.5583 91.8407 69.1517 90.285 68.3007L77.9629 61.2501V60.9375L90.6916 68.2139C92.2296 69.0822 93.3965 70.4888 93.9268 72.1386L96.3665 79.797C97.2151 82.454 97.6394 85.2153 97.6394 87.9938V95.7217L97.2327 95.496V88.0807Z" fill="white"/>
<path d="M92.6001 72.625L95.0398 80.2834C95.2165 80.8044 94.6331 81.2733 94.1381 80.9954L86.4832 76.6018C85.9705 76.3066 85.6699 75.7856 85.6699 75.1952V68.9086C85.6699 68.4397 86.1826 68.1445 86.6069 68.3877L91.3625 71.1141C91.9282 71.4614 92.3879 71.9824 92.6001 72.625Z" fill="#004080"/>
<path d="M100.784 82.1242V84.9549C100.784 87.9766 104.108 89.8522 106.76 88.3587L109.535 86.8131C112.576 85.1112 114.45 81.9332 114.45 78.4947V74.3964L100.784 82.1242Z" fill="#004080"/>
<path d="M104.778 87.8376C105.291 87.8376 105.768 87.7161 106.228 87.4556L109.004 85.91C111.709 84.3991 113.37 81.5685 113.37 78.512V76.2371L101.844 82.7494V84.9722C101.844 86.7262 103.364 87.8376 104.778 87.8376Z" fill="#004080"/>
<path opacity="0.5" d="M112.416 82.3498L103.364 87.4728C103.541 87.577 103.735 87.6465 103.93 87.7159L111.938 83.2008C112.115 82.9055 112.274 82.6277 112.416 82.3498ZM113.194 80.1617L102.215 86.3614C102.303 86.5003 102.392 86.6392 102.498 86.7608L113.035 80.8042C113.105 80.5958 113.158 80.3874 113.194 80.1617ZM113.37 78.3209L101.844 84.8332V84.9547C101.844 85.0936 101.861 85.2326 101.879 85.3715L113.353 78.8939C113.353 78.7724 113.37 78.6335 113.37 78.5119V78.3209ZM101.844 83.0792V83.6349L113.37 77.1226V76.5669L101.844 83.0792Z" fill="white"/>
<path d="M112.274 82.6103L103.523 87.5597C103.47 87.525 103.417 87.5076 103.364 87.4729L112.416 82.3499C112.38 82.4367 112.327 82.5235 112.274 82.6103Z" fill="white"/>
<path d="M113.139 80.3702L102.302 86.5004C102.267 86.4657 102.232 86.4136 102.214 86.3789L113.192 80.1792C113.175 80.2313 113.157 80.3008 113.139 80.3702Z" fill="white"/>
<path d="M113.371 78.4947L101.862 85.0069C101.862 84.9896 101.862 84.9722 101.862 84.9548V84.8333L113.389 78.321V78.4947H113.371Z" fill="white"/>
<path d="M113.37 76.5669V76.7406L101.844 83.2528V83.0792L113.37 76.5669Z" fill="white"/>
<path d="M98.1494 81.0823C98.3439 81.0823 98.5384 81.0302 98.7152 80.9434L114.396 72.2082C115.139 71.7915 115.528 70.9231 115.316 70.1069L113.353 62.518C113.247 62.1359 113.106 61.7539 112.929 61.3892C112.805 61.1461 112.558 60.9897 112.293 60.9897C112.169 60.9897 112.063 61.0245 111.957 61.0766L94.8789 70.7148C94.4192 70.9752 94.2247 71.5136 94.3839 72.0172L97.0533 80.3182C97.2124 80.7697 97.6544 81.0823 98.1494 81.0823Z" fill="white"/>
<path d="M115.317 70.1069L113.355 62.518C113.249 62.1359 113.108 61.7539 112.931 61.3892C112.807 61.1461 112.56 60.9897 112.294 60.9897C112.171 60.9897 112.065 61.0245 111.958 61.0766L94.8809 70.7147C94.4389 70.9405 115.53 70.9231 115.317 70.1069Z" fill="white"/>
<path d="M97.7971 80.2138C97.9916 80.2138 98.1861 80.1617 98.3629 80.0575L114.274 71.2008C114.804 70.9056 115.158 70.3673 115.228 69.7942L115.317 70.1068C115.529 70.923 115.158 71.7913 114.398 72.2081L98.7164 80.9432C98.5396 81.0474 98.3452 81.0821 98.1507 81.0821C97.6557 81.0821 97.2137 80.7695 97.0546 80.3007L96.8955 79.797C97.1253 80.0575 97.4436 80.2138 97.7971 80.2138Z" fill="#004080"/>
<path d="M105.823 71.9825L110.26 71.0273C110.296 70.9926 110.366 70.9752 110.419 70.9926L113.036 70.4369C113.142 70.4195 113.23 70.4716 113.248 70.5758C113.266 70.6626 113.213 70.7668 113.107 70.7842L110.508 71.3399L109.659 74.2227C109.642 74.2921 109.571 74.3442 109.482 74.3442C109.465 74.3442 109.447 74.3442 109.429 74.3442C109.341 74.3095 109.288 74.2226 109.306 74.1185L110.101 71.4268L105.894 72.3298C105.876 72.3298 105.876 72.3298 105.858 72.3298C105.77 72.3298 105.699 72.2777 105.681 72.1908C105.664 72.104 105.734 71.9998 105.823 71.9825Z" fill="#004080"/>
<path d="M98.8225 75.8374L103.26 74.8823C103.295 74.8476 103.366 74.8302 103.419 74.8476L106.035 74.2919C106.142 74.2745 106.23 74.3266 106.248 74.4308C106.265 74.5176 106.212 74.6218 106.106 74.6392L103.507 75.1949L102.659 78.0776C102.641 78.1471 102.57 78.1992 102.482 78.1992C102.464 78.1992 102.447 78.1992 102.429 78.1992C102.341 78.1645 102.288 78.0776 102.305 77.9734L103.101 75.2817L98.8932 76.1848C98.8755 76.1848 98.8756 76.1848 98.8579 76.1848C98.7695 76.1848 98.6988 76.1327 98.6811 76.0458C98.6634 75.9416 98.7164 75.8548 98.8225 75.8374Z" fill="#004080"/>
<path d="M80.7008 65.1052L80.7362 65.6436L83.0875 66.9981C83.4588 67.2065 83.6709 67.5886 83.6709 68.0053V73.9619C83.6709 74.1182 83.5295 74.2224 83.4057 74.2224C83.3704 74.2224 83.3173 74.205 83.2819 74.1876L81.1428 72.972C80.8069 72.781 80.5947 72.4163 80.5947 72.0169V65.7304C80.5947 65.6609 80.6478 65.6436 80.6832 65.6436V65.1052H80.7008ZM80.7008 65.1052C80.3826 65.1052 80.082 65.3657 80.082 65.713V71.9995C80.082 72.5726 80.4003 73.111 80.8953 73.4062L83.0345 74.6218C83.1582 74.6913 83.2997 74.726 83.4234 74.726C83.83 74.726 84.219 74.396 84.219 73.9445V67.988C84.219 67.3802 83.9007 66.8418 83.3704 66.5292L81.019 65.1747C80.9129 65.1399 80.8069 65.1052 80.7008 65.1052Z" fill="white"/>
<path d="M84.1832 76.1847L85.2969 76.8273C85.5444 76.9663 85.7036 77.2267 85.7036 77.522V77.5741C85.7036 77.8519 85.3853 78.043 85.1378 77.8867L84.1301 77.3136C83.8826 77.1747 83.7412 76.9141 83.7412 76.6537V76.4453C83.7412 76.2195 83.9887 76.0806 84.1832 76.1847Z" fill="white"/>
<path d="M84.1301 77.3136L85.1378 77.8867C85.3853 78.0256 85.6682 77.8693 85.7036 77.5915C85.7036 77.6088 85.7036 77.6088 85.7036 77.6262V77.8172C85.7036 78.0951 85.3853 78.2861 85.1378 78.1298L84.1301 77.5567C83.8826 77.4178 83.7412 77.1573 83.7412 76.8968V76.6537C83.7412 76.9142 83.9003 77.1747 84.1301 77.3136Z" fill="white"/>
<path d="M86.2354 80.0055L77.8203 80.5439L86.3238 85.4759L86.2354 80.0055Z" fill="#004080"/>
<path d="M80.3838 84.2254V87.9764L83.3008 86.3614L83.1063 82.6277L80.3838 84.2254Z" fill="white"/>
<path d="M93.3614 92.0054C93.3614 93.5336 92.8311 94.6277 91.9471 95.1487C91.9294 95.166 89.3129 96.6595 89.2776 96.6595C88.376 97.1632 88.9417 96.017 87.5627 95.2355C84.7872 93.6552 82.5243 89.8347 82.5243 86.7088C82.5243 85.1632 81.0746 85.1458 81.9585 84.6249C81.9762 84.6075 84.7695 83.0967 84.7871 83.0793C85.6888 82.593 86.9263 82.6799 88.3053 83.4613C91.1162 85.059 93.3614 88.8795 93.3614 92.0054Z" fill="white"/>
<path d="M90.5858 93.5684C90.5858 96.6943 88.3406 97.962 85.5473 96.3817C82.754 94.8014 80.5088 90.9809 80.5088 87.855C80.5088 84.7291 82.754 83.4614 85.5473 85.0417C88.3406 86.622 90.5858 90.4252 90.5858 93.5684Z" fill="#004080"/>
<path d="M89.1356 92.7522C89.1356 94.9924 87.5269 95.8781 85.5468 94.7667C83.5668 93.6552 81.958 90.9288 81.958 88.6885C81.958 86.4483 83.5668 85.5627 85.5468 86.6741C87.5269 87.7855 89.1356 90.512 89.1356 92.7522Z" fill="url(#paint3_linear)"/>
<path d="M89.1375 92.7523C89.1375 93.4643 88.9783 94.0374 88.6778 94.4715C88.059 94.9057 87.1751 94.8883 86.1674 94.3326C84.3111 93.2906 82.8262 90.7378 82.8262 88.6539C82.8262 87.1431 83.604 86.2921 84.7354 86.3268C85.0006 86.4137 85.2658 86.5179 85.5487 86.6742C87.5287 87.7856 89.1375 90.5121 89.1375 92.7523Z" fill="white"/>
<path d="M83.4961 86.24C82.8597 86.6047 82.4531 87.3861 82.4531 88.4976C82.4531 90.7378 84.0618 93.4469 86.0419 94.5757C86.802 95.0098 87.5091 95.1314 88.0925 95.0098C87.4384 95.3919 86.5369 95.3398 85.5469 94.7667C83.5668 93.6379 81.958 90.9288 81.958 88.6886C81.958 87.2993 82.5591 86.431 83.4961 86.24Z" fill="#B2BBB9"/>
<path d="M86.909 91.2589C86.909 91.8494 86.4848 92.0752 85.9721 91.7799C85.4594 91.4847 85.0352 90.7727 85.0352 90.1822C85.0352 89.5918 85.4594 89.366 85.9721 89.6613C86.4848 89.9739 86.909 90.6859 86.909 91.2589Z" fill="white"/>
<path d="M85.7961 84.9201C84.4701 84.156 83.2503 84.0691 82.3486 84.5033C83.1795 84.2775 84.2226 84.4512 85.3541 85.0764C88.1297 86.6567 90.3926 90.4772 90.3926 93.6031C90.3926 95.2356 89.7739 96.3644 88.8015 96.8332C90.0214 96.5033 90.8169 95.2877 90.8169 93.4295C90.8169 90.321 88.5717 86.5004 85.7961 84.9201Z" fill="white"/>
<path d="M85.5829 87.6814C85.5829 87.9767 85.7951 88.324 86.0603 88.4803C86.3254 88.6192 86.5199 88.515 86.5199 88.2198C86.5199 87.9246 86.3078 87.5772 86.0603 87.4209C85.7951 87.282 85.5829 87.3862 85.5829 87.6814ZM85.5829 93.0823C85.5829 93.3775 85.7951 93.7248 86.0603 93.8811C86.3254 94.0201 86.5199 93.9159 86.5199 93.6206C86.5199 93.3254 86.3078 92.9781 86.0603 92.8218C85.7951 92.6655 85.5829 92.7871 85.5829 93.0823ZM84.699 87.5946C84.5222 87.282 84.2217 87.1083 84.0449 87.2125C83.8681 87.3167 83.8681 87.6467 84.0449 87.9593C84.2217 88.2719 84.5222 88.4455 84.699 88.3413C84.8758 88.2371 84.8758 87.9072 84.699 87.5946ZM87.4216 93.6901C87.5983 94.0027 87.8989 94.1764 88.0757 94.0722C88.2525 93.968 88.2525 93.638 88.0757 93.3254C87.8989 93.0128 87.5983 92.8392 87.4216 92.9434C87.2271 93.0476 87.2271 93.3949 87.4216 93.6901ZM83.1963 89.0186C83.1963 89.3138 83.4084 89.6612 83.6736 89.8175C83.9388 89.9564 84.1333 89.8522 84.1333 89.557C84.1333 89.2617 83.9211 88.9144 83.6736 88.7581C83.4084 88.6192 83.1963 88.7408 83.1963 89.0186ZM87.9872 91.7451C87.9872 92.0403 88.1994 92.3876 88.4646 92.5439C88.7298 92.6829 88.9242 92.5787 88.9242 92.2835C88.9242 91.9882 88.7121 91.6409 88.4646 91.4846C88.1817 91.3283 87.9872 91.4499 87.9872 91.7451ZM84.0272 91.7798C84.204 92.0924 84.5045 92.2661 84.6813 92.1619C84.8581 92.0577 84.8581 91.7277 84.6813 91.4151C84.5045 91.1026 84.204 90.9289 84.0272 91.0331C83.8504 91.1373 83.8504 91.4673 84.0272 91.7798ZM87.4216 89.8869C87.5983 90.1995 87.8989 90.3732 88.0757 90.269C88.2525 90.1648 88.2525 89.8348 88.0757 89.5222C87.8989 89.2097 87.5983 89.036 87.4216 89.1402C87.2271 89.2444 87.2271 89.5743 87.4216 89.8869Z" fill="white"/>
<path d="M87.5089 91.2587C87.5089 91.6755 87.3675 91.9707 87.12 92.127L86.5367 92.4743C86.2892 92.6132 86.4482 92.3007 86.0593 92.0923C85.2991 91.6581 84.6804 90.5988 84.6804 89.7479C84.6804 89.3137 84.2738 89.3138 84.5213 89.1748C84.5213 89.1748 85.1401 88.8275 85.1577 88.8275C85.4052 88.6886 85.7411 88.7233 86.13 88.9317C86.8902 89.3485 87.5089 90.4078 87.5089 91.2587Z" fill="white"/>
<path d="M86.8916 91.6237C86.8916 92.492 86.2729 92.8393 85.5127 92.4052C84.7525 91.971 84.1338 90.9117 84.1338 90.0608C84.1338 89.1925 84.7525 88.8452 85.5127 89.2793C86.2729 89.6961 86.8916 90.7554 86.8916 91.6237Z" fill="#004080"/>
<path d="M91.8396 96.1557V90.7201L88.233 84.6073L83.1592 81.7245L86.2353 80.0052L91.3269 82.888L94.9334 89.0009V94.4538L91.8396 96.1557Z" fill="#B2BBB9"/>
<path d="M91.8399 90.7202L88.2334 84.6073L91.3272 82.8881L94.9338 89.0009L91.8399 90.7202Z" fill="white"/>
<path d="M90.9892 95.7044V90.9461L87.6125 85.2153L83.1397 82.6799L80.3818 84.2255V87.9765L79.5332 87.4903V83.7392L83.1397 81.7074L88.2312 84.6075L91.8378 90.7204V96.1907L90.9892 95.7044Z" fill="#004080"/>
<path d="M91.7504 90.599L88.1439 84.5035L83.123 81.6381L83.3175 81.5339L88.4267 84.4341L92.0332 90.5469V96.0172L91.7504 95.8609V90.599Z" fill="white"/>
<path d="M80.2959 87.6467V84.104L83.0539 82.5585L83.1245 82.6106L80.5611 84.0346V87.803L80.2959 87.6467Z" fill="white"/>
<path d="M118.27 83.2699L98.9296 94.5405C97.9926 95.0615 96.8258 95.0615 95.8888 94.5405L92.2646 92.5434V95.7735L95.9065 97.788C96.8611 98.3263 98.0103 98.3089 98.9649 97.788L118.253 86.8994V83.2699H118.27Z" fill="#004080"/>
<path d="M117.934 83.8952L98.9295 94.5406C97.9926 95.0616 96.8258 95.0616 95.8888 94.5406L92.2646 92.5435L93.2547 91.9878L95.8711 93.4466C96.8258 93.9849 97.9926 93.9849 98.9472 93.4466L116.803 83.3395V82.0544L117.97 82.7491C118.394 83.0096 118.376 83.6348 117.934 83.8952Z" fill="white"/>
<path d="M116.823 83.1136L116.805 83.131L116.787 82.0543H116.823V83.1136Z" fill="white"/>
<path d="M92.4778 92.4394L95.9074 94.3323C96.8444 94.8533 98.0112 94.8533 98.9482 94.3323L117.953 83.6869C118.112 83.6001 118.218 83.4438 118.271 83.2875C118.289 83.5306 118.183 83.7564 117.935 83.8953L98.9305 94.5407C97.9935 95.0617 96.8267 95.0617 95.8897 94.5407L92.2656 92.5436L92.4778 92.4394Z" fill="white"/>
<path d="M92.1411 80.9952C92.1942 80.9952 92.2649 80.9605 92.3002 80.9084C92.3533 80.8216 92.3179 80.7174 92.2472 80.6653L91.045 79.9532C90.4086 79.5712 90.0196 78.8939 90.0196 78.1472V73.5278C90.0196 72.8158 90.3732 72.1733 90.9743 71.7739L92.1588 70.9924C92.2472 70.9403 92.2649 70.8361 92.2119 70.7493C92.1588 70.6624 92.0527 70.645 91.9643 70.6971L90.7798 71.4786C90.0903 71.9302 89.666 72.6943 89.666 73.5105V78.1298C89.666 78.9808 90.1257 79.7796 90.8682 80.2311L92.0704 80.9431C92.0704 80.9952 92.1058 80.9952 92.1411 80.9952Z" fill="#004080"/>
<path d="M89.0469 78.4252L89.9131 77.939C90.2844 77.7306 90.6026 77.1401 90.6026 76.6539V74.1011C90.6026 73.5975 90.302 73.3717 89.9131 73.5975L89.0469 74.0837C88.6756 74.2921 88.3574 74.8825 88.3574 75.3688V77.9216C88.3574 78.4078 88.6756 78.6336 89.0469 78.4252Z" fill="white"/>
<path d="M89.0468 74.0837L89.9131 73.5974C90.1252 73.4759 90.3197 73.4932 90.4434 73.6321C90.355 73.6321 90.2489 73.6495 90.1429 73.7016L89.2767 74.1879C88.9054 74.3962 88.5872 74.9867 88.5872 75.4729V78.0257C88.5872 78.2341 88.6403 78.3904 88.7463 78.4946C88.5165 78.4773 88.3574 78.2689 88.3574 77.9042V75.3514C88.3574 74.8825 88.6756 74.2921 89.0468 74.0837Z" fill="white"/>
<path d="M77.7842 55.2936L96.8067 44.5787L103.984 48.8161C107.078 50.5874 108.987 53.8522 108.987 57.3775L108.952 57.3601L89.9826 67.9708L77.7842 55.2936Z" fill="#004080"/>
<path d="M89.9994 67.9533L77.7656 60.9026V55.2587L84.9786 59.3918C88.0901 61.1631 89.9994 64.428 89.9994 67.9533Z" fill="white"/>
<path d="M84.8555 59.4268L77.9961 55.502V55.12L85.209 59.2531C88.3028 61.0244 90.2121 64.2893 90.2121 67.8146L89.8409 67.6062C89.7171 64.2372 87.8432 61.146 84.8555 59.4268Z" fill="#004080"/>
<path d="M101.829 89.8345L98.222 91.8317C97.8861 92.0227 97.4795 91.7796 97.4795 91.3975V89.8519C97.4795 89.3657 97.7623 88.8967 98.2043 88.671L99.3358 88.0805C99.7954 87.8374 100.343 87.8895 100.768 88.1847L101.882 88.9836C102.164 89.2267 102.147 89.6609 101.829 89.8345Z" fill="white"/>
<path d="M116.819 80.4049V81.69C116.819 81.8636 116.713 82.0373 116.554 82.1068L114.98 82.8882C114.68 83.0445 114.344 82.7493 114.468 82.4367L115.087 80.7696C115.175 80.5265 115.369 80.3354 115.599 80.2139L116.112 79.9708C116.448 79.8318 116.819 80.0576 116.819 80.4049Z" fill="white"/>
<path d="M101.829 89.574L98.222 91.5711C97.8861 91.7621 97.4795 91.519 97.4795 91.1369V89.5914C97.4795 89.1051 97.7623 88.6362 98.2043 88.4105L99.3358 87.82C99.7954 87.5769 100.343 87.629 100.768 87.9242L101.882 88.7231C102.164 88.9488 102.147 89.4003 101.829 89.574Z" fill="white"/>
<path d="M116.819 80.1965V81.4816C116.819 81.6553 116.713 81.829 116.554 81.8984L114.98 82.6799C114.68 82.8362 114.344 82.541 114.468 82.2284L115.087 80.5612C115.175 80.3181 115.369 80.1271 115.599 80.0055L116.112 79.7624C116.448 79.6235 116.819 79.8492 116.819 80.1965Z" fill="white"/>
<path d="M116.819 80.1965C116.819 80.1965 114.716 82.732 114.609 82.6625C114.486 82.5757 114.415 82.4194 114.468 82.2457L115.087 80.5785C115.175 80.3354 115.37 80.1444 115.6 80.0228L116.112 79.7797C116.448 79.6234 116.819 79.8492 116.819 80.1965Z" fill="#004080"/>
<path d="M101.509 93.7591L98.8037 95.2873L99.5992 95.8083C99.9882 96.0688 100.501 96.0862 100.907 95.8431L103.701 94.2454L102.693 93.7417C102.322 93.5507 101.88 93.5507 101.509 93.7591Z" fill="white"/>
<path d="M101.509 93.7591L98.8037 95.2873L103.701 94.2454L102.693 93.7417C102.322 93.5507 101.88 93.5507 101.509 93.7591Z" fill="#004080"/>
<path d="M117.599 84.8682L114.682 86.5006C114.434 86.6395 114.24 86.8479 114.151 87.1084L113.462 88.8624L116.52 87.1084C116.786 86.9521 116.98 86.7263 117.068 86.4485L117.599 84.8682Z" fill="white"/>
<path d="M117.599 84.8682L114.682 86.5006C114.434 86.6395 114.24 86.8479 114.151 87.1084L113.462 88.8624L117.599 84.8682Z" fill="#004080"/>
<path d="M112.825 89.9561L112.843 89.3483C112.843 88.7057 112.136 88.3063 111.57 88.6189L106.019 91.7622C105.152 92.2484 104.622 93.1515 104.622 94.124V94.5929L112.825 89.9561Z" fill="white"/>
<path d="M97.5146 89.2788C97.603 88.9142 97.8505 88.6016 98.1864 88.4279L99.3178 87.8375C99.7775 87.5944 100.325 87.6465 100.75 87.9417L101.864 88.7405C102.04 88.8621 102.093 89.0878 102.058 89.2615H97.5146V89.2788Z" fill="white"/>
<path d="M100.962 88.2194L100.343 89.5045C100.343 89.5045 99.3531 88.6535 99.5299 88.2541C99.7244 87.8721 100.962 88.2194 100.962 88.2194Z" fill="url(#paint4_linear)"/>
<path d="M100.149 89.1399C100.149 89.4698 100.379 89.5914 100.662 89.4351C100.945 89.2788 101.175 88.8794 101.175 88.5495C101.175 88.2195 100.945 88.0979 100.662 88.2542C100.379 88.4105 100.149 88.8099 100.149 89.1399Z" fill="url(#paint5_linear)"/>
<path d="M116.502 80.6828L115.883 81.9679C115.883 81.9679 114.893 81.1169 115.07 80.7175C115.264 80.3181 116.502 80.6828 116.502 80.6828Z" fill="url(#paint6_linear)"/>
<path d="M115.688 81.5858C115.688 81.9157 115.918 82.0373 116.201 81.881C116.484 81.7247 116.714 81.3253 116.714 80.9954C116.714 80.6654 116.484 80.5438 116.201 80.7001C115.918 80.8738 115.688 81.2558 115.688 81.5858Z" fill="url(#paint7_linear)"/>
<path d="M101.102 94.7319L100.59 95.7912C100.59 95.7912 99.8292 95.166 99.9707 94.8361C100.13 94.5235 101.102 94.7319 101.102 94.7319Z" fill="white"/>
<path d="M100.431 95.4962C100.431 95.7567 100.625 95.8782 100.855 95.7393C101.085 95.6004 101.279 95.2877 101.279 95.0099C101.279 94.7494 101.085 94.6278 100.855 94.7667C100.625 94.9057 100.431 95.2183 100.431 95.4962Z" fill="white"/>
<path d="M102.446 93.9329L101.933 94.9923C101.933 94.9923 101.173 94.3671 101.314 94.0371C101.474 93.7071 102.446 93.9329 102.446 93.9329Z" fill="white"/>
<path d="M101.759 94.6798C101.759 94.9403 101.953 95.0619 102.183 94.9229C102.413 94.784 102.607 94.4714 102.607 94.1936C102.607 93.9331 102.413 93.8115 102.183 93.9505C101.953 94.0894 101.759 94.4193 101.759 94.6798Z" fill="url(#paint8_linear)"/>
<path d="M115.459 86.7608L114.946 87.8201C114.946 87.8201 114.186 87.1949 114.327 86.865C114.504 86.535 115.459 86.7608 115.459 86.7608Z" fill="url(#paint9_linear)"/>
<path d="M114.786 87.5073C114.786 87.7678 114.981 87.8894 115.21 87.7505C115.44 87.6115 115.635 87.299 115.635 87.0211C115.635 86.7606 115.44 86.639 115.21 86.778C114.981 86.9169 114.786 87.2469 114.786 87.5073Z" fill="#FFA98C"/>
<path d="M116.731 85.9969L116.218 87.0562C116.218 87.0562 115.458 86.431 115.6 86.1011C115.759 85.7711 116.731 85.9969 116.731 85.9969Z" fill="white"/>
<path d="M116.06 86.7439C116.06 87.0044 116.254 87.1259 116.484 86.987C116.714 86.8481 116.908 86.5355 116.908 86.2577C116.908 85.9972 116.714 85.8756 116.484 86.0145C116.254 86.1535 116.06 86.4834 116.06 86.7439Z" fill="white"/>
<path d="M100.025 89.3483L99.4066 90.6334C99.4066 90.6334 97.5149 89.4873 97.7093 89.0879C97.8861 88.7058 100.025 89.3483 100.025 89.3483Z" fill="url(#paint10_linear)"/>
<path d="M99.1943 90.2688C99.1943 90.5987 99.4242 90.7203 99.7247 90.564C100.008 90.4077 100.255 90.0083 100.255 89.6783C100.255 89.3484 100.025 89.2268 99.7247 89.3831C99.4242 89.5568 99.1943 89.9388 99.1943 90.2688Z" fill="url(#paint11_linear)"/>
<path d="M97.4795 91.1369V89.5914C97.4795 89.1051 97.7623 88.6362 98.2043 88.4105L99.3358 87.82C99.7954 87.5769 100.343 87.629 100.768 87.9242L97.4795 91.1369Z" fill="#004080"/>
<path d="M106.178 92.2484V93.7071L111.534 90.7375V89.2267L106.178 92.2484Z" fill="#004080"/>
<path d="M111.534 89.2267V89.4524L106.355 92.3699V93.6029L106.178 93.7071V92.2484L111.534 89.2267Z" fill="white"/>
<path d="M100.805 80.9258V82.3845L114.435 74.8129V73.3195L100.805 80.9258Z" fill="white"/>
<path d="M101.509 93.7591L98.8037 95.2873L99.5992 95.8083C99.9882 96.0688 102.675 93.7417 102.675 93.7417C102.322 93.5507 101.88 93.5507 101.509 93.7591Z" fill="#004080"/>
<path d="M117.599 84.8682L114.682 86.5006C114.434 86.6395 114.24 86.8479 114.151 87.1084C114.151 87.1084 116.962 86.7264 117.051 86.4485L117.599 84.8682Z" fill="#004080"/>
<path d="M116.821 80.1965V81.4816C116.821 81.6553 115.106 80.5612 115.106 80.5612C115.195 80.3181 115.389 80.1271 115.619 80.0055L116.132 79.7624C116.45 79.6235 116.821 79.8492 116.821 80.1965Z" fill="white"/>
<defs>
<linearGradient id="paint0_linear" x1="9.9372" y1="49.5445" x2="19.0211" y2="47.953" gradientUnits="userSpaceOnUse">
<stop stop-color="#A3A7AA"/>
<stop offset="1" stop-color="#C0C0C0"/>
</linearGradient>
<linearGradient id="paint1_linear" x1="20.6677" y1="55.7614" x2="29.7514" y2="54.1699" gradientUnits="userSpaceOnUse">
<stop stop-color="#A3A7AA"/>
<stop offset="1" stop-color="#C0C0C0"/>
</linearGradient>
<linearGradient id="paint2_linear" x1="52.2946" y1="73.8402" x2="61.3784" y2="72.2488" gradientUnits="userSpaceOnUse">
<stop stop-color="#A3A7AA"/>
<stop offset="1" stop-color="#C0C0C0"/>
</linearGradient>
<linearGradient id="paint3_linear" x1="83.2645" y1="91.8887" x2="99.5824" y2="89.0275" gradientUnits="userSpaceOnUse">
<stop stop-color="#A3A7AA"/>
<stop offset="1" stop-color="#C0C0C0"/>
</linearGradient>
<linearGradient id="paint4_linear" x1="99.508" y1="88.7895" x2="100.96" y2="88.7895" gradientUnits="userSpaceOnUse">
<stop offset="0.0354" stop-color="#FFA98C"/>
<stop offset="0.3169" stop-color="#FFB892"/>
<stop offset="0.8601" stop-color="#FEE1A3"/>
<stop offset="1" stop-color="#FEECA8"/>
</linearGradient>
<linearGradient id="paint5_linear" x1="101.181" y1="88.8393" x2="100.144" y2="88.8393" gradientUnits="userSpaceOnUse">
<stop offset="0.0354" stop-color="#FFA98C"/>
<stop offset="0.3169" stop-color="#FFB892"/>
<stop offset="0.8601" stop-color="#FEE1A3"/>
<stop offset="1" stop-color="#FEECA8"/>
</linearGradient>
<linearGradient id="paint6_linear" x1="115.051" y1="81.2435" x2="116.503" y2="81.2435" gradientUnits="userSpaceOnUse">
<stop offset="0.0354" stop-color="#FFA98C"/>
<stop offset="0.3169" stop-color="#FFB892"/>
<stop offset="0.8601" stop-color="#FEE1A3"/>
<stop offset="1" stop-color="#FEECA8"/>
</linearGradient>
<linearGradient id="paint7_linear" x1="116.723" y1="81.2932" x2="115.685" y2="81.2932" gradientUnits="userSpaceOnUse">
<stop offset="0.0354" stop-color="#FFA98C"/>
<stop offset="0.3169" stop-color="#FFB892"/>
<stop offset="0.8601" stop-color="#FEE1A3"/>
<stop offset="1" stop-color="#FEECA8"/>
</linearGradient>
<linearGradient id="paint8_linear" x1="102.623" y1="94.4384" x2="101.767" y2="94.4384" gradientUnits="userSpaceOnUse">
<stop offset="0.0354" stop-color="#FFA98C"/>
<stop offset="0.3169" stop-color="#FFB892"/>
<stop offset="0.8601" stop-color="#FEE1A3"/>
<stop offset="1" stop-color="#FEECA8"/>
</linearGradient>
<linearGradient id="paint9_linear" x1="114.323" y1="87.2486" x2="115.466" y2="87.2486" gradientUnits="userSpaceOnUse">
<stop offset="0.0354" stop-color="#FFA98C"/>
<stop offset="0.3169" stop-color="#FFB892"/>
<stop offset="0.8601" stop-color="#FEE1A3"/>
<stop offset="1" stop-color="#FEECA8"/>
</linearGradient>
<linearGradient id="paint10_linear" x1="97.6807" y1="89.8092" x2="100.022" y2="89.8092" gradientUnits="userSpaceOnUse">
<stop offset="0.0354" stop-color="#FFA98C"/>
<stop offset="0.3169" stop-color="#FFB892"/>
<stop offset="0.8601" stop-color="#FEE1A3"/>
<stop offset="1" stop-color="#FEECA8"/>
</linearGradient>
<linearGradient id="paint11_linear" x1="100.244" y1="89.9755" x2="99.1973" y2="89.9755" gradientUnits="userSpaceOnUse">
<stop offset="0.0354" stop-color="#FFA98C"/>
<stop offset="0.3169" stop-color="#FFB892"/>
<stop offset="0.8601" stop-color="#FEE1A3"/>
<stop offset="1" stop-color="#FEECA8"/>
</linearGradient>
</defs>
</svg>
