<svg width="230" height="41" fill="none" xmlns="http://www.w3.org/2000/svg"><path d="M9 2a9 9 0 1 0 0 18A9 9 0 0 0 9 2Zm0 16A7 7 0 1 1 9 4a7 7 0 0 1 0 14Z" fill="#161F26"/><path d="m11.1 8.9 1.4-1.4a5 5 0 0 0-7 0 5 5 0 0 0 0 7 5 5 0 0 0 7 0l-1.4-1.4a3 3 0 0 1-4.2 0 3 3 0 0 1 0-4.2 3 3 0 0 1 4.2 0ZM30.7 12.2l2.6-3.4h1.5l-2.5 3.4 2.5 3.5h-1.5l-2.6-3.5Zm3.4 0 2.6-3.4h1.6l-2.5 3.4 2.5 3.5h-1.6l-2.6-3.5ZM41 4.4h9.5v1.5h-7.8v3.6h4c1.5 0 2.6.3 3.4 1 .8.6 1.2 1.5 1.2 2.7 0 1.2-.5 2.2-1.3 2.8-.9.7-2 1-3.6 1h-5.4V4.4Zm5.3 11.2a4 4 0 0 0 2.4-.6c.5-.4.8-1 .8-1.8 0-1.5-1-2.2-3.2-2.2h-3.6v4.6h3.6Zm11-8.2c1.3 0 2.3.3 3 1 .7.6 1 1.6 1 2.8V17h-1.6v-1.3c-.3.5-.7.8-1.2 1-.6.3-1.2.4-2 .4-1 0-1.9-.3-2.5-.8-.6-.5-1-1.2-1-2s.3-1.5 1-2c.6-.5 1.5-.8 2.9-.8h2.7v-.3c0-.8-.2-1.3-.6-1.7-.5-.4-1.1-.6-2-.6a5 5 0 0 0-3 1l-.7-1.3c.5-.4 1-.7 1.8-1l2.1-.2Zm-.4 8.4c.6 0 1.2-.2 1.7-.5.4-.3.8-.7 1-1.2v-1.3h-2.7c-1.4 0-2.2.4-2.2 1.4 0 .5.2.9.6 1.2.4.2.9.4 1.6.4Zm15.7-8.3V17h-1.7V9h-4.1l-.1 2.1c0 1.3-.2 2.4-.3 3.2a5 5 0 0 1-.9 2c-.4.6-.9.8-1.6.8a4 4 0 0 1-1-.1v-1.5h.5c.5 0 .8-.1 1-.6.3-.4.5-.9.5-1.4L65 11l.2-3.5h7.3ZM83 9h-3.5v8h-1.7V9h-3.5V7.5H83V9Zm5.5 4h-2v4h-1.7V7.5h1.7v4h2l3-4h2L89.7 12l3.9 4.9h-2l-3.2-4ZM99.3 17c-1 0-1.8-.2-2.6-.6a4.7 4.7 0 0 1-2.4-4.3A4.5 4.5 0 0 1 96.7 8c.8-.4 1.6-.6 2.6-.6s1.8.2 2.5.6c.8.4 1.4 1 1.8 1.7.4.8.6 1.6.6 2.5a5 5 0 0 1-.6 2.6 5 5 0 0 1-4.3 2.4Zm0-1.5A3 3 0 0 0 102 14c.2-.5.4-1.1.4-1.8 0-.6-.2-1.2-.4-1.7-.3-.5-.7-1-1.2-1.2-.5-.3-1-.4-1.6-.4-.6 0-1.2.1-1.7.4a3 3 0 0 0-1.1 1.2c-.3.5-.4 1-.4 1.7s.1 1.3.4 1.8c.3.5.6.9 1.1 1.2.5.3 1 .4 1.7.4Zm18.4-8.1V17h-1.5v-7l-3.6 6h-.8l-3.5-6v7h-1.6V7.5h1.8l3.8 6.4 3.8-6.4h1.6Zm12.2 0V17h-1.7V9h-5.4v8h-1.7V7.5h8.8Zm11.6 0V17h-1.8V9h-4l-.2 2.1c0 1.3-.2 2.4-.3 3.2a5 5 0 0 1-.9 2c-.3.6-.9.8-1.6.8a4 4 0 0 1-1-.1v-1.5h.5c.5 0 .9-.1 1.1-.6l.5-1.4.2-2.5.1-3.5h7.4Zm12 4.8-.1.5h-7.8a3 3 0 0 0 1.1 2c.7.5 1.5.8 2.4.8 1.1 0 2-.4 2.8-1.2l1 1.2A5.5 5.5 0 0 1 149 17c-1 0-2-.2-2.7-.6-.8-.4-1.4-1-1.9-1.8a5 5 0 0 1-.6-2.5c0-.9.2-1.7.6-2.5.4-.7 1-1.3 1.7-1.7.8-.4 1.6-.6 2.5-.6 1 0 1.7.2 2.4.6.8.4 1.3 1 1.7 1.7.4.8.6 1.6.6 2.6Zm-4.8-3.5a3 3 0 0 0-2 .8 3 3 0 0 0-1 2h6a3 3 0 0 0-3-2.8Zm11.1 4.2h-2v4h-1.7V7.5h1.7v4h2l3.1-4h1.9l-3.6 4.6L165 17h-2l-3.2-4Zm14-4h-3.5v8h-1.7V9H165V7.5h8.7V9Zm.7 6.7 2.6-3.5-2.6-3.4h1.6l2.6 3.4-2.6 3.5h-1.6Zm3.5 0 2.5-3.5-2.5-3.4h1.6l2.5 3.4-2.5 3.5H178ZM7 30.4H4V38H3v-7.6H.2v-.8H7v.8Zm3 1.2c1 0 1.5.2 2 .7.4.4.6 1 .6 1.8V38h-.8v-1a2 2 0 0 1-.8.8 3 3 0 0 1-1.3.3c-.7 0-1.3-.2-1.7-.5-.4-.4-.6-.8-.6-1.4 0-.5.1-1 .5-1.3.4-.3 1-.5 1.9-.5h2v-.3c0-.6-.2-1-.5-1.3-.3-.3-.7-.4-1.3-.4a3.3 3.3 0 0 0-2.1.7l-.4-.6c.3-.3.7-.5 1.2-.6.4-.2.9-.3 1.4-.3Zm-.2 5.8c.5 0 .9-.1 1.2-.3.4-.3.6-.6.8-1v-1h-2c-1 0-1.6.3-1.6 1.1 0 .4.1.7.4.9.3.2.7.3 1.2.3ZM22 31.7V38h-.8v-5l-2.6 4.2h-.4L15.7 33v5h-.8v-6.3h.9l2.7 4.5 2.7-4.5h.8Zm5 6.4c-.6 0-1.2-.2-1.6-.4a3 3 0 0 1-1.2-1.2c-.3-.5-.4-1-.4-1.7 0-.6.1-1.1.4-1.6a3 3 0 0 1 1.2-1.2c.4-.2 1-.4 1.6-.4.6 0 1.2.2 1.6.4.5.3 1 .7 1.2 1.2.3.5.4 1 .4 1.6 0 .7-.1 1.2-.4 1.7a3 3 0 0 1-1.2 1.2c-.4.2-1 .4-1.6.4Zm0-.8 1.2-.3c.4-.2.6-.5.8-.9.2-.3.3-.8.3-1.3 0-.4 0-.9-.3-1.2a2 2 0 0 0-.8-.9l-1.2-.3c-.5 0-.9 0-1.2.3-.4.2-.6.5-.9.9-.2.3-.3.8-.3 1.2 0 .5.1 1 .3 1.3.3.4.5.7.9.9.3.2.7.3 1.2.3Zm10.3-2.1H36V38H35v-2.8h-1.4L31.8 38h-1l2.3-3.3-2.1-3h.9l1.8 2.8h1.4v-2.8h.9v2.8h1.3l1.9-2.8h1l-2.2 3 2.3 3.3h-1l-2-2.8Zm9.7 0h-5.3c0 .6.3 1.1.8 1.5.4.4 1 .6 1.7.6.4 0 .8 0 1-.2.4-.1.7-.4 1-.6l.4.5c-.3.4-.6.6-1 .8a3.6 3.6 0 0 1-3.1-.1 3 3 0 0 1-1.2-1.2c-.3-.5-.4-1-.4-1.7 0-.6.1-1.1.4-1.6a3 3 0 0 1 2.7-1.6 3 3 0 0 1 1.5.4c.5.3.9.7 1.1 1.2.3.5.4 1 .4 1.6v.3Zm-3-2.8c-.6 0-1.2.2-1.6.6-.4.3-.6.8-.7 1.5h4.5c0-.7-.3-1.2-.7-1.5-.4-.4-1-.6-1.5-.6Zm5-.7h.8v2.8h4v-2.8h.8V38h-.9v-2.8h-4V38H49v-6.3Zm8 0h.9v2.8h4v-2.8h.8V38h-.9v-2.8h-4V38H57v-6.3Zm10.8 2.2c.7 0 1.4.2 1.8.5.4.4.6.9.6 1.5 0 .7-.2 1.2-.7 1.6a3 3 0 0 1-1.9.5h-2.5v-6.3h.9v2.2h1.8Zm3.4-2.2h.9V38h-.9v-6.3Zm-3.6 5.7c.5 0 1-.1 1.3-.4.3-.2.4-.6.4-1 0-.5-.1-.9-.4-1.1-.3-.2-.8-.3-1.3-.3H66v2.7h1.6Zm7-5.7h.8v5l4.2-5h.7V38h-.8v-5l-4.2 5h-.8v-6.3Zm2.8-1a2 2 0 0 1-1.3-.3c-.3-.3-.5-.7-.5-1.2h.6c0 .3.1.6.4.8.2.2.4.2.8.2.3 0 .6 0 .8-.2.3-.2.4-.5.4-.8h.6c0 .5-.2.9-.5 1.2a2 2 0 0 1-1.3.4ZM89 31.9a3 3 0 0 1 1.5.4c.5.3.9.7 1.1 1.1.3.5.4 1 .4 1.6 0 .6-.1 1.2-.4 1.7-.3.4-.6.8-1.1 1-.5.3-1 .5-1.7.5a3 3 0 0 1-2.4-1.1c-.6-.8-.9-1.8-.9-3 0-1.4.3-2.5.8-3.2a4 4 0 0 1 2.4-1.5l2.9-.6.1.8-2.7.6c-.9.2-1.5.5-2 1-.4.6-.6 1.3-.7 2.3.3-.5.7-.9 1.1-1.1a3 3 0 0 1 1.6-.5Zm-.1 5.6a2.1 2.1 0 0 0 2-1.2L91 35c0-.5 0-1-.2-1.3a2 2 0 0 0-.9-.8 2.4 2.4 0 0 0-2.4 0l-.8.8c-.2.4-.2.8-.2 1.3 0 .4 0 .8.2 1.2a2.2 2.2 0 0 0 2 1.2Zm8.2-5.8c.6 0 1.1.2 1.6.4.5.3.9.7 1.1 1.2.3.5.4 1 .4 1.6 0 .7-.1 1.2-.4 1.7a3 3 0 0 1-1.1 1.2c-.5.2-1 .4-1.6.4a2.7 2.7 0 0 1-2.4-1.2v3.4h-.9v-8.6h.9v1.2c.2-.4.5-.7 1-1a3 3 0 0 1 1.4-.3Zm0 5.7c.4 0 .8-.1 1.1-.3.4-.2.7-.5.9-.9.2-.3.3-.8.3-1.3 0-.4-.1-.9-.3-1.2-.2-.4-.5-.7-.9-.9-.3-.2-.7-.3-1.2-.3-.4 0-.8 0-1.2.3-.3.2-.6.5-.8.9-.2.3-.3.8-.3 1.2 0 .5 0 1 .3 1.3.2.4.5.7.8.9l1.2.3Zm7.6.8c-.6 0-1.2-.2-1.7-.4a3 3 0 0 1-1.1-1.2c-.3-.5-.4-1-.4-1.7 0-.6 0-1.1.4-1.6A3 3 0 0 1 103 32c.5-.2 1-.4 1.7-.4.6 0 1.1.2 1.6.4.5.3.9.7 1.2 1.2.2.5.4 1 .4 1.6 0 .7-.2 1.2-.4 1.7a3 3 0 0 1-1.2 1.2c-.5.2-1 .4-1.6.4Zm0-.8 1.2-.3c.3-.2.6-.5.8-.9.2-.3.3-.8.3-1.3 0-.4 0-.9-.3-1.2a2 2 0 0 0-.8-.9l-1.2-.3c-.5 0-.9 0-1.2.3-.4.2-.7.5-.9.9-.2.3-.3.8-.3 1.2 0 .5.1 1 .3 1.3.2.4.5.7.9.9.3.2.7.3 1.2.3Zm7.3-2.1h-1.5V38h-.8v-6.3h.8v2.8h1.5l2.2-2.8h1l-2.5 3 2.6 3.3h-1l-2.3-2.8Zm10 0h-5.3c0 .6.3 1.1.7 1.5.5.4 1 .6 1.8.6.4 0 .7 0 1-.2.4-.1.7-.4.9-.6l.5.5c-.3.4-.7.6-1 .8l-1.5.3c-.6 0-1.2-.2-1.7-.4a3 3 0 0 1-1.2-1.2c-.2-.5-.4-1-.4-1.7 0-.6.2-1.1.4-1.6a3 3 0 0 1 2.7-1.6 3 3 0 0 1 1.6.4c.5.3.8.7 1 1.2.3.5.5 1 .5 1.6v.3Zm-3-2.8c-.7 0-1.2.2-1.6.6-.4.3-.7.8-.7 1.5h4.5c-.1-.7-.3-1.2-.8-1.5-.4-.4-.9-.6-1.5-.6Zm8.1-.8c.6 0 1.1.2 1.6.4.5.3.9.7 1.1 1.2.3.5.5 1 .5 1.6 0 .7-.2 1.2-.5 1.7a3 3 0 0 1-1 1.2c-.6.2-1 .4-1.7.4a2.7 2.7 0 0 1-2.4-1.2v3.4h-.8v-8.6h.8v1.2c.2-.4.6-.7 1-1a3 3 0 0 1 1.4-.3Zm0 5.7 1.2-.3a2.6 2.6 0 0 0 1.2-2.2l-.4-1.2c-.2-.4-.5-.7-.8-.9l-1.2-.3c-.5 0-.9 0-1.3.3-.3.2-.6.5-.8.9-.2.3-.3.8-.3 1.2 0 .5.1 1 .3 1.3.2.4.5.7.8.9.4.2.8.3 1.3.3Zm12 .8c-.8 0-1.6-.2-2.3-.6a4.1 4.1 0 0 1-2-3.7c0-.8.1-1.5.5-2.2a4 4 0 0 1 1.6-1.5 4.7 4.7 0 0 1 4-.2c.5.1 1 .5 1.3.9l-.6.5c-.6-.6-1.5-1-2.5-1-.6 0-1.2.2-1.8.5a3.4 3.4 0 0 0-1.7 3c0 .7.1 1.2.4 1.8.4.5.8 1 1.3 1.2.6.3 1.2.5 1.8.5 1 0 1.9-.4 2.5-1l.6.5c-.4.4-.8.7-1.4 1-.5.2-1 .3-1.7.3Zm10-3h-5.3c0 .7.3 1.2.7 1.6.5.4 1 .6 1.8.6.4 0 .7 0 1-.2.4-.1.7-.4.9-.6l.5.5c-.3.4-.7.6-1 .8l-1.5.3c-.6 0-1.2-.2-1.7-.4a3 3 0 0 1-1.2-1.2c-.2-.5-.4-1-.4-1.7 0-.6.2-1.1.4-1.6a3 3 0 0 1 2.7-1.6 3 3 0 0 1 1.6.4c.4.3.8.7 1 1.2.3.5.5 1 .5 1.6v.3Zm-3-2.7c-.7 0-1.2.2-1.6.6-.4.3-.7.8-.7 1.5h4.5c-.1-.7-.3-1.2-.8-1.5-.4-.4-.9-.6-1.5-.6Zm8.9 2.3c.8.2 1.3.8 1.3 1.6 0 .5-.2 1-.7 1.3-.4.3-1 .4-1.8.4H151v-6.3h2.7a3 3 0 0 1 1.7.4c.4.3.6.7.6 1.2 0 .4 0 .6-.2.9l-.8.5Zm-3.2-.2h1.9c.5 0 .8-.1 1-.3.4-.2.5-.4.5-.8 0-.3-.1-.6-.4-.8a2 2 0 0 0-1.1-.2h-2v2.1Zm2 2.8c.5 0 1 0 1.2-.2.3-.2.4-.5.4-.9 0-.3-.1-.6-.4-.8-.2-.2-.6-.3-1.1-.3h-2.1v2.2h2Zm10-2.2h-5.3c0 .7.3 1.2.8 1.6.4.4 1 .6 1.7.6.4 0 .7 0 1-.2.4-.1.7-.4 1-.6l.4.5c-.3.4-.6.6-1 .8l-1.4.3c-.7 0-1.3-.2-1.8-.4a3 3 0 0 1-1.1-1.2 3.4 3.4 0 0 1 0-3.3 3 3 0 0 1 2.6-1.6 3 3 0 0 1 1.6.4c.5.3.8.7 1 1.2.4.5.5 1 .5 1.6v.3Zm-3-2.7c-.7 0-1.2.2-1.6.6-.4.3-.6.8-.7 1.5h4.5c0-.7-.3-1.2-.7-1.5-.4-.4-1-.6-1.6-.6Zm8.1-.8c.6 0 1.2.2 1.6.4.5.3.9.7 1.2 1.2.2.5.4 1 .4 1.6 0 .7-.2 1.2-.4 1.7a3 3 0 0 1-1.2 1.2c-.4.2-1 .4-1.6.4a2.7 2.7 0 0 1-2.4-1.2v3.4h-.8v-8.6h.8v1.2c.2-.4.6-.7 1-1a3 3 0 0 1 1.4-.3Zm0 5.7 1.2-.3a2.6 2.6 0 0 0 1.2-2.2c0-.4-.2-.9-.4-1.2-.2-.4-.5-.7-.8-.9l-1.2-.3c-.5 0-.9 0-1.2.3-.4.2-.7.5-.9.9-.2.3-.3.8-.3 1.2 0 .5.1 1 .3 1.3.2.4.5.7.9.9.3.2.7.3 1.2.3Zm7.6.8c-.6 0-1.2-.2-1.6-.4a3 3 0 0 1-1.2-1.2c-.3-.5-.4-1-.4-1.7 0-.6.1-1.1.4-1.6A3 3 0 0 1 175 32c.4-.2 1-.4 1.6-.4.6 0 1.2.2 1.6.4.5.3 1 .7 1.2 1.2.3.5.4 1 .4 1.6 0 .7-.1 1.2-.4 1.7a3 3 0 0 1-1.2 1.2c-.4.2-1 .4-1.6.4Zm0-.8c.5 0 .9-.1 1.2-.3.4-.2.6-.5.8-.9.2-.3.3-.8.3-1.3 0-.4 0-.9-.3-1.2a2 2 0 0 0-.8-.9c-.3-.2-.7-.3-1.2-.3-.4 0-.8 0-1.2.3-.4.2-.6.5-.8.9-.2.3-.3.8-.3 1.2 0 .5 0 1 .3 1.3.2.4.4.7.8.9l1.2.3Zm4.7-3h3.1v.8h-3.1v-.7Zm8.7-.7c.6.1 1 .4 1.3.8.3.3.5.7.5 1.2s-.2 1-.5 1.3a3 3 0 0 1-1.2.9c-.5.2-1 .3-1.6.3-.6 0-1.1-.1-1.7-.3-.5-.2-1-.4-1.4-.8l.3-.6a4 4 0 0 0 2.7 1l1.2-.3c.4-.1.7-.3 1-.6.2-.3.3-.6.3-1 0-.5-.2-.8-.6-1.1-.4-.3-1-.4-1.6-.4h-1.8v-.7h1.7c.6 0 1.1-.1 1.4-.4.4-.2.5-.6.5-1 0-.5-.2-1-.6-1.2-.4-.3-1-.4-1.6-.4l-1.2.1-1.2.6-.3-.8c.9-.5 1.8-.7 2.7-.7.6 0 1.1 0 1.6.3.5.1.8.4 1.1.7.3.4.4.8.4 1.3 0 .4-.1.8-.4 1.1a2 2 0 0 1-1 .7Zm6-2c.8 0 1.4.2 1.8.7.5.4.7 1 .7 1.8V38h-.8v-1a2 2 0 0 1-.9.8 3 3 0 0 1-1.3.3c-.7 0-1.2-.2-1.7-.5-.4-.4-.6-.8-.6-1.4 0-.5.2-1 .6-1.3.4-.3 1-.5 1.9-.5h2v-.3c0-.6-.2-1-.5-1.3-.3-.3-.7-.4-1.3-.4a3.3 3.3 0 0 0-2.1.7l-.4-.6c.3-.3.7-.5 1.1-.6l1.5-.3Zm-.3 5.8 1.2-.3.8-1v-1h-2c-1.1 0-1.6.3-1.6 1.1 0 .4.1.7.4.9.3.2.6.3 1.2.3Zm10.7-5.7V38h-.8v-5.6h-4V38h-.8v-6.3h5.6Zm4.6 0c.9 0 1.5.1 2 .6.4.4.6 1 .6 1.8V38h-.8v-1a2 2 0 0 1-.9.8 3 3 0 0 1-1.3.3c-.7 0-1.3-.2-1.7-.5-.4-.4-.6-.8-.6-1.4 0-.5.2-1 .6-1.3.4-.3 1-.5 1.8-.5h2v-.3c0-.6-.1-1-.4-1.3-.3-.3-.8-.4-1.3-.4a3.3 3.3 0 0 0-2.1.7l-.4-.6c.3-.3.7-.5 1.1-.6l1.4-.3Zm-.3 5.7c.5 0 1-.1 1.3-.3.3-.3.6-.6.7-1v-1h-2c-1 0-1.6.3-1.6 1.1 0 .4.2.7.5.9.2.2.6.3 1.1.3Zm11.3-.1v2.2h-.8V38h-5.6v1.5h-.8v-2.2h.3c.4 0 .7-.4.9-1l.3-2.5v-2.1h4.7v5.6h1Zm-5-3.5c0 1 0 1.7-.2 2.3 0 .5-.3 1-.6 1.2h4v-4.9h-3l-.1 1.4Zm8.8-2.2c.9 0 1.5.2 2 .7.4.4.6 1 .6 1.8V38h-.8v-1a2 2 0 0 1-.9.8 3 3 0 0 1-1.3.3c-.7 0-1.2-.2-1.7-.5-.4-.4-.6-.8-.6-1.4 0-.5.2-1 .6-1.3.4-.3 1-.5 1.8-.5h2v-.3c0-.6-.1-1-.4-1.3-.3-.3-.8-.4-1.3-.4a3.3 3.3 0 0 0-2.1.7l-.4-.6c.3-.3.7-.5 1.1-.6l1.4-.3Zm-.3 5.8c.5 0 1-.1 1.3-.3l.8-1v-1h-2c-1.1 0-1.6.3-1.6 1.1 0 .4 0 .7.4.9.3.2.6.3 1.1.3Z" fill="#161F26"/></svg>