<svg width="202" height="76" fill="none" xmlns="http://www.w3.org/2000/svg"><path d="M11.8 51.4H7.3V59h-.9v-8.4h5.4v.8Zm-.2 1.3h.9v5l4.2-5h.8V59h-.9v-5l-4.2 5h-.8v-6.3Zm13.5 0V59h-.9v-5.6h-3L21 55c0 1.3-.2 2.3-.5 3-.2.7-.6 1-1.2 1h-.7l.1-.7h.3c.3 0 .6-.1.8-.5l.3-1 .1-1.9.1-2.2h4.7Zm5 2.2c.9 0 1.5.2 1.9.5.4.4.6.9.6 1.5 0 .7-.2 1.2-.7 1.6-.4.3-1 .5-1.9.5h-2.5v-6.3h.8v2.2h1.9Zm-.1 3.5c.6 0 1-.1 1.3-.4.3-.2.5-.6.5-1 0-.5-.2-.9-.5-1.1-.3-.2-.7-.3-1.3-.3h-1.7v2.7H30Zm10.2-.1v2.2h-.8V59h-5.7v1.5H33v-2.2h.4c.4 0 .7-.4.8-1 .2-.6.3-1.4.4-2.5v-2.1h4.7v5.6h1Zm-5-3.5c0 1 0 1.7-.2 2.3-.1.5-.3 1-.6 1.2h4v-4.9h-3.1v1.4Zm6.6-2.1h.9v5l4.2-5h.8V59h-.9v-5l-4.2 5h-.8v-6.3Zm13.1 0V59h-.7v-2h-2.3l-1.4 2h-1l1.6-2.2c-.5-.1-.8-.4-1.1-.7a2 2 0 0 1-.4-1.3c0-.7.2-1.2.7-1.6.5-.3 1.2-.5 2-.5h2.6Zm-4.4 2.2c0 1 .6 1.4 1.8 1.4h1.9v-2.9h-1.9c-1.2 0-1.8.5-1.8 1.5Zm15.7-2.2V59h-.9v-5.6h-4V59h-.8v-6.3h5.7Zm5.7 0c.5 0 1 0 1.6.3.4.3.8.7 1 1.2.4.5.5 1 .5 1.6 0 .7-.1 1.2-.4 1.7a3 3 0 0 1-1.1 1.2c-.5.2-1 .4-1.6.4a2.7 2.7 0 0 1-2.4-1.2v3.4h-.9v-8.6h.8v1.2l1-1a3 3 0 0 1 1.5-.3Zm-.1 5.6L73 58c.4-.2.6-.5.8-.9.2-.3.3-.8.3-1.3 0-.4 0-.9-.3-1.2-.2-.4-.4-.7-.8-.9l-1.2-.3c-.5 0-.9 0-1.2.3-.4.2-.6.5-.9.9-.2.3-.3.8-.3 1.2 0 .5.1 1 .3 1.3.3.4.5.7.9.9.3.2.7.3 1.2.3Zm7.6.8c-.6 0-1.1-.2-1.6-.4a3 3 0 0 1-1.2-1.2c-.2-.5-.4-1-.4-1.7 0-.6.2-1.1.4-1.6a3 3 0 0 1 1.2-1.2c.5-.2 1-.4 1.6-.4.6 0 1.2.2 1.7.4.5.3.8.7 1.1 1.2.3.5.4 1 .4 1.6 0 .7-.1 1.2-.4 1.7a3 3 0 0 1-1.1 1.2c-.5.2-1 .4-1.7.4Zm0-.8c.5 0 .9-.1 1.2-.3.4-.2.7-.5.9-.9.2-.3.3-.8.3-1.3 0-.4-.1-.9-.3-1.2a2 2 0 0 0-.9-.9c-.3-.2-.7-.3-1.2-.3-.4 0-.8 0-1.2.3-.3.2-.6.5-.8.9-.2.3-.3.8-.3 1.2 0 .5 0 1 .3 1.3.2.4.5.7.8.9l1.2.3Zm12.7-2.5c0 1-.3 1.8-1 2.3-.6.6-1.6 1-2.7 1v2.2h-.9v-2.2c-1.1 0-2-.4-2.7-1a3 3 0 0 1-1-2.3c0-1 .4-1.7 1-2.3.6-.5 1.6-.8 2.7-.9v-2.5h.9v2.5c1.1.1 2 .4 2.7 1 .7.5 1 1.3 1 2.2Zm-7.4 0c0 .8.2 1.4.7 1.8.5.4 1.2.7 2.1.7v-4.9c-.9 0-1.6.3-2 .7-.6.4-.8 1-.8 1.7Zm3.7 2.5c.9 0 1.6-.3 2-.7.6-.4.8-1 .8-1.8 0-.7-.2-1.3-.7-1.7-.5-.4-1.2-.7-2.1-.7v5Zm11-2.2h-5.3c0 .7.3 1.2.8 1.6.4.4 1 .6 1.7.6.4 0 .8 0 1-.2.4-.1.7-.4 1-.6l.4.5c-.3.4-.6.6-1 .8l-1.4.3c-.7 0-1.2-.2-1.7-.4a3 3 0 0 1-1.2-1.2c-.3-.5-.4-1-.4-1.7 0-.6.1-1.1.4-1.6a3 3 0 0 1 2.7-1.6 3 3 0 0 1 1.5.4c.5.3.9.7 1.1 1.2.3.5.4 1 .4 1.6v.3Zm-3-2.7c-.7 0-1.2.2-1.6.6-.4.3-.6.8-.7 1.5h4.5c0-.7-.3-1.2-.7-1.5-.4-.4-1-.6-1.5-.6Zm7.5 5.7c-.6 0-1.1-.2-1.6-.4a3 3 0 0 1-1.2-1.2c-.3-.5-.4-1-.4-1.7 0-.6.1-1.1.4-1.6a3 3 0 0 1 1.2-1.2c.5-.2 1-.4 1.6-.4.6 0 1 .1 1.5.4.4.2.8.5 1 .9l-.6.4a2 2 0 0 0-.8-.7l-1-.2c-.5 0-1 0-1.3.3-.4.2-.6.5-.9.9l-.3 1.2c0 .5.2 1 .3 1.3a2.3 2.3 0 0 0 2.1 1.2c.4 0 .8 0 1-.2.4-.2.7-.4.9-.7l.6.4c-.2.4-.6.7-1 1-.4.2-1 .3-1.5.3Zm6.7 0c-.6 0-1.2-.2-1.7-.4a3 3 0 0 1-1.1-1.2 3.3 3.3 0 0 1 0-3.3 3 3 0 0 1 1.1-1.2c.5-.2 1-.4 1.7-.4.5 0 1 .1 1.4.4.5.2.8.5 1 .9l-.6.4a2 2 0 0 0-.8-.7l-1-.2c-.5 0-.9 0-1.2.3-.4.2-.7.5-.9.9-.2.3-.3.8-.3 1.2 0 .5.1 1 .3 1.3a2.3 2.3 0 0 0 2 1.2c.5 0 .8 0 1.1-.2.4-.2.6-.4.8-.7l.7.4-1 1-1.5.3Zm4.1-6.4h.9v5l4.2-5h.7V59h-.8v-5l-4.2 5h-.8v-6.3Zm10.9 6.4c-.6 0-1.2-.2-1.7-.4a3 3 0 0 1-1.1-1.2c-.3-.5-.4-1-.4-1.7 0-.6.1-1.1.4-1.6a3 3 0 0 1 1.1-1.2c.5-.2 1-.4 1.7-.4.6 0 1.1.2 1.6.4.5.3.9.7 1.2 1.2.2.5.4 1 .4 1.6 0 .7-.2 1.2-.4 1.7a3 3 0 0 1-1.2 1.2c-.5.2-1 .4-1.6.4Zm0-.8 1.2-.3c.3-.2.6-.5.8-.9.2-.3.3-.8.3-1.3 0-.4 0-.9-.3-1.2a2 2 0 0 0-.8-.9l-1.2-.3c-.5 0-.9 0-1.2.3-.4.2-.7.5-.9.9-.2.3-.3.8-.3 1.2 0 .5.1 1 .3 1.3.2.4.5.7.9.9.3.2.7.3 1.2.3Zm5-5.6h.9v2.8h4v-2.8h.8V59h-.9v-2.8h-4V59h-.8v-6.3Zm10.3 0c.8 0 1.4.1 1.9.6.4.4.6 1 .6 1.8V59h-.8v-1a2 2 0 0 1-.8.8 3 3 0 0 1-1.4.3c-.7 0-1.2-.2-1.6-.5-.5-.4-.7-.8-.7-1.4 0-.5.2-1 .6-1.3.4-.3 1-.5 1.9-.5h2v-.3c0-.6-.2-1-.5-1.3-.3-.3-.7-.4-1.3-.4a3.3 3.3 0 0 0-2.1.7l-.4-.6c.3-.3.7-.5 1.2-.6.4-.2.9-.3 1.4-.3Zm-.3 5.7c.5 0 .9-.1 1.2-.3.4-.3.6-.6.8-1v-1h-2c-1 0-1.6.3-1.6 1.1 0 .4.1.7.4.9.3.2.7.3 1.2.3Zm10.3-5.7V59h-.9v-5.6h-3l-.1 1.6c0 1.3-.2 2.3-.5 3-.2.7-.6 1-1.2 1h-.7l.1-.7h.3c.3 0 .6-.1.8-.5l.3-1 .1-1.9.1-2.2h4.7Zm5 6.4c-.6 0-1.2-.2-1.7-.4a3 3 0 0 1-1.1-1.2c-.3-.5-.4-1-.4-1.7 0-.6.1-1.1.4-1.6a3 3 0 0 1 1.1-1.2c.5-.2 1-.4 1.7-.4.6 0 1.1.2 1.6.4.5.3.9.7 1.2 1.2.3.5.4 1 .4 1.6 0 .7-.2 1.2-.4 1.7a3 3 0 0 1-1.2 1.2c-.5.2-1 .4-1.6.4Zm0-.8 1.2-.3c.3-.2.6-.5.8-.9.2-.3.3-.8.3-1.3 0-.4 0-.9-.3-1.2a2 2 0 0 0-.8-.9l-1.2-.3c-.5 0-.9 0-1.2.3-.4.2-.7.5-.9.9-.2.3-.3.8-.3 1.2 0 .5.1 1 .3 1.3.2.4.5.7.9.9.3.2.7.3 1.2.3Zm9-2.6c.9.2 1.3.8 1.3 1.6 0 .5-.2 1-.6 1.3-.4.3-1 .4-1.8.4h-2.9v-6.3h2.8a3 3 0 0 1 1.7.4c.4.3.6.7.6 1.2 0 .4-.1.6-.3.9-.2.2-.4.4-.8.5Zm-3.2-.2h2c.4 0 .8-.1 1-.3.3-.2.4-.4.4-.8 0-.3 0-.6-.3-.8a2 2 0 0 0-1.2-.2h-1.9v2.1Zm2 2.8c.6 0 1 0 1.3-.2.2-.2.4-.5.4-.9 0-.3-.1-.6-.4-.8-.2-.2-.6-.3-1.2-.3h-2v2.2h2Zm12.8-3.6c.6 0 1 .3 1.4.7.3.3.4.8.4 1.3a2 2 0 0 1-.8 1.7c-.5.4-1.2.6-2.2.6h-3.7v-8.4h3.4c1 0 1.6.2 2.1.6.6.3.8.9.8 1.5 0 .5-.1 1-.4 1.2-.2.4-.5.6-1 .8Zm-4-.3h2.5c.6 0 1.1-.1 1.5-.4.3-.3.5-.6.5-1.1 0-.5-.2-1-.5-1.2-.4-.3-.9-.4-1.5-.4h-2.6v3.1Zm2.8 3.9c1.4 0 2.1-.5 2.1-1.6 0-1-.7-1.6-2.1-1.6h-2.9v3.2h2.9Zm7.4-7.8c.8 0 1.5.2 2.1.6.7.3 1.2.9 1.5 1.5a4.4 4.4 0 0 1 0 4.4 4.1 4.1 0 0 1-3.6 2 5 5 0 0 1-1.8-.2c-.5-.2-1-.6-1.4-1l.6-.5c.7.6 1.5 1 2.6 1 .6 0 1.1-.2 1.6-.4.5-.3.9-.7 1.2-1.2.3-.5.5-1 .5-1.6h-4.3v-.7h4.3a3.4 3.4 0 0 0-1.7-2.7c-.5-.2-1-.4-1.6-.4-1 0-2 .4-2.6 1l-.6-.5c.4-.4.9-.8 1.4-1a5 5 0 0 1 1.8-.3Zm13.8 7.7V61h-.8V59h-7.4v1.9h-.8v-2.7h.4c.6 0 1-.4 1.2-1.3.2-.8.3-2 .4-3.6v-2.7h5.7v7.6h1.3Zm-6.2-4.8c0 1.3-.2 2.3-.3 3.2-.2.8-.4 1.4-.8 1.6h5.2v-6.8h-4l-.1 2Z" fill="#000"/><path d="M170 44.3c-2.5 0-4.8-.5-6.8-1.6a11.9 11.9 0 0 1-6.5-11c0-2.4.6-4.6 1.8-6.5a12 12 0 0 1 4.6-4.4c2-1.1 4.4-1.6 7-1.6 2.4 0 4.5.5 6.3 1.4 1.8 1 3.2 2.4 4.1 4.3l-4.4 2.5c-.7-1-1.6-2-2.7-2.5a7 7 0 0 0-3.4-.9 7.2 7.2 0 0 0-7.5 7.7c0 2.3.7 4.2 2.1 5.6 1.4 1.4 3.2 2.1 5.4 2.1 1.3 0 2.4-.3 3.4-.8 1.1-.6 2-1.5 2.7-2.6l4.4 2.6a10 10 0 0 1-4.2 4.3 13 13 0 0 1-6.3 1.4ZM0 17l3.5 4 15 2 8.5 9v12.5h6v-19h10.5L45 20H27v3.5L23.5 20 0 17Z" fill="#171717"/><path d="M16.5 25 5 23.5l3.5 4 11.5 1-3.5-3.5ZM22.5 30l-10-1 4 3.5 9.5 1-3.5-3.5ZM49.5 19.5v24H67l1-4.5H55v-5h5l1-4.5h-6V24h11.5l1.5-4.5H49.5ZM101.5 19.5V44h5.5V28l7 11 7-11v16h6V19.5h-6l-7 10-6.5-10h-6ZM134 19v25h17.5l1-5H139v-5h5.5l1-4.5H139v-5h12l1-5.5h-18ZM75 44V19.5L79.5 32H87s1-.5 1.5-1 .8-.8 1-1.5c.3-1 .5-2.1 0-3-.3-.5-.6-.6-1-1-.7-.7-2-1-2-1h-7v-5h10c.5 0 2.7 1.1 4 2.5 1 1.2 2 3.5 2 3.5s.8 3.5 0 5.5c-.5 1.3-1 2-2 3-1.6 1.5-5 2.5-5 2.5h-8V44H75Z" fill="#171717"/><path d="M79.5 20h-4v12h4V20Z" fill="#171717" stroke="#000"/></svg>