<svg width="24" height="24" fill="none" xmlns="http://www.w3.org/2000/svg"><path d="m20.5 11-9-8.6c-.4-.3-.8-.4-1.3-.4L5 2.5c-.7 0-1.3.6-1.4 1.3l-.5 5c0 .4.1.8.5 1.1l3.1 3c-.7 1-1 2-1 3.3 0 3.2 2.7 5.8 6 5.8 3.5 0 6.2-2.6 6.2-5.8v-.6l2.7-2.6c.7-.5.7-1.5 0-2Zm-8.8 10c-2.8 0-5-2.2-5-4.8 0-2.6 2.2-4.7 5-4.7s5 2.1 5 4.7-2.2 4.8-5 4.8Zm8-8.7-2.2 2.1c-.8-2.3-3.1-4-5.8-4-1.7 0-3.2.7-4.3 1.7L4.2 9.2v-.3l.4-5c0-.2.2-.4.4-.4l5.3-.5.4.1 9.1 8.6v.6Z" fill="#161F26"/><path d="M7.8 4.6c-1.1 0-2 .9-2 2 0 1 1 1.8 2 1.8 1.1 0 2-.8 2-1.9 0-1-.9-1.9-2-1.9Zm0 2.8c-.5 0-1-.4-1-.9s.5-.9 1-.9 1 .4 1 1c0 .4-.5.8-1 .8ZM12 15.7h-.7c-.4 0-.6-.2-.6-.6 0-.3.2-.5.6-.5h.8c.2 0 .4 0 .5.3.2.2.5.3.8.2.2-.1.4-.4.2-.7-.3-.5-.8-.8-1.4-.8V13c0-.3-.2-.5-.5-.5s-.5.2-.5.5v.4c-.9.1-1.6.8-1.6 1.6 0 .9.8 1.6 1.7 1.6h.8c.4 0 .6.3.6.6s-.2.6-.6.6h-.8a.6.6 0 0 1-.5-.3c0-.2-.3-.3-.5-.3-.3 0-.5.2-.5.5v.2c.3.5.8.8 1.4.9v.5c0 .3.2.5.5.5s.5-.3.5-.5v-.5c1-.1 1.6-.8 1.6-1.6 0-.9-.8-1.6-1.7-1.6Z" fill="#161F26"/></svg>