<svg width="24" height="24" fill="none" xmlns="http://www.w3.org/2000/svg"><path d="M18.3 22H5.7c-2 0-3.7-1.7-3.7-3.7V5.7C2 3.7 3.7 2 5.7 2H14c.1 0 .3 0 .4.2l7.5 7.6.2.4v8c0 2.1-1.7 3.8-3.7 3.8ZM5.7 3a2.7 2.7 0 0 0-2.6 2.7v12.6c0 1.4 1.2 2.6 2.6 2.6h12.6c1.4 0 2.6-1.2 2.6-2.6v-8l-7.2-7.2h-8Z" fill="#161F26"/><path d="M21.5 10h-4.4A3 3 0 0 1 14 7V2.4c0-.2.1-.4.3-.5l.5.1 7 7c.2.2.2.4.2.6-.1.2-.3.3-.5.3ZM15 3.7v3.2C15 8.1 16 9 17 9h3.3L15 3.7ZM18.5 15h-13c-.3 0-.5-.2-.5-.5s.2-.5.5-.5h13c.3 0 .5.2.5.5s-.2.5-.5.5ZM17.4 18H5.6c-.3 0-.6-.2-.6-.5s.3-.5.6-.5h11.8c.3 0 .6.2.6.5s-.3.5-.6.5Z" fill="#161F26"/></svg>