<svg width="286" height="56" fill="none" xmlns="http://www.w3.org/2000/svg"><path d="M59.3 16.2V26h-1v-8.9h-4.7l-.1 3.3c0 1.3-.2 2.4-.4 3.2a4 4 0 0 1-.7 1.9c-.4.4-.9.6-1.5.6l-.7-.1v-1l.5.1c.4 0 .7-.1 1-.5.3-.3.5-.8.6-1.5l.2-2.7.2-4.2h6.6Zm9.5 6.4h-6.1c0 .8.3 1.4.9 1.9a3 3 0 0 0 2 .7c.4 0 .9 0 1.2-.3.4-.1.8-.4 1-.7l.6.7c-.3.4-.7.7-1.2.9a4 4 0 0 1-1.6.3c-.8 0-1.5-.2-2-.5a3.8 3.8 0 0 1-1.8-3.3c-.1-.7 0-1.3.4-2a3.5 3.5 0 0 1 3-1.7c.8 0 1.4.1 2 .5.5.3.9.7 1.2 1.3.3.5.5 1.2.5 2v.2Zm-3.5-3.2c-.7 0-1.3.3-1.8.7-.5.5-.7 1-.8 1.8h5.2c0-.7-.3-1.3-.8-1.8-.5-.4-1-.7-1.8-.7Zm5.8-.8h1V22h4.6v-3.3h1V26h-1v-3.2H72V26h-1v-7.4Zm9.4 0h1v5.9l5-5.9h.8V26h-1v-5.9L81.4 26h-.9v-7.4Zm9.6 0h1V22h4.7v-3.3h1V26h-1v-3.2H91V26h-1v-7.4Zm14.7 1h-4.2V26h-1v-7.4h5.2v1Zm5.2-1c.7 0 1.3.1 2 .5.5.3 1 .7 1.2 1.3.3.5.5 1.2.5 2a4 4 0 0 1-.5 1.9c-.3.5-.7 1-1.3 1.3-.5.3-1.2.5-1.9.5-.6 0-1.1-.2-1.6-.4s-.9-.6-1.2-1v4h-1v-10h1V20a3 3 0 0 1 1.2-1.1c.5-.3 1-.4 1.6-.4Zm0 6.6c.5 0 1-.1 1.4-.4.4-.2.7-.5 1-1 .2-.4.3-1 .3-1.5s-.1-1-.4-1.5a2.7 2.7 0 0 0-2.4-1.4c-.5 0-1 .2-1.4.4l-1 1a3 3 0 0 0-.3 1.5c0 .6.1 1 .4 1.5.2.5.5.8 1 1 .4.3.8.4 1.4.4Zm8.3-6.6c1 0 1.7.2 2.2.7.6.5.8 1.2.8 2.1V26h-1v-1.1c-.2.3-.5.6-1 .8-.4.3-.9.4-1.5.4a3 3 0 0 1-2-.6c-.4-.4-.7-1-.7-1.6 0-.6.3-1.1.7-1.5.5-.4 1.2-.6 2.2-.6h2.3v-.4c0-.6-.2-1.1-.5-1.4-.4-.4-.9-.6-1.6-.6a3.8 3.8 0 0 0-2.4 1l-.5-.8 1.4-.8 1.6-.2Zm-.3 6.7c.5 0 1-.1 1.4-.4.4-.3.7-.6 1-1.1v-1.2H118c-1.3 0-1.9.4-1.9 1.3 0 .4.2.8.5 1 .3.3.8.4 1.4.4ZM131 25v2.7h-.9V26h-6.6v1.8h-1V25h.5c.5 0 .8-.4 1-1l.4-3v-2.5h5.5v6.5h1.1Zm-5.7-4c0 1.1-.2 2-.3 2.6-.1.7-.4 1.2-.7 1.4h4.6v-5.6h-3.5l-.1 1.7Zm10.8 5a4 4 0 0 1-2-.5c-.6-.3-1-.8-1.3-1.3-.4-.6-.5-1.3-.5-2s.1-1.3.5-2c.3-.5.7-1 1.3-1.2a4 4 0 0 1 2-.5c.6 0 1.2.1 1.7.4.5.2.9.6 1.1 1l-.7.5c-.2-.3-.6-.6-1-.8-.3-.2-.7-.3-1.1-.3-.6 0-1 .2-1.5.4-.4.2-.7.6-1 1l-.3 1.5c0 .6 0 1 .3 1.5a2.6 2.6 0 0 0 2.5 1.4l1.2-.3c.3-.2.7-.4.9-.8l.7.5c-.2.5-.6.9-1.2 1.1-.5.2-1 .4-1.6.4Zm7.4-3.4H142V26h-1v-7.4h1V22h1.7l2.5-3.3h1.1l-2.9 3.6 3.1 3.8h-1.1l-2.8-3.3Zm7.9-4.1c1 0 1.7.2 2.2.7.5.5.8 1.2.8 2.1V26h-1v-1.1c-.2.3-.5.6-1 .8-.4.3-1 .4-1.5.4a3 3 0 0 1-2-.6c-.5-.4-.7-1-.7-1.6 0-.6.2-1.1.7-1.5.4-.4 1.2-.6 2.1-.6h2.4v-.4c0-.6-.2-1.1-.5-1.4-.4-.4-1-.6-1.6-.6a3.8 3.8 0 0 0-2.5 1l-.4-.8 1.3-.8 1.7-.2Zm-.4 6.7c.6 0 1-.1 1.5-.4.4-.3.7-.6.9-1.1v-1.2h-2.3c-1.3 0-2 .4-2 1.3 0 .4.2.8.6 1 .3.3.8.4 1.3.4Zm11.7-6.7V26h-1v-2.4h-2.5l-1.7 2.4h-1.1l1.8-2.6c-.5-.1-1-.4-1.3-.8-.3-.4-.4-.9-.4-1.4 0-.9.2-1.5.8-2 .6-.3 1.3-.6 2.3-.6h3Zm-5.2 2.6c0 1 .7 1.6 2 1.6h2.3v-3.3h-2.2c-1.4 0-2.1.6-2.1 1.7Zm14.7 4.9c-.7 0-1.3-.2-1.9-.5-.6-.3-1-.8-1.3-1.4-.4-.5-.5-1.2-.5-1.9s.1-1.3.5-2c.3-.5.7-1 1.3-1.2.6-.4 1.2-.5 2-.5.6 0 1.3.1 1.8.5.6.3 1 .7 1.4 1.3.3.6.5 1.2.5 2 0 .6-.2 1.3-.5 1.9-.4.5-.8 1-1.4 1.3-.5.3-1.2.5-1.9.5Zm0-1c.5 0 1 0 1.4-.3.4-.2.8-.5 1-1 .2-.4.3-1 .3-1.5s0-1-.3-1.5c-.2-.4-.6-.8-1-1-.4-.2-.9-.4-1.4-.4-.5 0-1 .2-1.4.4-.4.2-.7.6-1 1l-.3 1.5c0 .6 0 1 .3 1.5s.6.8 1 1c.4.3.9.4 1.4.4Zm9.4-6.3c.7 0 1.3.2 1.9.5.5.3 1 .7 1.2 1.3a3.8 3.8 0 0 1 0 3.8c-.3.5-.7 1-1.3 1.2a4 4 0 0 1-2 .5c-1.2 0-2.1-.4-2.8-1.3-.6-.9-1-2-1-3.6 0-1.5.3-2.7 1-3.6.5-.8 1.5-1.4 2.7-1.7l3.3-.8.2 1-3 .7a4 4 0 0 0-2.4 1.2c-.5.6-.8 1.5-.8 2.6.3-.5.7-1 1.2-1.3.5-.3 1.2-.5 1.8-.5Zm-.1 6.5c.5 0 1-.2 1.4-.4.4-.2.7-.6 1-1 .2-.4.3-1 .3-1.5s-.1-1-.4-1.4a2.7 2.7 0 0 0-2.3-1.3c-.5 0-1 .1-1.4.4-.4.2-.7.5-1 1a3 3 0 0 0-.3 1.3c0 .6.1 1 .3 1.5a2.6 2.6 0 0 0 2.4 1.4Zm11.8-6.7V26h-1v-6.5h-3.5l-.1 1.8c-.1 1.6-.3 2.7-.6 3.6-.2.8-.7 1.2-1.5 1.2l-.7-.1V25h.4c.4 0 .7 0 1-.4l.3-1.4.2-2 .1-2.7h5.4Zm5.3 0c1 0 1.7.2 2.3.7.5.5.7 1.2.7 2.1V26h-1v-1.1c-.1.3-.5.6-1 .8-.3.3-.9.4-1.5.4a3 3 0 0 1-2-.6c-.4-.4-.6-1-.6-1.6 0-.6.2-1.1.6-1.5.5-.4 1.2-.6 2.2-.6h2.3v-.4c0-.6-.1-1.1-.5-1.4-.4-.4-.9-.6-1.6-.6a3.8 3.8 0 0 0-2.4 1l-.4-.8 1.3-.8 1.6-.2Zm-.3 6.7c.6 0 1-.1 1.4-.4.4-.3.7-.6 1-1.1v-1.2h-2.4c-1.2 0-1.9.4-1.9 1.3 0 .4.2.8.5 1 .4.3.8.4 1.4.4Zm9 .8a4 4 0 0 1-2-.5c-.5-.3-1-.8-1.2-1.3-.4-.6-.5-1.3-.5-2s.1-1.3.5-2c.3-.5.7-1 1.3-1.2a4 4 0 0 1 2-.5c.6 0 1.2.1 1.6.4.6.2 1 .6 1.2 1l-.7.5c-.2-.3-.6-.6-1-.8-.3-.2-.7-.3-1.1-.3-.6 0-1 .2-1.5.4-.4.2-.7.6-1 1l-.3 1.5c0 .6 0 1 .3 1.5a2.6 2.6 0 0 0 2.5 1.4l1.2-.3c.3-.2.7-.4.9-.8l.7.5c-.3.5-.6.9-1.2 1.1-.5.2-1 .4-1.6.4Zm10-6.6h-2.9V26h-1v-6.5h-2.8v-.9h6.6v1Zm1.3-.9h1V22h4.7v-3.3h1V26h-1v-3.2h-4.7V26h-1v-7.4Zm12 0c1 0 1.7.2 2.2.7.6.5.8 1.2.8 2.1V26h-1v-1.1c-.2.3-.5.6-1 .8-.4.3-.9.4-1.5.4a3 3 0 0 1-2-.6c-.4-.4-.7-1-.7-1.6 0-.6.3-1.1.7-1.5.5-.4 1.2-.6 2.2-.6h2.3v-.4c0-.6-.2-1.1-.5-1.4-.4-.4-.9-.6-1.6-.6a3.9 3.9 0 0 0-2.4 1l-.5-.8 1.4-.8 1.6-.2Zm-.3 6.7c.5 0 1-.1 1.4-.4.4-.3.7-.6 1-1.1v-1.2h-2.4c-1.3 0-1.9.4-1.9 1.3 0 .4.2.8.5 1 .3.3.8.4 1.4.4Zm11.6-6.7V26h-.9v-2.4H238.5l-1.7 2.4h-1l1.8-2.6c-.6-.1-1-.4-1.4-.8-.3-.4-.4-.9-.4-1.4 0-.9.3-1.5.8-2 .6-.3 1.3-.6 2.3-.6h3.1Zm-5.2 2.6c0 1 .7 1.6 2 1.6h2.3v-3.3h-2.2c-1.4 0-2.1.6-2.1 1.7ZM56.6 36.5h-2.8V43h-1v-6.5H50v-.9h6.6v1Zm4.1 6.6c-.7 0-1.3-.2-1.9-.5-.6-.3-1-.8-1.3-1.4-.4-.5-.5-1.2-.5-1.9s.1-1.3.5-2c.3-.5.7-1 1.3-1.2.6-.4 1.2-.5 2-.5.6 0 1.3.1 1.8.5.6.3 1 .7 1.4 1.3.3.6.5 1.2.5 2 0 .6-.2 1.3-.5 1.9a3.9 3.9 0 0 1-3.2 1.8Zm0-1c.6 0 1 0 1.4-.3.4-.2.8-.5 1-1a3.1 3.1 0 0 0 0-3c-.2-.4-.6-.8-1-1-.4-.2-.8-.4-1.4-.4-.5 0-1 .2-1.4.4-.4.2-.7.6-1 1l-.3 1.5c0 .6.1 1 .3 1.5.3.5.6.8 1 1 .4.3.9.4 1.4.4Zm9.7-6.5c.7 0 1.3.1 1.9.5.5.3 1 .7 1.3 1.3.3.5.5 1.2.5 2a4 4 0 0 1-.5 1.9c-.3.5-.8 1-1.3 1.3-.6.3-1.2.5-2 .5-.5 0-1-.2-1.5-.4s-1-.6-1.2-1v4h-1v-10h1V37a3 3 0 0 1 1.1-1.1c.5-.3 1-.4 1.7-.4Zm0 6.6c.4 0 .9-.1 1.3-.4.4-.2.8-.5 1-1 .2-.4.4-1 .4-1.5s-.2-1-.4-1.5c-.2-.4-.6-.7-1-1-.4-.2-.9-.4-1.4-.4-.5 0-1 .2-1.4.4l-1 1a3 3 0 0 0-.3 1.5c0 .6 0 1 .3 1.5s.6.8 1 1c.4.3.9.4 1.4.4Zm11-5.7h-4.2V43h-1v-7.4h5.2v1Zm4.1 6.6c-.7 0-1.3-.2-1.9-.5-.6-.3-1-.8-1.3-1.4-.4-.5-.5-1.2-.5-1.9s.1-1.3.5-2c.3-.5.7-1 1.3-1.2.6-.4 1.2-.5 2-.5.6 0 1.3.1 1.8.5.6.3 1 .7 1.4 1.3.3.6.5 1.2.5 2 0 .6-.2 1.3-.5 1.9a3.9 3.9 0 0 1-3.2 1.8Zm0-1c.6 0 1 0 1.4-.3.4-.2.8-.5 1-1a3.1 3.1 0 0 0 0-3c-.2-.4-.6-.8-1-1-.4-.2-.8-.4-1.4-.4-.5 0-1 .2-1.4.4-.4.2-.7.6-1 1l-.3 1.5c0 .6.1 1 .3 1.5.3.5.6.8 1 1 .4.3 1 .4 1.4.4Zm10.6-3c1 .3 1.5 1 1.5 1.9 0 .6-.3 1.1-.7 1.5-.5.3-1.2.5-2.2.5h-3.3v-7.4h3.2c.9 0 1.5.2 2 .5.5.4.7.8.7 1.4 0 .4 0 .8-.3 1a2 2 0 0 1-1 .7Zm-3.7-.2h2.2c.5 0 1-.1 1.3-.3.3-.2.4-.5.4-1a1 1 0 0 0-.4-.9c-.3-.2-.8-.3-1.3-.3h-2.2V39Zm2.3 3.3c.6 0 1.1 0 1.4-.3.3-.2.5-.5.5-1 0-.4-.1-.7-.4-1l-1.4-.2h-2.4v2.5h2.3Zm8.2.9c-.7 0-1.3-.2-1.9-.5-.5-.3-1-.8-1.3-1.4-.3-.5-.5-1.2-.5-1.9s.2-1.3.5-2c.3-.5.8-1 1.3-1.2.6-.4 1.2-.5 2-.5.7 0 1.3.1 1.9.5.5.3 1 .7 1.3 1.3.3.6.5 1.2.5 2 0 .6-.2 1.3-.5 1.9-.3.5-.8 1-1.3 1.3-.6.3-1.2.5-2 .5Zm0-1c.6 0 1 0 1.4-.3.5-.2.8-.5 1-1 .3-.4.4-1 .4-1.5s-.1-1-.4-1.5c-.2-.4-.5-.8-1-1-.4-.2-.8-.4-1.4-.4-.5 0-1 .2-1.4.4-.4.2-.7.6-1 1l-.3 1.5c0 .6.1 1 .4 1.5.2.5.5.8 1 1 .4.3.8.4 1.3.4Zm5.5-3.3h3.6v.8h-3.6v-.8Zm12.5-3.2V43h-1v-6.5h-4.6V43h-1v-7.4h6.6Zm6.6 0c.7 0 1.3.1 1.9.5.6.3 1 .7 1.3 1.3.3.5.5 1.2.5 2a4 4 0 0 1-.5 1.9c-.3.5-.7 1-1.3 1.3-.6.3-1.2.5-1.9.5-.6 0-1.1-.2-1.6-.4s-.9-.6-1.2-1v4h-1v-10h1V37a3 3 0 0 1 1.2-1.1c.4-.3 1-.4 1.6-.4Zm0 6.6c.5 0 1-.1 1.3-.4.5-.2.8-.5 1-1 .3-.4.4-1 .4-1.5s-.1-1-.4-1.5a2.7 2.7 0 0 0-2.4-1.4c-.5 0-1 .2-1.4.4l-1 1a3 3 0 0 0-.3 1.5c0 .6.1 1 .4 1.5.2.5.5.8 1 1 .4.3.8.4 1.3.4Zm8.9.9c-.7 0-1.4-.2-2-.5-.5-.3-1-.8-1.3-1.4-.3-.5-.5-1.2-.5-1.9s.2-1.3.5-2c.3-.5.8-1 1.3-1.2.6-.4 1.3-.5 2-.5s1.3.1 1.9.5c.5.3 1 .7 1.3 1.3.3.6.5 1.2.5 2 0 .6-.2 1.3-.5 1.9-.3.5-.8 1-1.3 1.3-.6.3-1.2.5-2 .5Zm0-1c.5 0 1 0 1.4-.3.4-.2.7-.5 1-1 .2-.4.3-1 .3-1.5s-.1-1-.4-1.5c-.2-.4-.5-.8-1-1-.3-.2-.8-.4-1.3-.4-.6 0-1 .2-1.5.4-.4.2-.7.6-1 1l-.3 1.5c0 .6.1 1 .4 1.5.2.5.5.8 1 1 .4.3.8.4 1.4.4Zm14-6.5V43h-.9v-5.8l-3 4.9h-.4l-3-5V43h-.9v-7.4h1l3.2 5.3 3.1-5.3h1Zm6 2.6c.9 0 1.6.3 2 .7.6.4.8 1 .8 1.7 0 .8-.2 1.4-.8 1.8-.5.4-1.2.6-2.2.6h-3v-7.4h1v2.6h2.2Zm4-2.6h1V43h-1v-7.4Zm-4.3 6.7c.7 0 1.2-.2 1.6-.4.3-.3.5-.8.5-1.3s-.2-1-.5-1.2c-.4-.3-.9-.4-1.6-.4h-1.8v3.2h1.8Zm18.3-6.7V43h-10.1v-7.4h1v6.5h3.6v-6.5h1v6.5h3.5v-6.5h1Zm8.9 0V43h-1v-6.5h-3.5l-.1 1.8c-.1 1.6-.3 2.7-.6 3.6-.2.8-.7 1.2-1.5 1.2l-.7-.1.1-.9h.4c.3 0 .6 0 .8-.4l.4-1.4.2-2 .1-2.7h5.4Zm9.3 4h-6.2c0 .8.4 1.4.9 1.9a3 3 0 0 0 2 .7c.5 0 .9 0 1.3-.3l1-.7.5.7c-.3.4-.7.7-1.2.9a4 4 0 0 1-1.6.3c-.8 0-1.5-.2-2-.5a3.8 3.8 0 0 1-1.8-3.3c0-.7 0-1.3.4-2a3.5 3.5 0 0 1 3.1-1.7c.7 0 1.3.1 1.8.5.6.3 1 .7 1.3 1.3.3.5.5 1.2.5 2v.2Zm-3.6-3.2c-.7 0-1.3.3-1.8.7-.5.5-.7 1-.8 1.8h5.2c0-.7-.3-1.3-.8-1.8-.5-.4-1-.7-1.8-.7Zm5.8-.8h1V39h4.6v-3.3h1V43h-1v-3.2h-4.6V43h-1v-7.4Zm9.4 0h1V39h4.7v-3.3h1V43h-1v-3.2h-4.7V43h-1v-7.4Zm12 0c1 0 1.7.2 2.2.7.5.5.8 1.2.8 2.1V43h-1v-1.1c-.2.3-.5.6-1 .8-.4.3-.9.4-1.5.4a3 3 0 0 1-2-.6c-.4-.4-.7-1-.7-1.6 0-.6.2-1.1.7-1.5.4-.4 1.2-.6 2.2-.6h2.3v-.4c0-.6-.2-1.1-.5-1.4-.4-.4-1-.6-1.6-.6a3.8 3.8 0 0 0-2.4 1l-.5-.8c.4-.3.8-.6 1.4-.8l1.6-.2Zm-.3 6.7c.5 0 1-.1 1.4-.4.4-.3.7-.6.9-1.1v-1.2h-2.3c-1.3 0-2 .4-2 1.3 0 .4.3.8.6 1 .3.3.8.4 1.4.4Zm11.6-6.7V43h-1v-2.4H224l-1.7 2.4h-1.1l1.8-2.6c-.5-.1-1-.4-1.3-.8-.3-.4-.4-.9-.4-1.4 0-.9.2-1.5.8-2 .6-.3 1.3-.6 2.3-.6h3Zm-5.2 2.6c0 1 .7 1.6 2 1.6h2.3v-3.3h-2.2c-1.4 0-2.1.6-2.1 1.7Zm18.3-2.6V43h-1v-6.5H235V43h-1v-7.4h6.6Zm5.4 0c1 0 1.7.2 2.2.7.5.5.7 1.2.7 2.1V43h-1v-1.1c-.1.3-.5.6-1 .8-.3.3-.9.4-1.4.4a3 3 0 0 1-2-.6c-.5-.4-.7-1-.7-1.6 0-.6.2-1.1.6-1.5.5-.4 1.2-.6 2.2-.6h2.3v-.4c0-.6-.1-1.1-.5-1.4-.3-.4-.9-.6-1.5-.6a3.8 3.8 0 0 0-2.5 1l-.4-.8 1.3-.8 1.7-.2Zm-.4 6.7c.6 0 1-.1 1.4-.4.4-.3.7-.6 1-1.1v-1.2h-2.4c-1.2 0-1.9.4-1.9 1.3 0 .4.2.8.5 1 .4.3.8.4 1.4.4Zm12-6.7V43h-1v-6.5h-3.5l-.1 1.8c0 1.6-.3 2.7-.5 3.6-.3.8-.8 1.2-1.5 1.2l-.8-.1.1-.9h.4c.3 0 .6 0 .8-.4.2-.4.4-.8.4-1.4l.2-2 .1-2.7h5.4Zm5.4 0c1 0 1.7.2 2.2.7.5.5.7 1.2.7 2.1V43h-1v-1.1c-.1.3-.5.6-.9.8-.4.3-1 .4-1.5.4a3 3 0 0 1-2-.6c-.5-.4-.7-1-.7-1.6 0-.6.2-1.1.6-1.5.5-.4 1.2-.6 2.2-.6h2.4v-.4c0-.6-.2-1.1-.6-1.4-.3-.4-.9-.6-1.5-.6a3.8 3.8 0 0 0-2.5 1l-.4-.8 1.3-.8 1.7-.2Zm-.4 6.7c.6 0 1-.1 1.5-.4.4-.3.7-.6.9-1.1v-1.2h-2.4c-1.2 0-1.8.4-1.8 1.3 0 .4.1.8.4 1 .4.3.8.4 1.4.4Zm11.2-5.8H271V43h-1v-6.5h-2.8v-.9h6.6v1Zm4-1c.9 0 1.6.3 2.2.8.5.5.7 1.2.7 2.1V43h-1v-1.1c-.2.3-.5.6-1 .8-.3.3-.9.4-1.5.4a3 3 0 0 1-2-.6c-.4-.4-.6-1-.6-1.6 0-.6.2-1.1.6-1.5.5-.4 1.2-.6 2.2-.6h2.3v-.4c0-.6-.1-1.1-.5-1.4-.4-.4-.9-.6-1.6-.6a3.8 3.8 0 0 0-2.4 1l-.5-.8 1.4-.8 1.6-.2Zm-.4 6.8c.6 0 1-.1 1.4-.4.4-.3.7-.6 1-1.1v-1.2h-2.4c-1.2 0-1.9.4-1.9 1.3 0 .4.2.8.5 1 .3.3.8.4 1.4.4Z" fill="#000"/><path d="M8 9.3H5.4c-1 0-2.1-.7-2.1-1.8h6.3c-.4.3-1 1.4-1.4 1.8ZM16.6 32c.4.4.7.7 1.4 1v2.2c-6.7 6 8.4 8.6 7.7 14.6 0 1.8-2 3.6-3.8 4.3a4 4 0 0 0 2-3.6c.4-3.2-7-6.4-6.6-6.4-5.3-3.5-5.6-7.8-.7-12.1Zm1.8 1c.7.8 1.7 1.5 2.4 2.2v7.9l-2.4-1.8v-8.2ZM37.3 4l-7 1c-1.5.5-2.2 2.6-.8 3.7 1.8 1.7 1.4 3.5 0 5 0 .3-2.5-2.9-3.2-3.3 0 0 .4-.3 0-.7-1.4-2.1-.7-3.9.7-5C28.8 3 33.7 1.4 36.2.7c1-.3 1.7-.7 2.4-.7.7 1.8.4 3.2-1.4 4ZM10.1 7.1c0-1-.7-1.7-1.4-2.1C6.3 4.6-1.8 4.6.3 0l5 1.4c1.7.7 3.5 1.1 5.2 1.8 2.1.7 2.8 2.5 2.8 4.3 0 1.4-1 2.1-.7 2.8L9.5 14v-.3c-3.2-3.3.7-5 .7-6.5Zm24.6 0h-5.3v-.7c.4-.3 1-.3 2.5-.7 1.7-.3 4.2-.7 5.2-1-.3 1.4-1 2-2.4 2.4Zm-5.6 12.2c3.5 2.5 2.4 6.4 0 8.9-1.8 1-4.3 2.5-6.4 3.5-.7-.3-1-.7-1.4-1v-2.2c1-.3 2.1-1 3.2-1.7 6-4-.4-6.1 0-3.3-5-1 0-7.8 4.6-4.2Zm-11.6-2.9h3.8l-.3 14c-1-.8-2.1-1.2-3.2-1.9 0-4.2 0-8.2-.3-12Zm-7.4 11.8c-6.7-6 2-12.9 5.6-8.6 1.8 1.8-.3 3.6-1 3.6.3-2.9-6.7-.7-.4 3.6 2.8 1.4 5.6 3.2 8 5.3 1.5 1 2.9 2.5 3.2 4.3.7 3.5-1.4 5.7-3.8 7.5-.4-.4-.7-.4-.7-.4V41c6.3-6-7.8-10-11-12.8Zm10.5 18.5c-.3 2.9-.3 5.4-.3 8.2 0 .7-.4 1.1-1 1.1-.4 0-.8-.4-.8-.7 0-3.2-.3-6.4-.3-9.3-1.4 1-3.2 2.5-3.2 4.3a5.1 5.1 0 0 0 2.1 3.6c-1.4-.8-3.9-1.8-3.9-4.3 0-1.8 1.1-3.6 3.6-5.4l3.8 2.5Zm10.6-31.4c0 .4 0 .8-.4.8H8.1c-.7-.4-.7-.8-.7-.8 3.1 0 6.3-8.2 12-8.5 4.1 0 7 3.9 9.4 6.8.7 1 1.4 1.7 2.5 1.7Zm4.5-7.8c0 1-1.4 1.8-2 1.8h-2.9c-.3-.7-1-1.1-1.4-1.8h6.3Zm-1.7 2.1c-.4 2.2-1.4 2.5-3.2 2.9a4 4 0 0 0 0-2.9h3.2ZM8 12.5c-1.4 0-2.8-1-3.2-2.5 0-.4 2.8-.4 3.2-.4a4 4 0 0 0 0 2.9ZM9.5 7H4.2c-1.4-.3-2.1-1-2.1-2.5l3.2.8c1.7.3 3.8.3 4.2.7v1Z" fill="#020C15"/></svg>