<svg width="784" height="525" fill="none" xmlns="http://www.w3.org/2000/svg"><path d="M-33.1 565.2A236.5 236.5 0 0 0 3 595.7c118.1 84.8 257.9 60 287.6 54 43.9-8.9 128.7-26.1 190-98.2 92.7-109 78.3-281 6.3-394.4C474 136.4 404.4 21.2 263 2.8 177.7-8.4 78 14 5.8 74.6-145.8 201.6-135 458-33 565.2Z" fill="#004080" opacity=".1"/><g opacity=".3" fill="#004080"><path d="M510.8 407.3c2.9-9.3 4.3-10.2 2.6-10.9-1.2-.5-1.8.8-1.7.7a132 132 0 0 0-3.3 9.4c-.2.7.2 1.4.8 1.6.6.2 1.4-.1 1.6-.8Zm14.7-33.8c-.6-.4-1.4-.2-1.8.4-1.8 2.8-3.5 5.7-5 8.6-.9 1.5 1.3 2.7 2.1 1.2 1.6-2.9 3.3-5.7 5-8.4.4-.6.3-1.4-.3-1.8Zm-19.8 58.8c1-9.6 2.2-10.8.3-11.1-.7-.1-1.3.4-1.4 1-.6 3.3-1.1 6.6-1.4 10-.2 1.6 2.3 1.8 2.5.1Zm36.2-78.7c-.5-.5-1.3-.5-1.8 0-2.3 2.3-4.6 4.8-6.7 7.3-1.1 1.3.8 3 1.9 1.7 2-2.5 4.3-5 6.5-7.2.5-.5.6-1.3 0-1.8Zm20-15c.2-.4.2-.8 0-1.2-.4-.6-1.2-.8-1.8-.4l-8 5.8c-.6.5-.7 1.3-.2 1.8.4.6 1.2.7 1.7.3a127.9 127.9 0 0 1 8.4-6.3Zm22.7-12v-1c-.2-.6-1-1-1.6-.7-3 1.2-6 2.6-9 4-.6.4-.9 1.2-.6 1.8.3.6 1 .9 1.7.6a124 124 0 0 1 8.8-4c.3-.1.6-.4.7-.7Zm24.6-7.9c-.1-.7-.8-1.1-1.5-1-3.2.6-6.4 1.3-9.5 2.2-1.7.4-1 2.9.6 2.4 3-.8 6.2-1.5 9.3-2 .7-.2 1.2-.9 1-1.6Zm25.3-1.6c0-.8-.5-1.3-1.2-1.4-3.2 0-6.5 0-9.8.2-1.6 0-1.5 2.6.1 2.5 3.2-.1 6.4-.2 9.6-.1.7 0 1.3-.5 1.3-1.2Zm24.2 2c-3.1-.7-6.4-1.4-9.6-1.9-1.6-.3-2 2.3-.4 2.5 3.1.5 6.3 1.2 9.4 2 1.6.3 2.2-2.2.6-2.6Zm24 8.6c-2.9-1.4-6-2.7-8.9-3.8-1.6-.7-2.4 1.8-1 2.4 3 1 6 2.4 8.8 3.7.7.3 1.4 0 1.7-.6.3-.6 0-1.4-.5-1.7Zm21.8 13.4a122 122 0 0 0-8-5.6c-.5-.4-1.3-.2-1.7.4-1 1.6.6 1.4 8.2 7.2.5.5 1.3.4 1.8-.2.4-.6.3-1.4-.3-1.8ZM482.2 429.5c-.3-4.3.2-6.4-1.5-6.3-.7 0-1.3.6-1.2 1.3 0 4.5-.1 6.5 1.5 6.4.5 0 1.3-.7 1.2-1.4ZM525.9 517.4c.2-.5 0-1.1-.3-1.5a125 125 0 0 1-3.8-3.3c-.5-.4-1.3-.4-1.8.1-.5.6-.4 1.4 0 1.8l4 3.4c.5.4 1.3.4 1.7-.2l.2-.3ZM548.6 532.4c.3-.6 0-1.3-.6-1.6-3-1.5-6-3.3-9-5-.5-.4-1.3-.2-1.7.4-.3.6-.2 1.4.4 1.7 3 1.9 6 3.6 9.2 5.2.6.3 1.3 0 1.7-.6Zm25.5 9.5c.5-2-1-1.1-10.7-4.5-1.6-.5-2.5 1.9-.9 2.4 3.3 1.2 6.7 2.2 10 3 .7.2 1.4-.2 1.6-.9Zm27 3.4c.1-2-1.3-.9-11.4-2-1.7-.1-2 2.4-.3 2.6 3.4.4 7 .6 10.5.7.7 0 1.2-.6 1.3-1.3Zm27.2-2 .1-.7c-.1-.7-.8-1.2-1.5-1a123 123 0 0 1-10.2 1.6c-.7.1-1.2.7-1.1 1.4 0 .8.7 1.3 1.4 1.2 3.4-.4 7-1 10.4-1.7.4 0 .8-.4 1-.8Zm26.2-8.4v-1c-.3-.6-1-1-1.7-.7-3.1 1.5-6.4 2.8-9.6 3.9-.7.2-1 1-.8 1.6.2.7.9 1 1.6.8 3.3-1.1 6.6-2.5 9.8-3.9.3-.1.5-.4.7-.7Zm23.8-14c.1-.4.1-.8-.2-1.2-.4-.6-1.2-.7-1.7-.3l-8.6 5.9c-.7.4-.8 1.2-.5 1.8.4.6 1.1.8 1.7.4a128 128 0 0 0 9.3-6.6Zm20.3-18.9c.2-.5 0-1-.4-1.4-.5-.5-1.3-.4-1.7.1-2.3 2.7-4.7 5.2-7.2 7.7-.5.5-.5 1.3 0 1.8.4.5 1.2.5 1.7 0a130 130 0 0 0 7.6-8.2Zm30-65.8c.6-3.5 1-7.1 1.2-10.7 0-.7-.5-1.3-1.2-1.3-2-.1-1 1.3-2.4 11.6-.1.8.3 1.4 1 1.5.7 0 1.4-.4 1.5-1.1Zm-14.8 41.3c-1.7-1-1.4.9-7.1 9.6-.4.6-.2 1.4.3 1.8.6.3 1.4.2 1.8-.4 2-3 3.8-6.1 5.5-9.2.3-.7 0-1.5-.5-1.8Zm7.7-14.1c1.3-3.3 2.5-6.8 3.5-10.2.1-.7-.2-1.4-.9-1.6-1.9-.5-1.2 1.2-5 11-.2.6.2 1.3.8 1.6 1.1.4 1.8-1 1.6-.8ZM729.7 408c-.3-4.4-.2-6.4-1.8-6.2-1.7.2-1 2-.7 6.5 0 .7.7 1.2 1.4 1.2.7-.1 1.2-.7 1.1-1.4ZM590.4 407.8c6-7.5 17-9 24.5-2.8 7.4 6 8.5 17.2 2.4 24.8-6 7.7-17 9-24.5 2.9-7.4-6.1-8.5-17.3-2.4-24.9Zm28.4 23.2Zm-1.5-29a21 21 0 0 0-29.8 3.4c-7.4 9.3-6.1 22.9 3 30.3a21 21 0 0 0 29.7-3.5c7.5-9.3 6.1-22.9-2.9-30.3Z"/><path d="M653.5 439.6c1.2-3 2.2-6 2.9-9.1a1.9 1.9 0 0 0-1.5-2.3 2 2 0 0 0-2.2 1.5 51 51 0 0 1-70.8 36.1 51 51 0 0 1-24.2-68 51 51 0 0 1 67.2-25.7c15 7 19.7 17.5 21.3 18.2 1.7.7 3.3-1.3 2.3-3a53.3 53.3 0 0 0-24-19.6c-43.5-18-88.2 26-72.2 70.8a53.3 53.3 0 0 0 69.5 32 55.6 55.6 0 0 0 31.7-31ZM439.4 449.4a6.6 6.6 0 0 1 .3 9.3 6.6 6.6 0 0 1-11.4-4.4c-.1-5.8 6.9-9 11.1-5Zm1.3 10.2Zm.6-12.3a9.4 9.4 0 1 0-12.9 13.6 9.4 9.4 0 0 0 13-13.6ZM479 432.4l-1.9-3.3a1 1 0 0 0-1.3-.3c-1 .6 0 1.6 1.4 4.5a1 1 0 0 0 1.7-.9ZM399 422a1 1 0 0 0-1.3.2c-1.7 2-3.2 4-4.6 6.2-.6 1 1 2 1.6 1 1.3-2.1 2.8-4.1 4.4-6 .3-.4.2-1-.1-1.3Zm15.8-10.8a1 1 0 0 0-1.3-1.2 48.5 48.5 0 0 0-6.6 3.8 1 1 0 1 0 1 1.6c2-1.4 4.2-2.7 6.4-3.8.2 0 .4-.2.5-.4Zm19-4.8v-.4c0-.5-.4-1-.9-.9-2.5.1-5.1.4-7.6 1a1 1 0 1 0 .4 1.7c2.4-.4 4.8-.7 7.3-.8.4 0 .7-.3.8-.6Zm19.4 3.2c.2-.5 0-1-.5-1.2-2.4-1-4.9-1.7-7.4-2.2-1.2-.3-1.6 1.5-.4 1.8a47 47 0 0 1 7 2.1c1 .4 1.4-.6 1.3-.5Zm16.2 9.7a49.6 49.6 0 0 0-5.8-5c-1-.7-2 .8-1.1 1.5 5.5 4 5.8 6 7 4.8.3-.4.3-1 0-1.3ZM388.8 443.8c.8-3.3 1.5-4.3.3-4.7a1 1 0 0 0-1.1.6l-1 3.7c-.1.5.2 1 .7 1.1.5.1 1-.2 1.1-.7ZM396.5 481.6c-2-2.8-2.3-4-3.3-3.4a1 1 0 0 0-.3 1.3l2 3.2a1 1 0 0 0 1.6-1.1ZM410.3 494.5c-5.8-3.5-6.2-5.3-7.2-4.1a1 1 0 0 0 .1 1.3c2 1.6 4 3 6.2 4.4a1 1 0 0 0 1-1.6Zm18.6 7.4c.3-1.5-1.4-.6-7.8-2.6-1.2-.4-1.8 1.4-.6 1.8 2.4.7 4.9 1.3 7.4 1.6.5.1 1-.3 1-.8Zm19.3-1.5c-.4-1.5-1.6 0-8.3.7-1.2.1-1 2 .2 1.8 2.5-.2 5-.7 7.4-1.3.5-.2.8-.7.7-1.2Zm17.1-9a1 1 0 0 0-1.3 0c-5.3 4.1-7.1 3.9-6.4 5.2.3.5.8.6 1.3.4 2.2-1.3 4.3-2.7 6.2-4.2.5-.3.5-1 .2-1.3Zm12.2-14.9c-1.3-.7-1.1 1.1-5.2 6.5-.8 1 .7 2 1.5 1.1 1.5-2 2.9-4.1 4.1-6.3.2-.5 0-1-.4-1.3ZM482.4 466.4l.8-3.7c.1-.5-.2-1-.7-1.1-1.3-.2-1 1.2-1.9 4.3-.1.5.2 1 .7 1.1.5.2 1-.1 1.1-.6Z"/><path d="M456.7 461a1.4 1.4 0 1 0-2.6-.9c-.4 1.4-1 2.7-1.7 4-.2.2-3.5 7.1-12.2 9.6a20.3 20.3 0 1 1 2.2-38.3c9.4 4 9.2 10.7 11.8 9.2.7-.4.9-1.2.5-1.9a23 23 0 1 0 2 18.3ZM697.1 332.8c.2-.5.1-1-.2-1.4l-3.5-3.7c-.5-.5-1.3-.4-1.8 0-1.2 1.3.3 2.1 3.4 5.5.5.5 1.3.5 1.8 0 .2-.1.3-.3.3-.4Z"/></g></svg>