<svg width="570" height="264" viewBox="0 0 570 264" fill="none" xmlns="http://www.w3.org/2000/svg">
<g clip-path="url(#clip0_4147_9489)">
<mask id="mask0_4147_9489" style="mask-type:alpha" maskUnits="userSpaceOnUse" x="0" y="-54" width="591" height="320">
<path d="M591 -54H0V266H591V-54Z" fill="white"/>
</mask>
<g mask="url(#mask0_4147_9489)">
<path fill-rule="evenodd" clip-rule="evenodd" d="M-239.256 106.413C-86.6673 74.259 250.296 3.89232 370.94 48.4109C523.731 119.368 293.818 193.294 363.118 317.57C433.668 444.091 646.562 542.457 575.211 647.533C508.031 746.465 385.554 808.835 238.942 832.854C94.5704 856.506 -62.512 834.058 -211.555 776.426C-375.04 713.21 -557.782 632.436 -617.343 501.747C-675.736 373.619 -552.749 274.849 -489.65 166.224C-427.113 58.5657 -389.647 138.104 -239.256 106.413Z" fill="#1566A5"/>
</g>
<path d="M481.055 110.542C481.284 111.334 481.414 111.595 481.707 112.127C483.588 115.556 487.957 120.446 487.957 120.446L491.34 112.832C491.34 112.832 490.787 110.439 489.832 107.022C486.569 107.874 483.458 108.368 481.055 110.542Z" fill="#F8A492"/>
<path d="M500.428 103.939C500.428 103.939 481.578 112.057 480.968 111.902C480.577 111.8 473.237 99.5168 473.156 87.9634C473.121 82.6288 478.664 76.209 484.844 77.481C487.959 78.1188 487.909 78.9855 492.514 85.6766C497.12 92.3677 500.428 103.939 500.428 103.939" fill="#1566A5"/>
<path d="M516.519 249.469L516.072 256.886C515.906 257.827 515.258 260.149 515.258 261.005C515.258 264.215 530.5 258.278 527.086 256.854C526.776 256.727 525.155 255.755 525.053 254.663C524.898 252.978 524.5 249.571 524.5 249.571L516.519 249.469" fill="#F7A491"/>
<path d="M527.044 256.826C527.044 256.826 523.464 257.806 521.632 258.052C519.8 258.299 517.382 256.231 516.086 256.791C514.659 257.404 514.715 262.936 514.715 262.936C514.715 262.936 533.904 264.511 539.302 262.883C541.441 262.235 534.359 259.113 527.044 256.826Z" fill="#1566A5"/>
<path d="M485.34 249.469L484.889 256.886C484.726 257.827 484.078 260.149 484.078 261.005C484.078 264.215 499.321 258.278 495.903 256.854C495.596 256.727 493.496 255.026 493.394 253.933C493.236 252.253 493.32 249.571 493.32 249.571L485.34 249.469Z" fill="#F7A491"/>
<path d="M495.867 256.826C495.867 256.826 492.287 257.805 490.455 258.052C488.623 258.299 486.206 256.23 484.909 256.791C483.482 257.404 483.426 262.936 483.426 262.936C483.426 262.936 502.703 264.771 508.125 262.883C510.229 262.146 503.182 259.113 495.867 256.826Z" fill="#1566A5"/>
<path d="M489.996 114.647L503.421 95.8384C503.477 95.6763 503.6 95.3381 503.787 94.8236C504.464 92.9562 505.869 89.0733 507.096 85.2116L507.106 85.1693C507.494 83.8198 508.308 81.4661 509.097 79.1864C509.974 76.6531 511.063 73.5101 511.102 72.9746C511.07 72.8829 511.007 72.7173 510.922 72.4989C510.429 71.2234 509.763 68.1791 509.527 66.8578C509.379 66.0157 509.227 63.965 510.231 63.965C511.803 63.965 511.056 66.0122 511.782 67.2877C512.046 66.435 512.585 64.7402 512.871 63.0278L513.135 59.0286C513.184 58.7291 512.863 56.5234 513.97 56.5234H514.023C515.013 56.5974 514.992 58.9405 515.404 62.908C515.534 62.4499 515.665 61.9003 515.763 61.3964C515.753 61.1251 515.95 59.9306 516.098 59.3035C515.901 58.1971 516.017 56.453 517.194 56.6186C517.782 56.6996 517.733 59.1343 517.733 59.1343C517.729 59.4655 517.694 62.0377 517.712 62.5486C517.832 61.6853 518.304 58.0033 519.227 58.0033C519.991 58.0033 520.055 58.9934 520.037 59.7791C520.03 60.2407 519.547 64.2293 519.523 64.6944C519.882 64.0883 520.309 60.5754 520.668 60.5754C522.158 60.5754 521.619 65.5717 521.07 66.8719C521.02 67.0058 520.964 67.2665 520.901 67.5695C520.714 68.461 520.404 69.9514 519.621 71.2868C518.684 72.89 517.391 75.441 517.194 75.8321C517.049 76.6284 516.598 79.493 516.035 83.0975C515.791 84.6373 515.527 86.3285 515.252 88.0797L515.238 88.0762C515.185 88.4567 514.907 89.6617 513.843 94.1824C512.391 100.37 512.24 100.637 512.176 100.75C511.546 101.867 497.071 121.521 496.455 122.36L496.092 122.853L489.996 114.647" fill="#F7A491"/>
<path d="M514.964 70.7864C514.964 70.7864 513.875 67.9993 511.938 67.9923C511.938 67.9923 513.019 67.6012 513.949 68.3376C514.88 69.074 514.964 70.7864 514.964 70.7864Z" fill="#E38B76"/>
<path d="M486.753 65.4026L485.023 76.3289C485.023 76.3289 491.609 81.6177 495.446 80.5007C498.666 79.567 496.461 75.3564 496.461 75.3564C496.461 75.3564 494.745 69.5215 495.27 66.4632C495.795 63.4048 486.753 65.4026 486.753 65.4026" fill="#F7A491"/>
<path d="M487.993 68.704C489.642 69.4862 492.905 70.5468 495.445 70.8075C495.202 69.2748 495.065 67.6575 495.269 66.463C495.512 65.0536 493.715 64.7189 491.714 64.7683C489.089 64.9902 486.753 65.4025 486.753 65.4025L486.418 67.5025C486.918 68.0275 487.443 68.4468 487.993 68.704" fill="#E38B76"/>
<path d="M478.443 52.7955C478.172 52.7955 481.047 65.0044 485.497 67.1044C489.944 69.2043 496.579 68.1121 497.823 64.8211C499.2 61.1849 494.179 48.7294 487.922 47.1474C481.664 45.5653 478.443 52.7955 478.443 52.7955Z" fill="#F7A491"/>
<path d="M483.591 41.5767C480.039 43.6274 478.408 46.6682 477.858 47.9119C476.191 48.7047 474.172 50.4136 473.203 55.0294C472.013 60.6986 476.248 65.0713 480.737 66.3856C485.226 67.6998 485.92 70.6701 485.92 70.6701L486.431 67.4743C486.431 67.4743 485.43 64.6908 483.929 63.2955C482.428 61.9037 484.641 59.8742 484.834 58.2181C484.986 56.9426 484.045 54.4656 484.25 52.3727C484.25 52.3727 486.744 48.592 489.204 47.6583C493.397 46.0657 488.15 38.9482 483.591 41.5767Z" fill="#161F26"/>
<path d="M485.482 60.3428C486.064 61.7522 485.824 63.1545 484.95 63.4716C484.076 63.7852 482.896 62.9008 482.315 61.4914C481.733 60.0821 481.969 58.6797 482.847 58.3626C483.72 58.0455 484.901 58.9334 485.482 60.3428Z" fill="#F7A491"/>
<path d="M502.055 114.946L527.949 110.725C527.949 110.725 525.003 103.308 523.95 103.308C522.896 103.308 504.37 111.398 504.37 111.398L502.897 114.354L502.055 114.946Z" fill="#F8A492"/>
<path d="M488.79 132.701C488.79 132.701 486.207 145.188 487.257 154.659C488.311 164.127 488.395 197.762 488.395 197.762L484.375 251.58L493.906 251.787C493.906 251.787 505.209 197.995 504.998 199.376C504.79 200.757 508.789 161.502 508.789 161.502L495.315 131.517L488.79 132.701" fill="#161F26"/>
<path d="M491.318 132.109C491.318 132.109 489.634 143.352 491.737 148.285C493.844 153.218 509.795 201.606 510.006 205.549C510.218 209.495 515.521 253.102 515.521 253.102L526.602 252.792L529.001 204.309L523.981 143.374L519.108 127.965L491.318 132.109" fill="#161F26"/>
<path d="M485.023 76.3288C485.023 76.3288 487.758 78.1223 490.305 77.9144C492.856 77.71 496.461 75.3564 496.461 75.3564L495.957 73.658C495.957 73.658 489.364 72.6961 489.199 72.8018C489.033 72.904 485.023 76.3288 485.023 76.3288" fill="#F7A491"/>
<path d="M514.152 102.942C514.152 102.942 523.948 112.187 528.37 110.609C532.792 109.03 534.62 103.636 523.831 95.7432C514.177 88.6787 514.152 102.942 514.152 102.942" fill="#F8A492"/>
<path d="M520.791 114.354C519.336 106.44 508.79 81.8078 507.948 77.2696C507.539 75.0639 501.849 75.0145 496.433 75.3035C490.711 75.6065 485.024 76.3288 485.024 76.3288C485.024 76.3288 479.958 77.1639 477.731 79.2498C475.5 81.3392 474.908 87.1142 478.111 98.0792C480.641 106.736 483.777 111.49 485.331 117.793C485.644 119.907 485.912 121.993 486.272 124.431C486.839 133.86 486.265 146.312 486.265 146.312C486.265 146.312 513.843 152.034 524.16 143.352C524.16 143.352 522.282 122.465 520.791 114.354" fill="#1566A5"/>
<path d="M527.819 97.3357C527.819 97.3357 516.999 106.268 516.368 106.268C515.963 106.268 500.925 95.2076 497.454 86.1205C495.537 81.096 499.561 75.4761 504.156 75.4937C507.345 75.5078 508.761 76.3288 515.075 81.6527C521.393 86.9802 527.819 97.3357 527.819 97.3357" fill="#1566A5"/>
<path d="M492.801 62.2524L496.469 59.5077C496.469 59.5077 497.441 60.9911 495.863 62.2454C493.939 63.7746 492.801 62.2524 492.801 62.2524Z" fill="white"/>
</g>
<defs>
<clipPath id="clip0_4147_9489">
<rect width="570" height="264" fill="white"/>
</clipPath>
</defs>
</svg>
