<svg width="432" height="145" viewBox="0 0 432 145" fill="none" xmlns="http://www.w3.org/2000/svg">
<path fill-rule="evenodd" clip-rule="evenodd" d="M325.953 -203.258C400.712 -203.189 476.091 -171.046 528.527 -137.705C580.012 -104.969 601.131 -63.7598 607.214 -24.4217C612.9 12.3573 592.622 45.5081 561.455 75.251C530.434 104.856 497.468 141.374 430.356 144.358C363.567 147.327 309.664 102.752 242.116 89.4485C181.036 77.4186 109.222 95.5792 59.6681 71.3496C10.1897 47.1571 15.7068 8.29691 8.7207 -24.6702C2.14428 -55.7042 -11.706 -90.3858 20.5913 -113.053C51.9859 -135.087 124.383 -124.488 170.249 -138.037C230.011 -155.691 252.773 -203.326 325.953 -203.258Z" fill="#D22538"/>
</svg>
