<svg width="176" height="242" viewBox="0 0 176 242" fill="none" xmlns="http://www.w3.org/2000/svg">
<g clip-path="url(#clip0_4147_9429)">
<mask id="mask0_4147_9429" style="mask-type:alpha" maskUnits="userSpaceOnUse" x="-256" y="-78" width="466" height="320">
<path d="M190 -78H-236C-247.046 -78 -256 -69.0457 -256 -58V222C-256 233.046 -247.046 242 -236 242H190C201.046 242 210 233.046 210 222V-58C210 -69.0457 201.046 -78 190 -78Z" fill="white"/>
</mask>
<g mask="url(#mask0_4147_9429)">
<path fill-rule="evenodd" clip-rule="evenodd" d="M833.149 285.39C919.49 375.79 893.475 461.728 881.859 541.252C870.478 619.162 860.99 704.003 768.481 728.081C674.302 752.594 537.56 716.883 411.787 663.604C293.367 613.44 189.387 536.409 112.948 450.39C37.678 365.685 1.47994 279.413 1.59402 201.998C1.71914 117.082 11.4488 23.3994 113.604 5.6238C213.757 -11.8035 352.447 69.9659 478.566 119.002C603.563 167.602 748.05 196.291 833.149 285.39Z" fill="#1566A5"/>
</g>
</g>
<defs>
<clipPath id="clip0_4147_9429">
<rect width="176" height="242" fill="white"/>
</clipPath>
</defs>
</svg>
