<svg width="303" height="320" viewBox="0 0 303 320" fill="none" xmlns="http://www.w3.org/2000/svg">
<mask id="mask0_563_2056" style="mask-type:alpha" maskUnits="userSpaceOnUse" x="0" y="0" width="303" height="320">
<rect width="303" height="320" fill="white"/>
</mask>
<g mask="url(#mask0_563_2056)">
<path fill-rule="evenodd" clip-rule="evenodd" d="M658.124 359.39C749.068 449.79 721.666 535.728 709.43 615.252C697.443 693.162 687.449 778.003 590.009 802.081C490.81 826.594 346.778 790.883 214.301 737.604C89.5685 687.44 -19.9544 610.409 -100.468 524.39C-179.751 439.685 -217.879 353.413 -217.758 275.998C-217.627 191.082 -207.378 97.3994 -99.7779 79.6238C5.71422 62.1965 151.798 143.966 284.64 193.002C416.3 241.602 568.489 270.291 658.124 359.39Z" fill="#004080"/>
</g>
<path d="M237.817 86.5275C238.485 86.5544 240.301 87.1653 242.956 92.1958C246.35 98.6188 251.309 118.022 251.309 118.022L236.503 123.547L234.602 119.495L231.473 88.3151C231.473 88.3151 237.638 86.523 237.817 86.5275Z" fill="#D22538"/>
<path d="M218.249 83.7279C222.489 83.7368 232.955 84.9741 237.819 86.5285C237.819 86.5285 241.391 117.273 234.604 140.635C233.088 145.865 235.862 162.316 235.862 162.316L191.998 161.736C191.998 161.736 197.197 121.968 195.24 115.545C193.282 109.122 193.233 86.734 193.233 86.734C193.233 86.734 193.536 86.6893 203.088 85.0322C207.542 84.2594 213.736 83.7234 218.249 83.7279" fill="#D22538"/>
<path d="M213.135 219.381C213.135 219.381 214.106 230.604 215.894 233.71C217.678 236.817 215.8 242.096 215.706 242.824C215.612 243.548 211.95 244.581 206.129 243.96C200.303 243.338 200.397 241.993 200.872 239.82C201.338 237.644 204.435 234.85 204.627 232.776C204.811 230.706 202.839 223.251 202.839 223.251L213.135 219.381" fill="#F7A491"/>
<path d="M230.912 153.053C230.912 153.053 261.189 151.371 267.954 155.473C274.715 159.575 263.147 179.707 263.147 179.707C263.147 179.707 242.083 178.733 200.815 181.116C191.042 181.681 190.2 155.593 192.023 153.433C193.851 151.278 230.912 153.053 230.912 153.053Z" fill="#161F26"/>
<path d="M205.405 244.833C199.407 244.191 200.151 241.24 200.63 239C200.938 237.6 202.656 235.946 203.682 234.383C204.217 234.811 205.089 235.565 207.693 236.336C210.395 237.137 214.102 235.552 216.466 234.563C217.304 237.698 217.342 241.703 217.261 242.306C217.171 243.056 211.395 245.471 205.405 244.833Z" fill="#D22538"/>
<path d="M208.712 174.754C209.924 183.926 215.91 229.572 215.91 229.572L202.014 231.299C202.014 231.299 184.921 171.719 185.8 162.607C186.675 153.49 193.071 152.725 193.071 152.725C193.071 152.725 205.508 150.481 208.712 174.754" fill="#161F26"/>
<path d="M192.758 90.1522C196.857 88.6131 198.864 125.624 199.419 140.859C206.68 141.562 219.34 140.868 222.489 140.628C223.972 140.517 227.391 139.263 228.866 139.071C230.376 138.871 231.748 138.769 232.489 138.898C232.76 138.947 240.332 142.047 240.976 142.728C241.779 143.569 243.951 145.699 243.582 146.616C243.223 147.537 239.408 144.053 239.408 144.053L237.547 143.008C239.865 145.277 244.284 148.262 243.649 149.351C243.027 150.41 239.044 147.381 236.197 145.312C238.64 147.519 241.664 151.464 240.967 152.083C240.336 152.634 236.895 148.066 233.213 146.749C231.85 146.264 230.491 147.612 229.416 147.777C228.626 147.897 227.414 148.15 226.636 147.932L222.653 146.798C221.294 146.923 221.259 147.728 219.887 148.017C218.297 148.359 215.686 148.715 213.661 149.209C201.982 152.069 198.092 153.395 194.517 153.391C183.695 153.386 183.064 93.7955 192.758 90.1522Z" fill="#F7A491"/>
<path d="M184.977 124.899C184.207 109.294 184.323 90.0577 193.055 86.778C196.502 85.4813 202.579 93.266 201.484 125.216C196.823 125.603 189.977 125.911 184.977 124.899Z" fill="#D22538"/>
<path d="M253.783 228.976C253.783 228.976 252.568 232.874 254.742 235.448C256.912 238.021 265.933 240.549 267.121 241.946C268.305 243.339 268.213 244.529 268.213 244.529L242.887 243.831L243.167 236.169L244.332 230.663L253.783 228.976" fill="#F7A491"/>
<path d="M256.313 236.732C256.313 236.732 249.808 239.372 246.664 237.809C243.52 236.251 243.617 235.816 242.703 236.399C241.798 236.981 241.471 244.163 241.471 244.163L269.945 245C271.925 244.954 272.927 243.492 271.321 242.239C270.213 241.384 268.938 240.81 268.214 240.394C265.984 239.113 256.313 236.732 256.313 236.732" fill="#D22538"/>
<path d="M252.821 160.245C254.779 156.118 259.232 150.747 267.066 153.981C274.534 157.066 276.538 164.654 274.182 172.419C271.825 180.183 256.309 225.836 255.767 232.114L243.377 232.197C243.377 232.197 245.631 196.047 246.183 187.311C246.717 178.901 249.435 167.386 252.821 160.245Z" fill="#161F26"/>
<path d="M272.939 118.195H231.521C230.431 118.195 229.443 118.859 229.022 119.881L216.276 151.139H193.441C192.806 151.139 192.291 151.659 192.291 152.3C192.291 152.941 192.806 153.461 193.441 153.461H258.426C260.211 153.461 261.829 152.407 262.557 150.772L275.401 122.022C276.203 120.225 274.895 118.195 272.939 118.195Z" fill="#B2BBB9"/>
<path d="M250.634 136.399C250.356 137.804 249.137 138.743 247.913 138.496C246.69 138.253 245.924 136.916 246.201 135.51C246.484 134.105 247.703 133.167 248.931 133.414C250.15 133.661 250.916 134.999 250.634 136.399" fill="white"/>
<path d="M228.096 46.1773C226.848 45.7574 225.619 45.2809 224.432 44.71C223.09 44.0636 221.352 43.304 220.254 43.1342C217.942 42.7756 213.971 43.0162 211.777 45.3941C209.05 48.3665 204.194 45.932 205.173 61.4778C206.28 79.076 216.049 77.1463 216.284 76.8443C216.52 76.5471 224.993 65.5872 224.993 65.5872C224.993 65.5872 227.955 72.0838 227.955 71.8432C227.955 71.612 243.083 51.235 228.096 46.1773" fill="#161F26"/>
<path d="M220.677 78.1456L221.519 84.4318C221.519 84.4318 223.409 93.4914 220.982 95.2386C218.55 96.9857 210.645 84.1763 210.645 84.1763L211.482 68.2421L220.677 78.1456Z" fill="#F7A491"/>
<path d="M211.211 73.4061C213.219 78.8392 218.001 82.1784 221.393 83.4785L220.678 78.1458L211.484 68.2422L211.211 73.4061Z" fill="#E38B76"/>
<path d="M220.177 50.9034C225.327 50.0715 229.946 54.2214 229.815 59.3853C229.764 61.6285 229.582 64.4277 229.111 67.4466C227.996 74.7042 223.046 81.0972 219.78 80.5271C216.51 79.9569 208.285 73.6948 209.736 63.3669C210.627 56.9879 214.775 51.7773 220.177 50.9034" fill="#F7A491"/>
<path d="M212.007 64.5964C211.736 66.19 210.453 67.3001 209.157 67.0744C207.86 66.8487 207.028 65.3702 207.308 63.7766C207.58 62.1784 208.858 61.0685 210.154 61.2941C211.456 61.5198 212.283 62.9982 212.007 64.5964" fill="#F7A491"/>
<path d="M210.151 61.2992C210.151 61.2992 214.106 62.2828 215.57 59.7396C217.038 57.1918 222.284 51.698 228.946 53.9742C235.613 56.2551 223.083 48.4336 222.55 48.4336C222.012 48.4336 215.616 48.3914 215.616 48.3914C215.616 48.3914 210.684 52.4567 210.506 52.9016C210.324 53.3513 208.902 58.2175 208.902 58.2175L210.151 61.2992" fill="#161F26"/>
<path d="M217.387 71.9211L224.578 73.2965C224.578 73.2965 223.889 76.0109 220.713 75.498C216.834 74.8716 217.387 71.9211 217.387 71.9211" fill="white"/>
</svg>
