<svg width="290" height="320" fill="none" xmlns="http://www.w3.org/2000/svg"><path fill-rule="evenodd" clip-rule="evenodd" d="M386-150c51-4 118 5 153 44 37 39-1 92 17 139 17 47 104 89 84 130-22 45-113 15-164 35-32 12-43 47-76 58-35 12-75 10-116 5-46-6-114 1-136-38-26-46 59-84 42-133C173 42 78 33 62-15c-13-43 16-92 60-107 46-15 103 42 154 36 47-5 63-60 110-64Z" fill="#120A59"/><path d="M263 58c1-6 0-11-2-17-2-5-8-7-12-7-15 0-16 21-26 29l-8 8c-10 10-6 29 3 38 7 6 16 9 24 4 4-2 7-6 10-11l7-21c2-7 4-15 4-23Z" fill="#161F26"/><path d="M266 87c-5-15-11-15-11-15l5 33 9-4-3-14Z" fill="#D22538"/><path d="m289 140-17-15s-1-13-4-25l-8 5 4 26 22 12 6 9 2-9-5-3Z" fill="#F48C7F"/><path d="M218 249s-1 8-3 11l-2 3v8l1 1c3 1 6 0 7-3l1-7 3-11-7-2ZM249 253v12c0 1-2 4-1 6l1 2h19l-1-1-6-4-2-2-3-2-1-10-6-1Z" fill="#F7A491"/><path d="M263 133s2 15 1 24c-2 10-9 99-9 99h-8s-2-37-1-42l2-14v-30l10-39 5 2Z" fill="#161F26"/><path d="M239 130s-6 11-7 20c-2 8 1 36-2 47-2 6-8 16-9 24 0 8-4 29-4 29l8 2 19-53 14-48 4-24-23 3Z" fill="#161F26"/><path d="M245 69s-9 0-12 4 7 36 8 41l-3 19s19 4 25 0V93l-7-21-11-3Z" fill="#D22538"/><path d="M247 57v1l-3 11c-1 3 4 11 9 10 2 0-1-7-1-8l1-5 1-4 1-5h-8Z" fill="#F7A491"/><path d="M247 58v-1h8l-1 5-1 4-3-2-3-5v-1Z" fill="#E38B76"/><path d="M252 38s-3-1-5 3c-3 3-5 13 1 18 5 6 10-1 11-7 1-7 1-14-7-14Z" fill="#F7A491"/><path d="m261 52-3 2v-4l3-2v4Z" fill="#F7A491"/><path d="M253 37s-5 9-8 10c-4 0-4 5-4 5s1-11 4-14c4-2 8-1 8-1Z" fill="#161F26"/><path d="M222 267c-5 1-8-2-9-4-1 2-2 6-1 8s3 2 4 2c2 0 4-1 4-3l2-3ZM259 266c-5 2-8 1-10 0-1 2-2 4-1 5l1 2a1970 1970 0 0 0 20-1l-10-6Z" fill="#120A59"/><path d="M246 49c0 2-1 3-2 3-1 1-2-1-2-2l1-4 3 3Z" fill="#F7A491"/><path d="M251 55h4s0 2-2 2-2-2-2-2Z" fill="#fff"/><path d="m275 94-5-2 6-2c0-2-6-1-6-1 0-1 7-3 6-4s-7 2-7 2c0-1 6-3 6-5 0-1-10 5-11 4v-6l-4 10c0 1-14 9-18 10l-3-5-7 5 6 12c4 2 21-13 24-16 3-2 5-1 7-2h6Z" fill="#F7A491"/><path d="M232 102s-4-18-3-23c0-5 6-10 9-8 4 2 6 27 6 27l-12 4Z" fill="#D22538"/></svg>