<svg width="570" height="264" viewBox="0 0 570 264" fill="none" xmlns="http://www.w3.org/2000/svg">
<g clip-path="url(#clip0_564_2134)">
<mask id="mask0_564_2134" style="mask-type:alpha" maskUnits="userSpaceOnUse" x="0" y="-54" width="591" height="320">
<rect y="-54" width="591" height="320" fill="white"/>
</mask>
<g mask="url(#mask0_564_2134)">
<path fill-rule="evenodd" clip-rule="evenodd" d="M-239.257 106.413C-86.6687 74.259 250.295 3.89232 370.939 48.4109C523.73 119.368 293.817 193.294 363.117 317.57C433.667 444.091 646.561 542.457 575.21 647.533C508.03 746.465 385.553 808.835 238.941 832.854C94.569 856.506 -62.5134 834.058 -211.556 776.426C-375.041 713.21 -557.783 632.436 -617.344 501.747C-675.737 373.619 -552.75 274.849 -489.651 166.224C-427.114 58.5657 -389.648 138.104 -239.257 106.413Z" fill="#D22538"/>
</g>
<path d="M482.055 110.543C482.284 111.336 482.414 111.596 482.707 112.128C484.588 115.557 488.957 120.447 488.957 120.447L492.34 112.833C492.34 112.833 491.787 110.441 490.832 107.023C487.569 107.875 484.458 108.369 482.055 110.543Z" fill="#F8A492"/>
<path d="M501.43 103.939C501.43 103.939 482.579 112.057 481.97 111.902C481.579 111.8 474.239 99.5171 474.158 87.9636C474.123 82.6291 479.666 76.2093 485.846 77.4813C488.961 78.119 488.911 78.9858 493.516 85.6769C498.122 92.3679 501.43 103.939 501.43 103.939" fill="#120A59"/>
<path d="M517.517 249.469L517.07 256.886C516.904 257.826 516.256 260.148 516.256 261.005C516.256 264.215 531.498 258.277 528.084 256.854C527.774 256.727 526.153 255.755 526.051 254.662C525.896 252.978 525.498 249.571 525.498 249.571L517.517 249.469" fill="#F7A491"/>
<path d="M528.046 256.827C528.046 256.827 524.466 257.806 522.634 258.053C520.802 258.3 518.384 256.231 517.088 256.792C515.661 257.405 515.717 262.936 515.717 262.936C515.717 262.936 534.906 264.511 540.304 262.884C542.443 262.235 535.361 259.114 528.046 256.827Z" fill="#120A59"/>
<path d="M486.338 249.469L485.887 256.886C485.724 257.826 485.076 260.148 485.076 261.005C485.076 264.215 500.319 258.277 496.901 256.854C496.594 256.727 494.494 255.025 494.392 253.933C494.234 252.252 494.318 249.571 494.318 249.571L486.338 249.469Z" fill="#F7A491"/>
<path d="M496.867 256.826C496.867 256.826 493.287 257.806 491.455 258.052C489.623 258.299 487.206 256.231 485.909 256.791C484.482 257.404 484.426 262.936 484.426 262.936C484.426 262.936 503.703 264.772 509.125 262.883C511.229 262.147 504.182 259.113 496.867 256.826Z" fill="#120A59"/>
<path d="M490.996 114.647L504.421 95.839C504.477 95.6769 504.6 95.3387 504.787 94.8243C505.464 92.9568 506.869 89.0739 508.096 85.2122L508.106 85.1699C508.494 83.8204 509.308 81.4667 510.097 79.187C510.974 76.6537 512.063 73.5107 512.102 72.9752C512.07 72.8836 512.007 72.718 511.922 72.4995C511.429 71.224 510.763 68.1797 510.527 66.8584C510.379 66.0163 510.227 63.9656 511.231 63.9656C512.803 63.9656 512.056 66.0128 512.782 67.2883C513.046 66.4356 513.585 64.7408 513.871 63.0284L514.135 59.0292C514.184 58.7297 513.863 56.5241 514.97 56.5241H515.023C516.013 56.598 515.992 58.9411 516.404 62.9086C516.534 62.4505 516.665 61.9009 516.763 61.397C516.753 61.1257 516.95 59.9313 517.098 59.3041C516.901 58.1977 517.017 56.4536 518.194 56.6192C518.782 56.7002 518.733 59.1349 518.733 59.1349C518.729 59.4661 518.694 62.0383 518.712 62.5492C518.832 61.6859 519.304 58.0039 520.227 58.0039C520.991 58.0039 521.055 58.994 521.037 59.7797C521.03 60.2413 520.547 64.2299 520.523 64.695C520.882 64.089 521.309 60.5761 521.668 60.5761C523.158 60.5761 522.619 65.5723 522.07 66.8725C522.02 67.0064 521.964 67.2671 521.901 67.5702C521.714 68.4616 521.404 69.952 520.621 71.2874C519.684 72.8906 518.391 75.4416 518.194 75.8327C518.049 76.629 517.598 79.4936 517.035 83.0981C516.791 84.6379 516.527 86.3291 516.252 88.0803L516.238 88.0768C516.185 88.4573 515.907 89.6624 514.843 94.183C513.391 100.37 513.24 100.638 513.176 100.751C512.546 101.868 498.071 121.522 497.455 122.36L497.092 122.854L490.996 114.647" fill="#F7A491"/>
<path d="M515.964 70.7871C515.964 70.7871 514.875 68 512.938 67.993C512.938 67.993 514.019 67.6019 514.949 68.3383C515.88 69.0747 515.964 70.7871 515.964 70.7871Z" fill="#E38B76"/>
<path d="M487.755 65.4032L486.025 76.3295C486.025 76.3295 492.611 81.6183 496.448 80.5013C499.668 79.5676 497.463 75.357 497.463 75.357C497.463 75.357 495.747 69.5222 496.272 66.4638C496.797 63.4054 487.755 65.4032 487.755 65.4032" fill="#F7A491"/>
<path d="M488.995 68.7051C490.644 69.4873 493.907 70.5479 496.447 70.8086C496.204 69.2759 496.067 67.6586 496.271 66.4641C496.514 65.0547 494.717 64.72 492.716 64.7694C490.091 64.9913 487.755 65.4036 487.755 65.4036L487.42 67.5036C487.92 68.0286 488.445 68.4479 488.995 68.7051" fill="#E38B76"/>
<path d="M479.442 52.7964C479.17 52.7964 482.045 65.0052 486.496 67.1052C490.942 69.2052 497.577 68.1129 498.821 64.822C500.198 61.1858 495.177 48.7303 488.92 47.1482C482.662 45.5662 479.442 52.7964 479.442 52.7964Z" fill="#F7A491"/>
<path d="M484.591 41.5766C481.039 43.6272 479.408 46.668 478.858 47.9118C477.191 48.7045 475.172 50.4134 474.203 55.0292C473.013 60.6985 477.248 65.0711 481.737 66.3854C486.226 67.6996 486.92 70.6699 486.92 70.6699L487.431 67.4741C487.431 67.4741 486.43 64.6906 484.929 63.2953C483.428 61.9035 485.641 59.874 485.834 58.2179C485.986 56.9424 485.045 54.4654 485.25 52.3725C485.25 52.3725 487.744 48.5918 490.204 47.6581C494.397 46.0655 489.15 38.948 484.591 41.5766Z" fill="#120A59"/>
<path d="M486.482 60.3432C487.064 61.7525 486.824 63.1549 485.95 63.472C485.076 63.7856 483.896 62.9012 483.315 61.4918C482.733 60.0824 482.969 58.6801 483.847 58.3629C484.72 58.0458 485.901 58.9338 486.482 60.3432Z" fill="#F7A491"/>
<path d="M503.055 114.947L528.949 110.726C528.949 110.726 526.003 103.309 524.95 103.309C523.896 103.309 505.37 111.399 505.37 111.399L503.897 114.355L503.055 114.947Z" fill="#F8A492"/>
<path d="M489.792 132.701C489.792 132.701 487.209 145.188 488.259 154.659C489.313 164.126 489.397 197.762 489.397 197.762L485.377 251.579L494.908 251.787C494.908 251.787 506.211 197.994 506 199.375C505.792 200.757 509.791 161.502 509.791 161.502L496.317 131.517L489.792 132.701" fill="#D22538"/>
<path d="M492.318 132.109C492.318 132.109 490.634 143.352 492.737 148.285C494.844 153.218 510.795 201.606 511.006 205.549C511.218 209.495 516.521 253.102 516.521 253.102L527.602 252.791L530.001 204.308L524.981 143.373L520.108 127.965L492.318 132.109" fill="#D22538"/>
<path d="M486.025 76.3293C486.025 76.3293 488.76 78.1228 491.307 77.9149C493.858 77.7105 497.463 75.3568 497.463 75.3568L496.959 73.6585C496.959 73.6585 490.366 72.6966 490.201 72.8023C490.035 72.9045 486.025 76.3293 486.025 76.3293" fill="#F7A491"/>
<path d="M515.154 102.943C515.154 102.943 524.95 112.188 529.372 110.61C533.793 109.031 535.622 103.637 524.833 95.7441C515.179 88.6795 515.154 102.943 515.154 102.943" fill="#F8A492"/>
<path d="M521.791 114.354C520.336 106.44 509.79 81.8076 508.948 77.2694C508.539 75.0637 502.849 75.0144 497.433 75.3033C491.711 75.6063 486.024 76.3286 486.024 76.3286C486.024 76.3286 480.958 77.1637 478.731 79.2496C476.5 81.339 475.908 87.114 479.111 98.079C481.641 106.736 484.777 111.489 486.331 117.793C486.644 119.907 486.912 121.993 487.272 124.431C487.839 133.86 487.265 146.312 487.265 146.312C487.265 146.312 514.843 152.034 525.16 143.352C525.16 143.352 523.282 122.465 521.791 114.354" fill="#120A59"/>
<path d="M528.821 97.3356C528.821 97.3356 518.001 106.268 517.37 106.268C516.965 106.268 501.927 95.2074 498.456 86.1203C496.539 81.0959 500.563 75.4759 505.158 75.4935C508.346 75.5076 509.763 76.3286 516.077 81.6526C522.395 86.9801 528.821 97.3356 528.821 97.3356" fill="#120A59"/>
<path d="M493.801 62.2533L497.469 59.5085C497.469 59.5085 498.441 60.9919 496.863 62.2463C494.939 63.7755 493.801 62.2533 493.801 62.2533Z" fill="white"/>
</g>
<defs>
<clipPath id="clip0_564_2134">
<rect width="570" height="264" fill="white"/>
</clipPath>
</defs>
</svg>
