<svg width="432" height="145" viewBox="0 0 432 145" fill="none" xmlns="http://www.w3.org/2000/svg">
<g clip-path="url(#clip0_4147_9482)">
<path fill-rule="evenodd" clip-rule="evenodd" d="M325.954 -203.258C400.713 -203.189 476.092 -171.046 528.528 -137.705C580.013 -104.969 601.132 -63.7598 607.215 -24.4217C612.901 12.3573 592.623 45.5081 561.456 75.251C530.435 104.856 497.469 141.374 430.357 144.358C363.568 147.327 309.665 102.752 242.117 89.4485C181.037 77.4186 109.223 95.5792 59.6694 71.3496C10.191 47.1571 15.7081 8.29691 8.722 -24.6702C2.14558 -55.7042 -11.7047 -90.3858 20.5926 -113.053C51.9872 -135.087 124.384 -124.488 170.25 -138.037C230.012 -155.691 252.774 -203.326 325.954 -203.258Z" fill="#1566A5"/>
</g>
<defs>
<clipPath id="clip0_4147_9482">
<rect width="432" height="145" fill="white"/>
</clipPath>
</defs>
</svg>
