<svg width="303" height="320" viewBox="0 0 303 320" fill="none" xmlns="http://www.w3.org/2000/svg">
<mask id="mask0_4147_9592" style="mask-type:alpha" maskUnits="userSpaceOnUse" x="0" y="0" width="303" height="320">
<path d="M0 0H303V320H0V0Z" fill="white"/>
</mask>
<g mask="url(#mask0_4147_9592)">
<path fill-rule="evenodd" clip-rule="evenodd" d="M658.124 359.39C749.068 449.79 721.666 535.728 709.43 615.252C697.443 693.162 687.449 778.003 590.009 802.081C490.81 826.594 346.778 790.883 214.301 737.604C89.5685 687.44 -19.9544 610.409 -100.468 524.39C-179.751 439.685 -217.879 353.413 -217.758 275.998C-217.627 191.082 -207.378 97.3994 -99.7779 79.6238C5.71422 62.1965 151.798 143.966 284.64 193.002C416.3 241.602 568.489 270.291 658.124 359.39Z" fill="#1566A5"/>
<path d="M237.817 86.5275C238.485 86.5544 240.301 87.1653 242.956 92.1958C246.35 98.6188 251.309 118.022 251.309 118.022L236.503 123.547L234.602 119.495L231.473 88.3151C231.473 88.3151 237.638 86.523 237.817 86.5275Z" fill="#161F26"/>
<path d="M218.247 83.7288C222.487 83.7378 232.953 84.9751 237.818 86.5295C237.818 86.5295 241.389 117.274 234.602 140.636C233.086 145.866 235.86 162.317 235.86 162.317L191.996 161.737C191.996 161.737 197.195 121.969 195.238 115.546C193.28 109.123 193.231 86.735 193.231 86.735C193.231 86.735 193.534 86.6903 203.086 85.0331C207.54 84.2604 213.734 83.7244 218.247 83.7288" fill="#161F26"/>
<path d="M213.135 219.382C213.135 219.382 214.106 230.604 215.894 233.71C217.678 236.817 215.8 242.096 215.706 242.824C215.612 243.548 211.95 244.581 206.129 243.96C200.303 243.338 200.397 241.993 200.872 239.821C201.338 237.644 204.435 234.85 204.627 232.776C204.811 230.707 202.839 223.251 202.839 223.251L213.135 219.382" fill="#F7A491"/>
<path d="M230.91 153.054C230.91 153.054 261.187 151.371 267.953 155.474C274.713 159.576 263.145 179.707 263.145 179.707C263.145 179.707 242.081 178.734 200.814 181.117C191.04 181.682 190.198 155.594 192.021 153.434C193.849 151.279 230.91 153.054 230.91 153.054Z" fill="#161F26"/>
<path d="M205.405 244.834C199.407 244.192 200.151 241.241 200.63 239.001C200.938 237.6 202.656 235.947 203.682 234.384C204.217 234.812 205.089 235.566 207.693 236.337C210.395 237.138 214.102 235.553 216.466 234.564C217.304 237.699 217.342 241.703 217.261 242.307C217.171 243.057 211.395 245.472 205.405 244.834Z" fill="#161F26"/>
<path d="M208.714 174.754C209.926 183.926 215.912 229.573 215.912 229.573L202.016 231.3C202.016 231.3 184.923 171.72 185.802 162.608C186.677 153.491 193.073 152.726 193.073 152.726C193.073 152.726 205.51 150.482 208.714 174.754" fill="#161F26"/>
<path d="M192.758 90.1515C196.857 88.6124 198.864 125.623 199.419 140.859C206.68 141.562 219.34 140.868 222.489 140.627C223.972 140.516 227.391 139.262 228.866 139.07C230.376 138.87 231.748 138.768 232.489 138.897C232.76 138.946 240.332 142.046 240.976 142.727C241.779 143.568 243.951 145.699 243.582 146.615C243.223 147.536 239.408 144.053 239.408 144.053L237.547 143.007C239.865 145.276 244.284 148.261 243.649 149.351C243.027 150.409 239.044 147.38 236.197 145.312C238.64 147.518 241.664 151.464 240.967 152.082C240.336 152.634 236.895 148.065 233.213 146.748C231.85 146.264 230.491 147.611 229.416 147.776C228.626 147.896 227.414 148.15 226.636 147.932L222.653 146.797C221.294 146.922 221.259 147.727 219.887 148.016C218.297 148.359 215.686 148.715 213.661 149.208C201.982 152.069 198.092 153.394 194.517 153.39C183.695 153.385 183.064 93.7947 192.758 90.1515Z" fill="#F7A491"/>
<path d="M184.977 124.899C184.207 109.294 184.323 90.0579 193.055 86.7783C196.502 85.4816 202.579 93.2662 201.484 125.216C196.823 125.603 189.977 125.911 184.977 124.899Z" fill="#161F26"/>
<path d="M253.783 228.976C253.783 228.976 252.568 232.874 254.742 235.448C256.912 238.021 265.933 240.549 267.121 241.946C268.305 243.339 268.213 244.529 268.213 244.529L242.887 243.831L243.167 236.169L244.332 230.663L253.783 228.976" fill="#F7A491"/>
<path d="M256.314 236.732C256.314 236.732 249.81 239.372 246.666 237.809C243.522 236.251 243.619 235.816 242.705 236.399C241.8 236.981 241.473 244.163 241.473 244.163L269.947 245C271.927 244.954 272.929 243.492 271.323 242.239C270.215 241.384 268.94 240.81 268.216 240.394C265.986 239.113 256.314 236.732 256.314 236.732" fill="#161F26"/>
<path d="M252.823 160.244C254.781 156.118 259.234 150.746 267.068 153.98C274.536 157.066 276.54 164.654 274.184 172.418C271.827 180.183 256.311 225.836 255.769 232.113L243.379 232.197C243.379 232.197 245.633 196.046 246.185 187.311C246.719 178.9 249.437 167.386 252.823 160.244Z" fill="#161F26"/>
<path d="M272.937 118.195H231.519C230.429 118.195 229.441 118.859 229.02 119.881L216.274 151.139H193.439C192.804 151.139 192.289 151.659 192.289 152.3C192.289 152.941 192.804 153.461 193.439 153.461H258.424C260.209 153.461 261.828 152.407 262.555 150.772L275.399 122.022C276.201 120.225 274.893 118.195 272.937 118.195Z" fill="#B2BBB9"/>
<path d="M250.634 136.4C250.356 137.805 249.137 138.743 247.913 138.496C246.69 138.254 245.924 136.916 246.201 135.511C246.484 134.106 247.703 133.168 248.931 133.415C250.15 133.662 250.916 134.999 250.634 136.4" fill="white"/>
<path d="M228.098 46.1768C226.85 45.7569 225.621 45.2804 224.434 44.7095C223.092 44.0631 221.354 43.3035 220.256 43.1337C217.944 42.7751 213.973 43.0157 211.779 45.3936C209.052 48.366 204.196 45.9315 205.175 61.4773C206.282 79.0755 216.05 77.1458 216.286 76.8438C216.521 76.5466 224.995 65.5867 224.995 65.5867C224.995 65.5867 227.957 72.0834 227.957 71.8427C227.957 71.6116 243.085 51.2345 228.098 46.1768" fill="#161F26"/>
<path d="M220.677 78.1454L221.519 84.4315C221.519 84.4315 223.409 93.4912 220.982 95.2383C218.55 96.9855 210.645 84.1761 210.645 84.1761L211.482 68.2418L220.677 78.1454Z" fill="#F7A491"/>
<path d="M211.211 73.4057C213.219 78.8387 218.001 82.1779 221.393 83.478L220.678 78.1453L211.484 68.2417L211.211 73.4057Z" fill="#E38B76"/>
<path d="M220.177 50.9036C225.327 50.0718 229.946 54.2216 229.815 59.3856C229.764 61.6287 229.582 64.428 229.111 67.4469C227.996 74.7044 223.046 81.0974 219.78 80.5273C216.51 79.9572 208.285 73.695 209.736 63.3672C210.627 56.9882 214.775 51.7775 220.177 50.9036" fill="#F7A491"/>
<path d="M212.007 64.5969C211.736 66.1905 210.453 67.3006 209.157 67.0749C207.86 66.8492 207.028 65.3707 207.308 63.7771C207.58 62.1789 208.858 61.0689 210.154 61.2946C211.456 61.5203 212.283 62.9987 212.007 64.5969" fill="#F7A491"/>
<path d="M210.151 61.2985C210.151 61.2985 214.106 62.2821 215.57 59.7389C217.038 57.191 222.284 51.6973 228.946 53.9735C235.613 56.2543 223.083 48.4328 222.55 48.4328C222.012 48.4328 215.616 48.3907 215.616 48.3907C215.616 48.3907 210.684 52.456 210.506 52.9009C210.324 53.3505 208.902 58.2167 208.902 58.2167L210.151 61.2985" fill="#161F26"/>
<path d="M217.387 71.9214L224.578 73.2967C224.578 73.2967 223.889 76.0112 220.713 75.4982C216.834 74.8718 217.387 71.9214 217.387 71.9214" fill="white"/>
</g>
</svg>
