<svg width="107" height="80" viewBox="0 0 107 80" fill="none" xmlns="http://www.w3.org/2000/svg">
<mask id="mask0_908_6019" style="mask-type:alpha" maskUnits="userSpaceOnUse" x="0" y="0" width="107" height="80">
<rect x="0.195312" width="106.667" height="80" rx="-1" fill="white"/>
</mask>
<g mask="url(#mask0_908_6019)">
<path fill-rule="evenodd" clip-rule="evenodd" d="M0.195312 0H106.862V80H0.195312V0Z" fill="#F50100"/>
<path d="M53.14 49.939C52.8245 49.8886 52.5158 49.816 52.2158 49.7227C47.6482 53.275 43.2487 55.6868 38.9936 56.9357C37.2271 57.4542 35.3749 56.4425 34.8564 54.6761C34.3379 52.9097 35.3496 51.0574 37.116 50.5389C39.7444 49.7674 42.5452 48.3803 45.5078 46.3674C43.5607 46.6808 41.5435 47.0243 40.3334 47.283C39.3435 47.4947 38.1549 48.1079 37.0163 48.6954C34.7981 49.84 32.7696 50.8867 32.7696 48.6749C32.7696 45.3277 34.7168 44.3267 38.3301 42.8138C40.9882 41.7008 42.6655 41.7349 44.2815 41.7677C44.8621 41.7795 45.4349 41.7912 46.0424 41.7494C46.3828 41.7259 46.748 41.6862 47.1232 41.6356L47.0133 41.0124C46.6767 40.9687 46.3495 40.9343 46.0424 40.9132C45.4349 40.8714 44.8622 40.883 44.2815 40.8948C42.6656 40.9277 40.9882 40.9618 38.3301 39.8488C34.7168 38.3358 32.7696 37.3349 32.7696 33.9877C32.7696 31.7759 34.7981 32.8225 37.0163 33.9671C38.1549 34.5546 39.3435 35.1679 40.3334 35.3796C41.6881 35.6692 44.0543 36.065 46.2011 36.4061L46.1491 36.1111C45.7049 35.856 45.2915 35.5633 44.9316 35.2276C43.4333 33.8295 42.2086 33.5964 40.6885 33.3071C39.6745 33.1142 38.5292 32.8962 37.0834 32.2909C33.4702 30.7779 31.2943 27.8217 31.2943 24.4745C31.2943 22.3016 33.1676 23.7111 35.3978 25.389C36.603 26.2959 37.9125 27.2811 39.0868 27.8217C40.2444 28.3546 41.4272 28.7833 42.509 29.1754C43.6182 29.5774 44.6211 29.941 45.3821 30.3389C45.3966 30.1917 45.4161 30.0459 45.4403 29.9015C45.0398 29.6132 44.6946 29.2718 44.435 28.8675C42.663 26.1075 40.2853 25.1119 36.6943 23.6083L36.6544 23.5916C33.0411 22.0787 30.8652 19.1224 30.8652 15.7752C30.8652 13.6023 32.7386 15.0118 34.9687 16.6898C36.174 17.5966 37.4835 18.5818 38.6577 19.1224C42.0049 20.6632 44.5782 21.9891 46.2135 25.1046C46.5319 25.7111 46.8574 26.1358 47.175 26.4264C47.5844 25.9933 48.0514 25.6142 48.5645 25.3023C47.8753 20.3173 46.7096 17.8142 45.6071 17.6091C43.7973 17.2723 42.603 15.5322 42.9397 13.7223C43.2765 11.9124 45.0166 10.7181 46.8265 11.0549C51.2811 11.8836 53.8104 16.0176 55.0001 23.2573C56.1899 16.0176 58.7191 11.8836 63.1737 11.0549C64.9836 10.7181 66.7238 11.9124 67.0605 13.7223C67.3972 15.5322 66.203 17.2723 64.3931 17.6091C63.2935 17.8136 62.131 20.3044 61.4411 25.2637C62.0274 25.5159 62.5673 25.849 63.0486 26.2474C63.3083 25.9692 63.5713 25.5967 63.8297 25.1046C65.465 21.9891 68.0383 20.6632 71.3854 19.1224C72.5597 18.5818 73.8692 17.5966 75.0744 16.6898C77.3046 15.0119 79.1779 13.6023 79.1779 15.7752C79.1779 19.1224 77.002 22.0787 73.3888 23.5916L73.3488 23.6083C69.7579 25.1119 67.3802 26.1075 65.6082 28.8675C65.4823 29.0636 65.3362 29.2449 65.1735 29.4125C65.2356 29.6119 65.2886 29.8148 65.3318 30.0208C65.9746 29.7407 66.7262 29.4682 67.5342 29.1754C68.6159 28.7833 69.7988 28.3545 70.9564 27.8217C72.1307 27.2811 73.4402 26.2959 74.6454 25.389C76.8756 23.7111 78.7489 22.3016 78.7489 24.4745C78.7489 27.8217 76.573 30.7779 72.9597 32.2909C71.514 32.8962 70.3687 33.1142 69.3547 33.3071C67.8345 33.5964 66.6099 33.8295 65.1115 35.2276C65.0084 35.3239 64.9008 35.4166 64.7893 35.5059L64.6374 36.2788C66.5526 35.9698 68.5208 35.6338 69.7098 35.3796C70.6997 35.1679 71.8883 34.5546 73.0269 33.9671C75.2451 32.8225 77.2736 31.7759 77.2736 33.9877C77.2736 37.3349 75.3264 38.3358 71.7131 39.8488C69.055 40.9618 67.3777 40.9277 65.7617 40.8948C65.1811 40.883 64.6082 40.8714 64.0007 40.9132C63.9095 40.9195 63.8164 40.9269 63.7219 40.9355L63.5691 41.7126C63.7165 41.7273 63.8607 41.7397 64.0007 41.7494C64.6082 41.7912 65.181 41.7795 65.7617 41.7677C67.3776 41.7349 69.055 41.7008 71.7131 42.8138C75.3264 44.3267 77.2736 45.3277 77.2736 48.6749C77.2736 50.8867 75.2451 49.84 73.0269 48.6955C71.8883 48.108 70.6996 47.4946 69.7098 47.283C68.5565 47.0364 66.6702 46.7129 64.8102 46.4117C67.7485 48.4007 70.5275 49.7731 73.1365 50.5389C74.903 51.0574 75.9146 52.9097 75.3961 54.6761C74.8777 56.4425 73.0254 57.4542 71.2589 56.9357C67.0369 55.6965 62.6726 53.3125 58.1432 49.8053C57.9574 49.854 57.7686 49.8948 57.5772 49.9275C58.3911 53.557 64.7611 56.5515 64.7611 56.5515C64.7611 56.5515 56.6245 72.2085 55.3336 72.2085C54.0427 72.2085 45.3885 56.5515 45.3885 56.5515C49.9193 54.868 52.277 51.4599 53.14 49.939Z" fill="#1A1A1A"/>
</g>
</svg>
