<svg width="108" height="80" viewBox="0 0 108 80" fill="none" xmlns="http://www.w3.org/2000/svg">
<mask id="mask0_908_6023" style="mask-type:alpha" maskUnits="userSpaceOnUse" x="0" y="0" width="108" height="80">
<rect width="107.059" height="80" fill="white"/>
</mask>
<g mask="url(#mask0_908_6023)">
<path fill-rule="evenodd" clip-rule="evenodd" d="M26.7656 0H80.295V80H26.7656V0Z" fill="#FFD018"/>
<path fill-rule="evenodd" clip-rule="evenodd" d="M0 0H26.7647V80H0V0Z" fill="#2E42A5"/>
<path fill-rule="evenodd" clip-rule="evenodd" d="M80.2949 0H107.06V80H80.2949V0Z" fill="#E31D1C"/>
<path fill-rule="evenodd" clip-rule="evenodd" d="M32.7871 18.3405C32.7871 17.7854 33.2391 17.3366 33.7942 17.3405L74.5818 17.6288C75.1313 17.6327 75.5747 18.0793 75.5747 18.6288V50.9692C75.5747 50.9692 72.6031 64.3025 54.5265 64.3025C36.4499 64.3025 32.7871 50.6667 32.7871 50.6667V18.3405Z" fill="#BF9937"/>
<path fill-rule="evenodd" clip-rule="evenodd" d="M34.4598 28C37.2314 28 39.4782 25.7614 39.4782 23C39.4782 20.2386 37.2314 18 34.4598 18C31.6882 18 29.4414 20.2386 29.4414 23C29.4414 25.7614 31.6882 28 34.4598 28Z" fill="#BF9937"/>
<path fill-rule="evenodd" clip-rule="evenodd" d="M34.4598 42.6665C37.2314 42.6665 39.4782 40.4279 39.4782 37.6665C39.4782 34.9051 37.2314 32.6665 34.4598 32.6665C31.6882 32.6665 29.4414 34.9051 29.4414 37.6665C29.4414 40.4279 31.6882 42.6665 34.4598 42.6665Z" fill="#BF9937"/>
<path fill-rule="evenodd" clip-rule="evenodd" d="M34.4598 54.6665C37.2314 54.6665 39.4782 52.4279 39.4782 49.6665C39.4782 46.9051 37.2314 44.6665 34.4598 44.6665C31.6882 44.6665 29.4414 46.9051 29.4414 49.6665C29.4414 52.4279 31.6882 54.6665 34.4598 54.6665Z" fill="#BF9937"/>
<path fill-rule="evenodd" clip-rule="evenodd" d="M72.6004 28C75.372 28 77.6188 25.7614 77.6188 23C77.6188 20.2386 75.372 18 72.6004 18C69.8288 18 67.582 20.2386 67.582 23C67.582 25.7614 69.8288 28 72.6004 28Z" fill="#BF9937"/>
<path fill-rule="evenodd" clip-rule="evenodd" d="M72.6004 42.6665C75.372 42.6665 77.6188 40.4279 77.6188 37.6665C77.6188 34.9051 75.372 32.6665 72.6004 32.6665C69.8288 32.6665 67.582 34.9051 67.582 37.6665C67.582 40.4279 69.8288 42.6665 72.6004 42.6665Z" fill="#BF9937"/>
<path fill-rule="evenodd" clip-rule="evenodd" d="M72.6004 54.6665C75.372 54.6665 77.6188 52.4279 77.6188 49.6665C77.6188 46.9051 75.372 44.6665 72.6004 44.6665C69.8288 44.6665 67.582 46.9051 67.582 49.6665C67.582 52.4279 69.8288 54.6665 72.6004 54.6665Z" fill="#BF9937"/>
<path d="M39.5566 55.5677L39.9083 54.7207C43.9487 56.4463 48.5467 57.3103 53.7051 57.3103C58.8609 57.3103 63.3352 56.4472 67.1308 54.7248L67.5008 55.5637C63.5819 57.3421 58.9824 58.2293 53.7051 58.2293C48.4304 58.2293 43.7133 57.3429 39.5566 55.5677Z" fill="#805440"/>
<path fill-rule="evenodd" clip-rule="evenodd" d="M40.916 25.395H53.372H53.687H66.143V48.8278C66.143 48.8278 66.1385 50.896 63.9439 51.8002C61.7493 52.7045 59.168 52.3808 59.168 52.3808C59.168 52.3808 56.698 51.8517 55.394 52.3808C54.5947 52.7051 54.0156 52.8656 53.687 52.9412V53.0029C53.687 53.0029 53.6336 52.996 53.5295 52.9752C53.4254 52.996 53.372 53.0029 53.372 53.0029V52.9412C53.0434 52.8656 52.4643 52.7051 51.665 52.3808C50.3609 51.8517 47.891 52.3808 47.891 52.3808C47.891 52.3808 45.3097 52.7045 43.1151 51.8002C40.9204 50.896 40.916 48.8278 40.916 48.8278V25.395Z" fill="#BF9937"/>
<mask id="mask1_908_6023" style="mask-type:alpha" maskUnits="userSpaceOnUse" x="40" y="25" width="27" height="29">
<path fill-rule="evenodd" clip-rule="evenodd" d="M40.916 25.395H53.372H53.687H66.143V48.8278C66.143 48.8278 66.1385 50.896 63.9439 51.8002C61.7493 52.7045 59.168 52.3808 59.168 52.3808C59.168 52.3808 56.698 51.8517 55.394 52.3808C54.5947 52.7051 54.0156 52.8656 53.687 52.9412V53.0029C53.687 53.0029 53.6336 52.996 53.5295 52.9752C53.4254 52.996 53.372 53.0029 53.372 53.0029V52.9412C53.0434 52.8656 52.4643 52.7051 51.665 52.3808C50.3609 51.8517 47.891 52.3808 47.891 52.3808C47.891 52.3808 45.3097 52.7045 43.1151 51.8002C40.9204 50.896 40.916 48.8278 40.916 48.8278V25.395Z" fill="white"/>
</mask>
<g mask="url(#mask1_908_6023)">
<rect x="40.5625" y="25.1011" width="12.2323" height="13" fill="#D00F3A"/>
<path fill-rule="evenodd" clip-rule="evenodd" d="M54.1543 25.1011H66.8397V38.1011H54.1543V25.1011Z" fill="#FEDF00"/>
<path fill-rule="evenodd" clip-rule="evenodd" d="M54.1543 39.5454H66.3866V53.0269H54.1543V39.5454Z" fill="#FEDF00"/>
<rect x="40.5625" y="39.5454" width="12.2323" height="13.4815" fill="#FEDF00"/>
<path fill-rule="evenodd" clip-rule="evenodd" d="M60.6366 48.4342C62.4843 48.4342 63.9822 46.9419 63.9822 45.1009C63.9822 43.26 62.4843 41.7676 60.6366 41.7676C58.7889 41.7676 57.291 43.26 57.291 45.1009C57.291 46.9419 58.7889 48.4342 60.6366 48.4342Z" fill="#D00F3A"/>
<path fill-rule="evenodd" clip-rule="evenodd" d="M46.9371 34.7854V27.3628L50.0866 30.9127L48.4688 34.7854C47.8726 34.5786 47.6638 35.0169 47.971 35.7976C48.154 36.2628 48.2986 36.5978 48.4396 36.8566C47.9033 36.3148 47.6797 35.976 47.6797 35.6119C47.6797 35.3173 47.6523 35.1148 47.5806 34.9816C47.5468 34.9189 47.2639 34.8585 47.0823 34.8197C47.0117 34.8047 46.9564 34.7928 46.9371 34.7854ZM45.4655 34.7854L43.8477 30.9127L46.9207 27.3901V34.8127C46.9007 34.8204 46.8485 34.8305 46.7833 34.8431C46.6239 34.874 46.387 34.9198 46.3537 34.9816C46.282 35.1148 46.2546 35.3173 46.2546 35.6119C46.2546 35.976 46.031 36.3148 45.4947 36.8566C45.6357 36.5978 45.7803 36.2628 45.9633 35.7976C46.2705 35.0169 46.0617 34.5786 45.4655 34.7854Z" fill="#FEDF00"/>
<rect x="56.9062" y="28.5977" width="6.69118" height="6.66667" fill="#D00F3A"/>
<path fill-rule="evenodd" clip-rule="evenodd" d="M43.9082 42.5356H50.5994V49.2023H43.9082V42.5356Z" fill="#D00F3A"/>
</g>
</g>
</svg>
