<svg width="107" height="80" viewBox="0 0 107 80" fill="none" xmlns="http://www.w3.org/2000/svg">
<mask id="mask0_908_6026" style="mask-type:alpha" maskUnits="userSpaceOnUse" x="0" y="0" width="107" height="80">
<rect x="0.587891" width="105.882" height="80" fill="white"/>
</mask>
<g mask="url(#mask0_908_6026)">
<path fill-rule="evenodd" clip-rule="evenodd" d="M0.587891 0H106.47V80H0.587891V0Z" fill="#73BE4A"/>
<path fill-rule="evenodd" clip-rule="evenodd" d="M0.587891 0V53.3333H106.47V0H0.587891Z" fill="#AF0100"/>
<rect x="0.587891" width="19.8529" height="80" fill="#F7FCFF"/>
<path fill-rule="evenodd" clip-rule="evenodd" d="M3.89664 0C5.7242 0 7.20544 1.4925 7.20544 3.3334C7.20544 5.1743 5.7242 6.6668 3.89664 6.6668C2.0695 6.6668 0.587891 5.1743 0.587891 3.3334C0.587891 1.4925 2.0695 0 3.89664 0ZM17.1322 0C18.9593 0 20.441 1.4925 20.441 3.3334C20.441 5.1743 18.9593 6.6668 17.1322 6.6668C15.3046 6.6668 13.8234 5.1743 13.8234 3.3334C13.8234 1.4925 15.3046 0 17.1322 0ZM7.20544 16.6668C7.20544 14.8256 5.7242 13.3334 3.89664 13.3334C2.0695 13.3334 0.587891 14.8256 0.587891 16.6668C0.587891 18.5077 2.0695 19.9999 3.89664 19.9999C5.7242 19.9999 7.20544 18.5077 7.20544 16.6668ZM17.1322 13.3334C18.9593 13.3334 20.441 14.8256 20.441 16.6668C20.441 18.5077 18.9593 19.9999 17.1322 19.9999C15.3046 19.9999 13.8234 18.5077 13.8234 16.6668C13.8234 14.8256 15.3046 13.3334 17.1322 13.3334ZM17.1322 60.0001C18.9593 60.0001 20.441 61.4923 20.441 63.3335C20.441 65.1743 18.9593 66.6666 17.1322 66.6666C15.3046 66.6666 13.8234 65.1743 13.8234 63.3335C13.8234 61.4923 15.3046 60.0001 17.1322 60.0001ZM7.20544 63.3335C7.20544 61.4923 5.7242 60.0001 3.89664 60.0001C2.0695 60.0001 0.587891 61.4923 0.587891 63.3335C0.587891 65.1743 2.0695 66.6666 3.89664 66.6666C5.7242 66.6666 7.20544 65.1743 7.20544 63.3335ZM3.89664 73.3334C5.7242 73.3334 7.20544 74.8257 7.20544 76.6666C7.20544 78.5077 5.7242 80 3.89664 80C2.0695 80 0.587891 78.5077 0.587891 76.6666C0.587891 74.8257 2.0695 73.3334 3.89664 73.3334ZM20.441 76.6666C20.441 74.8257 18.9593 73.3334 17.1322 73.3334C15.3046 73.3334 13.8234 74.8257 13.8234 76.6666C13.8234 78.5077 15.3046 80 17.1322 80C18.9593 80 20.441 78.5077 20.441 76.6666ZM10.5142 66.6666C12.3417 66.6666 13.8234 68.1591 13.8234 70C13.8234 71.8409 12.3417 73.3334 10.5142 73.3334C8.6871 73.3334 7.20544 71.8409 7.20544 70C7.20544 68.1591 8.6871 66.6666 10.5142 66.6666ZM13.8234 10C13.8234 8.1591 12.3417 6.6668 10.5142 6.6668C8.6871 6.6668 7.20544 8.1591 7.20544 10C7.20544 11.8409 8.6871 13.3334 10.5142 13.3334C12.3417 13.3334 13.8234 11.8409 13.8234 10ZM14.1871 40.129L20.441 46.6667V53.3332L20.5857 53.6428L10.8158 43.7925L2.03601 53.3332H0.588726V46.6667L7.14785 40.0944L0.588726 33.4813V26.6668H1.30938L10.7251 36.5099L20.1867 27.0293L20.441 26.6668V33.3331L14.1871 40.129ZM10.5142 19.9999C12.3417 19.9999 13.8234 21.4925 13.8234 23.3333C13.8234 25.1742 12.3417 26.6668 10.5142 26.6668C8.6871 26.6668 7.20544 25.1742 7.20544 23.3333C7.20544 21.4925 8.6871 19.9999 10.5142 19.9999ZM13.8234 56.6666C13.8234 54.8258 12.3417 53.3332 10.5142 53.3332C8.6871 53.3332 7.20544 54.8258 7.20544 56.6666C7.20544 58.5075 8.6871 60.0001 10.5142 60.0001C12.3417 60.0001 13.8234 58.5075 13.8234 56.6666Z" fill="#D0181A"/>
<path opacity="0.4" fill-rule="evenodd" clip-rule="evenodd" d="M0.587891 0H7.20544V6.6668H0.587891V0ZM7.20544 13.3334H0.587891V19.9999H7.20544V13.3334ZM0.587891 26.6668H7.20544V33.3333H0.587891V26.6668ZM7.20544 46.6667H0.587891V53.3332H7.20544V46.6667ZM0.587891 60.0001H7.20544V66.6666H0.587891V60.0001ZM7.20544 73.3334H0.587891V80H7.20544V73.3334ZM20.441 73.3334H13.8234V80H20.441V73.3334ZM20.441 0H13.8234V6.6668H20.441V0Z" fill="#8F181A"/>
</g>
</svg>
