<svg width="108" height="80" viewBox="0 0 108 80" fill="none" xmlns="http://www.w3.org/2000/svg">
<mask id="mask0_908_6070" style="mask-type:alpha" maskUnits="userSpaceOnUse" x="0" y="0" width="108" height="80">
<rect x="0.833984" width="106.392" height="80" fill="white"/>
</mask>
<g mask="url(#mask0_908_6070)">
<path fill-rule="evenodd" clip-rule="evenodd" d="M0.833984 0V80H107.226V0H0.833984Z" fill="#F7FCFF"/>
<mask id="mask1_908_6070" style="mask-type:alpha" maskUnits="userSpaceOnUse" x="0" y="0" width="108" height="80">
<path fill-rule="evenodd" clip-rule="evenodd" d="M0.833984 0V80H107.226V0H0.833984Z" fill="white"/>
</mask>
<g mask="url(#mask1_908_6070)">
<path fill-rule="evenodd" clip-rule="evenodd" d="M0.833984 0V26.6667H107.226V0H0.833984Z" fill="#E31D1C"/>
<path fill-rule="evenodd" clip-rule="evenodd" d="M0.833984 53.333V79.9997H107.226V53.333H0.833984Z" fill="#3D58DB"/>
<rect x="34.3359" y="21.3242" width="37.9021" height="13.3333" fill="#E31D1C"/>
<path d="M34.6528 28.2715H71.4631C71.5631 30.2253 71.5887 35.895 71.5882 41.2043C71.588 43.9866 71.5807 46.6648 71.5734 48.6474C71.5698 49.6387 71.5662 50.4562 71.5635 51.0257L71.5602 51.6849L71.5593 51.8578L71.5591 51.8984L71.5557 51.9215C71.5517 51.9489 71.5454 51.9902 71.5363 52.0446C71.5182 52.1535 71.4893 52.3145 71.4464 52.5202C71.3605 52.9318 71.2189 53.522 70.9962 54.2311C70.5506 55.6502 69.7821 57.5409 68.4917 59.4298C65.9184 63.1965 61.2578 66.9772 52.8664 66.9772C44.4766 66.9772 40.0011 63.1903 37.6103 59.4216C36.4106 57.5305 35.7323 55.6373 35.3541 54.2157C35.1652 53.5054 35.0515 52.9143 34.9853 52.502C34.9521 52.2959 34.9308 52.1346 34.9179 52.0256C34.9114 51.9711 34.9071 51.9297 34.9043 51.9023L34.9014 51.8721L34.9014 51.8719L34.9014 51.8679L34.9009 51.824L34.8988 51.6524L34.8909 50.9979L34.8626 48.6358C34.8393 46.666 34.8081 44.0035 34.777 41.2329C34.7177 35.9597 34.6584 30.2976 34.6528 28.2715Z" fill="#F7FCFF" stroke="#E31D1C" stroke-width="0.5625"/>
<mask id="mask2_908_6070" style="mask-type:alpha" maskUnits="userSpaceOnUse" x="34" y="27" width="38" height="41">
<path d="M34.6528 28.2715H71.4631C71.5631 30.2253 71.5887 35.895 71.5882 41.2043C71.588 43.9866 71.5807 46.6648 71.5734 48.6474C71.5698 49.6387 71.5662 50.4562 71.5635 51.0257L71.5602 51.6849L71.5593 51.8578L71.5591 51.8984L71.5557 51.9215C71.5517 51.9489 71.5454 51.9902 71.5363 52.0446C71.5182 52.1535 71.4893 52.3145 71.4464 52.5202C71.3605 52.9318 71.2189 53.522 70.9962 54.2311C70.5506 55.6502 69.7821 57.5409 68.4917 59.4298C65.9184 63.1965 61.2578 66.9772 52.8664 66.9772C44.4766 66.9772 40.0011 63.1903 37.6103 59.4216C36.4106 57.5305 35.7323 55.6373 35.3541 54.2157C35.1652 53.5054 35.0515 52.9143 34.9853 52.502C34.9521 52.2959 34.9308 52.1346 34.9179 52.0256C34.9114 51.9711 34.9071 51.9297 34.9043 51.9023L34.9014 51.8721L34.9014 51.8719L34.9014 51.8679L34.9009 51.824L34.8988 51.6524L34.8909 50.9979L34.8626 48.6358C34.8393 46.666 34.8081 44.0035 34.777 41.2329C34.7177 35.9597 34.6584 30.2976 34.6528 28.2715Z" fill="white" stroke="white" stroke-width="0.5625"/>
</mask>
<g mask="url(#mask2_908_6070)">
<path fill-rule="evenodd" clip-rule="evenodd" d="M35.7402 30.1318H42.7534V37.2715H35.7402V30.1318ZM42.7534 37.2715H49.7665V44.4112H42.7534V37.2715ZM42.7534 51.5508V44.4112H35.7402V51.5508H42.7534ZM49.7665 51.5508H42.7534V58.6905H35.7402V65.8302H42.7534V58.6905H49.7665V65.8302H56.7796V58.6905H63.7927V65.8302H70.8059V58.6905H63.7927V51.5508H70.8059V44.4112H63.7927V37.2715H56.7796V44.4112H49.7665V51.5508ZM56.7796 51.5508V44.4112H63.7927V51.5508H56.7796ZM56.7796 51.5508H49.7665V58.6905H56.7796V51.5508ZM56.7796 30.1318H49.7665V37.2715H56.7796V30.1318ZM63.7927 30.1318H70.8059V37.2715H63.7927V30.1318Z" fill="#F50100"/>
</g>
<path fill-rule="evenodd" clip-rule="evenodd" d="M35.5882 27.2082C35.5882 27.2082 37.7574 26.0465 39.6076 25.4479C41.4577 24.8492 42.9201 24.5221 42.9201 24.5221L40.1674 14.3485L34.6539 12.2832L31.5312 17.4435L35.5882 27.2082Z" fill="#56C6F5" stroke="white" stroke-width="0.15"/>
<path fill-rule="evenodd" clip-rule="evenodd" d="M49.1795 23.5856C49.1795 23.5856 51.0294 23.4201 52.9732 23.4579C54.917 23.4958 56.5613 23.5096 56.5613 23.5096L57.5107 13.4781L53.3471 9.70676L48.7188 13.5667L49.1795 23.5856Z" fill="#56C6F5" stroke="white" stroke-width="0.15"/>
<path d="M42.6958 24.3194L42.7174 24.3929L42.7905 24.3697L42.7678 24.2982L42.7905 24.3697L42.7906 24.3697L42.7908 24.3696L42.792 24.3692L42.7966 24.3678L42.8147 24.3621L42.8848 24.3403C42.9458 24.3214 43.0345 24.2941 43.145 24.2609C43.366 24.1944 43.6741 24.1038 44.0225 24.0076C44.7204 23.815 45.576 23.601 46.217 23.5117C46.8605 23.422 47.6501 23.3579 48.2799 23.3161C48.5945 23.2952 48.8689 23.2799 49.0645 23.2699C49.1623 23.2649 49.2405 23.2612 49.2941 23.2587L49.3557 23.256L49.3715 23.2553L49.3756 23.2551L49.3766 23.2551L49.3768 23.2551L49.3769 23.2551L49.3738 23.1801L49.3769 23.2551L49.4552 23.2518L49.4485 23.1737L48.6098 13.4256L48.6068 13.3911L48.5785 13.371L44.0478 10.145L43.9951 10.1074L43.9503 10.1541L39.8327 14.4338L39.8025 14.4651L39.8148 14.5069L42.6958 24.3194Z" fill="#2E42A5" stroke="white" stroke-width="0.15"/>
<mask id="mask3_908_6070" style="mask-type:alpha" maskUnits="userSpaceOnUse" x="39" y="10" width="11" height="15">
<path d="M42.6958 24.3194L42.7174 24.3929L42.7905 24.3697L42.7678 24.2982L42.7905 24.3697L42.7906 24.3697L42.7908 24.3696L42.792 24.3692L42.7966 24.3678L42.8147 24.3621L42.8848 24.3403C42.9458 24.3214 43.0345 24.2941 43.145 24.2609C43.366 24.1944 43.6741 24.1038 44.0225 24.0076C44.7204 23.815 45.576 23.601 46.217 23.5117C46.8605 23.422 47.6501 23.3579 48.2799 23.3161C48.5945 23.2952 48.8689 23.2799 49.0645 23.2699C49.1623 23.2649 49.2405 23.2612 49.2941 23.2587L49.3557 23.256L49.3715 23.2553L49.3756 23.2551L49.3766 23.2551L49.3768 23.2551L49.3769 23.2551L49.3738 23.1801L49.3769 23.2551L49.4552 23.2518L49.4485 23.1737L48.6098 13.4256L48.6068 13.3911L48.5785 13.371L44.0478 10.145L43.9951 10.1074L43.9503 10.1541L39.8327 14.4338L39.8025 14.4651L39.8148 14.5069L42.6958 24.3194Z" fill="white" stroke="white" stroke-width="0.15"/>
</mask>
<g mask="url(#mask3_908_6070)">
</g>
<path d="M63.3974 24.3177L63.377 24.3934L63.3023 24.3697L63.325 24.2982L63.3023 24.3697L63.3022 24.3697L63.3019 24.3696L63.3008 24.3692L63.2962 24.3678L63.2781 24.3621L63.208 24.3403C63.147 24.3214 63.0583 24.2941 62.9478 24.2609C62.7268 24.1944 62.4186 24.1038 62.0702 24.0076C61.3724 23.815 60.5167 23.601 59.8758 23.5117C59.2323 23.422 58.4427 23.3579 57.8129 23.3161C57.4982 23.2952 57.2239 23.2799 57.0282 23.2699C56.9304 23.2649 56.8523 23.2612 56.7986 23.2587L56.7371 23.256L56.7212 23.2553L56.7172 23.2551L56.7162 23.2551L56.716 23.2551L56.7159 23.2551L56.719 23.1801L56.7159 23.2551L56.6375 23.2518L56.6442 23.1737L57.483 13.4256L57.486 13.3911L57.5142 13.371L62.0449 10.145L62.0991 10.1064L62.1439 10.1556L66.0262 14.4191L66.0538 14.4495L66.0431 14.4891L63.3974 24.3177Z" fill="#2E42A5" stroke="white" stroke-width="0.15"/>
<mask id="mask4_908_6070" style="mask-type:alpha" maskUnits="userSpaceOnUse" x="56" y="10" width="11" height="15">
<path d="M63.3974 24.3177L63.377 24.3934L63.3023 24.3697L63.325 24.2982L63.3023 24.3697L63.3022 24.3697L63.3019 24.3696L63.3008 24.3692L63.2962 24.3678L63.2781 24.3621L63.208 24.3403C63.147 24.3214 63.0583 24.2941 62.9478 24.2609C62.7268 24.1944 62.4186 24.1038 62.0702 24.0076C61.3724 23.815 60.5167 23.601 59.8758 23.5117C59.2323 23.422 58.4427 23.3579 57.8129 23.3161C57.4982 23.2952 57.2239 23.2799 57.0282 23.2699C56.9304 23.2649 56.8523 23.2612 56.7986 23.2587L56.7371 23.256L56.7212 23.2553L56.7172 23.2551L56.7162 23.2551L56.716 23.2551L56.7159 23.2551L56.719 23.1801L56.7159 23.2551L56.6375 23.2518L56.6442 23.1737L57.483 13.4256L57.486 13.3911L57.5142 13.371L62.0449 10.145L62.0991 10.1064L62.1439 10.1556L66.0262 14.4191L66.0538 14.4495L66.0431 14.4891L63.3974 24.3177Z" fill="white" stroke="white" stroke-width="0.15"/>
</mask>
<g mask="url(#mask4_908_6070)">
</g>
<path d="M71.1335 26.9839L71.1011 27.0587L71.0292 27.0203L71.0646 26.9541L71.0292 27.0203L71.0291 27.0202L71.0289 27.0201L71.0277 27.0195L71.0231 27.017L71.0047 27.0072L70.933 26.9695C70.8703 26.9367 70.7786 26.8891 70.6628 26.8301C70.431 26.7121 70.1027 26.5486 69.7168 26.3663C68.9443 26.0016 67.9428 25.5631 67.0222 25.2652C66.0988 24.9664 65.272 24.7353 64.6762 24.579C64.3783 24.5008 64.1382 24.4414 63.9726 24.4015C63.8898 24.3815 63.8257 24.3664 63.7823 24.3564L63.733 24.345L63.7205 24.3422L63.7174 24.3415L63.7167 24.3413L63.7165 24.3413L63.7164 24.3413L63.7328 24.2681L63.7164 24.3413L63.639 24.324L63.6606 24.2476L66.4733 14.328L66.4837 14.2915L66.5192 14.2782L72.0327 12.213L72.0909 12.1911L72.1232 12.2444L75.2458 17.4047L75.2658 17.4378L75.2505 17.4733L71.1335 26.9839Z" fill="#56C6F5" stroke="white" stroke-width="0.15"/>
<mask id="mask5_908_6070" style="mask-type:alpha" maskUnits="userSpaceOnUse" x="63" y="12" width="13" height="16">
<path d="M71.1335 26.9839L71.1011 27.0587L71.0292 27.0203L71.0646 26.9541L71.0292 27.0203L71.0291 27.0202L71.0289 27.0201L71.0277 27.0195L71.0231 27.017L71.0047 27.0072L70.933 26.9695C70.8703 26.9367 70.7786 26.8891 70.6628 26.8301C70.431 26.7121 70.1027 26.5486 69.7168 26.3663C68.9443 26.0016 67.9428 25.5631 67.0222 25.2652C66.0988 24.9664 65.272 24.7353 64.6762 24.579C64.3783 24.5008 64.1382 24.4414 63.9726 24.4015C63.8898 24.3815 63.8257 24.3664 63.7823 24.3564L63.733 24.345L63.7205 24.3422L63.7174 24.3415L63.7167 24.3413L63.7165 24.3413L63.7164 24.3413L63.7328 24.2681L63.7164 24.3413L63.639 24.324L63.6606 24.2476L66.4733 14.328L66.4837 14.2915L66.5192 14.2782L72.0327 12.213L72.0909 12.1911L72.1232 12.2444L75.2458 17.4047L75.2658 17.4378L75.2505 17.4733L71.1335 26.9839Z" fill="white" stroke="white" stroke-width="0.15"/>
</mask>
<g mask="url(#mask5_908_6070)">
</g>
</g>
</g>
</svg>
