<svg width="107" height="80" viewBox="0 0 107 80" fill="none" xmlns="http://www.w3.org/2000/svg">
<mask id="mask0_908_6103" style="mask-type:alpha" maskUnits="userSpaceOnUse" x="0" y="0" width="107" height="80">
<rect width="106.667" height="80" fill="white"/>
</mask>
<g mask="url(#mask0_908_6103)">
<path fill-rule="evenodd" clip-rule="evenodd" d="M0 0V80H106.667V0H0Z" fill="#2E42A5"/>
<mask id="mask1_908_6103" style="mask-type:alpha" maskUnits="userSpaceOnUse" x="0" y="0" width="107" height="80">
<path fill-rule="evenodd" clip-rule="evenodd" d="M0 0V80H106.667V0H0Z" fill="white"/>
</mask>
<g mask="url(#mask1_908_6103)">
<path fill-rule="evenodd" clip-rule="evenodd" d="M0 0V40H106.667V0H0Z" fill="#FECA00"/>
<path fill-rule="evenodd" clip-rule="evenodd" d="M0 60V80H106.667V60H0Z" fill="#E31D1C"/>
<path fill-rule="evenodd" clip-rule="evenodd" d="M30.7089 19.306C30.3075 18.4006 45.7442 13.8193 46.9009 13.8193C48.0575 13.8193 49.5206 16.5627 49.5206 16.5627L58.9085 17.322C58.9085 17.322 57.7995 13.8193 58.9085 13.8193C60.0176 13.8193 77.0139 19.7232 77.0139 19.7232C77.0139 19.7232 55.767 22.2843 55.767 22.861C55.767 23.4377 57.1588 26.6035 57.1588 26.6035L53.2295 27.8911C53.2295 27.8911 53.4603 24.0758 52.8196 24.0758C52.179 24.0758 50.277 28.6391 50.277 28.6391L48.412 22.861C48.412 22.861 31.1102 20.2113 30.7089 19.306Z" fill="#7B2900"/>
<path d="M30.7748 33.3926L34.9773 34.3975C30.5803 52.7852 34.6445 61.6035 47.1588 62.423L46.8764 66.7347C31.1938 65.7078 25.8302 54.0702 30.7748 33.3926Z" fill="#FECA00"/>
<path d="M33.3333 30.9141L37.6023 31.5821C34.5911 50.8245 37.0026 59.5252 43.7615 59.2872L43.9136 63.6055C33.1151 63.9858 29.9468 52.5544 33.3333 30.9141Z" fill="#07138E"/>
<path d="M37.6555 29.1494L41.9246 29.8175C38.9134 49.0598 41.3249 57.7606 48.0837 57.5225L48.2358 61.8409C37.4374 62.2212 34.2691 50.7897 37.6555 29.1494Z" fill="#E10001"/>
<path d="M45.673 64.2444L49.9737 63.8262C50.3278 67.4676 50.0596 70.6074 49.1371 73.2438L45.0586 71.8167C45.7549 69.8267 45.9704 67.3032 45.673 64.2444Z" fill="#07138E"/>
<path d="M71.6661 33.8955C71.6661 33.8955 78.5531 64.8714 57.3313 64.3353" stroke="#FECA00" stroke-width="0.648148"/>
<path d="M71.2077 30.9141L66.9387 31.5821C69.9499 50.8245 67.5384 59.5252 60.7795 59.2872L60.6275 63.6055C71.4259 63.9858 74.5942 52.5544 71.2077 30.9141Z" fill="#07138E"/>
<path d="M66.8874 29.1494L62.6184 29.8175C65.6296 49.0598 63.2181 57.7606 56.4592 57.5225L56.3071 61.8409C67.1056 62.2212 70.2739 50.7897 66.8874 29.1494Z" fill="#E10001"/>
<path d="M58.029 64.2679L53.7332 63.8018C53.3724 67.127 53.6469 70.0076 54.5941 72.4333L58.6191 70.8616C57.9475 69.1414 57.7383 66.9469 58.029 64.2679Z" fill="#07138E"/>
<path fill-rule="evenodd" clip-rule="evenodd" d="M46.2207 58.333H59.1837V64.5095H46.2207V58.333Z" fill="#908F89"/>
<path d="M52.7029 58.583C55.7867 58.583 58.5557 56.8469 60.5442 54.0857C62.533 51.3241 63.7553 47.5217 63.7553 43.333C63.7553 39.1443 62.533 35.3419 60.5442 32.5803C58.5557 29.8191 55.7867 28.083 52.7029 28.083C49.6191 28.083 46.85 29.8191 44.8615 32.5803C42.8727 35.3419 41.6504 39.1443 41.6504 43.333C41.6504 47.5217 42.8727 51.3241 44.8615 54.0857C46.85 56.8469 49.6191 58.583 52.7029 58.583Z" stroke="#FEE901" stroke-width="0.5"/>
<mask id="mask2_908_6103" style="mask-type:alpha" maskUnits="userSpaceOnUse" x="41" y="27" width="24" height="32">
<path d="M52.7029 58.583C55.7867 58.583 58.5557 56.8469 60.5442 54.0857C62.533 51.3241 63.7553 47.5217 63.7553 43.333C63.7553 39.1443 62.533 35.3419 60.5442 32.5803C58.5557 29.8191 55.7867 28.083 52.7029 28.083C49.6191 28.083 46.85 29.8191 44.8615 32.5803C42.8727 35.3419 41.6504 39.1443 41.6504 43.333C41.6504 47.5217 42.8727 51.3241 44.8615 54.0857C46.85 56.8469 49.6191 58.583 52.7029 58.583Z" fill="white" stroke="white" stroke-width="0.5"/>
</mask>
<g mask="url(#mask2_908_6103)">
<path fill-rule="evenodd" clip-rule="evenodd" d="M60.5266 51.3502C60.5266 51.3502 55.275 48.4925 53.7678 47.4738C52.2605 46.4551 53.1307 44.1825 50.5347 44.7899C47.9387 45.3973 45.8532 46.4551 45.8532 49.3551C45.8532 52.255 43.815 53.9767 43.1204 51.9953C42.4258 50.014 39.1596 40.749 43.1204 40.749C47.0812 40.749 56.3394 42.8268 59.0647 42.8268C61.79 42.8268 63.3765 44.2409 63.3765 46.798C63.3765 50.2374 60.5266 51.3502 60.5266 51.3502Z" fill="#8DDD61"/>
<path fill-rule="evenodd" clip-rule="evenodd" d="M52.7035 36.2741C53.8967 36.2741 54.864 35.2865 54.864 34.0682C54.864 32.8499 53.8967 31.8623 52.7035 31.8623C51.5103 31.8623 50.543 32.8499 50.543 34.0682C50.543 35.2865 51.5103 36.2741 52.7035 36.2741Z" fill="#FEE901"/>
<path fill-rule="evenodd" clip-rule="evenodd" d="M45.5635 36.4676C45.5635 36.4676 48.0767 35.8598 51.5493 38.1999C55.0219 40.5401 63.4413 41.8727 63.4413 40.0363C63.4413 38.1999 63.4413 43.6134 63.4413 43.6134C63.4413 43.6134 44.7595 42.4503 43.7601 43.6134C42.7606 44.7766 42.6609 37.1177 43.7601 36.4676C44.8593 35.8175 45.5635 36.4676 45.5635 36.4676Z" fill="#F7FCFF"/>
</g>
</g>
</g>
</svg>
