<svg width="107" height="80" viewBox="0 0 107 80" fill="none" xmlns="http://www.w3.org/2000/svg">
<mask id="mask0_908_6113" style="mask-type:alpha" maskUnits="userSpaceOnUse" x="0" y="0" width="107" height="80">
<rect width="106.667" height="80" fill="white"/>
</mask>
<g mask="url(#mask0_908_6113)">
<path fill-rule="evenodd" clip-rule="evenodd" d="M0 0V80H106.667V0H0Z" fill="#F7FCFF"/>
<mask id="mask1_908_6113" style="mask-type:alpha" maskUnits="userSpaceOnUse" x="0" y="0" width="107" height="80">
<path fill-rule="evenodd" clip-rule="evenodd" d="M0 0V80H106.667V0H0Z" fill="white"/>
</mask>
<g mask="url(#mask1_908_6113)">
<path fill-rule="evenodd" clip-rule="evenodd" d="M0 0V26.6667H106.667V0H0Z" fill="#BF2714"/>
<path fill-rule="evenodd" clip-rule="evenodd" d="M0 53.333V79.9997H106.667V53.333H0Z" fill="#272727"/>
<path d="M40.8671 34.0674L44.1969 34.22L43.3611 52.4527L40.0312 52.3001L40.8671 34.0674Z" fill="#C09302"/>
<path d="M44.3456 35.1992L47.6736 35.3874L46.8378 50.1718L43.5098 49.9836L44.3456 35.1992Z" fill="#C09302"/>
<path d="M47.828 36.3066L51.1502 36.5792L50.3144 46.7659L46.9922 46.4933L47.828 36.3066Z" fill="#C09302"/>
<path d="M65.7989 34.0674L62.4691 34.22L63.3049 52.4527L66.6348 52.3001L65.7989 34.0674Z" fill="#C09302"/>
<path d="M62.3204 35.1992L58.9924 35.3874L59.8282 50.1718L63.1562 49.9836L62.3204 35.1992Z" fill="#C09302"/>
<path d="M58.838 36.3066L55.5158 36.5792L56.3517 46.7659L59.6738 46.4933L58.838 36.3066Z" fill="#C09302"/>
<path d="M53.2433 51.0896L49.9941 50.3451L51.3694 44.3428L54.6185 45.0872L53.2433 51.0896Z" fill="#C09302"/>
<path d="M55.7313 51.0896L58.9805 50.3451L57.6052 44.3428L54.3561 45.0872L55.7313 51.0896Z" fill="#C09302"/>
<path d="M54.9056 51.0347H51.5723V45.1416H54.9056V51.0347Z" fill="#C09302"/>
<path d="M48.7826 36.3779L52.1149 36.4597L51.9202 44.396L48.5879 44.3143L48.7826 36.3779Z" fill="#C09302"/>
<path d="M54.5795 36.3779L57.9118 36.4597L57.7171 44.396L54.3848 44.3143L54.5795 36.3779Z" fill="#C09302"/>
<path d="M44.459 53.0764L45.3247 49.8574C48.8615 50.8086 51.5772 51.279 53.429 51.279C55.2809 51.279 57.9966 50.8086 61.5334 49.8574L62.3991 53.0764C58.6044 54.0969 55.6287 54.6123 53.429 54.6123C51.2294 54.6123 48.2536 54.0969 44.459 53.0764Z" fill="#C09302"/>
<path d="M40.9408 34.0758C40.7186 31.8738 42.0074 30.3832 44.1916 30.5733C44.9098 30.6359 45.7164 30.8483 46.7908 31.2128C47.1047 31.3205 47.1047 31.3205 47.4098 31.4285C48.8867 31.9538 49.2878 32.0889 49.371 32.1067C49.0438 32.0325 50.0077 30.29 50.2288 29.9963C50.2549 30.1828 50.1439 30.1562 49.8775 30.1029L46.8707 29.5011L49.0111 27.3053C49.7592 26.5378 50.7556 26.1572 51.8925 26.1572C52.0104 26.1572 52.1203 26.1517 52.4815 26.1295C52.7487 26.1132 52.7487 26.1132 53.049 26.1008C55.1289 26.0334 56.6204 26.6215 56.6204 28.7604C56.6204 29.5256 56.7171 30.7561 56.8766 31.6896C56.9302 32.0036 57.0339 32.2975 56.7282 32.4266C56.7408 32.3152 57.4693 32.0277 58.6021 31.554L58.7381 31.4971C62.0296 30.1233 62.4141 29.9959 63.4751 30.6407C64.1822 31.0704 64.8554 31.8433 65.6097 32.9957L62.8208 34.8213C62.3343 34.078 61.9468 33.627 61.7623 33.5011C62.1816 33.7924 60.7693 34.2614 60.0221 34.5733L59.8882 34.6292C57.3256 35.7009 56.9878 35.8288 56.255 35.8288C54.2611 35.8288 53.5451 33.7863 53.3491 30.8611C52.7339 32.8863 50.8983 35.4422 49.3857 35.4422C48.7236 35.4422 49.0419 35.5469 46.2927 34.5691C46.0047 34.4672 46.0047 34.4672 45.7198 34.3694C44.887 34.0869 44.2861 33.9284 43.9071 33.8945C43.9227 33.8767 43.9785 33.8166 44.0412 33.763L40.9408 34.0758Z" fill="#C09302"/>
</g>
</g>
</svg>
