<svg width="120" height="80" viewBox="0 0 120 80" fill="none" xmlns="http://www.w3.org/2000/svg">
<g clip-path="url(#clip0_908_5945)">
<path d="M119.322 0H0V80H119.322V0Z" fill="#003399"/>
<path d="M59.662 8.88867L60.6543 11.9596L63.8651 11.9597L61.2676 13.8578L62.2596 16.9288L59.662 15.0309L57.0644 16.9288L58.0565 13.8578L55.459 11.9597L58.6697 11.9596L59.662 8.88867Z" fill="#FFCC00"/>
<path d="M82.6425 48.8887L83.6348 51.9596L86.8455 51.9597L84.2481 53.8578L85.2401 56.9288L82.6425 55.0309L80.0449 56.9288L81.0369 53.8578L78.4395 51.9597L81.6502 51.9596L82.6425 48.8887Z" fill="#FFCC00"/>
<path d="M59.662 62.2222L60.6543 65.2931L63.8651 65.2932L61.2676 67.1913L62.2596 70.2622L59.662 68.3644L57.0644 70.2622L58.0565 67.1913L55.459 65.2932L58.6697 65.2931L59.662 62.2222Z" fill="#FFCC00"/>
<path d="M86.1776 35.5557L87.1699 38.6266L90.3807 38.6267L87.7832 40.5248L88.7753 43.5957L86.1776 41.6979L83.58 43.5957L84.5721 40.5248L81.9746 38.6267L85.1854 38.6266L86.1776 35.5557Z" fill="#FFCC00"/>
<path d="M33.1444 35.5557L34.1367 38.6266L37.3475 38.6267L34.75 40.5248L35.7421 43.5957L33.1444 41.6979L30.5468 43.5957L31.5389 40.5248L28.9414 38.6267L32.1522 38.6266L33.1444 35.5557Z" fill="#FFCC00"/>
<path d="M72.9198 12.4443L73.9121 15.5153L77.1229 15.5154L74.5254 17.4134L75.5175 20.4844L72.9198 18.5866L70.3222 20.4844L71.3143 17.4134L68.7168 15.5154L71.9275 15.5153L72.9198 12.4443Z" fill="#FFCC00"/>
<path d="M46.4023 12.4443L47.3946 15.5153L50.6053 15.5154L48.0078 17.4134L48.9999 20.4844L46.4023 18.5866L43.8046 20.4844L44.7967 17.4134L42.1992 15.5154L45.41 15.5153L46.4023 12.4443Z" fill="#FFCC00"/>
<path d="M46.4023 58.6665L47.3946 61.7374L50.6053 61.7375L48.0078 63.6356L48.9999 66.7066L46.4023 64.8087L43.8046 66.7066L44.7967 63.6356L42.1992 61.7375L45.41 61.7374L46.4023 58.6665Z" fill="#FFCC00"/>
<path d="M72.9198 58.6665L73.9121 61.7374L77.1229 61.7375L74.5254 63.6356L75.5175 66.7066L72.9198 64.8087L70.3222 66.7066L71.3143 63.6356L68.7168 61.7375L71.9275 61.7374L72.9198 58.6665Z" fill="#FFCC00"/>
<path d="M82.6425 22.2222L83.6348 25.2931L86.8455 25.2932L84.2481 27.1913L85.2401 30.2622L82.6425 28.3644L80.0449 30.2622L81.0369 27.1913L78.4395 25.2932L81.6502 25.2931L82.6425 22.2222Z" fill="#FFCC00"/>
<path d="M36.6796 22.2222L37.6719 25.2931L40.8826 25.2932L38.2852 27.1913L39.2772 30.2622L36.6796 28.3644L34.082 30.2622L35.074 27.1913L32.4766 25.2932L35.6873 25.2931L36.6796 22.2222Z" fill="#FFCC00"/>
<path d="M36.6796 48.8887L37.6719 51.9596L40.8826 51.9597L38.2852 53.8578L39.2772 56.9288L36.6796 55.0309L34.082 56.9288L35.074 53.8578L32.4766 51.9597L35.6873 51.9596L36.6796 48.8887Z" fill="#FFCC00"/>
</g>
<defs>
<clipPath id="clip0_908_5945">
<rect width="119.322" height="80" fill="white"/>
</clipPath>
</defs>
</svg>
