<svg width="107" height="80" viewBox="0 0 107 80" fill="none" xmlns="http://www.w3.org/2000/svg">
<mask id="mask0_908_6138" style="mask-type:alpha" maskUnits="userSpaceOnUse" x="0" y="0" width="107" height="80">
<rect width="106.667" height="80" fill="white"/>
</mask>
<g mask="url(#mask0_908_6138)">
<path fill-rule="evenodd" clip-rule="evenodd" d="M0 0V80H106.667V0H0Z" fill="#F7FCFF"/>
<mask id="mask1_908_6138" style="mask-type:alpha" maskUnits="userSpaceOnUse" x="0" y="0" width="107" height="80">
<path fill-rule="evenodd" clip-rule="evenodd" d="M0 0V80H106.667V0H0Z" fill="white"/>
</mask>
<g mask="url(#mask1_908_6138)">
<path fill-rule="evenodd" clip-rule="evenodd" d="M0 0V26.6667H106.667V0H0Z" fill="#5EAA22"/>
<path fill-rule="evenodd" clip-rule="evenodd" d="M0 53.333V79.9997H106.667V53.333H0Z" fill="#E31D1C"/>
<path d="M1.24228 57.89H-6.33789" stroke="#F7FCFF" stroke-width="0.5"/>
<path d="M1.12755 60.8209H-0.128906V59.1881H2.51653V57.8506V60.8209H3.71365V57.8506" stroke="#F7FCFF" stroke-width="0.5"/>
<path d="M5.06097 58.0273C5.06097 58.1915 5.06097 60.8335 5.06097 60.8335H3.81836" stroke="#F7FCFF" stroke-width="0.5"/>
<path d="M14.2501 57.89H6.66992" stroke="#F7FCFF" stroke-width="0.5"/>
<path d="M6.5918 60.8914V59.1514H9.05935V60.833H11.5528V59.1532H10.2592" stroke="#F7FCFF" stroke-width="0.5"/>
<path d="M14.3678 60.8209H13.1113V59.1881H15.7568V57.8506V60.8209H16.9539V57.8506" stroke="#F7FCFF" stroke-width="0.5"/>
<path d="M18.3012 58.0273C18.3012 58.1915 18.3012 60.8335 18.3012 60.8335H17.0586" stroke="#F7FCFF" stroke-width="0.5"/>
<path d="M27.4903 57.89H19.9102" stroke="#F7FCFF" stroke-width="0.5"/>
<path d="M19.832 60.8914V59.1514H22.2996V60.833H24.793V59.1532H23.4994" stroke="#F7FCFF" stroke-width="0.5"/>
<path d="M27.3756 60.8209H26.1191V59.1881H28.7646V57.8506V60.8209H29.9617V57.8506" stroke="#F7FCFF" stroke-width="0.5"/>
<path d="M31.309 58.0273C31.309 58.1915 31.309 60.8335 31.309 60.8335H30.0664" stroke="#F7FCFF" stroke-width="0.5"/>
<path d="M40.4981 57.89H32.918" stroke="#F7FCFF" stroke-width="0.5"/>
<path d="M32.8398 60.8914V59.1514H35.3074V60.833H37.8008V59.1532H36.5072" stroke="#F7FCFF" stroke-width="0.5"/>
<path d="M40.3854 60.8209H39.1289V59.1881H41.7743V57.8506V60.8209H42.9715V57.8506" stroke="#F7FCFF" stroke-width="0.5"/>
<path d="M44.3188 58.0273C44.3188 58.1915 44.3188 60.8335 44.3188 60.8335H43.0762" stroke="#F7FCFF" stroke-width="0.5"/>
<path d="M53.5079 57.89H45.9277" stroke="#F7FCFF" stroke-width="0.5"/>
<path d="M45.8496 60.8914V59.1514H48.3172V60.833H50.8106V59.1532H49.517" stroke="#F7FCFF" stroke-width="0.5"/>
<path d="M53.6256 60.8209H52.3691V59.1881H55.0146V57.8506V60.8209H56.2117V57.8506" stroke="#F7FCFF" stroke-width="0.5"/>
<path d="M57.559 58.0273C57.559 58.1915 57.559 60.8335 57.559 60.8335H56.3164" stroke="#F7FCFF" stroke-width="0.5"/>
<path d="M66.7481 57.89H59.168" stroke="#F7FCFF" stroke-width="0.5"/>
<path d="M59.0898 60.8914V59.1514H61.5574V60.833H64.0508V59.1532H62.7572" stroke="#F7FCFF" stroke-width="0.5"/>
<path d="M66.8658 60.8209H65.6094V59.1881H68.2548V57.8506V60.8209H69.4519V57.8506" stroke="#F7FCFF" stroke-width="0.5"/>
<path d="M70.7992 58.0273C70.7992 58.1915 70.7992 60.8335 70.7992 60.8335H69.5566" stroke="#F7FCFF" stroke-width="0.5"/>
<path d="M79.9884 57.89H72.4082" stroke="#F7FCFF" stroke-width="0.5"/>
<path d="M72.3301 60.8914V59.1514H74.7976V60.833H77.2911V59.1532H75.9974" stroke="#F7FCFF" stroke-width="0.5"/>
<path d="M80.1061 60.8209H78.8496V59.1881H81.495V57.8506V60.8209H82.6922V57.8506" stroke="#F7FCFF" stroke-width="0.5"/>
<path d="M84.0395 58.0273C84.0395 58.1915 84.0395 60.8335 84.0395 60.8335H82.7969" stroke="#F7FCFF" stroke-width="0.5"/>
<path d="M93.2286 57.89H85.6484" stroke="#F7FCFF" stroke-width="0.5"/>
<path d="M85.5703 60.8914V59.1514H88.0379V60.833H90.5313V59.1532H89.2377" stroke="#F7FCFF" stroke-width="0.5"/>
<path d="M93.1139 60.8209H91.8574V59.1881H94.5029V57.8506V60.8209H95.7V57.8506" stroke="#F7FCFF" stroke-width="0.5"/>
<path d="M97.0473 58.0273C97.0473 58.1915 97.0473 60.8335 97.0473 60.8335H95.8047" stroke="#F7FCFF" stroke-width="0.5"/>
<path d="M106.236 57.89H98.6562" stroke="#F7FCFF" stroke-width="0.5"/>
<path d="M98.5781 60.8914V59.1514H101.046V60.833H103.539V59.1532H102.245" stroke="#F7FCFF" stroke-width="0.5"/>
<path d="M106.819 60.8209H105.562V59.1881H108.208V57.8506V60.8209H109.405V57.8506" stroke="#F7FCFF" stroke-width="0.5"/>
<path d="M1.24228 17.223H-6.33789" stroke="#F7FCFF" stroke-width="0.5"/>
<path d="M1.12755 20.1539H-0.128906V18.5211H2.51653V17.1836V20.1539H3.71365V17.1836" stroke="#F7FCFF" stroke-width="0.5"/>
<path d="M5.06097 17.3604C5.06097 17.5245 5.06097 20.1665 5.06097 20.1665H3.81836" stroke="#F7FCFF" stroke-width="0.5"/>
<path d="M14.2501 17.223H6.66992" stroke="#F7FCFF" stroke-width="0.5"/>
<path d="M6.5918 20.2244V18.4844H9.05935V20.166H11.5528V18.4862H10.2592" stroke="#F7FCFF" stroke-width="0.5"/>
<path d="M14.3678 20.1539H13.1113V18.5211H15.7568V17.1836V20.1539H16.9539V17.1836" stroke="#F7FCFF" stroke-width="0.5"/>
<path d="M18.3012 17.3604C18.3012 17.5245 18.3012 20.1665 18.3012 20.1665H17.0586" stroke="#F7FCFF" stroke-width="0.5"/>
<path d="M27.4903 17.223H19.9102" stroke="#F7FCFF" stroke-width="0.5"/>
<path d="M19.832 20.2244V18.4844H22.2996V20.166H24.793V18.4862H23.4994" stroke="#F7FCFF" stroke-width="0.5"/>
<path d="M27.3756 20.1539H26.1191V18.5211H28.7646V17.1836V20.1539H29.9617V17.1836" stroke="#F7FCFF" stroke-width="0.5"/>
<path d="M31.309 17.3604C31.309 17.5245 31.309 20.1665 31.309 20.1665H30.0664" stroke="#F7FCFF" stroke-width="0.5"/>
<path d="M40.4981 17.223H32.918" stroke="#F7FCFF" stroke-width="0.5"/>
<path d="M32.8398 20.2244V18.4844H35.3074V20.166H37.8008V18.4862H36.5072" stroke="#F7FCFF" stroke-width="0.5"/>
<path d="M40.3854 20.1539H39.1289V18.5211H41.7743V17.1836V20.1539H42.9715V17.1836" stroke="#F7FCFF" stroke-width="0.5"/>
<path d="M44.3188 17.3604C44.3188 17.5245 44.3188 20.1665 44.3188 20.1665H43.0762" stroke="#F7FCFF" stroke-width="0.5"/>
<path d="M53.5079 17.223H45.9277" stroke="#F7FCFF" stroke-width="0.5"/>
<path d="M45.8496 20.2244V18.4844H48.3172V20.166H50.8106V18.4862H49.517" stroke="#F7FCFF" stroke-width="0.5"/>
<path d="M53.6256 20.1539H52.3691V18.5211H55.0146V17.1836V20.1539H56.2117V17.1836" stroke="#F7FCFF" stroke-width="0.5"/>
<path d="M57.559 17.3604C57.559 17.5245 57.559 20.1665 57.559 20.1665H56.3164" stroke="#F7FCFF" stroke-width="0.5"/>
<path d="M66.7481 17.223H59.168" stroke="#F7FCFF" stroke-width="0.5"/>
<path d="M59.0898 20.2244V18.4844H61.5574V20.166H64.0508V18.4862H62.7572" stroke="#F7FCFF" stroke-width="0.5"/>
<path d="M66.8658 20.1539H65.6094V18.5211H68.2548V17.1836V20.1539H69.4519V17.1836" stroke="#F7FCFF" stroke-width="0.5"/>
<path d="M70.7992 17.3604C70.7992 17.5245 70.7992 20.1665 70.7992 20.1665H69.5566" stroke="#F7FCFF" stroke-width="0.5"/>
<path d="M79.9884 17.223H72.4082" stroke="#F7FCFF" stroke-width="0.5"/>
<path d="M72.3301 20.2244V18.4844H74.7976V20.166H77.2911V18.4862H75.9974" stroke="#F7FCFF" stroke-width="0.5"/>
<path d="M80.1061 20.1539H78.8496V18.5211H81.495V17.1836V20.1539H82.6922V17.1836" stroke="#F7FCFF" stroke-width="0.5"/>
<path d="M84.0395 17.3604C84.0395 17.5245 84.0395 20.1665 84.0395 20.1665H82.7969" stroke="#F7FCFF" stroke-width="0.5"/>
<path d="M93.2286 17.223H85.6484" stroke="#F7FCFF" stroke-width="0.5"/>
<path d="M85.5703 20.2244V18.4844H88.0379V20.166H90.5313V18.4862H89.2377" stroke="#F7FCFF" stroke-width="0.5"/>
<path d="M93.1139 20.1539H91.8574V18.5211H94.5029V17.1836V20.1539H95.7V17.1836" stroke="#F7FCFF" stroke-width="0.5"/>
<path d="M97.0473 17.3604C97.0473 17.5245 97.0473 20.1665 97.0473 20.1665H95.8047" stroke="#F7FCFF" stroke-width="0.5"/>
<path d="M106.236 17.223H98.6562" stroke="#F7FCFF" stroke-width="0.5"/>
<path d="M98.5781 20.2244V18.4844H101.046V20.166H103.539V18.4862H102.245" stroke="#F7FCFF" stroke-width="0.5"/>
<path d="M106.819 20.1539H105.562V18.5211H108.208V17.1836V20.1539H109.405V17.1836" stroke="#F7FCFF" stroke-width="0.5"/>
<path fill-rule="evenodd" clip-rule="evenodd" d="M48.6871 27.5C48.6871 27.5 50.1116 28.25 51.5695 28.25C53.0274 28.25 54.4943 27.5 54.4943 27.5V28.5C54.4943 28.5 52.8929 29.25 51.4746 29.25C50.0562 29.25 48.6871 28.5 48.6871 28.5V27.5ZM38.1875 39.302C38.1875 33.3753 46.3275 29.5 46.3275 29.5C46.3275 29.5 41.6227 32.0207 41.6227 39.0536C41.6227 46.0866 44.0651 49.1322 44.0651 49.1322C44.0651 49.1322 38.1875 45.2287 38.1875 39.302ZM65.6464 38.9749C65.6464 33.0483 57.5141 29.5 57.5141 29.5C57.5141 29.5 62.2188 32.0207 62.2188 39.0536C62.2188 46.0866 59.7765 49.1322 59.7765 49.1322C59.7765 49.1322 65.6464 44.9016 65.6464 38.9749ZM43.7445 40.592C43.4344 34.6734 48.3579 29.3684 48.3579 29.3684C48.3579 29.3684 46.5659 31.8062 46.9339 38.8295C47.0603 41.2409 48.0102 44.8287 49.2069 46.9439V29.75H54.2069V47.0931C55.4052 45.1172 56.3285 41.7485 56.4567 39.302C56.8248 32.2787 55.1187 29.3684 55.1187 29.3684C55.1187 29.3684 60.0423 34.6734 59.7321 40.592C59.5473 44.1169 56.835 47.8448 54.6713 50.2836C55.7227 50.518 57.1319 50.8038 59.069 51.1862C59.1103 51.4005 58.6787 51.3906 57.821 51.3709C56.874 51.3491 55.4075 51.3154 53.485 51.5583C52.601 52.4643 51.9858 53.0013 51.9858 53.0013C51.9858 53.0013 51.8885 52.8699 51.7383 52.6881C51.5881 52.8699 51.4908 53.0013 51.4908 53.0013C51.4908 53.0013 50.8756 52.4643 49.9917 51.5583C48.0691 51.3154 46.6026 51.3491 45.6556 51.3709C44.7979 51.3906 44.3663 51.4005 44.4076 51.1862C46.3447 50.8038 47.7539 50.518 48.8053 50.2836C46.6416 47.8448 43.9293 44.1169 43.7445 40.592Z" fill="#E31D1C"/>
</g>
</g>
</svg>
