<svg width="107" height="80" viewBox="0 0 107 80" fill="none" xmlns="http://www.w3.org/2000/svg">
<mask id="mask0_908_6116" style="mask-type:alpha" maskUnits="userSpaceOnUse" x="0" y="0" width="107" height="80">
<rect width="106.667" height="80" fill="white"/>
</mask>
<g mask="url(#mask0_908_6116)">
<path fill-rule="evenodd" clip-rule="evenodd" d="M0 0H106.667V80H0V0Z" fill="#0067C2"/>
<path fill-rule="evenodd" clip-rule="evenodd" d="M0 0V26.6667H106.667V0H0Z" fill="#262626"/>
<path fill-rule="evenodd" clip-rule="evenodd" d="M0 53.333V79.9997H106.667V53.333H0Z" fill="#4D8B1D"/>
<path d="M0 26.167H-0.5V26.667V53.3337V53.8337H0H106.667H107.167V53.3337V26.667V26.167H106.667H0Z" fill="#E31C1C" stroke="#F5FBFF"/>
</g>
<path d="M65.4121 13.4346C66.1734 12.0655 68.2199 10.5704 71.5518 8.94944C71.6663 8.89373 71.8046 8.89054 71.9223 8.94089C72.1214 9.02609 72.2041 9.23678 72.1059 9.41101L37.5808 71.5049L35.7832 70.7358L66.2169 16.0005C64.8387 15.8036 64.5705 14.9483 65.4121 13.4346Z" fill="white"/>
<path d="M41.2196 13.4346C42.0612 14.9483 41.793 15.8036 40.4148 16.0005L70.8485 70.7358L69.0509 71.5049L34.5257 9.41101C34.4275 9.23678 34.5102 9.02609 34.7094 8.94089C34.8271 8.89054 34.9654 8.89373 35.0798 8.94944C38.4118 10.5704 40.4583 12.0655 41.2196 13.4346Z" fill="white"/>
<path fill-rule="evenodd" clip-rule="evenodd" d="M53.334 69.8239C57.3209 69.8239 73.334 57.2565 73.334 41.7538C73.334 26.251 57.3209 13.6836 53.334 13.6836C49.3471 13.6836 33.334 26.251 33.334 41.7538C33.334 57.2565 49.3471 69.8239 53.334 69.8239Z" fill="#E31C1C"/>
<mask id="mask1_908_6116" style="mask-type:alpha" maskUnits="userSpaceOnUse" x="33" y="13" width="41" height="57">
<path fill-rule="evenodd" clip-rule="evenodd" d="M53.334 69.8239C57.3209 69.8239 73.334 57.2565 73.334 41.7538C73.334 26.251 57.3209 13.6836 53.334 13.6836C49.3471 13.6836 33.334 26.251 33.334 41.7538C33.334 57.2565 49.3471 69.8239 53.334 69.8239Z" fill="white"/>
</mask>
<g mask="url(#mask1_908_6116)">
<path d="M16.668 66.3152C32.1319 66.3152 44.668 55.3187 44.668 41.7538C44.668 28.1889 32.1319 17.1924 16.668 17.1924C1.20399 17.1924 -11.332 28.1889 -11.332 41.7538C-11.332 55.3187 1.20399 66.3152 16.668 66.3152Z" fill="#262626"/>
<path d="M90 66.3152C105.464 66.3152 118 55.3187 118 41.7538C118 28.1889 105.464 17.1924 90 17.1924C74.536 17.1924 62 28.1889 62 41.7538C62 55.3187 74.536 66.3152 90 66.3152Z" fill="#262626"/>
<path fill-rule="evenodd" clip-rule="evenodd" d="M54.134 37.9998C55.9598 36.8619 57.334 31.906 57.334 25.9647C57.334 20.0234 55.9598 15.0675 54.134 13.9297V37.9998ZM52.134 37.6832C50.5111 36.1183 49.334 31.4636 49.334 25.9647C49.334 20.4659 50.5111 15.8111 52.134 14.2462V37.6832ZM52.134 45.8252V69.2622C50.5111 67.6973 49.334 63.0425 49.334 57.5437C49.334 52.0448 50.5111 47.3901 52.134 45.8252ZM54.134 69.5787V45.5086C55.9598 46.6465 57.334 51.6024 57.334 57.5437C57.334 63.485 55.9598 68.4409 54.134 69.5787Z" fill="#F5FBFF"/>
<path d="M53.334 38.2452C55.5431 38.2452 57.334 39.8161 57.334 41.7539C57.334 43.6918 55.5431 45.2627 53.334 45.2627C51.1248 45.2627 49.334 43.6918 49.334 41.7539C49.334 39.8161 51.1248 38.2452 53.334 38.2452Z" fill="#F5FBFF"/>
</g>
</svg>
