<svg width="107" height="80" viewBox="0 0 107 80" fill="none" xmlns="http://www.w3.org/2000/svg">
<mask id="mask0_908_6125" style="mask-type:alpha" maskUnits="userSpaceOnUse" x="0" y="0" width="107" height="80">
<rect width="106.667" height="80" fill="white"/>
</mask>
<g mask="url(#mask0_908_6125)">
<path fill-rule="evenodd" clip-rule="evenodd" d="M73.334 0H106.667V80H73.334V0Z" fill="#D9071E"/>
<path fill-rule="evenodd" clip-rule="evenodd" d="M0 0H40V80H0V0Z" fill="#3D58DB"/>
<path fill-rule="evenodd" clip-rule="evenodd" d="M33.334 0H73.334V80H33.334V0Z" fill="#FBCD17"/>
<path fill-rule="evenodd" clip-rule="evenodd" d="M72.3947 65.3809L68.8845 67.2988L57.2493 46.0028L60.7595 44.085L72.3947 65.3809ZM35.0449 65.893L38.5552 67.8108L50.1904 46.5149L46.6801 44.597L35.0449 65.893Z" fill="#FD1900"/>
<path fill-rule="evenodd" clip-rule="evenodd" d="M37.9266 31.2967V49.8011C37.9266 53.9118 34.3871 59.2689 32.602 61.2618C30.8169 63.2548 27.2715 67.8208 27.2715 67.8208V18.0277C27.2715 12.4425 32.602 10.5239 32.602 10.5239C32.602 10.5239 37.0281 11.3995 37.9266 18.0277V24.4876C39.2966 25.5664 43.8711 28.875 46.8262 27.4783C50.335 25.82 51.5469 21.0635 51.5469 21.0635C51.5469 21.0635 51.2188 16.2638 49.7786 16.2638C48.3385 16.2638 48.2234 9.50293 53.7388 9.50293C59.2542 9.50293 59.8971 12.109 59.8971 14.1864C59.8971 15.2754 59.0242 17.023 58.1935 18.6861C57.4395 20.1957 56.7203 21.6356 56.7203 22.45C56.7203 24.1616 58.01 27.4783 59.8971 27.4783C61.2206 27.4783 67.5869 25.005 71.2715 23.5276V18.0277C72.17 11.3995 76.5961 10.5239 76.5961 10.5239C76.5961 10.5239 81.9266 12.4425 81.9266 18.0277V67.8208C81.9266 67.8208 78.3812 63.2548 76.5961 61.2618C74.811 59.2689 71.2715 53.9118 71.2715 49.8011V31.2967H37.9266ZM43.8337 66.1073C47.439 63.7598 52.7128 53.2338 52.7128 53.2338L54.4638 53.6406C54.4638 53.6406 57.1374 60.6127 64.9985 66.1073C56.6192 68.3435 54.4638 72.8338 54.4638 72.8338C54.4638 69.2415 43.8337 66.1073 43.8337 66.1073ZM43.2531 59.4444C45.6831 59.4444 47.6531 57.579 47.6531 55.2778C47.6531 52.9766 45.6831 51.1111 43.2531 51.1111C40.823 51.1111 38.8531 52.9766 38.8531 55.2778C38.8531 57.579 40.823 59.4444 43.2531 59.4444ZM69.0664 55.2778C69.0664 57.579 67.0964 59.4444 64.6664 59.4444C62.2363 59.4444 60.2664 57.579 60.2664 55.2778C60.2664 52.9766 62.2363 51.1111 64.6664 51.1111C67.0964 51.1111 69.0664 52.9766 69.0664 55.2778Z" fill="#A77B3B"/>
<path d="M83.8012 34.6924L86.8609 36.0149L74.3957 64.8546L71.3359 63.5321L83.8012 34.6924Z" fill="#FDFF00"/>
<path opacity="0.3" fill-rule="evenodd" clip-rule="evenodd" d="M36.8008 26.1113H72.0008V51.5743C72.0008 51.5743 63.0438 54.2721 54.4008 58.6993C48.0207 53.9662 36.8008 51.5743 36.8008 51.5743V26.1113Z" fill="#E1E5E8"/>
<mask id="mask1_908_6125" style="mask-type:alpha" maskUnits="userSpaceOnUse" x="36" y="26" width="36" height="33">
<path fill-rule="evenodd" clip-rule="evenodd" d="M36.8008 26.1113H72.0008V51.5743C72.0008 51.5743 63.0438 54.2721 54.4008 58.6993C48.0207 53.9662 36.8008 51.5743 36.8008 51.5743V26.1113Z" fill="white"/>
</mask>
<g mask="url(#mask1_908_6125)">
<rect x="36.8008" y="42.7783" width="35.2" height="16.6667" fill="#3D58DB"/>
<rect x="36.8008" y="26.1113" width="35.2" height="16.6667" fill="#FD1900"/>
<path fill-rule="evenodd" clip-rule="evenodd" d="M52.6228 33.6077L49.955 33.8285L51.4937 31.753L49.854 29.6035L52.5353 29.9488L53.5635 27.5785L54.7062 29.9993L57.374 29.7785L55.8353 31.854L57.475 34.0035L54.7937 33.6583L53.7655 36.0285L52.6228 33.6077Z" fill="#FDFF00"/>
<path fill-rule="evenodd" clip-rule="evenodd" d="M47.8338 28.906C47.8338 28.906 40.6674 33.266 43.0562 36.3958C45.445 39.5256 48.4519 39.9262 48.4519 39.9262C48.4519 39.9262 41.1213 50.9239 54.0235 57.2068C67.8369 51.1415 60.5724 39.9262 60.5724 39.9262C60.5724 39.9262 64.8245 38.9855 65.6758 35.6014C66.5271 32.2174 60.1179 28.3359 60.1179 28.3359C60.1179 28.3359 64.1167 34.1319 63.2038 35.6014C62.2909 37.0709 57.4005 38.567 54.0235 38.567C50.6465 38.567 45.4319 37.6188 44.5903 35.051C43.7487 32.4832 47.8338 28.906 47.8338 28.906Z" fill="#FDFF00"/>
</g>
<path fill-rule="evenodd" clip-rule="evenodd" d="M15.7891 38.4298C15.7891 38.4298 19.3028 42.5839 22.6114 41.2257C25.9199 39.8675 25.1178 34.998 25.1178 34.998L22.6114 37.2718H20.4778V38.4298L18.8115 37.2718V38.4298H15.7891ZM18.1655 44.8134C18.1655 44.8134 22.4481 48.5485 25.3334 47.493C28.2187 46.4375 27.4942 41.3816 27.4942 41.3816L24.9878 43.6554H22.8542V44.8134L21.1879 43.6554V44.8134H18.1655ZM29.6982 53.2896C26.8129 54.3451 22.5303 50.61 22.5303 50.61H25.5527V49.452L27.219 50.61V49.452H29.3525L31.8589 47.1783C31.8589 47.1783 32.5835 52.2341 29.6982 53.2896Z" fill="#048F02"/>
<path fill-rule="evenodd" clip-rule="evenodd" d="M46.5976 7.49512H43.2642V9.48041H41.6953V12.8137H43.2642V18.6292H46.5976V12.8137H48.5048V9.48041H46.5976V7.49512Z" fill="#FDFF00"/>
<path fill-rule="evenodd" clip-rule="evenodd" d="M50.5271 11.2822L42.8066 13.2711L50.5271 15.7107V11.2822Z" fill="#DB4400"/>
</g>
</svg>
