<svg width="108" height="80" viewBox="0 0 108 80" fill="none" xmlns="http://www.w3.org/2000/svg">
<mask id="mask0_908_6073" style="mask-type:alpha" maskUnits="userSpaceOnUse" x="0" y="0" width="108" height="80">
<rect x="0.841797" width="106.374" height="80" fill="white"/>
</mask>
<g mask="url(#mask0_908_6073)">
<path fill-rule="evenodd" clip-rule="evenodd" d="M0.841797 0H107.215V80H0.841797V0Z" fill="#E8AA00"/>
<path fill-rule="evenodd" clip-rule="evenodd" d="M14.1387 13.333H93.9189V66.6663H14.1387V13.333Z" fill="#C51918"/>
<mask id="mask1_908_6073" style="mask-type:alpha" maskUnits="userSpaceOnUse" x="14" y="13" width="80" height="54">
<path fill-rule="evenodd" clip-rule="evenodd" d="M14.1387 13.333H93.9189V66.6663H14.1387V13.333Z" fill="white"/>
</mask>
<g mask="url(#mask1_908_6073)">
<path fill-rule="evenodd" clip-rule="evenodd" d="M68.0915 52.505C69.4472 52.505 70.5463 51.3756 70.5463 49.9825C70.5463 48.5893 69.4472 47.46 68.0915 47.46C66.7358 47.46 65.6367 48.5893 65.6367 49.9825C65.6367 51.3756 66.7358 52.505 68.0915 52.505Z" fill="#1E5E91"/>
<path fill-rule="evenodd" clip-rule="evenodd" d="M38.9594 20.5771C38.9594 20.5771 29.7298 33.6011 36.1695 41.1059C42.6092 48.6107 47.3392 46.3477 47.3392 46.3477L44.6987 48.722C44.6987 48.722 42.9099 50.5766 41.8249 51.2958C41.3766 51.5931 40.7807 51.6602 40.1635 51.7297C39.8988 51.7595 39.6301 51.7897 39.3675 51.8388L39.2621 51.6534C39.2621 51.6534 35.4587 42.8598 35.4587 41.7921C35.4587 40.7245 33.9275 37.5628 33.9275 38.4806C33.9275 39.3984 33.8008 46.7576 33.8008 46.7576L37.831 52.6276C37.8094 52.6529 37.7881 52.679 37.7672 52.706C36.7436 54.0252 37.0003 55.1011 37.7672 55.1011C37.9823 55.1011 38.2833 55.208 38.632 55.332C39.0229 55.4709 39.4738 55.6312 39.9307 55.6858L40.3447 56.2888V57.431H41.2089L42.1711 56.7674L41.3582 55.3383C41.4448 55.2705 41.529 55.1919 41.6104 55.1011C42.8293 53.7419 47.3392 51.7047 47.3392 51.7047L50.3199 48.2717L51.125 48.722C51.125 48.722 48.3814 56.3143 46.9138 56.3671C46.1846 56.3934 47.292 57.103 48.7589 58.0431C50.2439 58.9947 52.0974 60.1825 52.7869 61.1365C52.9921 61.4204 53.1506 60.9876 53.2719 60.0462C53.3932 60.9876 53.5517 61.4204 53.757 61.1365C54.4464 60.1825 56.2999 58.9947 57.785 58.0431C59.2519 57.103 60.3592 56.3934 59.63 56.3671C58.1624 56.3143 55.4189 48.722 55.4189 48.722L56.2239 48.2717C56.2239 48.2717 63.7145 53.7419 64.9334 55.1011C65.8103 56.0789 67.0178 55.6497 67.9119 55.332C68.2605 55.208 68.5615 55.1011 68.7767 55.1011C69.2596 55.1011 69.2515 54.9159 69.2205 54.201C69.2108 53.9784 69.1989 53.7043 69.1989 53.3685C71.2915 51.7512 71.1845 51.3145 71.0062 51.0766L71.3169 50.0426L69.2681 49.4236L69.8099 47.6806L68.3484 47.2009L67.7957 48.9788L65.9122 48.4098L65.4697 49.8828L67.3391 50.4476L67.0345 51.4278C66.8379 51.4795 66.6832 51.5004 66.6195 51.4577C66.4183 51.3227 66.1288 50.9723 65.8401 50.6228C65.478 50.1844 65.117 49.7475 64.9334 49.7396C64.8463 49.7359 65.0394 50.2124 65.234 50.6931C65.4313 51.1801 65.6302 51.6713 65.5411 51.6711C64.9095 51.6699 59.2046 46.3477 59.2046 46.3477C59.2046 46.3477 63.9346 48.6107 70.3743 41.1059C76.814 33.6011 67.5844 20.5771 67.5844 20.5771C67.5844 20.5771 66.2046 28.3557 61.0975 33.5899C61.0975 33.9615 61.5798 34.5099 62.068 35.0651C62.409 35.4528 62.7529 35.8439 62.9376 36.1804C63.3866 36.9988 61.8451 37.4652 61.0975 37.4652C60.762 37.4652 60.5766 37.9532 60.4093 38.3936C60.2038 38.9344 60.0255 39.4035 59.63 38.8092C58.9123 37.731 60.3477 35.362 60.3477 35.362L58.0754 32.9586L57.3069 31.4051H58.0754V29.8056L58.6138 30.2489C58.6138 30.2489 59.2046 28.8188 60.3477 28.8188C61.4907 28.8188 61.8451 28.1648 61.8451 28.1648H60.3477C59.5978 28.1648 60.4675 27.1685 61.0975 26.6495C61.3799 26.4169 61.8083 26.4971 62.1951 26.5695C62.6711 26.6586 63.0841 26.736 63.0841 26.2035C63.0841 25.62 62.631 25.5427 62.1074 25.4533C61.7652 25.3949 61.393 25.3314 61.0975 25.1181C60.6088 24.7652 59.9501 24.8737 59.2371 24.9911C58.8594 25.0534 58.4664 25.1181 58.0754 25.1181H56.2239C55.5554 25.1181 57.3069 26.2035 57.3069 26.2035L56.2239 27.1685L54.6134 28.8188L55.4189 29.2982L53.757 30.9142C53.757 30.9142 54.3211 31.8339 53.757 31.8339C53.5244 31.8339 53.3714 32.025 53.2719 32.2496C53.1724 32.025 53.0194 31.8339 52.7869 31.8339C52.2227 31.8339 52.7869 30.9142 52.7869 30.9142L51.125 29.2982L51.9304 28.8188L50.3199 27.1685L49.2369 26.2035C49.2369 26.2035 50.9884 25.1181 50.3199 25.1181H48.4684C48.0774 25.1181 47.6845 25.0534 47.3068 24.9911C46.5937 24.8737 45.935 24.7652 45.4463 25.1181C45.1508 25.3314 44.7786 25.3949 44.4364 25.4533C43.9129 25.5427 43.4597 25.62 43.4597 26.2035C43.4597 26.736 43.8727 26.6586 44.3488 26.5695C44.7355 26.4971 45.1639 26.4169 45.4463 26.6495C46.0763 27.1685 46.946 28.1648 46.1961 28.1648H44.6987C44.6987 28.1648 45.0531 28.8188 46.1961 28.8188C47.3392 28.8188 47.93 30.2489 47.93 30.2489L48.4684 29.8056V31.4051H49.2369L48.4684 32.9586L46.1961 35.362C46.1961 35.362 47.6316 37.731 46.9138 38.8092C46.5183 39.4035 46.34 38.9344 46.1346 38.3936C45.9672 37.9532 45.7819 37.4652 45.4463 37.4652C44.6987 37.4652 43.1572 36.9988 43.6062 36.1804C43.7909 35.8439 44.1348 35.4528 44.4758 35.0651C44.964 34.5099 45.4463 33.9615 45.4463 33.5899C40.3392 28.3557 38.9594 20.5771 38.9594 20.5771ZM68.7453 51.1053L68.8115 50.8924L70.2695 51.3329C70.1035 51.438 69.9214 51.5565 69.7424 51.6729C69.21 52.0192 68.7023 52.3495 68.7165 52.2652C68.7321 52.1725 68.7565 52.0747 68.7812 51.9756C68.8609 51.6563 68.944 51.3237 68.7453 51.1053Z" fill="#F6C540"/>
<path fill-rule="evenodd" clip-rule="evenodd" d="M54.4842 17.6418C54.2722 17.5581 54.0469 17.4802 53.8084 17.4082L53.7907 17.47C53.5807 17.4307 53.3844 17.4082 53.21 17.4082C53.1476 17.4082 53.0824 17.4111 53.0148 17.4166L53.0124 17.4082C52.9991 17.4122 52.9858 17.4163 52.9726 17.4203C52.5936 17.4566 52.1426 17.5712 51.6841 17.7203C49.2608 17.9954 48.0085 19.0642 48.1471 20.9034C48.2183 21.848 48.534 22.5216 49.0624 22.9031V23.4659C49.0624 23.4659 51.8275 25.2683 53.21 25.2683C54.5925 25.2683 57.3576 23.4659 57.3576 23.4659V23.1156C58.1195 22.8103 58.5732 22.06 58.6604 20.9034C58.8031 19.0099 57.4717 17.933 54.906 17.698L54.8989 17.7746C54.7601 17.7273 54.6213 17.6826 54.4842 17.6418ZM57.3576 22.0052V19.5564C57.6582 19.8935 57.7812 20.3195 57.7423 20.836C57.7016 21.3749 57.5795 21.7607 57.3576 22.0052ZM49.0624 20.7937V20.5206C49.0568 20.6085 49.0569 20.6996 49.0624 20.7937Z" fill="#F6C540"/>
<path fill-rule="evenodd" clip-rule="evenodd" d="M47.227 34.5321C47.227 34.5321 51.0089 33.8164 53.0571 33.8164C54.8956 33.8164 58.8872 34.5321 58.8872 34.5321C58.8872 39.0656 60.1594 41.8411 58.8872 44.9375C57.6149 48.0339 54.5058 46.5455 53.0986 49.5085C51.3001 46.698 48.8714 48.245 47.227 44.243C45.5826 40.2409 48.2267 38.3976 47.227 34.5321Z" fill="#1E5E91"/>
<mask id="mask2_908_6073" style="mask-type:alpha" maskUnits="userSpaceOnUse" x="46" y="33" width="14" height="17">
<path fill-rule="evenodd" clip-rule="evenodd" d="M47.227 34.5321C47.227 34.5321 51.0089 33.8164 53.0571 33.8164C54.8956 33.8164 58.8872 34.5321 58.8872 34.5321C58.8872 39.0656 60.1594 41.8411 58.8872 44.9375C57.6149 48.0339 54.5058 46.5455 53.0986 49.5085C51.3001 46.698 48.8714 48.245 47.227 44.243C45.5826 40.2409 48.2267 38.3976 47.227 34.5321Z" fill="white"/>
</mask>
<g mask="url(#mask2_908_6073)">
<rect x="47.2266" y="43.9912" width="11.6602" height="5.67567" fill="#5EAA22"/>
</g>
<path fill-rule="evenodd" clip-rule="evenodd" d="M53.3632 42.6667C55.1991 42.6667 56.6874 41.1743 56.6874 39.3333C56.6874 37.4924 55.1991 36 53.3632 36C51.5273 36 50.0391 37.4924 50.0391 39.3333C50.0391 41.1743 51.5273 42.6667 53.3632 42.6667Z" fill="#F6C540"/>
</g>
</g>
</svg>
