<svg width="107" height="80" viewBox="0 0 107 80" fill="none" xmlns="http://www.w3.org/2000/svg">
<mask id="mask0_908_6097" style="mask-type:alpha" maskUnits="userSpaceOnUse" x="0" y="0" width="107" height="80">
<rect width="106.667" height="80" fill="white"/>
</mask>
<g mask="url(#mask0_908_6097)">
<path fill-rule="evenodd" clip-rule="evenodd" d="M26.666 0H83.3327V80H26.666V0Z" fill="#F7FCFF"/>
<path fill-rule="evenodd" clip-rule="evenodd" d="M80 0H106.667V80H80V0Z" fill="#F50101"/>
<path fill-rule="evenodd" clip-rule="evenodd" d="M0 0H26.6667V80H0V0Z" fill="#F50101"/>
<path d="M52.4716 29.1505L52.5832 30.357C49.2551 30.6936 47.457 29.0674 47.457 25.6923C47.457 22.3432 49.2162 20.5631 52.5239 20.542L52.5309 21.7541C49.851 21.7712 48.6165 23.0205 48.6165 25.6923C48.6165 28.338 49.8122 29.4195 52.4716 29.1505Z" fill="#A2BB6A"/>
<path d="M53.9464 29.1505L53.8348 30.357C57.1629 30.6936 58.9609 29.0674 58.9609 25.6923C58.9609 22.3432 57.2018 20.5631 53.8941 20.542L53.887 21.7541C56.5669 21.7712 57.8015 23.0205 57.8015 25.6923C57.8015 28.338 56.6058 29.4195 53.9464 29.1505Z" fill="#A2BB6A"/>
<mask id="path-7-outside-1_908_6097" maskUnits="userSpaceOnUse" x="42.9238" y="28.6045" width="21" height="26" fill="black">
<rect fill="white" x="42.9238" y="28.6045" width="21" height="26"/>
<path fill-rule="evenodd" clip-rule="evenodd" d="M53.6232 29.6843C53.7119 29.634 53.7614 29.6045 53.7614 29.6045V29.7616C54.4031 30.1156 56.0189 30.9452 57.0695 30.9452C58.4051 30.9452 60.2206 29.6045 60.2206 29.6045L63.2582 33.8936C63.2582 33.8936 61.2125 38.1813 62.7778 43.4206C64.3432 48.66 62.6949 52.6999 55.7339 53.1485C55.7339 53.1485 54.3623 53.4091 53.7614 53.8245V54.2082C53.7614 54.1127 53.7102 54.022 53.6232 53.9366C53.5362 54.022 53.4849 54.1127 53.4849 54.2082V53.8245C52.884 53.4091 51.5124 53.1485 51.5124 53.1485C44.5514 52.6999 42.9032 48.66 44.4685 43.4206C46.0338 38.1813 43.9881 33.8936 43.9881 33.8936L47.0257 29.6045C47.0257 29.6045 48.8412 30.9452 50.1768 30.9452C51.2274 30.9452 52.8432 30.1156 53.4849 29.7616V29.6045C53.4849 29.6045 53.5344 29.634 53.6232 29.6843Z"/>
</mask>
<path fill-rule="evenodd" clip-rule="evenodd" d="M53.6232 29.6843C53.7119 29.634 53.7614 29.6045 53.7614 29.6045V29.7616C54.4031 30.1156 56.0189 30.9452 57.0695 30.9452C58.4051 30.9452 60.2206 29.6045 60.2206 29.6045L63.2582 33.8936C63.2582 33.8936 61.2125 38.1813 62.7778 43.4206C64.3432 48.66 62.6949 52.6999 55.7339 53.1485C55.7339 53.1485 54.3623 53.4091 53.7614 53.8245V54.2082C53.7614 54.1127 53.7102 54.022 53.6232 53.9366C53.5362 54.022 53.4849 54.1127 53.4849 54.2082V53.8245C52.884 53.4091 51.5124 53.1485 51.5124 53.1485C44.5514 52.6999 42.9032 48.66 44.4685 43.4206C46.0338 38.1813 43.9881 33.8936 43.9881 33.8936L47.0257 29.6045C47.0257 29.6045 48.8412 30.9452 50.1768 30.9452C51.2274 30.9452 52.8432 30.1156 53.4849 29.7616V29.6045C53.4849 29.6045 53.5344 29.634 53.6232 29.6843Z" fill="#E8AA00"/>
<path d="M53.7614 29.6045H54.2614V28.7243L53.5054 29.175L53.7614 29.6045ZM53.6232 29.6843L53.3766 30.1193L53.6232 30.259L53.8697 30.1193L53.6232 29.6843ZM53.7614 29.7616H53.2614V30.0568L53.5199 30.1994L53.7614 29.7616ZM60.2206 29.6045L60.6286 29.3155L60.3338 28.8993L59.9235 29.2023L60.2206 29.6045ZM63.2582 33.8936L63.7095 34.1089L63.8358 33.8441L63.6662 33.6046L63.2582 33.8936ZM62.7778 43.4206L62.2987 43.5638L62.2987 43.5638L62.7778 43.4206ZM55.7339 53.1485L55.7018 52.6495L55.6709 52.6515L55.6406 52.6573L55.7339 53.1485ZM53.7614 53.8245L53.4771 53.4132L53.2614 53.5622V53.8245H53.7614ZM53.6232 53.9366L53.9733 53.5797L53.6232 53.2363L53.273 53.5797L53.6232 53.9366ZM53.4849 53.8245H53.9849V53.5622L53.7692 53.4132L53.4849 53.8245ZM51.5124 53.1485L51.6057 52.6573L51.5754 52.6515L51.5446 52.6495L51.5124 53.1485ZM44.4685 43.4206L43.9894 43.2775L44.4685 43.4206ZM43.9881 33.8936L43.5801 33.6046L43.4105 33.8441L43.5368 34.1089L43.9881 33.8936ZM47.0257 29.6045L47.3228 29.2023L46.9125 28.8993L46.6177 29.3155L47.0257 29.6045ZM53.4849 29.7616L53.7264 30.1994L53.9849 30.0568V29.7616H53.4849ZM53.4849 29.6045L53.7409 29.175L52.9849 28.7243V29.6045H53.4849ZM53.7614 29.6045C53.5054 29.175 53.5054 29.175 53.5054 29.175C53.5054 29.175 53.5054 29.175 53.5054 29.175C53.5054 29.175 53.5054 29.175 53.5054 29.175C53.5054 29.175 53.5055 29.175 53.5055 29.175C53.5055 29.175 53.5055 29.1749 53.5055 29.1749C53.5055 29.175 53.5054 29.175 53.5053 29.1751C53.5051 29.1752 53.5047 29.1754 53.5041 29.1758C53.503 29.1765 53.501 29.1776 53.4984 29.1791C53.4931 29.1823 53.4849 29.1871 53.4739 29.1935C53.452 29.2062 53.4192 29.2252 53.3766 29.2493L53.8697 30.1193C53.9159 30.0931 53.9521 30.0722 53.9771 30.0576C53.9897 30.0503 53.9994 30.0446 54.0062 30.0406C54.0095 30.0386 54.0122 30.0371 54.0141 30.036C54.015 30.0354 54.0158 30.035 54.0163 30.0346C54.0166 30.0345 54.0168 30.0343 54.017 30.0342C54.0171 30.0342 54.0172 30.0341 54.0173 30.0341C54.0173 30.034 54.0173 30.034 54.0174 30.034C54.0174 30.034 54.0174 30.034 54.0174 30.034C54.0174 30.034 54.0174 30.034 54.0174 30.034C54.0174 30.034 54.0174 30.034 53.7614 29.6045ZM54.2614 29.7616V29.6045H53.2614V29.7616H54.2614ZM53.5199 30.1994C53.8493 30.3811 54.4325 30.6871 55.0729 30.949C55.6974 31.2043 56.4407 31.4452 57.0695 31.4452V30.4452C56.6478 30.4452 56.0578 30.2713 55.4514 30.0234C54.8608 29.7819 54.3152 29.4961 54.0029 29.3238L53.5199 30.1994ZM57.0695 31.4452C57.8711 31.4452 58.7538 31.0548 59.3835 30.7148C59.7097 30.5387 59.991 30.3632 60.1908 30.2317C60.291 30.1658 60.3713 30.1106 60.4271 30.0714C60.4551 30.0518 60.477 30.0362 60.4922 30.0252C60.4999 30.0197 60.5058 30.0153 60.5101 30.0122C60.5122 30.0107 60.5139 30.0094 60.5152 30.0085C60.5158 30.008 60.5163 30.0077 60.5167 30.0074C60.5169 30.0072 60.5171 30.0071 60.5173 30.007C60.5173 30.0069 60.5174 30.0068 60.5175 30.0068C60.5175 30.0068 60.5176 30.0067 60.2206 29.6045C59.9235 29.2023 59.9236 29.2022 59.9237 29.2022C59.9237 29.2022 59.9237 29.2022 59.9237 29.2021C59.9238 29.2021 59.9238 29.2021 59.9238 29.2021C59.9237 29.2021 59.9236 29.2023 59.9233 29.2024C59.9228 29.2028 59.9219 29.2035 59.9206 29.2045C59.9179 29.2064 59.9135 29.2096 59.9075 29.2139C59.8955 29.2226 59.8771 29.2358 59.8528 29.2528C59.8041 29.2869 59.7322 29.3365 59.6412 29.3963C59.4589 29.5162 59.203 29.6758 58.9084 29.8349C58.2964 30.1653 57.6036 30.4452 57.0695 30.4452V31.4452ZM59.8125 29.8935L62.8502 34.1826L63.6662 33.6046L60.6286 29.3155L59.8125 29.8935ZM63.2582 33.8936C62.8069 33.6783 62.8069 33.6785 62.8068 33.6787C62.8067 33.6788 62.8066 33.679 62.8065 33.6792C62.8064 33.6795 62.8062 33.68 62.8059 33.6805C62.8055 33.6814 62.8049 33.6827 62.8042 33.6842C62.8028 33.6872 62.8009 33.6912 62.7985 33.6963C62.7938 33.7065 62.7873 33.7208 62.7791 33.7391C62.7627 33.7757 62.7397 33.8285 62.7115 33.8965C62.6551 34.0325 62.5777 34.2299 62.4905 34.482C62.3162 34.986 62.1023 35.7103 61.9392 36.6024C61.6131 38.3855 61.488 40.8501 62.2987 43.5638L63.2569 43.2775C62.5023 40.7518 62.6174 38.4529 62.9229 36.7823C63.0755 35.9475 63.2752 35.2726 63.4356 34.8088C63.5157 34.5771 63.5859 34.3986 63.6352 34.2797C63.6599 34.2202 63.6793 34.1757 63.6921 34.147C63.6985 34.1326 63.7033 34.1222 63.7063 34.1158C63.7077 34.1126 63.7088 34.1105 63.7093 34.1093C63.7096 34.1087 63.7097 34.1084 63.7098 34.1083C63.7098 34.1083 63.7098 34.1083 63.7097 34.1084C63.7097 34.1085 63.7096 34.1086 63.7096 34.1086C63.7095 34.1088 63.7095 34.1089 63.2582 33.8936ZM62.2987 43.5638C63.0628 46.1211 63.0057 48.2694 62.0305 49.8142C61.0638 51.3454 59.0997 52.4306 55.7018 52.6495L55.7661 53.6475C59.3292 53.4178 61.6697 52.2588 62.876 50.348C64.0738 48.4509 64.0582 45.9595 63.2569 43.2775L62.2987 43.5638ZM55.7339 53.1485C55.6406 52.6573 55.6405 52.6573 55.6405 52.6573C55.6404 52.6573 55.6404 52.6573 55.6403 52.6573C55.6402 52.6574 55.6401 52.6574 55.6399 52.6574C55.6396 52.6575 55.6392 52.6575 55.6388 52.6576C55.6378 52.6578 55.6365 52.6581 55.635 52.6584C55.6318 52.659 55.6273 52.6599 55.6216 52.661C55.6102 52.6632 55.5939 52.6665 55.5733 52.6707C55.532 52.6792 55.4731 52.6916 55.4009 52.7078C55.2567 52.7401 55.0577 52.7878 54.8382 52.8493C54.4201 52.9663 53.8533 53.1531 53.4771 53.4132L54.0457 54.2358C54.2704 54.0805 54.6898 53.9293 55.1078 53.8122C55.3063 53.7566 55.4877 53.7131 55.6196 53.6836C55.6853 53.6689 55.7383 53.6577 55.7743 53.6503C55.7923 53.6466 55.8061 53.6439 55.8151 53.6421C55.8196 53.6412 55.8229 53.6405 55.825 53.6401C55.826 53.64 55.8267 53.6398 55.8271 53.6397C55.8273 53.6397 55.8274 53.6397 55.8274 53.6397C55.8274 53.6397 55.8274 53.6397 55.8274 53.6397C55.8274 53.6397 55.8273 53.6397 55.8273 53.6397C55.8273 53.6397 55.8273 53.6397 55.7339 53.1485ZM54.2614 54.2082V53.8245H53.2614V54.2082H54.2614ZM53.273 54.2936C53.2897 54.3099 53.2884 54.3128 53.2818 54.3003C53.2741 54.2855 53.2614 54.2531 53.2614 54.2082H54.2614C54.2614 53.9237 54.1083 53.7121 53.9733 53.5797L53.273 54.2936ZM53.273 53.5797C53.138 53.7121 52.9849 53.9237 52.9849 54.2082H53.9849C53.9849 54.2531 53.9722 54.2855 53.9645 54.3003C53.9579 54.3128 53.9566 54.3099 53.9733 54.2936L53.273 53.5797ZM53.9849 54.2082V53.8245H52.9849V54.2082H53.9849ZM51.5124 53.1485C51.4191 53.6397 51.419 53.6397 51.419 53.6397C51.419 53.6397 51.4189 53.6397 51.4189 53.6397C51.4189 53.6397 51.4189 53.6397 51.4189 53.6397C51.4189 53.6397 51.419 53.6397 51.4192 53.6397C51.4196 53.6398 51.4203 53.64 51.4213 53.6401C51.4234 53.6405 51.4267 53.6412 51.4312 53.6421C51.4402 53.6439 51.454 53.6466 51.472 53.6503C51.5081 53.6577 51.561 53.6689 51.6268 53.6836C51.7586 53.7131 51.94 53.7566 52.1385 53.8122C52.5565 53.9293 52.9759 54.0805 53.2006 54.2358L53.7692 53.4132C53.393 53.1531 52.8262 52.9663 52.4082 52.8493C52.1886 52.7878 51.9896 52.7401 51.8454 52.7078C51.7732 52.6916 51.7143 52.6792 51.673 52.6707C51.6524 52.6665 51.6361 52.6632 51.6247 52.661C51.619 52.6599 51.6145 52.659 51.6114 52.6584C51.6098 52.6581 51.6085 52.6578 51.6076 52.6576C51.6071 52.6575 51.6067 52.6575 51.6064 52.6574C51.6062 52.6574 51.6061 52.6574 51.606 52.6573C51.6059 52.6573 51.6059 52.6573 51.6059 52.6573C51.6058 52.6573 51.6057 52.6573 51.5124 53.1485ZM43.9894 43.2775C43.1881 45.9595 43.1725 48.4509 44.3703 50.348C45.5766 52.2588 47.9171 53.4178 51.4802 53.6475L51.5446 52.6495C48.1466 52.4306 46.1825 51.3454 45.2159 49.8142C44.2406 48.2694 44.1835 46.1211 44.9476 43.5638L43.9894 43.2775ZM43.9881 33.8936C43.5368 34.1089 43.5368 34.1088 43.5367 34.1086C43.5367 34.1086 43.5366 34.1085 43.5366 34.1084C43.5366 34.1083 43.5365 34.1083 43.5366 34.1083C43.5366 34.1084 43.5367 34.1087 43.537 34.1093C43.5376 34.1105 43.5386 34.1126 43.54 34.1158C43.543 34.1222 43.5478 34.1326 43.5542 34.147C43.567 34.1757 43.5865 34.2202 43.6111 34.2797C43.6604 34.3986 43.7306 34.5771 43.8108 34.8088C43.9711 35.2726 44.1708 35.9475 44.3235 36.7823C44.6289 38.4529 44.744 40.7518 43.9894 43.2775L44.9476 43.5638C45.7583 40.8501 45.6332 38.3855 45.3072 36.6024C45.144 35.7103 44.9301 34.986 44.7558 34.482C44.6686 34.2299 44.5912 34.0325 44.5348 33.8965C44.5066 33.8285 44.4836 33.7757 44.4672 33.7391C44.459 33.7208 44.4525 33.7065 44.4478 33.6963C44.4455 33.6912 44.4436 33.6872 44.4422 33.6842C44.4414 33.6827 44.4409 33.6814 44.4404 33.6805C44.4402 33.68 44.44 33.6795 44.4398 33.6792C44.4397 33.679 44.4396 33.6788 44.4396 33.6787C44.4395 33.6785 44.4394 33.6783 43.9881 33.8936ZM46.6177 29.3155L43.5801 33.6046L44.3961 34.1826L47.4338 29.8935L46.6177 29.3155ZM50.1768 30.4452C49.6427 30.4452 48.9499 30.1653 48.338 29.8349C48.0434 29.6758 47.7874 29.5162 47.6051 29.3963C47.5142 29.3365 47.4422 29.2869 47.3935 29.2528C47.3692 29.2358 47.3508 29.2226 47.3388 29.2139C47.3328 29.2096 47.3285 29.2064 47.3258 29.2045C47.3244 29.2035 47.3235 29.2028 47.323 29.2024C47.3227 29.2023 47.3226 29.2021 47.3226 29.2021C47.3225 29.2021 47.3225 29.2021 47.3226 29.2021C47.3226 29.2022 47.3227 29.2022 47.3227 29.2022C47.3227 29.2022 47.3228 29.2023 47.0257 29.6045C46.7287 30.0067 46.7288 30.0068 46.7289 30.0068C46.7289 30.0068 46.729 30.0069 46.7291 30.007C46.7292 30.0071 46.7294 30.0072 46.7296 30.0074C46.73 30.0077 46.7305 30.008 46.7311 30.0085C46.7324 30.0094 46.7341 30.0107 46.7362 30.0122C46.7405 30.0153 46.7464 30.0197 46.7541 30.0252C46.7693 30.0362 46.7912 30.0518 46.8192 30.0714C46.875 30.1106 46.9553 30.1658 47.0555 30.2317C47.2553 30.3632 47.5366 30.5387 47.8629 30.7148C48.4925 31.0548 49.3752 31.4452 50.1768 31.4452V30.4452ZM53.2434 29.3238C52.9311 29.4961 52.3855 29.7819 51.795 30.0234C51.1885 30.2713 50.5985 30.4452 50.1768 30.4452V31.4452C50.8056 31.4452 51.5489 31.2043 52.1734 30.949C52.8139 30.6871 53.397 30.3811 53.7264 30.1994L53.2434 29.3238ZM53.9849 29.7616V29.6045H52.9849V29.7616H53.9849ZM53.4849 29.6045C53.2289 30.034 53.2289 30.034 53.2289 30.034C53.2289 30.034 53.2289 30.034 53.2289 30.034C53.2289 30.034 53.2289 30.034 53.229 30.034C53.229 30.034 53.229 30.034 53.229 30.0341C53.2291 30.0341 53.2292 30.0342 53.2293 30.0342C53.2295 30.0343 53.2297 30.0345 53.23 30.0346C53.2305 30.035 53.2313 30.0354 53.2322 30.036C53.2341 30.0371 53.2368 30.0386 53.2402 30.0406C53.2469 30.0446 53.2566 30.0503 53.2692 30.0576C53.2942 30.0722 53.3304 30.0931 53.3766 30.1193L53.8697 29.2493C53.8271 29.2252 53.7943 29.2062 53.7724 29.1935C53.7614 29.1871 53.7532 29.1823 53.7479 29.1791C53.7453 29.1776 53.7434 29.1765 53.7422 29.1758C53.7416 29.1754 53.7412 29.1752 53.741 29.175C53.7409 29.175 53.7408 29.175 53.7408 29.1749C53.7408 29.1749 53.7408 29.175 53.7409 29.175C53.7409 29.175 53.7409 29.175 53.7409 29.175C53.7409 29.175 53.7409 29.175 53.7409 29.175C53.7409 29.175 53.7409 29.175 53.7409 29.175C53.7409 29.175 53.7409 29.175 53.4849 29.6045Z" fill="#E8AA00" mask="url(#path-7-outside-1_908_6097)"/>
<mask id="mask1_908_6097" style="mask-type:alpha" maskUnits="userSpaceOnUse" x="43" y="28" width="21" height="27">
<mask id="path-9-outside-2_908_6097" maskUnits="userSpaceOnUse" x="42.9238" y="28.6045" width="21" height="26" fill="black">
<rect fill="white" x="42.9238" y="28.6045" width="21" height="26"/>
<path fill-rule="evenodd" clip-rule="evenodd" d="M53.6232 29.6843C53.7119 29.634 53.7614 29.6045 53.7614 29.6045V29.7616C54.4031 30.1156 56.0189 30.9452 57.0695 30.9452C58.4051 30.9452 60.2206 29.6045 60.2206 29.6045L63.2582 33.8936C63.2582 33.8936 61.2125 38.1813 62.7778 43.4206C64.3432 48.66 62.6949 52.6999 55.7339 53.1485C55.7339 53.1485 54.3623 53.4091 53.7614 53.8245V54.2082C53.7614 54.1127 53.7102 54.022 53.6232 53.9366C53.5362 54.022 53.4849 54.1127 53.4849 54.2082V53.8245C52.884 53.4091 51.5124 53.1485 51.5124 53.1485C44.5514 52.6999 42.9032 48.66 44.4685 43.4206C46.0338 38.1813 43.9881 33.8936 43.9881 33.8936L47.0257 29.6045C47.0257 29.6045 48.8412 30.9452 50.1768 30.9452C51.2274 30.9452 52.8432 30.1156 53.4849 29.7616V29.6045C53.4849 29.6045 53.5344 29.634 53.6232 29.6843Z"/>
</mask>
<path fill-rule="evenodd" clip-rule="evenodd" d="M53.6232 29.6843C53.7119 29.634 53.7614 29.6045 53.7614 29.6045V29.7616C54.4031 30.1156 56.0189 30.9452 57.0695 30.9452C58.4051 30.9452 60.2206 29.6045 60.2206 29.6045L63.2582 33.8936C63.2582 33.8936 61.2125 38.1813 62.7778 43.4206C64.3432 48.66 62.6949 52.6999 55.7339 53.1485C55.7339 53.1485 54.3623 53.4091 53.7614 53.8245V54.2082C53.7614 54.1127 53.7102 54.022 53.6232 53.9366C53.5362 54.022 53.4849 54.1127 53.4849 54.2082V53.8245C52.884 53.4091 51.5124 53.1485 51.5124 53.1485C44.5514 52.6999 42.9032 48.66 44.4685 43.4206C46.0338 38.1813 43.9881 33.8936 43.9881 33.8936L47.0257 29.6045C47.0257 29.6045 48.8412 30.9452 50.1768 30.9452C51.2274 30.9452 52.8432 30.1156 53.4849 29.7616V29.6045C53.4849 29.6045 53.5344 29.634 53.6232 29.6843Z" fill="white"/>
<path d="M53.7614 29.6045H54.2614V28.7243L53.5054 29.175L53.7614 29.6045ZM53.6232 29.6843L53.3766 30.1193L53.6232 30.259L53.8697 30.1193L53.6232 29.6843ZM53.7614 29.7616H53.2614V30.0568L53.5199 30.1994L53.7614 29.7616ZM60.2206 29.6045L60.6286 29.3155L60.3338 28.8993L59.9235 29.2023L60.2206 29.6045ZM63.2582 33.8936L63.7095 34.1089L63.8358 33.8441L63.6662 33.6046L63.2582 33.8936ZM62.7778 43.4206L62.2987 43.5638L62.2987 43.5638L62.7778 43.4206ZM55.7339 53.1485L55.7018 52.6495L55.6709 52.6515L55.6406 52.6573L55.7339 53.1485ZM53.7614 53.8245L53.4771 53.4132L53.2614 53.5622V53.8245H53.7614ZM53.6232 53.9366L53.9733 53.5797L53.6232 53.2363L53.273 53.5797L53.6232 53.9366ZM53.4849 53.8245H53.9849V53.5622L53.7692 53.4132L53.4849 53.8245ZM51.5124 53.1485L51.6057 52.6573L51.5754 52.6515L51.5446 52.6495L51.5124 53.1485ZM44.4685 43.4206L43.9894 43.2775L44.4685 43.4206ZM43.9881 33.8936L43.5801 33.6046L43.4105 33.8441L43.5368 34.1089L43.9881 33.8936ZM47.0257 29.6045L47.3228 29.2023L46.9125 28.8993L46.6177 29.3155L47.0257 29.6045ZM53.4849 29.7616L53.7264 30.1994L53.9849 30.0568V29.7616H53.4849ZM53.4849 29.6045L53.7409 29.175L52.9849 28.7243V29.6045H53.4849ZM53.7614 29.6045C53.5054 29.175 53.5054 29.175 53.5054 29.175C53.5054 29.175 53.5054 29.175 53.5054 29.175C53.5054 29.175 53.5054 29.175 53.5054 29.175C53.5054 29.175 53.5055 29.175 53.5055 29.175C53.5055 29.175 53.5055 29.1749 53.5055 29.1749C53.5055 29.175 53.5054 29.175 53.5053 29.1751C53.5051 29.1752 53.5047 29.1754 53.5041 29.1758C53.503 29.1765 53.501 29.1776 53.4984 29.1791C53.4931 29.1823 53.4849 29.1871 53.4739 29.1935C53.452 29.2062 53.4192 29.2252 53.3766 29.2493L53.8697 30.1193C53.9159 30.0931 53.9521 30.0722 53.9771 30.0576C53.9897 30.0503 53.9994 30.0446 54.0062 30.0406C54.0095 30.0386 54.0122 30.0371 54.0141 30.036C54.015 30.0354 54.0158 30.035 54.0163 30.0346C54.0166 30.0345 54.0168 30.0343 54.017 30.0342C54.0171 30.0342 54.0172 30.0341 54.0173 30.0341C54.0173 30.034 54.0173 30.034 54.0174 30.034C54.0174 30.034 54.0174 30.034 54.0174 30.034C54.0174 30.034 54.0174 30.034 54.0174 30.034C54.0174 30.034 54.0174 30.034 53.7614 29.6045ZM54.2614 29.7616V29.6045H53.2614V29.7616H54.2614ZM53.5199 30.1994C53.8493 30.3811 54.4325 30.6871 55.0729 30.949C55.6974 31.2043 56.4407 31.4452 57.0695 31.4452V30.4452C56.6478 30.4452 56.0578 30.2713 55.4514 30.0234C54.8608 29.7819 54.3152 29.4961 54.0029 29.3238L53.5199 30.1994ZM57.0695 31.4452C57.8711 31.4452 58.7538 31.0548 59.3835 30.7148C59.7097 30.5387 59.991 30.3632 60.1908 30.2317C60.291 30.1658 60.3713 30.1106 60.4271 30.0714C60.4551 30.0518 60.477 30.0362 60.4922 30.0252C60.4999 30.0197 60.5058 30.0153 60.5101 30.0122C60.5122 30.0107 60.5139 30.0094 60.5152 30.0085C60.5158 30.008 60.5163 30.0077 60.5167 30.0074C60.5169 30.0072 60.5171 30.0071 60.5173 30.007C60.5173 30.0069 60.5174 30.0068 60.5175 30.0068C60.5175 30.0068 60.5176 30.0067 60.2206 29.6045C59.9235 29.2023 59.9236 29.2022 59.9237 29.2022C59.9237 29.2022 59.9237 29.2022 59.9237 29.2021C59.9238 29.2021 59.9238 29.2021 59.9238 29.2021C59.9237 29.2021 59.9236 29.2023 59.9233 29.2024C59.9228 29.2028 59.9219 29.2035 59.9206 29.2045C59.9179 29.2064 59.9135 29.2096 59.9075 29.2139C59.8955 29.2226 59.8771 29.2358 59.8528 29.2528C59.8041 29.2869 59.7322 29.3365 59.6412 29.3963C59.4589 29.5162 59.203 29.6758 58.9084 29.8349C58.2964 30.1653 57.6036 30.4452 57.0695 30.4452V31.4452ZM59.8125 29.8935L62.8502 34.1826L63.6662 33.6046L60.6286 29.3155L59.8125 29.8935ZM63.2582 33.8936C62.8069 33.6783 62.8069 33.6785 62.8068 33.6787C62.8067 33.6788 62.8066 33.679 62.8065 33.6792C62.8064 33.6795 62.8062 33.68 62.8059 33.6805C62.8055 33.6814 62.8049 33.6827 62.8042 33.6842C62.8028 33.6872 62.8009 33.6912 62.7985 33.6963C62.7938 33.7065 62.7873 33.7208 62.7791 33.7391C62.7627 33.7757 62.7397 33.8285 62.7115 33.8965C62.6551 34.0325 62.5777 34.2299 62.4905 34.482C62.3162 34.986 62.1023 35.7103 61.9392 36.6024C61.6131 38.3855 61.488 40.8501 62.2987 43.5638L63.2569 43.2775C62.5023 40.7518 62.6174 38.4529 62.9229 36.7823C63.0755 35.9475 63.2752 35.2726 63.4356 34.8088C63.5157 34.5771 63.5859 34.3986 63.6352 34.2797C63.6599 34.2202 63.6793 34.1757 63.6921 34.147C63.6985 34.1326 63.7033 34.1222 63.7063 34.1158C63.7077 34.1126 63.7088 34.1105 63.7093 34.1093C63.7096 34.1087 63.7097 34.1084 63.7098 34.1083C63.7098 34.1083 63.7098 34.1083 63.7097 34.1084C63.7097 34.1085 63.7096 34.1086 63.7096 34.1086C63.7095 34.1088 63.7095 34.1089 63.2582 33.8936ZM62.2987 43.5638C63.0628 46.1211 63.0057 48.2694 62.0305 49.8142C61.0638 51.3454 59.0997 52.4306 55.7018 52.6495L55.7661 53.6475C59.3292 53.4178 61.6697 52.2588 62.876 50.348C64.0738 48.4509 64.0582 45.9595 63.2569 43.2775L62.2987 43.5638ZM55.7339 53.1485C55.6406 52.6573 55.6405 52.6573 55.6405 52.6573C55.6404 52.6573 55.6404 52.6573 55.6403 52.6573C55.6402 52.6574 55.6401 52.6574 55.6399 52.6574C55.6396 52.6575 55.6392 52.6575 55.6388 52.6576C55.6378 52.6578 55.6365 52.6581 55.635 52.6584C55.6318 52.659 55.6273 52.6599 55.6216 52.661C55.6102 52.6632 55.5939 52.6665 55.5733 52.6707C55.532 52.6792 55.4731 52.6916 55.4009 52.7078C55.2567 52.7401 55.0577 52.7878 54.8382 52.8493C54.4201 52.9663 53.8533 53.1531 53.4771 53.4132L54.0457 54.2358C54.2704 54.0805 54.6898 53.9293 55.1078 53.8122C55.3063 53.7566 55.4877 53.7131 55.6196 53.6836C55.6853 53.6689 55.7383 53.6577 55.7743 53.6503C55.7923 53.6466 55.8061 53.6439 55.8151 53.6421C55.8196 53.6412 55.8229 53.6405 55.825 53.6401C55.826 53.64 55.8267 53.6398 55.8271 53.6397C55.8273 53.6397 55.8274 53.6397 55.8274 53.6397C55.8274 53.6397 55.8274 53.6397 55.8274 53.6397C55.8274 53.6397 55.8273 53.6397 55.8273 53.6397C55.8273 53.6397 55.8273 53.6397 55.7339 53.1485ZM54.2614 54.2082V53.8245H53.2614V54.2082H54.2614ZM53.273 54.2936C53.2897 54.3099 53.2884 54.3128 53.2818 54.3003C53.2741 54.2855 53.2614 54.2531 53.2614 54.2082H54.2614C54.2614 53.9237 54.1083 53.7121 53.9733 53.5797L53.273 54.2936ZM53.273 53.5797C53.138 53.7121 52.9849 53.9237 52.9849 54.2082H53.9849C53.9849 54.2531 53.9722 54.2855 53.9645 54.3003C53.9579 54.3128 53.9566 54.3099 53.9733 54.2936L53.273 53.5797ZM53.9849 54.2082V53.8245H52.9849V54.2082H53.9849ZM51.5124 53.1485C51.4191 53.6397 51.419 53.6397 51.419 53.6397C51.419 53.6397 51.4189 53.6397 51.4189 53.6397C51.4189 53.6397 51.4189 53.6397 51.4189 53.6397C51.4189 53.6397 51.419 53.6397 51.4192 53.6397C51.4196 53.6398 51.4203 53.64 51.4213 53.6401C51.4234 53.6405 51.4267 53.6412 51.4312 53.6421C51.4402 53.6439 51.454 53.6466 51.472 53.6503C51.5081 53.6577 51.561 53.6689 51.6268 53.6836C51.7586 53.7131 51.94 53.7566 52.1385 53.8122C52.5565 53.9293 52.9759 54.0805 53.2006 54.2358L53.7692 53.4132C53.393 53.1531 52.8262 52.9663 52.4082 52.8493C52.1886 52.7878 51.9896 52.7401 51.8454 52.7078C51.7732 52.6916 51.7143 52.6792 51.673 52.6707C51.6524 52.6665 51.6361 52.6632 51.6247 52.661C51.619 52.6599 51.6145 52.659 51.6114 52.6584C51.6098 52.6581 51.6085 52.6578 51.6076 52.6576C51.6071 52.6575 51.6067 52.6575 51.6064 52.6574C51.6062 52.6574 51.6061 52.6574 51.606 52.6573C51.6059 52.6573 51.6059 52.6573 51.6059 52.6573C51.6058 52.6573 51.6057 52.6573 51.5124 53.1485ZM43.9894 43.2775C43.1881 45.9595 43.1725 48.4509 44.3703 50.348C45.5766 52.2588 47.9171 53.4178 51.4802 53.6475L51.5446 52.6495C48.1466 52.4306 46.1825 51.3454 45.2159 49.8142C44.2406 48.2694 44.1835 46.1211 44.9476 43.5638L43.9894 43.2775ZM43.9881 33.8936C43.5368 34.1089 43.5368 34.1088 43.5367 34.1086C43.5367 34.1086 43.5366 34.1085 43.5366 34.1084C43.5366 34.1083 43.5365 34.1083 43.5366 34.1083C43.5366 34.1084 43.5367 34.1087 43.537 34.1093C43.5376 34.1105 43.5386 34.1126 43.54 34.1158C43.543 34.1222 43.5478 34.1326 43.5542 34.147C43.567 34.1757 43.5865 34.2202 43.6111 34.2797C43.6604 34.3986 43.7306 34.5771 43.8108 34.8088C43.9711 35.2726 44.1708 35.9475 44.3235 36.7823C44.6289 38.4529 44.744 40.7518 43.9894 43.2775L44.9476 43.5638C45.7583 40.8501 45.6332 38.3855 45.3072 36.6024C45.144 35.7103 44.9301 34.986 44.7558 34.482C44.6686 34.2299 44.5912 34.0325 44.5348 33.8965C44.5066 33.8285 44.4836 33.7757 44.4672 33.7391C44.459 33.7208 44.4525 33.7065 44.4478 33.6963C44.4455 33.6912 44.4436 33.6872 44.4422 33.6842C44.4414 33.6827 44.4409 33.6814 44.4404 33.6805C44.4402 33.68 44.44 33.6795 44.4398 33.6792C44.4397 33.679 44.4396 33.6788 44.4396 33.6787C44.4395 33.6785 44.4394 33.6783 43.9881 33.8936ZM46.6177 29.3155L43.5801 33.6046L44.3961 34.1826L47.4338 29.8935L46.6177 29.3155ZM50.1768 30.4452C49.6427 30.4452 48.9499 30.1653 48.338 29.8349C48.0434 29.6758 47.7874 29.5162 47.6051 29.3963C47.5142 29.3365 47.4422 29.2869 47.3935 29.2528C47.3692 29.2358 47.3508 29.2226 47.3388 29.2139C47.3328 29.2096 47.3285 29.2064 47.3258 29.2045C47.3244 29.2035 47.3235 29.2028 47.323 29.2024C47.3227 29.2023 47.3226 29.2021 47.3226 29.2021C47.3225 29.2021 47.3225 29.2021 47.3226 29.2021C47.3226 29.2022 47.3227 29.2022 47.3227 29.2022C47.3227 29.2022 47.3228 29.2023 47.0257 29.6045C46.7287 30.0067 46.7288 30.0068 46.7289 30.0068C46.7289 30.0068 46.729 30.0069 46.7291 30.007C46.7292 30.0071 46.7294 30.0072 46.7296 30.0074C46.73 30.0077 46.7305 30.008 46.7311 30.0085C46.7324 30.0094 46.7341 30.0107 46.7362 30.0122C46.7405 30.0153 46.7464 30.0197 46.7541 30.0252C46.7693 30.0362 46.7912 30.0518 46.8192 30.0714C46.875 30.1106 46.9553 30.1658 47.0555 30.2317C47.2553 30.3632 47.5366 30.5387 47.8629 30.7148C48.4925 31.0548 49.3752 31.4452 50.1768 31.4452V30.4452ZM53.2434 29.3238C52.9311 29.4961 52.3855 29.7819 51.795 30.0234C51.1885 30.2713 50.5985 30.4452 50.1768 30.4452V31.4452C50.8056 31.4452 51.5489 31.2043 52.1734 30.949C52.8139 30.6871 53.397 30.3811 53.7264 30.1994L53.2434 29.3238ZM53.9849 29.7616V29.6045H52.9849V29.7616H53.9849ZM53.4849 29.6045C53.2289 30.034 53.2289 30.034 53.2289 30.034C53.2289 30.034 53.2289 30.034 53.2289 30.034C53.2289 30.034 53.2289 30.034 53.229 30.034C53.229 30.034 53.229 30.034 53.229 30.0341C53.2291 30.0341 53.2292 30.0342 53.2293 30.0342C53.2295 30.0343 53.2297 30.0345 53.23 30.0346C53.2305 30.035 53.2313 30.0354 53.2322 30.036C53.2341 30.0371 53.2368 30.0386 53.2402 30.0406C53.2469 30.0446 53.2566 30.0503 53.2692 30.0576C53.2942 30.0722 53.3304 30.0931 53.3766 30.1193L53.8697 29.2493C53.8271 29.2252 53.7943 29.2062 53.7724 29.1935C53.7614 29.1871 53.7532 29.1823 53.7479 29.1791C53.7453 29.1776 53.7434 29.1765 53.7422 29.1758C53.7416 29.1754 53.7412 29.1752 53.741 29.175C53.7409 29.175 53.7408 29.175 53.7408 29.1749C53.7408 29.1749 53.7408 29.175 53.7409 29.175C53.7409 29.175 53.7409 29.175 53.7409 29.175C53.7409 29.175 53.7409 29.175 53.7409 29.175C53.7409 29.175 53.7409 29.175 53.7409 29.175C53.7409 29.175 53.7409 29.175 53.4849 29.6045Z" fill="white" mask="url(#path-9-outside-2_908_6097)"/>
</mask>
<g mask="url(#mask1_908_6097)">
<rect x="44.3477" y="29.0908" width="9.27536" height="12.7273" fill="#67BAFF"/>
<rect x="53.623" y="29.0908" width="9.27536" height="12.7273" fill="white"/>
<rect x="43.1895" y="43.0303" width="23.1884" height="14.5455" fill="#C51918"/>
<path d="M58.1165 40.9159H56.957V32.2002H58.1165V40.9159Z" fill="#C9A951"/>
<path d="M57.6466 36.9514L57.0813 37.9637L55.0801 36.8463L55.6453 35.834L57.6466 36.9514Z" fill="#C9A951"/>
<path d="M57.6466 34.5276L57.0813 35.5399L55.0801 34.4225L55.6453 33.4102L57.6466 34.5276Z" fill="#C9A951"/>
<path d="M57.3984 36.9514L57.9636 37.9637L59.9648 36.8463L59.3996 35.834L57.3984 36.9514Z" fill="#C9A951"/>
<path d="M57.3984 34.5276L57.9636 35.5399L59.9648 34.4225L59.3996 33.4102L57.3984 34.5276Z" fill="#C9A951"/>
<path fill-rule="evenodd" clip-rule="evenodd" d="M51.254 31.8994C50.5551 32.5107 51.006 34.7446 49.8608 34.7446C48.7156 34.7446 47.1041 33.0718 46.6983 34.1756C46.2924 35.2794 46.6983 34.9085 46.6983 35.8486C46.6983 36.7888 45.7262 39.4011 46.2123 39.8427C46.6983 40.2843 47.1963 41.448 47.11 40.9033C47.0237 40.3586 46.6562 39.5586 46.8094 38.6896C46.6613 37.7919 47.6284 36.9284 47.6284 36.9284C47.6284 36.9284 47.5234 37.8605 47.4473 38.2079C47.4473 38.2079 47.1285 38.9094 47.2579 39.3752C47.2579 39.3752 47.5853 40.6883 47.7203 40.779C47.7203 40.779 47.808 37.67 47.9077 37.1576C48.0074 36.6452 48.7182 37.7356 48.9546 37.612C48.9546 37.612 49.0357 39.7379 48.9128 39.9912C48.9128 39.9912 48.6635 40.4941 48.7562 40.6548C48.7562 40.6548 48.9874 41.2368 49.1847 41.0672C49.1847 41.0672 49.1917 41.0551 49.2916 40.4887C49.2916 40.4887 49.1755 40.1466 49.3573 39.3677C49.3573 39.3677 49.5488 37.6526 49.628 38.0247C49.628 38.0247 49.5924 38.8344 49.6838 39.2518C49.6838 39.2518 49.8297 40.288 49.8589 40.4018C49.8589 40.4018 50.5586 41.3984 50.5772 40.9775C50.5772 40.9775 49.9065 40.1777 50.0502 39.5691C50.0502 39.5691 49.6662 37.845 50.2022 37.4606C50.2022 37.4606 51.6242 36.8028 51.7098 35.6768C51.7098 35.6768 51.9158 34.3937 51.9528 33.8055C51.9528 33.8055 51.6408 33.6325 52.2857 33.3288C52.2857 33.3288 53.3236 32.9304 52.6769 32.3764" fill="#D18219"/>
</g>
<path d="M40.6667 25.6211L43.2444 27.6867C39.8868 33.2118 40.6667 38.4105 40.6667 41.7535C40.6667 47.9181 45.299 55.0329 53.3686 55.0329C59.3664 55.0329 65.8855 50.3639 67.4242 44.6591C68.6358 40.1672 65.8558 29.6119 63.758 26.857L66.2392 25.6211C69.4949 29.8967 75.6683 39.6943 73.8609 46.3952C71.5135 55.0977 62.2959 61.6996 53.3686 61.6996C40.8671 61.6996 34 51.1523 34 41.7535C34 36.9803 36.7318 32.0959 40.6667 25.6211Z" fill="#00A854"/>
<path fill-rule="evenodd" clip-rule="evenodd" d="M53.3327 50.6667C57.0146 50.6667 59.9994 49.1743 59.9994 47.3333C59.9994 45.4924 57.0146 44 53.3327 44C49.6508 44 46.666 45.4924 46.666 47.3333C46.666 49.1743 49.6508 50.6667 53.3327 50.6667Z" fill="#FDD200"/>
<rect x="43.334" y="53.333" width="20" height="6.66667" fill="#CA0000"/>
</g>
</svg>
