<svg width="108" height="80" viewBox="0 0 108 80" fill="none" xmlns="http://www.w3.org/2000/svg">
<mask id="mask0_908_6060" style="mask-type:alpha" maskUnits="userSpaceOnUse" x="0" y="0" width="108" height="80">
<rect x="0.0507812" width="106.957" height="80" fill="white"/>
</mask>
<g mask="url(#mask0_908_6060)">
<path fill-rule="evenodd" clip-rule="evenodd" d="M26.7891 0H107.006V80H26.7891V0Z" fill="#EF0000"/>
<path fill-rule="evenodd" clip-rule="evenodd" d="M0.0507812 0H40.1595V80H0.0507812V0Z" fill="#2F8D00"/>
<mask id="mask1_908_6060" style="mask-type:alpha" maskUnits="userSpaceOnUse" x="14" y="13" width="52" height="54">
<path fill-rule="evenodd" clip-rule="evenodd" d="M39.8408 66.0243C25.6006 66.0243 14.0566 54.3729 14.0566 40.0002C14.0566 25.6275 25.6006 13.9761 39.8408 13.9761C54.081 13.9761 65.625 25.6275 65.625 40.0002C65.625 54.3729 54.081 66.0243 39.8408 66.0243Z" fill="white"/>
</mask>
<g mask="url(#mask1_908_6060)">
<path fill-rule="evenodd" clip-rule="evenodd" d="M38.25 13.3335H41.5924V22.3295H38.25V13.3335Z" fill="#FFE017"/>
<path fill-rule="evenodd" clip-rule="evenodd" d="M38.25 58.3135H41.5924V66.6669H38.25V58.3135Z" fill="#FFE017"/>
<path d="M14.4716 41.3464L13.5371 38.9554C23.849 34.8498 31.632 32.2022 36.9129 31.0089C44.661 29.2582 53.1743 27.9629 62.4534 27.1221L62.6812 29.6821C53.5085 30.5133 45.1043 31.7919 37.4692 33.5171C32.3455 34.6748 24.6707 37.2858 14.4716 41.3464Z" fill="#FFE017"/>
<path d="M64.0271 25.5466L63.2688 28.0003C55.4753 25.5466 49.1267 24.4919 44.2467 24.8186L44.0781 22.2539C49.3176 21.9032 55.9594 23.0066 64.0271 25.5466Z" fill="#FFE017"/>
<path d="M66.7226 39.2661L65.282 41.3856C61.309 38.6347 56.4143 37.2529 50.5645 37.2529V34.6826C56.9062 34.6826 62.3034 36.2062 66.7226 39.2661Z" fill="#FFE017"/>
<path d="M64.5661 40.0352L65.2245 42.518C56.6591 44.8318 48.6175 46.1446 41.099 46.4537C33.5286 46.765 24.7052 45.4475 14.6211 42.5114L15.327 40.0418C25.166 42.9066 33.7246 44.1845 40.9953 43.8856C48.3179 43.5845 56.1751 42.3019 64.5661 40.0352Z" fill="#FFE017"/>
<path d="M63.5941 52.1194L59.5687 56.235C51.919 48.6132 45.1843 43.1633 39.4061 39.8887C33.5292 36.5582 25.8651 33.1763 16.4258 29.7566L18.3615 24.3135C28.0792 27.834 36.0252 31.3403 42.2114 34.8461C48.4963 38.4078 55.61 44.1645 63.5941 52.1194Z" fill="#FFE017"/>
<path d="M18.2951 54.451L16.7715 52.3915C16.9843 52.2312 17.3639 51.9637 17.887 51.6248C18.7507 51.0653 19.7097 50.5066 20.7416 49.9846C23.5837 48.5468 26.4345 47.6491 29.1536 47.5666C29.2866 47.5626 29.419 47.5605 29.5508 47.5605V50.1308C29.4446 50.1308 29.3377 50.1325 29.2301 50.1357C26.9386 50.2052 24.4223 50.9976 21.8827 52.2824C20.9362 52.7612 20.0542 53.275 19.2627 53.7878C18.9872 53.9663 18.7434 54.1314 18.5345 54.2785C18.4127 54.3643 18.3319 54.4233 18.2951 54.451Z" fill="#FFE017"/>
<path d="M19.4766 55.3425L20.1179 52.855C28.6079 55.0848 35.1533 56.196 39.7213 56.196C44.2722 56.196 51.0459 54.8853 59.9983 52.2549L60.7101 54.7227C51.546 57.4154 44.5644 58.7663 39.7213 58.7663C34.8953 58.7663 28.1579 57.6225 19.4766 55.3425Z" fill="#FFE017"/>
<path d="M16.168 32.3145L20.2025 28.208L26.1096 34.1201L22.075 38.2266L16.168 32.3145Z" fill="#FFE017"/>
<path d="M49.6387 52.8259L52.6396 47.8994L62.0104 53.7143L59.0095 58.6408L49.6387 52.8259Z" fill="#FFE017"/>
</g>
<path fill-rule="evenodd" clip-rule="evenodd" d="M14.0566 40.0002C14.0566 54.3729 25.6006 66.0243 39.8408 66.0243C54.081 66.0243 65.625 54.3729 65.625 40.0002C65.625 25.6275 54.081 13.9761 39.8408 13.9761C25.6006 13.9761 14.0566 25.6275 14.0566 40.0002ZM62.4417 40.3215C62.4417 52.7423 52.4655 62.8114 40.1591 62.8114C27.8528 62.8114 17.8765 52.7423 17.8765 40.3215C17.8765 27.9006 27.8528 17.8315 40.1591 17.8315C52.4655 17.8315 62.4417 27.9006 62.4417 40.3215Z" fill="#F9E813"/>
<path d="M25.6426 23.9507V44.8197C27.0201 53.08 31.6609 57.2101 39.5649 57.2101C47.469 57.2101 52.1098 53.08 53.4873 44.8197V23.9507H25.6426Z" fill="white"/>
<path d="M20.3906 20H57.403V44.7425L57.3721 44.9137C55.5841 54.799 49.2457 60 38.8968 60C28.5479 60 22.2095 54.799 20.4216 44.9137L20.3906 44.7425V20Z" fill="#C51918"/>
<path fill-rule="evenodd" clip-rule="evenodd" d="M30.2917 26.3535H24.2754V32.3535H30.2917V26.3535ZM53.6884 26.3535H47.6721V32.3535H53.6884V26.3535Z" fill="#F9E813"/>
<path fill-rule="evenodd" clip-rule="evenodd" d="M24.2754 39.6865H30.2917V45.6865H24.2754V39.6865ZM48.005 39.7809H54.0213V45.7809H48.005V39.7809ZM48.096 49.4974H42.0797V55.4974H48.096V49.4974Z" fill="#F9E813"/>
<path fill-rule="evenodd" clip-rule="evenodd" d="M28.959 49.4707H34.9753V55.4707H28.959V49.4707Z" fill="#F9E813"/>
<path d="M29.6387 29.0352H49.4916V43.8381C49.4916 43.8381 48.0183 51.4825 39.5651 51.4825C31.1119 51.4825 29.6387 43.8381 29.6387 43.8381V29.0352Z" fill="#F7FCFF"/>
<path d="M37.6133 30.6826H42.0263V33.8875C42.0263 33.8875 41.6989 35.5426 39.8198 35.5426C37.9408 35.5426 37.6133 33.8875 37.6133 33.8875V30.6826Z" fill="#013399"/>
<path d="M37.6133 37.751H42.0263V40.9559C42.0263 40.9559 41.6989 42.6109 39.8198 42.6109C37.9408 42.6109 37.6133 40.9559 37.6133 40.9559V37.751Z" fill="#013399"/>
<path d="M43.3438 37.751H47.7568V40.9559C47.7568 40.9559 47.4293 42.6109 45.5503 42.6109C43.6712 42.6109 43.3438 40.9559 43.3438 40.9559V37.751Z" fill="#013399"/>
<path d="M31.8828 37.751H36.2959V40.9559C36.2959 40.9559 35.9684 42.6109 34.0893 42.6109C32.2103 42.6109 31.8828 40.9559 31.8828 40.9559V37.751Z" fill="#013399"/>
<path d="M37.6133 44.8193H42.0263V48.0242C42.0263 48.0242 41.6989 49.6793 39.8198 49.6793C37.9408 49.6793 37.6133 48.0242 37.6133 48.0242V44.8193Z" fill="#013399"/>
</g>
</svg>
