<svg width="107" height="80" viewBox="0 0 107 80" fill="none" xmlns="http://www.w3.org/2000/svg">
<mask id="mask0_908_6122" style="mask-type:alpha" maskUnits="userSpaceOnUse" x="0" y="0" width="107" height="80">
<rect width="106.667" height="80" fill="white"/>
</mask>
<g mask="url(#mask0_908_6122)">
<path fill-rule="evenodd" clip-rule="evenodd" d="M0 0V80H106.667V0H0Z" fill="#4857A1"/>
<mask id="mask1_908_6122" style="mask-type:alpha" maskUnits="userSpaceOnUse" x="0" y="0" width="107" height="80">
<path fill-rule="evenodd" clip-rule="evenodd" d="M0 0V80H106.667V0H0Z" fill="white"/>
</mask>
<g mask="url(#mask1_908_6122)">
<path fill-rule="evenodd" clip-rule="evenodd" d="M0 0V26.6667H106.667V0H0Z" fill="#C51918"/>
<path fill-rule="evenodd" clip-rule="evenodd" d="M0 53.333V79.9997H106.667V53.333H0Z" fill="#F7FCFF"/>
<path fill-rule="evenodd" clip-rule="evenodd" d="M35.0708 8.98622L34.6398 7.3584C34.9939 7.46087 35.3774 7.56594 35.7817 7.67387L35.7692 7.61185C40.7968 8.07717 48.5818 10.5865 50.0469 13.2042C50.6132 14.2159 50.0638 15.0712 49.3439 16.1921C49.2363 16.3596 49.125 16.533 49.0129 16.7138C48.6511 17.2975 48.3233 17.8556 48.0144 18.3817C46.8865 20.3019 46.0102 21.7939 44.6494 22.5392L44.6759 26.8024L22.2167 26.6204L22.188 22.3252C21.0223 21.5273 20.2039 20.1338 19.1769 18.3852C18.868 17.8592 18.5402 17.301 18.1784 16.7173C18.0663 16.5365 17.955 16.3631 17.8474 16.1957L17.8474 16.1956C17.1275 15.0748 16.5781 14.2195 17.1444 13.2077C18.2504 11.2315 23.2252 9.28261 27.7603 8.24584C28.616 7.96163 29.5068 7.69512 30.3902 7.43946L30.7544 7.68779C31.1474 7.63299 31.5274 7.58839 31.8906 7.55478L32.4258 8.69534H34.1824C34.1824 8.69534 35.2866 11.7845 35.2866 13.5C35.2866 15.2156 34.1824 16.6343 34.1824 16.6343V17.8185C34.3752 17.8337 34.5775 17.8522 34.7878 17.8736C34.7878 17.769 34.7973 17.6588 34.8172 17.546C34.917 16.9801 35.2413 16.5643 35.5416 16.6172C35.8419 16.6702 36.0044 17.1719 35.9046 17.7378C35.8887 17.828 35.8671 17.9145 35.8408 17.9958C37.0245 18.1476 38.3505 18.3593 39.6066 18.5771C40.0856 17.7023 40.6695 16.838 41.2271 16.0128L41.2271 16.0128C42.6682 13.8797 43.933 12.0077 42.7526 10.8902C42.5273 10.6769 42.1183 10.4785 41.5908 10.2949C39.8542 9.87417 37.9623 9.54569 36.125 9.37565L36.0769 9.13687C35.7247 9.08305 35.3866 9.03285 35.0708 8.98622ZM43.6156 19.3249C44.2478 19.4505 44.6307 19.5302 44.6307 19.5302L44.6348 20.1883C46.8623 18.5972 48.4222 14.9969 48.556 13.8185C48.6354 13.1184 47.4653 12.3036 45.6281 11.5575C46.4679 13.1218 45.2928 14.6778 43.8215 16.6262C43.2636 17.3649 42.6632 18.16 42.1138 19.0333C42.3063 19.0699 42.4913 19.1053 42.6675 19.1393C42.6592 18.9742 42.6788 18.7882 42.7299 18.5973C42.8787 18.0423 43.238 17.6563 43.5325 17.7352C43.8271 17.8141 43.9452 18.3281 43.7965 18.8831C43.7524 19.0479 43.6897 19.1977 43.6156 19.3249ZM32.1289 17.8266V16.5077C32.1289 16.5077 31.1728 15.5008 31.0246 13.4039C30.9168 11.878 31.2583 10.0796 31.4522 9.21324C30.1157 9.38361 28.7116 9.63694 27.3428 9.94467C26.2434 10.2187 25.3532 10.5335 24.9764 10.8902C23.796 12.0077 25.0608 13.8797 26.502 16.0128L26.502 16.0128C27.0405 16.8099 27.6037 17.6434 28.0731 18.4877C28.8839 18.3222 29.6988 18.1691 30.4597 18.0472C30.4278 17.9369 30.4051 17.8167 30.3941 17.69C30.344 17.1176 30.5496 16.6319 30.8534 16.6054C31.1571 16.5788 31.444 17.0213 31.4941 17.5938C31.5032 17.6986 31.5038 17.8005 31.4968 17.8972C31.7162 17.8695 31.9274 17.8457 32.1289 17.8266ZM25.61 19.025C25.062 18.1549 24.4637 17.3625 23.9076 16.6262C22.402 14.6325 21.2067 13.0497 22.1628 11.4484C20.0061 12.2554 18.556 13.1229 18.6353 13.822C18.7612 14.9313 20.151 18.1869 22.1717 19.8922L22.1716 19.8685C22.1716 19.8685 22.9974 19.6501 24.2182 19.3542C24.1373 19.2308 24.0666 19.0841 24.0138 18.9215C23.8362 18.375 23.9273 17.8555 24.2173 17.7613C24.5073 17.6671 24.8864 18.0337 25.064 18.5803C25.1266 18.773 25.1558 18.9624 25.1546 19.1309C25.3032 19.096 25.4552 19.0607 25.61 19.025Z" fill="#F6C540"/>
<path fill-rule="evenodd" clip-rule="evenodd" d="M28.6441 8.94696C28.798 9.05259 28.9876 9.1149 29.1926 9.1149C29.708 9.1149 30.1257 8.72126 30.1257 8.23567C30.1257 7.75009 29.708 7.35645 29.1926 7.35645C28.8272 7.35645 28.5108 7.55442 28.3577 7.84276C28.2037 7.73713 28.0142 7.67482 27.8091 7.67482C27.4804 7.67482 27.1914 7.83502 27.0252 8.0771C26.8639 7.9519 26.6573 7.8767 26.4321 7.8767C25.9168 7.8767 25.4991 8.27034 25.4991 8.75593C25.4991 8.783 25.5004 8.80978 25.5029 8.83622C25.3319 8.6361 25.0697 8.50805 24.7758 8.50805C24.3087 8.50805 23.9218 8.83142 23.8535 9.25353C23.6826 9.04874 23.4174 8.9172 23.1195 8.9172C22.6717 8.9172 22.2976 9.21444 22.2072 9.61096C22.054 9.50704 21.866 9.44584 21.6628 9.44584C21.2493 9.44584 20.8986 9.69928 20.7762 10.0503C20.6506 9.99105 20.5089 9.95771 20.359 9.95771C19.8986 9.95771 19.5161 10.2719 19.4398 10.6852C19.38 10.6738 19.3181 10.6679 19.2548 10.6679C18.7444 10.6679 18.3297 11.0541 18.3218 11.5332C18.2663 11.5235 18.2091 11.5185 18.1505 11.5185C17.6352 11.5185 17.2175 11.9121 17.2175 12.3977C17.2175 12.4593 17.2242 12.5194 17.237 12.5773C17.1754 12.5653 17.1117 12.559 17.0463 12.559C16.531 12.559 16.1133 12.9526 16.1133 13.4382C16.1133 13.8071 16.3544 14.123 16.6963 14.2535C16.6761 14.3253 16.6654 14.4008 16.6654 14.4787C16.6654 14.8476 16.9065 15.1635 17.2484 15.294C17.2282 15.3659 17.2175 15.4413 17.2175 15.5192C17.2175 15.9933 17.6156 16.3797 18.114 16.3978C17.9038 16.559 17.7696 16.8047 17.7696 17.08C17.7696 17.5656 18.1873 17.9592 18.7027 17.9592C19.218 17.9592 19.6357 17.5656 19.6357 17.08C19.6357 16.6059 19.2376 16.2195 18.7392 16.2014C18.9494 16.0402 19.0836 15.7945 19.0836 15.5192C19.0836 15.1503 18.8425 14.8344 18.5006 14.704C18.5208 14.6321 18.5315 14.5566 18.5315 14.4787C18.5315 14.1098 18.2904 13.7939 17.9485 13.6635C17.9687 13.5916 17.9794 13.5161 17.9794 13.4382C17.9794 13.3766 17.9727 13.3165 17.9599 13.2586C18.0214 13.2706 18.0852 13.2769 18.1505 13.2769C18.6609 13.2769 19.0756 12.8908 19.0835 12.4116C19.139 12.4213 19.1963 12.4263 19.2548 12.4263C19.7152 12.4263 20.0977 12.1121 20.174 11.6989C20.2338 11.7102 20.2956 11.7162 20.359 11.7162C20.7725 11.7162 21.1231 11.4627 21.2456 11.1117C21.3711 11.171 21.5128 11.2043 21.6628 11.2043C21.8675 11.2043 22.0568 11.1422 22.2107 11.0368C22.2397 11.1544 22.2937 11.263 22.3672 11.3572C22.2536 11.5029 22.1864 11.6828 22.1864 11.8774C22.1864 12.3515 22.5846 12.7379 23.0829 12.756C22.8728 12.9172 22.7385 13.1629 22.7385 13.4382C22.7385 13.8071 22.9797 14.123 23.3215 14.2535C23.3014 14.3253 23.2906 14.4008 23.2906 14.4787C23.2906 14.8476 23.5318 15.1635 23.8737 15.294C23.8535 15.3659 23.8427 15.4413 23.8427 15.5192C23.8427 16.0048 24.2605 16.3984 24.7758 16.3984C25.2911 16.3984 25.7089 16.0048 25.7089 15.5192C25.7089 15.1503 25.4677 14.8344 25.1259 14.704C25.146 14.6321 25.1568 14.5566 25.1568 14.4787C25.1568 14.1098 24.9156 13.7939 24.5738 13.6635C24.5939 13.5916 24.6047 13.5161 24.6047 13.4382C24.6047 12.9642 24.2065 12.5777 23.7082 12.5596C23.9183 12.3984 24.0525 12.1527 24.0525 11.8774C24.0525 11.6828 23.9854 11.5029 23.8717 11.3572C23.9854 11.2115 24.0525 11.0316 24.0525 10.8369C24.0525 10.6423 23.9854 10.4624 23.8717 10.3167C23.9589 10.205 24.0186 10.0733 24.0418 9.93018C24.2127 10.135 24.4779 10.2665 24.7758 10.2665C25.2911 10.2665 25.7089 9.87287 25.7089 9.38728C25.7089 9.36021 25.7076 9.33342 25.705 9.30698C25.876 9.5071 26.1382 9.63515 26.4321 9.63515C26.7609 9.63515 27.0499 9.47495 27.2161 9.23287C27.3773 9.35807 27.5839 9.43327 27.8091 9.43327C28.1746 9.43327 28.4909 9.2353 28.6441 8.94696ZM23.1195 10.6757C23.4282 10.6757 23.7019 10.5344 23.8717 10.3167C23.7019 10.099 23.4282 9.95771 23.1195 9.95771C23.214 9.95771 23.2906 9.8855 23.2906 9.79643C23.2906 9.70736 23.214 9.63515 23.1195 9.63515C23.025 9.63515 22.9483 9.70736 22.9483 9.79643C22.9483 9.8855 23.025 9.95771 23.1195 9.95771C22.9148 9.95771 22.7255 10.0198 22.5716 10.1252C22.5197 9.91471 22.3876 9.73325 22.2072 9.61096C22.1936 9.67075 22.1864 9.7328 22.1864 9.79643C22.1864 9.99111 22.2536 10.171 22.3672 10.3167C22.2536 10.4624 22.1864 10.6423 22.1864 10.8369C22.1864 10.9057 22.1948 10.9726 22.2107 11.0368C22.3933 10.9118 22.526 10.7258 22.575 10.5105C22.7283 10.6145 22.9163 10.6757 23.1195 10.6757ZM23.1195 10.9982C22.8108 10.9982 22.5371 11.1395 22.3672 11.3572C22.5371 11.5749 22.8108 11.7162 23.1195 11.7162C23.025 11.7162 22.9483 11.7884 22.9483 11.8774C22.9483 11.9665 23.025 12.0387 23.1195 12.0387C23.214 12.0387 23.2906 11.9665 23.2906 11.8774C23.2906 11.7884 23.214 11.7162 23.1195 11.7162C23.4282 11.7162 23.7019 11.5749 23.8717 11.3572C23.7019 11.1395 23.4282 10.9982 23.1195 10.9982ZM23.1195 10.9982C23.214 10.9982 23.2906 10.926 23.2906 10.8369C23.2906 10.7479 23.214 10.6757 23.1195 10.6757C23.025 10.6757 22.9483 10.7479 22.9483 10.8369C22.9483 10.926 23.025 10.9982 23.1195 10.9982ZM22.575 10.5105C22.4955 10.4566 22.4253 10.3911 22.3672 10.3167C22.4245 10.2433 22.4935 10.1787 22.5716 10.1252C22.5875 10.1894 22.5958 10.2563 22.5958 10.3251C22.5958 10.3887 22.5887 10.4507 22.575 10.5105ZM25.1259 14.704C25.0178 14.6627 24.8996 14.64 24.7758 14.64C24.3431 14.64 23.9792 14.9175 23.8737 15.294C23.9817 15.3352 24.0999 15.3579 24.2237 15.3579C24.6564 15.3579 25.0203 15.0804 25.1259 14.704ZM24.5738 13.6635C24.4657 13.6222 24.3475 13.5995 24.2237 13.5995C23.791 13.5995 23.4271 13.877 23.3215 14.2535C23.4296 14.2947 23.5478 14.3174 23.6716 14.3174C24.1043 14.3174 24.4682 14.0399 24.5738 13.6635ZM23.7082 12.5596C23.696 12.5592 23.6838 12.559 23.6716 12.559C23.4484 12.559 23.2435 12.6328 23.0829 12.756C23.0951 12.7564 23.1072 12.7567 23.1195 12.7567C23.3427 12.7567 23.5476 12.6828 23.7082 12.5596ZM18.7392 16.2014L18.7189 16.2009L18.7027 16.2007C18.4795 16.2007 18.2746 16.2746 18.114 16.3978C18.1261 16.3982 18.1383 16.3984 18.1505 16.3984C18.3737 16.3984 18.5786 16.3246 18.7392 16.2014ZM18.5006 14.704C18.395 15.0804 18.0311 15.3579 17.5984 15.3579C17.4746 15.3579 17.3565 15.3352 17.2484 15.294C17.354 14.9175 17.7179 14.64 18.1505 14.64C18.2743 14.64 18.3925 14.6627 18.5006 14.704ZM17.9485 13.6635C17.8429 14.0399 17.479 14.3174 17.0463 14.3174C16.9225 14.3174 16.8044 14.2947 16.6963 14.2535C16.8019 13.877 17.1658 13.5995 17.5984 13.5995C17.7222 13.5995 17.8404 13.6222 17.9485 13.6635ZM17.237 12.5773C17.3122 12.9188 17.5976 13.1877 17.9599 13.2586C17.8847 12.9171 17.5993 12.6482 17.237 12.5773ZM19.0835 12.4116C18.65 12.3358 18.3217 11.9776 18.3217 11.5471L18.3218 11.5332C18.7553 11.609 19.0836 11.9672 19.0836 12.3977L19.0835 12.4116ZM20.174 11.6989C19.7473 11.618 19.4259 11.2628 19.4259 10.8369C19.4259 10.7852 19.4307 10.7345 19.4398 10.6852C19.8664 10.7661 20.1878 11.1212 20.1878 11.5471C20.1878 11.5989 20.1831 11.6496 20.174 11.6989ZM21.2456 11.1117C20.9397 10.9674 20.7297 10.6693 20.7297 10.3251C20.7297 10.2291 20.746 10.1367 20.7762 10.0503C21.082 10.1946 21.292 10.4927 21.292 10.8369C21.292 10.9329 21.2757 11.0253 21.2456 11.1117ZM24.0418 9.93018C23.9171 9.78069 23.8427 9.59217 23.8427 9.38728C23.8427 9.34181 23.8464 9.29714 23.8535 9.25353C23.9782 9.40302 24.0525 9.59154 24.0525 9.79643C24.0525 9.8419 24.0489 9.88657 24.0418 9.93018ZM25.5029 8.83622C25.5199 9.01361 25.5929 9.17578 25.705 9.30698C25.688 9.1296 25.615 8.96742 25.5029 8.83622ZM27.2161 9.23287C27.0085 9.07161 26.8761 8.82739 26.8761 8.55404C26.8761 8.37824 26.9308 8.21449 27.0252 8.0771C27.2328 8.23836 27.3652 8.48258 27.3652 8.75593C27.3652 8.93173 27.3104 9.09548 27.2161 9.23287ZM28.6441 8.94696C28.411 8.78711 28.2596 8.52806 28.2596 8.23567C28.2596 8.09445 28.2949 7.961 28.3577 7.84276C28.5907 8.00261 28.7422 8.26166 28.7422 8.55404C28.7422 8.69526 28.7069 8.82871 28.6441 8.94696ZM19.2548 11.7084C19.3493 11.7084 19.4259 11.6362 19.4259 11.5471C19.4259 11.458 19.3493 11.3858 19.2548 11.3858C19.1602 11.3858 19.0836 11.458 19.0836 11.5471C19.0836 11.6362 19.1602 11.7084 19.2548 11.7084ZM18.1505 12.559C18.2451 12.559 18.3217 12.4868 18.3217 12.3977C18.3217 12.3086 18.2451 12.2364 18.1505 12.2364C18.056 12.2364 17.9794 12.3086 17.9794 12.3977C17.9794 12.4868 18.056 12.559 18.1505 12.559ZM17.0463 13.5995C17.1409 13.5995 17.2175 13.5273 17.2175 13.4382C17.2175 13.3491 17.1409 13.2769 17.0463 13.2769C16.9518 13.2769 16.8752 13.3491 16.8752 13.4382C16.8752 13.5273 16.9518 13.5995 17.0463 13.5995ZM17.5984 14.64C17.693 14.64 17.7696 14.5678 17.7696 14.4787C17.7696 14.3896 17.693 14.3174 17.5984 14.3174C17.5039 14.3174 17.4273 14.3896 17.4273 14.4787C17.4273 14.5678 17.5039 14.64 17.5984 14.64ZM18.1505 15.6805C18.2451 15.6805 18.3217 15.6083 18.3217 15.5192C18.3217 15.4301 18.2451 15.3579 18.1505 15.3579C18.056 15.3579 17.9794 15.4301 17.9794 15.5192C17.9794 15.6083 18.056 15.6805 18.1505 15.6805ZM18.8738 17.08C18.8738 17.169 18.7972 17.2412 18.7027 17.2412C18.6081 17.2412 18.5315 17.169 18.5315 17.08C18.5315 16.9909 18.6081 16.9187 18.7027 16.9187C18.7972 16.9187 18.8738 16.9909 18.8738 17.08ZM20.359 10.9982C20.4535 10.9982 20.5301 10.926 20.5301 10.8369C20.5301 10.7479 20.4535 10.6757 20.359 10.6757C20.2644 10.6757 20.1878 10.7479 20.1878 10.8369C20.1878 10.926 20.2644 10.9982 20.359 10.9982ZM21.6628 10.4863C21.7573 10.4863 21.8339 10.4141 21.8339 10.3251C21.8339 10.236 21.7573 10.1638 21.6628 10.1638C21.5683 10.1638 21.4916 10.236 21.4916 10.3251C21.4916 10.4141 21.5683 10.4863 21.6628 10.4863ZM24.7758 9.54856C24.8703 9.54856 24.947 9.47635 24.947 9.38728C24.947 9.29821 24.8703 9.226 24.7758 9.226C24.6813 9.226 24.6047 9.29821 24.6047 9.38728C24.6047 9.47635 24.6813 9.54856 24.7758 9.54856ZM26.4321 8.91721C26.5266 8.91721 26.6033 8.845 26.6033 8.75593C26.6033 8.66685 26.5266 8.59465 26.4321 8.59465C26.3376 8.59465 26.261 8.66685 26.261 8.75593C26.261 8.845 26.3376 8.91721 26.4321 8.91721ZM27.8091 8.71532C27.9037 8.71532 27.9803 8.64311 27.9803 8.55404C27.9803 8.46497 27.9037 8.39277 27.8091 8.39277C27.7146 8.39277 27.638 8.46497 27.638 8.55404C27.638 8.64311 27.7146 8.71532 27.8091 8.71532ZM29.1926 8.39695C29.2872 8.39695 29.3638 8.32474 29.3638 8.23567C29.3638 8.1466 29.2872 8.07439 29.1926 8.07439C29.0981 8.07439 29.0215 8.1466 29.0215 8.23567C29.0215 8.32474 29.0981 8.39695 29.1926 8.39695ZM23.6716 13.5995C23.7661 13.5995 23.8427 13.5273 23.8427 13.4382C23.8427 13.3491 23.7661 13.2769 23.6716 13.2769C23.5771 13.2769 23.5004 13.3491 23.5004 13.4382C23.5004 13.5273 23.5771 13.5995 23.6716 13.5995ZM24.2237 14.64C24.3182 14.64 24.3949 14.5678 24.3949 14.4787C24.3949 14.3896 24.3182 14.3174 24.2237 14.3174C24.1292 14.3174 24.0525 14.3896 24.0525 14.4787C24.0525 14.5678 24.1292 14.64 24.2237 14.64ZM24.7758 15.6805C24.8703 15.6805 24.947 15.6083 24.947 15.5192C24.947 15.4301 24.8703 15.3579 24.7758 15.3579C24.6813 15.3579 24.6047 15.4301 24.6047 15.5192C24.6047 15.6083 24.6813 15.6805 24.7758 15.6805ZM49.0684 17.2412C49.1629 17.2412 49.2396 17.169 49.2396 17.08C49.2396 16.9909 49.1629 16.9187 49.0684 16.9187C48.9739 16.9187 48.8973 16.9909 48.8973 17.08C48.8973 17.169 48.9739 17.2412 49.0684 17.2412ZM48.1354 17.08C48.1354 17.5656 48.5531 17.9592 49.0684 17.9592C49.5837 17.9592 50.0015 17.5656 50.0015 17.08C50.0015 16.8047 49.8672 16.559 49.6571 16.3978C50.1555 16.3797 50.5536 15.9933 50.5536 15.5192C50.5536 15.4413 50.5428 15.3658 50.5227 15.294C50.8645 15.1635 51.1057 14.8476 51.1057 14.4787C51.1057 14.4008 51.0949 14.3253 51.0748 14.2535C51.4166 14.123 51.6578 13.8071 51.6578 13.4382C51.6578 12.9526 51.24 12.559 50.7247 12.559C50.6594 12.559 50.5956 12.5653 50.5341 12.5773C50.5469 12.5193 50.5536 12.4593 50.5536 12.3977C50.5536 11.9121 50.1358 11.5185 49.6205 11.5185C49.562 11.5185 49.5048 11.5235 49.4493 11.5332C49.4414 11.0541 49.0267 10.6679 48.5163 10.6679C48.453 10.6679 48.3911 10.6738 48.3313 10.6852C48.255 10.2719 47.8725 9.95771 47.4121 9.95771C47.2621 9.95771 47.1204 9.99105 46.9949 10.0503C46.8724 9.69928 46.5218 9.44584 46.1083 9.44584C45.9051 9.44584 45.7171 9.50705 45.5638 9.61096C45.4735 9.21444 45.0994 8.9172 44.6516 8.9172C44.3537 8.9172 44.0884 9.04874 43.9176 9.25353C43.8492 8.83142 43.4623 8.50805 42.9953 8.50805C42.7014 8.50805 42.4392 8.6361 42.2682 8.83623C42.2707 8.80978 42.272 8.783 42.272 8.75593C42.272 8.27034 41.8543 7.8767 41.339 7.8767C41.1137 7.8767 40.9071 7.9519 40.7459 8.0771C40.5797 7.83502 40.2907 7.67482 39.9619 7.67482C39.7569 7.67482 39.5673 7.73713 39.4134 7.84276C39.2602 7.55442 38.9439 7.35645 38.5784 7.35645C38.0631 7.35645 37.6454 7.75009 37.6454 8.23567C37.6454 8.72126 38.0631 9.1149 38.5784 9.1149C38.7835 9.1149 38.973 9.05258 39.127 8.94696C39.2801 9.2353 39.5965 9.43327 39.9619 9.43327C40.1872 9.43327 40.3938 9.35807 40.555 9.23287C40.7212 9.47495 41.0102 9.63515 41.339 9.63515C41.6329 9.63515 41.895 9.50711 42.066 9.30699C42.0635 9.33343 42.0622 9.36021 42.0622 9.38728C42.0622 9.87287 42.48 10.2665 42.9953 10.2665C43.2931 10.2665 43.5584 10.135 43.7293 9.93018C43.7524 10.0733 43.8122 10.205 43.8993 10.3167C43.7857 10.4624 43.7185 10.6423 43.7185 10.8369C43.7185 11.0316 43.7857 11.2115 43.8993 11.3572C43.7857 11.5029 43.7185 11.6828 43.7185 11.8774C43.7185 12.1527 43.8528 12.3984 44.0629 12.5596C43.5645 12.5777 43.1664 12.9642 43.1664 13.4382C43.1664 13.5161 43.1772 13.5916 43.1973 13.6635C42.8555 13.7939 42.6143 14.1098 42.6143 14.4787C42.6143 14.5566 42.6251 14.6321 42.6452 14.704C42.3034 14.8344 42.0622 15.1503 42.0622 15.5192C42.0622 16.0048 42.48 16.3984 42.9953 16.3984C43.5106 16.3984 43.9283 16.0048 43.9283 15.5192C43.9283 15.4413 43.9176 15.3659 43.8974 15.294C44.2393 15.1635 44.4804 14.8476 44.4804 14.4787C44.4804 14.4008 44.4697 14.3253 44.4495 14.2535C44.7914 14.123 45.0325 13.8071 45.0325 13.4382C45.0325 13.1629 44.8983 12.9172 44.6881 12.756C45.1865 12.7379 45.5846 12.3515 45.5846 11.8774C45.5846 11.6828 45.5175 11.5029 45.4038 11.3572C45.4773 11.263 45.5314 11.1544 45.5604 11.0368C45.7143 11.1422 45.9036 11.2043 46.1083 11.2043C46.2583 11.2043 46.4 11.1709 46.5255 11.1117C46.648 11.4627 46.9986 11.7162 47.4121 11.7162C47.4754 11.7162 47.5373 11.7102 47.5971 11.6989C47.6734 12.1121 48.0559 12.4263 48.5163 12.4263C48.5748 12.4263 48.6321 12.4213 48.6876 12.4116C48.6954 12.8908 49.1101 13.2769 49.6205 13.2769C49.6859 13.2769 49.7496 13.2706 49.8112 13.2585C49.7984 13.3165 49.7917 13.3766 49.7917 13.4382C49.7917 13.5161 49.8024 13.5916 49.8226 13.6634C49.4807 13.7939 49.2396 14.1098 49.2396 14.4787C49.2396 14.5566 49.2503 14.6321 49.2705 14.704C48.9286 14.8344 48.6875 15.1503 48.6875 15.5192C48.6875 15.7945 48.8217 16.0402 49.0319 16.2014C48.5335 16.2195 48.1354 16.6059 48.1354 17.08ZM45.196 10.5105C45.0428 10.6145 44.8548 10.6757 44.6516 10.6757C44.3429 10.6757 44.0692 10.5344 43.8993 10.3167C44.0692 10.099 44.3429 9.95771 44.6516 9.95771C44.8563 9.95771 45.0456 10.0198 45.1995 10.1252C45.1836 10.1894 45.1752 10.2563 45.1752 10.3251C45.1752 10.3887 45.1824 10.4507 45.196 10.5105ZM45.4038 10.3167C45.5175 10.4624 45.5846 10.6423 45.5846 10.8369C45.5846 10.9057 45.5763 10.9726 45.5604 11.0368C45.3777 10.9118 45.2451 10.7258 45.196 10.5105C45.2756 10.4566 45.3458 10.3911 45.4038 10.3167ZM45.4038 10.3167C45.3466 10.2433 45.2776 10.1787 45.1995 10.1252C45.2514 9.91471 45.3835 9.73326 45.5638 9.61096C45.5775 9.67075 45.5846 9.7328 45.5846 9.79643C45.5846 9.99111 45.5175 10.171 45.4038 10.3167ZM43.8974 15.294C43.7918 14.9175 43.428 14.64 42.9953 14.64C42.8715 14.64 42.7533 14.6627 42.6452 14.704C42.7508 15.0804 43.1147 15.3579 43.5474 15.3579C43.6712 15.3579 43.7893 15.3352 43.8974 15.294ZM44.4495 14.2535C44.344 13.877 43.9801 13.5995 43.5474 13.5995C43.4236 13.5995 43.3054 13.6222 43.1973 13.6635C43.3029 14.0399 43.6668 14.3174 44.0995 14.3174C44.2233 14.3174 44.3414 14.2947 44.4495 14.2535ZM44.6881 12.756C44.5276 12.6328 44.3227 12.559 44.0995 12.559C44.0872 12.559 44.075 12.5592 44.0629 12.5596C44.2235 12.6828 44.4284 12.7567 44.6516 12.7567C44.6638 12.7567 44.676 12.7564 44.6881 12.756ZM45.4038 11.3572C45.234 11.1395 44.9603 10.9982 44.6516 10.9982C44.3429 10.9982 44.0692 11.1395 43.8993 11.3572C44.0692 11.5749 44.3429 11.7162 44.6516 11.7162C44.9603 11.7162 45.234 11.5749 45.4038 11.3572ZM39.127 8.94696C39.36 8.7871 39.5115 8.52806 39.5115 8.23567C39.5115 8.09445 39.4761 7.96101 39.4134 7.84276C39.1803 8.00261 39.0289 8.26166 39.0289 8.55404C39.0289 8.69526 39.0642 8.82871 39.127 8.94696ZM40.555 9.23287C40.7626 9.07161 40.895 8.82739 40.895 8.55404C40.895 8.37824 40.8402 8.21449 40.7459 8.0771C40.5383 8.23836 40.4059 8.48258 40.4059 8.75593C40.4059 8.93173 40.4607 9.09548 40.555 9.23287ZM42.2682 8.83623C42.2511 9.01361 42.1782 9.17579 42.066 9.30699C42.0831 9.1296 42.156 8.96743 42.2682 8.83623ZM43.7293 9.93018C43.8539 9.78069 43.9283 9.59217 43.9283 9.38728C43.9283 9.34181 43.9247 9.29714 43.9176 9.25353C43.7929 9.40302 43.7185 9.59154 43.7185 9.79643C43.7185 9.8419 43.7222 9.88657 43.7293 9.93018ZM46.5255 11.1117C46.8314 10.9674 47.0413 10.6693 47.0413 10.3251C47.0413 10.2291 47.025 10.1367 46.9949 10.0503C46.689 10.1946 46.479 10.4927 46.479 10.8369C46.479 10.9329 46.4954 11.0253 46.5255 11.1117ZM47.5971 11.6989C48.0238 11.618 48.3452 11.2628 48.3452 10.8369C48.3452 10.7852 48.3404 10.7345 48.3313 10.6852C47.9046 10.7661 47.5833 11.1212 47.5833 11.5471C47.5833 11.5989 47.588 11.6496 47.5971 11.6989ZM49.8112 13.2585C50.1735 13.1877 50.4589 12.9188 50.5341 12.5773C50.1718 12.6482 49.8864 12.9171 49.8112 13.2585ZM49.4493 11.5332L49.4494 11.5471C49.4494 11.9776 49.1211 12.3358 48.6876 12.4116L48.6875 12.3977C48.6875 11.9672 49.0157 11.609 49.4493 11.5332ZM49.8226 13.6634C49.9307 13.6222 50.0488 13.5995 50.1726 13.5995C50.6053 13.5995 50.9692 13.877 51.0748 14.2535C50.9667 14.2947 50.8485 14.3174 50.7247 14.3174C50.2921 14.3174 49.9282 14.0399 49.8226 13.6634ZM49.2705 14.704C49.3786 14.6627 49.4967 14.64 49.6205 14.64C50.0532 14.64 50.4171 14.9175 50.5227 15.294C50.4146 15.3352 50.2964 15.3579 50.1726 15.3579C49.7399 15.3579 49.3761 15.0804 49.2705 14.704ZM49.6205 16.3984C49.3973 16.3984 49.1924 16.3246 49.0319 16.2014C49.044 16.201 49.0562 16.2007 49.0684 16.2007C49.2916 16.2007 49.4965 16.2746 49.6571 16.3978C49.645 16.3982 49.6328 16.3984 49.6205 16.3984ZM49.6205 15.6805C49.715 15.6805 49.7917 15.6083 49.7917 15.5192C49.7917 15.4301 49.715 15.3579 49.6205 15.3579C49.526 15.3579 49.4494 15.4301 49.4494 15.5192C49.4494 15.6083 49.526 15.6805 49.6205 15.6805ZM50.1726 14.64C50.2672 14.64 50.3438 14.5678 50.3438 14.4787C50.3438 14.3896 50.2672 14.3174 50.1726 14.3174C50.0781 14.3174 50.0015 14.3896 50.0015 14.4787C50.0015 14.5678 50.0781 14.64 50.1726 14.64ZM50.7247 13.5995C50.8193 13.5995 50.8959 13.5273 50.8959 13.4382C50.8959 13.3491 50.8193 13.2769 50.7247 13.2769C50.6302 13.2769 50.5536 13.3491 50.5536 13.4382C50.5536 13.5273 50.6302 13.5995 50.7247 13.5995ZM49.6205 12.559C49.715 12.559 49.7917 12.4868 49.7917 12.3977C49.7917 12.3086 49.715 12.2364 49.6205 12.2364C49.526 12.2364 49.4494 12.3086 49.4494 12.3977C49.4494 12.4868 49.526 12.559 49.6205 12.559ZM48.5163 11.7084C48.6108 11.7084 48.6875 11.6362 48.6875 11.5471C48.6875 11.458 48.6108 11.3858 48.5163 11.3858C48.4218 11.3858 48.3452 11.458 48.3452 11.5471C48.3452 11.6362 48.4218 11.7084 48.5163 11.7084ZM47.4121 10.9982C47.5066 10.9982 47.5833 10.926 47.5833 10.8369C47.5833 10.7479 47.5066 10.6757 47.4121 10.6757C47.3176 10.6757 47.241 10.7479 47.241 10.8369C47.241 10.926 47.3176 10.9982 47.4121 10.9982ZM46.1083 10.4863C46.2028 10.4863 46.2794 10.4141 46.2794 10.3251C46.2794 10.236 46.2028 10.1638 46.1083 10.1638C46.0138 10.1638 45.9371 10.236 45.9371 10.3251C45.9371 10.4141 46.0138 10.4863 46.1083 10.4863ZM44.6516 9.95771C44.7461 9.95771 44.8227 9.8855 44.8227 9.79643C44.8227 9.70736 44.7461 9.63515 44.6516 9.63515C44.5571 9.63515 44.4804 9.70736 44.4804 9.79643C44.4804 9.8855 44.5571 9.95771 44.6516 9.95771ZM42.9953 9.54856C43.0898 9.54856 43.1664 9.47635 43.1664 9.38728C43.1664 9.29821 43.0898 9.226 42.9953 9.226C42.9007 9.226 42.8241 9.29821 42.8241 9.38728C42.8241 9.47635 42.9007 9.54856 42.9953 9.54856ZM41.339 8.91721C41.4335 8.91721 41.5101 8.845 41.5101 8.75593C41.5101 8.66685 41.4335 8.59465 41.339 8.59465C41.2444 8.59465 41.1678 8.66685 41.1678 8.75593C41.1678 8.845 41.2444 8.91721 41.339 8.91721ZM39.9619 8.71532C40.0565 8.71532 40.1331 8.64311 40.1331 8.55404C40.1331 8.46497 40.0565 8.39277 39.9619 8.39277C39.8674 8.39277 39.7908 8.46497 39.7908 8.55404C39.7908 8.64311 39.8674 8.71532 39.9619 8.71532ZM38.5784 8.39695C38.673 8.39695 38.7496 8.32474 38.7496 8.23567C38.7496 8.1466 38.673 8.07439 38.5784 8.07439C38.4839 8.07439 38.4073 8.1466 38.4073 8.23567C38.4073 8.32474 38.4839 8.39695 38.5784 8.39695ZM44.6516 10.9982C44.7461 10.9982 44.8227 10.926 44.8227 10.8369C44.8227 10.7479 44.7461 10.6757 44.6516 10.6757C44.5571 10.6757 44.4804 10.7479 44.4804 10.8369C44.4804 10.926 44.5571 10.9982 44.6516 10.9982ZM44.6516 12.0387C44.7461 12.0387 44.8227 11.9665 44.8227 11.8774C44.8227 11.7884 44.7461 11.7162 44.6516 11.7162C44.5571 11.7162 44.4804 11.7884 44.4804 11.8774C44.4804 11.9665 44.5571 12.0387 44.6516 12.0387ZM44.0995 13.5995C44.194 13.5995 44.2706 13.5273 44.2706 13.4382C44.2706 13.3491 44.194 13.2769 44.0995 13.2769C44.005 13.2769 43.9283 13.3491 43.9283 13.4382C43.9283 13.5273 44.005 13.5995 44.0995 13.5995ZM43.5474 14.64C43.6419 14.64 43.7185 14.5678 43.7185 14.4787C43.7185 14.3896 43.6419 14.3174 43.5474 14.3174C43.4528 14.3174 43.3762 14.3896 43.3762 14.4787C43.3762 14.5678 43.4528 14.64 43.5474 14.64ZM42.9953 15.6805C43.0898 15.6805 43.1664 15.6083 43.1664 15.5192C43.1664 15.4301 43.0898 15.3579 42.9953 15.3579C42.9007 15.3579 42.8241 15.4301 42.8241 15.5192C42.8241 15.6083 42.9007 15.6805 42.9953 15.6805Z" fill="white"/>
<path fill-rule="evenodd" clip-rule="evenodd" d="M34.0689 3.07106L32.6097 3.11354L32.5796 5.38885L29.887 5.424L29.8993 6.80491L32.5613 6.77016L32.5271 9.36349L33.9863 9.321L34.0202 6.75112L36.6692 6.71654L36.6569 5.33562L34.0385 5.3698L34.0689 3.07106Z" fill="#F6C540"/>
<path fill-rule="evenodd" clip-rule="evenodd" d="M13.4648 26.6865H53.0839V58.3964C53.0839 58.3964 51.8858 74.1917 33.2744 74.1917C14.663 74.1917 13.4648 58.3964 13.4648 58.3964V26.6865Z" fill="#C51918"/>
<path fill-rule="evenodd" clip-rule="evenodd" d="M25.4226 27.7842C25.0593 27.7842 24.5001 28.0301 23.7588 28.3085C23.0175 28.5869 22.239 29.188 22.9989 29.7901C23.7588 30.3921 24.8466 31.7135 24.8466 31.2195C24.8466 30.7254 26.1462 30.2464 26.1462 30.4859C26.1462 30.7254 25.7438 31.2195 26.7992 31.2195C27.8545 31.2195 28.3982 31.5133 27.2722 31.5133C26.1462 31.5133 26.0238 31.9987 25.292 31.9987C24.5602 31.9987 22.9989 31.5096 22.9989 31.2195C22.9989 30.9293 23.903 32.646 24.8466 32.646C25.7902 32.646 26.3262 33.4812 26.7992 33.0636C27.2722 32.646 27.2162 32.646 27.9804 32.646C28.7446 32.646 28.4657 30.9593 28.4657 30.9593C28.4657 30.9593 25.7859 27.7842 25.4226 27.7842Z" fill="#E8AA00"/>
<path fill-rule="evenodd" clip-rule="evenodd" d="M40.7121 27.7842C41.0754 27.7842 41.6347 28.0301 42.376 28.3085C43.1173 28.5869 43.8958 29.188 43.1359 29.7901C42.376 30.3921 41.2881 31.7135 41.2881 31.2195C41.2881 30.7254 39.9886 30.2464 39.9886 30.4859C39.9886 30.7254 40.3909 31.2195 39.3356 31.2195C38.2802 31.2195 37.7365 31.5133 38.8626 31.5133C39.9886 31.5133 40.111 31.9987 40.8428 31.9987C41.5746 31.9987 43.1359 31.5096 43.1359 31.2195C43.1359 30.9293 42.2317 32.646 41.2881 32.646C40.3445 32.646 39.8086 33.4812 39.3356 33.0636C38.8626 32.646 38.9185 32.646 38.1544 32.646C37.3902 32.646 37.6691 30.9593 37.6691 30.9593C37.6691 30.9593 40.3488 27.7842 40.7121 27.7842Z" fill="#E8AA00"/>
<path fill-rule="evenodd" clip-rule="evenodd" d="M20.0023 31.2315C19.2428 32.9004 25.0635 39.1002 25.0635 39.1002H25.7152C25.9891 39.1002 26.4985 38.4652 27.1135 37.6985C27.5351 37.173 28.0063 36.5856 28.4853 36.0983C29.3864 35.1818 28.9088 34.4118 28.4636 33.694C28.3268 33.4735 28.1931 33.2579 28.1034 33.0445C27.909 32.5822 27.8813 32.3978 27.8497 32.1871C27.8192 31.9839 27.7851 31.7563 27.5942 31.2315C27.3137 30.4602 26.3356 29.4651 25.6575 28.7751C25.3956 28.5087 25.1785 28.2877 25.0635 28.1428C24.7004 27.685 24.9759 27.6877 25.7338 27.695C25.8378 27.696 25.9508 27.6971 26.0726 27.6971C27.0817 27.6971 29.0094 28.1427 29.5856 28.6633C30.1618 29.1838 30.766 29.2948 31.6538 29.2948C32.5416 29.2948 31.994 29.8582 31.1855 30.2386C32.056 30.3954 32.4506 31.7629 32.6295 32.977C32.9574 31.7629 33.5155 30.3954 34.386 30.2386C33.5775 29.8582 33.0299 29.2948 33.9177 29.2948C34.8055 29.2948 35.4097 29.1838 35.9859 28.6633C36.5621 28.1427 38.4898 27.6971 39.4989 27.6971C39.6207 27.6971 39.7337 27.696 39.8377 27.695C40.5956 27.6877 40.8711 27.685 40.508 28.1428C40.393 28.2877 40.1759 28.5087 39.914 28.7751C39.2358 29.4651 38.2578 30.4602 37.9773 31.2315C37.7864 31.7563 37.7523 31.9839 37.7218 32.1871C37.6902 32.3978 37.6625 32.5822 37.4681 33.0445C37.3784 33.2579 37.2447 33.4735 37.1079 33.694C36.6627 34.4118 36.1851 35.1818 37.0862 36.0983C37.5652 36.5856 38.0364 37.173 38.458 37.6985C39.073 38.4652 39.5824 39.1002 39.8563 39.1002H40.508C40.508 39.1002 46.3287 32.9004 45.5692 31.2315C45.2757 30.5864 44.8022 29.9785 44.4103 29.4755C43.7884 28.6771 43.3722 28.1428 44.2076 28.1428C45.5692 28.1428 50.9973 31.3861 50.9973 38.6992C50.9973 46.0123 50.4959 50.1716 49.332 53.0854C48.5377 55.0739 49.2653 57.0051 49.8074 58.4443C50.0598 59.1141 50.272 59.6773 50.272 60.0902C50.272 61.3904 48.1348 60.2511 48.1348 59.4369C48.1348 59.0497 47.8422 59.6264 47.5352 60.2312C47.1968 60.8981 46.841 61.5991 46.841 61.0801C46.841 60.5262 46.5003 59.9413 46.2002 59.426C45.9638 59.0203 45.7527 58.6578 45.7527 58.3875C45.7527 58.1172 45.4529 58.1273 45.1174 58.1385C44.6912 58.1527 44.2076 58.1688 44.2076 57.615C44.2076 57.2414 44.0537 57.1667 43.8621 57.0738C43.5461 56.9206 43.1276 56.7177 43.1276 55.0421C43.1276 53.8002 42.8637 54.2402 42.5611 54.7449C42.2825 55.2094 41.9711 55.7287 41.8022 55.0421C41.7858 54.9752 41.6109 54.6873 41.3948 54.3313C41.0802 53.8132 40.6781 53.1511 40.5495 52.8167C40.5349 52.7628 40.5211 52.709 40.508 52.6554C40.508 52.6923 40.5229 52.7475 40.5495 52.8167C40.946 54.2794 41.8972 55.8035 42.5013 56.5296C43.1276 57.2825 44.2076 58.9167 44.2076 58.9167C44.2076 58.9167 43.2004 59.446 42.5013 58.9167C42.1108 58.6211 42.0845 58.8993 42.0557 59.2024C42.033 59.442 42.0088 59.6973 41.8022 59.6973C41.6725 59.6973 41.5503 59.7173 41.4415 59.735C41.3611 59.7482 41.2879 59.7602 41.2244 59.762C41.0982 59.4591 40.965 59.2544 40.965 59.4369C40.965 59.7063 41.0639 59.7665 41.2244 59.762C41.4577 60.3221 41.6671 61.2179 40.965 60.6194C40.4636 60.192 40.112 60.0185 39.8791 59.9036C39.6095 59.7706 39.4989 59.716 39.4989 59.4369C39.4989 59.1584 39.3894 59.2528 39.2178 59.4005C39.0689 59.5288 38.8733 59.6973 38.662 59.6973C38.3897 59.6973 38.333 59.34 38.2505 58.8203C38.1953 58.4719 38.1284 58.0506 37.9773 57.615C37.9421 57.5135 37.909 57.416 37.8777 57.3235C37.5736 56.4269 37.4319 56.0087 37.0862 57.1398C36.9247 57.6684 36.6394 58.0426 36.391 58.3685C36.0529 58.8119 35.7831 59.1659 35.9859 59.6973C36.0653 59.9054 36.1649 60.1405 36.2715 60.3922C36.6374 61.2559 37.0862 62.3153 37.0862 63.1495C37.0862 63.6455 37.5653 64.3214 38.0156 64.9566C38.5433 65.7013 39.0315 66.39 38.662 66.6674C37.9773 67.1815 38.8058 68.9128 39.4989 69.801C39.4989 72.3958 32.2416 72.7276 32.2416 72.7276V72.7049C32.2278 72.7199 32.2137 72.7276 32.1993 72.7276C31.1855 72.7276 25.3795 70.6892 26.0726 69.801C26.7657 68.9128 27.5942 67.1815 26.9095 66.6674C26.54 66.39 27.0282 65.7013 27.5559 64.9566C28.0062 64.3214 28.4853 63.6455 28.4853 63.1495C28.4853 62.3153 28.9341 61.2559 29.3 60.3922C29.4066 60.1404 29.5062 59.9054 29.5856 59.6973C29.7884 59.1659 29.5185 58.8119 29.1805 58.3685C28.9321 58.0426 28.6468 57.6684 28.4853 57.1398C28.1396 56.0087 27.9979 56.4269 27.6938 57.3235C27.6625 57.416 27.6294 57.5135 27.5942 57.615C27.4431 58.0506 27.3762 58.4719 27.321 58.8203C27.2385 59.34 27.1818 59.6973 26.9095 59.6973C26.6982 59.6973 26.5026 59.5288 26.3537 59.4006C26.1821 59.2528 26.0726 59.1584 26.0726 59.4369C26.0726 59.716 25.962 59.7706 25.6924 59.9036C25.4595 60.0185 25.1079 60.192 24.6065 60.6194C23.9044 61.2179 24.1138 60.3221 24.3471 59.762C24.5076 59.7665 24.6065 59.7063 24.6065 59.4369C24.6065 59.2544 24.4733 59.4591 24.3471 59.762C24.2836 59.7602 24.2104 59.7482 24.13 59.735C24.0212 59.7173 23.899 59.6973 23.7693 59.6973C23.5627 59.6973 23.5385 59.442 23.5158 59.2024C23.487 58.8993 23.4607 58.6211 23.0702 58.9167C22.3711 59.446 21.3639 58.9167 21.3639 58.9167C21.3639 58.9167 22.4439 57.2825 23.0702 56.5296C23.6742 55.8035 24.6255 54.2794 25.022 52.8167C25.0486 52.7475 25.0635 52.6923 25.0635 52.6554C25.0504 52.709 25.0366 52.7628 25.022 52.8167C24.8934 53.1511 24.4913 53.8132 24.1767 54.3313C23.9606 54.6872 23.7857 54.9752 23.7693 55.0421C23.6004 55.7287 23.289 55.2094 23.0104 54.7449C22.7078 54.2402 22.4439 53.8002 22.4439 55.0421C22.4439 56.7177 22.0254 56.9206 21.7094 57.0738C21.5178 57.1667 21.3639 57.2414 21.3639 57.615C21.3639 58.1688 20.8802 58.1527 20.4541 58.1385C20.1186 58.1273 19.8188 58.1172 19.8188 58.3875C19.8188 58.6578 19.6077 59.0203 19.3713 59.426C19.0712 59.9413 18.7304 60.5262 18.7304 61.0801C18.7304 61.5991 18.3747 60.8981 18.0363 60.2312C17.7293 59.6264 17.4367 59.0497 17.4367 59.4369C17.4367 60.2511 15.2995 61.3904 15.2995 60.0902C15.2995 59.6773 15.5117 59.1141 15.764 58.4443C16.3062 57.0051 17.0337 55.0739 16.2395 53.0854C15.0756 50.1716 14.5742 46.0123 14.5742 38.6992C14.5742 31.3861 20.0023 28.1428 21.3639 28.1428C22.1993 28.1428 21.7831 28.6771 21.1611 29.4755C20.7693 29.9785 20.2958 30.5864 20.0023 31.2315Z" fill="#F7FCFF"/>
<path fill-rule="evenodd" clip-rule="evenodd" d="M25.8926 39.6104H40.6564V50.606C40.6564 50.606 39.0715 56.0832 33.2745 56.0832C27.4775 56.0832 25.8926 50.606 25.8926 50.606V39.6104Z" fill="#C51918"/>
<path fill-rule="evenodd" clip-rule="evenodd" d="M35.2647 39.4502H31.4V45.7626H25.8789V48.017H31.4V56.133H35.2647V48.017H40.7857V45.7626H35.2647V39.4502Z" fill="#F7FCFF"/>
<path fill-rule="evenodd" clip-rule="evenodd" d="M22.9112 64.4234C24.7056 62.3591 26.3873 60.5234 24.8911 59.2227C23.3948 57.922 21.6085 59.0495 19.8141 61.1137C18.0197 63.178 16.8967 65.3972 18.393 66.6979C19.8892 67.9986 21.1168 66.4876 22.9112 64.4234Z" fill="#E8AA00"/>
<path fill-rule="evenodd" clip-rule="evenodd" d="M42.4521 64.4234C40.6577 62.3591 38.976 60.5234 40.4722 59.2227C41.9685 57.922 43.7548 59.0495 45.5492 61.1137C47.3436 63.178 48.4666 65.3972 46.9703 66.6979C45.4741 67.9986 44.2465 66.4876 42.4521 64.4234Z" fill="#E8AA00"/>
</g>
</g>
</svg>
