<svg width="106" height="80" viewBox="0 0 106 80" fill="none" xmlns="http://www.w3.org/2000/svg">
<mask id="mask0_908_6067" style="mask-type:alpha" maskUnits="userSpaceOnUse" x="0" y="0" width="106" height="80">
<rect x="0.140625" width="105.778" height="80" fill="white"/>
</mask>
<g mask="url(#mask0_908_6067)">
<path fill-rule="evenodd" clip-rule="evenodd" d="M0.140625 0V80H105.918V0H0.140625Z" fill="#3D58DB"/>
<mask id="mask1_908_6067" style="mask-type:alpha" maskUnits="userSpaceOnUse" x="0" y="0" width="106" height="80">
<path fill-rule="evenodd" clip-rule="evenodd" d="M0.140625 0V80H105.918V0H0.140625Z" fill="white"/>
</mask>
<g mask="url(#mask1_908_6067)">
<path fill-rule="evenodd" clip-rule="evenodd" d="M0.140625 0V26.6667H105.918V0H0.140625Z" fill="#F7FCFF"/>
<path fill-rule="evenodd" clip-rule="evenodd" d="M0.140625 53.333V79.9997H105.918V53.333H0.140625Z" fill="#E31D1C"/>
<path d="M51.72 20.1016L51.9686 20.0753L51.945 19.8516H51.72H21.1136H20.8797L20.8641 20.0849L21.1136 20.1016C20.8641 20.0849 20.8641 20.085 20.8641 20.0851L20.8641 20.0857L20.8639 20.0882L20.8633 20.0981L20.8607 20.1372L20.8507 20.29C20.842 20.4241 20.8293 20.6214 20.8134 20.8743C20.7816 21.3801 20.737 22.1085 20.6856 22.9989C20.5829 24.7797 20.4531 27.2091 20.3451 29.8032C20.1294 34.98 19.9983 40.8467 20.3487 43.5022C21.0468 48.7923 24.2203 60.4492 36.3292 65.7237L36.4308 65.7679L36.5318 65.7224C48.0797 60.5155 51.9609 50.0311 52.8587 43.5036C53.3082 40.2348 53.0829 34.3669 52.7491 29.3396C52.5818 26.821 52.3868 24.5052 52.2335 22.8192C52.1569 21.9761 52.0907 21.2904 52.0436 20.8153C52.0201 20.5778 52.0014 20.3929 51.9885 20.2673L51.9737 20.1243L51.9699 20.0878L51.969 20.0785L51.9687 20.0761L51.9686 20.0755C51.9686 20.0754 51.9686 20.0753 51.72 20.1016Z" fill="#E31D1C" stroke="white" stroke-width="0.5"/>
<mask id="mask2_908_6067" style="mask-type:alpha" maskUnits="userSpaceOnUse" x="19" y="19" width="35" height="48">
<path d="M51.72 20.1016L51.9686 20.0753L51.945 19.8516H51.72H21.1136H20.8797L20.8641 20.0849L21.1136 20.1016C20.8641 20.0849 20.8641 20.085 20.8641 20.0851L20.8641 20.0857L20.8639 20.0882L20.8633 20.0981L20.8607 20.1372L20.8507 20.29C20.842 20.4241 20.8293 20.6214 20.8134 20.8743C20.7816 21.3801 20.737 22.1085 20.6856 22.9989C20.5829 24.7797 20.4531 27.2091 20.3451 29.8032C20.1294 34.98 19.9983 40.8467 20.3487 43.5022C21.0468 48.7923 24.2203 60.4492 36.3292 65.7237L36.4308 65.7679L36.5318 65.7224C48.0797 60.5155 51.9609 50.0311 52.8587 43.5036C53.3082 40.2348 53.0829 34.3669 52.7491 29.3396C52.5818 26.821 52.3868 24.5052 52.2335 22.8192C52.1569 21.9761 52.0907 21.2904 52.0436 20.8153C52.0201 20.5778 52.0014 20.3929 51.9885 20.2673L51.9737 20.1243L51.9699 20.0878L51.969 20.0785L51.9687 20.0761L51.9686 20.0755C51.9686 20.0754 51.9686 20.0753 51.72 20.1016Z" fill="white" stroke="white" stroke-width="0.5"/>
</mask>
<g mask="url(#mask2_908_6067)">
<path fill-rule="evenodd" clip-rule="evenodd" d="M32.7409 21.9658C32.7409 21.9658 33.4235 23.0146 33.7291 24.6182C34.0346 26.2218 34.0873 28.046 34.0873 28.046L28.9172 27.242V33.1785L34.232 32.3284L34.073 38.5535C34.073 38.5535 33.3977 38.7605 31.7734 38.5535C30.1491 38.3464 26.9492 37.4791 26.9492 37.4791V43.1471C26.9492 43.1471 30.2002 42.0983 31.7734 41.8576C33.3465 41.6169 34.073 41.8576 34.073 41.8576L34.1244 47.2927H39.3959L39.3445 41.8576C39.3445 41.8576 41.0034 41.6001 42.756 41.8789C44.5085 42.1577 46.1709 43.1471 46.1709 43.1471V37.4791C46.1709 37.4791 44.4867 38.3253 42.8982 38.5358C41.3097 38.7464 39.3445 38.5535 39.3445 38.5535L39.5035 32.3284C39.5035 32.3284 40.4235 32.0988 41.6572 32.2677C42.8909 32.4366 44.435 33.1785 44.435 33.1785V27.242C44.435 27.242 42.93 28.0679 41.7459 28.2177C40.5617 28.3675 39.3588 28.046 39.3588 28.046C39.3588 28.046 39.4028 26.1319 39.6574 24.7201C39.912 23.3082 40.633 21.9658 40.633 21.9658H32.7409Z" fill="#F7FCFF"/>
<path fill-rule="evenodd" clip-rule="evenodd" d="M22.9395 54.1511C22.9395 54.1511 24.3922 51.0069 26.7561 50.409C29.1201 49.8112 31.5988 52.2801 31.5988 52.2801C31.5988 52.2801 33.1124 47.292 36.8018 47.292C40.4911 47.292 41.7859 52.2801 41.7859 52.2801C41.7859 52.2801 43.36 50.409 45.6236 50.409C47.8871 50.409 49.9843 54.1511 49.9843 54.1511C49.9843 54.1511 43.2231 66.5292 36.4619 66.5292C29.7007 66.5292 22.9395 54.1511 22.9395 54.1511Z" fill="#2E42A5"/>
</g>
</g>
</g>
</svg>
