<svg width="107" height="80" viewBox="0 0 107 80" fill="none" xmlns="http://www.w3.org/2000/svg">
<mask id="mask0_908_6041" style="mask-type:alpha" maskUnits="userSpaceOnUse" x="0" y="0" width="107" height="80">
<rect x="0.640625" width="105.778" height="80" fill="white"/>
</mask>
<g mask="url(#mask0_908_6041)">
<path fill-rule="evenodd" clip-rule="evenodd" d="M0.640625 0V80H106.418V0H0.640625Z" fill="#2E42A5"/>
<mask id="mask1_908_6041" style="mask-type:alpha" maskUnits="userSpaceOnUse" x="0" y="0" width="107" height="80">
<path fill-rule="evenodd" clip-rule="evenodd" d="M0.640625 0V80H106.418V0H0.640625Z" fill="white"/>
</mask>
<g mask="url(#mask1_908_6041)">
<path fill-rule="evenodd" clip-rule="evenodd" d="M0.640625 0V26.6667H106.418V0H0.640625Z" fill="#F7FCFF"/>
<path fill-rule="evenodd" clip-rule="evenodd" d="M0.640625 53.3335V80.0002H106.418V53.3335H0.640625Z" fill="#C51918"/>
<path fill-rule="evenodd" clip-rule="evenodd" d="M46.0591 16.7877C46.0591 16.7877 39.1018 13.4746 30.4485 13.4746C21.7952 13.4746 14.8379 16.7877 14.8379 16.7877C14.8379 16.7877 15.6121 30.1034 16.8359 37.1575C17.3583 40.1693 19.8697 44.5621 22.1433 46.6413C24.7347 49.0111 30.4485 51.8187 30.4485 51.8187C32.102 50.6698 35.1935 50.1531 39.1451 46.6413C43.0967 43.1294 44.0789 37.1575 44.0789 37.1575L46.0591 16.7877Z" fill="#2E42A5"/>
<path d="M45.1403 16.3525L48.0377 17.8116L46.0487 37.887C45.3521 42.1359 43.609 45.4866 40.8215 47.9639C39.3093 49.3078 37.8333 50.3119 36.2508 51.1462C35.3576 51.6171 31.6212 53.558 31.6537 53.5422C31.2794 53.7241 30.9955 53.8835 30.7649 54.0437L30.4035 54.2948L30.0133 54.1031C26.1433 52.2015 22.5326 49.6423 20.7383 48.0015C18.289 45.7615 15.7064 41.178 15.1558 38.0042C14.3326 33.2587 13.5943 26.7223 13.0762 17.8116L15.679 16.4385C16.1932 25.2821 16.8139 32.3318 17.6223 36.9916C18.1006 39.7486 20.4821 43.9752 22.6546 45.962C24.2602 47.4303 26.8469 49.0584 30.4035 50.8291C30.6156 50.7037 30.8508 50.5797 31.1197 50.4489C31.1273 50.4453 33.5467 49.3618 34.3875 48.9185C35.8622 48.141 37.2331 47.2085 38.6444 45.9542C41.1188 43.7551 42.6632 40.7935 43.2878 37.0312L45.1403 16.3525Z" fill="#C51918"/>
<path fill-rule="evenodd" clip-rule="evenodd" d="M18.9609 36.7478C18.9609 36.7478 20.6657 42.0072 23.6513 44.9427C26.6368 47.8783 30.3276 49.3172 30.3276 49.3172C30.3276 49.3172 34.7235 47.9758 37.2185 45.1516C39.7134 42.3274 42.2677 36.7478 42.2677 36.7478L36.4654 31.1325L34.1593 33.6561L30.3276 28.1475L27.1197 33.6561L24.6599 31.1325L18.9609 36.7478Z" fill="white"/>
<path fill-rule="evenodd" clip-rule="evenodd" d="M24.2656 19.6208H21.9414L23.7441 17.9178L21.9414 16.1183H24.2656L25.247 14.3716L26.2323 16.1183H28.5525L26.84 17.8098L28.3606 19.6208H26.2323L25.247 21.4641L24.2656 19.6208Z" fill="#FECA00"/>
<path fill-rule="evenodd" clip-rule="evenodd" d="M35.2187 19.6208H32.8945L34.6972 17.9178L32.8945 16.1183H35.2187L36.2001 14.3716L37.1854 16.1183H39.5056L37.7931 17.8098L39.3137 19.6208H37.1854L36.2001 21.4641L35.2187 19.6208Z" fill="#FECA00"/>
<path fill-rule="evenodd" clip-rule="evenodd" d="M29.0683 25.2253H26.7441L28.5468 23.5223L26.7441 21.7228H29.0683L30.0497 19.9761L31.035 21.7228H33.3552L31.6427 23.4143L33.1633 25.2253H31.035L30.0497 27.0686L29.0683 25.2253Z" fill="#FECA00"/>
</g>
</g>
</svg>
