<svg width="107" height="80" viewBox="0 0 107 80" fill="none" xmlns="http://www.w3.org/2000/svg">
<mask id="mask0_908_6048" style="mask-type:alpha" maskUnits="userSpaceOnUse" x="0" y="0" width="107" height="80">
<rect x="0.414062" width="106.23" height="80" fill="white"/>
</mask>
<g mask="url(#mask0_908_6048)">
<path fill-rule="evenodd" clip-rule="evenodd" d="M0.414062 0V80H106.644V0H0.414062Z" fill="#FFB400"/>
<mask id="mask1_908_6048" style="mask-type:alpha" maskUnits="userSpaceOnUse" x="0" y="0" width="107" height="80">
<path fill-rule="evenodd" clip-rule="evenodd" d="M0.414062 0V80H106.644V0H0.414062Z" fill="white"/>
</mask>
<g mask="url(#mask1_908_6048)">
<path fill-rule="evenodd" clip-rule="evenodd" d="M0.414062 0V20H106.644V0H0.414062Z" fill="#C51918"/>
<path fill-rule="evenodd" clip-rule="evenodd" d="M0.414062 60V80H106.644V60H0.414062Z" fill="#C51918"/>
<rect x="17.0391" y="34.2402" width="3.71803" height="19.4133" fill="#F1F9FF"/>
<path fill-rule="evenodd" clip-rule="evenodd" d="M22.2452 30.8799H15.5527V32.7465H16.6681V34.2399H21.1298V32.7465H22.2452V30.8799Z" fill="#C88A02"/>
<path fill-rule="evenodd" clip-rule="evenodd" d="M21.1298 54.7736H22.2452V56.6403H15.5527V54.7736H16.6681V53.2803H21.1298V54.7736Z" fill="#C88A02"/>
<path fill-rule="evenodd" clip-rule="evenodd" d="M18.8995 31.2532C19.7086 31.2532 19.7908 30.9472 20.2682 30.4903C20.6389 30.1355 21.5021 29.6955 21.5021 29.1998C21.5021 28.0658 20.3369 27.1465 18.8995 27.1465C17.4621 27.1465 16.2969 28.0658 16.2969 29.1998C16.2969 29.752 16.8914 30.1213 17.3409 30.4903C17.8144 30.8791 18.1621 31.2532 18.8995 31.2532Z" fill="#AD1619"/>
<path fill-rule="evenodd" clip-rule="evenodd" d="M15.5527 56.6396H22.2452V59.6263C22.2452 59.6263 21.4086 59.253 20.5721 59.253C19.7355 59.253 18.899 59.6263 18.899 59.6263C18.899 59.6263 18.0624 59.253 17.2258 59.253C16.3893 59.253 15.5527 59.6263 15.5527 59.6263V56.6396Z" fill="#005BBF"/>
<mask id="mask2_908_6048" style="mask-type:alpha" maskUnits="userSpaceOnUse" x="15" y="56" width="8" height="4">
<path fill-rule="evenodd" clip-rule="evenodd" d="M15.5527 56.6396H22.2452V59.6263C22.2452 59.6263 21.4086 59.253 20.5721 59.253C19.7355 59.253 18.899 59.6263 18.899 59.6263C18.899 59.6263 18.0624 59.253 17.2258 59.253C16.3893 59.253 15.5527 59.6263 15.5527 59.6263V56.6396Z" fill="white"/>
</mask>
<g mask="url(#mask2_908_6048)">
</g>
<rect x="53.4766" y="34.2402" width="3.71803" height="19.4133" fill="#F1F9FF"/>
<path fill-rule="evenodd" clip-rule="evenodd" d="M58.6807 30.8799H51.9883V32.7465H53.1037V34.2399H57.5653V32.7465H58.6807V30.8799Z" fill="#C88A02"/>
<path fill-rule="evenodd" clip-rule="evenodd" d="M57.5653 54.7736H58.6807V56.6403H51.9883V54.7736H53.1037V53.2803H57.5653V54.7736Z" fill="#C88A02"/>
<path fill-rule="evenodd" clip-rule="evenodd" d="M55.335 31.2532C56.1442 31.2532 56.2264 30.9472 56.7037 30.4903C57.0744 30.1355 57.9377 29.6955 57.9377 29.1998C57.9377 28.0658 56.7724 27.1465 55.335 27.1465C53.8977 27.1465 52.7324 28.0658 52.7324 29.1998C52.7324 29.752 53.3269 30.1213 53.7764 30.4903C54.25 30.8791 54.5976 31.2532 55.335 31.2532Z" fill="#AD1619"/>
<path fill-rule="evenodd" clip-rule="evenodd" d="M51.9883 56.6396H58.6807V59.6263C58.6807 59.6263 57.8442 59.253 57.0076 59.253C56.1711 59.253 55.3345 59.6263 55.3345 59.6263C55.3345 59.6263 54.498 59.253 53.6614 59.253C52.8248 59.253 51.9883 59.6263 51.9883 59.6263V56.6396Z" fill="#005BBF"/>
<mask id="mask3_908_6048" style="mask-type:alpha" maskUnits="userSpaceOnUse" x="51" y="56" width="8" height="4">
<path fill-rule="evenodd" clip-rule="evenodd" d="M51.9883 56.6396H58.6807V59.6263C58.6807 59.6263 57.8442 59.253 57.0076 59.253C56.1711 59.253 55.3345 59.6263 55.3345 59.6263C55.3345 59.6263 54.498 59.253 53.6614 59.253C52.8248 59.253 51.9883 59.6263 51.9883 59.6263V56.6396Z" fill="white"/>
</mask>
<g mask="url(#mask3_908_6048)">
</g>
<path fill-rule="evenodd" clip-rule="evenodd" d="M55.8731 49.9197C55.8731 50.7082 56.248 51.4506 56.9183 52.2666L59.2013 50.3758L59.4193 50.3086L59.5408 49.3532C59.7653 47.5883 59.0141 46.6106 57.4662 45.9039C57.4576 45.9 57.4182 45.8826 57.3595 45.8567L57.3595 45.8567C57.1473 45.7632 56.6845 45.5591 56.5282 45.4839C56.2014 45.3265 55.9319 45.1706 55.6804 44.9869C55.4325 44.8058 55.1663 44.635 54.8453 44.448C56.7609 44.139 57.7961 43.911 58.5902 43.5675C60.4905 42.7454 60.7356 40.8362 58.9091 39.5731C56.4189 37.8512 49.7526 37.6963 46.8268 39.2131L48.1914 41.8669C49.6271 41.1226 52.8912 40.9822 55.177 41.3641C54.8294 41.4251 54.4396 41.4894 54.0026 41.5583C53.7969 41.5907 53.198 41.6837 52.886 41.7321L52.6968 41.7615C51.7838 41.904 51.161 42.0851 50.6994 42.4006C49.7573 43.0447 49.6177 44.2051 50.29 45.0611C50.5739 45.4226 50.945 45.6929 51.5066 46.02C51.6868 46.125 51.8808 46.2319 52.1413 46.3715L52.2772 46.444L52.2782 46.4445C52.4384 46.5299 52.6885 46.6632 52.781 46.713C53.317 47.002 53.6686 47.2107 53.931 47.4024C54.3421 47.7025 54.7636 47.9466 55.2422 48.177C55.4996 48.3009 56.239 48.6245 56.235 48.6227L56.2786 48.6424C56.0205 48.9932 55.8731 49.4226 55.8731 49.9197ZM16.9732 52.2666C17.6435 51.4506 18.0184 50.7082 18.0184 49.9197C18.0184 49.4226 17.8711 48.9932 17.6129 48.6424L17.6565 48.6227C17.6525 48.6245 18.3919 48.3009 18.6493 48.177C19.1279 47.9466 19.5494 47.7025 19.9605 47.4024C20.2229 47.2107 20.5745 47.002 21.1106 46.713C21.203 46.6632 21.453 46.5299 21.6132 46.4446L21.7502 46.3715C22.0107 46.2319 22.2047 46.125 22.385 46.02C22.9465 45.6929 23.3177 45.4226 23.6015 45.0612C24.2738 44.2051 24.1342 43.0447 23.1921 42.4006C22.7305 42.0851 22.1077 41.904 21.1947 41.7615L21.0072 41.7324L20.9983 41.731C20.6844 41.6823 20.093 41.5905 19.8889 41.5583C19.452 41.4894 19.0621 41.4251 18.7145 41.3641C21.0003 40.9822 24.2644 41.1226 25.7001 41.8669L27.0647 39.2131C24.1389 37.6963 17.4726 37.8512 14.9824 39.5731C13.1559 40.8362 13.401 42.7454 15.3014 43.5675C16.0954 43.911 17.1306 44.139 19.0462 44.448C18.7252 44.635 18.4591 44.8058 18.2111 44.9869C17.9596 45.1706 17.6901 45.3265 17.3633 45.4839C17.207 45.5591 16.7439 45.7633 16.5318 45.8568C16.4733 45.8826 16.4339 45.9 16.4253 45.9039C14.8774 46.6106 14.1262 47.5883 14.3507 49.3532L14.4722 50.3086L14.6902 50.3758L16.9732 52.2666ZM15.0586 49.8016C15.0581 49.8032 15.0574 49.8051 15.0566 49.8072L15.0587 49.8017L15.0598 49.7977C15.0595 49.7988 15.0591 49.8001 15.0586 49.8016Z" fill="#AD1619"/>
<path d="M20.0777 41.333L21.1752 41.561V43.2034C20.0063 44.1399 17.0391 45.7182 17.0391 45.7182V41.333H20.0777Z" fill="#F1F9FF"/>
<path d="M54.5746 41.333L53.4772 41.561V43.2034C54.646 44.1399 57.6133 45.7182 57.6133 45.7182V41.333H54.5746Z" fill="#F1F9FF"/>
<path fill-rule="evenodd" clip-rule="evenodd" d="M49.4656 24.0203V23.4736C47.5532 22.0955 45.5505 21.4064 43.4576 21.4064C41.4511 20.5148 39.4201 20.1687 37.3647 20.3682C37.3652 20.3618 37.3655 20.3585 37.3655 20.3585C34.275 20.0549 31.1604 21.4064 31.1604 21.4064C28.0209 21.4064 25.1523 23.4736 25.1523 23.4736V24.0202L28.9023 27.802C28.9023 27.802 29.9575 31.4407 37.3463 30.587C37.3489 30.5928 37.3503 30.5957 37.3503 30.5957C37.3503 30.5957 42.2446 30.4616 42.5885 30.3467C42.725 30.3012 42.8665 30.2597 43.0111 30.2173C43.9698 29.9363 45.0642 29.6154 45.7156 27.802L49.4656 24.0203ZM37.3479 20.5636C37.3324 20.7471 37.3079 21.0457 37.2789 21.4276C37.3157 21.154 37.3404 20.8669 37.3479 20.5636Z" fill="#AD1619"/>
<path fill-rule="evenodd" clip-rule="evenodd" d="M25.377 24.6616L25.6317 24.3896L29.0367 27.6063C29.683 27.4318 33.1914 26.5341 37.1102 26.4899V26.4882C37.1599 26.4882 37.2096 26.4884 37.2593 26.4887C37.3089 26.4884 37.3586 26.4882 37.4084 26.4882V26.4899C41.7501 26.5389 45.588 27.6355 45.588 27.6355C45.588 27.6355 45.5469 27.9894 45.447 28.4054C45.5528 28.1876 45.678 27.9456 45.8229 27.6785L45.8588 27.6319L49.2908 24.3896L49.5455 24.6616L46.1352 27.8833C45.6377 28.8034 45.3871 29.4107 45.3871 29.6629C45.3871 30.0478 44.3899 30.2762 42.4437 30.5109C40.919 30.6947 39.1197 30.8181 37.6478 30.8365V30.8389C37.5863 30.8389 37.5241 30.8387 37.4612 30.8383C37.3984 30.8387 37.3361 30.8389 37.2747 30.8389V30.8365C35.8028 30.8181 34.0034 30.6947 32.4788 30.5109C30.5326 30.2762 29.5354 30.0478 29.5354 29.6629C29.5354 29.6152 29.5264 29.5548 29.5085 29.4819C29.3122 29.231 29.1743 28.8205 29.0825 28.4501C28.9963 28.277 28.8979 28.0879 28.7873 27.8833L25.377 24.6616ZM44.4095 29.6702C44.6701 29.7927 44.8789 29.6705 45.044 29.4362C45.0297 29.5009 45.0207 29.5594 45.0171 29.6118C44.9953 29.6262 44.9619 29.6434 44.918 29.662C44.7956 29.7137 44.6085 29.7687 44.3652 29.8245C43.8869 29.934 43.2062 30.0429 42.3994 30.1402C40.8239 30.3301 38.9506 30.4551 37.4612 30.4649C35.9719 30.4551 34.0986 30.3301 32.5231 30.1402C31.7163 30.0429 31.0355 29.934 30.5573 29.8245C30.3533 29.7777 30.1889 29.7315 30.0689 29.6873C30.0821 29.6823 30.0955 29.6766 30.109 29.6702C30.9212 29.2886 36.2921 28.9305 37.2593 28.8687C38.2265 28.9305 43.5973 29.2886 44.4095 29.6702ZM45.4338 29.6019C45.4325 29.6029 45.4308 29.6047 45.4289 29.6074L45.4315 29.6036L45.4338 29.6019Z" fill="#C88A02"/>
<path fill-rule="evenodd" clip-rule="evenodd" d="M37.3029 17.824C37.9189 17.824 38.4183 17.3225 38.4183 16.704C38.4183 16.0854 37.9189 15.584 37.3029 15.584C36.6869 15.584 36.1875 16.0854 36.1875 16.704C36.1875 17.3225 36.6869 17.824 37.3029 17.824Z" fill="#005BBF"/>
<path fill-rule="evenodd" clip-rule="evenodd" d="M36.887 13.5889H37.6616V14.0802H38.1677V14.858H37.6616V16.4135H38.1677V17.1913H36.373V16.4135H36.887V14.858H36.373V14.0802H36.887V13.5889Z" fill="#C88A02"/>
<rect x="36.7441" y="17.8135" width="1.48721" height="4.85333" fill="#C88A02"/>
<path d="M26.0013 24.323L23.959 24.2459C24.9226 18.6539 29.6683 15.9141 37.2518 15.9141C44.8452 15.9141 49.5741 18.6658 50.4653 24.2786L47.703 24.5695C47.2694 21.8381 42.7133 19.3663 37.2917 19.3663C31.8604 19.3663 26.4756 21.5709 26.0013 24.323Z" fill="#C88A02"/>
<path opacity="0.3" fill-rule="evenodd" clip-rule="evenodd" d="M25.2188 30.8799H49.386V52.6827C49.386 52.6827 47.5908 59.9999 37.3024 59.9999C27.0139 59.9999 25.2188 52.4897 25.2188 52.4897V30.8799Z" fill="#E1E5E8"/>
<mask id="mask4_908_6048" style="mask-type:alpha" maskUnits="userSpaceOnUse" x="25" y="30" width="25" height="30">
<path fill-rule="evenodd" clip-rule="evenodd" d="M25.2188 30.8799H49.386V52.6827C49.386 52.6827 47.5908 59.9999 37.3024 59.9999C27.0139 59.9999 25.2188 52.4897 25.2188 52.4897V30.8799Z" fill="white"/>
</mask>
<g mask="url(#mask4_908_6048)">
<rect x="25.2188" y="44.3203" width="12.2695" height="14.56" fill="#FFC034"/>
<rect x="25.2188" y="30.5068" width="12.2695" height="14.1867" fill="#AD1619"/>
<rect x="37.1172" y="43.9463" width="12.2695" height="14.1867" fill="#AD1619"/>
<rect x="37.1172" y="30.8799" width="13.0131" height="13.8133" fill="#F1F9FF"/>
<path fill-rule="evenodd" clip-rule="evenodd" d="M45.1728 58.1423C45.1728 58.1423 37.2979 58.7639 37.2979 53.6641C37.2979 53.6641 37.2228 58.1423 29 58.1423V62.1683H45.1728V58.1423Z" fill="#F1F9FF"/>
<path fill-rule="evenodd" clip-rule="evenodd" d="M37.3022 47.3063C38.8423 47.3063 40.0907 45.9692 40.0907 44.3197C40.0907 42.6702 38.8423 41.333 37.3022 41.333C35.7621 41.333 34.5137 42.6702 34.5137 44.3197C34.5137 45.9692 35.7621 47.3063 37.3022 47.3063Z" fill="#005BBF" stroke="#AD1619" stroke-width="0.583333"/>
</g>
<path fill-rule="evenodd" clip-rule="evenodd" d="M30.2923 40.0007C32.1257 40.0007 33.612 38.5083 33.612 36.6673C33.612 34.8264 32.1257 33.334 30.2923 33.334C28.4589 33.334 26.9727 34.8264 26.9727 36.6673C26.9727 38.5083 28.4589 40.0007 30.2923 40.0007Z" fill="#C88A02"/>
<path fill-rule="evenodd" clip-rule="evenodd" d="M43.5697 40.0007C45.4031 40.0007 46.8893 38.5083 46.8893 36.6673C46.8893 34.8264 45.4031 33.334 43.5697 33.334C41.7363 33.334 40.25 34.8264 40.25 36.6673C40.25 38.5083 41.7363 40.0007 43.5697 40.0007Z" fill="#C37C9C"/>
<path fill-rule="evenodd" clip-rule="evenodd" d="M43.5697 53.3337C45.4031 53.3337 46.8893 51.8413 46.8893 50.0003C46.8893 48.1594 45.4031 46.667 43.5697 46.667C41.7363 46.667 40.25 48.1594 40.25 50.0003C40.25 51.8413 41.7363 53.3337 43.5697 53.3337Z" fill="#FFC034"/>
<path d="M30.2923 53.3337C32.1257 53.3337 33.612 51.8413 33.612 50.0003C33.612 48.1594 32.1257 46.667 30.2923 46.667C28.4589 46.667 26.9727 48.1594 26.9727 50.0003C26.9727 51.8413 28.4589 53.3337 30.2923 53.3337Z" fill="#AD1619"/>
</g>
</g>
</svg>
