<svg width="107" height="80" viewBox="0 0 107 80" fill="none" xmlns="http://www.w3.org/2000/svg">
<mask id="mask0_908_5985" style="mask-type:alpha" maskUnits="userSpaceOnUse" x="0" y="0" width="107" height="80">
<rect x="0.169922" width="106.329" height="80" fill="white"/>
</mask>
<g mask="url(#mask0_908_5985)">
<path fill-rule="evenodd" clip-rule="evenodd" d="M0.169922 0V80H106.499V0H0.169922Z" fill="#FFB400"/>
<mask id="mask1_908_5985" style="mask-type:alpha" maskUnits="userSpaceOnUse" x="0" y="0" width="107" height="80">
<path fill-rule="evenodd" clip-rule="evenodd" d="M0.169922 0V80H106.499V0H0.169922Z" fill="white"/>
</mask>
<g mask="url(#mask1_908_5985)">
<path fill-rule="evenodd" clip-rule="evenodd" d="M0.169922 0V20H106.499V0H0.169922Z" fill="#C51918"/>
<path fill-rule="evenodd" clip-rule="evenodd" d="M0.169922 60V80H106.499V60H0.169922Z" fill="#C51918"/>
<rect x="16.8105" y="34.2402" width="3.72152" height="19.4133" fill="#F1F9FF"/>
<path fill-rule="evenodd" clip-rule="evenodd" d="M22.021 30.8804H15.3223V32.747H16.4387V34.2404H20.9045V32.747H22.021V30.8804Z" fill="#C88A02"/>
<path fill-rule="evenodd" clip-rule="evenodd" d="M20.9045 54.7736H22.021V56.6403H15.3223V54.7736H16.4387V53.2803H20.9045V54.7736Z" fill="#C88A02"/>
<path fill-rule="evenodd" clip-rule="evenodd" d="M18.6715 31.2536C19.4813 31.2536 19.5637 30.9477 20.0415 30.4908C20.4125 30.136 21.2765 29.696 21.2765 29.2003C21.2765 28.0663 20.1102 27.147 18.6715 27.147C17.2327 27.147 16.0664 28.0663 16.0664 29.2003C16.0664 29.7525 16.6614 30.1218 17.1114 30.4908C17.5854 30.8796 17.9333 31.2536 18.6715 31.2536Z" fill="#AD1619"/>
<path fill-rule="evenodd" clip-rule="evenodd" d="M15.3223 56.6401H22.021V59.6268C22.021 59.6268 21.1837 59.2535 20.3463 59.2535C19.509 59.2535 18.6716 59.6268 18.6716 59.6268C18.6716 59.6268 17.8343 59.2535 16.9969 59.2535C16.1596 59.2535 15.3223 59.6268 15.3223 59.6268V56.6401Z" fill="#005BBF"/>
<mask id="mask2_908_5985" style="mask-type:alpha" maskUnits="userSpaceOnUse" x="15" y="56" width="8" height="4">
<path fill-rule="evenodd" clip-rule="evenodd" d="M15.3223 56.6401H22.021V59.6268C22.021 59.6268 21.1837 59.2535 20.3463 59.2535C19.509 59.2535 18.6716 59.6268 18.6716 59.6268C18.6716 59.6268 17.8343 59.2535 16.9969 59.2535C16.1596 59.2535 15.3223 59.6268 15.3223 59.6268V56.6401Z" fill="white"/>
</mask>
<g mask="url(#mask2_908_5985)">
</g>
<rect x="53.2812" y="34.2402" width="3.72152" height="19.4133" fill="#F1F9FF"/>
<path fill-rule="evenodd" clip-rule="evenodd" d="M58.4917 30.8804H51.793V32.747H52.9094V34.2404H57.3752V32.747H58.4917V30.8804Z" fill="#C88A02"/>
<path fill-rule="evenodd" clip-rule="evenodd" d="M57.3752 54.7736H58.4917V56.6403H51.793V54.7736H52.9094V53.2803H57.3752V54.7736Z" fill="#C88A02"/>
<path fill-rule="evenodd" clip-rule="evenodd" d="M55.1422 31.2536C55.952 31.2536 56.0344 30.9477 56.5122 30.4908C56.8832 30.136 57.7472 29.696 57.7472 29.2003C57.7472 28.0663 56.5809 27.147 55.1422 27.147C53.7034 27.147 52.5371 28.0663 52.5371 29.2003C52.5371 29.7525 53.1322 30.1218 53.5821 30.4908C54.0561 30.8796 54.404 31.2536 55.1422 31.2536Z" fill="#AD1619"/>
<path fill-rule="evenodd" clip-rule="evenodd" d="M51.793 56.6401H58.4917V59.6268C58.4917 59.6268 57.6544 59.2535 56.817 59.2535C55.9797 59.2535 55.1423 59.6268 55.1423 59.6268C55.1423 59.6268 54.305 59.2535 53.4677 59.2535C52.6303 59.2535 51.793 59.6268 51.793 59.6268V56.6401Z" fill="#005BBF"/>
<mask id="mask3_908_5985" style="mask-type:alpha" maskUnits="userSpaceOnUse" x="51" y="56" width="8" height="4">
<path fill-rule="evenodd" clip-rule="evenodd" d="M51.793 56.6401H58.4917V59.6268C58.4917 59.6268 57.6544 59.2535 56.817 59.2535C55.9797 59.2535 55.1423 59.6268 55.1423 59.6268C55.1423 59.6268 54.305 59.2535 53.4677 59.2535C52.6303 59.2535 51.793 59.6268 51.793 59.6268V56.6401Z" fill="white"/>
</mask>
<g mask="url(#mask3_908_5985)">
</g>
<path fill-rule="evenodd" clip-rule="evenodd" d="M55.6802 49.9197C55.6802 50.7082 56.0554 51.4506 56.7264 52.2666L59.0115 50.3758L59.2297 50.3086L59.3514 49.3532C59.5761 47.5883 58.8241 46.6106 57.2748 45.9039C57.2662 45.9 57.2267 45.8826 57.1681 45.8568C56.9557 45.7632 56.4924 45.5591 56.3359 45.4839C56.0088 45.3265 55.7391 45.1706 55.4873 44.9869C55.2391 44.8058 54.9727 44.635 54.6514 44.448C56.5688 44.139 57.605 43.911 58.3998 43.5675C60.3019 42.7454 60.5472 40.8362 58.7191 39.5731C56.2265 37.8512 49.5539 37.6963 46.6254 39.2131L47.9913 41.8669C49.4284 41.1226 52.6955 40.9822 54.9834 41.3641C54.6355 41.4251 54.2453 41.4894 53.808 41.5583C53.602 41.5907 53.0024 41.6837 52.6902 41.7321L52.5009 41.7615C51.5871 41.904 50.9636 42.0851 50.5016 42.4006C49.5587 43.0447 49.4189 44.2051 50.0919 45.0611C50.376 45.4226 50.7474 45.6929 51.3096 46.02C51.4899 46.125 51.6841 46.2319 51.9449 46.3715L52.081 46.444L52.0812 46.4441C52.2415 46.5295 52.4925 46.6631 52.5851 46.713C53.1217 47.002 53.4736 47.2107 53.7363 47.4024C54.1477 47.7025 54.5697 47.9466 55.0487 48.177C55.3063 48.3009 56.0464 48.6245 56.0424 48.6227L56.0861 48.6424C55.8277 48.9932 55.6802 49.4226 55.6802 49.9197ZM16.7438 52.2666C17.4148 51.4506 17.79 50.7082 17.79 49.9197C17.79 49.4226 17.6425 48.9932 17.3841 48.6424L17.4278 48.6227C17.4238 48.6245 18.1639 48.3009 18.4215 48.177C18.9005 47.9466 19.3225 47.7025 19.7339 47.4024C19.9966 47.2107 20.3485 47.002 20.885 46.713C20.9776 46.6632 21.2282 46.5297 21.3885 46.4444L21.5253 46.3715C21.7861 46.2319 21.9802 46.125 22.1606 46.02C22.7227 45.6929 23.0942 45.4226 23.3783 45.0612C24.0513 44.2051 23.9115 43.0447 22.9686 42.4006C22.5065 42.0851 21.8831 41.904 20.9693 41.7615L20.7811 41.7323L20.7696 41.7305L20.7694 41.7305C20.4544 41.6816 19.8659 41.5904 19.6622 41.5583C19.2249 41.4894 18.8347 41.4251 18.4868 41.3641C20.7747 40.9822 24.0418 41.1226 25.4789 41.8669L26.8448 39.2131C23.9162 37.6963 17.2437 37.8512 14.7511 39.5731C12.9229 40.8362 13.1683 42.7454 15.0704 43.5675C15.8652 43.911 16.9014 44.139 18.8188 44.448C18.4975 44.635 18.2311 44.8058 17.9829 44.9869C17.7311 45.1706 17.4614 45.3265 17.1343 45.4839C16.9778 45.5591 16.5143 45.7633 16.3021 45.8568L16.3012 45.8572C16.2431 45.8828 16.2039 45.9 16.1954 45.9039C14.6461 46.6106 13.8941 47.5883 14.1188 49.3532L14.2405 50.3086L14.4586 50.3758L16.7438 52.2666ZM14.8286 49.7977L14.8263 49.8048L14.8275 49.8017L14.8286 49.7977Z" fill="#AD1619"/>
<path d="M19.8521 41.3335L20.9505 41.5615V43.2039C19.7806 44.1404 16.8105 45.7187 16.8105 45.7187V41.3335H19.8521Z" fill="#F1F9FF"/>
<path d="M54.3803 41.3335L53.2819 41.5615V43.2039C54.4518 44.1404 57.4219 45.7187 57.4219 45.7187V41.3335H54.3803Z" fill="#F1F9FF"/>
<path fill-rule="evenodd" clip-rule="evenodd" d="M49.2677 24.0203V23.4736C47.3535 22.0955 45.3489 21.4064 43.254 21.4064C41.2457 20.5148 39.2128 20.1687 37.1554 20.3682C37.156 20.3618 37.1563 20.3585 37.1563 20.3585C34.0629 20.0549 30.9453 21.4064 30.9453 21.4064C27.8029 21.4064 24.9316 23.4736 24.9316 23.4736V24.0202L28.6852 27.802C28.6852 27.802 29.7413 31.4407 37.137 30.587C37.1396 30.5928 37.141 30.5957 37.141 30.5957C37.141 30.5957 42.0399 30.4616 42.3842 30.3467C42.5208 30.3012 42.6624 30.2597 42.8072 30.2173C43.7667 29.9363 44.8621 29.6154 45.5142 27.802L49.2677 24.0203ZM37.1386 20.5637C37.1231 20.7471 37.0986 21.0457 37.0696 21.4276C37.1064 21.1539 37.1311 20.8669 37.1386 20.5637Z" fill="#AD1619"/>
<path fill-rule="evenodd" clip-rule="evenodd" d="M25.1562 24.6616L25.4113 24.3896L28.8194 27.6063C29.4664 27.4318 32.978 26.5341 36.9005 26.4899V26.4882C36.9503 26.4882 37 26.4884 37.0497 26.4887C37.0994 26.4884 37.1491 26.4882 37.1989 26.4882V26.4899C41.5448 26.5389 45.3863 27.6355 45.3863 27.6355C45.3863 27.6355 45.3451 27.9894 45.2451 28.4054C45.351 28.1876 45.4764 27.9456 45.6213 27.6785L45.6573 27.6319L49.0925 24.3896L49.3475 24.6616L45.934 27.8833C45.436 28.8034 45.1852 29.4107 45.1852 29.6629C45.1852 30.0478 44.187 30.2762 42.239 30.5109C40.7129 30.6947 38.9119 30.8181 37.4386 30.8365V30.8389C37.3771 30.8389 37.3148 30.8387 37.2519 30.8383C37.1889 30.8387 37.1267 30.8389 37.0651 30.8389V30.8365C35.5919 30.8181 33.7908 30.6947 32.2647 30.5109C30.3167 30.2762 29.3186 30.0478 29.3186 29.6629C29.3186 29.6152 29.3096 29.5548 29.2917 29.4819C29.0952 29.231 28.9571 28.8205 28.8652 28.4501C28.779 28.277 28.6805 28.0878 28.5698 27.8833L25.1562 24.6616ZM44.2067 29.6702C44.4675 29.7927 44.6765 29.6705 44.8417 29.4362C44.8274 29.5009 44.8185 29.5594 44.8148 29.6118C44.793 29.6262 44.7596 29.6434 44.7156 29.662C44.5931 29.7137 44.4058 29.7687 44.1623 29.8245C43.6836 29.934 43.0022 30.0429 42.1947 30.1402C40.6177 30.3301 38.7426 30.4551 37.2519 30.4649C35.7612 30.4551 33.886 30.3301 32.3091 30.1402C31.5015 30.0429 30.8201 29.934 30.3414 29.8245C30.1373 29.7777 29.9727 29.7315 29.8526 29.6873C29.8659 29.6823 29.8792 29.6766 29.8927 29.6702C30.7057 29.2886 36.0816 28.9305 37.0497 28.8687C38.0178 28.9305 43.3937 29.2886 44.2067 29.6702ZM45.2319 29.6019C45.2306 29.6029 45.2289 29.6047 45.227 29.6074L45.2296 29.6036L45.2319 29.6019Z" fill="#C88A02"/>
<path fill-rule="evenodd" clip-rule="evenodd" d="M37.093 17.824C37.7096 17.824 38.2095 17.3225 38.2095 16.704C38.2095 16.0854 37.7096 15.584 37.093 15.584C36.4764 15.584 35.9766 16.0854 35.9766 16.704C35.9766 17.3225 36.4764 17.824 37.093 17.824Z" fill="#005BBF"/>
<path fill-rule="evenodd" clip-rule="evenodd" d="M36.6766 13.5889H37.4519V14.0802H37.9585V14.858H37.4519V16.4135H37.9585V17.1913H36.1621V16.4135H36.6766V14.858H36.1621V14.0802H36.6766V13.5889Z" fill="#C88A02"/>
<rect x="36.5332" y="17.8135" width="1.48861" height="4.85333" fill="#C88A02"/>
<path d="M25.7806 24.323L23.7363 24.2459C24.7008 18.6539 29.451 15.9141 37.0416 15.9141C44.6421 15.9141 49.3755 18.6658 50.2675 24.2786L47.5027 24.5695C47.0686 21.8381 42.5082 19.3663 37.0816 19.3663C31.6452 19.3663 26.2553 21.5709 25.7806 24.323Z" fill="#C88A02"/>
<path opacity="0.3" fill-rule="evenodd" clip-rule="evenodd" d="M24.998 30.8804H49.1879V52.6831C49.1879 52.6831 47.391 60.0004 37.093 60.0004C26.7949 60.0004 24.998 52.4902 24.998 52.4902V30.8804Z" fill="#E1E5E8"/>
<mask id="mask4_908_5985" style="mask-type:alpha" maskUnits="userSpaceOnUse" x="24" y="30" width="26" height="31">
<path fill-rule="evenodd" clip-rule="evenodd" d="M24.998 30.8804H49.1879V52.6831C49.1879 52.6831 47.391 60.0004 37.093 60.0004C26.7949 60.0004 24.998 52.4902 24.998 52.4902V30.8804Z" fill="white"/>
</mask>
<g mask="url(#mask4_908_5985)">
<rect x="24.998" y="44.3203" width="12.281" height="14.56" fill="#FFC034"/>
<rect x="24.998" y="30.5068" width="12.281" height="14.1867" fill="#AD1619"/>
<rect x="36.9062" y="43.9473" width="12.281" height="14.1867" fill="#AD1619"/>
<rect x="36.9062" y="30.8804" width="13.0253" height="13.8133" fill="#F1F9FF"/>
<path fill-rule="evenodd" clip-rule="evenodd" d="M44.9712 58.1427C44.9712 58.1427 37.0889 58.7644 37.0889 53.6646C37.0889 53.6646 37.0137 58.1427 28.7832 58.1427V62.1688H44.9712V58.1427Z" fill="#F1F9FF"/>
<path fill-rule="evenodd" clip-rule="evenodd" d="M37.0939 47.3068C38.6354 47.3068 39.885 45.9697 39.885 44.3202C39.885 42.6707 38.6354 41.3335 37.0939 41.3335C35.5524 41.3335 34.3027 42.6707 34.3027 44.3202C34.3027 45.9697 35.5524 47.3068 37.0939 47.3068Z" fill="#005BBF" stroke="#AD1619" stroke-width="0.583333"/>
</g>
<path fill-rule="evenodd" clip-rule="evenodd" d="M30.0747 40.0002C31.9099 40.0002 33.3975 38.5078 33.3975 36.6668C33.3975 34.8259 31.9099 33.3335 30.0747 33.3335C28.2396 33.3335 26.752 34.8259 26.752 36.6668C26.752 38.5078 28.2396 40.0002 30.0747 40.0002Z" fill="#C88A02"/>
<path fill-rule="evenodd" clip-rule="evenodd" d="M43.3658 40.0002C45.2009 40.0002 46.6885 38.5078 46.6885 36.6668C46.6885 34.8259 45.2009 33.3335 43.3658 33.3335C41.5306 33.3335 40.043 34.8259 40.043 36.6668C40.043 38.5078 41.5306 40.0002 43.3658 40.0002Z" fill="#C37C9C"/>
<path fill-rule="evenodd" clip-rule="evenodd" d="M43.3658 53.3337C45.2009 53.3337 46.6885 51.8413 46.6885 50.0003C46.6885 48.1594 45.2009 46.667 43.3658 46.667C41.5306 46.667 40.043 48.1594 40.043 50.0003C40.043 51.8413 41.5306 53.3337 43.3658 53.3337Z" fill="#FFC034"/>
<path d="M30.0747 53.3337C31.9099 53.3337 33.3975 51.8413 33.3975 50.0003C33.3975 48.1594 31.9099 46.667 30.0747 46.667C28.2396 46.667 26.752 48.1594 26.752 50.0003C26.752 51.8413 28.2396 53.3337 30.0747 53.3337Z" fill="#AD1619"/>
</g>
</g>
</svg>
