<svg width="120" height="80" viewBox="0 0 120 80" fill="none" xmlns="http://www.w3.org/2000/svg">
<g clip-path="url(#clip0_908_5962)">
<path d="M0 0H119.322V80H0V0Z" fill="#E30A17"/>
<path d="M55.3523 40L73.3408 34.1227L62.2226 49.5107V30.4893L73.3408 45.8773L55.3523 40ZM56.5787 50.6947C54.2746 54.3563 50.8504 57.1664 46.8213 58.702C42.7922 60.2376 38.3762 60.4157 34.2378 59.2095C30.0994 58.0032 26.4624 55.4779 23.8743 52.0136C21.2861 48.5492 19.8867 44.3332 19.8867 40C19.8867 35.6668 21.2861 31.4508 23.8743 27.9864C26.4624 24.5221 30.0994 21.9968 34.2378 20.7905C38.3762 19.5843 42.7922 19.7624 46.8213 21.298C50.8504 22.8336 54.2746 25.6437 56.5787 29.3053C54.4271 26.8976 51.5999 25.2028 48.4705 24.4448C45.341 23.6868 42.0566 23.9013 39.0509 25.06C36.0453 26.2186 33.4598 28.2669 31.6359 30.9343C29.8121 33.6018 28.8357 36.7628 28.8357 40C28.8357 43.2372 29.8121 46.3983 31.6359 49.0657C33.4598 51.7331 36.0453 53.7814 39.0509 54.94C42.0566 56.0987 45.341 56.3132 48.4705 55.5552C51.5999 54.7973 54.4271 53.1025 56.5787 50.6947V50.6947Z" fill="white"/>
</g>
<defs>
<clipPath id="clip0_908_5962">
<rect width="119.322" height="80" fill="white"/>
</clipPath>
</defs>
</svg>
