<svg width="107" height="80" viewBox="0 0 107 80" fill="none" xmlns="http://www.w3.org/2000/svg">
<mask id="mask0_908_5970" style="mask-type:alpha" maskUnits="userSpaceOnUse" x="0" y="0" width="107" height="80">
<rect x="0.460938" width="106.4" height="80" fill="white"/>
</mask>
<g mask="url(#mask0_908_5970)">
<path fill-rule="evenodd" clip-rule="evenodd" d="M0.460938 0H106.861V80H0.460938V0Z" fill="#E31D1C"/>
<path fill-rule="evenodd" clip-rule="evenodd" d="M0.460938 6.6665V13.3332H106.861V6.6665H0.460938ZM0.460938 19.9998V26.6665H106.861V19.9998H0.460938ZM0.460938 39.9998V33.3332H106.861V39.9998H0.460938ZM0.460938 46.6665V53.3332H106.861V46.6665H0.460938ZM0.460938 66.6665V59.9998H106.861V66.6665H0.460938ZM0.460938 79.9998V73.3332H106.861V79.9998H0.460938Z" fill="#F7FCFF"/>
<rect x="0.460938" width="59.85" height="46.6667" fill="#2E42A5"/>
<path fill-rule="evenodd" clip-rule="evenodd" d="M7.37771 14.4918L10.9017 12.0309L13.6352 14.0038H12.0875L15.2174 16.7791L14.1603 20.6705H12.5045L10.8968 17.0965L9.52563 20.6705H5.4375L8.56744 23.4458L7.37771 27.8252L10.9017 25.3643L13.6352 27.3372H12.0875L15.2174 30.1125L14.1603 34.0038H12.5045L10.8968 30.4299L9.52563 34.0038H5.4375L8.56744 36.7791L7.37771 41.1585L10.9017 38.6976L14.3114 41.1585L13.2513 36.7791L15.9895 34.0038H14.7265L17.5517 32.0309L20.2852 34.0038H18.7375L21.8674 36.7791L20.6777 41.1585L24.2017 38.6976L27.6114 41.1585L26.5513 36.7791L29.2895 34.0038H28.0265L30.8517 32.0309L33.5852 34.0038H32.0375L35.1674 36.7791L33.9777 41.1585L37.5017 38.6976L40.9114 41.1585L39.8513 36.7791L42.5895 34.0038H41.3265L44.1517 32.0309L46.8852 34.0038H45.3375L48.4674 36.7791L47.2777 41.1585L50.8017 38.6976L54.2114 41.1585L53.1513 36.7791L55.8895 34.0038H52.4045L50.7968 30.4299L49.4256 34.0038H47.4432L46.5013 30.1125L49.2395 27.3372H47.9765L50.8017 25.3643L54.2114 27.8252L53.1513 23.4458L55.8895 20.6705H52.4045L50.7968 17.0965L49.4256 20.6705H47.4432L46.5013 16.7791L49.2395 14.0038H47.9765L50.8017 12.0309L54.2114 14.4918L53.1513 10.1125L55.8895 7.33716H52.4045L50.7968 3.76318L49.4256 7.33716H45.3375L48.4674 10.1125L47.4103 14.0038H45.7545L44.1468 10.4299L42.7756 14.0038H40.7932L39.8513 10.1125L42.5895 7.33716H39.1045L37.4968 3.76318L36.1256 7.33716H32.0375L35.1674 10.1125L34.1103 14.0038H32.4545L30.8468 10.4299L29.4756 14.0038H27.4932L26.5513 10.1125L29.2895 7.33716H25.8045L24.1968 3.76318L22.8256 7.33716H18.7375L21.8674 10.1125L20.8103 14.0038H19.1545L17.5468 10.4299L16.1756 14.0038H14.1932L13.2513 10.1125L15.9895 7.33716H12.5045L10.8968 3.76318L9.52563 7.33716H5.4375L8.56744 10.1125L7.37771 14.4918ZM47.4103 27.3372L48.4674 23.4458L45.3375 20.6705H46.8852L44.1517 18.6976L41.3265 20.6705H42.5895L39.8513 23.4458L40.7932 27.3372H42.7756L44.1468 23.7632L45.7545 27.3372H47.4103ZM40.2352 27.3372L37.5017 25.3643L34.6765 27.3372H35.9395L33.2013 30.1125L34.1432 34.0038H36.1256L37.4968 30.4299L39.1045 34.0038H40.7603L41.8174 30.1125L38.6875 27.3372H40.2352ZM28.5174 30.1125L27.4603 34.0038H25.8045L24.1968 30.4299L22.8256 34.0038H20.8432L19.9013 30.1125L22.6395 27.3372H21.3765L24.2017 25.3643L26.9352 27.3372H25.3875L28.5174 30.1125ZM29.4756 27.3372H27.4932L26.5513 23.4458L29.2895 20.6705H28.0265L30.8517 18.6976L33.5852 20.6705H32.0375L35.1674 23.4458L34.1103 27.3372H32.4545L30.8468 23.7632L29.4756 27.3372ZM20.8103 27.3372L21.8674 23.4458L18.7375 20.6705H20.2852L17.5517 18.6976L14.7265 20.6705H15.9895L13.2513 23.4458L14.1932 27.3372H16.1756L17.5468 23.7632L19.1545 27.3372H20.8103ZM41.8174 16.7791L40.7603 20.6705H39.1045L37.4968 17.0965L36.1256 20.6705H34.1432L33.2013 16.7791L35.9395 14.0038H34.6765L37.5017 12.0309L40.2352 14.0038H38.6875L41.8174 16.7791ZM26.9352 14.0038L24.2017 12.0309L21.3765 14.0038H22.6395L19.9013 16.7791L20.8432 20.6705H22.8256L24.1968 17.0965L25.8045 20.6705H27.4603L28.5174 16.7791L25.3875 14.0038H26.9352Z" fill="#F7FCFF"/>
</g>
</svg>
