<svg width="107" height="80" viewBox="0 0 107 80" fill="none" xmlns="http://www.w3.org/2000/svg">
<mask id="mask0_908_5982" style="mask-type:alpha" maskUnits="userSpaceOnUse" x="0" y="0" width="107" height="80">
<rect x="0.0917969" width="106.483" height="80" fill="white"/>
</mask>
<g mask="url(#mask0_908_5982)">
<path fill-rule="evenodd" clip-rule="evenodd" d="M0.0917969 0V80H106.575V0H0.0917969Z" fill="#2E42A5"/>
<mask id="mask1_908_5982" style="mask-type:alpha" maskUnits="userSpaceOnUse" x="0" y="0" width="107" height="80">
<path fill-rule="evenodd" clip-rule="evenodd" d="M0.0917969 0V80H106.575V0H0.0917969Z" fill="white"/>
</mask>
<g mask="url(#mask1_908_5982)">
<mask id="mask2_908_5982" style="mask-type:alpha" maskUnits="userSpaceOnUse" x="0" y="0" width="107" height="80">
<rect x="0.0917969" width="106.483" height="80" fill="white"/>
</mask>
<g mask="url(#mask2_908_5982)">
<path d="M-11.7637 74.2846L11.6682 84.2114L107.107 10.7927L119.467 -3.95891L94.4102 -7.27676L55.4828 24.3615L24.1503 45.6782L-11.7637 74.2846Z" fill="white"/>
<path d="M-8.55664 81.2393L3.38079 87L115.028 -5.3298H98.2665L-8.55664 81.2393Z" fill="#F50100"/>
<path d="M118.432 74.2846L94.9998 84.2114L-0.439478 10.7927L-12.7992 -3.95891L12.2577 -7.27676L51.1851 24.3615L82.5177 45.6782L118.432 74.2846Z" fill="white"/>
<path d="M117.633 79.2759L105.695 85.0366L58.1548 45.5054L44.06 41.0887L-13.9878 -3.90861H2.77372L60.789 40.0207L76.1991 45.3168L117.633 79.2759Z" fill="#F50100"/>
<mask id="path-9-inside-1_908_5982" fill="white">
<path fill-rule="evenodd" clip-rule="evenodd" d="M65.9051 -6.66699H40.7633V26.6663H-6.4707V53.333H40.7633V86.6663H65.9051V53.333H113.322V26.6663H65.9051V-6.66699Z"/>
</mask>
<path fill-rule="evenodd" clip-rule="evenodd" d="M65.9051 -6.66699H40.7633V26.6663H-6.4707V53.333H40.7633V86.6663H65.9051V53.333H113.322V26.6663H65.9051V-6.66699Z" fill="#F50100"/>
<path d="M40.7633 -6.66699V-8.66699H38.7633V-6.66699H40.7633ZM65.9051 -6.66699H67.9051V-8.66699H65.9051V-6.66699ZM40.7633 26.6663V28.6663H42.7633V26.6663H40.7633ZM-6.4707 26.6663V24.6663H-8.4707V26.6663H-6.4707ZM-6.4707 53.333H-8.4707V55.333H-6.4707V53.333ZM40.7633 53.333H42.7633V51.333H40.7633V53.333ZM40.7633 86.6663H38.7633V88.6663H40.7633V86.6663ZM65.9051 86.6663V88.6663H67.9051V86.6663H65.9051ZM65.9051 53.333V51.333H63.9051V53.333H65.9051ZM113.322 53.333V55.333H115.322V53.333H113.322ZM113.322 26.6663H115.322V24.6663H113.322V26.6663ZM65.9051 26.6663H63.9051V28.6663H65.9051V26.6663ZM40.7633 -4.66699H65.9051V-8.66699H40.7633V-4.66699ZM42.7633 26.6663V-6.66699H38.7633V26.6663H42.7633ZM-6.4707 28.6663H40.7633V24.6663H-6.4707V28.6663ZM-4.4707 53.333V26.6663H-8.4707V53.333H-4.4707ZM40.7633 51.333H-6.4707V55.333H40.7633V51.333ZM42.7633 86.6663V53.333H38.7633V86.6663H42.7633ZM65.9051 84.6663H40.7633V88.6663H65.9051V84.6663ZM63.9051 53.333V86.6663H67.9051V53.333H63.9051ZM113.322 51.333H65.9051V55.333H113.322V51.333ZM111.322 26.6663V53.333H115.322V26.6663H111.322ZM65.9051 28.6663H113.322V24.6663H65.9051V28.6663ZM63.9051 -6.66699V26.6663H67.9051V-6.66699H63.9051Z" fill="white" mask="url(#path-9-inside-1_908_5982)"/>
</g>
</g>
</g>
</svg>
