<svg width="107" height="80" viewBox="0 0 107 80" fill="none" xmlns="http://www.w3.org/2000/svg">
<mask id="mask0_908_6094" style="mask-type:alpha" maskUnits="userSpaceOnUse" x="0" y="0" width="107" height="80">
<rect width="106.667" height="80" fill="white"/>
</mask>
<g mask="url(#mask0_908_6094)">
<path fill-rule="evenodd" clip-rule="evenodd" d="M0 0V80H106.667V0H0Z" fill="#F7FCFF"/>
<mask id="mask1_908_6094" style="mask-type:alpha" maskUnits="userSpaceOnUse" x="0" y="0" width="107" height="80">
<path fill-rule="evenodd" clip-rule="evenodd" d="M0 0V80H106.667V0H0Z" fill="white"/>
</mask>
<g mask="url(#mask1_908_6094)">
<rect y="13.333" width="106.667" height="6.66667" fill="#2E42A5"/>
<rect y="26.667" width="106.667" height="6.66667" fill="#2E42A5"/>
<rect y="40" width="106.667" height="6.66667" fill="#2E42A5"/>
<rect y="53.333" width="106.667" height="6.66667" fill="#2E42A5"/>
<rect y="66.667" width="106.667" height="6.66667" fill="#2E42A5"/>
<rect width="53.3333" height="46.6667" fill="#F7FCFF"/>
<path fill-rule="evenodd" clip-rule="evenodd" d="M30.7578 36.7905C30.7578 36.7905 27.3515 43.8529 24.3577 45.3009C25.6499 42.0617 26.1256 35.4525 26.1256 35.4525C26.1256 35.4525 18.3525 38.5343 15.6243 37.9727C18.9049 35.6802 23.4585 31.4341 23.4585 31.4341C23.4585 31.4341 13.3978 28.145 13.6446 26.7452C18.1862 27.5599 24.4319 26.6718 24.4319 26.6718C24.4319 26.6718 17.3739 18.2076 18.0897 17.5782C19.1655 18.6239 27.624 23.0423 27.624 23.0423C27.624 23.0423 28.2377 15.5117 30.058 12.9727C30.2764 14.7649 32.8314 22.8795 32.8314 22.8795C32.8314 22.8795 37.9677 17.7402 40.8185 17.7402C39.5663 19.2928 36.6013 26.1126 36.6013 26.1126C36.6013 26.1126 43.9906 25.9963 46.7997 27.3793C43.3968 27.8633 37.4349 30.8564 37.4349 30.8564C37.4349 30.8564 45.1997 36.7465 44.4918 37.9727C40.3228 35.9333 35.503 35.2503 35.503 35.2503C35.503 35.2503 36.8353 43.4471 35.7584 45.3009C34.7081 42.5722 30.7578 36.7905 30.7578 36.7905Z" fill="#FFD018" stroke="#F19900" stroke-opacity="0.98" stroke-width="0.25"/>
<path fill-rule="evenodd" clip-rule="evenodd" d="M30.3118 32.9723C32.1528 32.9723 33.6452 31.4799 33.6452 29.639C33.6452 27.798 32.1528 26.3057 30.3118 26.3057C28.4709 26.3057 26.9785 27.798 26.9785 29.639C26.9785 31.4799 28.4709 32.9723 30.3118 32.9723Z" fill="#FFD018" stroke="#F19900" stroke-opacity="0.98" stroke-width="0.25"/>
</g>
</g>
</svg>
