<svg width="183" height="133" viewBox="0 0 183 133" fill="none" xmlns="http://www.w3.org/2000/svg">
<path d="M157.427 109.683L157.421 109.7L157.418 109.718C156.043 115.961 151.671 121.64 145.749 125.766C139.83 129.891 132.403 132.434 124.987 132.434C117.577 132.434 111.605 129.895 107.835 125.836C104.074 121.788 102.464 116.186 103.835 109.948C106.609 100.243 116.325 91.6839 127.481 88.4194L128.931 87.995L127.514 87.4706C118.797 84.2465 113.783 76.2371 116.066 66.5986C118.835 56.8975 128.545 48.3314 139.709 45.0695L141.162 44.645L139.742 44.1205C131.021 40.8986 126.01 32.8756 128.293 23.2368C131.52 10.7073 145.87 0.5 160.739 0.5C168.148 0.5 174.235 3.04286 178.062 7.10528C181.88 11.1584 183.485 16.7603 181.883 22.9922L181.882 22.9922L181.879 23.0054C179.572 33.1083 169.88 41.6586 158.264 44.514L156.634 44.9147L158.217 45.4713C167.383 48.692 171.936 57.1077 169.65 66.3523L169.649 66.3522L169.647 66.3615C167.353 76.4551 157.651 85.0116 146.028 87.8672L144.507 88.2409L145.964 88.8176C150.58 90.6453 154.13 93.5699 156.182 97.169C158.23 100.761 158.806 105.057 157.427 109.683Z" fill="white" stroke="#004080"/>
<path fill-rule="evenodd" clip-rule="evenodd" d="M134.033 2.64844H66.7764L23.2225 49.8176H46.9329L11.1289 90.0254H35.8073L0 129.404H98.7104C90.9639 125.302 86.6067 117.927 89.0341 108.902C91.4516 99.0504 101.612 90.4358 113.706 87.1547C104.026 83.8709 98.7104 75.6723 101.612 65.8235C104.026 55.9775 114.193 47.3575 126.287 44.0793C116.611 40.7982 111.285 32.5882 114.193 22.7422C116.123 14.1305 123.87 6.34282 134.033 2.64844Z" fill="#004080"/>
</svg>
