<svg width="1920" height="1080" fill="none" xmlns="http://www.w3.org/2000/svg"><path d="M897 1312c-93 457-1180 652-1624 561s-776-587-682-1044 397-764 841-673S991 855 897 1312Z" fill="#EEF6FE"/><path d="M1072 1606c-127 449-1225 566-1661 443-437-123-731-642-605-1091 127-449 451-733 888-610 436 123 1504 809 1378 1258Z" fill="#E1F0FE"/><path d="M1117 1837c-146 443-1248 510-1679 368-430-143-702-674-555-1117 146-443 483-712 914-570 430 142 1467 876 1320 1319Z" fill="#CEE7FF"/><path d="M2429 329c398 245 209 1333-29 1719-237 386-816 528-1214 283-397-244-582-634-344-1020C1079 925 2032 85 2429 329Z" fill="#EEF6FE"/><path d="M2766 266c378 273 111 1345-153 1713-265 367-853 467-1232 194-378-272-535-675-270-1042C1376 763 2387-6 2766 266Z" fill="#E1F0FE"/><path d="M2998 302c366 290 52 1348-229 1704s-873 429-1239 140-504-698-223-1054S2632 13 2998 302Z" fill="#CEE7FF"/></svg>