<svg width="540" height="291" fill="none" xmlns="http://www.w3.org/2000/svg"><path d="M43 133H3c-2 0-3-1-3-2v-16c0-1 1-2 3-2h40l2 2v16l-2 2ZM142 43h-41l-2-2V25l2-2h41l2 2v16l-2 2Z" fill="#EEE"/><path d="M209 21h-40l-2-2V3c0-2 1-3 2-3h40c2 0 3 1 3 3v16c0 1-1 2-3 2Z" fill="url(#a)"/><path d="M256 21h-40c-2 0-3-1-3-2V3c0-2 1-3 3-3h40c1 0 2 1 2 3v16l-2 2ZM164 65h-44V48c0-2 1-3 2-3h40c2 0 3 1 3 3v16l-1 1ZM211 65h-44V48c0-2 1-3 2-3h40c2 0 3 1 3 3v16l-1 1Z" fill="#EEE"/><path d="M258 65h-44l-1-1V48c0-2 1-3 3-3h40c1 0 2 1 2 3v17Z" fill="url(#b)"/><path d="M329 43h-41l-2-2V25l2-2h41l2 2v16l-2 2ZM422 43h-40l-2-2V25l2-2h40c2 0 3 1 3 2v16c0 1-1 2-3 2ZM351 65h-44V48c0-2 1-3 2-3h40c2 0 3 1 3 3v16l-1 1ZM398 65h-44l-1-1V48c0-2 2-3 3-3h40c2 0 3 1 3 3v16l-1 1ZM76 111Zm-1-1V92l2-2h32v15h-3l3-2h-2a37 37 0 0 0-5 0l-2-1a11 11 0 0 0-12-7c-10 1-11 10-11 13l-1 1-1 1ZM429 111h-2l-1-9 3 9Zm16 0-13-19-7 3v-5h19c2 0 3 1 3 2v16c0 2-1 2-2 3Z" fill="#EEE"/><path d="M465 88h-40l-2-13v-1l-1-4c0-1 1-2 3-2h40c2 0 3 1 3 2v16c0 1-1 2-3 2Z" fill="url(#c)"/><path d="M447 133h-18l-2-20h3l3 5c3 6 9 11 14 15Zm20-10-1-1s-14-5-19-9h14l2 4 5 1v4l-1 1ZM109 179H99l-2-1v-13h2l8-2 2-1v17ZM100 154l-5-12 14 3v6l-9 3ZM91 87H51c-2 0-3-1-3-2V69c0-1 1-2 3-2h40l2 2v16l-2 2ZM60 133H49l-2-2v-16l2-2h27l-1 2-3 5c-5 3-13 3-12 12v1ZM109 201h-4l-8-20h12v20Zm-34 0h-2l-2-2v-16l1-2v1l1 6v2l2 11ZM438 156h-6l-3-20h12l2 2v11l-3-1-2 8Z" fill="#EEE"/><path d="m457 151-12-2v-11c0-1 1-2 3-2h3a147 147 0 0 0 7 6l-1 9Z" fill="url(#d)"/><path d="M483 247h-10l1-8c0-5 0-8-2-13h8l5 10v9l-2 2Zm-22 0h-19l-2-1v-17c0-2 1-3 2-3h16l3 21ZM456 201h-8c-2 0-3-1-3-2v-16c0-1 1-2 3-2h8a109 109 0 0 0 0 20Zm34 0v-11 11Z" fill="#EEE"/><path d="M469 43h-40c-2 0-3-1-3-2V25c0-1 1-2 3-2h40l2 2v16l-2 2Z" fill="url(#e)"/><path d="M491 66h-41c-1 0-2-1-2-3V47l2-2h41l2 2v16c0 2-1 3-2 3Z" fill="url(#f)"/><path d="M492 111h-6l1-5a66 66 0 0 0 3 1v-1l-1-1a2 2 0 0 1 0-1c0-3 1-9-4-14h7c2 0 3 1 3 2v16c0 2-1 3-3 3Zm-31 0h-9c-1 0-2-1-2-3V92l2-2h15l-1 1-3 2-1-1-5-1h-1a300 300 0 0 0 6 4l-4 1 4 1a19 19 0 0 0 1 0l-4 1 4 3-1 4-2 1 1 2v3Z" fill="url(#g)"/><path d="M109 247H95l9-21h5v21Zm-37 0h-3c-2 0-3-1-3-2v-16c0-2 1-3 3-3h5a27 27 0 0 0-3 13l1 8Z" fill="#EEE"/><g opacity=".3" fill="#120A59"><path d="M95 43H55l-2-2V25l2-2h40c2 0 3 1 3 2v16c0 1-1 2-3 2ZM189 43h-41l-2-2V25l2-2h41l2 2v16l-2 2ZM235 43h-40l-2-2V25l2-2h40c2 0 3 1 3 2v16c0 1-1 2-3 2ZM115 66H76c-2 0-3-1-3-2V48c0-2 1-3 3-3h40c1 0 2 1 2 3v17l-3 1ZM282 43h-40l-2-2V25l2-2h40c2 0 3 1 3 2v16c0 1-1 2-3 2ZM376 43h-41l-2-2V25l2-2h41l2 2v16l-2 2ZM303 21h-40c-2 0-3-1-3-2V3c0-2 1-3 3-3h40c1 0 2 1 2 3v16l-2 2ZM396 21h-40l-3-2V3c0-2 2-3 3-3h40c2 0 3 1 3 3v16c0 1-1 2-3 2ZM305 65h-44l-1-1V48c0-2 1-3 3-3h40c1 0 2 1 2 3v17ZM443 66h-25l-4-1h-13l-1-1V48c0-2 1-3 3-3h40c1 0 2 1 2 3v16l-2 2ZM109 88H98l-2-2V70l2-2h14c-2 1-3 4-3 7v13ZM72 179H53c-2 0-3-1-3-2v-16c0-2 1-3 3-3h6c-1 7 4 13 11 13h3l-1 7h1l-1 1ZM505 224h-8l-6-8-1-9v-3h15c2 0 3 1 3 2v16c0 1-1 2-3 2Zm-26 0h-8a13 13 0 0 1-1-8l1-2 1-3 1-3a182 182 0 0 0 6 16ZM516 43h-41l-2-2V25l2-2h41l2 2v16l-2 2ZM537 85h-40l-2-2V67l2-2h40c2 0 3 1 3 2v16c0 1-1 2-3 2ZM66 224H25l-2-2v-16l2-2h41l2 2v16l-2 2ZM441 201h-5l-2-20h7l2 2v16l-2 2ZM109 225h-4c2-6 4-10 3-12l-2-9h3v21Zm-21-1v-2l2-9 2 5-1 3-3 3ZM93 266l-1-1-5-4 1-1v-1l6-10h15v16l-16 1Z"/></g><path d="M457 225h-19l-2-21h20a557 557 0 0 0 1 21Z" fill="#EEE"/><path d="m458 267-16-1-1-17h16l2 2v15l-1 1Z" fill="url(#h)"/><path d="M441 249h-18v-2h13l2-2v-16c0-2-1-3-2-3h-13v-1h15l2 16v5l1 3Zm-5-45h-13v-3h13v3Zm-2-23h-11v-25h9l2 25Zm-5-45h-6v-3h6v3Zm-6-23v-2h4v2h-4Zm2-23h-2v-2h2v2ZM427 111h-4V90h2v5l-1 1 2 6 1 9Z" fill="#120A59"/><path d="M425 88h-2V75l2 13Z" fill="#B5DAD7"/><path d="M429 133h-6v-20h4l2 20ZM432 156h-9v-20h6l3 20Z" fill="#120A59"/><path d="M440 246v-5 5Z" fill="#B8DCD9"/><path d="M436 201h-13v-20h11l2 20ZM436 247h-13v-21h13c1 0 2 1 2 3v16l-2 2ZM438 225h-15v-21h13l2 21ZM442 266l-19-1v-16h18l1 17ZM268 281c-128 0-231-4-231-9 0-2 13-4 36-5v2c-8 0-13 1-13 2l21 1 21-1-3-2h10v1h213l-2 11h-52Zm55 0 2-11h14l-12 11h-4Zm8 0 13-11h12l-2 11h-23Zm26 0 2-11h13l-11 10-4 1Zm8-1 11-10h47l4-1h25c-2 2-3 3-2 4h1l28 3c-22 2-63 3-114 4Zm104-10v-2l20 1-20 1Z" fill="#120A59"/><path d="M109 269H97l-4-3 16-1v4Z" fill="#83C0BF"/><path d="M452 269h-25l16-2-1-1a1296 1296 0 0 1 13 2l-3 1ZM423 270v-1h4l-4 1Z" fill="#120A59"/><path d="M427 269h-4v-4l19 1 1 1-16 2Z" fill="#120A59"/><path d="M423 270H109V75c0-6 5-10 10-10h295c5 0 9 4 9 10v195Z" fill="#BDF"/><path d="M423 92H109V75c0-6 5-10 10-10h295c5 0 9 4 9 10v17Z" fill="#004080"/><path d="M125 247h129v-80H125v80ZM266 196h64v-46h-64v46Z" fill="#1566A5"/><path d="M403 245v2h-2v1h3v-3h-1ZM396 247h-4v1h4v-1Zm-9 0h-4v1h4v-1Zm-9 0h-5v1h5v-1Zm-9 0h-5v1h5v-1Zm-9 0h-5v1h5v-1Zm-10 0h-4v1h4v-1ZM341 247h-2v-2 3h2v-1Z" fill="#9FDED7"/><path d="M339 241v-5 5Zm0-9v-5 5Zm0-9v-4 4Zm0-9v-4 4Zm0-9v-4 4Zm0-8v-5 5Zm0-9v-5 5Zm0-9v-4 4Zm0-9v-4 4Zm0-9v-4 4ZM339 153v-2h2v-1h-2v3ZM346 151h4v-1h-4v1Zm9 0h5v-1h-5v1Zm9 0h5v-1h-5v1Zm9 0h5v-1h-5v1Zm10 0h4v-1h-4v1Zm9 0h4v-1h-4v1Z" fill="#fff"/><path d="M401 151h2v2h1v-3h-3v1ZM403 157v4h1v-4h-1Zm0 9v4h1v-4h-1Zm0 9v4h1v-4h-1Zm0 8v5h1v-5h-1Zm0 9v5h1v-5h-1Zm0 9v4h1v-4h-1Zm0 9v4h1v-4h-1Zm0 9v4h1v-4h-1Zm0 8v5h1v-5h-1Zm0 9v5h1v-5h-1Z" fill="#9FDED7"/><path d="M135 183h57v-9h-57v9ZM135 192h43v-4h-43v4ZM135 201h108-108ZM135 214h108v-1H135v1ZM237 226H135h104-2Z" fill="#004080"/><path d="M244 158h-5v1h5v-1Zm-10 0h-6v1h6v-1Zm-11 0h-5v1h5v-1Zm-10 0h-5v1h5v-1Zm-10 0h-5v1h5v-1Zm-10 0h-5v1h5v-1Zm-10 0h-5v1h5v-1Zm-10 0h-5v1h5v-1Zm-11 0h-5v1h5v-1Zm-10 0h-5v1h5v-1Zm-10 0h-5v1h5v-1Zm-10 0h-5v1h5v-1Zm-7-3v-5 5Zm0-10v-5 5Zm0-10v-5 5Zm0-10v-5 5Zm0-11v-2h3-3v2Zm8-2h5-5Zm10 0h5-5Zm10 0h5-5Zm10 0h5-5Zm10 0h6-6Zm11 0h5-5Zm10 0h5-5Zm10 0h5-5Zm10 0h5-5Zm10 0h5-5Zm10 0h5-5Zm11 0h5-5Zm9 1v5-5Zm0 10v5-5Zm0 10v5-5Zm0 10v5-5Zm0 11v4h-5v1h5v-5Z" fill="#4397A0"/><path opacity=".5" d="M266 141h137v-30H266v30Z" fill="#fff"/><path d="M139 79a4 4 0 1 1-9 0 4 4 0 0 1 9 0ZM157 79a4 4 0 1 1-9 0 4 4 0 0 1 9 0ZM175 79a4 4 0 1 1-9 0 4 4 0 0 1 9 0Z" fill="#fff"/><path d="M423 75Zm0-1Zm0 0Zm0 0Z" fill="#DEEDEB"/><path d="M423 270h-47l2-1a2 2 0 0 0 0-3l1-18a2 2 0 0 0 1-2l1-19v-1l6-75v-10h16v-30h-5l10-19h15v178Zm-22-23v1h3v-3h-1v2h-2Zm-9 0v1h4v-1h-4Zm-9 0v1h4v-1h-4Zm20-11v5h1v-5h-1Zm0-9v5h1v-5h-1Zm0-8v4h1v-4h-1Zm0-9v4h1v-4h-1Zm0-9v4h1v-4h-1Zm0-9v5h1v-5h-1Zm0-9v5h1v-5h-1Zm0-8v4h1v-4h-1Zm0-9v4h1v-4h-1Zm0-9v4h1v-4h-1Zm-2-7v1h2v2h1v-3h-3Zm-9 0v1h4v-1h-4Zm-53 120h-14l1-2h15l-2 2Zm-17 0H109v-39h16v16h129v-25l12-4v29h60l-4 23Zm53-4h-15v-1l3-17 13 1-1 17Zm-18-1h-12l1-17h14l-3 17Zm-15 0h-16l4-17h13l-1 17Zm34-20h-12l3-17h11l-2 17Zm-15 0h-15l1-17h17l-3 17Zm-18 0h-13v-2l3-15h6v4-4h5l-1 17Zm-4-9v5-5Zm-9-10v-24h-26l10-6h16v-11l9-6-1 6v1l-8 40Zm48-1h-11l3-17h9l-1 17Zm-14 0h-16l1-17h18l-3 17Zm-19 0h-11l3-17h9l-1 17Zm-6-6v4-4Zm0-9v4-4Zm40-5h-8l3-18 7 1-2 17Zm-11 0h-1l-18-1 1-16h21l-3 17Zm-22 0h-7v-4 4h-2l2-8v-2l2-7h6l-1 17Zm2-21h-7l2-8 6-5-1 13Zm33 0h-6l3-17h4l-1 17Zm-9 0h-21l1-16h23l-3 16Zm10-20h-4l4-17h2v3h-1v1l-1 13Zm-7 0h-19l16-17h6v3h-5v1h5l-3 13Zm9-20h-2l1-3h1v3Zm-5 0h-4l2-3h3l-1 3ZM423 92h-15l10-26c3 2 5 5 5 8v18Z" fill="#1566A5"/><path d="M254 247H125v-16h62c17 0 34-1 50-5h6-4l15-4v25Zm-119-9v1h108v-1H135ZM330 196h-16l16-11v11Z" fill="#004080"/><path opacity=".5" d="M326 247h-60v-29c13-4 26-10 38-16h26v24l-4 21Zm4-2v-2 2Z" fill="#fff"/><path d="M401 248v-1h2v-2h1v3h-3ZM396 248h-4v-1h4v1Zm-9 0h-4v-1h4v1ZM339 241v-5 5Zm0-9v-4 4Zm0-9v-4 4Zm0-9v-4 4Zm0-9v-4 4Zm0-8v-2 2Zm0-18ZM396 151h-4v-1h4v1Zm-9 0v-1 1Zm-4 0v-1h1l-1 1Zm-5 0h-5v-1h5v1ZM404 153h-1v-2h-2v-1h3v3ZM404 241h-1v-5h1v5Zm0-9h-1v-5h1v5Zm0-9h-1v-4h1v4Zm0-9h-1v-4h1v4Zm0-9h-1v-4h1v4Zm0-8h-1v-5h1v5Zm0-9h-1v-5h1v5Zm0-9h-1v-4h1v4Zm0-9h-1v-4h1v4Zm0-9h-1v-4h1v4Z" fill="#95DBD3"/><path d="M243 226h-6 6ZM135 239h108v-1H135v1Z" fill="#1566A5"/><path d="M489 276h-10c12-1 19-3 19-4l4-2c14 0 25 1 25 3 0 1-17 3-38 3Zm3-6Z" fill="#fff"/><path d="m479 276-28-3 7 1h1c4 0 9-1 10-3v-1l20-1 3 1-2 2 2 1a17 17 0 0 0 6-1c0 1-7 3-19 4ZM81 272l-21-1c0-1 5-2 13-2v1l15 2h2l-1-2a29 29 0 0 1 2 1l5 1 2-1-1-2h2l3 2-21 1Z" fill="#fff"/><path d="M99 269h-2 2Z" fill="#5AA8AD"/><path d="M109 174v-12 12ZM109 151v-6 6Z" fill="#C3D6D0"/><path d="M109 174v-12l12-7-3-6-8 2h-1v-6l44 7 6-31 7 2-6 35h-3v1h2v3l-36-4-14 16Zm38-16v1h5v-1h-5Zm-10 0v1h5v-1h-5Zm-10 0v1h5v-1h-5Zm-2-8v5-5Z" fill="#1566A5"/><path d="M159 159h-2v-1h3l-1 1Zm-7 0h-5v-1h5v1Zm-10 0h-5v-1h5v1Zm-10 0h-5v-1h5v1Zm-7-4v-5 5Z" fill="#387F89"/><path d="M434 96s-4-4-5-8c0-3-2-14-4-14s-2 4-2 8v9l5 10 6-5Z" fill="#F6884D"/><path d="m465 128 1-6s-16-6-20-10l-14-20-8 4s5 16 9 22c7 12 26 24 26 24l6-14Z" fill="#161F26"/><path d="M465 117c11-3 12-17 12-17l6 3 1 4c-1 3-2 5-5 7l-1 9-10 2-1-2 2-4-4-2Z" fill="#F6884D"/><path d="M504 256s5 6 5 8c-1 2-11 8-13 8-2 1-7 2-6 0 0-2 4-3 6-6 3-2 4-9 4-9l4-1ZM469 261v10c-2 4-17 3-19 2-1-2 0-3 5-5 4-1 9-5 9-7s5 0 5 0Z" fill="#161F26"/><path d="M458 274Zm1 0c4 0 9-1 10-3-1 2-6 3-10 3Z" fill="#305A63"/><path d="M469 268Z" fill="#808B90"/><path d="M469 270Z" fill="#456870"/><path d="M469 271Z" fill="#305A63"/><path d="m458 274-8-1v-2l14-2c2-1 3-3 4-6h1a29 29 0 0 1 0 7v1c-1 2-6 3-10 3h-1Z" fill="#151617"/><path d="M457 169s-2 12-2 26a489 489 0 0 0 6 53l2 15h6s5-18 5-24-1-9-3-15c-1-3-2-5-1-8l1-2 5-16 3-19v-8l-22-2Z" fill="#F46D75"/><path d="M469 263h-6l-2-15-3-23v-1a560 560 0 0 1-2-46l4 1 5 2c0 4 3 15 1 28 0 4-1 11 2 15 2 4 4 9 2 15l-1 24Zm2-49Zm1-3Zm0 0 1-3-1 3Z" fill="#D22538"/><path d="M492 273h-1c3-2 8-1 13-10l-1-4 2-2 4 7c-1 2-11 8-13 8l-4 1Z" fill="#151617"/><path d="M471 214Zm1-3Z" fill="#E9C6C6"/><path d="m469 263 1-24c2-6 0-11-2-15-3-4-2-11-2-15 2-13-1-24-1-28a558 558 0 0 0 7 30l-1 3-1 2v2l1 6c2 6 3 9 3 15l-1 8-4 16Z" fill="#C20015"/><path d="M486 171s5 7 5 17c-1 9-3 24 0 28l6 8c3 6 8 33 8 33l-6 3-21-38c-3-7-18-51-17-57 1-7 6 3 6 3l19 3Z" fill="#D22538"/><path d="M502 242Zm-12-52 1-2-1 2ZM491 188Zm0 0Zm0 0Zm0 0Zm0 0Zm0-1Z" fill="#FCD5D8"/><path d="M505 257c-3-4-5-14-6-18-1-7-5-15-10-21-5-5-3-8-3-18 0-7-1-13-3-17l8 1v4l-1 2v17l1 9 6 8 5 18 3 15Z" fill="#C20015"/><path d="M433 118Z" fill="#BDDDDA"/><path d="M458 141c-5-3-19-14-25-23l-3-5-4-11-2-6s8 18 14 24c7 6 18 11 22 13l-2 8Z" fill="#000"/><path d="m471 92-6 4-3 9-2 1 1 2s-1 6 2 9c5 3 10 2 14-1s6-5 7-10c2-5-3-16-13-14Z" fill="#F6884D"/><path d="m478 122 8 2 2 4 3 48s-21 7-37-1l4-33c0-5 5-20 8-20 0 0 3 5 12 0Z" fill="#161F26"/><path d="m481 156-4-1c2-4 3-10 3-15l3 14-2 2Z" fill="#000"/><path d="m510 188-75-14 5-26 75 15-5 25Z" fill="#004080"/><path d="M459 165a9 9 0 1 1-18-3 9 9 0 0 1 18 3ZM504 169l-15-3 1-3 14 3v3Zm-28-5-10-2v-3l11 2-1 3ZM487 170h-1l1-1h1l-1 1Zm-14-2-8-2v-1l9 2-1 1ZM502 177l-18-3 1-1 17 3v1Zm-30-6-8-1v-1l8 1v1ZM496 180l-15-3 1-1 14 3v1Zm-26-5-7-1 1-1 6 1v1Z" fill="#1566A5"/><path d="M453 160a2 2 0 1 1-4-1 2 2 0 0 1 4 1ZM445 166a5 5 0 0 1 9 2" fill="#004080"/><path d="m476 182-3-1 4 1h-1Z" fill="#897568"/><path d="m477 182-4-1h-1l1-1 6-3h2l-4 5Zm5-6h-2l2-3 2 1-2 2Zm3-3-2-1 2-2h1l-1 3Zm2-4h-1l2-3h1l-2 3Zm3-6v-1 1Z" fill="#120A59"/><path d="M489 166h-1l2-3-1 3ZM486 170h-1l1-1h1l-1 1ZM484 174l-2-1 1-1 2 1-1 1ZM481 177h-2l1-1h2l-1 1Z" fill="#004080"/><path d="m472 175-4 3h-8s4 4 8 4c3 0 6-3 6-3l-2-4Z" fill="#F6884D"/><path d="M481 125v-3s8 1 10 10c3 9 4 22 1 27-2 4-10 18-19 21 0 0-5-2-4-3 6-12 7-18 14-23 0 0-5-18-3-24l1-5Z" fill="#161F26"/><path d="M491 132a15 15 0 0 0-5-8l-2-1-3-1s8 0 10 10Z" fill="#D9EFED"/><path d="m487 125-3-2 2 1 1 1Zm-6-2v-1 1Zm0-1Z" fill="#3B8A95"/><path d="M473 180h-1l4-2c4-3 10-14 12-17 3-3 4-6 5-12 0-5-2-15-4-19-1-3-7-6-8-7v-1l3 1 3 2c2 1 3 4 4 7 3 9 4 22 1 27l-2 4a103 103 0 0 1-10 13l-1 1-6 3Z" fill="#000"/><path d="M475 95s-9-1-17 1l5 1-4 1s3 5 15 3c12-1 1-6 1-6Z" fill="#161F26"/><path d="m471 124-4-1 2-4h1a13 13 0 0 0 8-3v3a21 21 0 0 0 0 3c-3 2-5 2-7 2Z" fill="#F4723D"/><path d="M470 119a11 11 0 0 1-5-2c8-2 11-11 11-15l2 3h-1l1 5a2 2 0 0 0 1 0l-1 6h-1c-2 2-5 3-7 3Z" fill="#F4723D"/><path d="m468 125-1-2 4 1c2 0 4 0 7-2v1l-10 2Z" fill="#000"/><path d="M479 95s-8 2 0 10c3 3-4 10-1 14l3 2s-1-1 2-5 5-9 4-14c-2-6-8-7-8-7ZM482 118Zm1-2Z" fill="#161F26"/><path d="m476 102-1-1 1 1Z" fill="#161614"/><path d="M475 101Z" fill="#11110F"/><path d="M476 102Z" fill="#161513"/><path d="M482 118v-5l-1-5v-3l-1-1h-1l-3-2 11 4-1 5-3 5-1 2Z" fill="#161F26"/><path d="M458 93a249 249 0 0 0 32 13l-1-1v-1c0-3 1-13-9-17-4-1-10-1-14 4-1 1-2 2-4 1l-6-1c-1 1 2 2 2 2Z" fill="#FBC521"/><path d="M490 107Zm0 0Z" fill="#EDD87D"/><path d="m490 107-21-9a77 77 0 0 0 8 1c6 0 8-4 9-8 4 5 3 10 3 13v1l1 1v1Z" fill="#F9AA14"/><path d="M477 105s3-2 4 0-1 5-3 5l-1-5Z" fill="#F6884D"/><path d="M479 110h-1l-1-5 3-1 1 1v3l-2 2Z" fill="#F4723D"/><path d="m153 152-74-13 6-38 75 13-7 38Z" fill="#004080"/><path d="m149 149-56-10-3-4 1-1 10 2 3-16h-1l5-4 15 3 1-3-12-2 2-1h6v-2l34 6-5 32Zm-24-25-3 16 24 4 3-16-24-4Zm-18-3-3 16 16 2 2-15-15-3Zm19-2v1l14 2v-1l-14-2Zm1-3-1 1 24 4v-1l-23-4Z" fill="#1566A5"/><path d="m123 119-15-3 4-2 12 2-1 3ZM150 121l-24-4 1-1 23 4v1ZM140 122l-14-2v-1l14 2v1ZM101 136l-16-3 3-15 16 2-3 16ZM120 139l-16-2 3-16 15 3-2 15ZM146 144l-24-4 3-16 24 4-3 16Z" fill="#004080"/><path d="m101 124-2-1h2v1ZM100 127l-3-1h3v1ZM100 130l-6-1 1-1 5 1v1ZM99 133l-7-2h1l6 1v1ZM119 127l-11-2v-1l12 2-1 1ZM119 130l-11-2v-1l11 2v1ZM118 133l-11-2v-1l12 2-1 1ZM118 136l-11-2v-1l11 2v1ZM145 131l-18-3 18 3ZM144 134l-17-3 17 3ZM144 137l-18-3 18 3ZM143 140l-17-3 17 3Z" fill="#1566A5"/><path d="M90 135v-1h1l-1 1Z" fill="#76D0C4"/><path d="M114 110Z" fill="#6ECEC0"/><path d="M103 120h-3v-1l-1-2 3-2 6 1-5 4Zm9-6-4-1 6-3 3 1 2 2h-5l-2 1Z" fill="#004080"/><path d="m108 116-6-1 6-2 4 1-4 2ZM91 134h-1a12 12 0 0 0-2-2v-1h4l-1 3Zm2-3-5-1v1-5a10 10 0 0 0 5 0h4l-2 2-7-1v1l6 1-1 2Zm4-5-2-1 2-2h2l-2 3Zm3-3h-3l1-3h5l-3 3Z" fill="#120A59"/><path d="M99 123h-2 3-1ZM97 126h-3l1-1 2 1ZM94 129l-6-1v-1l7 1-1 1ZM92 131h-4v-1l5 1h-1Z" fill="#004080"/><path d="M120 111h-1v-2l3-1-2 3ZM120 113l-1-2h1v2Z" fill="#120A59"/><path d="m78 114-1-9s-1 12-5 15c-5 3-13 3-12 12 0 0-1 2 3 5 5 4 2 8-2 15-7 11 2 22 14 18 13-4 10-29 10-29l-7-27Z" fill="#161F26"/><path d="M89 124s-2 4-1 8c0 3-10-7-10-7s3-3 3-8c0-4 8 7 8 7ZM116 152l4-2c1-2 6-5 9-5 1 0-3 2-1 2l9 2c4 1 1 2-1 1-2 0-12 5-18 4M110 106l5-2s3-1 7 1l6 4h-9c-1 1-1 2 1 4l-3-2-5-1c-2 0-2-4-2-4Z" fill="#F6884D"/><path d="m92 116 3-9 16-2 3 5-18 8-4-2Z" fill="#F46D75"/><path d="m99 117 1-7h1c3 0 4 0 4-3l-1-1 7-1 3 5-6 3-6 2-3 2Z" fill="#D22538"/><path d="M72 171c-10 0-13-12-5-16 5-3 6-10 4-13s-3-6-2-10c1-3 4-4 6-4l-1 4c-2 5-2 12-1 21v17l-1 1Z" fill="#171A13"/><path d="M73 261v9l17 2c0-4-9-5-11-10l-3-1h-3Z" fill="#161F26"/><path d="m88 272-15-2a41 41 0 0 1 0-6l7 1 9 5 1 2h-2Z" fill="#161F26"/><path d="M76 174s-4-2-3 16c1 12 5 28 4 31-2 3-6 7-6 18l1 25 9 1 7-43c4-12 4-32 4-32l-16-16Z" fill="#161F26"/><path d="M73 264h-1 1Z" fill="#DCF0EE"/><path d="M73 189Zm0 0Zm0 0Zm0 0Zm0 0Zm0 0Z" fill="#D1E7E4"/><path d="M73 264Z" fill="#141516"/><path d="M73 264h-1l-1-25v-1c0-11 4-14 6-17v-3l-4-28v-2l4 7 2 5v3c1 6 4 16 1 20-4 4-6 10-6 25 1 8 0 13-1 16Z" fill="#000"/><path d="m88 222-9-22v-2a167 167 0 0 0 11 15l-2 9Z" fill="#161F26"/><path d="m79 200-2-5 2 3v2Z" fill="#16333E"/><path d="m84 257-3 2s-3 3-1 6l11 6c2 1 6 2 7 0l-6-6-5-4 1-1-4-3Z" fill="#161F26"/><path d="M91 271Z" fill="#447E87"/><path d="M92 271a10 10 0 0 1-1 0l-2-1-9-5-1-2 2-4 1-1 1 1 1 6 8 6Z" fill="#161F26"/><path d="M94 174s13 27 14 39c2 7-21 48-21 48l-6-3s2-30 10-37c2-3 1-6-1-8-11-13-18-24-18-32 1-16 22-7 22-7Z" fill="#161F26"/><path d="M72 181v-2 2Z" fill="#DCF0EE"/><path d="m72 179 1-1-1 1Z" fill="#C7E0DC"/><path d="M72 181Z" fill="#D1E7E4"/><path d="m83 259-2-1s2-30 10-37l1-3-2-5a167 167 0 0 1-13-18 28 28 0 0 1-5-14 16 16 0 0 1 1-3l3 1 3 9c6 8 16 20 16 28-1 8-6 9-8 20-1 5-4 17-4 23Z" fill="#000"/><path d="m97 103 3 6-1 8 1 2-2 1s-1 6-5 6c-5 1-9-2-11-6s-3-7-2-11c1-5 10-12 17-6Z" fill="#F6884D"/><path d="M88 130Z" fill="#77CEAB"/><path d="m88 130-6-3 2-4 4 3v4Z" fill="#F4723D"/><path d="M91 126h-3l-4-3 1-7 3-3c-1 4-1 9 4 13h-1Zm-3-14v-1 1Z" fill="#F4723D"/><path d="M79 124s-4 3-5 8c-2 5-2 12-1 21 2 9-1 25-1 25s16 6 25 2v-17c1-5-4-23-7-28l-2-5s-3 0-9-6Z" fill="#D22538"/><path d="m97 171-1-6h1v6Z" fill="#FABFC4"/><path d="M97 173v-6 6Zm0-8Z" fill="#F5B8BB"/><path d="M97 173c-12-9-17-26-17-26 3 6 8 14 12 16l4 2a57 57 0 0 0 1 8Z" fill="#8A000F"/><path d="M105 107c1 4-4 4-10 3-3-1-8 0-10 4s4 14-10 14c-2 0-1-15 3-20 9-10 25-6 27-1Z" fill="#161F26"/><path d="M88 112s-1-3-3-3c-2 1-3 7 0 7l3-4Z" fill="#F6884D"/><path d="M79 144c2 5 8 16 13 19s9 3 15 0l14-8-3-6-8 2c-1 1-8 1-10 3 0 0-8-19-12-22-4-4-12 4-9 12Z" fill="#D22538"/><path d="M80 147a33 33 0 0 1-1-3l1 3Zm-1-3Zm0 0Z" fill="#F35E67"/><path d="M99 165h-3l-4-2c-4-2-9-10-12-16l-1-3v-7l2 7c2 3 9 17 15 18h3c6 0 14-2 22-7l-12 7-2 1-8 2Z" fill="#C20015"/><path d="M85 116c-2 0-2-2-2-3l1-2 3-1 1 2-3 4Z" fill="#F4723D"/><path d="M76 113v-2a36 36 0 0 1 0 2Z" fill="#FBC521"/><path d="M76 111h1-1Z" fill="#F0BD1E"/><path d="M76 112v-1h1l-1 1ZM76 113a22 22 0 0 1 1-2l25-5-15 4a2 2 0 0 0-2-1l-1 2-8 2Z" fill="#171A13"/><path d="m84 111 1-2 2 1-3 1Z" fill="#F2581A"/><path d="M77 108Z" fill="#F0BD1E"/><path d="M106 105s-20 5-31 6v-1l1-1 1-1c0-3 1-12 11-13 4 0 9 1 12 7 0 1 1 2 3 1h6l-3 2Z" fill="#FBC521"/><path d="M75 111Zm0 0Zm0 0Zm0 0Zm0 0Zm0 0Zm0 0Zm0 0Zm0 0Zm0 0Zm0 0Zm0 0Zm0 0Zm1 0Zm0 0Zm0 0Zm0 0Zm0 0Zm0 0Zm0 0Zm0 0Zm0 0Zm0 0Zm0 0Zm0 0Zm0 0Zm0 0Zm0 0Zm-1-1Z" fill="#FCE485"/><path d="M77 108Zm0 0Zm0 0Zm0 0Zm0 0Zm0 0Zm0 0Zm0 0Zm0 0Z" fill="#F1DB7F"/><path d="M75 111v-1l1-1 1-1c0-2 0-7 5-10 0 3 1 8 7 9h6l-19 4h-1Z" fill="#F9AA14"/><path d="M321 289h-1l-1-2 34-184a2 2 0 0 1 3 1l-34 184-1 1ZM354 289l-1-2 33-184a2 2 0 0 1 3 1l-33 184-2 1Z" fill="#161F26"/><path d="M382 124h-32a2 2 0 1 0 0 3h32a2 2 0 0 0 0-3ZM379 144h-33a2 2 0 0 0 0 3h33a2 2 0 0 0 0-3ZM376 164h-33a2 2 0 1 0 0 4h33a2 2 0 1 0 0-4ZM372 184h-33a2 2 0 0 0 0 4h33a2 2 0 0 0 0-4ZM369 205h-33a2 2 0 0 0 0 3h33a2 2 0 0 0 0-3ZM366 225h-34a2 2 0 1 0 0 3h34a2 2 0 1 0 0-3ZM362 245h-34a2 2 0 0 0 0 3h34a2 2 0 0 0 0-3ZM359 265h-34a2 2 0 0 0 0 3h34a2 2 0 1 0 0-3Z" fill="#161F26"/><path d="m354 290-1-2 1 1 2-1v-3l5-5h4l-9 9a2 2 0 0 1-2 1Z" fill="#1566A5"/><path d="m361 280 11-10h-13 17l-11 10h-4ZM389 111h-1l1-7a2 2 0 0 0-2-1v-1a2 2 0 0 1 3 0l-1 9ZM385 131v-3l3-17h1l-1 15-3 5ZM376 270h-17v-2a2 2 0 0 0 1-2h15l1-17-13-1a2 2 0 0 0 1-3h12l2-17h-11v-1a2 2 0 0 0 0-1v-1h11l1-17h-9l1-3h8l2-17-7-1 1-3h6l1-17h-4v-3h4l1-13h4l-6 75v1l-1 19a2 2 0 0 1-1 2l-1 18a2 2 0 0 1 0 3l-2 1Zm-3-23v1h5v-1h-5Zm-9 0v1h5v-1h-5Zm23-97h-3v-3h-2v-3h2v-3h3v9Z" fill="#fff"/><path d="M378 248h-5v-1h5v1Zm-9 0h-5v-1h5v1ZM387 151h-4l1-1h3v1Z" fill="#70C8B9"/><path d="M387 141h-3l1-10 3-5-1 15Z" fill="#fff"/><path d="m321 290-2-2 1 1h1l1-1 1-3 4-4h4l-9 8a2 2 0 0 1-1 1Z" fill="#1566A5"/><path d="m327 281 12-11h17-12l-13 11h-4ZM356 270h-17l2-2h15v2Zm-11-5h-3l1-17h17-14l-1 17Zm1-20h-3l1-17h20-17l-1 17Zm21-37h-3 3Zm0-3h-21l1-17h3l-1 16 18 1ZM349 171v-3h3l-3 3Z" fill="#fff"/><path d="M372 184h-24l1-13 3-3-1 16h21ZM355 164h-6l1-13v-4h3l-1 17h4-1Z" fill="#fff"/><path d="M350 151v-1 1Z" fill="#78D0BF"/><path d="M375 164h-20 20ZM374 144h-24l1-3h3v2l21 1h-1ZM354 141h-3l1-14h3l-1 14ZM379 144h-5 5ZM356 111h-1l1-6 1 1-1 5ZM383 124h-31l3-13h1l-1 11 28 1v1Z" fill="#fff"/><path d="M354 102Z" fill="#A9D9CE"/><path d="M321 289h-1l-1-1 4-3-1 3-1 1Zm31-165 2-22 1 2 1 1-1 6-3 13ZM354 289l-1-1 3-3v3l-2 1Zm2-19v-2h3v2h-3Zm7-22h-3 3Zm4-20h-3 2l1-1v1Zm0-2v-1 1Zm3-18h-3 2a2 2 0 0 0 0-3h2l-1 3Zm4-21h-1a2 2 0 0 0-1-3h3l-1 3Zm4-20h-1a2 2 0 0 0-1-3h-1 3v3Zm4-20h-2a2 2 0 0 0-1-3h3v3Zm3-19v-2h-1l-1-2v-1h2l2-20a2 2 0 0 1 2 1l-1 7-3 17Z" fill="#161F26"/><path d="M355 127h-3v-2a2 2 0 0 1 0-1h31a2 2 0 0 1 1 2l-29-1v2ZM353 147h-3v-3h29a2 2 0 0 1 1 3l-27-1v1ZM352 168h-3v-4h27a2 2 0 0 1 1 3h-25v1ZM350 188h-3v-3l1-1h24a2 2 0 0 1 1 3h-23v1Z" fill="#161F26"/><path d="M348 225h-3l1-17h3l-1 17Z" fill="#fff"/><path d="M369 208h-5l-15-1v1h-3v-3h23a2 2 0 0 1 0 3ZM366 228h-22l1-3h22a2 2 0 0 1-1 3ZM362 248h-19v-3h21a2 2 0 0 1-2 3ZM359 268h-18l1-3h3l15 1a2 2 0 0 1-1 2Z" fill="#161F26"/><defs><linearGradient id="a" x1="222.4" y1="60.9" x2="196.5" y2="-1.5" gradientUnits="userSpaceOnUse"><stop stop-color="#014282"/><stop offset=".2" stop-color="#0E578E"/><stop offset=".6" stop-color="#0E578E"/><stop offset="1" stop-color="#1566A5"/></linearGradient><linearGradient id="b" x1="269.2" y1="102.7" x2="245.6" y2="42.6" gradientUnits="userSpaceOnUse"><stop stop-color="#014282"/><stop offset=".2" stop-color="#0E578E"/><stop offset=".6" stop-color="#0E578E"/><stop offset="1" stop-color="#1566A5"/></linearGradient><linearGradient id="c" x1="478.3" y1="128.2" x2="452.4" y2="65.8" gradientUnits="userSpaceOnUse"><stop stop-color="#014282"/><stop offset=".2" stop-color="#0E578E"/><stop offset=".6" stop-color="#0E578E"/><stop offset="1" stop-color="#1566A5"/></linearGradient><linearGradient id="d" x1="461.1" y1="181.4" x2="433.7" y2="156.8" gradientUnits="userSpaceOnUse"><stop stop-color="#014282"/><stop offset=".2" stop-color="#0E578E"/><stop offset=".6" stop-color="#0E578E"/><stop offset="1" stop-color="#1566A5"/></linearGradient><linearGradient id="e" x1="482.2" y1="83.3" x2="456.3" y2="21" gradientUnits="userSpaceOnUse"><stop stop-color="#014282"/><stop offset=".2" stop-color="#0E578E"/><stop offset=".6" stop-color="#0E578E"/><stop offset="1" stop-color="#1566A5"/></linearGradient><linearGradient id="f" x1="503.6" y1="105.6" x2="477.7" y2="43.2" gradientUnits="userSpaceOnUse"><stop stop-color="#014282"/><stop offset=".2" stop-color="#0E578E"/><stop offset=".6" stop-color="#0E578E"/><stop offset="1" stop-color="#1566A5"/></linearGradient><linearGradient id="g" x1="505.5" y1="150.6" x2="479.6" y2="88.3" gradientUnits="userSpaceOnUse"><stop stop-color="#014282"/><stop offset=".2" stop-color="#0E578E"/><stop offset=".6" stop-color="#0E578E"/><stop offset="1" stop-color="#1566A5"/></linearGradient><linearGradient id="h" x1="463.4" y1="301.5" x2="431.8" y2="266" gradientUnits="userSpaceOnUse"><stop stop-color="#014282"/><stop offset=".2" stop-color="#0E578E"/><stop offset=".6" stop-color="#0E578E"/><stop offset="1" stop-color="#1566A5"/></linearGradient></defs></svg>