<svg width="64" height="64" viewBox="0 0 64 64" fill="none" xmlns="http://www.w3.org/2000/svg">
<path d="M58.6673 19.166C51.3583 21.9411 45.7889 23.9177 40.8895 30.166C36.525 35.7341 30.2229 37.6641 23.1118 33.9938V53.9993H19.5562V4.49935C19.5562 3.48597 20.3513 2.66602 21.334 2.66602C22.3167 2.66602 23.1118 3.48597 23.1118 4.49935C27.0597 10.4183 33.9208 11.7289 40.8895 11.8327C51.5562 11.9938 58.6673 19.166 58.6673 19.166ZM26.6673 43.4863V47.2175C30.8618 48.102 33.7784 49.9783 33.7784 52.1661C33.7784 55.2026 28.2055 57.6661 21.334 57.6661C14.4624 57.6661 8.88954 55.2025 8.88954 52.166C8.88954 49.9782 11.8062 48.1019 16.0007 47.2174V43.4863C9.54232 44.6394 5.33398 47.8691 5.33398 52.166C5.33398 57.5622 11.9139 61.3327 21.334 61.3327C30.7541 61.3327 37.334 57.5622 37.334 52.166C37.334 47.8691 33.1257 44.6394 26.6673 43.4863Z" fill="#3B4853"/>
</svg>
