<svg width="64" height="64" viewBox="0 0 64 64" fill="none" xmlns="http://www.w3.org/2000/svg">
<path d="M48 31.9533V39.8695C48 50.2513 40.6575 58.6673 31.6001 58.6673C22.5427 58.6673 15.2003 50.2513 15.2003 39.8695V31.8214L14.3534 30.8271C20.2446 27.7179 26.396 26.1635 32.8079 26.1635C42.4259 26.1635 48.9266 30.8271 48.9414 30.8271L48 31.9533ZM44.1859 36.6088C42.0604 38.5884 38.4193 40.8211 32.8079 40.8211C27.2939 40.8211 22.6962 39.2039 19.0143 35.9701V39.8695C19.0143 47.8369 24.6491 54.2957 31.6001 54.2957C38.5511 54.2957 44.1859 47.8369 44.1859 39.8695V36.6088ZM49.4132 13.0975C52.5947 13.4486 52.3813 14.851 53.1827 18.7664C53.9841 22.682 56.6981 23.7349 55.8312 24.6702C55.2302 25.3188 52.4597 27.7922 50.8179 29.2484C46.5948 26.4825 39.8029 24.6433 32.0056 24.6433C24.2077 24.6433 17.4156 26.4831 13.1933 29.2492C11.5472 27.7932 8.77081 25.3188 8.16908 24.6702C7.30213 23.7349 10.0114 22.682 10.8128 18.7664C11.6142 14.8508 11.3966 13.4484 14.5784 13.0975C17.7602 12.747 22.9426 12.5131 27.0408 8.59695C31.1391 4.68182 32.0056 5.38273 32.0056 5.38273C32.0056 5.38273 32.8636 4.68167 36.9618 8.59695C41.06 12.5131 46.2312 12.747 49.4132 13.0975ZM37.5977 14.1613C36.1393 14.7343 34.6474 14.4843 33.24 12.8037C32.932 12.4361 32.6362 12.0041 32.3532 11.5055C32.0703 12.0041 31.7745 12.4361 31.4665 12.8037C30.059 14.4843 28.5663 14.7343 27.108 14.1613C27.0908 14.1546 27.0744 14.1484 27.0588 14.1421C27.921 19.022 30.0377 22.2969 32.3517 22.3059C34.6677 22.2969 36.7847 19.022 37.6469 14.1421C37.6313 14.1484 37.6149 14.1546 37.5977 14.1613Z" fill="#3B4853"/>
</svg>
