<svg width="64" height="64" viewBox="0 0 64 64" fill="none" xmlns="http://www.w3.org/2000/svg">
<path d="M23.2085 20.126C25.7378 18.3742 28.7606 17.3361 32.0302 17.3361C35.2997 17.3361 38.3225 18.3742 40.8518 20.126C41.5304 18.8933 42.5174 17.8551 43.5662 17.0117C40.2966 14.611 36.3485 13.1836 32.0302 13.1836C27.7119 13.1836 23.7637 14.611 20.4941 17.0765C21.6046 17.8551 22.5299 18.9581 23.2085 20.126Z" fill="#3B4853"/>
<path d="M15.9903 34.2051C15.9903 33.4914 16.052 32.7777 16.1137 32.1289H12.1038C12.0422 32.8426 11.9805 33.4914 11.9805 34.2051C11.9805 41.1476 15.25 47.3763 20.2469 51.2043C20.8021 49.9067 21.5424 48.7388 22.5294 47.8305C18.5813 44.7161 15.9903 39.785 15.9903 34.2051Z" fill="#3B4853"/>
<path d="M47.9462 32.1289C48.0079 32.8426 48.0696 33.4914 48.0696 34.2051C48.0696 39.785 45.4786 44.7161 41.4688 47.7656C42.4558 48.7388 43.2578 49.8418 43.7513 51.2043C48.7482 47.3763 52.0177 41.2125 52.0177 34.2051C52.0177 33.4914 51.956 32.7777 51.8943 32.1289H47.9462Z" fill="#3B4853"/>
<path d="M32.0309 47.1181C35.1654 47.1181 37.7064 44.4456 37.7064 41.1489C37.7064 37.8522 35.1654 35.1797 32.0309 35.1797C28.8965 35.1797 26.3555 37.8522 26.3555 41.1489C26.3555 44.4456 28.8965 47.1181 32.0309 47.1181Z" fill="#3B4853"/>
<path d="M37.0261 48.8047C35.6072 49.8428 33.8799 50.4267 32.0292 50.4267C30.1785 50.4267 28.4512 49.8428 27.0323 48.8047C24.503 49.713 22.6523 52.2435 22.6523 55.2281V58.018C22.6523 58.3424 22.8991 58.6668 23.2692 58.6668H40.7892C41.0976 58.6668 41.4061 58.4073 41.4061 58.018V55.2281C41.4061 52.2435 39.5554 49.7779 37.0261 48.8047Z" fill="#3B4853"/>
<path d="M12.1052 17.2704C15.2396 17.2704 17.7806 14.5979 17.7806 11.3012C17.7806 8.00453 15.2396 5.33203 12.1052 5.33203C8.97068 5.33203 6.42969 8.00453 6.42969 11.3012C6.42969 14.5979 8.97068 17.2704 12.1052 17.2704Z" fill="#3B4853"/>
<path d="M21.4198 28.1703V25.3804C21.4198 22.3958 19.5691 19.8654 17.0398 18.957C15.6209 19.9952 13.8936 20.5791 12.0429 20.5791C10.1922 20.5791 8.46487 19.9952 7.046 18.957C4.51671 19.8654 2.66602 22.3958 2.66602 25.3804V28.1703C2.66602 28.4948 2.91278 28.8192 3.28292 28.8192H20.8029C21.173 28.7543 21.4198 28.4948 21.4198 28.1703Z" fill="#3B4853"/>
<path d="M51.9567 17.2704C55.0912 17.2704 57.6322 14.5979 57.6322 11.3012C57.6322 8.00453 55.0912 5.33203 51.9567 5.33203C48.8222 5.33203 46.2812 8.00453 46.2812 11.3012C46.2812 14.5979 48.8222 17.2704 51.9567 17.2704Z" fill="#3B4853"/>
<path d="M56.9538 18.957C55.535 19.9952 53.8076 20.5791 51.957 20.5791C50.1063 20.5791 48.3789 19.9952 46.9601 18.957C44.4308 19.8654 42.5801 22.3958 42.5801 25.3804V28.1703C42.5801 28.4948 42.8268 28.8192 43.197 28.8192H60.7169C61.0254 28.8192 61.3338 28.5596 61.3338 28.1703V25.3804C61.3338 22.3958 59.4831 19.8654 56.9538 18.957Z" fill="#3B4853"/>
</svg>
