<svg width="64" height="64" viewBox="0 0 64 64" fill="none" xmlns="http://www.w3.org/2000/svg">
<path d="M54.6673 10.6641C53.9313 10.6641 53.334 11.2614 53.334 11.9974V17.3307C53.334 18.0667 53.9313 18.6641 54.6673 18.6641C55.4033 18.6641 56.0007 18.0667 56.0007 17.3307V11.9974C56.0007 11.2614 55.4033 10.6641 54.6673 10.6641Z" fill="#3B4853"/>
<path d="M54.6673 21.332C53.9313 21.332 53.334 21.9294 53.334 22.6654V51.9987C53.334 52.7347 53.9313 53.332 54.6673 53.332C55.4033 53.332 56.0007 52.7347 56.0007 51.9987V22.6654C56.0007 21.9294 55.4033 21.332 54.6673 21.332Z" fill="#3B4853"/>
<path d="M36.944 5.72136C36.6933 5.47336 36.3547 5.33203 36 5.33203H17.3333C12.1867 5.33203 8 9.5187 8 14.6654V49.332C8 54.4787 12.1867 58.6654 17.3333 58.6654H38.6667C43.8133 58.6654 48 54.4787 48 49.332V17.332C48 16.9774 47.8587 16.6387 47.6107 16.388L36.944 5.72136ZM39.92 44.6174C39.6693 45.308 38.9013 45.66 38.2133 45.42C37.1627 45.0867 31.0453 45.796 29.0347 46.1854C28.952 46.2014 28.8667 46.2094 28.7813 46.2094C28.44 46.2094 28.1067 46.076 27.856 45.8334C27.6347 45.6227 27.4987 45.3427 27.4613 45.0494C26.5707 45.564 25.5227 45.8734 24.368 45.604C23.776 45.4707 23.3493 44.9534 23.3307 44.3427C23.296 43.1507 23.6667 42.1134 24.0267 41.1907C22.8667 41.8654 21.6107 42.7374 20.576 43.46C19.2987 44.348 18.2907 45.0494 17.544 45.3827C16.8667 45.6787 16.0827 45.38 15.784 44.7054C15.4827 44.0334 15.7867 43.244 16.4587 42.9454C16.976 42.716 17.9867 42.012 19.056 41.2707C21.2507 39.7454 23.7413 38.0147 25.7147 37.5667C26.104 37.4707 26.52 37.5694 26.8373 37.8227C27.1547 38.0734 27.3387 38.452 27.3413 38.8574C27.3493 40.0254 26.944 41.06 26.5867 41.972C26.5013 42.1854 26.4213 42.3934 26.344 42.6014C27.112 42.076 27.8027 41.212 28.1067 40.8334C28.456 40.3987 29.0453 40.2307 29.5707 40.4014C30.1013 40.5774 30.464 41.068 30.4827 41.6254C30.4987 42.196 30.456 42.748 30.3867 43.2867C33.008 42.916 37.648 42.3747 39.12 42.908C39.8107 43.1614 40.1707 43.9267 39.92 44.6174ZM38.6667 29.332H17.3333C16.5973 29.332 16 28.7347 16 27.9987C16 27.2627 16.5973 26.6654 17.3333 26.6654H38.6667C39.4027 26.6654 40 27.2627 40 27.9987C40 28.7347 39.4027 29.332 38.6667 29.332ZM38.6667 21.332H17.3333C16.5973 21.332 16 20.7347 16 19.9987C16 19.2627 16.5973 18.6654 17.3333 18.6654H38.6667C39.4027 18.6654 40 19.2627 40 19.9987C40 20.7347 39.4027 21.332 38.6667 21.332Z" fill="#3B4853"/>
</svg>
