<svg width="64" height="64" viewBox="0 0 64 64" fill="none" xmlns="http://www.w3.org/2000/svg">
<path d="M53.3327 24.2229C53.3327 24.1118 53.3151 24.0029 53.28 23.9007C53.0845 13.6318 43.603 5.33398 31.973 5.33398C20.2503 5.33398 10.7111 13.7695 10.6685 24.1518V24.1651C10.6685 24.1851 10.666 24.2029 10.666 24.2229C10.666 24.2807 10.6936 24.3295 10.7036 24.3829C10.7162 24.4607 10.7237 24.5384 10.7563 24.614C10.7914 24.694 10.844 24.7607 10.8992 24.8295C10.9318 24.8718 10.9468 24.9207 10.9844 24.9607L29.1852 43.1118H24.4545C23.7626 43.1118 23.201 43.6095 23.201 44.2229V57.5562C23.201 58.1695 23.7626 58.6673 24.4545 58.6673H39.4965C40.1885 58.6673 40.75 58.1695 40.75 57.5562V44.2229C40.75 43.6095 40.1885 43.1118 39.4965 43.1118H34.7658L52.8488 25.0807C53.1346 24.8762 53.3327 24.5762 53.3327 24.2229ZM13.2658 23.894C13.7346 22.414 17.2695 20.8895 21.945 20.8895C26.9665 20.8895 30.7195 22.6495 30.7195 24.2229V41.3007L13.2658 23.894ZM35.7335 53.1118C35.7335 53.7251 35.172 54.2229 34.48 54.2229H31.973C31.2811 54.2229 30.7195 53.7251 30.7195 53.1118C30.7195 52.4984 31.2811 52.0007 31.973 52.0007H34.48C35.172 52.0007 35.7335 52.4984 35.7335 53.1118ZM33.2265 41.3029V24.2229C33.2265 22.6495 36.9795 20.8895 42.001 20.8895C46.6766 20.8895 50.2115 22.414 50.6803 23.8962L33.2265 41.3029Z" fill="#3B4853"/>
</svg>
