<svg width="64" height="64" fill="none" xmlns="http://www.w3.org/2000/svg"><path d="M23 20a15 15 0 0 1 18 0l3-3a19 19 0 0 0-24 0l3 3ZM16 34v-2h-4v2c0 7 3 13 8 17l3-3c-4-3-7-8-7-14ZM48 32v2c0 6-3 11-7 14l3 3a21 21 0 0 0 8-19h-4ZM32 47c3 0 6-3 6-6s-3-6-6-6-6 3-6 6 3 6 6 6ZM37 49a8 8 0 0 1-10 0c-2 1-4 3-4 6v4h18v-4c0-3-1-5-4-6ZM12 17c3 0 6-2 6-6 0-3-3-6-6-6s-6 3-6 6c0 4 3 6 6 6ZM21 28v-3c0-3-1-5-4-6a8 8 0 0 1-10 0c-2 1-4 3-4 6v4h18v-1ZM52 17c3 0 6-2 6-6 0-3-3-6-6-6s-6 3-6 6c0 4 3 6 6 6ZM57 19a8 8 0 0 1-10 0c-3 1-4 3-4 6v4h18v-4c0-3-2-5-4-6Z" fill="#004080"/></svg>