<svg width="64" height="64" viewBox="0 0 64 64" fill="none" xmlns="http://www.w3.org/2000/svg">
<path d="M58.6668 19.1667C51.3578 21.9418 45.7884 23.9183 40.8891 30.1667C36.5245 35.7347 30.2224 37.6648 23.1113 33.9945V54H19.5557V4.50002C19.5557 3.48665 20.3508 2.66669 21.3335 2.66669C22.3162 2.66669 23.1113 3.48665 23.1113 4.50002C27.0592 10.4189 33.9203 11.7295 40.8891 11.8334C51.5557 11.9945 58.6668 19.1667 58.6668 19.1667ZM26.6668 43.487V47.2182C30.8613 48.1026 33.7779 49.9789 33.7779 52.1668C33.7779 55.2033 28.2051 57.6668 21.3335 57.6668C14.4619 57.6668 8.88905 55.2031 8.88905 52.1667C8.88905 49.9788 11.8057 48.1025 16.0002 47.2181V43.487C9.54183 44.64 5.3335 47.8698 5.3335 52.1667C5.3335 57.5629 11.9134 61.3333 21.3335 61.3333C30.7536 61.3333 37.3335 57.5629 37.3335 52.1667C37.3335 47.8698 33.1252 44.64 26.6668 43.487Z" fill="#004080"/>
</svg>
