<svg width="64" height="64" viewBox="0 0 64 64" fill="none" xmlns="http://www.w3.org/2000/svg">
<path d="M13.4939 49.4204V12.0547H10.9638C9.3012 12.0547 8 13.2183 8 14.7052V56.0143C8 57.5012 9.3012 58.6648 10.9638 58.6648H45.4456C47.1082 58.6648 48.4094 57.5012 48.4094 56.0143V53.881H18.4819C15.7349 53.881 13.4939 51.8769 13.4939 49.4204Z" fill="#3B4853"/>
<path d="M45.7351 16.6452H56.0001L43.3496 5.33203V5.39668V14.5118C43.3496 15.6755 44.4339 16.6452 45.7351 16.6452Z" fill="#3B4853"/>
<path d="M41.3247 14.5097V5.39453H18.4814C16.8188 5.39453 15.5176 6.55817 15.5176 8.04504V49.4188C15.5176 50.9057 16.8188 52.0693 18.4814 52.0693H52.9631C54.6258 52.0693 55.927 50.9057 55.927 49.4188V18.4531H45.7343C43.2764 18.4531 41.3247 16.7077 41.3247 14.5097ZM26.2886 18.2592H35.4693C36.0476 18.2592 36.4813 18.6471 36.4813 19.1642C36.4813 19.6814 36.0476 20.0693 35.4693 20.0693H26.2886C25.7103 20.0693 25.2766 19.6814 25.2766 19.1642C25.2043 18.6471 25.7103 18.2592 26.2886 18.2592ZM45.3005 43.7946H26.2886C25.7103 43.7946 25.2766 43.4067 25.2766 42.8895C25.2766 42.3723 25.7103 41.9845 26.2886 41.9845H45.3005C45.8788 41.9845 46.3126 42.3723 46.3126 42.8895C46.3126 43.342 45.8066 43.7946 45.3005 43.7946ZM45.3005 35.9077H26.2886C25.7103 35.9077 25.2766 35.5198 25.2766 35.0026C25.2766 34.4855 25.7103 34.0976 26.2886 34.0976H45.3005C45.8788 34.0976 46.3126 34.4855 46.3126 35.0026C46.3126 35.5198 45.8066 35.9077 45.3005 35.9077ZM46.3126 27.0511C46.3126 27.5683 45.8788 27.9562 45.3005 27.9562H26.2886C25.7103 27.9562 25.2766 27.5683 25.2766 27.0511C25.2766 26.5339 25.7103 26.1461 26.2886 26.1461H45.3005C45.8066 26.1461 46.3126 26.5339 46.3126 27.0511Z" fill="#3B4853"/>
</svg>
