<svg width="1920" height="1972" fill="none" xmlns="http://www.w3.org/2000/svg"><path opacity=".1" fill-rule="evenodd" clip-rule="evenodd" d="M1912 137c138 23 271 80 360 132 88 50 119 101 122 145 2 42-42 71-106 94-63 23-131 52-256 35-124-17-214-81-335-116-111-31-247-33-333-74s-68-81-74-119c-6-35-24-77 40-91 63-15 194 18 282 18 113-1 165-46 300-24Z" fill="#120A59"/><path opacity=".1" fill-rule="evenodd" clip-rule="evenodd" d="M741 217c81 7 189 28 253 67 66 40 16 77 52 120 37 43 183 95 158 125-27 34-178-10-257-4-49 4-60 31-110 34-55 3-120-7-186-19-76-15-183-22-225-59-49-44 50-49 13-92-36-44-160-81-193-124-30-39 9-74 76-77 72-4 174 55 254 61 74 5 90-38 165-32ZM2302 950c115 91 81 177 65 256-15 78-28 163-151 187-126 25-308-11-476-64-158-51-297-128-399-214-101-84-149-171-149-248 0-85 13-179 150-196 133-18 318 64 487 113 167 49 360 77 473 166Z" fill="#D22538"/><path opacity=".1" fill-rule="evenodd" clip-rule="evenodd" d="M-385 1326c26-159 210-294 362-421 149-124 306-259 484-284 181-26 323 52 418 157 90 99 114 239 81 390a846 846 0 0 1-257 418c-144 137-317 287-498 301-178 13-244-140-348-239-102-97-267-165-242-322Z" fill="#120A59"/></svg>