<svg width="663" height="108" fill="none" xmlns="http://www.w3.org/2000/svg"><path d="M0 45.7a4 4 0 0 1 1.6-3.3l15.8-11.6a4 4 0 0 1 4.8 0l15.7 11.7a4 4 0 0 1 1.6 3.2v17A4 4 0 0 1 38 66L21.3 79.3a2.3 2.3 0 0 1-2.4.3c-.2 0-.4-.2-.5-.3L1.7 66.2a3.8 3.8 0 0 1-1.5-3L0 45.7Z" fill="#1566A5"/><path d="M39.5 48.9v-3.7c-.3 0-.8-.2-3.2 1.6L20.9 58.3c-.6.5-.7 1-.7 1.8v18.1c0 .3 0 1.3.9 1.3l2.3-1.9 7.4-5.6 7.8-5.9c.6-.4.9-1.5.9-2.4V49Z" fill="#014282"/><path d="M.2 48.7v-4c0-.7 1 .1 3.3 2L19 58c.6.4.7 1 .7 1.8V78c0 .3.2 1.5-.7 1.5-.5 0-1.8-1.2-2.7-2L8.8 72 1.2 66c-.6-.5-1-1.3-1-2.2v-15Z" fill="#0E578E"/><path d="M36.6 46.1c.6-.4 2-1.3 2-2.1s-.2-.9-.8-1.3L20.9 29.9c-.3-.2-.6-.3-1-.3a2 2 0 0 0-1 .3l-17 12.8C.6 43.6.6 43.6.6 44c0 .3.4.5 2.6 2.1l15.8 11.7c.3.2.6.4 1 .4.3 0 .6-.2.9-.4l15.6-11.7ZM197 55a4 4 0 0 1 1.6-3.3l14.8-11a4 4 0 0 1 4.7 0l14.7 11a4 4 0 0 1 1.6 3.2v16A4 4 0 0 1 233 74l-15.7 12.7a2.2 2.2 0 0 1-2.3.3l-.5-.4-15.8-12.3a3.6 3.6 0 0 1-1.4-2.9L197 55Z" fill="#1566A5"/><path d="M234.4 57.9v-3.6c-.3 0-.8-.1-3 1.6l-14.6 10.9c-.6.4-.7.9-.7 1.7v17.1c0 .4 0 1.2.9 1.2l2.2-1.7 7-5.4 7.4-5.5c.6-.4.8-1.5.8-2.3v-14Z" fill="#014282"/><path d="M197.2 57.6v-3.8c0-.6.9.2 3.1 1.9L215 66.6c.6.4.7.9.7 1.7V85.4c0 .3.2 1.5-.7 1.5-.4 0-1.7-1.2-2.6-1.9l-7-5.2-7.2-5.8c-.5-.5-.9-1.2-.9-2V57.5Z" fill="#0E578E"/><path d="M231.7 55.2c.6-.4 2-1.2 2-2 0-.7-.3-.8-1-1.2l-15.9-12.1c-.3-.2-.5-.4-.9-.4a2 2 0 0 0-1 .4l-16.2 12c-1 1-1 1-1 1.3 0 .3.3.5 2.4 2l15 11.1c.2.2.6.3.9.3.3 0 .6 0 .9-.3l14.8-11Z" fill="#1566A5"/><path d="M99 17.5c0-.6.3-1.2.8-1.6l13.6-10a2 2 0 0 1 2.3 0l13.5 10c.5.4.8 1 .8 1.6V32a2 2 0 0 1-.8 1.6l-13.5 10.8a1.8 1.8 0 0 1-1.8.3c-.2 0-.4-.2-.5-.3L100.1 34a2 2 0 0 1-.5-.7l-.2-.4a2 2 0 0 1-.2-.8L99 17.5Z" fill="#D22538"/><path d="M130 20.6v-3.3c-.3 0-.7.3-2.5 1.7l-12.1 9c-.5.3-.6.7-.6 1.4v14.2c0 .3 0 1 .7 1l1.9-1.5 5.8-4.4 6.1-4.6c.5-.3.7-1.2.7-1.9V20.6Z" fill="#B11F6A"/><path d="M99.1 20.4v-3.1c0-.5.8.1 2.7 1.5l12 9c.5.4.6.8.6 1.5v14.1c0 .3.2 1.2-.5 1.2-.4 0-1.5-1-2.2-1.5l-5.8-4.4-6-4.8c-.4-.3-.7-1-.7-1.7V20.4ZM127.8 18.4c.4-.3 1.6-1 1.6-1.7 0-.5-.3-.6-.8-1l-13.2-10c-.2-.1-.4-.3-.7-.3l-.9.3-13.4 10c-.8.7-.8.7-.8 1 0 .3.3.5 2 1.7l12.4 9.2c.2.2.5.3.7.3.3 0 .5-.1.8-.3l12.3-9.2ZM274 15.6c0-.6.3-1.2.8-1.6L292.5.9a2 2 0 0 1 2.4 0l17.6 13c.5.5.8 1 .8 1.7v19a2 2 0 0 1-.7 1.5l-17.4 14a2 2 0 0 1-.5.2h-.1a2 2 0 0 1-1.6.1h-.2a2 2 0 0 1-.5-.3l-17-13.4a2 2 0 0 1-.5-.7l-.4-.7a2 2 0 0 1-.2-.9l-.2-18.8Z" fill="#D22538"/><path d="M313.3 19.8v-4.2c-.3 0-.8.3-3.2 2.1l-15.3 11.5c-.6.4-.7 1-.7 1.8v17.9c0 .4 0 1.3.9 1.3l2.3-1.8 7.4-5.6 7.8-5.9c.6-.4.8-1.5.8-2.4V19.8Z" fill="#B11F6A"/><path d="M274.2 19.6v-4c0-.7 1 .1 3.3 2L293 29c.5.4.6.9.6 1.8v17.9c0 .4.3 1.6-.6 1.6-.5 0-1.9-1.3-2.8-2l-7.4-5.5-7.5-6.1c-.6-.4-1-1.3-1-2.1v-15ZM310.5 17c.6-.4 2-1.2 2-2.1 0-.7-.3-.8-.9-1.3L294.8 1l-.9-.3a2 2 0 0 0-1 .3l-17 12.7c-1.2 1-1.2 1-1.2 1.3 0 .3.4.5 2.6 2.1L293 28.7c.3.2.6.3 1 .3l.9-.3L310.5 17Z" fill="#D22538"/><rect x="482" y="52" width="181" height="56" rx="10" fill="#1566A5" fill-opacity=".1"/><path d="M509 84.8V87h-10.3v-1.7l5.6-5.3a6 6 0 0 0 1.2-1.6c.2-.4.4-.9.4-1.3 0-.7-.3-1.2-.7-1.5a3 3 0 0 0-2-.5 4 4 0 0 0-3.2 1.4l-1.8-1.4c.5-.7 1.2-1.3 2.2-1.7.9-.4 2-.6 3-.6 1.6 0 2.8.4 3.7 1 1 .8 1.4 1.8 1.4 3 0 .8-.2 1.5-.5 2.2-.3.6-1 1.4-1.8 2.2l-3.8 3.6h6.6Zm7.3 2.4c-1.1 0-2.1-.3-3-.8a5.8 5.8 0 0 1-2-2.5c-.6-1.1-.8-2.4-.8-3.9a9 9 0 0 1 .7-3.9c.5-1 1.2-1.9 2.1-2.4.9-.6 1.9-.9 3-.9s2.1.3 3 .9c.9.5 1.6 1.3 2.1 2.4a9 9 0 0 1 .8 3.9c0 1.5-.3 2.8-.8 3.9-.5 1-1.2 1.9-2.1 2.5-.9.5-1.9.8-3 .8Zm0-2.3c1 0 1.8-.4 2.4-1.2.5-.8.8-2 .8-3.7 0-1.6-.3-2.9-.8-3.7a2.7 2.7 0 0 0-2.4-1.2c-1 0-1.8.4-2.4 1.2-.5.8-.8 2-.8 3.7 0 1.6.3 2.9.8 3.7.6.8 1.4 1.2 2.4 1.2Zm23.6-8.6V87h-2.5v-8.6h-4v2.2l-.5 3.5a5 5 0 0 1-1 2.3c-.4.5-1 .8-1.8.8-.4 0-.9 0-1.4-.2l.1-2.1h.5c.5 0 .9-.2 1.1-.6.3-.4.4-.9.5-1.4l.2-2.5.2-4h8.6Zm13.4 5.4v.8h-8.4a3 3 0 0 0 1.1 1.8c.6.5 1.4.7 2.3.7 1.2 0 2.2-.4 3-1.1l1.3 1.5c-.5.6-1.1 1-1.8 1.3-.8.3-1.6.4-2.5.4-1.2 0-2.2-.2-3.1-.7a5.1 5.1 0 0 1-2.8-4.7c0-1 .2-2 .7-2.8a5 5 0 0 1 2-2c.8-.5 1.7-.7 2.8-.7 1 0 2 .2 2.8.7.8.5 1.4 1.1 1.9 2 .5.8.7 1.7.7 2.8Zm-5.4-3.5a3 3 0 0 0-3 2.6h6a3 3 0 0 0-1-1.9 3 3 0 0 0-2-.7Zm16.2.2h-3.7V87h-2.5v-8.6H554v-2h10v2Zm12.2 8.7c-1.1 0-2.1-.2-3-.7a5.2 5.2 0 0 1-2.8-4.7c0-1 .3-2 .8-2.9.5-.8 1.1-1.4 2-1.9.9-.5 1.9-.7 3-.7 1 0 2 .2 2.8.6.8.5 1.4 1 1.8 1.9l-2 1.1a3 3 0 0 0-1.1-1.1 3 3 0 0 0-1.5-.4 3.1 3.1 0 0 0-3.3 3.4c0 1 .3 1.8 1 2.4.6.6 1.3.9 2.3.9.5 0 1-.1 1.5-.4.4-.2.8-.6 1.1-1l2 1c-.5.8-1 1.5-1.9 1.9-.7.4-1.7.6-2.7.6Zm20-5.7c1.3.4 2 1.3 2 2.6 0 1-.4 1.7-1 2.2-.8.5-1.9.8-3.3.8h-5.4V76.3h5.2c1.3 0 2.3.3 3 .7.8.5 1.2 1.2 1.2 2 0 .6-.2 1.1-.5 1.5-.3.4-.7.7-1.2 1Zm-5.3-.6h2.6c1.3 0 2-.5 2-1.4 0-.8-.7-1.3-2-1.3H591v2.7Zm2.8 4.4c1.4 0 2-.5 2-1.4 0-.4 0-.8-.4-1-.3-.2-.8-.4-1.5-.4h-3v2.8h3Zm11.1-9c1.6 0 2.8.4 3.6 1.1.9.8 1.3 2 1.3 3.4V87h-2.4v-1.3a3 3 0 0 1-1.3 1c-.5.3-1.2.4-2 .4s-1.5 0-2.1-.4c-.6-.2-1-.6-1.4-1.1a3 3 0 0 1-.5-1.7c0-1 .4-1.7 1-2.3.8-.5 2-.8 3.4-.8h2.8v-.2c0-.7-.2-1.3-.7-1.7-.4-.4-1-.6-2-.6-.6 0-1.1 0-1.7.3-.6.1-1 .4-1.5.7l-1-1.8a6 6 0 0 1 2-1 9 9 0 0 1 2.5-.3Zm-.3 9.1c.6 0 1.2-.1 1.7-.4.5-.3.8-.7 1-1.2v-1.3h-2.6c-1.4 0-2.1.5-2.1 1.4 0 .5.1.9.5 1.1.4.3.9.4 1.5.4Zm18.8 1.7v-7l-3.6 5.9h-1l-3.6-6V87h-2.3V76.3h2.6l3.8 6.7 4-6.7h2.3V87h-2.2Zm5.6-10.7h2.5v7l6-7h2.2V87h-2.5v-7l-5.9 7H629V76.3Zm13.7-.7h2.9l-.4 7.2h-2l-.5-7.2Zm1.5 11.5c-.5 0-.9-.1-1.2-.4a1.4 1.4 0 0 1 0-2c.3-.3.7-.4 1.2-.4s.8.1 1.1.4c.3.3.5.6.5 1s-.2.7-.5 1c-.3.3-.7.4-1.1.4Z" fill="#1566A5"/></svg>