<svg width="188" height="44" fill="none" xmlns="http://www.w3.org/2000/svg"><path d="M51.5 36c-.5 2-1.8 3.8-3.7 5.1a11.8 11.8 0 0 1-6.7 2.1c-2.3 0-4.2-.8-5.4-2a5.3 5.3 0 0 1-1.2-5c.9-3 4-5.7 7.5-6.8l1.5-.4-1.4-.5c-2.8-1-4.3-3.5-3.6-6.5.9-3 4-5.8 7.6-6.8l1.4-.5-1.4-.5c-2.7-1-4.3-3.5-3.6-6.5 1-4 5.6-7.2 10.4-7.2 2.3 0 4.3.8 5.4 2a5 5 0 0 1 1.2 5c-.7 3.2-3.8 5.9-7.5 6.8l-1.6.4 1.5.6c2.9 1 4.3 3.6 3.6 6.5-.7 3.1-3.8 5.9-7.5 6.8l-1.6.4 1.5.5c1.5.6 2.6 1.5 3.2 2.6.6 1.1.8 2.5.4 3.9Z" fill="#fff" stroke="#004080"/><path fill-rule="evenodd" clip-rule="evenodd" d="M44.1.9H22L7.6 16.4h7.8L3.7 29.6h8L0 42.6h32.5c-2.6-1.4-4-3.8-3.2-6.8.8-3.2 4.1-6 8.1-7.1-3.2-1.1-5-3.8-4-7 .8-3.3 4.2-6.1 8.2-7.2-3.2-1-5-3.8-4-7C38.2 4.6 40.8 2 44 .9ZM53.4 44H181l4.6-16.7H58L53.4 44Z" fill="#004080"/><path fill-rule="evenodd" clip-rule="evenodd" d="M72.9 29.8 66 35.5l3.8 6H66.1L63 36l-1.6 5.6H58l3.3-11.7h3.4l-1.4 4.9 5.6-4.9h4Zm7.3-.3v2.3c-.8.1-1.3.4-1.8.8a7.7 7.7 0 0 0-1.8 3v1c0 1 .1 1.6.6 2.2.3.5 1 .7 2 .7h1v2.3l-1.3.1h-.1c-1.9 0-3.3-.4-4-1-1-.7-1.5-1.5-1.8-2.3l-.1-.8v-1.4l.1-.7c.3-1.6 1.3-3 2.7-4.3a7 7 0 0 1 4.5-1.9Zm14 3.9L92 41.5h-3.4L92 29.8h4.8l.8 7.8 5-7.8h5l-3.2 11.7h-3.4l2.3-8.1-5.3 8.1h-2.7l-1-8.1Zm-14 8.4v-2.3c.6 0 1.2-.4 1.5-.7l1.4-2 .5-1.2.1-1c0-.9-.1-1.5-.5-2-.4-.3-.7-.6-1.2-.7l-.5-.1-.6-.2c-.3.2-.6.2-.7.2v-2.3l1.2-.1h.1a7 7 0 0 1 4.2 1.2c1.1.8 1.7 2 1.6 3.7v.6c0 .2 0 .4-.2.6-.3 1.5-1 3.1-2.5 4.4a7 7 0 0 1-4.4 1.9Zm42.3-1.5-.3 1.2h.3v-1.2Zm0-10.5V31l-2.7 10.5h-3.4L119 32h-5l-2.6 9.5H108l3.3-11.7h11.3Zm0 1.2.5-1.2h-.5V31Zm0 10.5v-1.2l.4-1h.7c1.1 0 1.9-.4 2.4-1.2.4-.8.9-1.7 1.2-2.8l1.5-5.5h10.4l-3.4 11.7H132.3l2.6-9.5h-3.5l-1.3 4.1c0 .4-.1.7-.3 1-.1.5-.3 1-.6 1.4-.5.8-1 1.4-2 2.1-.8.7-2 1-3.6 1h-1.1Zm31-.8-.2.8h.2v-.8Zm0-10.9v.7L153 32h-7.4l-.8 2.4h6.7l-.6 2.2h-6.7l-.6 2.7h7.6l-.5 2.2H139.6l3.2-11.7h10.7Zm0 .7.2-.7h-.2v.7Zm0 11v-.8l3-10.9h3.5l-1.4 4.9 5.6-4.9h4l-6.8 5.7 3.9 6H161.4l-3.1-5.6-1.6 5.6H153.5ZM169 32l.6-2.2H181l-.6 2.2h-4l-2.6 9.5H170.4L173 32h-4Z" fill="#fff"/><path fill-rule="evenodd" clip-rule="evenodd" d="m74.6 6.8-1 3.2h1v4.5h-2.2l-1.6 5.8h.5l3.3-.2V25c-1.7.2-3.8.2-6.1.2H58l1.3-4.5h1.5c.5 0 .8-.1 1.1-.3.3-.1.5-.5.7-1L66 6.2c.2-.6.2-1 0-1.1-.1-.2-.4-.3-.9-.3h-1.6L65 .2h9.7v6.6Zm0 3.2h3.6a16 16 0 0 1 5.6.7c1.6.5 2.5 1.3 3.1 2.6.5 1 .5 2.4 0 4.2-.4 1.7-1 3-2.2 4-.9 1-2.1 1.8-3.7 2.4-1.6.5-4.5 1-6.3 1h-.1v-4.8h.6c.6 0 1.3-.4 1.7-.8.7-.4 1-1 1.1-1.8.3-1 .3-2-.1-2.4-.7-.5-1.4-.6-2.5-.6h-.8V10Zm16-9.8-2.3 8.1h-6.2l.6-3H75l-.3 1.5V.2h16ZM105.8 16.6V13h-2.6l2.6-3.8V.2h-6.3l-1.9 4.6h.8l3.1.1c.2 0 .2.2.2.5-.2 0-.4.5-.8 1C99.6 8 90.5 20.7 90.5 20.7h-3.4L86 25.2H100l1-4.6H98l2.2-4h5.7Zm0 8.6h-1.2l1.2-4v4Zm14.9-25-1 4.3H116l1.8 14c.1.9.1 1.4.3 1.7 0 .3.4.4 1.2.4h.6l-1 4.6h-13v-4.6l3.3-.2v-3.8h-3.4V13h2.8V5.5l-.1-.1-2.7 3.7V.2h14.9ZM159.6.2l-1.7 4.9h-3.2l-4.2 15.5h3l-1.3 4.5h-14.9l1.4-4.5h3L146 5h-7c-.6 1.9-1.2 5-2.3 8l-2 5.1c-1.3 3-3.3 5.3-6.2 6.5-2 .9-5 .8-8.5.8l1.3-5c1 .2 2.8.2 3.5 0 2-.4 3-1.7 4.1-5.2 1.4-4 2.4-8.3 3-10.2h-3.4l1.7-4.9h29.4ZM161 .2h27l-2.6 10h-6l1.5-5.4h-3.4l-4.7 15.8h4l-1.3 4.6h-16.9l1.4-4.6 4.3-.1L169 4.7l-3.4.1-1.7 5.5h-6l3.2-10Z" fill="#004080"/></svg>