<svg width="8" height="12" viewBox="0 0 8 12" fill="none" xmlns="http://www.w3.org/2000/svg">
<path fill-rule="evenodd" clip-rule="evenodd" d="M6.99432 7.005L2.40132 11.598C2.30974 11.6915 2.20053 11.7658 2.08003 11.8168C1.95952 11.8678 1.8301 11.8944 1.69925 11.8951C1.5684 11.8957 1.43872 11.8704 1.31771 11.8207C1.19669 11.7709 1.08674 11.6976 0.994216 11.6051C0.901691 11.5126 0.828426 11.4026 0.778657 11.2816C0.728888 11.1606 0.703604 11.0309 0.704265 10.9001C0.704926 10.7692 0.731519 10.6398 0.782508 10.5193C0.833497 10.3988 0.907868 10.2896 1.00132 10.198L4.90132 6.298L1.00132 2.398C0.81876 2.21171 0.71709 1.9609 0.718408 1.70007C0.719725 1.43924 0.823923 1.18947 1.00836 1.00504C1.1928 0.820601 1.44257 0.716402 1.70339 0.715085C1.96422 0.713768 2.21503 0.815437 2.40132 0.998001L6.99432 5.59C7.18179 5.77753 7.28711 6.03184 7.28711 6.297C7.28711 6.56217 7.18179 6.81647 6.99432 7.004L6.99432 7.005Z" fill="#333333"/>
</svg>
