<svg width="8" height="12" viewBox="0 0 8 12" fill="none" xmlns="http://www.w3.org/2000/svg">
<path fill-rule="evenodd" clip-rule="evenodd" d="M1.0047 4.99501L5.5977 0.402006C5.68929 0.308551 5.79849 0.234179 5.919 0.183191C6.0395 0.132202 6.16892 0.105608 6.29977 0.104947C6.43062 0.104286 6.5603 0.129571 6.68132 0.17934C6.80233 0.229109 6.91228 0.302374 7.00481 0.394899C7.09733 0.487424 7.1706 0.597373 7.22037 0.718389C7.27014 0.839405 7.29542 0.969086 7.29476 1.09993C7.2941 1.23078 7.2675 1.3602 7.21652 1.48071C7.16553 1.60122 7.09116 1.71042 6.9977 1.80201L3.0977 5.70201L6.9977 9.60201C7.18026 9.7883 7.28193 10.0391 7.28062 10.2999C7.2793 10.5608 7.1751 10.8105 6.99067 10.995C6.80623 11.1794 6.55646 11.2836 6.29563 11.2849C6.0348 11.2862 5.78399 11.1846 5.5977 11.002L1.0047 6.41001C0.81723 6.22248 0.711914 5.96817 0.711914 5.70301C0.711914 5.43784 0.81723 5.18353 1.0047 4.99601V4.99501Z" fill="#333333"/>
</svg>
