<svg width="3102" height="3686" viewBox="0 0 3102 3686" fill="none" xmlns="http://www.w3.org/2000/svg">
<g clip-path="url(#clip0_568_2180)">
<path fill-rule="evenodd" clip-rule="evenodd" d="M2576.38 1867.15C2714.24 1889.68 2846.53 1946.98 2936.26 1998.67C3024.36 2049.43 3054.69 2100.2 3057.68 2144.43C3060.47 2185.78 3016.14 2215.42 2952.44 2238.12C2889.04 2260.71 2820.61 2290.17 2696.22 2273.22C2572.42 2256.36 2482.34 2192.11 2360.54 2157.48C2250.42 2126.16 2114.18 2124.16 2027.86 2083.15C1941.67 2042.21 1959.97 2001.97 1953.98 1964.34C1948.35 1928.91 1930.06 1887.36 1994.36 1872.63C2056.87 1858.32 2188.17 1891.49 2275.59 1890.67C2389.49 1889.59 2441.43 1845.09 2576.38 1867.15Z" fill="#EEF6FE"/>
<path opacity="0.05" fill-rule="evenodd" clip-rule="evenodd" d="M1189.89 1933.84C1271.26 1924.57 1381.31 1923.9 1451.77 1949.76C1523.86 1976.23 1481.95 2022.68 1525.76 2057.14C1570.12 2092.04 1723.82 2114.37 1705.4 2149.27C1685.28 2187.38 1528.55 2174.04 1452.6 2195.72C1405.65 2209.12 1399.87 2238.1 1350.99 2250.45C1297.92 2263.86 1232.21 2267.54 1165.79 2268.2C1088.11 2268.97 981.078 2282.52 933.172 2254.58C876.093 2221.28 972.453 2197.21 928.079 2161.42C883.956 2125.83 755.5 2113.82 714.067 2077.84C677.555 2046.13 708.407 2003.64 773.342 1987.33C843.368 1969.74 954.557 2007.59 1034.85 1997.28C1108.2 1987.86 1115.52 1942.32 1189.89 1933.84Z" fill="#D22538"/>
<path opacity="0.05" fill-rule="evenodd" clip-rule="evenodd" d="M3005.17 2602.39C3120.42 2692.79 3085.69 2778.73 3070.19 2858.25C3055 2936.16 3042.33 3021 2918.84 3045.08C2793.12 3069.59 2610.59 3033.88 2442.7 2980.6C2284.62 2930.44 2145.82 2853.41 2043.78 2767.39C1943.3 2682.69 1894.98 2596.41 1895.14 2519C1895.3 2434.08 1908.29 2340.4 2044.66 2322.62C2178.35 2305.2 2363.49 2386.97 2531.84 2436C2698.7 2484.6 2891.57 2513.29 3005.17 2602.39Z" fill="#D22538"/>
<path fill-rule="evenodd" clip-rule="evenodd" d="M26.9414 3095.14C52.5216 2936.07 236.69 2801.13 388.692 2674.38C537.608 2550.21 695.475 2414.55 873.099 2389.58C1053.93 2364.15 1195.6 2442.44 1291.27 2547.47C1381.34 2646.35 1404.51 2786.47 1371.71 2936.97C1339.42 3085.17 1246.68 3230.02 1115.27 3355.09C971.117 3492.27 797.901 3642.18 616.698 3655.52C439.046 3668.6 372.58 3515.59 269.209 3417.37C166.759 3320.02 1.72951 3251.91 26.9414 3095.14Z" fill="#EEF6FE"/>
<mask id="mask0_568_2180" style="mask-type:alpha" maskUnits="userSpaceOnUse" x="410" y="0" width="2220" height="1547">
<path d="M410 0H2630V1547H410V0Z" fill="white"/>
</mask>
<g mask="url(#mask0_568_2180)">
<path opacity="0.05" fill-rule="evenodd" clip-rule="evenodd" d="M711.558 527.176C795.778 423.216 936.141 369.834 1055.08 291.586C1182.13 208.002 1265.95 74.2344 1434.47 51.5838C1610.28 27.9528 1795.26 102.982 1969.26 168.711C2160.18 240.836 2420.34 291.914 2489.88 450.279C2563.07 616.943 2290.17 730.779 2290.4 899.989C2290.63 1070.07 2575.74 1248.04 2491.17 1395.07C2411.01 1534.43 2138.33 1505.06 1939.08 1510.76C1776.59 1515.41 1618.47 1466.44 1456.49 1424.66C1301.63 1384.72 1153.6 1342.85 1012.48 1271.77C831.102 1180.4 584.17 1112.69 519.505 952.684C455.252 793.696 608.743 654.087 711.558 527.176Z" fill="#D22538"/>
</g>
</g>
<defs>
<clipPath id="clip0_568_2180">
<rect width="3102" height="3686" fill="white"/>
</clipPath>
</defs>
</svg>
