<svg width="1920" height="1181" fill="none" xmlns="http://www.w3.org/2000/svg"><g clip-path="url(#a)"><path d="M35 863c-24 16-46 26-64 34a987 987 0 0 1-502 61c-77-10-225-29-332-111-163-122-137-316-12-443 23-24 145-153 392-174 149-12 324 13 450 81 265 143 246 431 68 552M1833 897c-26 8-204 11-223 14a862 862 0 0 1-424-37c-73-27-185-64-272-158a263 263 0 0 1 65-420c169-74 455-66 631 111 122 122 348-23 456 65 227 185-35 363-233 425Z" fill="#1566A5" opacity=".1"/><g opacity=".3" fill="#004080"><path d="M1261 243c-15-8-18-8-16-11 1-2 3-1 3-1l15 8c1 1 2 2 1 3s-2 2-3 1Zm-58-26c0-1 1-2 2-1l17 5c3 1 1 5-2 4l-16-5c-1 0-2-2-1-3Zm94 52c-13-11-16-11-14-14h4l13 10c2 2-1 6-3 4Zm-139-58c0-1 1-2 3-2l17 2c3 0 2 4-1 4l-17-1c-1 0-2-1-2-3Zm-43 5-1-2c0-1 0-2 2-2l17-2 2 2-2 2a221 221 0 0 0-18 2Zm-43 11-1-1 1-3 16-5 3 1c1 2 0 3-1 3a214 214 0 0 0-18 5Zm-40 19v-3l15-8c3-2 5 2 2 4l-14 8c-1 1-3 0-3-1Zm-34 28-1-3 13-11c2-2 5 1 3 3l-12 11h-3Zm-29 31 10-14c2-2 5 1 4 3l-10 14c-2 2-5 0-4-3Zm-20 39 7-15c1-3 5-1 4 2l-7 15c0 1-2 2-3 1-1 0-2-1-1-3Zm-12 43 3-16c1-2 2-2 3-2 3 1 1 3-2 19l-2 2-2-3ZM1322 295c-5-6-8-8-5-10h3c5 6 8 9 5 10h-3M1370 458l-1-2 1-9 2-2c1 0 2 1 2 3l-1 8c0 2-1 2-2 2h-1M1359 504l-1-3 5-17c1-1 2-2 3-1l2 2-6 18a2 2 0 0 1-3 1Zm-21 42c-3-2 0-3 8-18 2-3 6-1 4 2l-9 15c-1 1-2 2-3 1Zm-30 36c-3-2 0-2 12-16 2-2 5 1 3 3l-12 13h-3Zm-37 30-1-1v-3l15-10h3v3a216 216 0 0 1-17 11Zm-43 20-2-2 2-2 17-7 2 1c1 1 0 3-1 3a222 222 0 0 1-18 7Zm-47 10-1-2c-1-1 0-2 1-2l18-3c2 0 3 1 3 2s0 2-2 2a222 222 0 0 1-19 3Zm-48 0c-1 0-2-1-1-2l2-2 18 1 2 2c0 2-1 2-2 2a225 225 0 0 1-19-1Zm-116-48-14-12v-4c2-2 3 1 17 12v3c-1 1-2 2-3 1Zm68 35c1-3 2-1 20 4l2 2-3 2-18-5c-1-1-2-2-1-3Zm-27-9-16-9c-1-1-2-2-1-3 2-3 3 0 19 8 1 1 2 2 1 3-1 2-3 1-3 1M983 559c-5-6-8-8-5-10 2-2 3 1 8 8v3l-3-1M1159 395c-16-3-32 8-34 25-3 17 9 32 26 34 17 3 32-8 34-25 3-16-9-32-26-34Zm-9 63h1-1Zm-32-39c3-20 22-34 42-31s35 22 32 42-22 34-42 31-35-22-32-42"/><path d="M1117 509c-6-2-10-5-15-8a3 3 0 0 1-1-4c1-2 3-2 5-1 5 4 11 7 17 9a88 88 0 0 0 115-47c19-44-4-96-49-114-45-19-97 2-116 46-11 27-4 46-5 48-2 3-6 3-7-1-2-17 0-36 8-53 34-74 142-71 175 5a92 92 0 0 1-51 123 96 96 0 0 1-76-3M1400 270a11 11 0 1 0 23 1 11 11 0 0 0-23-1Zm10 14Zm-15-15a16 16 0 1 1 32 3 16 16 0 0 1-32-3ZM1330 295l-2-7 1-2c3 0 2 2 4 8l-1 2-2-1ZM1419 187l2-1c4 1 9 1 13 3 2 0 1 3-1 3l-12-3-2-2Zm-33 5-1-1 1-2 13-3 2 2-1 1-13 3h-1Zm-30 17v-3l11-8a2 2 0 1 1 1 3l-10 7-2 1Zm-20 26c-1 0-2-1-1-2l7-11c1-2 3 0 2 2l-6 11h-2Zm-10 32 2-13c0-2 4-2 3 0-2 12 0 15-3 15l-2-2M1458 203c-5-3-7-4-6-6h2l6 3v3h-2M1492 260c0-6-1-8 1-8l2 1 1 7a2 2 0 0 1-4 0ZM1490 293c3-12 2-14 4-14l2 2-3 13a2 2 0 0 1-3-1Zm-15 31c-2-2 1-2 7-12 1-2 4-1 3 1l-8 11h-2Zm-26 21c-1-2 2-2 11-9 2-1 4 1 2 3l-11 7-2-1Zm-32 9 1-2c12-1 14-3 14-1 1 1 0 2-1 2l-13 2-1-1Zm-33-5c0-2 2 0 14 2 2 0 1 4-1 3l-12-3c-1 0-2-1-1-2M1365 342l-5-4v-2c1-2 2 0 7 3l1 3h-3Z"/><path d="M1392 305a2 2 0 1 1 2-4l7 3s13 5 27-2a35 35 0 1 0-48-46c-8 16 1 24-4 25-2 0-3 0-3-2a40 40 0 0 1 51-47 40 40 0 1 1-32 73ZM935 425l-1-2v-9l2-2c3 1 2 3 2 11 0 2-1 2-2 2h-1Z"/></g><path d="m1056 702-2 1c-1 2-3 7-6 9h-1v-2c2-2-1-4-1-4l-2 4c-1 1-2 3-1 6 2 8 6 19-7 26-12 8-29-14-29-14l8 27s14 10 29-4 5-34 5-34 12-5 7-15" fill="url(#b)"/><path d="M1005 688s3-16-15-12c0 0-9-2-9 7 0 0-6 4-2 11 0 0-17-7-24 8-8 15-1 23 6 25 0 0-6 3-3 10 3 6 17 11 25 3 0 0 23 3 23-13 0 0 11-7-1-21-11-14 0-18 0-18" fill="#161F26"/><path d="M1006 725c-4-2-15-4-25 6-2 1-2 4-2 6 3 10 10 40 4 53 0 0 11 12 23 2 0 0 6-24 13-34 5-7-8-27-11-32l-2-1" fill="#D22538"/><path d="M995 705s-5 15-5 22c0 0 6 2 11-2l2-18-8-2Z" fill="url(#c)"/><path d="M1003 684s14 20 6 25c-9 6-19-8-19-8s-3-11 0-15c4-3 13-2 13-2" fill="url(#d)"/><path d="M996 679s7 1 8 4-9 6-12 6l-3 12s-6-11-4-18c3-6 11-4 11-4" fill="#161F26"/><path d="M993 700s-6-7-8-3 5 8 8 6v-3" fill="url(#e)"/><path d="m1020 842 3 14c1 2 0 4-1 6l-35 60-1 2c-1 3-2 10-1 16l1 4-8-2-1-22 2-1 4-5 14-37c2-12 14-21 14-21l-2-5 11-9" fill="url(#f)"/><path d="M970 935s4-7 4-10c1-3 2-7 5-6l1 18c-1 5 5 5 5 5l3 1c1 1 1 3-1 3l-8-1-2-2-1-15-6 7Z" fill="#161F26"/><path d="m999 851-1 62c-1 7 1 24 8 29l-3 3-8-10-6-10 1-3 1-4-9-40c-1-7-2-16 5-24 6-7 12-3 12-3" fill="url(#g)"/><path d="m992 947-3-11c-1-2-4-11 0-12l13 18c2 2 4 0 4 0l4 3c1 1 0 2-1 2h-7c-2 0-4-1-5-3-1-3-3-8-6-10l1 13M1008 786s-2 5 1 14l15 53-1 2c-5 2-20 6-40 5l-2-2-7-31c-4-16-8-34 10-44 8 3 16 5 24 3" fill="#161F26"/><path d="M980 733s-18 14-22 34 25 22 25 22 4-5 9-3c5 1 1-8-5-8s-3 4-11 1c-8-4-12-14 7-31l3-3c4-10 1-16-6-12" fill="url(#h)"/><path d="M809 866a680 680 0 0 0-6 75l2-2 11-71-7-2ZM858 866a680 680 0 0 1 6 75l-2-2-11-71 7-2" fill="#161F26"/><path d="M800 862c0 4 3 8 8 8l51 1c4 0 8-3 8-7v-1c0-4-3-7-8-7l-51-1c-4 0-8 3-8 7" fill="#004080"/><path d="m889 933-14-1c0 1 1 2 3 2h31l1-1h-21Z" fill="#161F26"/><path d="M910 933v-1c-2-3-7-8-13-8-10 1-13 2-20 0l-2 6v2l14 1h21" fill="#161F26"/><path d="m879 918-2 7s4 3 8 1l1-6-7-2Z" fill="url(#i)"/><path d="m943 929-12 8h4l24-20v-2l-16 14" fill="#161F26"/><path d="M959 915c-4-1-11-2-16 2l-15 13 2 5 1 2 12-8 16-14ZM833 836s53 4 63 9c11 5-8 76-8 76s-3 2-10 0c0 0 7-53 2-64l-57-9 10-12Z" fill="#161F26"/><path d="m922 920 6 10s5-1 6-5l-5-8-7 3" fill="url(#j)"/><path d="m802 835-2 10c0 8 6 14 14 14l62 3 2 2c2 6 9 23 44 58h3l5-3 1-2-36-61c-2-3-5-6-9-7l-53-13-31-1" fill="#161F26"/><path d="M863 739s-7 12-14 18l14 7s3-12 11-16l-11-9Z" fill="url(#k)"/><path d="M800 836s17 4 33 0c0 0 23-30 31-38 0 0 14 21 45 24l1-3s-24-12-32-29c-7-17-10-25-17-29l-8-6h-3c-7 4-41 28-50 81" fill="#D22538"/><path d="M863 797h-1c-5-7-8-15-8-15a1 1 0 0 1 2-1s3 8 8 14a1 1 0 0 1-1 2" fill="#fff"/><path d="m907 817 3-1 11-3 3 1 10 6h-25l-2-3Z" fill="url(#l)"/><path d="M873 721s7 11 8 17 3 10-4 12-13-1-17-6c0 0-6-9-6-13 1-4 19-10 19-10" fill="url(#m)"/><path d="M862 739h1s-5-7-2-9c3-1 15-5 17-10s-1-10-4-11h-1v1h-2c0 1-2 4-8 5-9 3-14 7-13 13l-1 1c0-1-2-1-3 1-2 2 0 7 6 11-1 1-2 3 1 4 4 2 6 1 7 1l1-1-1-5v-1h2" fill="#161F26"/><path d="M862 740s-3-7-6-4c-3 2 3 8 6 8v-4Z" fill="url(#n)"/><path d="M907 823h54a2 2 0 1 0 0-5h-54a2 2 0 0 0 0 5" fill="#004080"/><path d="M982 770v1l-23 48a2 2 0 1 0 5 2l22-48a2 2 0 0 0-4-3" fill="#004080"/><path d="m1118 926 1 7c0 2-1 3-3 3-5 1-19 2-27 1-1-1-2-2-1-3 4-3 12-9 26-11l4 3Z" fill="#161F26"/><path d="m1121 918-3 7-2 2-3-1-2-3 2-8 8 3" fill="url(#o)"/><path d="M1171 931s-6 5-8 12c-1 1 1 3 2 3h12c2 0 3-2 3-3-1-5-3-12-9-12Z" fill="#161F26"/><path d="m1178 925-2 9h-6l-1-1v-9l9 1" fill="url(#p)"/><path d="m1147 808-35 108s6 4 10 4l42-87s7 54 4 92l12 1s19-98 4-132l-37 14Z" fill="#161F26"/><path d="m1164 832-1-11h-1l1 11h1" fill="#161F26"/><path d="M1140 712s29 3 25 23c0 0 16 30 23 66 1 1 0 2-1 2l-48 8c-1 0-3 0-3-2l-11-44-5 21-14-4 12-60s2-9 22-10" fill="#004080"/><path d="M1124 763h1l-4-19h-1v1l4 18Z" fill="#11569A"/><path d="m1127 818 5-1 3 1 2-1 3-31c5 2 11 2 13 2l-8 36h-28l10-6" fill="url(#q)"/><path d="m1053 751 1-3 3-3 16-6s0-2-4-4c-3-1-2-5-2-5l11 6c4 2 7 5 8 8l34 42-4 2c-5 4-13 2-16-3l-18-36c-10 3-19 3-29 2Z" fill="url(#r)"/><path d="m1131 693 9 25s-8 6-14 4l-4-15s3-17 9-14Z" fill="url(#s)"/><path d="m1105 684 8 24 14-5-5-24s-17-1-17 5Z" fill="url(#t)"/><path d="m1120 685 3 12v1c0 1 0 4-4 4h-8v2l4 11 3 1 11-7 1-2-3-15c0-3 3-5 4-6l1-1c1-1 1-5-4-6l-1-2c0-2 0-5-4-6-3-1-6 1-7 3l-2 1h-4c-2-2-4-4-7-3-6 2-6 9-4 13 3 4 9 1 12-1s6-1 8 0l1 1" fill="#161F26"/><path d="M1129 696s-4-7-2-9c3-2 7-2 7 4s-5 5-5 5" fill="url(#u)"/><path d="M1150 788h4l10-49-11 48c-1 1-9 1-14-2l9-42-2-4 1 4-9 42c4 3 9 3 12 3" fill="#11569A"/><path d="M860 940h-1l-1-3 36-108c1-1 2-2 3-1l1 3-37 108-1 1Z" fill="#505050"/><path d="m901 940-2-1-36-108v-3c1-1 2 0 3 1l36 108c1 1 0 3-1 3ZM1107 940h-1l-1-3 37-108c0-1 1-2 2-1l1 3-37 108-1 1" fill="#505050"/><path d="m1148 940-2-1-36-108c-1-1 0-3 1-3 1-1 2 0 2 1l36 108c1 1 0 3-1 3" fill="#505050"/><path d="m1161 823-1-2-2-1H854l-3 1v3l3 5 4 1h297c2 0 4 0 4-2l2-5" fill="#505050"/><path d="M1069 697s-64-32-43-55c21-24 60-14 62 10 2 25-45 19-19 45Z" fill="#1566A5"/><path d="M1031 648h30l-1-1h-28l-1 1ZM1068 648h9v-1h-9a1 1 0 1 0 0 1ZM1030 653l1 1h10a1 1 0 1 0 0-1h-11ZM1056 653l1 1h19a1 1 0 1 0 0-1h-20ZM1030 660h28a1 1 0 1 0 0-2h-28l-1 1 1 1ZM1065 660h10l1-1-1-1h-10a1 1 0 1 0 0 2Z" fill="#fff"/><path d="M35 863c-24 16-46 26-64 34a987 987 0 0 1-502 61c-77-10-225-29-332-111-163-122-137-316-12-443 23-24 145-153 392-174 149-12 324 13 450 81 265 143 246 431 68 552M1833 897c-26 8-204 11-223 14a862 862 0 0 1-424-37c-73-27-185-64-272-158a263 263 0 0 1 65-420c169-74 455-66 631 111 122 122 348-23 456 65 227 185-35 363-233 425Z" fill="#1566A5" opacity=".1"/><g opacity=".3" fill="#004080"><path d="M1261 243c-15-8-18-8-16-11 1-2 3-1 3-1l15 8c1 1 2 2 1 3s-2 2-3 1Zm-58-26c0-1 1-2 2-1l17 5c3 1 1 5-2 4l-16-5c-1 0-2-2-1-3Zm94 52c-13-11-16-11-14-14h4l13 10c2 2-1 6-3 4Zm-139-58c0-1 1-2 3-2l17 2c3 0 2 4-1 4l-17-1c-1 0-2-1-2-3Zm-43 5-1-2c0-1 0-2 2-2l17-2 2 2-2 2a221 221 0 0 0-18 2Zm-43 11-1-1 1-3 16-5 3 1c1 2 0 3-1 3a214 214 0 0 0-18 5Zm-40 19v-3l15-8c3-2 5 2 2 4l-14 8c-1 1-3 0-3-1Zm-34 28-1-3 13-11c2-2 5 1 3 3l-12 11h-3Zm-29 31 10-14c2-2 5 1 4 3l-10 14c-2 2-5 0-4-3Zm-20 39 7-15c1-3 5-1 4 2l-7 15c0 1-2 2-3 1-1 0-2-1-1-3Zm-12 43 3-16c1-2 2-2 3-2 3 1 1 3-2 19l-2 2-2-3ZM1322 295c-5-6-8-8-5-10h3c5 6 8 9 5 10h-3M1370 458l-1-2 1-9 2-2c1 0 2 1 2 3l-1 8c0 2-1 2-2 2h-1M1359 504l-1-3 5-17c1-1 2-2 3-1l2 2-6 18a2 2 0 0 1-3 1Zm-21 42c-3-2 0-3 8-18 2-3 6-1 4 2l-9 15c-1 1-2 2-3 1Zm-30 36c-3-2 0-2 12-16 2-2 5 1 3 3l-12 13h-3Zm-37 30-1-1v-3l15-10h3v3a216 216 0 0 1-17 11Zm-43 20-2-2 2-2 17-7 2 1c1 1 0 3-1 3a222 222 0 0 1-18 7Zm-47 10-1-2c-1-1 0-2 1-2l18-3c2 0 3 1 3 2s0 2-2 2a222 222 0 0 1-19 3Zm-48 0c-1 0-2-1-1-2l2-2 18 1 2 2c0 2-1 2-2 2a225 225 0 0 1-19-1Zm-116-48-14-12v-4c2-2 3 1 17 12v3c-1 1-2 2-3 1Zm68 35c1-3 2-1 20 4l2 2-3 2-18-5c-1-1-2-2-1-3Zm-27-9-16-9c-1-1-2-2-1-3 2-3 3 0 19 8 1 1 2 2 1 3-1 2-3 1-3 1M983 559c-5-6-8-8-5-10 2-2 3 1 8 8v3l-3-1M1159 395c-16-3-32 8-34 25-3 17 9 32 26 34 17 3 32-8 34-25 3-16-9-32-26-34Zm-9 63h1-1Zm-32-39c3-20 22-34 42-31s35 22 32 42-22 34-42 31-35-22-32-42"/><path d="M1117 509c-6-2-10-5-15-8a3 3 0 0 1-1-4c1-2 3-2 5-1 5 4 11 7 17 9a88 88 0 0 0 115-47c19-44-4-96-49-114-45-19-97 2-116 46-11 27-4 46-5 48-2 3-6 3-7-1-2-17 0-36 8-53 34-74 142-71 175 5a92 92 0 0 1-51 123 96 96 0 0 1-76-3M1400 270a11 11 0 1 0 23 1 11 11 0 0 0-23-1Zm10 14Zm-15-15a16 16 0 1 1 32 3 16 16 0 0 1-32-3ZM1330 295l-2-7 1-2c3 0 2 2 4 8l-1 2-2-1ZM1419 187l2-1c4 1 9 1 13 3 2 0 1 3-1 3l-12-3-2-2Zm-33 5-1-1 1-2 13-3 2 2-1 1-13 3h-1Zm-30 17v-3l11-8a2 2 0 1 1 1 3l-10 7-2 1Zm-20 26c-1 0-2-1-1-2l7-11c1-2 3 0 2 2l-6 11h-2Zm-10 32 2-13c0-2 4-2 3 0-2 12 0 15-3 15l-2-2M1458 203c-5-3-7-4-6-6h2l6 3v3h-2M1492 260c0-6-1-8 1-8l2 1 1 7a2 2 0 0 1-4 0ZM1490 293c3-12 2-14 4-14l2 2-3 13a2 2 0 0 1-3-1Zm-15 31c-2-2 1-2 7-12 1-2 4-1 3 1l-8 11h-2Zm-26 21c-1-2 2-2 11-9 2-1 4 1 2 3l-11 7-2-1Zm-32 9 1-2c12-1 14-3 14-1 1 1 0 2-1 2l-13 2-1-1Zm-33-5c0-2 2 0 14 2 2 0 1 4-1 3l-12-3c-1 0-2-1-1-2M1365 342l-5-4v-2c1-2 2 0 7 3l1 3h-3Z"/><path d="M1392 305a2 2 0 1 1 2-4l7 3s13 5 27-2a35 35 0 1 0-48-46c-8 16 1 24-4 25-2 0-3 0-3-2a40 40 0 0 1 51-47 40 40 0 1 1-32 73ZM935 425l-1-2v-9l2-2c3 1 2 3 2 11 0 2-1 2-2 2h-1Z"/></g><path d="m1056 702-2 1c-1 2-3 7-6 9h-1v-2c2-2-1-4-1-4l-2 4c-1 1-2 3-1 6 2 8 6 19-7 26-12 8-29-14-29-14l8 27s14 10 29-4 5-34 5-34 12-5 7-15" fill="url(#v)"/><path d="M1005 688s3-16-15-12c0 0-9-2-9 7 0 0-6 4-2 11 0 0-17-7-24 8-8 15-1 23 6 25 0 0-6 3-3 10 3 6 17 11 25 3 0 0 23 3 23-13 0 0 11-7-1-21-11-14 0-18 0-18" fill="#161F26"/><path d="M1006 725c-4-2-15-4-25 6-2 1-2 4-2 6 3 10 10 40 4 53 0 0 11 12 23 2 0 0 6-24 13-34 5-7-8-27-11-32l-2-1" fill="#D22538"/><path d="M995 705s-5 15-5 22c0 0 6 2 11-2l2-18-8-2Z" fill="url(#w)"/><path d="M1003 684s14 20 6 25c-9 6-19-8-19-8s-3-11 0-15c4-3 13-2 13-2" fill="url(#x)"/><path d="M996 679s7 1 8 4-9 6-12 6l-3 12s-6-11-4-18c3-6 11-4 11-4" fill="#161F26"/><path d="M993 700s-6-7-8-3 5 8 8 6v-3" fill="url(#y)"/><path d="m1020 842 3 14c1 2 0 4-1 6l-35 60-1 2c-1 3-2 10-1 16l1 4-8-2-1-22 2-1 4-5 14-37c2-12 14-21 14-21l-2-5 11-9" fill="url(#z)"/><path d="M970 935s4-7 4-10c1-3 2-7 5-6l1 18c-1 5 5 5 5 5l3 1c1 1 1 3-1 3l-8-1-2-2-1-15-6 7Z" fill="#161F26"/><path d="m999 851-1 62c-1 7 1 24 8 29l-3 3-8-10-6-10 1-3 1-4-9-40c-1-7-2-16 5-24 6-7 12-3 12-3" fill="url(#A)"/><path d="m992 947-3-11c-1-2-4-11 0-12l13 18c2 2 4 0 4 0l4 3c1 1 0 2-1 2h-7c-2 0-4-1-5-3-1-3-3-8-6-10l1 13M1008 786s-2 5 1 14l15 53-1 2c-5 2-20 6-40 5l-2-2-7-31c-4-16-8-34 10-44 8 3 16 5 24 3" fill="#161F26"/><path d="M980 733s-18 14-22 34 25 22 25 22 4-5 9-3c5 1 1-8-5-8s-3 4-11 1c-8-4-12-14 7-31l3-3c4-10 1-16-6-12" fill="url(#B)"/><path d="M809 866a680 680 0 0 0-6 75l2-2 11-71-7-2ZM858 866a680 680 0 0 1 6 75l-2-2-11-71 7-2" fill="#161F26"/><path d="M800 862c0 4 3 8 8 8l51 1c4 0 8-3 8-7v-1c0-4-3-7-8-7l-51-1c-4 0-8 3-8 7" fill="#004080"/><path d="m889 933-14-1c0 1 1 2 3 2h31l1-1h-21Z" fill="#161F26"/><path d="M910 933v-1c-2-3-7-8-13-8-10 1-13 2-20 0l-2 6v2l14 1h21" fill="#161F26"/><path d="m879 918-2 7s4 3 8 1l1-6-7-2Z" fill="url(#C)"/><path d="m943 929-12 8h4l24-20v-2l-16 14" fill="#161F26"/><path d="M959 915c-4-1-11-2-16 2l-15 13 2 5 1 2 12-8 16-14ZM833 836s53 4 63 9c11 5-8 76-8 76s-3 2-10 0c0 0 7-53 2-64l-57-9 10-12Z" fill="#161F26"/><path d="m922 920 6 10s5-1 6-5l-5-8-7 3" fill="url(#D)"/><path d="m802 835-2 10c0 8 6 14 14 14l62 3 2 2c2 6 9 23 44 58h3l5-3 1-2-36-61c-2-3-5-6-9-7l-53-13-31-1" fill="#161F26"/><path d="M863 739s-7 12-14 18l14 7s3-12 11-16l-11-9Z" fill="url(#E)"/><path d="M800 836s17 4 33 0c0 0 23-30 31-38 0 0 14 21 45 24l1-3s-24-12-32-29c-7-17-10-25-17-29l-8-6h-3c-7 4-41 28-50 81" fill="#D22538"/><path d="M863 797h-1c-5-7-8-15-8-15a1 1 0 0 1 2-1s3 8 8 14a1 1 0 0 1-1 2" fill="#fff"/><path d="m907 817 3-1 11-3 3 1 10 6h-25l-2-3Z" fill="url(#F)"/><path d="M873 721s7 11 8 17 3 10-4 12-13-1-17-6c0 0-6-9-6-13 1-4 19-10 19-10" fill="url(#G)"/><path d="M862 739h1s-5-7-2-9c3-1 15-5 17-10s-1-10-4-11h-1v1h-2c0 1-2 4-8 5-9 3-14 7-13 13l-1 1c0-1-2-1-3 1-2 2 0 7 6 11-1 1-2 3 1 4 4 2 6 1 7 1l1-1-1-5v-1h2" fill="#161F26"/><path d="M862 740s-3-7-6-4c-3 2 3 8 6 8v-4Z" fill="url(#H)"/><path d="M907 823h54a2 2 0 1 0 0-5h-54a2 2 0 0 0 0 5" fill="#004080"/><path d="M982 770v1l-23 48a2 2 0 1 0 5 2l22-48a2 2 0 0 0-4-3" fill="#004080"/><path d="m1118 926 1 7c0 2-1 3-3 3-5 1-19 2-27 1-1-1-2-2-1-3 4-3 12-9 26-11l4 3Z" fill="#161F26"/><path d="m1121 918-3 7-2 2-3-1-2-3 2-8 8 3" fill="url(#I)"/><path d="M1171 931s-6 5-8 12c-1 1 1 3 2 3h12c2 0 3-2 3-3-1-5-3-12-9-12Z" fill="#161F26"/><path d="m1178 925-2 9h-6l-1-1v-9l9 1" fill="url(#J)"/><path d="m1147 808-35 108s6 4 10 4l42-87s7 54 4 92l12 1s19-98 4-132l-37 14Z" fill="#161F26"/><path d="m1164 832-1-11h-1l1 11h1" fill="#161F26"/><path d="M1140 712s29 3 25 23c0 0 16 30 23 66 1 1 0 2-1 2l-48 8c-1 0-3 0-3-2l-11-44-5 21-14-4 12-60s2-9 22-10" fill="#004080"/><path d="M1124 763h1l-4-19h-1v1l4 18Z" fill="#11569A"/><path d="m1127 818 5-1 3 1 2-1 3-31c5 2 11 2 13 2l-8 36h-28l10-6" fill="url(#K)"/><path d="m1053 751 1-3 3-3 16-6s0-2-4-4c-3-1-2-5-2-5l11 6c4 2 7 5 8 8l34 42-4 2c-5 4-13 2-16-3l-18-36c-10 3-19 3-29 2Z" fill="url(#L)"/><path d="m1131 693 9 25s-8 6-14 4l-4-15s3-17 9-14Z" fill="url(#M)"/><path d="m1105 684 8 24 14-5-5-24s-17-1-17 5Z" fill="url(#N)"/><path d="m1120 685 3 12v1c0 1 0 4-4 4h-8v2l4 11 3 1 11-7 1-2-3-15c0-3 3-5 4-6l1-1c1-1 1-5-4-6l-1-2c0-2 0-5-4-6-3-1-6 1-7 3l-2 1h-4c-2-2-4-4-7-3-6 2-6 9-4 13 3 4 9 1 12-1s6-1 8 0l1 1" fill="#161F26"/><path d="M1129 696s-4-7-2-9c3-2 7-2 7 4s-5 5-5 5" fill="url(#O)"/><path d="M1150 788h4l10-49-11 48c-1 1-9 1-14-2l9-42-2-4 1 4-9 42c4 3 9 3 12 3" fill="#11569A"/><path d="M860 940h-1l-1-3 36-108c1-1 2-2 3-1l1 3-37 108-1 1Z" fill="#505050"/><path d="m901 940-2-1-36-108v-3c1-1 2 0 3 1l36 108c1 1 0 3-1 3ZM1107 940h-1l-1-3 37-108c0-1 1-2 2-1l1 3-37 108-1 1" fill="#505050"/><path d="m1148 940-2-1-36-108c-1-1 0-3 1-3 1-1 2 0 2 1l36 108c1 1 0 3-1 3" fill="#505050"/><path d="m1161 823-1-2-2-1H854l-3 1v3l3 5 4 1h297c2 0 4 0 4-2l2-5" fill="#505050"/><path d="M1069 697s-64-32-43-55c21-24 60-14 62 10 2 25-45 19-19 45Z" fill="#1566A5"/><path d="M1031 648h30l-1-1h-28l-1 1ZM1068 648h9v-1h-9a1 1 0 1 0 0 1ZM1030 653l1 1h10a1 1 0 1 0 0-1h-11ZM1056 653l1 1h19a1 1 0 1 0 0-1h-20ZM1030 660h28a1 1 0 1 0 0-2h-28l-1 1 1 1ZM1065 660h10l1-1-1-1h-10a1 1 0 1 0 0 2Z" fill="#fff"/></g><defs><linearGradient id="b" x1="1193.6" y1="547.1" x2="1129" y2="650.6" gradientUnits="userSpaceOnUse"><stop stop-color="#FEBBBA"/><stop offset="1" stop-color="#FF928E"/></linearGradient><linearGradient id="c" x1="1103.7" y1="629.6" x2="1091.9" y2="603.5" gradientUnits="userSpaceOnUse"><stop stop-color="#FEBBBA"/><stop offset="1" stop-color="#FF928E"/></linearGradient><linearGradient id="d" x1="1129" y1="535.8" x2="1103.6" y2="591" gradientUnits="userSpaceOnUse"><stop stop-color="#FEBBBA"/><stop offset="1" stop-color="#FF928E"/></linearGradient><linearGradient id="e" x1="1103" y1="548.1" x2="1078.5" y2="601.3" gradientUnits="userSpaceOnUse"><stop stop-color="#FEBBBA"/><stop offset="1" stop-color="#FF928E"/></linearGradient><linearGradient id="f" x1="1013.7" y1="960.7" x2="1094.6" y2="814.6" gradientUnits="userSpaceOnUse"><stop stop-color="#FEBBBA"/><stop offset="1" stop-color="#FF928E"/></linearGradient><linearGradient id="g" x1="1084.2" y1="862.2" x2="968.5" y2="900.4" gradientUnits="userSpaceOnUse"><stop stop-color="#FEBBBA"/><stop offset="1" stop-color="#FF928E"/></linearGradient><linearGradient id="h" x1="1019.2" y1="737.4" x2="1134.4" y2="566.7" gradientUnits="userSpaceOnUse"><stop stop-color="#FEBBBA"/><stop offset="1" stop-color="#FF928E"/></linearGradient><linearGradient id="i" x1="876.6" y1="922.4" x2="886.2" y2="922.4" gradientUnits="userSpaceOnUse"><stop stop-color="#FEBBBA"/><stop offset="1" stop-color="#FF928E"/></linearGradient><linearGradient id="j" x1="922.4" y1="923.2" x2="933.9" y2="923.2" gradientUnits="userSpaceOnUse"><stop stop-color="#FEBBBA"/><stop offset="1" stop-color="#FF928E"/></linearGradient><linearGradient id="k" x1="886" y1="704" x2="892.9" y2="686.6" gradientUnits="userSpaceOnUse"><stop stop-color="#FEBBBA"/><stop offset="1" stop-color="#FF928E"/></linearGradient><linearGradient id="l" x1="906.9" y1="816.4" x2="933.5" y2="816.4" gradientUnits="userSpaceOnUse"><stop stop-color="#FEBBBA"/><stop offset="1" stop-color="#FF928E"/></linearGradient><linearGradient id="m" x1="918.1" y1="646.5" x2="885.2" y2="679.3" gradientUnits="userSpaceOnUse"><stop stop-color="#FEBBBA"/><stop offset="1" stop-color="#FF928E"/></linearGradient><linearGradient id="n" x1="904.5" y1="658.6" x2="873.1" y2="689.9" gradientUnits="userSpaceOnUse"><stop stop-color="#FEBBBA"/><stop offset="1" stop-color="#FF928E"/></linearGradient><linearGradient id="o" x1="1375.1" y1="865" x2="1379.5" y2="830.8" gradientUnits="userSpaceOnUse"><stop stop-color="#FEBBBA"/><stop offset="1" stop-color="#FF928E"/></linearGradient><linearGradient id="p" x1="1578.7" y1="855.4" x2="1583.5" y2="817.2" gradientUnits="userSpaceOnUse"><stop stop-color="#FEBBBA"/><stop offset="1" stop-color="#FF928E"/></linearGradient><linearGradient id="q" x1="1496.2" y1="628" x2="1431.6" y2="628" gradientUnits="userSpaceOnUse"><stop stop-color="#FEBBBA"/><stop offset="1" stop-color="#FF928E"/></linearGradient><linearGradient id="r" x1="1381.7" y1="584" x2="1270.4" y2="584" gradientUnits="userSpaceOnUse"><stop stop-color="#FEBBBA"/><stop offset="1" stop-color="#FF928E"/></linearGradient><linearGradient id="s" x1="1457.1" y1="496" x2="1416.4" y2="454.3" gradientUnits="userSpaceOnUse"><stop stop-color="#FEBBBA"/><stop offset="1" stop-color="#FF928E"/></linearGradient><linearGradient id="t" x1="1376.4" y1="447.2" x2="1425.5" y2="512.2" gradientUnits="userSpaceOnUse"><stop stop-color="#FEBBBA"/><stop offset="1" stop-color="#FF928E"/></linearGradient><linearGradient id="u" x1="1461" y1="489.4" x2="1420.9" y2="448.3" gradientUnits="userSpaceOnUse"><stop stop-color="#FEBBBA"/><stop offset="1" stop-color="#FF928E"/></linearGradient><linearGradient id="v" x1="1193.6" y1="547.1" x2="1129" y2="650.6" gradientUnits="userSpaceOnUse"><stop stop-color="#FEBBBA"/><stop offset="1" stop-color="#FF928E"/></linearGradient><linearGradient id="w" x1="1103.7" y1="629.6" x2="1091.9" y2="603.5" gradientUnits="userSpaceOnUse"><stop stop-color="#FEBBBA"/><stop offset="1" stop-color="#FF928E"/></linearGradient><linearGradient id="x" x1="1129" y1="535.8" x2="1103.6" y2="591" gradientUnits="userSpaceOnUse"><stop stop-color="#FEBBBA"/><stop offset="1" stop-color="#FF928E"/></linearGradient><linearGradient id="y" x1="1103" y1="548.1" x2="1078.5" y2="601.3" gradientUnits="userSpaceOnUse"><stop stop-color="#FEBBBA"/><stop offset="1" stop-color="#FF928E"/></linearGradient><linearGradient id="z" x1="1013.7" y1="960.7" x2="1094.6" y2="814.6" gradientUnits="userSpaceOnUse"><stop stop-color="#FEBBBA"/><stop offset="1" stop-color="#FF928E"/></linearGradient><linearGradient id="A" x1="1084.2" y1="862.2" x2="968.5" y2="900.4" gradientUnits="userSpaceOnUse"><stop stop-color="#FEBBBA"/><stop offset="1" stop-color="#FF928E"/></linearGradient><linearGradient id="B" x1="1019.2" y1="737.4" x2="1134.4" y2="566.7" gradientUnits="userSpaceOnUse"><stop stop-color="#FEBBBA"/><stop offset="1" stop-color="#FF928E"/></linearGradient><linearGradient id="C" x1="876.6" y1="922.4" x2="886.2" y2="922.4" gradientUnits="userSpaceOnUse"><stop stop-color="#FEBBBA"/><stop offset="1" stop-color="#FF928E"/></linearGradient><linearGradient id="D" x1="922.4" y1="923.2" x2="933.9" y2="923.2" gradientUnits="userSpaceOnUse"><stop stop-color="#FEBBBA"/><stop offset="1" stop-color="#FF928E"/></linearGradient><linearGradient id="E" x1="886" y1="704" x2="892.9" y2="686.6" gradientUnits="userSpaceOnUse"><stop stop-color="#FEBBBA"/><stop offset="1" stop-color="#FF928E"/></linearGradient><linearGradient id="F" x1="906.9" y1="816.4" x2="933.5" y2="816.4" gradientUnits="userSpaceOnUse"><stop stop-color="#FEBBBA"/><stop offset="1" stop-color="#FF928E"/></linearGradient><linearGradient id="G" x1="918.1" y1="646.5" x2="885.2" y2="679.3" gradientUnits="userSpaceOnUse"><stop stop-color="#FEBBBA"/><stop offset="1" stop-color="#FF928E"/></linearGradient><linearGradient id="H" x1="904.5" y1="658.6" x2="873.1" y2="689.9" gradientUnits="userSpaceOnUse"><stop stop-color="#FEBBBA"/><stop offset="1" stop-color="#FF928E"/></linearGradient><linearGradient id="I" x1="1375.1" y1="865" x2="1379.5" y2="830.8" gradientUnits="userSpaceOnUse"><stop stop-color="#FEBBBA"/><stop offset="1" stop-color="#FF928E"/></linearGradient><linearGradient id="J" x1="1578.7" y1="855.4" x2="1583.5" y2="817.2" gradientUnits="userSpaceOnUse"><stop stop-color="#FEBBBA"/><stop offset="1" stop-color="#FF928E"/></linearGradient><linearGradient id="K" x1="1496.2" y1="628" x2="1431.6" y2="628" gradientUnits="userSpaceOnUse"><stop stop-color="#FEBBBA"/><stop offset="1" stop-color="#FF928E"/></linearGradient><linearGradient id="L" x1="1381.7" y1="584" x2="1270.4" y2="584" gradientUnits="userSpaceOnUse"><stop stop-color="#FEBBBA"/><stop offset="1" stop-color="#FF928E"/></linearGradient><linearGradient id="M" x1="1457.1" y1="496" x2="1416.4" y2="454.3" gradientUnits="userSpaceOnUse"><stop stop-color="#FEBBBA"/><stop offset="1" stop-color="#FF928E"/></linearGradient><linearGradient id="N" x1="1376.4" y1="447.2" x2="1425.5" y2="512.2" gradientUnits="userSpaceOnUse"><stop stop-color="#FEBBBA"/><stop offset="1" stop-color="#FF928E"/></linearGradient><linearGradient id="O" x1="1461" y1="489.4" x2="1420.9" y2="448.3" gradientUnits="userSpaceOnUse"><stop stop-color="#FEBBBA"/><stop offset="1" stop-color="#FF928E"/></linearGradient><clipPath id="a"><path fill="#fff" d="M0 0h1920v1181H0z"/></clipPath></defs></svg>