<svg xmlns="http://www.w3.org/2000/svg" fill="none" viewBox="0 0 233 219"><path fill="#004080" d="M192.4 188.2a78.7 78.7 0 0 1-12 10.1c-39.3 28.3-85.7 20-95.6 18-14.6-3-42.8-8.7-63.2-32.7-30.8-36.3-26-93.5-2.1-131.3C23.9 45.4 47 7.1 94 1c28.4-3.7 61.5 3.8 85.5 24 50.4 42.2 46.8 127.6 13 163.3Z" opacity=".1"/><path fill="#004080" d="M237.4 18.4c-4.1-2.3-5-2.2-4.6-3 .3-.6 1-.3.9-.3l4.3 2.3c.3.1.4.5.3.8-.2.3-.6.4-.9.2Zm-16.6-7.2c.1-.4.5-.6.8-.5l4.7 1.4c.8.3.4 1.4-.4 1.2l-4.6-1.4a.6.6 0 0 1-.5-.7Zm26.8 14.6c-3.5-3.2-4.4-3.2-3.8-4 .2-.2.6-.3.9 0l3.8 3c.6.6-.2 1.5-.9 1ZM208.3 9.5c0-.4.3-.7.6-.6 1.6 0 3.3.2 4.9.4.8 0 .7 1.3-.1 1.2a62 62 0 0 0-4.8-.4.6.6 0 0 1-.6-.6ZM196 10.8a.6.6 0 0 1-.3-.5c-.1-.3.1-.6.5-.7L201 9c.3 0 .7.2.7.6 0 .3-.2.6-.6.6a62.8 62.8 0 0 0-5 .6ZM184 14a.6.6 0 0 1-.4-.3c-.1-.3 0-.7.4-.8l4.6-1.6c.3 0 .7.1.8.5 0 .3-.1.6-.5.7a61 61 0 0 0-5 1.5Zm-11.5 5.4a.6.6 0 0 1 .2-.8l4.1-2.5c.8-.4 1.4.7.6 1.1l-4 2.4c-.3.2-.7.1-1-.2Zm-9.7 7.9a.6.6 0 0 1 0-.9l3.5-3.2c.7-.5 1.5.4.9 1l-3.5 3.1a1 1 0 0 1-1 0Zm-8 8.8c.8-1.3 1.8-2.6 2.8-3.9.5-.6 1.5.2 1 .8a59 59 0 0 0-2.8 3.8c-.4.7-1.5 0-1-.7ZM149 47.3l1.9-4.4c.4-.8 1.5-.2 1.1.5l-1.9 4.3c0 .4-.4.5-.8.4a.6.6 0 0 1-.3-.8Zm-3.4 12a60 60 0 0 1 1-4.6c0-.3.4-.5.7-.4 1 .2.3.7-.5 5.3 0 .4-.3.6-.7.5a.6.6 0 0 1-.5-.7Zm119.7 33.3a.6.6 0 0 1-.4-.8l1.5-4.8c.1-.4.5-.6.8-.5.4.1.6.5.5.8l-1.6 5a.6.6 0 0 1-.8.3Zm-6 12c-.9-.6 0-.9 2.3-5.3.4-.7 1.5-.1 1.1.6l-2.6 4.4c-.2.3-.6.4-.9.2Zm-8.7 10.2c-.7-.7.2-.8 3.5-4.6.5-.6 1.5.2 1 .9a59.8 59.8 0 0 1-3.6 3.7c-.2.3-.6.3-.9 0Zm-10.4 8.4a.6.6 0 0 1-.3-.3.6.6 0 0 1 .2-.8 60 60 0 0 0 4.2-2.8c.3-.3.7-.2.9 0 .2.4.2.8-.1 1a61 61 0 0 1-4.3 2.8c-.2.2-.4.2-.6 0Zm-12.3 5.7a.6.6 0 0 1-.3-.4c-.1-.3 0-.7.4-.8a38 38 0 0 0 4.7-1.8c.4-.1.7 0 .9.3.1.3 0 .7-.3.8a63.2 63.2 0 0 1-5.4 1.9Zm-13.2 3a.6.6 0 0 1-.4-.6c0-.3.2-.6.6-.7l5-.7c.4-.1.7.1.8.5 0 .3-.2.6-.5.7a62.8 62.8 0 0 1-5.5.7Zm-13.6-.1a.6.6 0 0 1 .3-1.2l5.1.4c.4 0 .7.3.6.6 0 .3-.2.6-.6.6a63.8 63.8 0 0 1-5.4-.4ZM168.2 118l-4-3.5a.6.6 0 0 1 0-.8c.7-.7.8.1 4.8 3.3.3.3.3.7.1 1-.2.2-.6.2-.9 0Zm19.2 10c.3-1 .8-.2 5.7 1 .4 0 .6.4.5.8 0 .3-.4.5-.8.4l-5-1.5a.6.6 0 0 1-.4-.8Zm-7.5-2.6c-1.6-.7-3.2-1.6-4.7-2.5a.6.6 0 0 1-.2-.9c.5-.8.8 0 5.4 2.3.3.2.5.6.3.9-.2.5-.9.2-.8.2Zm-21.5-17.1c-1.3-1.7-2-2.4-1.4-2.9.7-.5 1 .4 2.4 2.1.2.3.2.7 0 1-.4.1-.7 0-1-.2Zm50.1-46.7a8.5 8.5 0 0 0-9.7 7.2c-.7 4.6 2.7 9 7.4 9.7 4.7.8 9.1-2.5 9.8-7.1.6-4.7-2.7-9-7.5-9.8Zm-2.4 17.9Zm-9.2-11c.8-5.7 6.1-9.6 11.9-8.7 5.8.8 9.8 6.2 9 11.9-.7 5.6-6 9.6-11.9 8.7-5.7-.9-9.8-6.2-9-12Z"/><path fill="#004080" d="M196.4 94.2c-1.4-.7-2.8-1.5-4-2.4a1 1 0 0 1-.3-1.3 1 1 0 0 1 1.3-.2A25 25 0 0 0 231 79.6 25.1 25.1 0 0 0 217 47a25 25 0 0 0-32.8 13.3c-3.1 7.5-1.3 12.9-1.6 13.6-.4.9-1.7.7-1.8-.2-.8-5-.2-10.3 2-15.2 9.7-21 40.5-20.1 49.7 1.4a26.3 26.3 0 0 1-14.3 34.9 27.3 27.3 0 0 1-21.8-.6Zm-51.4-24a.6.6 0 0 1-.4-.5v-2.5c.1-.4.4-.6.7-.6.9 0 .6.8.6 3 0 .4-.3.7-.6.7h-.3Z"/><path fill="url(#a)" d="M179.2 149a.2.2 0 0 0-.5 0c-.2.8-.7 2.1-1.8 2.6l-.2.1.1-.5c.3-.5-.3-1.3-.3-1.3s0 .7-.5 1c-.4.4-.6 1.2-.3 1.8.6 2.3 1.5 5.4-2 7.6-3.5 2.3-8.4-4.2-8.4-4.2l2.4 7.7s3.8 2.8 8.2-1.1c4.3-3.9 1.4-9.6 1.4-9.6s3.4-1.3 1.9-4.2Z"/><path fill="#161F26" d="M164.7 144.8s1-4.6-4.2-3.4c0 0-2.5-.4-2.6 2 0 0-1.6 1-.5 3.1 0 0-4.8-1.8-6.9 2.4-2 4.2-.1 6.5 1.9 7.1 0 0-1.7.9-.9 2.7.8 1.9 4.7 3.2 7 1 0 0 6.6.8 6.5-3.9 0 0 3-2-.1-5.8-3.3-3.9-.2-5.2-.2-5.2Z"/><path fill="#D22538" d="M165 155.3c-1-.4-4-1-7 1.7-.5.5-.7 1.2-.5 1.8.8 2.9 2.8 11.3 1 15 0 0 3.2 3.4 6.6.6 0 0 1.6-6.7 3.6-9.7 1.4-2-2.2-7.7-3.1-9a1 1 0 0 0-.6-.4Z"/><path fill="url(#b)" d="M162.1 149.6s-1.5 4.3-1.7 6.3c0 0 1.8.7 3.4-.6 0 0 .1-4.3.4-5.1l-2.1-.6Z"/><path fill="url(#c)" d="M164.2 143.6s4 5.7 1.7 7.3c-2.4 1.7-5.3-2.3-5.3-2.3s-1-3.1 0-4.2c1-1 3.6-.8 3.6-.8Z"/><path fill="#161F26" d="M162.4 142.3s1.8.4 2 1.3c.3.8-2.5 1.6-3.3 1.6l-.7 3.4s-2-3.2-1.2-5c.8-1.9 3.2-1.3 3.2-1.3Z"/><path fill="url(#d)" d="M161.4 148.1s-1.6-1.8-2.2-.6c-.6 1.2 1.4 2 2 1.5l.2-.9Z"/><path fill="url(#e)" d="m169.2 188.6.8 4c0 .5 0 1-.3 1.6l-10 17a1 1 0 0 0-.3.7c-.2.8-.6 2.7-.4 4.5l.5 1.1-2.3-.5-.4-6.1.6-.4a3 3 0 0 0 1.2-1.4 87 87 0 0 0 3.8-10.7c.7-3.1 4.1-5.7 4.1-5.7l-.6-1.4 3.3-2.7Z"/><path fill="#161F26" d="M154.7 214.9s1.3-2 1.4-2.7c.1-.8.5-2.1 1.3-1.7 0 0 .4 3.7.2 5.1 0 1.4 1.7 1.4 1.7 1.4s.4 0 .8.4c.2.3 0 .7-.3.7l-2.4-.1a.7.7 0 0 1-.6-.7l-.3-4.2-1.5 2-.3-.2Z"/><path fill="url(#f)" d="m163.1 191.3-.4 17.4c0 2.2.4 7 2.5 8.4l-1 .7s-1.1-1-2.3-3a17.7 17.7 0 0 0-1.6-2.5l.4-.9c.2-.3.2-.8.1-1.2l-2.4-11.5a7.2 7.2 0 0 1 1.2-6.6c1.8-2.1 3.5-.8 3.5-.8Z"/><path fill="#161F26" d="m161.1 218.5-.1-.1-.6-3c-.3-.7-1.2-3.2 0-3.4l3.5 5c.6.5 1.3.1 1.3.1s.6.2 1 .7c.2.3 0 .7-.3.7h-2c-.6 0-1.1-.4-1.4-1-.3-.8-1-2-1.6-2.7l.3 3.6v.1Zm4.5-45.7s-.4 1.4.3 3.8l4.3 15.1c0 .3 0 .5-.3.6-1.3.5-5.6 1.8-11.4 1.4a.7.7 0 0 1-.6-.5c-.3-1.8-1.6-7.6-2-8.8-1-4.6-2-9.6 3-12.6 2.3 1 4.4 1.6 6.7 1Z"/><path fill="url(#g)" d="M157.6 157.6s-5 4-6.1 9.7c-1.3 5.6 7.2 6.2 7.2 6.2s1.1-1.3 2.5-.8c1.3.4 0-2.3-1.5-2.3-1.6 0-.9 1.3-3.1.3s-3.6-4 2-8.7l.8-1c1-2.8.2-4.5-1.8-3.4Z"/><path fill="#161F26" d="M109.2 195.4c-.4.6-2.1 15.2-2.4 20.5a.6.6 0 0 0 1.3.2l3.1-20.2-2-.5Zm13.8 0c.5.6 2.2 15.2 2.5 20.5a.6.6 0 0 1-1.2.2l-3.2-20.2 2-.5Z"/><path fill="#004080" d="M106.6 194.3v.1c0 1.2 1 2.1 2.2 2.1l14.6.3c1.2 0 2.2-.9 2.3-2v-.2c0-1.1-1-2.1-2.2-2.1l-14.6-.3c-1.2 0-2.2 1-2.3 2Z"/><path fill="#161F26" d="M132 214.6c-2.5 0-3.6-.3-4.1-.5 0 .5.4.8.9.8h8.8c.3 0 .5-.3.4-.6-1 .1-3.1.3-6 .3Z"/><path fill="#161F26" d="M138 214.3v-.1c-.8-.9-2.1-2.2-4-2.2-2.6 0-3.5.3-5.6 0l-.5 1.7v.4c.5.2 1.6.5 4 .5 3 0 5-.2 6-.3Z"/><path fill="url(#h)" d="m129 210.3-.6 2s1.3.6 2.5.1l.2-1.7-2.1-.4Z"/><path fill="#161F26" d="M147.2 213.3c-2 1.5-3 2-3.4 2.2.3.3.8.3 1.1 0l6.9-5.5c.2-.2.2-.5 0-.7l-4.6 4Z"/><path fill="#161F26" d="M151.8 209.3h-.2c-1-.3-3-.5-4.3.7-2 1.7-2.6 2.5-4.5 3.5l.7 1.6c0 .2.1.3.3.4.5-.2 1.5-.7 3.4-2.2l4.6-4Z"/><path fill="#000" d="M116 186.9s15 1.2 18 2.6c3 1.5-2.5 21.6-2.5 21.6s-.8.4-2.7-.2c0 0 2-14.8.5-18l-16.1-2.7 2.9-3.3Z"/><path fill="url(#i)" d="m141.4 210.7 1.4 2.8s1.5-.3 1.8-1.2l-1.3-2.5-2 1Z"/><path fill="#161F26" d="M107.1 186.7s-.5 1.2-.5 2.8a4 4 0 0 0 4 4l17.5.8c.4 0 .7.2.8.6.4 1.6 2.4 6.5 12.3 16.3.3.3.7.3 1 .1l1.4-.9c.1 0 .2-.3.1-.4l-10.2-17.5a4 4 0 0 0-2.4-1.8l-15-3.8-9-.2Z"/><path fill="url(#j)" d="M124.4 159.4s-1.8 3.3-3.8 5l4 2.1s.9-3.5 3-4.5l-3.2-2.6Z"/><path fill="#D22538" d="M106.8 186.9s4.7 1.1 9.3 0c0 0 6.3-8.6 8.8-10.9 0 0 3.9 6.2 12.6 7l.5-1s-7-3.2-9-8.2c-2.2-4.9-3-7-5-8.3l-2.3-1.6a.6.6 0 0 0-.8 0c-2 1.2-11.7 7.9-14.1 23Z"/><path fill="#fff" d="m124.6 175.9-.2-.1c-1.5-2-2.4-4.2-2.4-4.3l.1-.4c.2 0 .4 0 .4.2 0 0 .9 2.2 2.3 4a.3.3 0 0 1-.2.6Z"/><path fill="url(#k)" d="m137 181.4 1-.3 3-.7c.3 0 .7 0 1 .2l2.5 1.6h-7l-.5-.8Z"/><path fill="url(#l)" d="M127.4 154.4s1.9 3 2.2 4.7c.3 1.7.8 2.7-1.1 3.3a4 4 0 0 1-4.8-1.7s-1.8-2.4-1.6-3.5c.2-1.1 5.3-2.8 5.3-2.8Z"/><path fill="#161F26" d="M124.2 159.4h.2s-1.3-2-.4-2.5c.8-.5 4.3-1.7 4.9-3 .6-1.3-.3-2.8-1.3-3.1h-.2v.2h-.5c-.2.4-.8 1.1-2.5 1.7-2.3.7-3.8 2-3.6 3.6 0 .1 0 .2-.2.1-.2 0-.5 0-.8.3-.6.7-.1 2 1.5 3v.3c-.2.2-.6.7.5 1 1.1.5 1.7.3 2 .3v-.2l-.3-1.5.2-.1h.5Z"/><path fill="url(#m)" d="M124.3 159.7s-.8-2-1.7-1.3c-.8.7.8 2.3 1.6 2.2v-.9Z"/><path fill="#004080" d="M137.1 183.2h15.3a.7.7 0 1 0 0-1.4H137a.7.7 0 0 0 0 1.4Z"/><path fill="#004080" d="m158.2 168.3-6.4 13.8a.7.7 0 1 0 1.3.6l6.4-13.8c.1-.3 0-.7-.4-.9a.7.7 0 0 0-.9.3Z"/><path fill="#161F26" d="m197 212.4.2 2c0 .5-.4.9-.8 1-1.7.1-5.4.4-7.8 0a.4.4 0 0 1-.2-.6c1-1 3.4-2.7 7.3-3.1l1.2.7Z"/><path fill="url(#n)" d="m197.7 210.3-.8 2c-.1.3-.4.5-.7.4l-.7-.1a.9.9 0 0 1-.5-1.1l.6-2.1 2.1.9Z"/><path fill="#161F26" d="M211.9 214s-1.7 1.4-2.3 3.2c-.2.4.2 1 .7 1h3.4c.5 0 .9-.5.8-1-.2-1.2-.9-3.2-2.6-3.2Z"/><path fill="url(#o)" d="m214 212.2-.7 2.5-.4.2-1.2-.3c-.2 0-.3 0-.3-.2v-2.5l2.5.3Z"/><path fill="#161F26" d="m205.1 178.8-10 30.8s1.9 1.3 2.8 1.2l12-24.7s2 15.2 1 26.2l3.5.2s5.5-28 1.3-37.5l-10.6 3.8Z"/><path fill="#000" d="M209.8 185.8s.1 0 0 0l-.3-3.2h-.1s-.1 0 0 0l.3 3.1v.1Z"/><path fill="#004080" d="M203.2 151.8s8.2.7 7 6.5c0 0 4.5 8.5 6.7 18.5 0 .4-.2.7-.5.7l-13.6 2.4a.7.7 0 0 1-.8-.6l-3.3-12.5-1.3 5.8-4-1 3.4-17.2s.5-2.5 6.4-2.6Z"/><path fill="#11569A" d="M198.6 166.2c.1 0 .2 0 .1-.1l-1-5.2-.2-.1s-.1 0 0 .1l1 5.2.1.1Z"/><path fill="url(#p)" d="M199.5 181.7a2 2 0 0 1 1.4-.2l1 .2c.1 0 .3 0 .3-.3l1-8.7a8 8 0 0 0 3.6.5l-2.3 10.3h-7.8l2.8-1.8Z"/><path fill="url(#q)" d="m178.5 162.8.3-.8c.1-.5.4-.8.9-1l4.3-1.7s0-.6-1-1c-.9-.4-.7-1.4-.7-1.4l3.3 1.5c1.1.6 1.8 1.6 2 2.3l9.8 11.9-1.1.8a3 3 0 0 1-4.4-1.1l-5.3-10.2a20 20 0 0 1-8 .7Z"/><path fill="url(#r)" d="m200.6 146.2 2.5 7s-2.2 1.8-3.8 1.2l-1.3-4s1-5 2.6-4.2Z"/><path fill="url(#s)" d="m193.1 143.7 2.4 6.9 3.8-1.5-1.3-6.7s-4.9-.5-4.9 1.3Z"/><path fill="#161F26" d="m197.3 144 1 3.5v.1c0 .3 0 1.3-1 1.1-1 0-1.8-.2-2.3 0a1 1 0 0 0-.3.7l1.4 3.1c.1.2.4.3.7.2.7-.3 2.2-1 3.2-2 .2 0 .2-.2.2-.4-.2-.9-.7-3.6-.7-4.4 0-.7.8-1.3 1.2-1.5l.2-.3c.1-.5.2-1.5-1.1-1.8a.5.5 0 0 1-.4-.6c0-.5 0-1.3-1-1.6-1.1-.4-1.8.3-2.1.8-.2.2-.4.3-.7.2 0 0-.2-.1-.4 0-.2.2-.6.2-.7 0-.4-.5-1-1-1.9-.7-1.7.6-1.6 2.6-1 3.6.6 1.1 2.5.4 3.3-.3.7-.5 1.7-.2 2.1 0 .2 0 .3.1.3.3Z"/><path fill="url(#t)" d="M199.9 147.2s-1-2-.4-2.5c.7-.6 1.8-.5 1.8 1 0 1.8-1.4 1.5-1.4 1.5Z"/><path fill="#11569A" d="M206 173.3h1l3-13.9v-.1h-.2l-3 13.8c-.4 0-2.7.2-4-.7l2.6-12-.5-1-.2-.1v.1l.5 1-2.6 12v.1a6 6 0 0 0 3.4.8Z"/><path fill="#505050" d="M123.5 216.5h-.2a.8.8 0 0 1-.2-.8l10.3-30.8c.1-.3.4-.5.7-.3.2 0 .3.5.2.8L124 216.2c0 .2-.3.3-.5.3Z"/><path fill="#505050" d="M135.2 216.5a.5.5 0 0 1-.5-.3l-10.3-30.8c-.1-.3 0-.7.3-.8.2-.2.5 0 .6.3l10.3 30.8c.1.3 0 .6-.2.8h-.2Zm58.5 0h-.2c-.3-.2-.4-.5-.3-.8l10.3-30.8c.1-.3.4-.5.7-.3.2 0 .3.5.2.8l-10.3 30.8c0 .2-.3.3-.4.3Z"/><path fill="#505050" d="M205.3 216.5a.5.5 0 0 1-.5-.3l-10.3-30.8c-.1-.3 0-.7.3-.8.2-.2.5 0 .6.3l10.3 30.8c.2.3 0 .6-.2.8h-.2Z"/><path fill="#505050" d="M209 183.1c0-.2-.1-.4-.3-.5a1 1 0 0 0-.6-.2H122c-.4 0-.7.1-.8.3-.2.2-.3.5-.1.7l1 1.4c.1.3.6.5 1.1.5h84.3c.5 0 .9-.2 1-.6l.4-1.6Z"/><path fill="#004080" d="M183 147.4s-18.2-9-12.2-15.7c6-6.7 17-4 17.7 3 .5 7-13 5.3-5.4 12.7Z"/><path fill="#fff" d="m172.1 133.4.2.2h8a.2.2 0 0 0 0-.4h-8s-.2 0-.2.2Zm10.7.2h2.4l.2-.2-.2-.2h-2.4a.2.2 0 0 0 0 .4Zm-10.9 1.4c0 .1 0 .2.2.2h3s.2 0 .2-.2l-.2-.2h-3l-.2.2Zm7.4 0 .2.2h5.4a.2.2 0 0 0 0-.4h-5.4l-.2.2Zm-7.5 1.8h8l.2-.1c0-.1 0-.2-.2-.2h-8a.2.2 0 0 0 0 .3Zm10 0h2.8l.2-.1c0-.1 0-.2-.2-.2h-2.8a.2.2 0 0 0 0 .3Z"/><defs><linearGradient id="a" x1="218.3" x2="200" y1="104.8" y2="134.2" gradientUnits="userSpaceOnUse"><stop stop-color="#FEBBBA"/><stop offset="1" stop-color="#FF928E"/></linearGradient><linearGradient id="b" x1="192.8" x2="189.4" y1="128.3" y2="120.9" gradientUnits="userSpaceOnUse"><stop stop-color="#FEBBBA"/><stop offset="1" stop-color="#FF928E"/></linearGradient><linearGradient id="c" x1="200" x2="192.7" y1="101.6" y2="117.3" gradientUnits="userSpaceOnUse"><stop stop-color="#FEBBBA"/><stop offset="1" stop-color="#FF928E"/></linearGradient><linearGradient id="d" x1="192.6" x2="185.6" y1="105.1" y2="120.2" gradientUnits="userSpaceOnUse"><stop stop-color="#FEBBBA"/><stop offset="1" stop-color="#FF928E"/></linearGradient><linearGradient id="e" x1="167.3" x2="190.3" y1="222.3" y2="180.8" gradientUnits="userSpaceOnUse"><stop stop-color="#FEBBBA"/><stop offset="1" stop-color="#FF928E"/></linearGradient><linearGradient id="f" x1="187.3" x2="154.5" y1="194.3" y2="205.2" gradientUnits="userSpaceOnUse"><stop stop-color="#FEBBBA"/><stop offset="1" stop-color="#FF928E"/></linearGradient><linearGradient id="g" x1="168.8" x2="201.6" y1="158.9" y2="110.4" gradientUnits="userSpaceOnUse"><stop stop-color="#FEBBBA"/><stop offset="1" stop-color="#FF928E"/></linearGradient><linearGradient id="h" x1="128.4" x2="131.1" y1="211.5" y2="211.5" gradientUnits="userSpaceOnUse"><stop stop-color="#FEBBBA"/><stop offset="1" stop-color="#FF928E"/></linearGradient><linearGradient id="i" x1="141.4" x2="144.6" y1="211.7" y2="211.7" gradientUnits="userSpaceOnUse"><stop stop-color="#FEBBBA"/><stop offset="1" stop-color="#FF928E"/></linearGradient><linearGradient id="j" x1="131" x2="133" y1="149.4" y2="144.5" gradientUnits="userSpaceOnUse"><stop stop-color="#FEBBBA"/><stop offset="1" stop-color="#FF928E"/></linearGradient><linearGradient id="k" x1="137" x2="144.5" y1="181.3" y2="181.3" gradientUnits="userSpaceOnUse"><stop stop-color="#FEBBBA"/><stop offset="1" stop-color="#FF928E"/></linearGradient><linearGradient id="l" x1="140.2" x2="130.8" y1="133.1" y2="142.4" gradientUnits="userSpaceOnUse"><stop stop-color="#FEBBBA"/><stop offset="1" stop-color="#FF928E"/></linearGradient><linearGradient id="m" x1="136.3" x2="127.4" y1="136.5" y2="145.4" gradientUnits="userSpaceOnUse"><stop stop-color="#FEBBBA"/><stop offset="1" stop-color="#FF928E"/></linearGradient><linearGradient id="n" x1="269.8" x2="271" y1="195.1" y2="185.4" gradientUnits="userSpaceOnUse"><stop stop-color="#FEBBBA"/><stop offset="1" stop-color="#FF928E"/></linearGradient><linearGradient id="o" x1="327.5" x2="328.9" y1="192.4" y2="181.6" gradientUnits="userSpaceOnUse"><stop stop-color="#FEBBBA"/><stop offset="1" stop-color="#FF928E"/></linearGradient><linearGradient id="p" x1="304.1" x2="285.8" y1="127.8" y2="127.8" gradientUnits="userSpaceOnUse"><stop stop-color="#FEBBBA"/><stop offset="1" stop-color="#FF928E"/></linearGradient><linearGradient id="q" x1="271.7" x2="240.1" y1="115.3" y2="115.3" gradientUnits="userSpaceOnUse"><stop stop-color="#FEBBBA"/><stop offset="1" stop-color="#FF928E"/></linearGradient><linearGradient id="r" x1="293" x2="281.5" y1="90.3" y2="78.5" gradientUnits="userSpaceOnUse"><stop stop-color="#FEBBBA"/><stop offset="1" stop-color="#FF928E"/></linearGradient><linearGradient id="s" x1="270.2" x2="284.1" y1="76.5" y2="94.9" gradientUnits="userSpaceOnUse"><stop stop-color="#FEBBBA"/><stop offset="1" stop-color="#FF928E"/></linearGradient><linearGradient id="t" x1="294.2" x2="282.8" y1="88.5" y2="76.8" gradientUnits="userSpaceOnUse"><stop stop-color="#FEBBBA"/><stop offset="1" stop-color="#FF928E"/></linearGradient></defs></svg>