<svg width="434" height="624" fill="none" xmlns="http://www.w3.org/2000/svg"><g opacity=".3" fill="#004080"><path d="M149.5 590.7c4.9-8.4 6.5-9 5-10-1-.8-2 .3-1.8.3-2 2.7-3.7 5.6-5.4 8.4-.3.6-.1 1.4.5 1.8.5.3 1.3.1 1.7-.5Zm21.9-29.7c-.5-.6-1.3-.6-1.8 0-2.4 2.2-4.7 4.7-7 7.2-1 1.2.8 3 2 1.6a129 129 0 0 1 6.7-7c.6-.5.6-1.3 0-1.8Zm-32.5 53c3.1-9.1 4.6-10 2.8-10.8-.6-.2-1.4 0-1.7.7a130 130 0 0 0-3.5 9.4c-.5 1.6 1.9 2.4 2.4.8Zm53-69c-.4-.5-1.2-.7-1.8-.3-2.8 1.8-5.5 3.7-8.2 5.7-1.3 1 .2 3 1.5 2 2.6-2 5.3-3.8 8-5.5.6-.4.8-1.2.5-1.8Zm23-10.1c.2-.3.3-.8.1-1.2-.2-.6-1-1-1.6-.7-3 1.1-6.1 2.5-9.1 3.9-.7.3-1 1-.7 1.7.3.6 1 .9 1.7.6a128.8 128.8 0 0 1 9.6-4.3Zm24.8-6.7c.2-.2.3-.6.2-1 0-.6-.7-1-1.4-1-3.3.6-6.5 1.2-9.7 2-.7.2-1.1.8-1 1.5.2.7.9 1.1 1.5 1 3.2-.8 6.4-1.4 9.5-2 .4 0 .7-.2.9-.5Zm25.8-2.2c0-.7-.5-1.3-1.2-1.3a125 125 0 0 0-9.9 0c-1.6 0-1.6 2.6 0 2.5h9.7c.7 0 1.3-.5 1.4-1.2Zm25.2 4c.1-.6-.2-1.3-1-1.5-3-.8-6.3-1.5-9.5-2-1.7-.4-2.2 2.2-.5 2.4l9.4 2c.7.2 1.4-.2 1.6-.9Zm23.1 7.5c-2.9-1.5-5.9-2.8-8.9-4-1.6-.7-2.5 1.7-1 2.3 3 1.2 6 2.5 8.8 4 1.5.7 2.6-1.6 1.1-2.3Zm21.6 13.7c-2.5-2-5.2-4-7.8-5.8-1.5-1-2.9 1.3-1.5 2.2a121 121 0 0 1 7.7 5.6c.6.5 1.4.4 1.8-.2.5-.5.4-1.3-.2-1.8Zm18.4 18c-2.1-2.5-4.3-5-6.6-7.3-.5-.5-1.3-.5-1.8 0-1.3 1.4.3 1.6 6.4 9 .4.5 1.2.5 1.8 0 .5-.4.6-1.2.2-1.7ZM116.6 606c.7-4.2 1.6-6.2-.1-6.5-.7-.1-1.4.4-1.5 1-.9 4.5-1.5 6.4.1 6.6.5 0 1.4-.4 1.5-1ZM158.6 721.5c.3-.5.3-1.2-.3-1.7-2.6-2.2-5.2-4.5-7.6-7-.5-.4-1.3-.4-1.8.1s-.5 1.3 0 1.8c2.5 2.5 5.1 4.9 7.8 7.1.5.5 1.3.4 1.8-.2Zm22.8 15c1-1.8-.8-1.4-9.5-6.8-1.4-.9-2.8 1.3-1.4 2.2 3 1.8 6 3.6 9.2 5.2.6.3 1.4 0 1.7-.6Zm25.7 9.4c.5-2-1.1-1.2-10.8-4.5-1.6-.6-2.5 1.8-.9 2.4 3.3 1.1 6.7 2.2 10.1 3 .7.2 1.4-.2 1.6-1Zm27 4 .2-.6c0-.7-.5-1.3-1.2-1.3-3.4-.1-7-.3-10.3-.7-.7 0-1.4.4-1.5 1.1 0 .7.4 1.4 1.1 1.4 3.5.4 7 .6 10.6.7.5 0 .9-.2 1.1-.5Zm27.5-2.3c.2-.3.2-.7.2-1-.1-.7-.8-1.2-1.5-1-3.4.7-6.9 1.2-10.3 1.6-.7 0-1.2.7-1.1 1.4 0 .7.6 1.2 1.3 1.1 3.5-.4 7-1 10.6-1.6.3 0 .6-.3.8-.5Zm26.4-8.4c.2-.4.3-.8.1-1.2-.3-.7-1-1-1.7-.7-3.1 1.4-6.4 2.7-9.7 3.8-.7.3-1 1-.8 1.7.2.6.9 1 1.6.8a128.7 128.7 0 0 0 10.5-4.4Zm24-14c.3-.4.3-1 0-1.4-.4-.6-1.2-.7-1.7-.3l-8.8 5.9c-.6.3-.8 1.1-.4 1.7.3.6 1.1.8 1.7.5a130.6 130.6 0 0 0 9.2-6.3Zm44.1-57.6c1.3-3.4 2.5-6.8 3.5-10.2.2-.7-.1-1.4-.8-1.6-2-.5-1.2 1.1-5 10.9-.3.6 0 1.4.7 1.6.6.3 1.4 0 1.6-.7Zm-23.7 37c-1.5-1.2-1.6.6-9 7.8-.6.5-.6 1.3-.1 1.9.4.5 1.2.5 1.8 0 2.5-2.5 5-5.1 7.4-7.8.4-.6.4-1.4-.1-1.8Zm10.7-12c2-3 3.9-6 5.6-9.2.4-.6.2-1.4-.5-1.7-1.7-1-1.4.8-7.2 9.5-.4.6-.2 1.4.4 1.8 1 .6 1.8-.5 1.7-.4ZM227.2 609c7.6-6 18.6-5 24.6 2.6s4.5 18.8-3.1 24.9c-7.7 6.1-18.7 4.9-24.6-2.7-6-7.6-4.5-18.7 3.1-24.8Zm22.6 29Zm5-28.8A21.1 21.1 0 0 0 225 606c-9.3 7.4-11 21-3.9 30.2a21.1 21.1 0 0 0 30 3.3c9.3-7.5 11-21 3.9-30.3Z"/><path d="M281.9 654.1c1.8-2.6 3.4-5.4 4.8-8.2a2 2 0 0 0-.9-2.6c-1-.4-2 0-2.5 1a51.1 51.1 0 0 1-77.3 19.5 51.2 51.2 0 0 1-8.5-72 51 51 0 0 1 71.5-10c13.2 10.1 15.3 21.5 16.7 22.5 1.6 1 3.6-.6 3-2.3a53.4 53.4 0 0 0-19.2-24.6c-38.5-27.3-92 5.7-86.4 53a53.5 53.5 0 0 0 60.9 47 55.8 55.8 0 0 0 37.9-23.3ZM70.3 616a6.6 6.6 0 1 1-11 7.3 6.6 6.6 0 0 1 11-7.4Zm-1 10.3Zm3.3-12A9.4 9.4 0 1 0 57 624.9a9.4 9.4 0 0 0 15.6-10.4ZM112.7 608.2l-1-3.7a1 1 0 0 0-1.2-.6c-1.2.4-.4 1.6.4 4.7a1 1 0 0 0 1.8-.4ZM36.8 580.2a1 1 0 0 0-1.3-.2c-2 1.5-4 3.2-5.8 5-.9 1 .5 2.3 1.3 1.4 1.7-1.8 3.6-3.4 5.6-4.9.4-.3.5-.9.2-1.3Zm18-7.1c0-.3.1-.5 0-.8a1 1 0 0 0-1-.7c-2.6.6-5 1.4-7.4 2.3a1 1 0 0 0 .7 1.8c2.3-1 4.7-1.7 7-2.3.3 0 .5-.2.6-.3Zm19.6-.4.2-.4a1 1 0 0 0-.8-1.1c-2.5-.5-5-.8-7.6-.8a1 1 0 1 0-.1 1.8c2.5.1 5 .4 7.4.8.3.1.7 0 .9-.3Zm18.2 7.4c.3-.4.2-1-.2-1.3a49.5 49.5 0 0 0-6.7-3.8c-1.1-.5-2 1.2-.8 1.7 2.2 1 4.4 2.3 6.4 3.7.8.5 1.4-.4 1.3-.3Zm13.8 13.1c-1.4-2-3-4.2-4.6-6.1-.9-1-2.3.3-1.5 1.2 4.6 5.1 4.5 7 5.8 6.2.4-.3.5-.9.3-1.3ZM22 599.2c1.5-3 2.5-3.9 1.4-4.5a1 1 0 0 0-1.3.3l-1.8 3.4a1 1 0 1 0 1.7.8ZM31.8 653.6c-4.9-4.8-4.9-6.6-6.1-5.7a1 1 0 0 0-.2 1.3c1.5 2 3.2 4 5 5.7a1 1 0 0 0 1.3-1.3ZM48.3 665c.6-1.4-1.2-1-7-4.3-1.2-.6-2.1 1-1 1.6 2.2 1.3 4.5 2.3 6.8 3.3.5.1 1-.1 1.2-.6Zm19.2 2.8c0-1.5-1.5-.4-8.3-1.2-1.2-.1-1.4 1.7-.2 1.9 2.5.3 5 .4 7.6.3.5 0 1-.4.9-1Zm18.7-4.9a1 1 0 0 0-1.2-.4c-6.2 2.9-7.9 2.2-7.5 3.7.2.5.7.8 1.2.6a49 49 0 0 0 7-2.7c.5-.2.7-.7.5-1.2Zm15.3-11.9c-1.1-1-1.3.8-6.5 5.1-1 .8.2 2.2 1.1 1.5 2-1.6 3.8-3.4 5.5-5.3.3-.4.3-1 0-1.3Z"/><path d="M84.6 631.2a1.4 1.4 0 1 0-2.4-1.5c-.7 1.3-1.5 2.5-2.5 3.5-.2.2-5 6.2-14 6.7a20.4 20.4 0 1 1 10.7-37c8.3 6 6.5 12.6 9.4 11.7.8-.2 1.2-1 1-1.8a23 23 0 0 0-39.4-8.7 23.2 23.2 0 1 0 37.2 27ZM348.4 559.4c.3-.4.3-1 0-1.4l-2.6-4.4c-.4-.6-1.1-.8-1.7-.4-1.5 1-.1 2.1 2.1 6.1.4.6 1.2.8 1.8.5l.4-.4Z"/></g><path d="M388.1 347.7c-8 8.5-15.6 14-21.6 18.2-70.6 50.7-154.1 36-171.9 32.3-26.2-5.3-76.8-15.6-113.5-58.7-55.4-65.1-46.8-167.8-3.8-235.6 7.9-12.4 49.4-81.2 133.8-92.3 51.1-6.6 110.7 6.8 153.8 43 90.5 75.8 84.1 229 23.2 293.1Z" fill="#004080" opacity=".1"/><g opacity=".3" fill="#004080"><path d="M214.7 25.7c-6.5-3.8-7.9-3.5-7.2-4.9.4-.8 1.4-.4 1.3-.4 2.3 1 4.7 2.3 7 3.6.4.3.6.9.3 1.3a1 1 0 0 1-1.4.4Zm-26.3-11.5a1 1 0 0 1 1.2-.8l7.4 2.2c1.3.5.7 2.3-.6 1.9-2.4-.8-4.8-1.5-7.3-2.1a1 1 0 0 1-.8-1.2ZM231 37.4c-5.7-5-7-5-6.1-6.2a1 1 0 0 1 1.4-.2c2 1.5 4 3.2 6 4.9 1 .9-.3 2.3-1.3 1.5Zm-62.7-26c0-.5.5-1 1-1l7.8.7c1.3.2 1.1 2.1-.2 2a99 99 0 0 0-7.6-.6 1 1 0 0 1-1-1Zm-19.5 2.1a1 1 0 0 1-.6-.7 1 1 0 0 1 .8-1.2l7.7-.9c.6 0 1 .4 1.1 1 0 .5-.3 1-.9 1a100.2 100.2 0 0 0-8 .8Zm-19.4 5.2a1 1 0 0 1-.5-.6 1 1 0 0 1 .6-1.2c2.4-1 4.8-1.8 7.3-2.5a1 1 0 0 1 1.3.7c.1.5-.2 1-.7 1.2l-7.2 2.4a1 1 0 0 1-.8 0Zm-18.2 8.6a1 1 0 0 1 .2-1.4 98 98 0 0 1 6.7-3.9c1.1-.6 2.1 1.2 1 1.8a96.9 96.9 0 0 0-6.5 3.8 1 1 0 0 1-1.4-.3ZM95.7 39.8a1 1 0 0 1 0-1.4c1.8-1.8 3.7-3.5 5.7-5.1 1-.9 2.3.6 1.3 1.5-2 1.6-3.8 3.3-5.6 5a1 1 0 0 1-1.4 0ZM83 53.8l4.4-6.2c.8-1 2.4.2 1.6 1.3l-4.4 6c-.7 1.1-2.4 0-1.6-1Zm-9.3 17.8c1-2.4 2-4.8 3.1-7 .6-1.2 2.4-.3 1.8.9l-3 6.8a1 1 0 0 1-1.3.6 1 1 0 0 1-.6-1.3Zm-5.4 19.2 1.6-7.4a1 1 0 0 1 1.2-.7c1.5.4.5 1.1-.8 8.5 0 .5-.6.9-1.1.8a1 1 0 0 1-.9-1.2ZM242.4 49.2c-2.2-2.6-3.5-3.6-2.5-4.4a1 1 0 0 1 1.4 0c2.3 2.7 3.5 3.8 2.5 4.6-.3.2-1 .2-1.4-.2ZM264 122.9a1 1 0 0 1-.5-1l.4-4c0-.5.5-.9 1-.8.6 0 1 .5 1 1l-.4 4a1 1 0 0 1-1.4.8ZM259 143.6a1 1 0 0 1-.5-1.2 95 95 0 0 0 2.5-7.7 1 1 0 0 1 1.2-.7c.5.2.9.7.7 1.2a98 98 0 0 1-2.5 7.9 1 1 0 0 1-1.3.5Zm-9.5 19c-1.3-.8 0-1.2 3.7-8.3.6-1.1 2.4-.2 1.8 1a96.3 96.3 0 0 1-4.1 7 1 1 0 0 1-1.4.3ZM235.8 179c-1.1-1.1.3-1.2 5.5-7.3.9-1 2.4.3 1.5 1.3-1.7 2-3.6 4.1-5.6 6a1 1 0 0 1-1.4 0ZM219 192.3a1 1 0 0 1-.4-.4 1 1 0 0 1 .3-1.4c2.3-1.4 4.6-2.9 6.7-4.5a1 1 0 0 1 1.4.3c.4.4.3 1-.2 1.3a96.4 96.4 0 0 1-6.8 4.6 1 1 0 0 1-1 0Zm-19.5 9a1 1 0 0 1-.5-.5 1 1 0 0 1 .6-1.3c2.6-.8 5.1-1.8 7.6-2.9a1 1 0 0 1 1.3.5c.3.5 0 1.1-.5 1.3-2.5 1.1-5.1 2.1-7.7 3a1 1 0 0 1-.8 0Zm-21 4.7a1 1 0 0 1-.6-.8c-.1-.5.3-1 .8-1l8.1-1.3a1 1 0 0 1 1.2.8c.1.5-.2 1-.8 1.2a100.7 100.7 0 0 1-8.8 1.1Zm-21.8 0a1 1 0 0 1 .5-1.9l8.2.6c.6 0 1 .4 1 1 0 .5-.4 1-1 1a101.5 101.5 0 0 1-8.7-.7Zm-52.3-21.8c-2.1-1.7-4.3-3.6-6.3-5.5a1 1 0 0 1 0-1.4c1-1.1 1.2.3 7.6 5.4.4.3.5 1 .1 1.4a1 1 0 0 1-1.4.1Zm30.6 15.8c.4-1.4 1.2-.3 9.1 1.7.6.2.9.7.8 1.2a1 1 0 0 1-1.2.7c-2.7-.6-5.4-1.4-8-2.3a1 1 0 0 1-.7-1.3Zm-12-4c-2.5-1.2-5-2.6-7.4-4a1 1 0 0 1-.3-1.4c.8-1.3 1.2 0 8.6 3.7.5.2.7.8.4 1.3-.4.9-1.4.4-1.3.4ZM89 168.6c-2.2-2.7-3.4-3.8-2.3-4.5 1.1-.8 1.6.5 3.8 3.3.4.5.3 1-.1 1.4a1 1 0 0 1-1.4-.2ZM168.8 94.3a13.5 13.5 0 0 0-15.6 11.4 14 14 0 0 0 11.8 15.6c7.6 1.1 14.6-4 15.6-11.4a14 14 0 0 0-11.8-15.6Zm-4 28.5Zm-14.6-17.5c1.3-9 9.8-15.3 19-13.9a17 17 0 0 1 14.4 19c-1.3 9-9.8 15.2-19 13.8a17 17 0 0 1-14.4-19Z"/><path d="M149.5 146.1c-2.3-1-4.5-2.2-6.5-3.6a1.5 1.5 0 0 1-.4-2.1c.4-.7 1.4-.8 2-.4a39.9 39.9 0 0 0 59.8-17 40 40 0 0 0-22.2-51.8c-20.5-8.5-44 .9-52.2 21-5 12-2 20.5-2.6 21.8-.6 1.3-2.6 1-2.8-.4-1.3-8-.3-16.4 3.3-24.1 15.4-33.4 64.4-32 79 2.2a41.7 41.7 0 0 1-22.7 55.4 43.5 43.5 0 0 1-34.7-1ZM277.5 37.8a5.2 5.2 0 1 0 10.3.7 5.2 5.2 0 0 0-10.3-.7Zm4.7 6.6Zm-6.9-6.7a7.3 7.3 0 1 1 14.7 1 7.3 7.3 0 0 1-14.7-1ZM245.8 49.1l-.7-2.8c0-.4.2-.8.6-.9 1-.2.8.9 1.5 3.3a.7.7 0 0 1-1.4.4ZM286.2.6c0-.4.4-.6.8-.6 2 .2 4 .6 5.9 1.1 1 .3.5 1.7-.4 1.4a37 37 0 0 0-5.7-1 .7.7 0 0 1-.6-.9Zm-14.9 2.2a.7.7 0 0 1 0-1.4c2-.6 4-1 6-1.3a.7.7 0 0 1 .2 1.5c-2 .2-3.8.7-5.7 1.2h-.5ZM258 10.2l-.3-.2a.7.7 0 0 1 0-1c1.6-1.3 3.2-2.5 5-3.6a.7.7 0 1 1 .7 1.3c-1.6 1-3.2 2.1-4.7 3.4-.2.2-.5.2-.7.1Zm-9.5 12.1a.7.7 0 0 1-.3-1l3-5.1c.6-.8 1.8 0 1.2.8l-2.9 5c-.3.6-1 .3-1 .3Zm-4.1 14.3c0-2 .3-4 .7-6 .2-1 1.6-.7 1.4.3-1 5.2-.2 6.5-1.4 6.4a.7.7 0 0 1-.7-.7ZM303.6 7.7c-2.2-1.5-3.2-1.7-2.7-2.5.2-.4.7-.5 1-.3l2.5 1.6a.7.7 0 1 1-.8 1.2ZM319.3 33.5c-.3-2.7-.9-3.5.1-3.7.4-.1.8.1.9.5l.5 3a.7.7 0 0 1-1.5.2ZM318.2 48.2c1.5-5 .7-6.3 2-6.2.3 0 .6.4.6.8-.3 2-.7 4-1.2 5.8 0 .4-.5.6-.9.5a.7.7 0 0 1-.5-.9Zm-6.7 14.2c-1-.7.5-1.1 3.1-5.7.5-.8 1.8 0 1.3.8-1 1.7-2.1 3.3-3.4 4.8-.2.3-.7.4-1 .1Zm-11.8 9.4c-.6-1 .8-.9 5-4 .8-.6 1.7.6 1 1.1a38.6 38.6 0 0 1-5 3.2c-.4.2-.9 0-1-.3Zm-14.6 4c0-.4.2-.8.6-.8 5.3-.4 6.2-1.6 6.5-.4.1.4-.1.8-.5.9-2 .5-3.9.8-5.8 1a.7.7 0 0 1-.8-.7Zm-15-2.1c.4-1.1 1.2 0 6.4.9 1 .2.7 1.6-.2 1.4-2-.3-3.9-.8-5.7-1.4a.7.7 0 0 1-.5-.9ZM261.9 70.5l-2.5-1.7a.7.7 0 0 1 0-1c.5-.9 1.1 0 3.3 1.4.3.3.4.7.2 1-.2.4-.7.5-1 .3Z"/><path d="M273.8 53.7a1 1 0 1 1 1-1.9c1 .6 2 1 3.1 1.4.2 0 5.8 2.2 12.1-1a15.9 15.9 0 1 0-21.6-20.8c-3.4 7.3.4 11-1.9 11.6a1 1 0 0 1-1.3-.8 18 18 0 0 1 23.1-21.3 18 18 0 1 1-14.5 32.8ZM67.6 108a1 1 0 0 1-.6-.8v-4c0-.6.6-1 1.1-1 1.4.1.9 1.4 1 5 0 .6-.5 1-1 1a1 1 0 0 1-.5-.1Z"/></g><path d="M297.7 156.4a.9.9 0 0 0-1.5.1c-.8 2.8-2.6 7.6-6.5 9.3l-.6.3a2 2 0 0 1 .2-1.8c1.3-1.9-1-4.4-1-4.4s0 2.2-1.8 3.6c-1.4 1.2-2.1 4-1.1 6.1 2 8.2 5.2 19-7 26.9-12.3 7.9-29.6-15-29.6-15l8.6 27.3s13.2 9.7 28.6-4c15.4-13.7 5.2-33.7 5.2-33.7s11.8-4.8 6.5-14.7Z" fill="url(#a)"/><path d="M246.7 141.6s3.5-16-14.7-11.7c0 0-8.9-1.4-9.4 7 0 0-5.7 3.7-1.5 11 0 0-17-6.6-24.4 8.3-7.4 14.9-.6 23 6.6 25.2 0 0-5.8 2.9-3 9.4 2.7 6.6 16.5 11.2 24.7 3.2 0 0 23.3 3.1 22.8-13.3 0 0 10.8-7-.5-20.6-11.4-13.6-.6-18.5-.6-18.5Z" fill="#161F26"/><path d="M247.7 178.6a25 25 0 0 0-24.5 6.2 6.3 6.3 0 0 0-1.9 6.3c2.8 10 10 39.8 3.7 52.6 0 0 11 12.3 23.2 2.4 0 0 5.5-23.8 12.6-34.2 5-7.2-7.8-27-11-31.8a3.8 3.8 0 0 0-2.1-1.5Z" fill="#D22538"/><path d="M237.5 158.6s-5.4 15.4-5.8 22.2c0 0 6 2.7 11.7-2 0 0 .6-15.3 1.4-18l-7.3-2.2Z" fill="url(#b)"/><path d="M245 137.7s14.3 19.9 5.8 25.6c-8.5 5.8-18.6-8.3-18.6-8.3s-3.3-10.9.2-14.6c3.4-3.7 12.7-2.7 12.7-2.7Z" fill="url(#c)"/><path d="M238.5 133s6.5 1.5 7.4 4.4c1 3-9.2 5.7-12 5.9l-2.3 11.9s-6.8-11.2-4.1-17.7c2.6-6.5 11-4.6 11-4.6Z" fill="#161F26"/><path d="M235 153.5s-5.6-6.4-7.8-2.2 5 7.3 7.5 5.2l.3-3Z" fill="url(#d)"/><path d="M262.4 296c0 1 1.9 9.6 2.9 14.1.4 1.9.1 3.8-.8 5.4l-35.7 60-1 2.4c-.6 2.8-2 9.7-1.2 16l1.8 3.8-8-1.8-1.7-21.4 2.3-1.4c2-1.2 3.4-3 4.3-5 3.2-8 11.2-27.9 13.3-37.6 2.3-11 14.6-20 14.6-20l-2.1-5.1 11.3-9.5Z" fill="url(#e)"/><path d="M211.6 388.5s4.3-6.8 4.8-9.5c.5-2.6 1.9-7.3 4.6-5.9 0 0 1.2 13 .8 18-.5 5 5.7 4.8 5.7 4.8s1.7.3 3 1.5c.8.9.2 2.4-1 2.4-2 .2-5.2.2-8.6-.4-1.2-.3-2-1.3-2.1-2.5l-.9-14.8-5.4 6.8-1-.4Z" fill="#161F26"/><path d="m241.1 305.5-1.4 61.3c-.2 7.7 1.2 24.6 8.8 29.6l-3.3 2.5s-4.2-3.6-8.2-10.4c-4.6-7.6-6-9-6-9l1.5-3.1c.7-1.4.9-2.9.6-4.4-1.7-8-7.2-34.6-8.7-40.3a25.8 25.8 0 0 1 4.3-23.3c6.2-7.6 12.4-2.9 12.4-2.9Z" fill="url(#f)"/><path d="M234 401.3a.5.5 0 0 1-.4-.4c-.3-1.8-1.3-9-2.2-10.8-1-2.2-4.3-11.1 0-11.9 0 0 10.5 15.4 12.5 17.5 2 2 4.6.7 4.6.7s2 .6 3.5 2.5c.7.9 0 2.2-1.1 2.2l-7.1.1a5 5 0 0 1-4.7-3.1 26.7 26.7 0 0 0-5.9-9.8l1.3 12.5c0 .2-.2.5-.5.5ZM250 240.3s-1.7 5 .8 13.5L266 307c.2.8-.2 1.7-1 2-4.6 1.6-19.6 6.3-40 4.9-1-.1-2-.8-2.1-1.8l-7-31c-3.5-16.3-7.6-33.8 10.2-44.3 8.1 3.5 15.7 5.5 23.8 3.5Z" fill="#161F26"/><path d="M221.7 186.8s-17.3 14.5-21.6 34.1c-4.3 19.7 25.3 21.8 25.3 21.8s4-4.5 8.8-2.9c4.8 1.6.4-7.8-5.2-7.8-5.6 0-3 4.5-11 .9-7.6-3.5-12.4-14.3 7.3-30.7 1.1-.9 2-2.1 2.6-3.5 3.8-9.6.7-15.9-6.2-11.9Z" fill="url(#g)"/><path d="M51.2 320c-1.5 2.2-7.6 53.3-8.5 72.2-.1 1.3 1 2.4 2.2 2.4 1.1 0 2-.8 2.2-2l11.1-71-7-1.7ZM100 320c1.5 2.2 7.6 53.3 8.6 72.2a2.2 2.2 0 0 1-4.5.5L93 321.5l7-1.6Z" fill="#161F26"/><path d="M42 316v.5c0 4 3.4 7.3 7.8 7.4l51.3.8c4.3.1 7.8-3 8-7v-.4c.3-4.2-3.2-7.6-7.7-7.7l-51.3-1c-4.4 0-8 3.3-8 7.3Z" fill="#004080"/><path d="M131.2 387.3c-8.8 0-12.6-.7-14.4-1.4a3.3 3.3 0 0 0 3.3 2.6h31c1 0 1.7-1 1.4-2-3.5.4-11 .8-21.3.8Z" fill="#161F26"/><path d="m152.5 386.6-.2-.5c-2.4-3-7.1-7.8-13.6-7.7-9.4.1-12.7 1.2-20 0l-1.8 5.8c-.2.6-.2 1.2 0 1.7 1.7.7 5.5 1.4 14.3 1.4 10.3 0 17.8-.4 21.3-.7Z" fill="#161F26"/><path d="m120.7 372.3-2 7.2s4.6 2.1 8.8.4l.8-6.2-7.6-1.4Z" fill="url(#h)"/><path d="M185 382.8a44.4 44.4 0 0 1-12.1 7.9c1.1.9 2.9 1 4.1 0l24.2-19.5c.8-.6.7-1.8 0-2.4-2.7 2.5-8.2 7.6-16.2 14Z" fill="#161F26"/><path d="m201.1 368.8-.5-.2c-3.7-.9-10.4-1.6-15.3 2.5-7.3 6-9.3 9-15.7 12.7l2.3 5.5c.2.6.5 1 1 1.4 1.8-.6 5.3-2.4 12-8 8.1-6.3 13.6-11.4 16.2-13.9Z" fill="#161F26"/><path d="M75.2 289.8s52.5 4.3 63.3 9.4c10.7 5-8.8 76-8.8 76s-3 1.5-9.5-.6c0 0 6.7-52.4 1.7-63.7l-56.8-9.3 10.1-11.8Z" fill="#000"/><path d="M164.4 373.8c.5.4 5.2 10 5.2 10s5.3-1.2 6.4-4.5l-4.8-8.6-6.8 3.1Z" fill="url(#i)"/><path d="M43.6 289.4S42 293.5 42 299c.1 7.5 6.2 13.7 13.7 14l62 2.9a3 3 0 0 1 2.8 2.2c1.4 5.7 8.6 23 43.4 57.5 1 1 2.4 1 3.5.4l5-3.1c.4-.4.6-1 .3-1.6l-36.1-61.6a14 14 0 0 0-8.5-6.3l-52.9-13.6-31.6-.4Z" fill="#161F26"/><path d="M104.8 193s-6.7 11.8-13.5 17.5l14 7.8s3.2-12.4 10.4-16l-11-9.2Z" fill="url(#j)"/><path d="M42.5 289.8s16.8 4.1 32.7 0c0 0 22.4-30 31-38.2 0 0 13.8 21.8 44.6 24.9l1.7-3.9s-24.5-11.2-32-28.6c-7.5-17.3-10.6-24.7-17.4-29.2-4.3-2.8-6.8-4.7-8.1-5.8-.8-.5-1.8-.6-2.5-.1-7.3 4.4-41.5 27.8-50 81Z" fill="#D22538"/><path d="M105.3 251.2a1 1 0 0 1-.8-.4c-5.3-7-8.3-14.7-8.4-15a1 1 0 0 1 2-.7s3 7.7 8 14.4a1 1 0 0 1-.8 1.7Z" fill="#fff"/><path d="m149 270.6 3.4-.9 10.5-2.4c1.2-.3 2.6 0 3.7.6l9 5.7h-25l-1.7-3Z" fill="url(#k)"/><path d="M115.3 175.5s6.5 10.7 7.6 16.6c1.1 6 2.9 9.7-3.9 11.8-6.7 2.1-13-.6-17-6.1 0 0-6-8.5-5.4-12.4.6-4 18.7-10 18.7-10Z" fill="url(#l)"/><path d="m103.9 193.2.9-.1s-4.6-7-1.6-8.6c3-1.8 15.2-6 17.3-10.8 2-4.6-1-9.8-4.7-11-.2 0-.5.2-.6.4l-.2.6c-.1.4-.7.4-.9 0-.1-.4-.7-.4-.8 0-.7 1.4-2.6 3.9-8.5 5.8-8.3 2.7-13.5 6.9-12.9 12.8 0 .3-.3.6-.6.5-.7-.3-1.7-.4-3 1-2 2.2-.4 7.2 5.3 10.7.3.2.3.5 0 .8-.8.7-2 2.3 1.9 3.8 3.9 1.4 6 1 6.8.6.3 0 .4-.3.3-.5l-1-5.2c0-.3.2-.5.4-.6l1.9-.2Z" fill="#161F26"/><path d="M104.2 194.3s-2.8-7-5.8-4.6c-3 2.5 2.8 8 5.4 7.9l.4-3.3Z" fill="url(#m)"/><path d="M149.4 277H203.2a2.4 2.4 0 1 0 0-4.9l-53.7.1a2.4 2.4 0 0 0 0 4.8Z" fill="#004080"/><path d="m224 224.5-.1.1-22.6 48.6a2.4 2.4 0 1 0 4.3 2l22.6-48.6a2.4 2.4 0 0 0-4.3-2.1Z" fill="#004080"/><path d="M360.3 379.7s.6 3.3.8 7.2a3 3 0 0 1-2.8 3.2 137 137 0 0 1-27.2.4 1.4 1.4 0 0 1-.8-2.4 43.5 43.5 0 0 1 25.5-10.9l4.5 2.5Z" fill="#161F26"/><path d="m363.2 372.3-3 7.1c-.3 1-1.3 1.6-2.4 1.5-.7 0-1.5-.2-2.4-.5a3.1 3.1 0 0 1-2-3.8l2.1-7.4 7.7 3Z" fill="url(#n)"/><path d="M413 385.4s-5.9 4.9-8.1 11.1c-.6 1.7.7 3.6 2.5 3.6h12c1.8 0 3.1-1.6 2.8-3.4-.8-4.3-3-11.3-9.2-11.3Z" fill="#161F26"/><path d="m420.2 379-2 8.7c-.2.6-.9 1-1.5.7a10 10 0 0 0-4.4-.8c-.5.1-1-.3-1-.8v-8.7l9 1Z" fill="url(#o)"/><path d="M389.2 261.6 353.7 370s6.8 4.5 10 4.3l42.2-87s7.4 53.6 3.8 92l12 1s19.7-98.4 4.8-132l-37.3 13.4Z" fill="#161F26"/><path d="M405.7 286.2c.2 0 .3-.2.3-.4l-1.4-10.9c0-.2-.2-.3-.4-.3-.1 0-.3.2-.3.4l1.4 11 .4.2Z" fill="#000"/><path d="M382.5 166.4s28.8 2.5 24.7 23c0 0 16 30 23.3 65.1a2 2 0 0 1-1.6 2.5l-48 8.2c-1.2.2-2.5-.6-2.9-1.9l-11.4-44.2-4.5 20.6L348 236l11.9-60.5s1.7-8.8 22.6-9.1Z" fill="#004080"/><path d="M366.4 217.1c.2 0 .3-.2.3-.4l-4-18.3c0-.2-.2-.4-.4-.3-.2 0-.3.2-.3.4l4 18.3c0 .2.2.3.4.3Z" fill="#11569A"/><path d="M369.2 271.7c1.6-.9 3.3-1.1 5-.7l3.3.8c.7.2 1.4-.3 1.5-1l3.5-30.7c4.3 2 10.5 1.8 12.5 1.7l-7.9 36.1h-27.8l10-6.2Z" fill="url(#p)"/><path d="m295.5 205 .8-2.7a5.5 5.5 0 0 1 3.2-3.5l15.2-6.1s.2-2-3.2-3.3c-3.4-1.3-2.6-5.2-2.6-5.2l11.5 5.6c4 1.9 6.2 5.3 7.3 8l34.4 41.9-4 2.7a10.8 10.8 0 0 1-15.6-3.8l-18.7-35.7a69.5 69.5 0 0 1-28.3 2.2Z" fill="url(#q)"/><path d="m373.2 146.8 8.9 24.7s-7.9 6.2-13.6 4.1l-4.4-14.2s3.4-17.3 9.1-14.6Z" fill="url(#r)"/><path d="M346.8 137.9c0 .4 8.5 24.1 8.5 24.1l13.5-5.1-4.8-23.7s-17.2-1.7-17.2 4.7Z" fill="url(#s)"/><path d="m361.7 139 3.5 12.2v.5c0 1-.2 4.4-3.7 4-3.2-.4-6.1-.8-8 0-.8.5-1.2 1.4-.9 2.3.8 2.2 2.6 7 4.8 11 .5.7 1.5 1 2.3.7 2.6-1.2 7.8-3.8 11.6-6.8.5-.4.7-1 .6-1.7-.6-3.2-2.4-12.7-2.4-15.5-.1-2.5 2.8-4.5 4-5.2.5-.3.8-.7.9-1.1.4-1.7.7-5.4-4-6.3-1-.1-1.7-1-1.5-2 .4-2 .3-5-3.5-6-3.8-1.1-6.2 1.2-7.4 3-.5.6-1.5.9-2.2.5-.5-.2-1-.2-1.6.3-.8.7-2 .5-2.6-.4a5.3 5.3 0 0 0-6.6-2.2c-6 2-5.7 9-3.5 12.8 2.2 3.8 8.7 1.3 11.7-1.2 2.4-2 6-.8 7.5-.1.5.2.8.6 1 1.1Z" fill="#161F26"/><path d="M370.7 150.2s-3.6-6.8-1.2-9c2.4-2 6.4-1.7 6.3 3.6-.2 6.6-5.1 5.4-5.1 5.4Z" fill="url(#t)"/><path d="m392.3 242.2 3.5-.1h.2l10.5-48.9c0-.2 0-.4-.3-.4-.2 0-.4 0-.4.3l-10.4 48.3c-1.5.1-9.8.7-14.2-2.4l9-42.5-1.9-3.5c0-.2-.3-.3-.4-.2-.2.1-.3.3-.2.5l1.8 3.3-9.1 42.7h.2c3.1 2.5 8.2 3 11.7 3Z" fill="#11569A"/><path d="M101.6 394.3c-.2 0-.5 0-.7-.2-.9-.4-1.3-1.8-.9-2.9L136.4 283c.4-1.1 1.4-1.7 2.3-1.2.9.5 1.3 1.8 1 3L103.1 393c-.3.8-1 1.3-1.6 1.3Z" fill="#505050"/><path d="M142.6 394.3c-.6 0-1.3-.5-1.6-1.3l-36.4-108.4c-.4-1 0-2.4 1-2.9.8-.5 1.8 0 2.2 1.2l36.4 108.3c.4 1.2 0 2.5-.9 3l-.7.1ZM348.8 394.3c-.3 0-.5 0-.7-.2-.9-.4-1.3-1.8-1-2.9L383.7 283c.4-1.1 1.4-1.7 2.3-1.2.9.5 1.3 1.8.9 3L350.4 393c-.3.8-1 1.3-1.6 1.3Z" fill="#505050"/><path d="M389.8 394.3c-.7 0-1.3-.5-1.6-1.3l-36.4-108.4c-.4-1 0-2.4.9-2.9s1.9 0 2.3 1.2l36.4 108.3c.4 1.1 0 2.5-1 3l-.6.1Z" fill="#505050"/><path d="M402.6 276.6c.1-.6-.1-1.2-.7-1.7-.5-.5-1.4-.8-2.3-.8H96.1a4 4 0 0 0-3 1.1c-.6.7-.6 1.6-.1 2.4l3.2 5c.8 1 2.4 1.8 4.2 1.8h297.1c1.7 0 3.1-.8 3.5-2l1.6-5.8Z" fill="#505050"/><path d="M311.5 150.8S247 119 268.2 95.6c21-23.5 60.2-14.1 62.2 10.5 2 24.7-45.7 18.9-19 44.7Z" fill="#004080"/><path d="M273 101.6c0 .4.2.7.6.7H302a.6.6 0 1 0 0-1.3h-28.4c-.4 0-.6.2-.6.6ZM310.4 102.3h8.5c.3 0 .6-.3.6-.7 0-.4-.3-.6-.6-.6h-8.5a.7.7 0 0 0 0 1.3ZM272 107.4c0 .3.3.6.6.6h10.7a.6.6 0 1 0 0-1.3h-10.7c-.3 0-.6.3-.6.7ZM298.3 107.4c0 .3.3.6.7.6h19a.6.6 0 1 0 0-1.3h-19c-.4 0-.7.3-.7.7ZM271.7 113.8H300a.6.6 0 1 0 0-1.3h-28.3a.6.6 0 0 0 0 1.3ZM307.1 113.8h9.9c.3 0 .6-.3.6-.7 0-.4-.3-.6-.6-.6H307a.6.6 0 1 0 0 1.3Z" fill="#fff"/><defs><linearGradient id="a" x1="435.7" y1="1.1" x2="371.1" y2="104.6" gradientUnits="userSpaceOnUse"><stop stop-color="#FEBBBA"/><stop offset="1" stop-color="#FF928E"/></linearGradient><linearGradient id="b" x1="345.7" y1="83.6" x2="334" y2="57.5" gradientUnits="userSpaceOnUse"><stop stop-color="#FEBBBA"/><stop offset="1" stop-color="#FF928E"/></linearGradient><linearGradient id="c" x1="371.1" y1="-10.2" x2="345.6" y2="45" gradientUnits="userSpaceOnUse"><stop stop-color="#FEBBBA"/><stop offset="1" stop-color="#FF928E"/></linearGradient><linearGradient id="d" x1="345.1" y1="2.1" x2="320.5" y2="55.3" gradientUnits="userSpaceOnUse"><stop stop-color="#FEBBBA"/><stop offset="1" stop-color="#FF928E"/></linearGradient><linearGradient id="e" x1="255.7" y1="414.7" x2="336.7" y2="268.6" gradientUnits="userSpaceOnUse"><stop stop-color="#FEBBBA"/><stop offset="1" stop-color="#FF928E"/></linearGradient><linearGradient id="f" x1="326.3" y1="316.2" x2="210.6" y2="354.4" gradientUnits="userSpaceOnUse"><stop stop-color="#FEBBBA"/><stop offset="1" stop-color="#FF928E"/></linearGradient><linearGradient id="g" x1="261.3" y1="191.4" x2="376.4" y2="20.7" gradientUnits="userSpaceOnUse"><stop stop-color="#FEBBBA"/><stop offset="1" stop-color="#FF928E"/></linearGradient><linearGradient id="h" x1="118.6" y1="376.4" x2="128.3" y2="376.4" gradientUnits="userSpaceOnUse"><stop stop-color="#FEBBBA"/><stop offset="1" stop-color="#FF928E"/></linearGradient><linearGradient id="i" x1="164.4" y1="377.2" x2="176" y2="377.2" gradientUnits="userSpaceOnUse"><stop stop-color="#FEBBBA"/><stop offset="1" stop-color="#FF928E"/></linearGradient><linearGradient id="j" x1="128" y1="158" x2="134.9" y2="140.6" gradientUnits="userSpaceOnUse"><stop stop-color="#FEBBBA"/><stop offset="1" stop-color="#FF928E"/></linearGradient><linearGradient id="k" x1="148.9" y1="270.4" x2="175.6" y2="270.4" gradientUnits="userSpaceOnUse"><stop stop-color="#FEBBBA"/><stop offset="1" stop-color="#FF928E"/></linearGradient><linearGradient id="l" x1="160.2" y1="100.5" x2="127.3" y2="133.3" gradientUnits="userSpaceOnUse"><stop stop-color="#FEBBBA"/><stop offset="1" stop-color="#FF928E"/></linearGradient><linearGradient id="m" x1="146.5" y1="112.6" x2="115.1" y2="143.9" gradientUnits="userSpaceOnUse"><stop stop-color="#FEBBBA"/><stop offset="1" stop-color="#FF928E"/></linearGradient><linearGradient id="n" x1="617.1" y1="319" x2="621.5" y2="284.8" gradientUnits="userSpaceOnUse"><stop stop-color="#FEBBBA"/><stop offset="1" stop-color="#FF928E"/></linearGradient><linearGradient id="o" x1="820.7" y1="309.4" x2="825.6" y2="271.2" gradientUnits="userSpaceOnUse"><stop stop-color="#FEBBBA"/><stop offset="1" stop-color="#FF928E"/></linearGradient><linearGradient id="p" x1="738.2" y1="82" x2="673.6" y2="82" gradientUnits="userSpaceOnUse"><stop stop-color="#FEBBBA"/><stop offset="1" stop-color="#FF928E"/></linearGradient><linearGradient id="q" x1="623.8" y1="38" x2="512.5" y2="38" gradientUnits="userSpaceOnUse"><stop stop-color="#FEBBBA"/><stop offset="1" stop-color="#FF928E"/></linearGradient><linearGradient id="r" x1="699.1" y1="-50" x2="658.4" y2="-91.7" gradientUnits="userSpaceOnUse"><stop stop-color="#FEBBBA"/><stop offset="1" stop-color="#FF928E"/></linearGradient><linearGradient id="s" x1="618.5" y1="-98.8" x2="667.6" y2="-33.8" gradientUnits="userSpaceOnUse"><stop stop-color="#FEBBBA"/><stop offset="1" stop-color="#FF928E"/></linearGradient><linearGradient id="t" x1="703.1" y1="-56.6" x2="663" y2="-97.7" gradientUnits="userSpaceOnUse"><stop stop-color="#FEBBBA"/><stop offset="1" stop-color="#FF928E"/></linearGradient></defs></svg>