<svg width="768" height="657" fill="none" xmlns="http://www.w3.org/2000/svg"><path d="M-60.1 697.2A236.5 236.5 0 0 0-24 727.7c118.1 84.8 257.9 60 287.6 54 43.9-8.9 128.7-26.1 190-98.2 92.7-109 78.3-281 6.3-394.4-13.1-20.7-82.6-135.9-224-154.3-85.4-11.2-185 11.3-257.3 71.8C-172.8 333.6-162 590-60 697.2Z" fill="#004080" opacity=".1"/><g opacity=".3" fill="#004080"><path d="M483.8 539.3c2.9-9.3 4.3-10.2 2.6-10.9-1.2-.5-1.8.8-1.7.7a132 132 0 0 0-3.3 9.4c-.2.7.2 1.4.8 1.6.6.2 1.4-.1 1.6-.8Zm14.7-33.8c-.6-.4-1.4-.2-1.8.4-1.8 2.8-3.5 5.7-5 8.6-.9 1.5 1.3 2.7 2.1 1.2 1.6-2.9 3.3-5.7 5-8.4.4-.6.3-1.4-.3-1.8Zm-19.8 58.8c1-9.6 2.2-10.8.3-11-.7-.2-1.3.3-1.4 1-.6 3.2-1.1 6.5-1.4 9.8-.2 1.7 2.3 2 2.5.2Zm36.2-78.7c-.5-.5-1.3-.5-1.8 0-2.3 2.3-4.6 4.8-6.7 7.3-1.1 1.3.8 3 1.9 1.7 2-2.5 4.3-5 6.5-7.2.5-.5.6-1.3 0-1.8Zm20-15c.2-.4.2-.8 0-1.2-.4-.6-1.2-.8-1.8-.4l-8 5.8c-.6.5-.7 1.3-.2 1.8.4.6 1.2.7 1.7.3a127.9 127.9 0 0 1 8.4-6.3Zm22.7-12v-1c-.2-.6-1-1-1.6-.7-3 1.2-6 2.6-9 4-.6.4-.9 1.2-.6 1.8.3.6 1 .9 1.7.6a124 124 0 0 1 8.8-4c.3-.1.6-.4.7-.7Zm24.6-7.9c-.1-.7-.8-1.1-1.5-1-3.2.6-6.4 1.3-9.5 2.2-1.7.4-1 2.9.6 2.4 3-.8 6.2-1.5 9.3-2 .7-.2 1.2-.9 1-1.6Zm25.3-1.6c0-.8-.5-1.3-1.2-1.4-3.2 0-6.5 0-9.8.2-1.6 0-1.5 2.6.1 2.5 3.2-.1 6.4-.2 9.6-.1.7 0 1.3-.5 1.3-1.2Zm24.2 2c-3.1-.7-6.4-1.4-9.6-1.9-1.6-.3-2 2.3-.4 2.5 3.1.5 6.3 1.2 9.4 2 1.6.3 2.2-2.2.6-2.6Zm24 8.6c-2.9-1.4-6-2.7-8.9-3.8-1.6-.7-2.4 1.8-1 2.4 3 1 6 2.4 8.8 3.7.7.3 1.4 0 1.7-.6.3-.6 0-1.4-.5-1.7Zm21.8 13.4a122 122 0 0 0-8-5.6c-.5-.4-1.3-.2-1.7.4-1 1.6.6 1.4 8.2 7.2.5.5 1.3.4 1.8-.2.4-.6.3-1.4-.3-1.8ZM455.2 561.5c-.3-4.3.2-6.4-1.5-6.3-.7 0-1.3.6-1.2 1.3 0 4.5-.1 6.5 1.5 6.4.5 0 1.3-.7 1.2-1.4ZM498.9 649.4c.2-.5 0-1.1-.3-1.5l-3.8-3.3c-.5-.4-1.3-.4-1.8.1-.5.6-.4 1.4 0 1.8l4 3.4c.5.4 1.3.4 1.7-.2l.2-.3ZM521.6 664.4c.3-.6 0-1.3-.6-1.6-3-1.5-6-3.3-9-5-.5-.4-1.3-.2-1.7.4-.3.6-.2 1.4.4 1.7 3 1.9 6 3.6 9.2 5.2.6.3 1.3 0 1.7-.6Zm25.5 9.5c.5-2-1-1.1-10.7-4.5-1.6-.5-2.5 1.9-.9 2.4 3.3 1.2 6.7 2.2 10 3 .7.2 1.4-.2 1.6-.9Zm27 3.4c.1-2-1.3-.9-11.4-2-1.7-.1-2 2.4-.3 2.6 3.4.4 7 .6 10.5.7.7 0 1.2-.6 1.3-1.3Zm27.2-2 .1-.7c-.1-.7-.8-1.2-1.5-1a123 123 0 0 1-10.2 1.6c-.7.1-1.2.7-1.1 1.4 0 .8.7 1.3 1.4 1.2 3.4-.4 7-1 10.4-1.7.4 0 .8-.4 1-.8Zm26.2-8.4v-1c-.3-.6-1-1-1.7-.6-3.1 1.4-6.4 2.7-9.6 3.8-.7.2-1 1-.8 1.6.2.7.9 1 1.6.8 3.3-1.1 6.6-2.5 9.8-3.9.3-.1.5-.4.7-.7Zm23.8-14c.1-.4.1-.8-.2-1.2-.4-.6-1.2-.7-1.7-.3-2.8 2-5.7 4-8.7 5.9-.6.4-.7 1.2-.4 1.8.4.6 1.1.8 1.7.4a128.4 128.4 0 0 0 9.3-6.6Zm20.3-18.9c.2-.5 0-1-.4-1.4-.5-.5-1.3-.4-1.7.1-2.3 2.7-4.7 5.2-7.2 7.7-.5.5-.5 1.3 0 1.8.4.5 1.2.5 1.7 0a129.7 129.7 0 0 0 7.6-8.2Zm30-65.8c.6-3.5 1-7.1 1.2-10.7 0-.7-.5-1.3-1.2-1.3-2-.1-1 1.3-2.4 11.6-.1.8.3 1.4 1 1.5.7 0 1.4-.4 1.5-1.1Zm-14.8 41.3c-1.7-1-1.4.9-7.1 9.6-.4.6-.2 1.4.3 1.8.6.3 1.4.2 1.8-.4 2-3 3.8-6.1 5.5-9.2.3-.7 0-1.5-.5-1.8Zm7.7-14.1c1.3-3.3 2.5-6.8 3.5-10.2.1-.7-.2-1.4-.9-1.6-1.9-.5-1.2 1.2-5 11-.2.6.2 1.3.8 1.6 1.1.4 1.8-1 1.6-.8ZM702.7 540c-.3-4.4-.2-6.4-1.8-6.2-1.7.2-1 2-.7 6.5 0 .7.7 1.2 1.4 1.2.7-.1 1.2-.7 1.1-1.4ZM563.4 539.8c6-7.5 17-9 24.5-2.8 7.4 6 8.5 17.2 2.4 24.8-6 7.7-17 9-24.5 2.9-7.4-6.1-8.5-17.3-2.4-24.9Zm28.4 23.2Zm-1.5-29a21 21 0 0 0-29.8 3.4c-7.4 9.3-6.1 22.9 3 30.3a21 21 0 0 0 29.7-3.5c7.5-9.3 6.1-22.9-2.9-30.3Z"/><path d="M626.5 571.6c1.2-3 2.2-6 2.9-9.1a1.9 1.9 0 0 0-1.5-2.3 2 2 0 0 0-2.2 1.5 51 51 0 0 1-70.8 36.1 51 51 0 0 1-24.2-68 51 51 0 0 1 67.2-25.7c15 7 19.7 17.5 21.3 18.2 1.7.7 3.4-1.3 2.3-2.9a53.3 53.3 0 0 0-24-19.7c-43.5-18-88.2 26-72.2 70.8a53.3 53.3 0 0 0 69.5 32 55.6 55.6 0 0 0 31.7-31ZM412.4 581.4a6.6 6.6 0 1 1-9 9.5 6.6 6.6 0 0 1 9-9.5Zm1.3 10.2Zm.6-12.3a9.4 9.4 0 1 0-12.9 13.6 9.4 9.4 0 0 0 13-13.6ZM452 564.4l-1.9-3.3a1 1 0 0 0-1.3-.3c-1 .6 0 1.6 1.4 4.5a1 1 0 0 0 1.7-.9ZM372 554a1 1 0 0 0-1.3.2c-1.7 2-3.2 4-4.6 6.2-.6 1 1 2 1.6 1 1.3-2.1 2.8-4.1 4.4-6 .3-.4.2-1-.1-1.3Zm15.8-10.8a1 1 0 0 0-1.3-1.2 48.5 48.5 0 0 0-6.6 3.8 1 1 0 1 0 1 1.6c2-1.4 4.2-2.7 6.4-3.8.2 0 .4-.2.5-.4Zm19-4.8v-.4c0-.5-.4-1-.9-.9-2.5.1-5.1.4-7.6 1a1 1 0 1 0 .4 1.7c2.4-.4 4.8-.7 7.3-.8.4 0 .7-.3.8-.6Zm19.4 3.2c.2-.5 0-1-.5-1.2-2.4-1-4.9-1.7-7.4-2.2-1.2-.3-1.6 1.5-.4 1.8a47 47 0 0 1 7 2.1c1 .4 1.4-.6 1.3-.5Zm16.2 9.7a49.6 49.6 0 0 0-5.8-5c-1-.7-2 .8-1.1 1.5 5.5 4 5.8 6 7 4.8.3-.4.3-1 0-1.3ZM361.8 575.8c.8-3.3 1.5-4.3.3-4.7a1 1 0 0 0-1.1.6l-1 3.7c-.1.5.2 1 .7 1.1.5.1 1-.2 1.1-.7ZM369.5 613.6c-2-2.8-2.3-4-3.3-3.4a1 1 0 0 0-.3 1.3l2 3.2a1 1 0 0 0 1.6-1.1ZM383.3 626.5c-5.8-3.5-6.2-5.3-7.2-4.1a1 1 0 0 0 .1 1.3c2 1.6 4 3 6.2 4.4a1 1 0 0 0 1-1.6Zm18.6 7.4c.3-1.5-1.4-.6-7.8-2.6-1.2-.4-1.8 1.4-.6 1.8 2.4.7 4.9 1.3 7.4 1.6.5.1 1-.3 1-.8Zm19.3-1.5c-.4-1.5-1.6 0-8.3.7-1.2.1-1 2 .2 1.8 2.5-.2 5-.7 7.4-1.3.5-.2.8-.7.7-1.2Zm17.1-9a1 1 0 0 0-1.3 0c-5.3 4.1-7.1 3.9-6.4 5.2.3.5.8.6 1.3.4 2.2-1.3 4.3-2.7 6.2-4.2.5-.3.5-1 .2-1.3Zm12.2-14.9c-1.3-.7-1.1 1.1-5.2 6.5-.8 1 .7 2 1.5 1.1 1.5-2 2.9-4.1 4.1-6.3.2-.5 0-1-.4-1.3ZM455.4 598.4l.8-3.7c.1-.5-.2-1-.7-1.1-1.3-.2-1 1.2-1.9 4.3-.1.5.2 1 .7 1.1.5.2 1-.1 1.1-.6Z"/><path d="M429.7 593a1.4 1.4 0 1 0-2.6-.9c-.4 1.4-1 2.7-1.7 4-.2.2-3.5 7.1-12.2 9.6a20.3 20.3 0 1 1 2.2-38.3c9.4 4 9.2 10.7 11.8 9.2.7-.4.9-1.2.5-1.9a23 23 0 1 0 2 18.3ZM670.1 464.8c.2-.5.1-1-.2-1.4l-3.5-3.7c-.5-.5-1.3-.4-1.8 0-1.2 1.3.3 2.1 3.4 5.5.5.5 1.3.5 1.8 0 .2-.1.3-.3.3-.4Z"/></g><g opacity=".3" fill="#004080"><path d="M663 198c-8.4 4.8-10 4.5-9.3 6.2.6 1.1 1.9.6 1.7.6 3-1.4 6-3 8.9-4.6.6-.4.8-1.1.5-1.7-.4-.6-1.1-.8-1.8-.5Zm-33.7 14.8c.2.6.9 1 1.6.9 3.2-.8 6.4-1.8 9.5-2.8 1.6-.6.9-3-.8-2.4-3 1-6.2 2-9.3 2.7-.7.2-1.1.9-1 1.6Zm54.5-29.7c-7.2 6.4-9 6.4-7.8 8 .4.5 1.2.6 1.8.2 2.6-2 5.2-4.1 7.7-6.3 1.3-1.1-.4-3-1.7-1.9Zm-80 33.2c0 .7.5 1.2 1.3 1.2l9.9-.9c1.7-.2 1.4-2.7-.3-2.5-3.2.4-6.5.7-9.7.8-.7 0-1.3.7-1.3 1.4Zm-25-2.7c-.4.2-.7.5-.7 1-.2.6.3 1.3 1 1.4 3.2.5 6.5.9 9.8 1.2.7 0 1.4-.5 1.4-1.2.1-.7-.4-1.3-1.1-1.3a127.5 127.5 0 0 1-10.4-1.1ZM554 207c-.3.1-.5.4-.6.7-.3.6 0 1.4.7 1.6 3 1.2 6.2 2.2 9.3 3.1.7.2 1.4-.1 1.6-.8.3-.7-.1-1.4-.8-1.6l-9.2-3c-.3-.2-.7-.2-1 0Zm-23.3-11c-.4.6-.2 1.4.3 1.8a125 125 0 0 0 8.5 5c1.5.7 2.8-1.5 1.3-2.3-2.8-1.5-5.6-3.2-8.3-4.9-.6-.3-1.4-.2-1.8.4ZM511 180c-.6.5-.6 1.3 0 1.8 2.3 2.3 4.7 4.5 7.2 6.6 1.3 1 3-1 1.7-2a120 120 0 0 1-7.1-6.4c-.5-.5-1.3-.5-1.8 0Zm-16.4-18c1.8 2.8 3.8 5.4 5.8 8 1 1.3 3-.3 2-1.6-2-2.5-3.8-5-5.6-7.7-1-1.4-3 0-2.2 1.4ZM483 139.5c1.1 3 2.5 6 3.9 9 .7 1.5 3 .3 2.3-1.2l-3.9-8.7c-.2-.7-1-1-1.6-.7-.7.2-1 1-.7 1.6Zm-7-24.6 2 9.5c.3.7 1 1.1 1.6 1 2-.6.6-1.6-1-11-.1-.7-.8-1.1-1.5-1-.7.1-1.1.8-1 1.5ZM699 201.2c-2.6 3.3-4.4 4.5-3 5.6.5.5 1.3.4 1.7-.1 3-3.4 4.5-4.7 3.2-5.7-.4-.3-1.4-.4-1.8.2ZM726.8 107c-.5.2-.8.8-.7 1.3l.5 5c0 .7.7 1.2 1.4 1.1.7 0 1.2-.7 1.2-1.3l-.6-5.1a1.3 1.3 0 0 0-1.8-1ZM720.4 80.5c-.6.3-.9 1-.6 1.6a121 121 0 0 1 3 9.8c.2.7 1 1 1.6.9.7-.2 1.1-.9 1-1.6-1-3.3-2-6.7-3.2-10a1.3 1.3 0 0 0-1.8-.7Zm-12.2-24.3c-1.7 1.1 0 1.6 4.8 10.7.7 1.4 3 .2 2.3-1.2-1.7-3.1-3.5-6.2-5.4-9-.3-.7-1.1-.8-1.7-.5Zm-17.5-20.9c-1.5 1.5.3 1.6 7 9.3 1.1 1.3 3-.4 2-1.6a122 122 0 0 0-7.2-7.7c-.5-.5-1.3-.5-1.8 0Zm-21.3-17-.6.5c-.3.6-.2 1.4.4 1.8 3 1.8 5.9 3.7 8.6 5.7.6.4 1.4.3 1.8-.3.5-.5.3-1.3-.2-1.7-2.8-2-5.8-4-8.8-5.9-.4-.2-.8-.2-1.2 0Zm-25-11.6c-.2.2-.5.4-.6.8-.2.6.1 1.4.8 1.6 3.2 1 6.5 2.3 9.7 3.7.6.3 1.4 0 1.7-.6.3-.7 0-1.4-.7-1.7a128 128 0 0 0-9.9-3.8h-1ZM617.6.8c-.4.2-.7.6-.7 1-.1.7.4 1.3 1 1.4 3.5.4 7 .9 10.4 1.6.7 0 1.4-.4 1.5-1 .2-.7-.3-1.4-1-1.5A128.3 128.3 0 0 0 617.6.8Zm-27.7 0c-.5.3-.8.8-.7 1.3 0 .7.7 1.2 1.4 1.2 3.4-.4 7-.7 10.4-.8.7 0 1.3-.6 1.3-1.3 0-.7-.6-1.2-1.3-1.2a130 130 0 0 0-11 .9ZM523 28.8a129 129 0 0 0-8.1 7c-.5.5-.6 1.3 0 1.8 1.3 1.4 1.5-.4 9.7-6.9.5-.4.6-1.2.2-1.8-.5-.5-1.3-.6-1.8-.1Zm39-20.2c.6 1.8 1.6.3 11.7-2.2.7-.2 1-.9 1-1.6-.2-.6-1-1-1.6-.9-3.5.9-7 2-10.3 3-.7.3-1 1-.8 1.7Zm-15.3 5c-3.2 1.6-6.4 3.4-9.4 5.2-.6.4-.8 1.1-.5 1.7 1 1.7 1.6 0 11-4.6.6-.3 1-1 .6-1.7-.5-1-1.9-.5-1.7-.6ZM503 48.6c-2.7 3.4-4.2 4.9-2.8 5.8 1.4 1 2-.7 4.9-4.3.4-.6.3-1.3-.2-1.8-.6-.4-1.4-.3-1.8.3ZM605 143.5c-9.5 1.4-18.5-5-19.9-14.6a17.8 17.8 0 0 1 15.2-19.8c9.6-1.5 18.5 5 19.9 14.5a17.8 17.8 0 0 1-15.2 19.9Zm-5-36.3Zm-18.7 22.3a21 21 0 0 0 24.3 17.7A21.7 21.7 0 0 0 624 123a21 21 0 0 0-24.3-17.7 21.7 21.7 0 0 0-18.4 24.2Z"/><path d="M580.4 77.3c-3 1.3-5.7 3-8.3 4.7a1.9 1.9 0 0 0-.5 2.7 2 2 0 0 0 2.6.4 51 51 0 0 1 76.5 21.7 51 51 0 0 1-28.5 66.3 51 51 0 0 1-66.8-27c-6.3-15.3-2.5-26.1-3.2-27.7-.8-1.7-3.4-1.3-3.7.5a53.3 53.3 0 0 0 4.3 30.8c19.6 42.7 82.3 41 101-2.8a53.3 53.3 0 0 0-29.1-70.8 55.6 55.6 0 0 0-44.3 1.2ZM744 215.7a6.6 6.6 0 1 1 13.1-.8 6.6 6.6 0 0 1-13.1.8Zm6-8.4Zm-8.8 8.6a9.4 9.4 0 1 0 18.7-1.2 9.4 9.4 0 0 0-18.7 1.2ZM703.5 201.3l-1 3.6c0 .5.3 1 .8 1.1 1.3.3 1-1.1 2-4.2a1 1 0 1 0-1.8-.5ZM755 263.2c.1.5.6.9 1.1.8 2.6-.3 5-.7 7.5-1.4 1.2-.3.7-2.1-.5-1.8-2.3.6-4.7 1.1-7.2 1.4a1 1 0 0 0-.8 1Zm-19-2.7a1 1 0 0 0 .1 1.7c2.5.8 5 1.3 7.6 1.7a1 1 0 1 0 .2-1.9c-2.4-.3-4.8-.9-7.2-1.6a1 1 0 0 0-.6 0ZM719 251c-.1 0-.3.1-.3.3a1 1 0 0 0 0 1.3c2 1.6 4 3.1 6.3 4.5.4.3 1 .1 1.2-.3.3-.5.2-1-.3-1.3-2-1.3-4-2.8-6-4.3a1 1 0 0 0-1-.2Zm-12-15.5a1 1 0 0 0-.5 1.2c1.1 2.3 2.4 4.6 3.9 6.7.7 1 2.2-.1 1.5-1.1-1.4-2-2.6-4.2-3.7-6.4-.4-.8-1.4-.4-1.3-.4Zm-5.4-18.2c.1 2.5.4 5 1 7.6.2 1.3 2 .9 1.8-.3-1.4-6.7-.3-8.3-1.9-8.2a1 1 0 0 0-.9 1ZM796 202.4c1.8 6.5 1 8.1 2.5 8 .5-.1.8-.6.8-1.1-.3-2.5-.8-5-1.5-7.4a1 1 0 0 0-1.8.5Zm-8.6-18.1c-1.2 1 .6 1.4 4 7.3.6 1 2.2 0 1.6-1a49.1 49.1 0 0 0-4.3-6.2 1 1 0 0 0-1.3-.1Zm-15.1-12c-.8 1.4 1 1.1 6.5 5.1 1 .8 2.1-.7 1.1-1.5-2-1.5-4.2-2.8-6.4-4a1 1 0 0 0-1.2.4Zm-18.7-5c0 .4.4.9.9 1 6.8.5 8 1.9 8.3.4a1 1 0 0 0-.7-1.1c-2.4-.6-5-1-7.5-1.2a1 1 0 0 0-1 .8Zm-19 2.6c.4 1.4 1.5 0 8.1-1.2 1.2-.2 1-2-.3-1.8-2.5.4-5 1-7.3 1.8a1 1 0 0 0-.6 1.2ZM724 174l-3 2.2a1 1 0 0 0-.3 1.3c.8 1 1.6-.2 4.3-2 .5-.2.6-.8.3-1.2a1 1 0 0 0-1.3-.3Z"/><path d="M739.2 195.4a1.4 1.4 0 1 0 1.3 2.4c1.3-.7 2.6-1.3 4-1.7.3 0 7.4-2.9 15.5 1.2a20.3 20.3 0 1 1-27.7 26.5c-4.3-9.2.6-14-2.4-14.7-.7-.1-1.5.3-1.7 1a23 23 0 0 0 29.6 27.2 23 23 0 1 0-18.6-42ZM475.8 126c-.5.1-.8.6-.8 1v5.2c.1.7.7 1.2 1.4 1.2 1.7-.1 1.1-1.8 1.2-6.4 0-.7-.6-1.2-1.3-1.2l-.5.1Z"/></g><path d="M562.8 314.8c.5-1 1.9-.8 2.2.2 1 3.9 3.6 10.6 9 13l.8.3c.3-.7.3-1.6-.3-2.5-1.7-2.5 1.3-6 1.3-6s.2 3 2.6 5c2 1.7 3 5.4 1.6 8.5-3 11.4-7.3 26.5 9.8 37.5 17.2 11 41.3-20.8 41.3-20.8l-12 38s-18.5 13.7-40-5.5-7.2-47.1-7.2-47.1-16.4-6.7-9.1-20.6Z" fill="url(#a)"/><path d="M634.1 294.2s-5-22.3 20.6-16.4c0 0 12.3-2 13 9.7 0 0 8 5.3 2.1 15.4 0 0 23.7-9.2 34 11.6 10.4 20.8 1 32.3-9 35.2 0 0 8 4 4.2 13.2s-23.2 15.6-34.6 4.5c0 0-32.5 4.3-31.9-18.7 0 0-15-9.7.8-28.7 15.9-19 .8-25.8.8-25.8Z" fill="#161F26"/><path d="M632.7 345.9a35 35 0 0 1 34.3 8.7 8.8 8.8 0 0 1 2.5 8.7c-3.8 14-13.9 55.6-5 73.5 0 0-15.6 17.2-32.6 3.4 0 0-7.6-33.2-17.5-47.8-7-10 11-37.7 15.4-44.4.7-1 1.7-1.8 3-2.1Z" fill="#D22538"/><path d="M646.9 318s7.5 21.4 8.1 30.9c0 0-8.4 3.8-16.3-2.7 0 0-.8-21.4-2-25.2l10.2-3Z" fill="url(#b)"/><path d="M636.3 288.7s-19.8 27.8-8 35.8c12 8 26-11.6 26-11.6s4.6-15.2-.2-20.4c-4.8-5.1-17.8-3.8-17.8-3.8Z" fill="url(#c)"/><path d="M645.5 282s-9.1 2.2-10.4 6.4c-1.3 4 13 7.9 17 8l3.1 16.7s9.5-15.6 5.7-24.7c-3.7-9-15.4-6.3-15.4-6.3Z" fill="#161F26"/><path d="M650.5 310.8s7.7-9 10.8-3c3 5.7-7 10.1-10.4 7.3l-.4-4.3Z" fill="url(#d)"/><path d="M612.1 509.8a265 265 0 0 1-4 19.8c-.6 2.6-.2 5.3 1.1 7.6l49.9 83.8c.6 1 1 2.1 1.3 3.3.9 4 2.8 13.6 1.8 22.4l-2.6 5.3 11.2-2.5 2.4-30-3.2-1.9a15 15 0 0 1-6-7c-4.5-11-15.7-38.9-18.6-52.5-3.3-15.4-20.4-28-20.4-28l3-7-15.9-13.3Z" fill="url(#e)"/><path d="M683.2 639.2s-6-9.6-6.8-13.3c-.7-3.7-2.7-10.3-6.4-8.3 0 0-1.7 18-1.1 25.1.6 7-8 6.8-8 6.8s-2.3.4-4 2.1c-1.3 1.2-.4 3.3 1.3 3.4 2.8.2 7.2.2 12-.7a3.7 3.7 0 0 0 2.9-3.4l1.2-20.7 7.6 9.5 1.3-.5Z" fill="#161F26"/><path d="m641.9 523.2 2 85.6c.2 10.7-1.7 34.3-12.4 41.4l4.7 3.4s5.8-5 11.5-14.4a87.6 87.6 0 0 1 8.3-12.6l-2.2-4.4c-.9-1.9-1.1-4-.7-6 2.3-11.3 10-48.4 12-56.4a36 36 0 0 0-5.9-32.6c-8.6-10.6-17.3-4-17.3-4Z" fill="url(#f)"/><path d="M651.8 657c.3 0 .6-.2.6-.6.4-2.5 1.9-12.5 3-15 1.5-3 6-15.6 0-16.6 0 0-14.7 21.5-17.5 24.4-2.8 2.9-6.4 1-6.4 1s-2.7.8-4.8 3.4a2 2 0 0 0 1.5 3.2h10a7 7 0 0 0 6.5-4.3 37.2 37.2 0 0 1 8.2-13.6l-1.8 17.4c0 .4.3.7.7.7ZM629.6 432s2.2 7.2-1.2 19L607 525.2c-.3 1.1.3 2.4 1.4 2.8a142 142 0 0 0 56 6.7 3.2 3.2 0 0 0 2.9-2.5L677 489c5-22.7 10.7-47-14-61.8-11.5 4.8-22.1 7.7-33.4 4.9Z" fill="#161F26"/><path d="M669 357.4s24.2 20.1 30.2 47.6-35.4 30.5-35.4 30.5-5.6-6.3-12.3-4c-6.6 2.2-.5-11 7.3-11s4.2 6.2 15.3 1.2c10.7-4.9 17.4-20-10-42.8-1.7-1.3-3-3-3.7-5-5.3-13.4-1.1-22.2 8.6-16.5Z" fill="url(#g)"/><path d="M543.6 307s89.9-44.5 60.5-77.2c-29.4-32.7-84.2-19.6-87 14.8-2.8 34.5 64 26.4 26.5 62.4Z" fill="#004080"/><path d="M597.4 238.3c0 .5-.4.9-1 .9h-39.6a1 1 0 1 1 0-1.8h39.7c.5 0 .9.4.9.9ZM598.7 246.3c0 .5-.4 1-.9 1H583a.9.9 0 1 1 0-1.9h15c.4 0 .8.4.8 1ZM599.2 255.3h-39.7a1 1 0 1 1 0-1.9h39.7a1 1 0 0 1 0 1.9Z" fill="#fff"/><defs><linearGradient id="a" x1="370" y1="97.8" x2="460.2" y2="242.4" gradientUnits="userSpaceOnUse"><stop stop-color="#FEBBBA"/><stop offset="1" stop-color="#FF928E"/></linearGradient><linearGradient id="b" x1="495.7" y1="213.2" x2="512.1" y2="176.6" gradientUnits="userSpaceOnUse"><stop stop-color="#FEBBBA"/><stop offset="1" stop-color="#FF928E"/></linearGradient><linearGradient id="c" x1="460.3" y1="82.1" x2="495.9" y2="159.2" gradientUnits="userSpaceOnUse"><stop stop-color="#FEBBBA"/><stop offset="1" stop-color="#FF928E"/></linearGradient><linearGradient id="d" x1="496.6" y1="99.3" x2="530.9" y2="173.6" gradientUnits="userSpaceOnUse"><stop stop-color="#FEBBBA"/><stop offset="1" stop-color="#FF928E"/></linearGradient><linearGradient id="e" x1="621.5" y1="675.7" x2="508.4" y2="471.6" gradientUnits="userSpaceOnUse"><stop stop-color="#FEBBBA"/><stop offset="1" stop-color="#FF928E"/></linearGradient><linearGradient id="f" x1="522.9" y1="538" x2="684.5" y2="591.4" gradientUnits="userSpaceOnUse"><stop stop-color="#FEBBBA"/><stop offset="1" stop-color="#FF928E"/></linearGradient><linearGradient id="g" x1="613.7" y1="363.8" x2="452.8" y2="125.2" gradientUnits="userSpaceOnUse"><stop stop-color="#FEBBBA"/><stop offset="1" stop-color="#FF928E"/></linearGradient></defs></svg>