<svg width="73" height="76" fill="none" xmlns="http://www.w3.org/2000/svg"><path d="M67 40H57v20h10V40ZM33 40H23v20h10V40ZM50 40H40v20h10V40ZM16 40H6v20h10V40ZM38 13v-3h8a1 1 0 0 0 1-1V1a1 1 0 0 0-1-1h-9a1 1 0 0 0-2 1v12L0 25v7h73v-7L38 13ZM35 36v-1H21v1a1 1 0 0 0 1 2h12a1 1 0 0 0 1-2ZM52 36v-1H38v1a1 1 0 0 0 1 2h12a1 1 0 0 0 1-2ZM69 36v-1H55v1a1 1 0 0 0 1 2h12a1 1 0 0 0 1-2ZM18 36v-1H4v1a1 1 0 0 0 1 2h12a1 1 0 0 0 1-2ZM38 66h14v-2a1 1 0 0 0-1-1H39a1 1 0 0 0-1 1v2ZM21 66h14v-2a1 1 0 0 0-1-1H22a1 1 0 0 0-1 1v2ZM4 66h14v-2a1 1 0 0 0-1-1H5a1 1 0 0 0-1 1v2ZM55 66h14v-2a1 1 0 0 0-1-1H56a1 1 0 0 0-1 1v2ZM69 68H4a4 4 0 0 0-4 4v3a1 1 0 0 0 1 1h71a1 1 0 0 0 1-1v-3a4 4 0 0 0-4-4Z" fill="#120A59"/></svg>