<svg width="40" height="40" viewBox="0 0 40 40" fill="none" xmlns="http://www.w3.org/2000/svg">
<path d="M35 22H30V32H35V22Z" fill="#3B4853"/>
<path d="M18 22H13V32H18V22Z" fill="#3B4853"/>
<path d="M27 22H21V32H27V22Z" fill="#3B4853"/>
<path d="M9 22H4V32H9V22Z" fill="#3B4853"/>
<path d="M20.5982 7.85309V6.16998H24.8936C25.0522 6.16998 25.2044 6.10642 25.3166 5.99329C25.4288 5.88015 25.4918 5.72671 25.4918 5.56671V1.60326C25.4918 1.44327 25.4288 1.28983 25.3166 1.17669C25.2044 1.06356 25.0522 1 24.8936 1H20C19.8413 1 19.6892 1.06356 19.577 1.17669C19.4648 1.28983 19.4018 1.44327 19.4018 1.60326V7.85309L1 14.2718V18H39V14.2718L20.5982 7.85309Z" fill="#3B4853"/>
<path d="M19 19.6094V19H12V19.6094C12 19.713 12.0599 19.8123 12.1666 19.8856C12.2732 19.9588 12.4178 20 12.5686 20H18.4314C18.5822 20 18.7268 19.9588 18.8334 19.8856C18.9401 19.8123 19 19.713 19 19.6094Z" fill="#3B4853"/>
<path d="M28 19.6094V19H20V19.6094C20 19.713 20.0685 19.8123 20.1903 19.8856C20.3122 19.9588 20.4775 20 20.6499 20H27.3501C27.5225 20 27.6878 19.9588 27.8097 19.8856C27.9315 19.8123 28 19.713 28 19.6094Z" fill="#3B4853"/>
<path d="M36 19.6094V19H29V19.6094C29 19.713 29.0599 19.8123 29.1664 19.8856C29.273 19.9588 29.4175 20 29.5682 20H35.4318C35.5825 20 35.727 19.9588 35.8336 19.8856C35.9401 19.8123 36 19.713 36 19.6094Z" fill="#3B4853"/>
<path d="M10 19.6094V19H3V19.6094C3 19.713 3.05991 19.8123 3.16655 19.8856C3.27319 19.9588 3.41783 20 3.56864 20H9.43136C9.58217 20 9.72681 19.9588 9.83345 19.8856C9.94009 19.8123 10 19.713 10 19.6094Z" fill="#3B4853"/>
<path d="M20 35H28V33.7843C28 33.5763 27.9315 33.3768 27.8097 33.2297C27.6878 33.0826 27.5225 33 27.3501 33H20.6499C20.4775 33 20.3122 33.0826 20.1903 33.2297C20.0685 33.3768 20 33.5763 20 33.7843V35Z" fill="#3B4853"/>
<path d="M12 35H19V33.7843C19 33.5763 18.9401 33.3768 18.8334 33.2297C18.7268 33.0826 18.5822 33 18.4314 33H12.5686C12.4178 33 12.2732 33.0826 12.1666 33.2297C12.0599 33.3768 12 33.5763 12 33.7843V35Z" fill="#3B4853"/>
<path d="M3 35H10V33.7812C10 33.574 9.94009 33.3753 9.83345 33.2288C9.72681 33.0823 9.58217 33 9.43136 33H3.56864C3.41783 33 3.27319 33.0823 3.16655 33.2288C3.05991 33.3753 3 33.574 3 33.7812V35Z" fill="#3B4853"/>
<path d="M29 35H36V33.7843C36 33.5763 35.9401 33.3768 35.8336 33.2297C35.727 33.0826 35.5825 33 35.4318 33H29.5682C29.4175 33 29.273 33.0826 29.1664 33.2297C29.0599 33.3768 29 33.5763 29 33.7843V35Z" fill="#3B4853"/>
<path d="M35.8521 36H3.15375C2.58349 36.003 2.03746 36.2288 1.63422 36.6282C1.23097 37.0276 1.00307 37.5685 1 38.1333V39.4203C1 39.574 1.06166 39.7215 1.17142 39.8302C1.28118 39.9389 1.43004 40 1.58526 40H37.4147C37.57 40 37.7188 39.9389 37.8286 39.8302C37.9383 39.7215 38 39.574 38 39.4203V38.1333C37.9985 37.569 37.7719 37.0281 37.3696 36.6286C36.9672 36.229 36.4218 36.0031 35.8521 36Z" fill="#3B4853"/>
</svg>
