<svg width="40" height="40" viewBox="0 0 40 40" fill="none" xmlns="http://www.w3.org/2000/svg">
<path d="M2.88014 10.6113C2.44558 9.29303 2.54989 7.95344 3.17414 6.83966C3.78429 5.75174 4.82739 5.00005 6.11132 4.72417C6.46891 4.64759 6.83333 4.60906 7.19872 4.60922C7.50479 4.60928 7.81032 4.63537 8.11213 4.68722V3.02742C7.33409 2.92315 6.54436 2.95355 5.77624 3.11733C4.036 3.49174 2.61433 4.52424 1.7726 6.02475C0.916782 7.55112 0.765755 9.36569 1.35053 11.1347C1.91719 12.8524 3.11373 14.3209 4.71945 15.27C5.89143 15.9626 7.18301 16.3202 8.46493 16.3202C8.54105 16.3202 8.61677 16.3202 8.69289 16.3161C8.52278 15.7788 8.38955 15.2301 8.29417 14.6739C5.93371 14.6 3.65743 12.9661 2.88014 10.6113Z" fill="#3B4853"/>
<path d="M38.2289 6.02474C37.3871 4.52423 35.9655 3.49173 34.2252 3.11732C33.4571 2.95355 32.6674 2.92316 31.8893 3.02741V4.6868C32.5534 4.57197 33.2327 4.58464 33.8922 4.72416C35.1761 5.00004 36.2192 5.7505 36.8294 6.83965C37.4536 7.95344 37.5583 9.29302 37.1234 10.6113C36.3461 12.9665 34.0694 14.6004 31.7073 14.6756C31.6119 15.2317 31.4787 15.7804 31.3086 16.3177C31.3843 16.3206 31.4604 16.3218 31.5365 16.3218C32.8173 16.3218 34.1092 15.9638 35.282 15.2717C36.8878 14.3225 38.0843 12.854 38.6509 11.1363C39.2357 9.36568 39.0847 7.55111 38.2289 6.02474Z" fill="#3B4853"/>
<path d="M8.69336 3.17878V12.5253C8.69296 13.2333 8.75632 13.9398 8.88265 14.636C8.98099 15.1791 9.11788 15.7142 9.29225 16.2371C10.6407 20.2806 14.1325 23.3158 18.3888 23.9345V33.5085H15.0826V35.7156H12.0157V39H27.9844V35.7156H24.9186V33.5085H21.6108V23.9345C25.8671 23.3158 29.3594 20.2806 30.7078 16.2359C30.8822 15.713 31.0191 15.1779 31.1174 14.6347C31.2437 13.9386 31.3071 13.2321 31.3067 12.5241V1H8.69336V3.17878ZM18.6156 9.07591L20.1058 4.40058L21.5959 9.07632H26.4193L25.5904 9.69009L22.5174 11.9658L24.0076 16.6415L20.1058 13.7516L16.2039 16.6411L17.6941 11.9654L14.3915 9.51971L13.7922 9.07591H18.6156Z" fill="#3B4853"/>
</svg>
