<svg width="72" height="77" fill="none" xmlns="http://www.w3.org/2000/svg"><path d="M58 47H45l-2 2v3l2 1h13l2-1v-3l-2-2Z" fill="#120A59"/><path d="m37 52 7 7a2 2 0 0 0 3-1V42a2 2 0 0 0-2-2l-1 1-7 7a3 3 0 0 0 0 4ZM63 70H49a2 2 0 0 1-2-2v-3a2 2 0 0 1 2-2h14a1 1 0 0 1 1 1v5a1 1 0 0 1-1 1Z" fill="#120A59"/><path d="m70 65-7-8a2 2 0 0 0-3 2v15a2 2 0 0 0 1 2 2 2 0 0 0 2 0l7-8a3 3 0 0 0 0-3ZM30 52v-4c1-3 4-7 11-11a20 20 0 0 0-4-36c-5-2-10-1-15 1a20 20 0 0 0 0 35 5 5 0 0 1-3 4C9 45 1 53 1 61v5a4 4 0 0 0 4 4h32a3 3 0 0 0 2-1 4 4 0 0 0 0-6l-2-2c-3-2-5-5-7-9Z" fill="#120A59"/></svg>