<svg width="40" height="40" viewBox="0 0 40 40" fill="none" xmlns="http://www.w3.org/2000/svg">
<path d="M31.3989 24.3164H24.6499C24.1863 24.3164 23.8105 24.6815 23.8105 25.1318V26.7737C23.8105 27.224 24.1863 27.5891 24.6499 27.5891H31.3989C31.8624 27.5891 32.2382 27.224 32.2382 26.7737V25.1318C32.2382 24.6815 31.8624 24.3164 31.3989 24.3164Z" fill="#3B4853"/>
<path d="M20.3146 26.8657L23.8788 30.5293C24.0216 30.6795 24.2077 30.7844 24.4129 30.8302C24.618 30.876 24.8325 30.8607 25.0286 30.7862C25.2263 30.7098 25.3957 30.5773 25.5146 30.4059C25.6336 30.2346 25.6966 30.0323 25.6954 29.8256V22.0851C25.6966 21.8784 25.6336 21.6762 25.5146 21.5048C25.3957 21.3335 25.2263 21.2009 25.0286 21.1245C24.8325 21.0501 24.618 21.0347 24.4129 21.0806C24.2077 21.1264 24.0216 21.2312 23.8788 21.3814L20.3146 25.0451C20.0761 25.2915 19.9434 25.6171 19.9434 25.9554C19.9434 26.2937 20.0761 26.6192 20.3146 26.8657Z" fill="#3B4853"/>
<path d="M33.5849 35.7219H26.56C26.3374 35.7219 26.1239 35.636 25.9665 35.4831C25.8091 35.3302 25.7207 35.1228 25.7207 34.9065V33.2646C25.7207 33.0483 25.8091 32.841 25.9665 32.688C26.1239 32.5351 26.3374 32.4492 26.56 32.4492H33.5849C33.7324 32.4492 33.874 32.5053 33.9793 32.6056C34.0846 32.7058 34.1453 32.8421 34.1483 32.9854V35.2193C34.1453 35.3625 34.0846 35.4988 33.9793 35.5991C33.874 35.6993 33.7324 35.7554 33.5849 35.7554V35.7219Z" fill="#3B4853"/>
<path d="M37.6193 33.1779L34.0666 29.5143C33.9238 29.3641 33.7377 29.2592 33.5326 29.2134C33.3274 29.1675 33.1129 29.1829 32.9169 29.2574C32.7192 29.3337 32.5498 29.4663 32.4308 29.6376C32.3118 29.809 32.2488 30.0112 32.25 30.2179V37.9696C32.2488 38.1763 32.3118 38.3785 32.4308 38.5499C32.5498 38.7213 32.7192 38.8538 32.9169 38.9302C33.1129 39.0047 33.3274 39.02 33.5326 38.9742C33.7377 38.9284 33.9238 38.8235 34.0666 38.6733L37.6193 35.0097C37.8638 34.7639 38.0004 34.4355 38.0004 34.0938C38.0004 33.752 37.8638 33.4236 37.6193 33.1779Z" fill="#3B4853"/>
<path d="M17.0042 26.8622C16.7942 26.1315 16.7942 25.359 17.0042 24.6283C17.464 23.1874 18.9127 21.4785 22.5114 19.3674C23.6879 18.7369 24.7224 17.8839 25.554 16.8586C26.3855 15.8333 26.9973 14.6566 27.3531 13.3979C27.7089 12.1392 27.8015 10.824 27.6256 9.52997C27.4496 8.23592 27.0086 6.98922 26.3286 5.86344C25.0264 3.71846 22.9388 2.12997 20.4832 1.41554C18.0277 0.701116 15.385 0.913398 13.0835 2.00995C11.4597 2.82016 10.0933 4.04435 9.13092 5.55134C8.16852 7.05834 7.64635 8.79132 7.62036 10.5646C7.59437 12.3379 8.06554 14.0846 8.98337 15.6176C9.90121 17.1506 11.2311 18.4121 12.8306 19.2669C12.8442 19.7676 12.6933 20.2595 12.3997 20.6712C12.1062 21.0829 11.6852 21.3931 11.1979 21.5567C5.93212 23.3661 2 27.1414 2 31.3412V33.6756C2 34.2177 2.22167 34.7376 2.61626 35.121C3.01084 35.5043 3.54601 35.7197 4.10403 35.7197H20.5339C20.7461 35.701 20.9511 35.6348 21.1326 35.5263C21.3141 35.4178 21.4673 35.2699 21.5801 35.0942C21.8978 34.6778 22.0567 34.1672 22.0294 33.6496C22.0021 33.132 21.7905 32.6397 21.4307 32.2571L20.7523 31.5199C19.1796 30.2408 17.9024 28.6536 17.0042 26.8622Z" fill="#3B4853"/>
</svg>
