<svg width="40" height="40" viewBox="0 0 40 40" fill="none" xmlns="http://www.w3.org/2000/svg">
<path d="M17.7847 29.4482C17.7847 29.8463 18.1132 30.125 18.4827 30.125H21.5624C21.973 30.125 22.2605 29.8065 22.2605 29.4482V27.8955C22.9175 27.6964 23.5745 27.4575 24.1494 27.139L25.2991 28.2538C25.5865 28.5325 26.0382 28.5325 26.2846 28.2538L28.4609 26.1437C28.7484 25.865 28.7484 25.4271 28.4609 25.1882L27.3112 24.0735C27.6397 23.5161 27.9271 22.8791 28.0914 22.2421H29.6928C30.1034 22.2421 30.3909 21.9236 30.3909 21.5652V18.5793C30.3909 18.1812 30.0624 17.9025 29.6928 17.9025H28.0914C27.886 17.2655 27.6397 16.6285 27.3112 16.0711L28.4609 14.9563C28.7484 14.6776 28.7484 14.2397 28.4609 14.0008L26.2846 11.8907C25.9972 11.612 25.5455 11.612 25.2991 11.8907L24.1494 13.0055C23.5745 12.687 22.9175 12.4083 22.2605 12.249V10.6963C22.2605 10.2982 21.932 10.0195 21.5624 10.0195H18.4827C18.0721 10.0195 17.7847 10.338 17.7847 10.6963V12.249C17.1277 12.4481 16.4707 12.687 15.8958 13.0055L14.746 11.8907C14.4586 11.612 14.0069 11.612 13.7605 11.8907L11.5842 14.0008C11.2968 14.2795 11.2968 14.7174 11.5842 14.9563L12.734 16.0711C12.4055 16.6285 12.118 17.2655 11.9538 17.9025H10.3524C9.94173 17.9025 9.6543 18.221 9.6543 18.5793V21.5652C9.6543 21.9634 9.9828 22.2421 10.3524 22.2421H11.9538C12.1591 22.8791 12.4055 23.5161 12.734 24.0735L11.5842 25.1882C11.2968 25.4669 11.2968 25.9048 11.5842 26.1437L13.7605 28.2538C14.048 28.5325 14.4997 28.5325 14.746 28.2538L15.8958 27.139C16.4707 27.4575 17.1277 27.7362 17.7847 27.8955V29.4482ZM14.9103 20.0125C14.9103 17.2655 17.2098 15.0758 20.002 15.0758C22.8354 15.0758 25.0938 17.3053 25.0938 20.0125C25.0938 22.7198 22.8354 24.9493 20.002 24.9493C17.2098 24.9493 14.9103 22.7596 14.9103 20.0125Z" fill="#3B4853"/>
<path d="M5.01206 20.0106C5.01206 12.0082 11.7463 5.47894 19.9999 5.47894H20.0409L19.3018 6.19557C18.8912 6.5937 18.8912 7.19089 19.3018 7.58902C19.5071 7.78808 19.7535 7.86771 20.0409 7.86771C20.2873 7.86771 20.5747 7.78808 20.7801 7.58902L23.2849 5.16044C23.4902 4.96137 23.5723 4.7225 23.5723 4.44381C23.5723 4.16512 23.4491 3.92624 23.2849 3.72718L20.7801 1.2986C20.3694 0.900468 19.7535 0.900468 19.3429 1.2986C18.9322 1.69672 18.9322 2.29392 19.3429 2.69204L20.082 3.40867H20.0409C10.6376 3.52811 3 10.9333 3 20.0106C3 24.6289 4.88887 28.8889 8.33812 32.0341C8.54344 32.1933 8.78981 32.3128 9.03619 32.3128C9.32362 32.3128 9.57 32.1933 9.77531 31.9943C10.1449 31.5961 10.1449 30.9591 9.73425 30.6008C6.69562 27.8139 5.01206 24.0715 5.01206 20.0106Z" fill="#3B4853"/>
<path d="M37 20.0101C37 15.3918 35.1111 11.1318 31.6619 7.98661C31.2512 7.6283 30.5942 7.6283 30.2247 8.02643C29.8551 8.46437 29.8551 9.06156 30.2657 9.45969C33.3044 12.2068 34.9879 15.989 34.9879 20.0101C34.9879 28.0125 28.2537 34.5418 20.0001 34.5418C20.0001 34.5418 20.0001 34.5418 19.9591 34.5418L20.6982 33.8251C21.1088 33.427 21.1088 32.8298 20.6982 32.4317C20.2876 32.0335 19.6716 32.0335 19.261 32.4317L16.7562 34.8603C16.5509 35.0593 16.4688 35.2982 16.4688 35.5769C16.4688 35.8556 16.5919 36.0945 16.7562 36.2935L19.261 38.7221C19.4663 38.9212 19.7127 39.0008 20.0001 39.0008C20.2465 39.0008 20.5339 38.9212 20.7392 38.7221C21.1499 38.324 21.1499 37.7268 20.7392 37.3287L20.0001 36.612C20.0001 36.612 20.0001 36.612 20.0412 36.612C29.3624 36.4926 37 29.0874 37 20.0101Z" fill="#3B4853"/>
</svg>
