<svg width="66" height="76" fill="none" xmlns="http://www.w3.org/2000/svg"><path d="m29 57 1 1h6l1-1v-3l4-2 2 3h2l4-5v-2l-2-2 2-4h3l1-1v-6l-1-1h-3l-2-4 2-2v-2l-4-4h-2l-2 2-4-2v-3l-1-1h-6l-1 1v3l-4 2-2-2h-2l-4 4v2l2 2-2 4h-3l-1 1v6l1 1h3l2 4-2 2v2l4 5h2l2-3 4 2v3Zm-6-19a10 10 0 1 1 20 0 10 10 0 0 1-20 0Z" fill="#120A59"/><path d="M4 38C4 22 17 9 33 9l-1 1v3l1 1 2-1 4-5 1-1-1-2-4-4h-3v2l1 2C15 5 0 20 0 38c0 9 4 18 10 24l2 1a2 2 0 0 0 1-4c-6-5-9-13-9-21ZM66 38c0-9-4-18-10-24h-3v3c6 5 9 13 9 21 0 16-13 29-29 29l1-1v-3h-2l-5 5-1 1 1 2 5 4 1 1 1-1v-2l-1-2c18 0 33-15 33-33Z" fill="#120A59"/></svg>