<svg width="719" height="549" fill="none" xmlns="http://www.w3.org/2000/svg"><path d="M706 257c7 137-290 272-423 279A271 271 0 0 1 12 287C5 150 69 40 203 34c133-7 497 85 503 223Z" fill="#EEF6FE"/><path d="M433 157 240 267c-14 8-62 21-78 12s6-37 20-45l184-105c6-3 13-3 18 0l49 28Z" fill="#F4F4F4"/><path d="m392 138-7 2-22-13-177 102-69 25s-28 24-24 28c4 3 42 17 42 17 13 5 37 5 57 0 14-4 28-10 41-17l183-106c2-1 4-3 4-5l8-38-36 5Z" fill="url(#a)"/><path d="m385 140-14-8-4 2-8-5-174 100-69 25s-28 24-24 28l29 12a170 170 0 0 0 94-23l210-121 3-17-36 5-7 2Z" fill="url(#b)"/><path d="M166 302s-22-1-33-10l-5-4h-24l29 11c8 3 21 4 34 3h-1Z" fill="url(#c)"/><path d="M192 299c-20 5-44 5-57 0a1071 1071 0 0 1-3-3c12 0 26-3 36-5 12 6 25 6 31 5l-7 3Zm-75-7a225 225 0 0 1-24-11c0-5 17-20 24-26l69-25 174-100 7 4 4-2 14 8 7-2 20-2-277 126 20 20 11 8c-12 3-32 6-45 4l-4-2Zm246-164 7 4-3 1-6-4 2-1Zm29 9-7 2-13-8h-1l-8-4-3 1-174 101-69 25h-1c-1 1-24 21-24 27v1l2 1c7 4 40 16 41 17 7 2 15 4 25 4s22-2 32-5c14-3 28-9 41-16l184-107 4-5 4-21 4-17-37 4Z" fill="#004080"/><path d="M428 133 197 267c-19 10-83 27-104 15-22-13 8-49 26-60L351 89l77 44Z" fill="#004080"/><path d="M417 135h9l1-1-45-26 15 16 20 11Z" fill="#8ED7F4"/><path d="M351 89 120 223c-13 7-34 30-34 46 0 6 3 10 7 13 22 12 86-5 104-15l231-134-77-44ZM116 287c-10 0-18-1-23-4s-8-8-8-14c0-16 21-39 35-47L351 88l78 45-232 134c-13 8-53 20-81 20Z" fill="#004080"/><path d="M352 111 120 245c-9 5-19 19-24 30l4 3c17 10 76-4 90-12l215-124-53-31Z" fill="url(#d)"/><path d="m418 133-67-39-231 134h-1a40 40 0 0 0-2 2h-1l-5 4-1 1 2 13 6-5 233-134 53 31-215 124c-15 8-73 22-91 12l-3-3c3-8 9-17 16-24l-2-13v-1 1c-9 9-17 20-17 29v4a12 12 0 0 0 2 4v1l4 3c4 3 11 4 20 4 24 0 60-10 71-16l229-131v-1Z" fill="url(#e)"/><path d="m350 109 1-14 65 38-12 7-54-31Z" fill="#3E8DC6"/><path d="m350 109 54 30 12-6-65-37-1 13Zm54 31-55-31 1-15 67 39-13 7Z" fill="#004080"/><path d="M316 131V72l85 10v59l-2 3-29 16h-6l-47-27-1-2Z" fill="url(#f)"/><path d="m370 100 30-17c1-1 1-2-1-3l-47-28h-6l-29 17c-2 1-2 3 0 4l47 27h6Z" fill="url(#g)"/><path d="m316 65 1 2 47 27 6 1 30-18 1-1v7l-1 2-30 17h-6l-47-28c-1 0-2-1-1-2v-7Z" fill="url(#h)"/><path d="m323 64 23-14h5l42 24c2 1 2 2 1 3l-6 3-36-21h-5l-19 10-5-3v-2Z" fill="url(#i)"/><path d="m323 68 42 24h5l24-13v-3l-43-24h-5l-23 13c-2 1-1 2 0 3Zm-6-3 29-17c1-1 4 0 6 1l47 26c2 1 2 3 1 4l-30 17c-1 1-4 0-6-1l-47-26c-2-1-2-3 0-4Z" fill="url(#j)"/><path d="m356 111 4 2v-7l-4-3v8Zm5 4-6-4v-9l6 3v10ZM349 107l4 2v-7l-4-2v7Zm5 4-6-4v-9l6 4v9ZM341 102l5 3v-8l-5-2v7Zm6 4-7-3v-9l7 3v9ZM335 99l4 2v-7l-4-3v8Zm4 4-5-4v-9l5 3v10ZM327 94l4 3v-8l-4-2v7Zm5 4-5-3V85l5 4v9ZM320 90l4 3v-7l-4-3v7Zm5 4-6-3v-9l6 3v9ZM356 122l4 2v-7l-4-3v8Zm5 4-6-4v-9l6 3v10ZM349 117l4 3v-8l-4-2v7Zm5 4-6-4v-9l6 4v9ZM341 113l5 3v-8l-5-2v7Zm6 4-7-3v-9l7 3v9ZM335 109l4 2v-6l-4-3v7Zm4 4-5-4v-8l5 3v9ZM327 105l4 3v-8l-4-2v7Zm5 4-5-3V96l5 4v9ZM320 101l4 2v-7l-4-2v7Zm5 4-6-4v-8l6 3v9ZM394 76l-5 3-37-21h-5v-8h4l42 24 1 2Zm-24 14h-5l-36-21 18-10h4l37 21-18 10Zm24-16-43-25h-5l-24 14-1 2 1 2 6 3 37 21 3 1 2-1 19-10 5-4 1-1-1-2Z" fill="#004080"/><path d="m400 76-1 1-29 17h-5l-47-27-1-1h-1v-1l1-1 29-17h3l3 1 47 27 1 1Zm-34 26v-6h2v6h-2Zm0 58v-57h2v57h-2Zm-2-59-46-27-2-1 1-6v1l47 27v6Zm0 59-46-28-2-1 1-56 47 27v58Zm37-77v-7l-2-2-47-27h-6l-29 17-1 1v66c-1 1 0 2 1 2l47 28h7l27-16 3-3V83Z" fill="#004080"/><path d="m362 75-5-49-8-4v56l2 1h5l5-3 1-1Z" fill="url(#k)"/><path d="m356 21-3 3-3-1v-1l3-2h3v1Z" fill="url(#l)"/><path d="m351 78-1-1V29a4 4 0 0 0 3 0l2 50-4-1Zm-1-56a4 4 0 0 0 3 1v5h-2l-1-1v-5Zm1-1 3-2 1-1 1 1h1l-1 1-3 1h-3 1Zm11 53-4-48v-7l-1-1h-4l-3 2-1 1v56l1 1 1 1 3 1 2-1 5-3 1-2Z" fill="#004080"/><path d="m357 25-4 3v1h1l4-3v-1h-1Z" fill="url(#m)"/><path d="M393 95v7l4-2v-8l-4 3Zm-1 9V94l6-3v9l-6 4Z" fill="url(#n)"/><path d="M386 98v8l4-3v-7l-4 2Zm-1 9v-9l6-4v10l-6 3Z" fill="url(#o)"/><path d="M379 103v7l4-2v-8l-4 3Zm-1 9v-9l5-4v9l-5 4Z" fill="url(#p)"/><path d="M371 107v7l4-2v-8l-4 3Zm0 9v-10l5-3v9l-5 4Z" fill="url(#q)"/><path d="M393 105v7l4-2v-7l-4 2Zm-1 9v-9l6-3v8l-6 4Z" fill="url(#r)"/><path d="M386 109v8l4-3v-7l-4 2Zm-1 9v-9l6-4v10l-6 3Z" fill="url(#s)"/><path d="M379 114v7l4-2v-7l-4 2Zm-1 9v-9l5-4v9l-5 4Z" fill="url(#t)"/><path d="M371 118v7l4-2v-8l-4 3Zm0 9v-10l5-3v9l-5 4Z" fill="url(#u)"/><path d="m322 135 8 5v-17l-8-5v17Zm9 6-10-6v-19l10 7v18Z" fill="#004080"/><path d="M323 129v-8l5 4v7l-5-3Z" fill="#004080"/><path d="m384 75-10-5-10 5v3l10 5v-2l10-6Z" fill="url(#v)"/><path d="M365 78v-2l4 2 5 3v2l-9-5Zm18-2-9 5-9-5 9-5 9 5Zm1-1-10-5-10 5v4l10 5 10-5v-4Z" fill="#004080"/><path d="m380 76-6 3-5-3 5-3 6 3Z" fill="#E2E1DF"/><path d="m369 76 5 3 5-3-5-3-5 3Zm5 4-6-4 6-4 7 4-7 4Z" fill="#004080"/><path d="m401 83-31 18-2 1v1l3-1 30-17v-2Z" fill="url(#w)"/><path d="m113 273-5-49-8-4v56l1 1h5l6-3 1-1Z" fill="url(#x)"/><path d="m108 219-4 2h-3v-2l3-1h3l1 1Z" fill="url(#y)"/><path d="m102 276-1-1v-48a4 4 0 0 0 2 0l2 50-3-1Zm-1-56 2 1v5h-2v-6Zm0-1 3-2h3v1l-3 2-3-1Zm12 53-5-48v-7l-1-1h-3l-3 2-1 1v57l1 1 3 1 2-1 6-3 1-2Z" fill="#004080"/><path d="m108 223-4 2v2-1l4-2v-1Z" fill="url(#z)"/><path d="m121 250 18-11 18 11-18 10-18-10Z" fill="#E2E1DF"/><path d="m121 252 18-11 18 11-18 10-18-10Z" fill="#fff"/><path d="M121 259v-9l18 11v9l-18-11Z" fill="url(#A)"/><path d="M140 248c2 0 2 1 2 2l5 2 1-2c0-3-4-5-9-5l1 3Z" fill="#E2E1DF"/><path d="m143 249 3 2 1-1c0-3-3-5-7-5l1 2 2 2Zm4 3-5-2v-1l-2-1-1-4h1c4 0 8 3 8 6l-1 2Z" fill="#004080"/><path d="m141 251-1-1-3 1-4 2 6 2 7-2-5-2Z" fill="#E2E1DF"/><path d="m134 254 5 1 6-2-4-1h-1v-1l-1 1h-2l-3 2Zm5 2-6-2-1-1 5-2h1l2-1 1 1 6 2-1 1-7 2Z" fill="#004080"/><path d="m136 250 2-2 1-3c-5 0-8 2-8 5l1 2 4-2Z" fill="#E2E1DF"/><path d="M138 245c-4 0-7 3-7 5l1 2 3-2v-1l2-2 1-2Zm-7 8-1-3c0-3 4-6 8-6h1l-1 4-2 2-5 3Z" fill="#004080"/><path d="m142 250-3 1-3-1 2-3 1 1 1-1 2 3Z" fill="url(#B)"/><path d="m138 248-1 2 2 1 3-1-1-2h-1l-1 1-1-1Zm1 4c-2 0-3-1-3-2l2-3h1v1l1-1h1l2 3-4 2Z" fill="#004080"/><path d="m141 248-2 1-2-1 2-1 2 1Z" fill="#E2E1DF"/><path d="m141 249-2 1-2-1 2-1 2 1Z" fill="#fff"/><path d="m139 247-1 1h3l-2-1Zm0 2-2-1 2-2c2 0 3 1 3 2l-3 1Z" fill="#004080"/><path d="m121 251 3 2 15 8v7l-18-10v-7Zm18-11 17 11-13 7-4 2-17-9 17-11Zm18 10-18-11-18 11h-1v9l19 11 19-11v-9h-1Z" fill="#004080"/><path d="m321 152 18-11 18 11-18 10-18-10Z" fill="url(#C)"/><path d="m321 153 18-11 18 11-18 10-18-10Z" fill="url(#D)"/><path d="M321 160v-9l18 11v9l-18-11Z" fill="url(#E)"/><path d="M340 149c2 0 2 1 2 2l5 2 1-2c0-3-4-5-9-5l1 3Z" fill="url(#F)"/><path d="m343 151 3 1 1-1c0-2-3-4-7-4l1 2 2 2Zm4 2-5-2-2-1-1-4h1c4 0 8 2 8 5l-1 2Z" fill="#004080"/><path d="m341 152-1-1-3 1-4 2 6 2 7-2-5-2Z" fill="url(#G)"/><path d="m334 155 5 1 6-2-4-1h-1v-1l-1 1h-2l-3 2Zm5 2-6-2-1-1 5-2h1l2-1 1 1 6 2-1 1-7 2Z" fill="#004080"/><path d="m336 151 2-2v-3c-4 0-7 2-7 5l1 2 4-2Z" fill="url(#H)"/><path d="M338 147c-4 0-7 2-7 4l1 2 3-2 2-2 1-2Zm-7 7-1-3c0-3 4-5 8-5v4l-2 1v1l-5 2Z" fill="#004080"/><path d="M342 151c0 1-1 2-3 2s-3-1-3-2l2-3 1 1 1-1 2 3Z" fill="url(#I)"/><path d="m338 149-1 2 2 1 3-1-1-2h-1l-1 1-1-1Zm1 4c-2 0-3-1-3-2l2-3h1v1l1-1h1l2 3-4 2Z" fill="#004080"/><path d="m341 149-2 1-2-1 2-1 2 1Z" fill="url(#J)"/><path d="m341 150-2 1-2-1 2-1 2 1Z" fill="url(#K)"/><path d="m339 148-1 1 1 1 2-1-2-1Zm0 2-2-1 2-1 3 1-3 1Z" fill="#004080"/><path d="m321 153 3 1 15 9v7l-18-10v-7Zm18-12 17 11-14 8-3 2-17-10 17-11Zm18 10-18-11-18 11-1 1v8l19 12 19-11v-9l-1-1Z" fill="#004080"/><path d="M260 162v-26l49 28v27l-49-29Z" fill="url(#L)"/><path d="m260 135 18-10 49 28-18 10-49-28Z" fill="#E2E1DF"/><path d="M309 164v2l-49-28v-2l49 28Z" fill="url(#M)"/><path d="m261 136 17-9 49 28-16 10-50-29Z" fill="#fff"/><path d="m309 163-49-28 18-10 48 28-17 10Zm-1 1v1l-48-28v-1l48 28Zm0 26-4-2v-24l4 2v24Zm-40-23-4-3v-23l4 2v24Zm4 2-4-2v-24l4 3v23Zm5 3-4-2v-24l4 2v24Zm4 2-4-2v-23l4 2v23Zm5 3-4-2v-24l4 2v24Zm4 3-4-3v-23l4 2v24Zm5-21v23l-4-2v-24l4 3Zm4 26-4-2v-24l4 2v24Zm1-23 4 2v24l-4-3v-23Zm-40-24 3 2v24l-3-2v-24Zm18-14-19 11v27l50 30 18-11v-28l-49-29Z" fill="#004080"/><path d="M327 155v-1l-19 11v1l10-5v25h1v-26l8-5Z" fill="#E2E1DF"/><path d="M239 174v-26l50 28v27l-50-29Z" fill="#8ED7F4"/><path d="m239 147 19-11 49 29-18 10-50-28Z" fill="#D7D6D4"/><path d="M289 176v2l-50-29v-2l50 29Z" fill="#3E8DC6"/><path d="m241 148 17-10 49 29-16 9-50-28Z" fill="#F5F5F5"/><path d="m288 175-48-28 17-10 49 28-18 10Zm0 1v1l-49-28v-1l49 28Zm0 26-4-2v-24l4 2v24Zm-41-24-3-2v-23l3 2v23Zm5 3-4-2v-24l4 3v23Zm5 3-4-3v-23l4 2v24Zm4 2-4-2v-23l4 2v23Zm4 3-3-2v-24l3 2v24Zm5 3-4-3v-23l4 2v24Zm5-21v23l-4-2v-24l4 3Zm4 26-4-2v-24l4 2v24Zm1-23 4 2v24l-4-3v-23Zm-41-24 4 2v24l-4-2v-24Zm18-14-19 11v27l50 30 19-11v-28l-50-29Z" fill="#004080"/><path d="M307 167v-1l-19 11v1l10-6v26-26l9-5Z" fill="#8ED7F4"/><path d="M219 186v-26l50 28v27l-50-29Z" fill="url(#N)"/><path d="m219 158 19-10 49 28-18 11-50-29Z" fill="#D7D6D4"/><path d="m269 188-1 2-49-29v-2l50 29Z" fill="url(#O)"/><path d="m221 160 17-10 49 29-16 9-50-28Z" fill="#F5F5F5"/><path d="m268 186-48-27 17-10 49 28-18 9Zm0 2v1l-49-28v-1l49 27v1Zm0 25-4-2v-23l4 2v23Zm-41-23-4-2v-23l4 2v23Zm5 2-4-2v-23l4 2v23Zm4 3-3-2v-23l3 2v23Zm5 3-4-3v-23l4 2v24Zm4 2-4-2v-23l4 2v23Zm5 3-4-2v-24l4 2v24Zm4-21v23l-3-2v-23l3 2Zm5 26-4-2v-24l4 3v23Zm1-23 3 2v24l-3-3v-23Zm-41-23 4 2v23l-4-2v-23Zm18-14-19 11v27l50 29 19-11v-28l-50-28Z" fill="#004080"/><path d="M287 179v-1l-19 11v1l10-6v25-25l9-5Z" fill="#E2E1DF"/><path d="M199 197v-25l50 28v26l-50-29Z" fill="#8ED7F4"/><path d="m199 170 18-10 50 28-18 11-50-29Z" fill="#D7D6D4"/><path d="m249 199-1 2-49-28v-2l50 28Z" fill="#3E8DC6"/><path d="m201 171 16-10 50 29-17 10-49-29Z" fill="#F5F5F5"/><path d="m249 198-48-28 17-10 48 28-17 10Zm0 1v1l-49-28v-1l49 28Zm0 26-4-2v-24l4 2v24Zm-41-24-4-2v-23l4 2v23Zm5 3-4-2v-24l4 3v23Zm4 3-4-3v-23l4 2v24Zm5 2-4-2v-23l4 2v23Zm4 3-4-2v-24l4 2v24Zm5 3-4-3v-23l4 2v24Zm4-21v23l-4-2v-24l4 3Zm5 26-4-2v-24l4 2v24Zm0-24 4 3v24l-4-3v-24Zm-40-23 4 2v24l-4-2v-24Zm18-14-19 11v27l50 30 19-12v-27l-50-29Z" fill="#004080"/><path d="M268 190v-1l-19 11v1l9-6v26h1v-26l9-5ZM179 209v-26l49 28v27l-49-29Z" fill="#8ED7F4"/><path d="m179 182 18-10 50 28-19 10-49-28Z" fill="#D7D6D4"/><path d="M228 211v2l-49-28v-2l49 28Z" fill="#3E8DC6"/><path d="m181 183 16-10 50 29-17 10-49-29Z" fill="#F5F5F5"/><path d="m229 210-49-28 18-10 48 28-17 10Zm-1 1v1l-48-28v-1l48 28Zm0 26-3-2v-24l3 2v24Zm-40-24-4-2v-23l4 2v23Zm4 3-3-2v-24l3 2v24Zm5 3-4-3v-23l4 2v24Zm4 2-3-2v-24l3 3v23Zm5 3-4-2v-24l4 2v24Zm4 2-3-2v-23l3 2v23Zm5-21v24l-4-2v-24l4 2Zm4 27-3-2v-24l3 2v24Zm1-24 4 3v23l-4-2v-24Zm-40-23 3 2v24l-3-2v-24Zm18-14-19 11v27l50 29 19-11v-27l-50-29Z" fill="#004080"/><path d="M248 202v-1l-20 11v1l10-6v26h1v-26l9-5Z" fill="#8ED7F4"/><path d="M239 147v-26l50 29v26l-50-29Z" fill="url(#P)"/><path d="m239 120 19-11 49 29-18 11-50-29Z" fill="#E2E1DF"/><path d="M289 148v2l-50-27v-3l50 28Z" fill="url(#Q)"/><path d="m241 121 17-9 49 28-16 9-50-28Z" fill="#fff"/><path d="m288 148-48-28 17-10 49 28-18 10Zm0 1v1l-49-27v-2l49 28Zm0 26-4-2v-24l4 2v24Zm-41-24-3-2v-23l3 2v23Zm5 3-4-2v-23l4 2v23Zm5 2-4-2v-23l4 2v23Zm4 3-4-2v-23l4 2v23Zm4 3-3-3v-23l3 2v24Zm5 2-4-2v-23l4 2v23Zm5-20v23l-4-2v-24l4 3Zm4 26-4-3v-23l4 2v24Zm1-24 4 3v23l-4-2v-24Zm-41-22 4 2v23l-4-2v-23Zm18-15-19 11v27l50 29 19-11v-27l-50-29Z" fill="#004080"/><path d="M307 140v-1l-19 11v1l10-5v25-26l9-5Z" fill="#E2E1DF"/><path d="m294 135-10-6-10 6v3l10 5v-3l10-5Z" fill="#fff"/><path d="M275 137v-2l4 2 5 3v2l-9-5Zm18-3-9 6-9-6 9-5 9 5Zm1 0-10-6-10 6v3l10 6 10-6v-3Z" fill="#004080"/><path d="m289 135-5 3-5-3 5-3 5 3Z" fill="#fff"/><path d="m278 134 6 4 5-4-5-3-6 3Zm6 4-7-4 7-4 7 4-7 4Z" fill="#004080"/><path d="M159 221v-27l49 29v26l-49-28Z" fill="url(#R)"/><path d="m159 194 18-11 50 29-19 10-49-28Z" fill="#E2E1DF"/><path d="M209 222v3l-50-29v-2l50 28Z" fill="url(#S)"/><path d="m161 195 16-10 50 29-17 10-49-29Z" fill="#fff"/><path d="m209 222-49-28 18-10 48 28-17 10Zm-1 1v1l-48-28v-1l48 28Zm0 26-4-2v-24l4 2v24Zm-40-24-4-2v-23l4 2v23Zm4 3-4-2v-24l4 2v24Zm5 3-4-3v-23l4 2v24Zm4 2-4-2v-24l4 3v23Zm5 3-4-2v-24l4 2v24Zm4 2-4-2v-23l4 2v23Zm5-21v24l-4-2v-24l4 2Zm4 27-4-3v-23l4 2v24Zm1-24 4 3v23l-4-2v-24Zm-40-23 3 2v24l-3-3v-23Zm18-14-19 11v27l50 29 18-11v-28l-49-28Z" fill="#004080"/><path d="M227 214v-1l-19 11v1l10-6v26l1-1v-25l8-5Z" fill="#E2E1DF"/><path d="m187 193-10-6-9 6v2l9 6v-3l10-5Z" fill="#fff"/><path d="M168 196v-2l3 2 6 3v2l-9-5Zm18-3-9 5-9-5 9-5 9 5Zm1 0-10-6-10 6v3l10 6 10-6v-3Z" fill="#004080"/><path d="m183 193-6 3-5-3 5-3 6 3Z" fill="#fff"/><path d="m172 193 5 3 6-3-6-3-5 3Zm5 3-6-3 6-4 7 4-7 3Z" fill="#004080"/><path d="M139 232v-26l49 29v26l-49-29Z" fill="url(#T)"/><path d="m139 205 18-11 49 29-18 11-49-29Z" fill="#E2E1DF"/><path d="M189 234v3l-50-29v-3l50 29Z" fill="url(#U)"/><path d="m140 207 17-10 49 28-16 10-50-28Z" fill="#fff"/><path d="m188 233-48-27 17-10 49 27-18 10Zm0 1v1l-49-27v-2l49 28Zm0 26-4-2v-24l4 2v24Zm-40-23-4-3v-23l4 2v24Zm4 2-4-2v-23l4 2v23Zm5 3-4-2v-24l4 3v23Zm4 2-4-2v-23l4 2v23Zm5 3-4-2v-24l4 3v23Zm4 3-4-3v-23l4 2v24Zm5-21v23l-4-2v-23l4 2Zm4 26-4-2v-24l4 2v24Zm1-23 4 2v23l-4-2v-23Zm-41-23 4 2v23l-4-2v-23Zm18-15-18 11v27l49 29 19-11v-27l-50-29Z" fill="#004080"/><path d="M207 226v-1l-19 11v1l10-6v26-26l9-5Z" fill="#E2E1DF"/><path d="M219 158v-26l50 29v26l-50-29Z" fill="#8ED7F4"/><path d="m219 132 19-11 49 29-18 10-50-28Z" fill="#459ECD"/><path d="m269 160-1 2-49-28v-2l50 28Z" fill="#3E8DC6"/><path d="m221 133 17-10 49 29-16 9-50-28Z" fill="#004080"/><path d="m268 159-48-28 17-10 49 28-18 10Zm0 2v1l-49-28v-2l49 28v1Zm0 26-4-3v-23l4 2v24Zm-41-24-4-2v-24l4 2v24Zm5 2-4-2v-23l4 2v23Zm4 3-3-2v-24l3 3v23Zm5 3-4-2v-24l4 2v24Zm4 2-4-2v-23l4 2v23Zm5 3-4-2v-24l4 2v24Zm4-21v24l-3-3v-23l3 2Zm5 26-4-2v-24l4 3v23Zm1-23 3 2v24l-3-2v-24Zm-41-23 4 2v23l-4-2v-23Zm18-15-19 11v28l50 29 19-11v-28l-50-29Z" fill="#004080"/><path d="M287 151v-1l-19 12v1l10-6v26-27l9-5Z" fill="#8ED7F4"/><path d="m248 130-10-5-11 5v3l11 5v-2l10-6Z" fill="#fff"/><path d="M228 133v-2l4 2 5 4v1l-9-5Zm19-2-9 5-9-5 9-5 9 5Zm0-1-9-5-11 6v3l10 5h1l10-5v-3l-1-1Z" fill="#004080"/><path d="m243 131-5 3-6-3 6-3 5 3Z" fill="#fff"/><path d="m232 131 6 3 5-3-5-4-6 4Zm6 4-7-4 7-4 6 4-6 4Z" fill="#004080"/><path d="M199 170v-26l50 29v26l-50-29Z" fill="url(#V)"/><path d="m199 144 18-11 50 28-18 11-50-28Z" fill="#E2E1DF"/><path d="m249 172-1 2-49-28v-2l50 28Z" fill="url(#W)"/><path d="m201 145 16-10 50 29-17 9-49-28Z" fill="#fff"/><path d="m249 171-48-28 17-10 48 28-17 10Zm0 2v1l-49-28v-2l49 28v1Zm0 26-4-3v-24l4 3v24Zm-41-24-4-2v-24l4 2v24Zm5 2-4-2v-23l4 2v23Zm4 3-4-2v-24l4 3v23Zm5 3-4-3v-23l4 2v24Zm4 2-4-2v-23l4 2v23Zm5 3-4-2v-24l4 2v24Zm4-21v24l-4-3v-23l4 2Zm5 26-4-2v-24l4 2v24Zm0-23 4 2v24l-4-2v-24Zm-40-23 4 2v23l-4-2v-23Zm18-15-19 11v28l50 29 19-11v-28l-50-29Z" fill="#004080"/><path d="M268 163v-1l-19 12 9-5v25h1v-26l9-5Z" fill="#E2E1DF"/><path d="M179 182v-26l49 29v26l-49-29Z" fill="url(#X)"/><path d="m179 155 18-11 50 29-19 10-49-28ZM228 184v2l-49-29v-2l49 29Z" fill="#004080"/><path d="m181 156 16-9 50 28-17 9-49-28Z" fill="#004080"/><path d="m229 183-49-28 18-10 48 28-17 10Zm-1 1v2l-48-28v-2l48 28Zm0 26-3-2v-24l3 3v23Zm-40-23-4-3v-23l4 2v24Zm4 2-3-2v-23l3 2v23Zm5 3-4-2v-24l4 2v24Zm4 3-3-3v-23l3 2v24Zm5 2-4-2v-24l4 3v23Zm4 3-3-2v-24l3 2v24Zm5-21v24l-4-3v-23l4 2Zm4 26-3-2v-24l3 2v24Zm1-23 4 2v24l-4-2v-24Zm-40-23 3 2v23l-3-2v-23Zm18-15-19 11v28l50 29 19-11v-28l-50-29Z" fill="#004080"/><path d="M248 175v-1l-20 11v1l10-5v25h1v-26l9-5Z" fill="url(#Y)"/><path d="m234 170-9-6-10 6v3l10 5v-2l9-6Z" fill="url(#Z)"/><path d="M215 173v-2l4 2 5 3v2l-9-5Zm19-3-9 5-9-5 9-5 9 5Zm0 0-9-6-10 6v3l9 6h1l10-6v-3h-1Z" fill="#004080"/><path d="m229 171-5 2-5-2 5-3 5 3Z" fill="#004080"/><path d="m219 170 5 3 6-3-6-3-5 3Zm5 4-7-4 7-4 7 4-7 4Z" fill="#004080"/><path d="m383 509 325-189-325 189Z" fill="#F5F5F5"/><path d="m119 403-14 8c-3 2-7 2-11 0l-14-8c-2-1-2-4 0-5l18-11h3l18 11c2 1 2 4 0 5Z" fill="#D22538"/><path d="m116 375-19-11-19 11v21l19 11v-21l19-11Z" fill="#fff"/><path d="m78 397 19 10v-21l-19-11v22Z" fill="#fff"/><path d="m104 380-7 5-9-5 18-11 8 5-10 6Zm-8 26-17-10v-21l17 10v21Zm1-42 8 5-17 10-9-5 18-10Zm19 10-19-11-19 11v22l18 11h1l18-11h1v-22Z" fill="#004080"/><path d="m90 389-4-2-1-2v-1h1l1 3 3 1v1Zm0-3-4-2-1-1-1 2 2 2 3 3h1l1-2-1-2Z" fill="#004080"/><path d="M113 390h-1l-2 2-1 1v4h1l2-2 1-1v-4Z" fill="#fff"/><path d="m154 411-14 9h-11l-14-9c-2-1-2-4 0-5l18-10h3l18 10c2 1 2 4 0 5Z" fill="#D22538"/><path d="m150 384-18-11-19 11v22l19 10v-21l18-11Z" fill="#fff"/><path d="m113 406 18 10v-21l-18-11v22Z" fill="#fff"/><path d="m139 390-8 4-9-5 18-10 9 5-10 6Zm-8 25-18-10v-21l18 11v20Zm0-42 9 5-18 11-9-5 18-11Zm19 10-19-11-19 11v22l19 11h1l18-11v-22Z" fill="#004080"/><path d="M124 398h-1l-3-2-1-2v-1h1v1l1 2 3 2Zm-1-3-3-2h-1l-1 1 2 3 3 2h1l1-1c0-2-1-3-2-3Z" fill="#004080"/><path d="m147 399-3 2-1 1v4h1l3-2 1-1v-3l-1-1ZM466 409l-17 10c-4 3-9 3-13 0l-18-10c-2-2-2-5 0-7l22-13h4l22 13c2 2 2 5 0 7Z" fill="#fff"/><path d="M458 403v-2l-10-5h-3l-15 8-1 1v1l1 1 10 5h3l15-8v-1Z" fill="#fff"/><path d="m458 404-15 9h-2l-11-7 10 6h3l15-9v1Zm-28 1v-1l15-9h2l10 7h1l-1 1-14 8h-3l-10-6Zm29-3-1-1-10-6h-3l-15 9-1 1v1l1 1 10 6 2 1 1-1 15-9 1-1h-1l1-1Z" fill="#004080"/><path d="m447 395-1-1v-28c0-4 2-7 5-9l5-4 2 1-1 1-5 3c-3 2-5 5-5 8v29Z" fill="#fff"/><path d="m457 354-6 3c-3 2-5 6-5 9v29l1-1v-28c0-3 1-6 4-8l7-3v-1h-1Zm-11 41-1-1v-28c0-4 2-7 5-9l7-4 1 1 1 1h-1l-6 4c-3 1-5 4-5 7v28l-1 1Z" fill="#004080"/><path d="m458 402-1-1v-28c0-4 2-8 5-10l6-3h1v1l-6 4c-3 1-4 4-4 8v28l-1 1Z" fill="#fff"/><path d="m469 359-6 4c-3 2-5 5-5 9v29l1-1v-28c0-3 1-6 4-8l6-4a1 1 0 0 0 1 0 1 1 0 0 0-1-1Zm-11 43-1-2v-28c0-4 2-8 5-10l7-3a1 1 0 0 1 1 0 1 1 0 0 1 0 2l-6 4c-3 1-5 4-5 7v28l-1 2Z" fill="#004080"/><path d="M456 384h1v-1l-2-3-7-4v1l1 3 7 4Zm1 2h-2l-7-5-2-4 1-3 2 1 7 4 3 4v1l-1 2h-1Z" fill="#fff"/><path d="m447 377 2 3 7 4v-1l-1-2-8-4Zm9 7-8-4-1-3v-1h1l7 4 2 3-1 1Zm-9-9h-1v2l2 4 7 4h2l1-2-2-4-8-4h-1Zm9 11h-1l-8-4-2-5 1-3 3 1 7 4c2 0 3 2 3 4s-1 2-2 3h-1Z" fill="#004080"/><path d="m452 381-19-10-18 10v22l18 11v-22l19-11Z" fill="#fff"/><path d="m415 403 18 11v-22l-18-11v22Z" fill="#D22538"/><path d="m441 387-8 4-8-5 17-10 9 5-10 6Zm-8 26-18-11v-21l18 11v21Zm0-43 9 6-18 10-8-5 17-11Zm19 11-19-11-18 11v22l18 10v1l1-1 18-10v-22Z" fill="#D22538"/><path d="m426 395-3-2-1-2v-1 1h1l1 2 3 1-1 1Zm0-3-3-2h-1l-1 1 1 2 4 2h1v-1l-1-2Z" fill="#004080"/><path d="M449 396h-1l-2 2-1 1v4h1l3-2v-5ZM460 399l-2-1-1-1c-3 0-6 2-7 6 0 2 1 5 3 6l2 1 1-1 4-5v-5Z" fill="#fff"/><path d="M451 402c1-3 3-5 5-5a3 3 0 0 1 2 0v1c-2 0-4 3-5 6l1 5-1-1-2-6Zm11-3-1-1-3-2h-1c-3 0-6 2-7 6 0 3 1 6 3 7l2 1a4 4 0 0 0 2 1c3 0 5-3 6-6l-1-6Z" fill="#004080"/><path d="M459 401c-2 0-3 2-4 4l1 3 1 1c2 0 3-2 4-4l-1-3a2 2 0 0 0-1-1Zm-1 8h-1l-1-1-1-3c1-3 2-4 4-4l2 1v3c0 2-2 4-3 4Z" fill="#fff"/><path d="m459 405-2 2-1-2c0-2 1-3 2-2 1 0 2 1 1 2Z" fill="#fff"/><path d="m459 405-1 2-1-2c0-2 1-3 2-2v2ZM601 273l-14 8c-3 2-8 2-11 0l-14-8c-2-1-2-4 0-5l18-11h3l18 11c2 1 2 4 0 5Z" fill="#fff"/><path d="m586 281-14 8c-3 2-7 2-11 0l-14-8c-2-1-2-4 0-5l18-11h3l18 11c2 1 2 4 0 5Z" fill="#fff"/><path d="m600 241-19-11-19 11v22l19 10v-21l19-11Z" fill="#D7D6D4"/><path d="m589 247-8 5-9-5 18-11 9 5-10 6Zm-8 26-18-10v-21l18 10v21Zm0-42 9 5-18 10-9-5 18-10Zm19 10-19-11-19 11v22l19 11 19-11v-22Z" fill="#D22538"/><path d="m574 254-2-1-1-2 2 2 1 1Zm0 1-4-2-1-1 1-1 1 2 3 2Zm0-3-4-1-1-1v2l1 2 3 2h1l1-1-1-3Z" fill="#004080"/><path d="m581 252-19-11-18 11v22l18 10v-21l19-11Z" fill="#fff"/><path d="m544 274 18 10v-21l-18-11v22Z" fill="#fff"/><path d="m570 258-8 5-9-5 18-11 9 5-10 6Zm-8 26-18-10v-21l18 10v21Zm0-42 9 5-18 10-9-5 18-10Zm19 10-19-11-19 11v22l19 11h1l18-11v-22Z" fill="#D22538"/><path d="m555 266-4-2-1-2v-1h1v1l1 2 3 2Zm0-3-4-2h-1l-1 1 2 3 3 2h1l1-2-1-2Z" fill="#004080"/><path d="m600 219-19-11-19 11v22l19 11v-22l19-11Z" fill="#fff"/><path opacity=".5" d="m562 241 19 11v-22l-19-11v22Z" fill="#D22538"/><path d="m589 225-8 5-9-5 18-11 9 5-10 6Zm-8 26-18-10v-21l18 10v21Zm0-42 9 5-18 10-9-5 18-10Zm19 10-19-11-19 11v22l19 11 19-11v-22Z" fill="#D22538"/><path d="m574 233-4-2-1-1 1-1 1 2 3 2Zm0-3-4-1-1-1v2l1 2 3 2h1l1-1-1-3Z" fill="#004080"/><path d="m487 172-3-9-1 4-5-5c-11-6-28-6-38 0l-6 5-1-4-1 4-1 4c-1 5 3 11 9 14 10 6 27 6 38 0 6-3 10-8 9-13Z" fill="#3E8DC6"/><path d="m448 178-2 10-11-7 2-9 11 6Z" fill="#fff"/><path d="M432 171v-2l1-2v-1l1 3 1-1 5-5c10-6 27-6 37 0 3 1 5 3 6 5l1 1-1 2-8 5-11 4v9h-5v-9h-3v9c-6 0-11-2-16-4-6-4-9-10-8-14Zm53-5-1 1 1-1Zm3 6-3-10-2 4-5-4c-10-7-28-7-39 0l-5 4-2-4-1 4v5c-2 5 2 11 8 15 6 3 13 5 20 5s14-2 19-5c8-4 11-9 10-14Z" fill="#004080"/><path d="M478 154c10 6 10 15 0 21-11 6-27 6-37 0-11-6-11-15 0-21 10-6 26-6 37 0Z" fill="#3E8DC6"/><path d="M475 157c9 5 9 13 0 18s-23 5-32 0-9-13 0-18 23-5 32 0Z" fill="#fff"/><path d="M477 175c-10 6-26 6-36 0-5-3-8-7-8-10 0-4 3-8 8-11l2-1-1 1c-4 2-6 6-6 10 0 3 2 7 6 10 5 2 11 4 17 4 5 0 11-2 16-4 4-3 7-7 7-10 0-4-3-8-7-10l-1-1 3 1c4 3 7 7 7 11 0 3-3 7-7 10Zm-3-20c4 2 6 5 6 9 0 3-2 6-6 8-8 5-22 5-31 0-4-2-6-5-6-8 0-4 2-7 6-9 4-3 10-4 16-4 5 0 11 1 15 4Zm3-2c-10-6-27-6-37 0-5 3-8 7-8 12 0 4 3 8 8 11s12 5 19 5c6 0 13-2 18-5s8-7 8-11c0-5-3-9-8-12Z" fill="#004080"/><path d="m472 158-1-1-6-7h-11l-7 7v1c-4 3-2 7 2 9 6 3 15 3 20 0 4-2 5-6 3-9Z" fill="#fff"/><path d="m454 151-7 7-2 3c1 2 2 4 5 5 5 3 14 3 19 0l4-4-1-4-2-1-6-6h-10Zm5 19c-4 0-7-1-10-3-3-1-5-3-5-5s0-4 2-5v-1l8-7h11l6 7 2 2h-1 1l1 4c0 2-2 4-4 5-3 2-7 3-11 3Z" fill="#004080"/><path d="M463 149c2 1 2 3 0 4h-8v-4c2-2 6-2 8 0Z" fill="#fff"/><path d="M463 150c2 2 2 4 0 5h-8v-5h8Z" fill="#fff"/><path d="m459 148-3 1-2 1 2 2h6l2-2-2-1-3-1Zm0 6-4-1-2-3 2-2c2-2 6-2 8 0l2 2-2 3-4 1Z" fill="#004080"/><path d="m459 149-1-1V65l3 10s6 22 17 29c11 6 24-3 24-4l1-1 1 2s6 20 20 29c13 9 24 1 25 1l1 2s-13 10-28-1c-12-8-18-23-20-28-4 2-15 8-25 2-8-4-13-15-16-22v64l-2 1Z" fill="#004080"/><path d="m542 126 50 101 5-67-55-34Z" fill="#D7D6D4"/><path d="m544 128 47 96 5-64-52-32Zm48 101-52-105 57 36-5 69Z" fill="#004080"/><path d="M633 172 416 43l16-9 224 125-23 13Z" fill="#D7D6D4"/><path d="m416 42 8 14 194 124 16-8L416 42Z" fill="#D7D6D4"/><path d="M635 173 418 44l13-7 225 124-21 12Z" fill="#fff"/><path d="M558 141v-13l74 44-15 7-59-38Zm-62-50 61 36v13l-61-38V91Zm-1 10-5-3V88l5 2v11Zm-71-45-6-11 71 42v10l-65-41Zm7-21 75 41-16 9-72-42 13-8Zm64 54-4-3 16-9 5 2-17 10Zm2 1 16-10 63 35-19 11-60-36Zm136 81-74-44 18-11 78 43-22 12Zm2 1 23-13L432 33h-1l-15 9h-1l1 1 7 14 66 42 7 4 121 77v1l16-8h1l1-1Z" fill="#004080"/><path d="M534 110v-4l15 9v3l-15-8Z" fill="url(#aa)"/><path d="m565 106-16 10-15-10 15-9 16 9Z" fill="#D7D6D4"/><path d="m559 107-10 6-10-6 10-6 10 6Z" fill="#D7D6D4"/><path d="m549 112-8-5 8-7 11 6-11 6Zm0-14-14 9 15 9 15-9-16-9Z" fill="url(#ab)"/><path d="m549 115-15-8 15-9 15 9-15 8Zm0 3-15-8v-3l15 9v2Zm16-12-16-9-16 9v4l16 9 16-9v-4Z" fill="#004080"/><path d="m542 108 7-5 8 5-8 4-7-4Zm8-7 9 5-1 1-8-4v-2Zm10 6v-1l-10-6h-1l-11 6 11 7 10-6h1Z" fill="#004080"/><path d="m416 24 15-8 21 11-15 9-21-12Z" fill="#D7D6D4"/><path d="m416 27 15-9 21 12-15 9-21-12Z" fill="#F5F5F5"/><path d="M467 50c-7-4-14-14-14-22v-1l-21-12h-1v2l1-1 19 12-13 7-7-3v2l1 15 18 14 17-10v-3Z" fill="url(#ac)"/><path d="m437 36-21-12v18l33 20v-2c-7-5-12-16-12-24Z" fill="url(#ad)"/><path d="m449 62-32-20V25l14 8 5 4c1 8 6 19 13 24v1Zm-18-46 20 12-14 7-19-11 13-8Zm7 21 15-9v-1l-22-12-15 8-1 1v19l35 21v-4c-7-5-12-15-12-23Z" fill="#004080"/><path d="m453 44-1-2c-1-2-3-3-4-2-2 0-3 2-2 4l1 2 2 2a3 3 0 0 0 2 0c2 0 3-2 2-4Z" fill="#D7D6D4"/><path d="m452 45-1-3L615 0v3L452 45Z" fill="#004080"/><path d="M451 46a3 3 0 1 1 0-6 3 3 0 0 1 0 6Z" fill="#D7D6D4"/><path d="M451 41a2 2 0 1 0 0 4 2 2 0 0 0 0-4Zm0 6a4 4 0 1 1 0-8 4 4 0 0 1 0 8ZM420 40l4 2v-5l-4-2v5Zm6 4-7-4v-7l7 4v7Z" fill="#004080"/><path d="M416 24v-4l16 10v3l-16-9ZM449 20l-17 9-16-9 16-9 17 9Z" fill="#D7D6D4"/><path d="m443 21-11 6-11-6 11-6 11 6Z" fill="#D7D6D4"/><path d="m432 26-9-5 9-7 11 6-11 6Zm0-14-15 9 16 9 16-9-17-9Z" fill="url(#ae)"/><path d="m432 30-16-9 16-9 16 9-16 9Zm0 3-16-9v-3l16 9v3Zm17-12-1-1-16-9-16 9-1 1v3l17 10 17-9v-4Z" fill="#004080"/><path d="m424 21 8-4 8 4-8 5-8-5Zm8-6 10 5-2 1-8-4v-2Zm11 5-11-6-11 6 11 7 9-6 2-1Z" fill="#004080"/><path d="m572 376-26 15c-4 2-8 2-11 0l-38-22c-2-1-2-4 0-4l31-18 44 25c2 1 2 3 0 4Z" fill="#fff"/><path d="M515 348v2l41 24v-2l-41-24ZM555 371l-40-23 4-3 41 24-5 2Z" fill="#004080"/><path d="m556 371-41-23 5-2 40 23-4 2Z" fill="#F5F5F5"/><path d="M514 350v-1l42 23v1l-42-23Zm46 19h-1l-3 2-15-8-26-15 4-2 41 23Zm1 0v-1l-42-23-5 3v2l42 24 5-3v-2ZM507 351v3l42 24v-2l-42-25Z" fill="#004080"/><path d="m549 375-42-24 5-2 42 23-5 3Z" fill="#004080"/><path d="m549 375-41-23 4-3 41 24-4 2Z" fill="#F5F5F5"/><path d="M508 354v-2l40 23v2l-40-23Zm45 18-1 1-3 2-15-8-26-15 4-3 41 23Zm1 1v-1l-41-23h-1l-5 2v3l41 24h1l5-3v-2ZM501 355v2l41 25v-3l-41-24Z" fill="#004080"/><path d="m543 380-42-25 5-3 42 25-5 3Z" fill="#004080"/><path d="m542 380-40-24 4-3 41 24-5 3Z" fill="#F5F5F5"/><path d="M501 357v-1l41 23v2l-41-24Zm46 19-2 1-3 2-14-9-26-15 4-2 41 23Zm1 0h-1l-41-24-5 3v3l41 23v1l1-1 5-2v-3ZM493 360v2l43 23v-2l-43-23Z" fill="#004080"/><path d="m535 383-42-23 5-3 42 24-5 2Z" fill="#004080"/><path d="m535 383-41-23 4-2 41 23-4 2Z" fill="#F5F5F5"/><path d="M494 361v-1l41 24v1l-41-24Zm45 20h-1l-3 2-15-9-26-15 5-2 40 24Zm1 0v-1l-41-24-5 3h-1v3l42 24 5-3v-2ZM515 340v3l41 24v-2l-41-25ZM555 364l-40-24 4-3 41 24-5 3Z" fill="#004080"/><path d="m556 364-41-23 5-3 40 24-4 2Z" fill="#F5F5F5"/><path d="M514 343v-2l42 23v2l-42-23Zm46 18-1 1-3 2-15-8-26-15 4-3 41 23Zm1 1v-1l-42-23v-1l-5 3v3l42 24 5-3v-2ZM507 344v2l42 25v-3l-42-24Z" fill="#004080"/><path d="m549 368-42-24 5-3 42 24-5 3Z" fill="#004080"/><path d="m549 368-41-24 4-2 41 23-4 3Z" fill="#F5F5F5"/><path d="M508 346v-1l40 23v2l-40-24Zm45 19-1 1-3 2-15-9-26-15 4-2 41 23Zm1 0-41-24h-1l-5 3v3l41 23 1 1v-1l5-2v-3ZM501 349v2l41 23v-2l-41-23Z" fill="#004080"/><path d="m543 372-42-24 5-3 42 24-5 3Z" fill="#004080"/><path d="m542 372-40-23 4-2 41 23-5 2Z" fill="#F5F5F5"/><path d="M501 350v-1l41 24v1l-41-24Zm46 20h-2l-3 2-14-9-26-15 4-2 41 24Zm1 0v-1h-1l-41-24-5 3v3l41 24h1l5-3v-2ZM493 352v2l43 24v-2l-43-24Z" fill="#004080"/><path d="m535 376-42-24 5-3 42 24-5 3Z" fill="#004080"/><path d="m535 376-41-23 4-3 41 24-4 2Z" fill="#F5F5F5"/><path d="M494 354v-2l41 24v2l-41-24Zm45 19-1 1-3 2-15-9-26-15 5-3 40 24Zm1 0-41-24-5 2-1 1v2l42 25 5-3v-3Z" fill="#004080"/><path d="M524 377v-6l6 4v6l-6-4Z" fill="#004080"/><path d="m530 380-6-3v-5l6 4v4Zm5-2-4-2v-1l-7-4v6l7 4v-1l4-2ZM498 361v-4l6 3v5l-6-4Z" fill="#004080"/><path d="m504 365-5-3v-4l5 3v4Zm5-2-4-2-7-4v5l7 4v-1l4-2ZM511 369v-5l6 4v4l-6-3Z" fill="#004080"/><path d="m517 372-6-3v-4l6 3v4Zm5-2-4-2-7-4v5l7 4 4-3Z" fill="#004080"/><path d="m545 335-19-10-19 10v22l19 11v-22l19-11Z" fill="#fff"/><path d="m507 357 19 11v-22l-19-10v21Z" fill="#D22538"/><path d="m534 341-8 5-8-5 18-11 9 5-11 6Zm-8 27-18-11v-21l18 10v22Zm0-43 9 5-18 10-9-5 18-10Zm20 10-20-11-19 11v22l19 11v1l1-1 19-10v-23Z" fill="#D22538"/><path d="M519 350v-1l-4-2-1-2h1l1 2 3 2v1Zm0-4-4-2h-1v1l1 3 3 2h1l1-1-1-3Z" fill="#004080"/><path d="M543 350h-1l-3 2-1 2v3l1 1 3-2 1-2v-4ZM509 303l-112 64c-3 2-6 2-9 0l-52-29c-2-2-2-5 0-6l115-67h4l54 32c2 1 2 4 0 6Z" fill="#fff"/><path d="m385 356-52-31v-58l52 30v59Z" fill="#004080"/><path d="m435 207-102 60 52 30 103-59-53-31Z" fill="#004080"/><path d="m385 355-1-1-10-5v-2l-6-4v2l-18-10v-2l-7-4v2l-10-6v-57l52 30v57Zm0 4-6-4-2-4 8 4v4Zm-46-27-6-3v-3l1 1 6 3-1 2Zm-7-65v62l7 4 3-2 35 20 1 5 7 4v-63l-52-30h-1Z" fill="#fff"/><path d="m385 293-45-26 96-55 45 26-96 55Zm51-84-102 59 52 30 102-59-52-30Z" fill="#F5F5F5"/><path d="m481 303-2-1 1-1v1l1 1Zm8-65-104 59v63h1l6-4 2-5 85-49 3 3 7-5v-62Z" fill="#004080"/><path d="M395 297v47h-4v-45l4-2Zm86-2v-47l3-2v47l-3 2Zm-5-44 4-3v47h-4v-44Zm-4 49v-47l3-2v47l-3 2Zm-5-45 4-2v47h-4v-45Zm-3 50v-48l3-1v47l-3 2Zm-5-45 4-2v47h-4v-45Zm-4 50v-48l3-1v47l-3 2Zm-5-45 5-2v47h-4v-45h-1Zm-3 50v-48l3-2v48l-3 2Zm-5-45 4-2v47h-4v-45Zm-8 5 4-3v48h-4v-45Zm-4 49v-47l3-2v48l-3 1Zm-5-44 4-3v48h-4v-45Zm-4 49v-47l3-2v47l-3 2Zm-4-45 4-2v47h-4v-45Zm-4 50v-47l3-2v47l-3 2Zm-5-45 4-2v47h-4v-45Zm-3 50v-48l3-1v47l-3 2Zm-5-45 4-2v47h-4v-45Zm-4 2 3-1v47l-3 2v-48Zm42 23v-47l3-2v48l-3 1Zm-47-20v49l5-3v-1l4-2 4-2h1l3-3 5-2 4-2 4-3 4-2 5-3 4-2 4-3h1l3-2 4-2 1-1 4-2 4-2 4-3 4-2h1l3-2 5-3 4-2 5-3 3-2v-49l-93 54Z" fill="#fff"/><path d="m353 260 3-1 44 24-3 2-44-25ZM346 265l3-2 44 25-3 2-44-25ZM361 256l3-2 44 25-3 2-44-25ZM369 251l3-2 43 25-3 2-43-25ZM377 247l3-2 44 25-3 1-44-24ZM384 242l3-2 44 25-3 2-44-25ZM393 237l3-1 43 25-3 1-43-25ZM401 233l3-2 44 25-3 2-44-25ZM408 228l3-1 44 24-3 2-44-25ZM416 224l3-2 44 25-3 2-44-25ZM425 219l3-2 43 25-3 2-43-25ZM432 215l3-2 44 25-3 1-44-24Z" fill="#F5F5F5"/><path d="m333 267 52 30 103-59-52-30-103 59Zm52 31-53-31 104-60 53 31-104 60Z" fill="#fff"/><path d="m375 250 1-3 44 25-3 2-42-24Zm-6 1 3-2 2 1 42 24-3 2-44-25Zm-2 3 2-3 43 25-3 2-42-24Zm-6 2 3-2 44 25-3 2-44-25Zm-2 3 2-3 43 25-3 2-42-24Zm-6 1 3-2 44 25-3 2-44-25Zm-2 4 2-3 43 24-3 2-42-23Zm0 0 41 24-3 2-43-26 3-1 2 1Zm77 3-3 2-42-24 1-3 44 25Zm-30-31 2-3 44 25-4 2-42-24Zm-5 1 3-1h1l43 25-3 1-44-25Zm-2 4 1-3 44 25-3 2-42-24Zm41 24-3 2-44-25 3-2 44 25Zm36-21-4 2-42-23 2-3 44 24Zm-36-29 4-2 43 25-3 1-44-24Zm-2 3 2-3 44 25-4 2-42-24Zm41 24-3 2-44-25 4-2 43 25Zm-51-20 44 25-4 2-43-25 3-2Zm-6 5 2-3 44 25-4 2-42-24Zm-2-1 44 25-3 2-44-25 3-2Zm-6 6 2-3 44 25-4 2-42-24Zm-2-1 44 25-3 2-44-25 3-2Zm-24 14 44 25-3 1-44-25 3-1Zm-36 23 2-3 43 25-4 2-41-24Zm137-30h-1l-44-26-16 9-5 3-3 2-5 2-3 2-5 3-19 11-4 2-36 21 45 25v1l96-55ZM337 323l44 25v-48l-44-25v48Zm45 26-46-26v-50l46 27v49Z" fill="#fff"/><path d="M359 336h-1v-50h1v50Z" fill="#fff"/><path d="M413 240v-3l18 10v3l-18-10Z" fill="#3E8DC6"/><path d="m448 237-18 10-17-10 17-10 18 10Z" fill="#3E8DC6"/><path d="m442 237-11 7-12-7 12-7 11 7Z" fill="#fff"/><path d="m430 244-10-6 10-7 12 6-12 7Zm0-16-16 10 17 10 17-10-18-10Z" fill="#fff"/><path d="m431 247-17-10 17-10 16 10-16 10Zm-1 3-17-9v-3l17 9v3Zm19-13h-1l-17-10-18 10v4l17 10h1l18-10v-4Z" fill="#004080"/><path d="m422 238 9-4 8 4-8 5-9-5Zm9-7 11 6-2 1-9-5v-2Zm11 6h1l-12-7-13 7 13 7 10-6 1-1Z" fill="#004080"/><path d="m372 383-112 65c-3 2-7 2-9 0l-52-30c-2-1-2-4 0-5l115-67h3l55 32c2 1 2 4 0 5Z" fill="#fff"/><path d="m247 436-53-31v-58l53 30v59Z" fill="#004080"/><path d="m297 287-103 60 53 30 102-60-52-30Z" fill="#004080"/><path d="m246 434-10-5v-2l-7-4v2l-18-11v-2l-7-3v2l-10-6v-57l52 30v56Zm0 5-6-4-1-4 7 4v4Zm-46-27-6-3v-4l2 1 5 4-1 2Zm-6-65v62l7 4 3-2 34 20 2 5 6 3h1v-62l-52-30h-1Z" fill="#004080"/><path d="m247 373-45-26 95-55 45 26-95 55Zm50-84-102 59 52 30 102-59-52-30Z" fill="#F5F5F5"/><path d="m343 383-2-1 1-1 1 2Zm7-66-103 60v63l7-4 1-5 85-49 3 2 7-4v-63Z" fill="#004080"/><path d="M257 376v48h-4v-45l4-3Zm85-1v-47l3-2v47l-3 2Zm-5-45 4-2v47h-4v-45Zm-3 50v-48l3-1v47l-3 2Zm-5-45 4-2v47h-4v-45Zm-4 50v-48l3-1v47l-3 2Zm-5-45 5-2v47h-5v-45Zm-3 50v-48l3-2v48l-3 2Zm-5-45 4-2v47h-4v-45Zm-4 49v-47l3-2v48l-3 1Zm-4-44 4-3v48h-4v-45Zm-9 5 4-3v47h-4v-44Zm-4 49v-47l3-2v47l-3 2Zm-4-45 4-2v47h-4v-45Zm-4 50v-47l3-2v47l-3 2Zm-5-45 4-2v47h-4v-45Zm-3 50v-48l3-1v47l-3 2Zm-5-45 4-2v47h-4v-45Zm-4 50v-48l3-1v47l-3 2Zm-5-45 4-2v47h-4v-45Zm-3 2 3-2v48l-3 1v-47Zm42 23v-47l3-2v47l-3 2Zm-48-21v49l6-3 3-2 5-2v-1l4-2 4-2h1l3-3 5-2 4-2 4-3 4-2 5-3 4-2 4-3 4-2 4-2 1-1 3-2 5-2 4-3 4-2h1l3-3 5-2 4-2v-49l-94 53Z" fill="#fff"/><path d="m215 340 3-2 43 25-3 2-43-25ZM207 345l3-2 44 25-3 2-44-25ZM223 336l3-2 44 25-3 1-44-24ZM230 331l3-2 44 25-3 2-44-25ZM238 326l4-1 43 25-3 1-44-25ZM246 322l3-2 44 25-3 2-44-25ZM254 317l3-2 44 25-3 2-44-25ZM262 313l3-2 44 25-3 1-44-24ZM270 308l3-2 43 25-3 2-43-25ZM278 303l3-1 44 25-3 1-44-25ZM286 299l3-2 44 25-3 2-44-25ZM294 294l3-1 43 24-3 2-43-25Z" fill="#F5F5F5"/><path d="m195 347 52 30 102-59-52-30-102 59Zm52 31-53-31 103-60 53 31-103 60Z" fill="#004080"/><path d="m236 330 2-3 44 25-4 2-42-24Zm-5 1 3-2 1 1 43 25-4 1-43-25Zm-3 4 2-3 44 25-4 2-42-24Zm-5 1 3-2 44 25-3 2-44-25Zm-2 3 1-3 44 25-4 2-41-24Zm-6 2 3-2 44 25-3 2-44-25Zm-2 3 1-3 44 25-3 2-42-24Zm-1 0 42 25-3 1-43-25 2-2 2 1Zm78 4-4 2-42-24 2-3 44 25Zm-30-32 2-3 43 25-3 2-42-24Zm-5 1 3-1h1l42 25-3 2-43-26Zm-3 4 2-3 44 25-4 2-42-24Zm41 24-3 2-43-25 3-2 43 25Zm36-20-3 2-42-25 1-3 44 26Zm-35-31 3-1 44 25-3 2-44-26Zm-2 4 1-3 44 25-3 2-42-24Zm41 24-3 2-44-25 3-2 44 25Zm-52-20 44 25-3 2-44-25 3-2Zm-5 5 1-3 44 25-3 2-42-24Zm-3-1 44 26-3 1-44-25 3-2Zm-5 6 1-3 44 25-3 2-42-24Zm-3-1 44 25-3 2-44-25 3-2Zm-23 14 43 25-3 2-43-25 3-2Zm-37 23 2-3 43 26-3 1-42-24Zm137-30-45-26-16 9-4 3-4 2-4 2-4 2-4 3-19 11-5 3-35 20 44 26h1l95-55Z" fill="#004080"/><path d="m205 403 37-21v43l-37-22ZM199 403l2-1 41 23v3l-43-25Z" fill="#F5F5F5"/><path d="m205 402 37-22v43l-37-21Zm-6 0h1l1-1 41 23v3l-43-25Zm2-46v44l-1 1h-1v-47l2 2Zm-3-3v49l45 26v-49l-45-26Z" fill="#004080"/><path d="M274 320v-4l19 11-1 3-18-10ZM309 316l-17 10-18-10 18-10 17 10Z" fill="#3E8DC6"/><path d="m304 316-12 7-11-7 11-6 12 6Z" fill="#3E8DC6"/><path d="m292 323-10-6 10-6 11 6-11 6Zm0-15-16 9 17 10 16-9-17-10Z" fill="#fff"/><path d="m292 326-17-9 17-10 17 10-17 9Zm0 4-17-10v-3l17 10v3Zm18-13v-1l-18-10-17 10-1 1v4l18 10 18-10v-4Z" fill="#004080"/><path d="m284 318 8-5 9 5-9 5-8-5Zm8-8 11 6-2 1-9-5v-2Zm12 7 1-1-13-7-12 7 12 8 11-7h1ZM217 390v-8l8 4v8l-8-4Z" fill="#004080"/><path d="m217 383 6-3 4 2v3l-3 2-7-4Z" fill="#fff"/><path d="M218 391v-8l1 1 5 3v8l-6-4Zm5-12 4 3v3l-3 1-5-3h-1l5-4Zm0 0-5 3h-1v9l7 4 3-2v-12l-4-2Z" fill="#004080"/><path d="M227 393v-11l11 5v12l-11-6Z" fill="#fff"/><path d="m227 381 9-5 6 4v4l-5 3-10-6Z" fill="#fff"/><path d="M228 393v-11l2 1 8 5v11l-10-6Zm8-16 6 3v5l-4 2-8-4-1-1 7-5Zm0-1-8 5h-1v13l11 6 5-3v-17l-7-4ZM233 406v-8l6 4v8l-6-4Z" fill="#004080"/><path d="m233 398 5-4 4 3v3l-3 2-6-4Z" fill="#fff"/><path d="M233 406v-8l1 1 5 3v7l-6-3Zm5-11 5 2v3l-4 2-5-3-1-1 5-3Zm0-1-6 4v8l7 4h1l3-2v-11l-5-3Z" fill="#004080"/><path d="M215 60h-73c2-18 17-33 37-33 19 0 35 15 36 33ZM179 140c-3 0-5-2-6-4-20-32-27-53-30-64l-1-8v-4h73v3l-1 10c-3 11-10 31-29 63-1 2-4 4-6 4Z" fill="#D22538"/><path d="M201 62c0 12-10 22-22 22s-22-10-22-22c0-11 10-21 22-21s22 10 22 21Z" fill="#fff"/><defs><linearGradient id="a" x1="161.3" y1="296.3" x2="200.9" y2="98.9" gradientUnits="userSpaceOnUse"><stop stop-color="#A5A9AB"/><stop offset="1" stop-color="#fff"/></linearGradient><linearGradient id="b" x1="160.5" y1="289.3" x2="196.2" y2="101.5" gradientUnits="userSpaceOnUse"><stop stop-color="#A5A9AB"/><stop offset="1" stop-color="#fff"/></linearGradient><linearGradient id="c" x1="116.6" y1="302.1" x2="118.1" y2="285" gradientUnits="userSpaceOnUse"><stop stop-color="#A5A9AB"/><stop offset="1" stop-color="#fff"/></linearGradient><linearGradient id="d" x1="159.5" y1="275.4" x2="200.2" y2="84" gradientUnits="userSpaceOnUse"><stop stop-color="#A5A9AB"/><stop offset="1" stop-color="#fff"/></linearGradient><linearGradient id="e" x1="158.5" y1="273.9" x2="204.2" y2="65.7" gradientUnits="userSpaceOnUse"><stop stop-color="#A5A9AB"/><stop offset="1" stop-color="#fff"/></linearGradient><linearGradient id="f" x1="333" y1="157.3" x2="369" y2="67.5" gradientUnits="userSpaceOnUse"><stop stop-color="#A5A9AB"/><stop offset="1" stop-color="#fff"/></linearGradient><linearGradient id="g" x1="333" y1="99.1" x2="345.3" y2="43.8" gradientUnits="userSpaceOnUse"><stop stop-color="#A5A9AB"/><stop offset="1" stop-color="#fff"/></linearGradient><linearGradient id="h" x1="333" y1="101.4" x2="340.2" y2="58.5" gradientUnits="userSpaceOnUse"><stop stop-color="#A5A9AB"/><stop offset="1" stop-color="#fff"/></linearGradient><linearGradient id="i" x1="336.8" y1="78.7" x2="342.3" y2="44.1" gradientUnits="userSpaceOnUse"><stop stop-color="#A5A9AB"/><stop offset="1" stop-color="#fff"/></linearGradient><linearGradient id="j" x1="333" y1="94.5" x2="344.9" y2="40.2" gradientUnits="userSpaceOnUse"><stop stop-color="#A5A9AB"/><stop offset="1" stop-color="#fff"/></linearGradient><linearGradient id="k" x1="352.1" y1="77.7" x2="381.4" y2="60.8" gradientUnits="userSpaceOnUse"><stop stop-color="#A5A9AB"/><stop offset="1" stop-color="#fff"/></linearGradient><linearGradient id="l" x1="351" y1="23.7" x2="352.2" y2="18.6" gradientUnits="userSpaceOnUse"><stop stop-color="#A5A9AB"/><stop offset="1" stop-color="#fff"/></linearGradient><linearGradient id="m" x1="354.1" y1="29.2" x2="355.9" y2="24.5" gradientUnits="userSpaceOnUse"><stop stop-color="#A5A9AB"/><stop offset="1" stop-color="#fff"/></linearGradient><linearGradient id="n" x1="393" y1="103.2" x2="400.2" y2="93.7" gradientUnits="userSpaceOnUse"><stop stop-color="#A5A9AB"/><stop offset="1" stop-color="#fff"/></linearGradient><linearGradient id="o" x1="386.3" y1="106.8" x2="393.8" y2="98.5" gradientUnits="userSpaceOnUse"><stop stop-color="#A5A9AB"/><stop offset="1" stop-color="#fff"/></linearGradient><linearGradient id="p" x1="379" y1="111.4" x2="386.5" y2="103.1" gradientUnits="userSpaceOnUse"><stop stop-color="#A5A9AB"/><stop offset="1" stop-color="#fff"/></linearGradient><linearGradient id="q" x1="371.7" y1="115.1" x2="379.2" y2="106.8" gradientUnits="userSpaceOnUse"><stop stop-color="#A5A9AB"/><stop offset="1" stop-color="#fff"/></linearGradient><linearGradient id="r" x1="393" y1="113.3" x2="399.6" y2="104" gradientUnits="userSpaceOnUse"><stop stop-color="#A5A9AB"/><stop offset="1" stop-color="#fff"/></linearGradient><linearGradient id="s" x1="386.3" y1="117.8" x2="393.8" y2="109.5" gradientUnits="userSpaceOnUse"><stop stop-color="#A5A9AB"/><stop offset="1" stop-color="#fff"/></linearGradient><linearGradient id="t" x1="379" y1="122.4" x2="386.5" y2="114.1" gradientUnits="userSpaceOnUse"><stop stop-color="#A5A9AB"/><stop offset="1" stop-color="#fff"/></linearGradient><linearGradient id="u" x1="371.7" y1="126.1" x2="379.2" y2="117.8" gradientUnits="userSpaceOnUse"><stop stop-color="#A5A9AB"/><stop offset="1" stop-color="#fff"/></linearGradient><linearGradient id="v" x1="368.3" y1="83" x2="372.2" y2="67.9" gradientUnits="userSpaceOnUse"><stop stop-color="#A5A9AB"/><stop offset="1" stop-color="#fff"/></linearGradient><linearGradient id="w" x1="374.5" y1="102" x2="379.4" y2="80.5" gradientUnits="userSpaceOnUse"><stop stop-color="#A5A9AB"/><stop offset="1" stop-color="#fff"/></linearGradient><linearGradient id="x" x1="102.6" y1="275.8" x2="132" y2="258.9" gradientUnits="userSpaceOnUse"><stop stop-color="#A5A9AB"/><stop offset="1" stop-color="#fff"/></linearGradient><linearGradient id="y" x1="101.7" y1="220.9" x2="102.4" y2="216.7" gradientUnits="userSpaceOnUse"><stop stop-color="#A5A9AB"/><stop offset="1" stop-color="#fff"/></linearGradient><linearGradient id="z" x1="104.6" y1="226.4" x2="105.8" y2="222.5" gradientUnits="userSpaceOnUse"><stop stop-color="#A5A9AB"/><stop offset="1" stop-color="#fff"/></linearGradient><linearGradient id="A" x1="124.8" y1="268.9" x2="132.7" y2="249.5" gradientUnits="userSpaceOnUse"><stop stop-color="#A5A9AB"/><stop offset="1" stop-color="#fff"/></linearGradient><linearGradient id="B" x1="137.1" y1="251.1" x2="138.5" y2="246.1" gradientUnits="userSpaceOnUse"><stop stop-color="#A5A9AB"/><stop offset="1" stop-color="#fff"/></linearGradient><linearGradient id="C" x1="328.3" y1="161.6" x2="333.7" y2="138" gradientUnits="userSpaceOnUse"><stop stop-color="#A5A9AB"/><stop offset="1" stop-color="#fff"/></linearGradient><linearGradient id="D" x1="328.3" y1="162.5" x2="333.7" y2="139" gradientUnits="userSpaceOnUse"><stop stop-color="#A5A9AB"/><stop offset="1" stop-color="#fff"/></linearGradient><linearGradient id="E" x1="324.8" y1="169.9" x2="332.6" y2="150.5" gradientUnits="userSpaceOnUse"><stop stop-color="#A5A9AB"/><stop offset="1" stop-color="#fff"/></linearGradient><linearGradient id="F" x1="341.1" y1="152.9" x2="343.7" y2="145.2" gradientUnits="userSpaceOnUse"><stop stop-color="#A5A9AB"/><stop offset="1" stop-color="#fff"/></linearGradient><linearGradient id="G" x1="335.6" y1="155.7" x2="336.3" y2="150.5" gradientUnits="userSpaceOnUse"><stop stop-color="#A5A9AB"/><stop offset="1" stop-color="#fff"/></linearGradient><linearGradient id="H" x1="332.6" y1="152.9" x2="335.5" y2="145.4" gradientUnits="userSpaceOnUse"><stop stop-color="#A5A9AB"/><stop offset="1" stop-color="#fff"/></linearGradient><linearGradient id="I" x1="337" y1="153" x2="338.9" y2="147.1" gradientUnits="userSpaceOnUse"><stop stop-color="#A5A9AB"/><stop offset="1" stop-color="#fff"/></linearGradient><linearGradient id="J" x1="337.6" y1="150.3" x2="338.3" y2="147.2" gradientUnits="userSpaceOnUse"><stop stop-color="#A5A9AB"/><stop offset="1" stop-color="#fff"/></linearGradient><linearGradient id="K" x1="337.6" y1="151.2" x2="338.3" y2="148.2" gradientUnits="userSpaceOnUse"><stop stop-color="#A5A9AB"/><stop offset="1" stop-color="#fff"/></linearGradient><linearGradient id="L" x1="269.7" y1="188.8" x2="293" y2="134.2" gradientUnits="userSpaceOnUse"><stop stop-color="#A5A9AB"/><stop offset="1" stop-color="#fff"/></linearGradient><linearGradient id="M" x1="269.7" y1="164.9" x2="277.6" y2="131.3" gradientUnits="userSpaceOnUse"><stop stop-color="#A5A9AB"/><stop offset="1" stop-color="#fff"/></linearGradient><linearGradient id="N" x1="229.3" y1="212.6" x2="252.7" y2="158.1" gradientUnits="userSpaceOnUse"><stop stop-color="#A5A9AB"/><stop offset="1" stop-color="#fff"/></linearGradient><linearGradient id="O" x1="229.3" y1="188.7" x2="237.7" y2="154.2" gradientUnits="userSpaceOnUse"><stop stop-color="#A5A9AB"/><stop offset="1" stop-color="#fff"/></linearGradient><linearGradient id="P" x1="249.5" y1="174.1" x2="272.9" y2="119.6" gradientUnits="userSpaceOnUse"><stop stop-color="#A5A9AB"/><stop offset="1" stop-color="#fff"/></linearGradient><linearGradient id="Q" x1="249.5" y1="149.3" x2="257.4" y2="115.7" gradientUnits="userSpaceOnUse"><stop stop-color="#A5A9AB"/><stop offset="1" stop-color="#fff"/></linearGradient><linearGradient id="R" x1="168.8" y1="247.5" x2="192.1" y2="192.9" gradientUnits="userSpaceOnUse"><stop stop-color="#A5A9AB"/><stop offset="1" stop-color="#fff"/></linearGradient><linearGradient id="S" x1="169" y1="223.6" x2="177.2" y2="189" gradientUnits="userSpaceOnUse"><stop stop-color="#A5A9AB"/><stop offset="1" stop-color="#fff"/></linearGradient><linearGradient id="T" x1="148.6" y1="259.4" x2="172" y2="204.9" gradientUnits="userSpaceOnUse"><stop stop-color="#A5A9AB"/><stop offset="1" stop-color="#fff"/></linearGradient><linearGradient id="U" x1="148.8" y1="235.5" x2="157.1" y2="200.9" gradientUnits="userSpaceOnUse"><stop stop-color="#A5A9AB"/><stop offset="1" stop-color="#fff"/></linearGradient><linearGradient id="V" x1="209.2" y1="197" x2="232.5" y2="142.5" gradientUnits="userSpaceOnUse"><stop stop-color="#A5A9AB"/><stop offset="1" stop-color="#fff"/></linearGradient><linearGradient id="W" x1="209.2" y1="173.2" x2="217.1" y2="139.5" gradientUnits="userSpaceOnUse"><stop stop-color="#A5A9AB"/><stop offset="1" stop-color="#fff"/></linearGradient><linearGradient id="X" x1="189" y1="208.9" x2="212.3" y2="154.4" gradientUnits="userSpaceOnUse"><stop stop-color="#A5A9AB"/><stop offset="1" stop-color="#fff"/></linearGradient><linearGradient id="Y" x1="232.3" y1="205.2" x2="249.4" y2="178.5" gradientUnits="userSpaceOnUse"><stop stop-color="#A5A9AB"/><stop offset="1" stop-color="#fff"/></linearGradient><linearGradient id="Z" x1="218.6" y1="177.9" x2="223" y2="162.4" gradientUnits="userSpaceOnUse"><stop stop-color="#A5A9AB"/><stop offset="1" stop-color="#fff"/></linearGradient><linearGradient id="aa" x1="537" y1="117.9" x2="540.8" y2="105" gradientUnits="userSpaceOnUse"><stop stop-color="#A5A9AB"/><stop offset="1" stop-color="#fff"/></linearGradient><linearGradient id="ab" x1="540.9" y1="114.9" x2="545.2" y2="95.5" gradientUnits="userSpaceOnUse"><stop stop-color="#A5A9AB"/><stop offset="1" stop-color="#fff"/></linearGradient><linearGradient id="ac" x1="438.4" y1="61.5" x2="461.8" y2="16.8" gradientUnits="userSpaceOnUse"><stop stop-color="#A5A9AB"/><stop offset="1" stop-color="#fff"/></linearGradient><linearGradient id="ad" x1="423.2" y1="61" x2="440" y2="23.4" gradientUnits="userSpaceOnUse"><stop stop-color="#A5A9AB"/><stop offset="1" stop-color="#fff"/></linearGradient><linearGradient id="ae" x1="423.7" y1="29.6" x2="428.3" y2="9.1" gradientUnits="userSpaceOnUse"><stop stop-color="#A5A9AB"/><stop offset="1" stop-color="#fff"/></linearGradient></defs></svg>