<svg width="48" height="48" viewBox="0 0 48 48" fill="none" xmlns="http://www.w3.org/2000/svg">
<path d="M25 2V0H23V2H2H0V4H2V30H0V32H2H19.471L13 46.791V48H15V47.209L21.654 32H23V48H25V32H26.346L33 47.209V48H35V46.791L28.529 32H46H48V30H46V4H48V2H46H25ZM44 30H4V4H44V30Z" fill="#9FB3C4"/>
<path d="M29 14H27V27H29V14Z" fill="#9FB3C4"/>
<path d="M24 19H22V27H24V19Z" fill="#9FB3C4"/>
<path d="M19 23H17V27H19V23Z" fill="#9FB3C4"/>
<path d="M14 19H12V27H14V19Z" fill="#9FB3C4"/>
<path d="M9 24H7V27H9V24Z" fill="#9FB3C4"/>
<path d="M13 14.414L18 19.414L28.707 8.707L27.293 7.293L18 16.586L13 11.586L6.29297 18.293L7.70697 19.707L13 14.414Z" fill="#9FB3C4"/>
<path d="M41 7H32V9H41V7Z" fill="#9FB3C4"/>
<path d="M41 12H32V14H41V12Z" fill="#9FB3C4"/>
</svg>
